<?xml version="1.0" encoding="UTF-8"?>
<svg id="_レイヤー_2" data-name="レイヤー 2" xmlns="http://www.w3.org/2000/svg" viewBox="0 0 265.93 69.62">
  <defs>
    <style>
      .cls-1 {
        fill: #fff;
        stroke-width: 0px;
      }
    </style>
  </defs>
  <g id="_レイヤー_1-2" data-name="レイヤー 1">
    <g>
      <path class="cls-1" d="m49.61,22.02c-.26.36-.5.7-.79,1.09s-.61.81-1.02,1.35v4.14s.02,2.53.02,2.53v.45c0,4.49-2.58,8.55-6.74,11.5s-9.91,4.77-16.25,4.77-12.09-1.83-16.26-4.78-6.76-7.02-6.76-11.51v-7.1c-.34-.33-.66-.76-.97-1.2s-.59-.89-.85-1.25c0,.15,0,.3,0,.42s0,.22,0,.29v8.86c0,5.04,2.78,9.6,7.28,12.91s10.7,5.36,17.55,5.36c5.19,0,10.01-1.18,13.99-3.19s7.14-4.85,8.99-8.19l-.02,6.44-.02,6.44c0,4.49-2.57,8.55-6.72,11.5-4.15,2.95-9.89,4.77-16.23,4.77s-11.86-1.87-16.09-4.84c-4.23-2.97-6.93-7.04-6.93-11.43-.91-1.22-.89-1.22-1.81-2.45,0,1.07,0,2.01,0,2.45,0,4.98,2.77,9.54,7.26,12.86s10.7,5.4,17.57,5.4,13.04-2.04,17.51-5.35c4.48-3.3,7.25-7.87,7.25-12.9v-9.89s0-9.92,0-9.92v-8.82c0-.06,0-.18,0-.31s0-.28,0-.41Z"/>
      <path class="cls-1" d="m48.47,19.54s0,0,0,0,0,0,0,0c.08-.16.16-.33.24-.49s.14-.33.21-.5c.01-.03.03-.07.04-.1s.03-.07.04-.1c.06-.17.12-.33.17-.5s.1-.34.15-.5c0,0,0,0,0,0s0,0,0,0c.04-.17.08-.34.11-.51s.06-.34.08-.51c0-.04.01-.08.02-.12s0-.08.01-.12c.02-.17.04-.34.05-.52s.02-.35.02-.52c0,0,0,0,0,0s0,0,0,0c0-1.95-.61-3.81-1.72-5.51s-2.72-3.26-4.72-4.6c-.27-.18-.54-.35-.82-.52s-.57-.34-.86-.5c-.29-.16-.59-.32-.9-.47s-.62-.3-.94-.45c-.8-.36-1.63-.69-2.49-1s-1.76-.57-2.69-.81c-.37-.1-.75-.18-1.13-.27s-.76-.16-1.15-.24c-1.16-.22-2.37-.39-3.6-.5s-2.49-.17-3.78-.17c-.43,0-.85,0-1.28.02s-.84.03-1.26.06c-.83.05-1.66.13-2.46.23s-1.6.22-2.38.37c-.58.11-1.16.23-1.72.37s-1.12.28-1.66.44c-.72.21-1.43.44-2.11.69s-1.34.52-1.98.81c-.95.43-1.86.91-2.7,1.42s-1.62,1.06-2.34,1.64c-.24.19-.47.39-.69.59s-.44.4-.65.61c-.1.1-.21.21-.3.31s-.2.21-.29.32c-.19.21-.37.43-.55.65s-.34.44-.5.67c-.63.9-1.11,1.84-1.45,2.82s-.5,1.99-.5,3.03c0,.18,0,.35.02.52s.03.35.05.52c0,.04,0,.08.01.12s.01.08.02.12c.02.17.05.34.08.51s.07.34.11.51c0,0,0,0,0,0s0,0,0,0c.04.17.09.34.15.51s.11.33.17.5c.01.03.03.07.04.1s.03.07.04.1c.46,1.17,1.15,2.29,2.04,3.34s1.97,2.02,3.22,2.91c0,0,0,0,0,0s0,0,.01,0c.37.26.76.52,1.17.77s.82.49,1.25.72c0,0,.02.01.03.02s.02.01.03.02c.21.11.42.22.63.33s.43.21.65.31c0,0,.01,0,.02,0s.01,0,.02,0c.22.1.45.21.68.3s.46.2.7.29c.02,0,.04.01.06.02s.04.01.06.02c.21.08.43.17.65.25s.44.16.66.24c.03.01.06.02.09.03s.06.02.09.03c.24.08.48.16.72.24s.49.15.74.22c.03,0,.05.01.08.02s.05.01.08.02c.22.06.44.12.67.18s.45.11.68.17c.05.01.1.02.14.03s.1.02.14.03c.25.06.51.11.76.17s.51.1.77.15c.03,0,.06,0,.08.01s.06,0,.08.01c.23.04.46.08.7.12s.47.07.71.11c.06,0,.12.02.18.03s.12.02.18.03c.26.04.53.07.8.1s.53.06.8.08c.02,0,.04,0,.06,0s.04,0,.06,0c.25.02.5.04.75.06s.51.03.76.04c.07,0,.14,0,.21.01s.14,0,.21,0c.28.01.55.02.83.03s.56.01.84.01.56,0,.84-.01.55-.02.83-.03c.07,0,.14,0,.21,0s.14,0,.21-.01c.25-.01.51-.03.76-.04s.5-.04.75-.06c.02,0,.04,0,.06,0s.04,0,.06,0c.27-.02.54-.05.81-.08s.53-.06.8-.1c.06,0,.12-.02.18-.03s.12-.02.18-.03c.24-.03.47-.07.71-.11s.47-.08.7-.12c.03,0,.06,0,.08-.01s.06,0,.08-.01c.26-.05.52-.1.77-.15s.51-.11.76-.17c.05-.01.1-.02.14-.03s.1-.02.14-.03c.23-.05.45-.11.68-.17s.45-.12.67-.18c.03,0,.05-.01.08-.02s.05-.01.08-.02c.25-.07.49-.15.74-.22s.48-.15.72-.24c.03,0,.06-.02.09-.03s.06-.02.09-.03c.22-.08.44-.16.66-.24s.44-.16.65-.25c.02,0,.04-.01.05-.02s.04-.01.05-.02c.24-.09.47-.19.7-.29s.46-.2.68-.3c0,0,.01,0,.02-.01s.01,0,.02-.01c.22-.1.44-.21.65-.31s.42-.22.63-.33c.01,0,.02-.01.03-.02s.02-.01.03-.02c.43-.23.85-.47,1.25-.72s.79-.51,1.17-.77c0,0,0,0,.01,0s0,0,.01,0c.76-.54,1.45-1.11,2.08-1.7s1.19-1.22,1.67-1.88c0,0,0,0,0,0s0,0,0,0h0c.2-.27.39-.55.57-.83s.34-.56.49-.85h0Zm-22.88-10.42c-4.52,0-8.81.84-12.59,2.36s-7.05,3.74-9.53,6.48c-.23-.17-.31-.33-.47-.58s-.26-.52-.27-.77c1.95-2.52,5.3-4.78,9.33-6.41,4.02-1.62,8.72-2.61,13.37-2.57,4.38.03,8.43.84,12.03,2.35s6.75,3.72,9.34,6.56c-.07.14-.18.37-.3.61s-.25.49-.37.64c-2.49-2.72-5.73-4.89-9.29-6.37-3.56-1.49-7.45-2.29-11.24-2.29Z"/>
    </g>
    <g>
      <path class="cls-1" d="m92.82,55.15l-2.49-5.03h1.33l1.75,3.79,1.75-3.79h1.33l-2.49,5.03v3.52h-1.18v-3.51Z"/>
      <path class="cls-1" d="m100.6,58.13h-.02c-.11.21-.28.36-.51.46-.23.1-.54.15-.94.15-.66,0-1.16-.19-1.52-.54-.38-.34-.56-.78-.56-1.32s.16-.94.49-1.27c.33-.34.8-.52,1.43-.53h1.64v-.64c0-.54-.4-.8-1.21-.78-.29,0-.53.03-.7.09-.18.07-.32.2-.42.38l-.93-.73c.45-.61,1.11-.9,1.99-.89.74,0,1.33.14,1.77.43.44.3.67.83.67,1.57v4.15h-1.18v-.54Zm0-2.04h-1.42c-.69.02-1.03.26-1.02.73,0,.21.09.38.27.53.17.16.45.24.85.24.5,0,.85-.05,1.05-.18.19-.13.28-.42.28-.88v-.44Z"/>
      <path class="cls-1" d="m103.75,52.59h1.18v.64h.02c.39-.48.9-.72,1.53-.72.49,0,.93.18,1.34.53.4.36.61.89.63,1.58v4.04h-1.18v-3.63c0-.43-.11-.75-.33-.97-.22-.23-.49-.34-.83-.34s-.62.11-.84.34c-.22.22-.33.55-.33.97v3.63h-1.18v-6.08Z"/>
      <path class="cls-1" d="m113.77,58.13h-.02c-.11.21-.28.36-.51.46-.23.1-.54.15-.94.15-.66,0-1.16-.19-1.52-.54-.38-.34-.56-.78-.56-1.32s.16-.94.49-1.27c.33-.34.8-.52,1.43-.53h1.64v-.64c0-.54-.4-.8-1.21-.78-.29,0-.53.03-.7.09-.18.07-.32.2-.42.38l-.93-.73c.45-.61,1.11-.9,1.99-.89.74,0,1.33.14,1.77.43.44.3.67.83.67,1.57v4.15h-1.18v-.54Zm0-2.04h-1.42c-.69.02-1.03.26-1.02.73,0,.21.09.38.27.53.17.16.45.24.85.24.5,0,.85-.05,1.05-.18.19-.13.28-.42.28-.88v-.44Z"/>
      <path class="cls-1" d="m120.22,58.03c-.39.45-.9.69-1.52.71-.38,0-.7-.09-.95-.25-.26-.15-.47-.32-.61-.49-.15-.2-.27-.44-.33-.73-.07-.29-.11-.83-.11-1.63s.04-1.37.11-1.66c.07-.29.18-.53.33-.72.14-.19.34-.36.61-.51.25-.14.57-.22.95-.23.59,0,1.09.24,1.52.72v-.64h1.18v5.94c-.01.91-.27,1.59-.76,2.02-.5.44-1.1.66-1.79.66-.8-.02-1.48-.36-2.04-1.02l.92-.75c.15.15.33.27.52.37.2.11.41.17.62.18.41,0,.73-.12.98-.35.24-.24.37-.56.38-.98v-.62Zm-2.34-2.4c0,.47.02.79.05.96.03.18.09.34.19.46.08.11.2.21.36.3.16.11.35.16.58.16s.42-.05.58-.16c.16-.09.27-.19.35-.3.1-.12.17-.27.2-.46.02-.18.03-.5.03-.96s-.01-.8-.03-.99c-.03-.18-.1-.33-.2-.45-.08-.11-.2-.22-.35-.32-.16-.09-.35-.14-.58-.15-.23,0-.42.06-.58.15-.16.11-.28.21-.36.32-.1.11-.16.26-.19.45-.03.18-.05.51-.05.99Z"/>
      <path class="cls-1" d="m126.48,58.13h-.02c-.11.21-.28.36-.51.46-.23.1-.54.15-.94.15-.66,0-1.16-.19-1.52-.54-.38-.34-.56-.78-.56-1.32s.16-.94.49-1.27c.33-.34.8-.52,1.43-.53h1.64v-.64c0-.54-.4-.8-1.21-.78-.29,0-.53.03-.7.09-.18.07-.32.2-.42.38l-.93-.73c.45-.61,1.11-.9,1.99-.89.74,0,1.33.14,1.77.43.44.3.67.83.67,1.57v4.15h-1.18v-.54Zm0-2.04h-1.42c-.69.02-1.03.26-1.02.73,0,.21.09.38.27.53.17.16.45.24.85.24.5,0,.85-.05,1.05-.18.19-.13.28-.42.28-.88v-.44Z"/>
      <path class="cls-1" d="m133.3,54.41h-.02l-1.23,4.26h-1.04l-1.88-6.08h1.25l1.13,4.27h.02l1.34-4.27h.86l1.34,4.27h.02l1.12-4.27h1.25l-1.88,6.08h-1.05l-1.23-4.26Z"/>
      <path class="cls-1" d="m141.86,58.13h-.02c-.11.21-.28.36-.51.46-.23.1-.54.15-.94.15-.66,0-1.16-.19-1.52-.54-.38-.34-.56-.78-.56-1.32s.16-.94.49-1.27c.33-.34.8-.52,1.43-.53h1.64v-.64c0-.54-.4-.8-1.21-.78-.29,0-.53.03-.7.09-.18.07-.32.2-.42.38l-.93-.73c.45-.61,1.11-.9,1.99-.89.74,0,1.33.14,1.77.43.44.3.67.83.67,1.57v4.15h-1.18v-.54Zm0-2.04h-1.42c-.69.02-1.03.26-1.02.73,0,.21.09.38.27.53.17.16.45.24.85.24.5,0,.85-.05,1.05-.18.19-.13.28-.42.28-.88v-.44Z"/>
      <path class="cls-1" d="m145.58,54.74h3.49v1.22h-3.49v-1.22Z"/>
      <path class="cls-1" d="m153.12,55.15l-2.49-5.03h1.33l1.75,3.79,1.75-3.79h1.33l-2.49,5.03v3.52h-1.18v-3.51Z"/>
      <path class="cls-1" d="m157.76,55.62c0-.64.05-1.13.15-1.48.11-.34.27-.62.49-.85.16-.2.39-.38.68-.54.29-.15.66-.23,1.11-.24.47,0,.84.09,1.13.24.28.16.5.34.66.54.23.23.4.51.5.85.09.34.14.84.14,1.48s-.05,1.13-.14,1.46c-.1.34-.26.63-.5.87-.08.09-.17.18-.28.26-.1.1-.22.18-.38.25-.29.17-.66.26-1.13.26-.45,0-.82-.1-1.11-.26-.29-.15-.52-.32-.68-.52-.22-.25-.38-.54-.49-.87-.1-.34-.15-.82-.15-1.46Zm3.67.01c0-.44-.02-.75-.06-.95-.04-.19-.12-.36-.23-.5-.09-.14-.22-.25-.39-.32-.16-.08-.35-.12-.57-.12-.2,0-.39.04-.56.12-.16.08-.3.19-.4.32-.1.14-.18.31-.22.5-.04.2-.07.51-.07.94s.02.73.07.93c.05.2.12.38.22.53.1.12.23.22.4.31.17.09.36.13.56.13.22,0,.41-.04.57-.13.17-.09.3-.19.39-.31.12-.15.2-.33.23-.53.04-.2.06-.5.06-.92Z"/>
      <path class="cls-1" d="m164.7,56.81c.48.52,1.1.78,1.87.78.34,0,.62-.07.84-.21.22-.14.33-.33.33-.57,0-.22-.06-.37-.19-.46-.13-.09-.31-.14-.53-.15l-1.05-.09c-.5-.05-.9-.22-1.21-.52-.32-.29-.48-.69-.49-1.21,0-.62.22-1.09.64-1.41.41-.31.93-.47,1.56-.47.27,0,.52.02.73.05.22.04.42.09.61.16.36.15.69.36.98.61l-.73.88c-.23-.17-.47-.31-.72-.42-.25-.1-.54-.15-.86-.15-.37,0-.63.07-.78.21-.16.14-.23.31-.23.53,0,.14.05.26.18.36.11.11.31.19.6.22l.98.08c.61.05,1.06.24,1.33.58.25.33.38.75.38,1.25,0,.59-.24,1.05-.7,1.37-.45.33-1.04.5-1.74.5-.96,0-1.83-.36-2.59-1.09l.83-.84Z"/>
      <path class="cls-1" d="m170.53,50.12h1.18v3.11h.02c.39-.48.9-.72,1.53-.72.49,0,.93.18,1.34.53.4.36.61.89.63,1.58v4.04h-1.18v-3.63c0-.43-.11-.75-.33-.97-.22-.23-.49-.34-.83-.34s-.62.11-.84.34c-.22.22-.33.55-.33.97v3.63h-1.18v-8.54Z"/>
      <path class="cls-1" d="m177.49,50.12h1.18v1.22h-1.18v-1.22Zm0,2.46h1.18v6.08h-1.18v-6.08Z"/>
      <path class="cls-1" d="m183.55,50.12h1.25v8.54h-1.25v-8.54Z"/>
      <path class="cls-1" d="m187.02,52.59h1.18v.64h.03c.39-.48.9-.72,1.53-.72.47,0,.89.16,1.24.47l-.86,1.06c-.25-.2-.51-.31-.78-.31-.3,0-.56.1-.78.31-.24.2-.37.52-.38.97v3.67h-1.18v-6.08Z"/>
      <path class="cls-1" d="m191.64,55.62c0-.64.05-1.13.15-1.48.11-.34.27-.62.49-.85.16-.2.39-.38.68-.54.29-.15.66-.23,1.11-.24.47,0,.84.09,1.13.24.28.16.5.34.66.54.23.23.4.51.5.85.09.34.14.84.14,1.48s-.05,1.13-.14,1.46c-.1.34-.26.63-.5.87-.08.09-.17.18-.28.26-.1.1-.22.18-.38.25-.29.17-.66.26-1.13.26-.45,0-.82-.1-1.11-.26-.29-.15-.52-.32-.68-.52-.22-.25-.38-.54-.49-.87-.1-.34-.15-.82-.15-1.46Zm3.67.01c0-.44-.02-.75-.06-.95-.04-.19-.12-.36-.23-.5-.09-.14-.22-.25-.39-.32-.16-.08-.35-.12-.57-.12-.2,0-.39.04-.56.12-.16.08-.3.19-.4.32-.1.14-.18.31-.22.5-.04.2-.07.51-.07.94s.02.73.07.93c.05.2.12.38.22.53.1.12.23.22.4.31.17.09.36.13.56.13.22,0,.41-.04.57-.13.17-.09.3-.19.39-.31.12-.15.2-.33.23-.53.04-.2.06-.5.06-.92Z"/>
      <path class="cls-1" d="m198.17,52.59h1.18v.64h.02c.39-.48.9-.72,1.53-.72.49,0,.93.18,1.34.53.4.36.61.89.63,1.58v4.04h-1.18v-3.63c0-.43-.11-.75-.33-.97-.22-.23-.49-.34-.83-.34s-.62.11-.84.34c-.22.22-.33.55-.33.97v3.63h-1.18v-6.08Z"/>
      <path class="cls-1" d="m206.86,50.12h1.32l1.3,6.07h.02l1.61-6.07h.91l1.6,6.07h.02l1.3-6.07h1.32l-2.07,8.54h-1.05l-1.58-6.16h-.02l-1.58,6.16h-1.04l-2.07-8.54Z"/>
      <path class="cls-1" d="m217.43,55.62c0-.64.05-1.13.15-1.48.11-.34.27-.62.49-.85.16-.2.39-.38.68-.54.29-.15.66-.23,1.11-.24.47,0,.84.09,1.13.24.28.16.5.34.66.54.23.23.4.51.5.85.09.34.14.84.14,1.48s-.05,1.13-.14,1.46c-.1.34-.26.63-.5.87-.08.09-.17.18-.28.26-.1.1-.22.18-.38.25-.29.17-.66.26-1.13.26-.45,0-.82-.1-1.11-.26-.29-.15-.52-.32-.68-.52-.22-.25-.38-.54-.49-.87-.1-.34-.15-.82-.15-1.46Zm3.67.01c0-.44-.02-.75-.06-.95-.04-.19-.12-.36-.23-.5-.09-.14-.22-.25-.39-.32-.16-.08-.35-.12-.57-.12-.2,0-.39.04-.56.12-.16.08-.3.19-.4.32-.1.14-.18.31-.22.5-.04.2-.07.51-.07.94s.02.73.07.93c.05.2.12.38.22.53.1.12.23.22.4.31.17.09.36.13.56.13.22,0,.41-.04.57-.13.17-.09.3-.19.39-.31.12-.15.2-.33.23-.53.04-.2.06-.5.06-.92Z"/>
      <path class="cls-1" d="m223.96,52.59h1.18v.64h.03c.39-.48.9-.72,1.53-.72.47,0,.89.16,1.24.47l-.86,1.06c-.25-.2-.51-.31-.78-.31-.3,0-.56.1-.78.31-.24.2-.37.52-.38.97v3.67h-1.18v-6.08Z"/>
      <path class="cls-1" d="m229.35,50.12h1.18v5.31h.03l2.26-2.85h1.42l-2.03,2.37,2.31,3.71h-1.49l-1.57-2.84-.93,1.09v1.75h-1.18v-8.54Z"/>
      <path class="cls-1" d="m235.99,56.81c.48.52,1.1.78,1.87.78.34,0,.62-.07.84-.21.22-.14.33-.33.33-.57,0-.22-.06-.37-.19-.46-.13-.09-.31-.14-.53-.15l-1.05-.09c-.5-.05-.9-.22-1.21-.52-.32-.29-.48-.69-.49-1.21,0-.62.22-1.09.64-1.41.41-.31.93-.47,1.56-.47.27,0,.52.02.73.05.22.04.42.09.61.16.36.15.69.36.98.61l-.73.88c-.23-.17-.47-.31-.72-.42-.25-.1-.54-.15-.86-.15-.37,0-.63.07-.78.21-.16.14-.23.31-.23.53,0,.14.05.26.18.36.11.11.31.19.6.22l.98.08c.61.05,1.06.24,1.33.58.25.33.38.75.38,1.25,0,.59-.24,1.05-.7,1.37-.45.33-1.04.5-1.74.5-.96,0-1.83-.36-2.59-1.09l.83-.84Z"/>
    </g>
    <g>
      <path class="cls-1" d="m74.45,26.8c-.99,3.47-2.11,6.23-3.64,8.92l-1.46-2.55c2.21-3.4,3.85-7.49,4.83-12.15h-4.05v-2.35h4.32v-6.91h2.62v6.91h3.23v2.35h-3.23v2.83c1.46,1.26,2.76,2.52,3.81,3.71l-1.33,2.35c-.85-1.29-1.5-2.14-2.49-3.34v15.7h-2.62v-15.46Zm7.12,13.86c2.89-1.84,4.77-4.6,5.28-7.76-2.11.95-4.36,1.84-6.64,2.59l-1.06-2.35c1.46-.37,1.7-.41,2.35-.61V14.95l.41-.1c2.52-.51,5.14-1.43,7.15-2.45l2.01,1.8c-2.28.95-4.94,1.87-7.15,2.42v15.15c.61-.17,1.12-.37,3.06-1.09v-13.18h2.42v12.77c0,5.55-1.7,8.99-5.96,12.12l-1.87-1.74Zm18.32-7.56c0,1.97-.58,2.52-2.59,2.52-.82,0-1.4-.03-1.94-.1l-.51-2.38c.48.07,1.29.1,1.74.1.68,0,.85-.24.85-1.06v-14.95h-3.44v25.02h-2.52V14.95h8.41v18.15Z"/>
      <path class="cls-1" d="m110.42,13.72v11.41c0,8.82-1.12,12.84-4.73,17.13l-2.55-2.01c3.17-3.64,4.12-7.12,4.12-14.91v-11.61h3.17Zm9.87.75v24.75h-3.13V14.47h3.13Zm10.42-1.26v28.39h-3.1V13.21h3.1Z"/>
      <path class="cls-1" d="m144.1,11.99h2.93v3.92h8.41v-3.92h2.96v3.92h8v2.25h-8v3.13h-2.96v-3.13h-8.41v3.13h-2.93v-3.13h-7.63v-2.25h7.63v-3.92Zm6.03,14.26c-.03,1.33-.14,2.72-.24,3.71h12.77c-.2,4.12-.54,7.25-1.02,9.06-.54,2.15-1.63,2.83-4.53,2.83-1.43,0-3.37-.1-5.01-.27l-.58-2.52c1.87.27,3.91.44,5.17.44,1.36,0,1.8-.34,2.11-1.6.34-1.33.54-3.06.72-5.69h-10.04c-1.09,5.01-4.53,8.48-10.11,10.25l-1.91-2.04c7.01-2.15,9.77-6.13,9.77-14.16h-10.38v-2.28h12.94v-3.58h2.89v3.58h13.28v2.28h-15.83Z"/>
      <path class="cls-1" d="m180.45,20.81v2.14h-3.27v3.47h4.63v2.21h-4.63v8.58c1.74-.48,3.74-1.06,5.11-1.5l.2,2.21c-3.98,1.43-8.61,2.79-12.6,3.68l-.85-2.45c1.91-.37,3.17-.68,5.28-1.19l.31-.07v-9.26h-5.11v-2.21h5.11v-3.47h-2.76c-.71.88-.99,1.23-1.8,2.11l-1.43-2.15c2.89-3.2,5.04-7.05,6.33-11.27l2.55.54c-.2.61-.27.78-.41,1.16.07.07.1.07.31.24,1.7,1.4,4.09,3.64,5.65,5.41l-1.63,2.14c-1.63-2.11-3.27-3.88-5.17-5.69-.89,1.97-1.74,3.58-2.86,5.35h7.05Zm-9.12,16.27c-.51-2.59-.95-4.29-1.6-6.09l2.28-.71c.68,1.87,1.19,3.85,1.6,6.16l-2.28.65Zm6.71-1.67c.58-1.5,1.12-3.3,1.63-5.62l2.31.61c-.51,2.11-1.16,3.98-1.91,5.52l-2.04-.51Zm11.68-23.8h2.76v7.05h6.3v2.28h-6.3v5.52h7.18v2.31h-6.81c1.12,4.09,4.05,8.31,7.52,10.79l-1.74,2.35c-3.71-3.13-5.96-6.44-7.22-10.49-.95,4.6-3.75,8.51-7.73,10.93l-1.94-2.08c4.39-2.38,7.05-6.3,7.8-11.51h-6.4v-2.31h6.57v-5.52h-3.51c-.44,1.53-.99,2.83-1.6,3.98l-2.31-1.29c1.36-2.45,2.25-5.38,2.86-9.33l2.42.41c-.24,1.53-.37,2.35-.75,3.95h2.89v-7.05Z"/>
      <path class="cls-1" d="m218.86,37.15h13.24v2.55h-29.48v-2.55h12.97v-18.9h-11.17v-2.45h25.98v2.45h-11.54v18.9Z"/>
      <path class="cls-1" d="m248.57,32.25h-2.66v-1.84h-5.96c-.14,5.99-.85,8.89-2.89,11.95l-2.25-1.77c1.94-3.1,2.45-5.55,2.45-11.78v-8.61h11.3v12.05Zm1.43-18.42v2.35h-14.27v-2.35h14.27Zm-10.01,8.58v5.82h5.92v-5.82h-5.92Zm14.44,3.03c.03,8.95-.95,12.9-4.32,17.02l-2.31-1.84c3-3.51,3.88-7.01,3.88-14.74v-10.83l.44-.07.44-.03c3.81-.48,7.32-1.23,10.04-2.21l1.84,2.18c-3.06.92-6.5,1.67-10.01,2.14v5.69h11.51v2.42h-4.09v16.95h-2.86v-16.95h-4.56v.27Z"/>
    </g>
  </g>
</svg>