<?xml version="1.0" encoding="UTF-8"?>
<svg id="_レイヤー_2" data-name="レイヤー 2" xmlns="http://www.w3.org/2000/svg" viewBox="0 0 119.98 117.93">
  <defs>
    <style>
      .cls-1 {
        fill: #fff;
        stroke-width: 0px;
      }
    </style>
  </defs>
  <g id="_レイヤー_1-2" data-name="レイヤー 1">
    <path class="cls-1" d="m84.79,22.02c-.26.36-.5.7-.79,1.09-.29.39-.61.82-1.02,1.35v4.14s.02,2.53.02,2.53v.45c0,4.48-2.58,8.55-6.74,11.5-4.16,2.95-9.91,4.77-16.24,4.77s-12.09-1.83-16.26-4.78c-4.17-2.95-6.76-7.02-6.76-11.51v-7.1c-.33-.33-.66-.76-.97-1.2-.3-.44-.59-.89-.85-1.25,0,.15,0,.3,0,.42,0,.12,0,.22,0,.29v8.86c0,5.04,2.78,9.6,7.28,12.91,4.49,3.31,10.7,5.36,17.55,5.36,5.19,0,10.01-1.18,13.99-3.19,3.99-2.01,7.14-4.85,8.99-8.19l-.02,6.44-.02,6.44c0,4.49-2.57,8.55-6.72,11.5-4.15,2.95-9.89,4.77-16.23,4.77s-11.86-1.87-16.09-4.84c-4.23-2.97-6.93-7.04-6.93-11.43-.91-1.23-.89-1.23-1.81-2.45,0,1.07,0,2.01,0,2.45,0,4.98,2.77,9.54,7.26,12.86,4.49,3.32,10.7,5.4,17.57,5.4s13.04-2.04,17.52-5.35c4.48-3.3,7.25-7.87,7.25-12.9v-9.89s0-9.92,0-9.92v-8.82c0-.06,0-.18,0-.31,0-.13,0-.28,0-.41"/>
    <path class="cls-1" d="m83.65,19.55h0c.08-.16.16-.33.24-.49.07-.17.14-.33.21-.5.01-.03.03-.07.04-.1.01-.03.02-.07.04-.1.06-.17.12-.33.17-.5.05-.17.1-.34.15-.5h0s0,0,0,0c.04-.17.08-.34.11-.51.03-.17.06-.34.08-.51,0-.04.01-.08.02-.12,0-.04.01-.08.01-.12.02-.17.04-.34.05-.52.01-.17.02-.35.02-.52h0c0-1.95-.61-3.81-1.72-5.52-1.11-1.71-2.72-3.26-4.72-4.6-.27-.18-.54-.35-.82-.52-.28-.17-.57-.34-.86-.5-.29-.16-.59-.32-.9-.47-.31-.15-.62-.3-.94-.45-.8-.36-1.63-.69-2.49-.99-.86-.3-1.76-.57-2.69-.81-.37-.1-.75-.18-1.13-.27-.38-.08-.77-.16-1.15-.24-1.16-.22-2.37-.39-3.6-.5-1.23-.11-2.49-.17-3.78-.17-.43,0-.85,0-1.28.02-.42.01-.84.03-1.26.06-.83.05-1.65.13-2.46.23-.81.1-1.6.22-2.38.37-.58.11-1.16.23-1.72.37-.56.13-1.12.28-1.66.44-.72.21-1.43.44-2.11.69-.68.25-1.34.52-1.98.81-.95.43-1.86.91-2.7,1.42-.84.51-1.62,1.06-2.34,1.64-.24.19-.47.39-.69.59s-.44.4-.64.61c-.1.1-.21.21-.3.31-.1.11-.2.21-.29.32-.19.21-.37.43-.55.65-.17.22-.34.44-.5.67-.63.9-1.12,1.84-1.45,2.82-.33.98-.5,1.99-.5,3.03,0,.18,0,.35.02.52.01.17.03.35.05.52,0,.04,0,.08.01.12,0,.04.01.08.02.12.02.17.05.34.08.51.03.17.07.34.11.51t0,0c.04.17.09.34.15.51.05.17.11.33.17.5.01.03.02.07.04.1.01.03.03.07.04.1.46,1.17,1.15,2.29,2.04,3.34.89,1.05,1.97,2.02,3.22,2.91,0,0,0,0,.01,0,0,0,0,0,.01,0,.37.27.76.52,1.17.77.4.25.82.49,1.25.72,0,0,.02,0,.03.01s.02.01.03.02c.21.11.42.22.63.33.21.11.43.21.65.32,0,0,.01,0,.02,0,0,0,.01,0,.02,0,.22.1.45.21.68.3.23.1.46.2.7.29.02,0,.04.01.06.02.02,0,.04.01.05.02.21.09.43.17.65.25.22.08.44.16.66.24.03,0,.06.02.09.03.03.01.06.02.09.03.24.08.48.16.72.23.24.08.49.15.74.22.03,0,.05.01.08.02.03,0,.05.01.08.02.22.06.44.12.67.18.23.06.45.11.68.17.05.01.1.02.14.03.05.01.1.02.14.03.25.06.5.11.76.17.26.05.51.1.77.15.03,0,.06,0,.08.01.03,0,.06,0,.08.02.23.04.46.08.7.12.23.04.47.07.71.11.06,0,.12.02.18.03.06,0,.12.02.18.02.26.04.53.07.8.1.27.03.54.06.8.08.02,0,.04,0,.06,0,.02,0,.04,0,.06,0,.25.02.5.04.75.06.25.02.51.03.76.04.07,0,.14,0,.21.01.07,0,.14,0,.21,0,.28.01.55.02.83.03.28,0,.56.01.84.01s.56,0,.84-.01c.28,0,.55-.02.83-.03.07,0,.14,0,.21,0,.07,0,.14,0,.21-.01.25-.01.51-.03.76-.04.25-.02.5-.04.75-.06.02,0,.04,0,.06,0s.04,0,.06,0c.27-.02.54-.05.81-.08.27-.03.53-.06.8-.1.06,0,.12-.02.18-.02.06,0,.12-.02.18-.03.24-.03.47-.07.71-.11.24-.04.47-.08.7-.12.03,0,.06-.01.08-.02.03,0,.06,0,.09-.01.26-.05.52-.1.77-.15.26-.05.51-.11.76-.17.05-.01.1-.02.14-.03.05-.01.1-.02.14-.03.23-.06.45-.11.68-.17.22-.06.45-.12.67-.18.03,0,.05-.02.08-.02.03,0,.05-.01.08-.02.25-.07.49-.14.74-.22.24-.08.48-.15.72-.23.03-.01.06-.02.09-.03.03-.01.06-.02.09-.03.22-.08.44-.16.66-.24.22-.08.44-.16.65-.25.02,0,.04-.01.05-.02.02,0,.04-.01.05-.02.24-.1.47-.19.7-.29.23-.1.46-.2.68-.3,0,0,.01,0,.02,0,0,0,.02,0,.02-.01.22-.1.44-.21.65-.31.21-.11.43-.21.63-.33.01,0,.02,0,.03-.02.01,0,.02-.01.03-.02.43-.23.85-.47,1.25-.72.4-.25.79-.51,1.17-.77,0,0,0,0,.01,0,0,0,0,0,.01,0,.76-.54,1.45-1.11,2.08-1.7.63-.6,1.19-1.22,1.67-1.88.2-.27.39-.55.57-.83.18-.28.34-.56.49-.85m-22.88-10.42c-4.52,0-8.81.84-12.59,2.36-3.78,1.52-7.05,3.74-9.53,6.48-.23-.17-.31-.33-.48-.58-.16-.24-.26-.52-.27-.77,1.96-2.52,5.3-4.78,9.33-6.41,4.02-1.62,8.72-2.61,13.36-2.57,4.38.04,8.43.84,12.02,2.35,3.6,1.51,6.75,3.72,9.34,6.56-.07.14-.17.37-.3.61-.12.24-.25.49-.37.64-2.49-2.72-5.73-4.89-9.29-6.37-3.56-1.49-7.45-2.3-11.24-2.3"/>
    <path class="cls-1" d="m3.04,91.86c-.29,1.03-.61,1.96-.96,2.83-.36.87-.75,1.68-1.2,2.48l-.43-.76-.44-.76c.66-1.01,1.23-2.12,1.71-3.33.48-1.21.87-2.51,1.16-3.89H.47v-1.4h2.57v-4.11h1.56v4.11h1.92v1.4h-1.92v1.68c.43.37.85.75,1.22,1.12.38.37.73.73,1.04,1.09l-.39.7-.39.7c-.25-.38-.48-.7-.71-1.01-.23-.31-.48-.62-.77-.97v9.33h-1.56v-9.19Zm4.23,8.24c.86-.55,1.57-1.23,2.1-2.01.53-.78.89-1.66,1.04-2.6-.63.28-1.28.56-1.93.82-.66.26-1.33.5-2.01.72l-.31-.7-.31-.7c.43-.11.69-.17.88-.22.19-.05.32-.08.52-.14v-10.45l.12-.03.12-.03c.75-.15,1.51-.36,2.24-.61.73-.25,1.42-.54,2.01-.84l.6.54.6.54c-.68.28-1.41.56-2.14.81-.73.25-1.45.47-2.11.63v9.01c.18-.05.35-.11.61-.2.27-.1.63-.23,1.21-.45v-7.83h1.44v7.59c0,1.65-.25,2.99-.82,4.14-.57,1.16-1.45,2.13-2.72,3.06l-.56-.52-.56-.52Zm10.89-4.49c0,.59-.09.96-.32,1.19-.23.23-.62.31-1.22.31-.24,0-.45,0-.64-.01-.19-.01-.35-.03-.52-.05l-.15-.71-.15-.71c.14.02.33.04.52.05.19,0,.38.01.51.01.2,0,.33-.04.4-.13.08-.1.1-.25.1-.5v-8.89h-2.05v14.88h-1.5v-16.23h5v10.79Z"/>
    <path class="cls-1" d="m25.04,84.09v6.78c0,2.62-.17,4.53-.6,6.1-.43,1.57-1.14,2.81-2.21,4.08l-.76-.6-.76-.6c.94-1.08,1.55-2.14,1.93-3.51.38-1.37.52-3.04.52-5.36v-6.9h1.88Zm5.87.45v14.72h-1.86v-14.72h1.86Zm6.19-.75v16.88h-1.84v-16.88h1.84Z"/>
    <path class="cls-1" d="m45.69,83.06h1.74v2.33h5v-2.33h1.76v2.33h4.76v1.34h-4.76v1.86h-1.76v-1.86h-5v1.86h-1.74v-1.86h-4.53v-1.34h4.53v-2.33Zm3.58,8.48c-.01.39-.03.8-.06,1.18-.02.38-.05.73-.08,1.03h7.59c-.06,1.23-.14,2.3-.24,3.21-.1.91-.22,1.64-.36,2.18-.16.64-.4,1.06-.82,1.32-.42.26-1.01.36-1.87.36-.42,0-.93-.01-1.44-.04-.52-.03-1.05-.07-1.53-.12l-.17-.75-.17-.75c.56.08,1.14.15,1.68.19.54.05,1.03.07,1.4.07.4,0,.67-.05.86-.19.19-.14.3-.38.39-.76.1-.39.18-.85.25-1.4.07-.55.12-1.2.18-1.98h-5.97c-.32,1.49-1,2.75-2,3.77-1.01,1.02-2.35,1.8-4.01,2.33l-.57-.61-.57-.61c2.08-.64,3.54-1.55,4.47-2.9.93-1.35,1.34-3.13,1.34-5.52h-6.17v-1.36h7.69v-2.13h1.72v2.13h7.89v1.36h-9.41Z"/>
    <path class="cls-1" d="m67.92,88.3v1.27h-1.94v2.06h2.75v1.32h-2.75v5.1c.52-.14,1.07-.3,1.6-.45.53-.15,1.03-.31,1.43-.44l.06.66.06.66c-1.18.42-2.47.84-3.75,1.21-1.28.37-2.56.71-3.74.97l-.25-.73-.25-.73c.57-.11,1.04-.21,1.52-.32.49-.11.99-.23,1.62-.38l.09-.02.09-.02v-5.51h-3.04v-1.32h3.04v-2.06h-1.64c-.21.26-.36.45-.51.63-.15.18-.32.36-.56.63l-.43-.64-.42-.64c.86-.95,1.61-2,2.24-3.12.63-1.12,1.14-2.32,1.53-3.58l.76.16.76.16c-.06.18-.1.3-.14.4-.04.1-.07.18-.11.29.02.02.04.03.06.05.03.02.06.04.12.09.51.41,1.11.96,1.71,1.53.6.57,1.18,1.17,1.65,1.69l-.49.64-.49.64c-.49-.63-.97-1.2-1.48-1.76-.51-.55-1.03-1.08-1.6-1.62-.26.59-.52,1.12-.8,1.64s-.57,1.02-.9,1.54h4.19Zm-5.42,9.67c-.15-.77-.29-1.41-.45-1.99-.15-.58-.31-1.1-.51-1.64l.68-.21.68-.21c.2.56.38,1.13.54,1.73.16.61.29,1.24.41,1.93l-.68.19-.68.19Zm3.99-.99c.17-.44.34-.94.5-1.49.16-.55.32-1.16.47-1.85l.69.18.69.18c-.15.63-.32,1.22-.51,1.77-.19.55-.4,1.06-.62,1.51l-.61-.15-.61-.15Zm6.94-14.15h1.64v4.19h3.74v1.36h-3.74v3.28h4.27v1.38h-4.05c.33,1.21.94,2.45,1.71,3.57.78,1.12,1.73,2.11,2.76,2.85l-.52.7-.52.7c-1.1-.93-1.99-1.89-2.69-2.91-.7-1.02-1.22-2.12-1.6-3.32-.28,1.37-.84,2.63-1.62,3.73-.78,1.1-1.79,2.04-2.97,2.76l-.58-.62-.58-.62c1.31-.71,2.35-1.65,3.13-2.79s1.28-2.5,1.51-4.05h-3.81v-1.38h3.91v-3.28h-2.08c-.13.46-.28.88-.44,1.27-.16.39-.33.76-.51,1.1l-.69-.39-.69-.38c.4-.73.74-1.53,1.02-2.44.28-.91.5-1.93.68-3.11l.72.12.72.12c-.07.46-.13.8-.19,1.16-.07.35-.14.71-.25,1.19h1.72v-4.19Z"/>
    <polygon class="cls-1" points="91.38 98.02 95.32 98.02 99.25 98.02 99.25 98.78 99.25 99.54 90.49 99.54 81.73 99.54 81.73 98.78 81.73 98.02 85.58 98.02 89.44 98.02 89.44 92.4 89.44 86.78 86.12 86.78 82.8 86.78 82.8 86.05 82.8 85.33 90.52 85.33 98.24 85.33 98.24 86.05 98.24 86.78 94.81 86.78 91.38 86.78 91.38 92.4 91.38 98.02"/>
    <path class="cls-1" d="m109.66,95.1h-1.58v-1.09h-3.54c-.04,1.78-.17,3.1-.43,4.21-.27,1.1-.68,1.99-1.29,2.9l-.67-.53-.67-.53c.58-.92.94-1.75,1.16-2.8.22-1.06.3-2.35.3-4.2v-5.12h6.72v7.17Zm.85-10.95v1.4h-8.48v-1.4h8.48Zm-5.95,5.1v3.46h3.52v-3.46h-3.52Zm8.58,1.8c.01,2.66-.13,4.58-.53,6.14-.39,1.56-1.04,2.76-2.04,3.98l-.69-.55-.69-.55c.89-1.04,1.47-2.08,1.82-3.44.36-1.36.49-3.03.49-5.32v-6.44l.13-.02.13-.02h.13s.13-.02.13-.02c1.13-.14,2.22-.32,3.23-.54,1.01-.22,1.93-.48,2.74-.77l.55.65.55.65c-.91.27-1.88.52-2.88.74-1,.21-2.03.4-3.07.54v3.38h6.84v1.44h-2.43v10.08h-1.7v-10.08h-2.71v.16Z"/>
    <polygon class="cls-1" points="1.28 107.21 2.09 109.13 2.89 111.04 3.69 109.13 4.49 107.21 4.94 107.21 5.39 107.21 4.34 109.56 3.29 111.91 3.29 113.64 3.29 115.36 2.88 115.36 2.47 115.36 2.47 113.64 2.47 111.91 1.42 109.56 .37 107.21 .83 107.21 1.28 107.21"/>
    <path class="cls-1" d="m8.29,109.45c.3,0,.55.04.77.13.21.08.38.21.51.38.13.17.23.39.29.66.06.27.1.61.1.99v2.2c0,.26.01.52.03.78.02.26.06.52.1.78h-.73c-.02-.11-.04-.23-.05-.36-.01-.13-.02-.26-.03-.4-.06.12-.14.22-.21.31-.08.09-.17.18-.27.24-.14.1-.29.18-.45.23-.16.05-.33.08-.51.08-.2,0-.38-.04-.54-.11-.16-.07-.3-.19-.42-.34s-.21-.33-.27-.53c-.06-.2-.09-.43-.09-.69,0-.32.05-.61.16-.87.1-.26.26-.48.47-.67.21-.19.46-.33.74-.43.29-.1.62-.14.99-.14h.34v-.06c0-.28-.02-.52-.05-.72-.03-.2-.08-.35-.15-.46-.07-.11-.16-.19-.28-.25-.12-.05-.26-.08-.43-.08-.23,0-.47.04-.7.13-.24.09-.48.21-.73.39l-.07-.33-.07-.33c.24-.18.5-.31.76-.39.26-.09.53-.13.8-.13m-1.02,4.33c0,.17.02.32.05.45.03.13.08.24.15.34.06.1.14.17.22.21.09.05.18.07.28.07.16,0,.32-.04.46-.14.14-.09.28-.23.4-.41.12-.18.22-.39.28-.61.06-.23.09-.47.09-.74v-.62h-.33c-.26,0-.48.03-.68.1-.2.07-.37.16-.5.29-.14.13-.24.28-.31.46-.07.18-.1.38-.1.61"/>
    <path class="cls-1" d="m12.16,109.56h.71v.39s.01.39.01.39c.06-.12.13-.22.21-.32.08-.1.17-.19.26-.27.13-.1.26-.18.4-.23.14-.05.28-.08.43-.08.25,0,.46.05.64.15.18.1.33.25.44.46.11.2.2.46.26.79.06.32.09.7.09,1.14v3.38h-.73v-3.32c0-.36-.02-.67-.05-.92-.03-.25-.08-.45-.15-.58-.07-.14-.16-.24-.27-.31-.11-.07-.25-.1-.41-.1-.13,0-.26.05-.38.16-.12.11-.25.27-.37.48-.12.21-.21.45-.27.69-.06.25-.09.51-.09.8v3.1h-.75v-5.81Z"/>
    <path class="cls-1" d="m19.15,109.45c.3,0,.55.04.77.13.21.08.38.21.51.38.13.17.23.39.29.66.06.27.1.61.1.99v2.2c0,.26.01.52.03.78.02.26.06.52.1.78h-.73c-.02-.11-.04-.23-.05-.36-.01-.13-.02-.26-.03-.4-.06.12-.14.22-.21.31-.08.09-.17.18-.27.24-.14.1-.29.18-.45.23-.16.05-.33.08-.51.08-.2,0-.38-.04-.54-.11-.16-.07-.3-.19-.42-.34s-.21-.33-.27-.53c-.06-.2-.09-.43-.09-.69,0-.32.05-.61.16-.87.1-.26.26-.48.47-.67.21-.19.46-.33.74-.43.29-.1.62-.14.99-.14h.34v-.06c0-.28-.02-.52-.05-.72-.03-.2-.08-.35-.15-.46-.07-.11-.16-.19-.28-.25-.12-.05-.26-.08-.43-.08-.23,0-.47.04-.7.13-.24.09-.48.21-.73.39l-.07-.33-.07-.33c.24-.18.5-.31.76-.39.26-.09.53-.13.8-.13m-1.02,4.33c0,.17.02.32.05.45.03.13.08.24.15.34.06.1.14.17.22.21.09.05.18.07.28.07.16,0,.32-.04.46-.14.14-.09.28-.23.4-.41.12-.18.22-.39.28-.61.06-.23.09-.47.09-.74v-.62h-.33c-.26,0-.48.03-.68.1-.2.07-.37.16-.5.29-.14.13-.24.28-.31.46-.07.18-.1.38-.1.61"/>
    <path class="cls-1" d="m22.57,112.35c0-.46.04-.88.11-1.23.08-.36.19-.66.34-.92.15-.25.33-.44.54-.57.21-.13.45-.19.72-.19.28,0,.53.07.74.21.21.14.39.35.53.62v-.36s.01-.36.01-.36h.73v5.33c0,1.02-.17,1.78-.5,2.29-.33.51-.83.76-1.49.76-.23,0-.46-.03-.69-.09-.23-.06-.46-.15-.68-.27l.09-.33.09-.33c.21.12.41.2.61.26.2.06.39.09.58.09.21,0,.39-.05.54-.14.15-.09.28-.23.38-.41.1-.18.17-.42.22-.72.05-.3.07-.66.07-1.08v-.42c-.14.25-.32.44-.53.57-.21.13-.45.19-.73.19-.25,0-.48-.07-.69-.2-.21-.13-.39-.33-.54-.6-.16-.26-.28-.57-.36-.92-.08-.35-.12-.75-.12-1.19m.76,0c0,.35.02.65.08.93.05.27.13.51.23.71.1.2.22.35.35.45.13.1.28.15.43.15s.3-.05.43-.14c.13-.1.25-.24.36-.43.11-.19.19-.42.24-.69.05-.27.08-.57.08-.91v-.11c0-.33-.03-.64-.08-.9-.05-.27-.13-.5-.24-.69-.11-.2-.23-.34-.36-.44-.13-.1-.28-.15-.43-.15-.17,0-.32.05-.45.14-.13.1-.25.24-.35.43-.1.19-.17.42-.22.7-.05.28-.07.6-.07.96"/>
    <path class="cls-1" d="m30.08,109.45c.3,0,.55.04.77.13.21.08.38.21.51.38.13.17.22.39.29.66.06.27.1.61.1.99v2.2c0,.26.01.52.03.78.02.26.06.52.1.78h-.73c-.02-.11-.04-.23-.05-.36-.01-.13-.02-.26-.03-.4-.06.12-.14.22-.21.31-.08.09-.17.18-.27.24-.14.1-.29.18-.45.23-.16.05-.33.08-.51.08-.2,0-.38-.04-.54-.11-.16-.07-.3-.19-.42-.34s-.21-.33-.27-.53c-.06-.2-.09-.43-.09-.69,0-.32.05-.61.16-.87.1-.26.26-.48.47-.67.21-.19.46-.33.74-.43.29-.1.62-.14.99-.14h.34v-.06c0-.28-.02-.52-.05-.72-.03-.2-.08-.35-.15-.46-.07-.11-.16-.19-.28-.25-.12-.05-.26-.08-.43-.08-.23,0-.47.04-.7.13-.24.09-.48.21-.73.39l-.07-.33-.07-.33c.24-.18.5-.31.76-.39.26-.09.53-.13.8-.13m-1.02,4.33c0,.17.02.32.05.45.03.13.08.24.15.34s.14.17.22.21c.09.05.18.07.28.07.16,0,.32-.04.46-.14.14-.09.28-.23.4-.41.12-.18.22-.39.28-.61.06-.23.09-.47.09-.74v-.62h-.33c-.26,0-.48.03-.68.1-.2.07-.37.16-.5.29-.14.13-.24.28-.31.46-.07.18-.1.38-.1.61"/>
    <polygon class="cls-1" points="34.23 109.56 34.64 111.9 35.06 114.24 35.45 111.9 35.85 109.56 36.33 109.56 36.8 109.56 37.21 111.88 37.61 114.21 38.02 111.88 38.43 109.56 38.83 109.56 39.23 109.56 38.64 112.46 38.05 115.36 37.58 115.36 37.11 115.36 36.72 113.07 36.32 110.78 35.92 113.07 35.53 115.36 35.06 115.36 34.59 115.36 34 112.46 33.4 109.56 33.82 109.56 34.23 109.56"/>
    <path class="cls-1" d="m42.33,109.45c.3,0,.55.04.77.13.21.08.38.21.51.38.13.17.23.39.29.66.06.27.1.61.1.99v2.2c0,.26.01.52.03.78.02.26.06.52.1.78h-.73c-.02-.11-.04-.23-.05-.36-.01-.13-.02-.26-.03-.4-.06.12-.14.22-.21.31-.08.09-.17.18-.27.24-.14.1-.29.18-.45.23-.16.05-.33.08-.51.08-.2,0-.38-.04-.54-.11-.16-.07-.3-.19-.42-.34s-.21-.33-.27-.53c-.06-.2-.09-.43-.09-.69,0-.32.05-.61.16-.87.1-.26.26-.48.47-.67.21-.19.46-.33.74-.43.29-.1.62-.14.99-.14h.34v-.06c0-.28-.02-.52-.05-.72-.03-.2-.08-.35-.15-.46-.07-.11-.16-.19-.28-.25-.12-.05-.26-.08-.43-.08-.23,0-.47.04-.7.13-.24.09-.48.21-.73.39l-.07-.33-.07-.33c.24-.18.5-.31.76-.39.26-.09.53-.13.8-.13m-1.02,4.33c0,.17.02.32.05.45.03.13.08.24.15.34.06.1.14.17.22.21.09.05.18.07.28.07.16,0,.32-.04.46-.14.14-.09.28-.23.4-.41.12-.18.22-.39.28-.61.06-.23.09-.47.09-.74v-.62h-.33c-.26,0-.48.03-.68.1-.2.07-.37.16-.5.29-.14.13-.24.28-.31.46-.07.18-.1.38-.1.61"/>
    <polygon class="cls-1" points="47.78 107.21 48.58 109.13 49.39 111.04 50.18 109.13 50.98 107.21 51.44 107.21 51.89 107.21 50.84 109.56 49.79 111.91 49.79 113.64 49.79 115.36 49.38 115.36 48.96 115.36 48.96 113.64 48.96 111.91 47.91 109.56 46.86 107.21 47.32 107.21 47.78 107.21"/>
    <path class="cls-1" d="m56.17,114.67c-.19.27-.4.48-.64.61-.24.14-.52.2-.82.2s-.57-.07-.82-.2c-.24-.14-.45-.34-.64-.61-.18-.27-.32-.59-.41-.96-.09-.37-.14-.78-.14-1.24s.05-.88.14-1.24c.09-.37.23-.69.41-.96.18-.27.39-.48.64-.61.24-.14.51-.2.82-.2s.57.07.82.2c.24.14.45.34.64.61.18.27.32.59.41.96.09.37.14.79.14,1.25s-.05.88-.13,1.25c-.09.37-.22.68-.4.95m-.57-3.94c-.11-.2-.24-.36-.39-.46-.15-.1-.32-.15-.5-.15s-.35.05-.5.15c-.15.1-.28.26-.39.46-.11.21-.19.45-.25.74-.06.29-.08.62-.08.98s.03.7.08.98c.06.29.14.53.25.74.11.21.24.36.39.46.15.1.32.15.5.15s.35-.05.5-.15c.15-.1.28-.26.39-.46.11-.21.2-.45.25-.74.06-.29.08-.62.08-.98,0-.37-.03-.7-.09-.99-.06-.29-.14-.54-.25-.74"/>
    <path class="cls-1" d="m59.73,109.45c.25,0,.5.04.74.11.24.07.48.19.72.33l-.08.33-.08.33c-.24-.15-.46-.25-.68-.33-.22-.07-.43-.11-.63-.11-.14,0-.27.02-.37.06s-.2.1-.27.18c-.07.08-.12.17-.16.28-.04.11-.05.24-.05.38s.02.26.05.36c.03.11.08.2.14.28.06.08.15.15.27.21.12.06.26.12.44.16.27.06.5.15.7.25.2.1.36.23.48.38.13.14.22.32.29.52.06.2.1.43.1.68s-.04.48-.11.68c-.07.2-.18.38-.33.52-.15.15-.32.26-.51.33-.2.07-.42.11-.67.11-.29,0-.57-.05-.84-.14-.27-.09-.52-.24-.77-.42l.09-.33.09-.33c.24.18.48.32.72.41.24.09.47.14.71.14.13,0,.25-.02.36-.06.1-.04.19-.11.26-.19.07-.08.13-.18.16-.3s.05-.26.05-.42-.02-.28-.05-.4c-.03-.11-.08-.21-.15-.3s-.16-.15-.27-.22c-.12-.06-.26-.12-.43-.16-.26-.06-.49-.15-.69-.25-.2-.1-.35-.22-.48-.36-.12-.14-.22-.3-.28-.5-.06-.19-.09-.41-.09-.65s.04-.45.11-.64c.07-.19.18-.36.33-.5.15-.14.32-.25.51-.32.2-.07.42-.11.66-.11"/>
    <path class="cls-1" d="m63.27,106.99h.75v3.32c.16-.29.35-.5.57-.64.21-.14.45-.22.72-.22.25,0,.46.05.64.15.18.1.33.25.44.46.12.2.2.46.26.79.06.32.09.7.09,1.14v3.38h-.73v-3.32c0-.36-.02-.67-.05-.92-.03-.25-.08-.44-.15-.58-.07-.14-.16-.24-.27-.31-.11-.07-.25-.1-.41-.1-.13,0-.26.05-.39.16-.13.11-.25.27-.36.49-.12.22-.21.45-.26.7-.06.25-.09.51-.09.78v3.11h-.75v-8.38Z"/>
    <path class="cls-1" d="m68.95,108.22v-1.23h.77v1.23h-.77Zm0,7.15v-5.81h.77v5.81h-.77Z"/>
    <polygon class="cls-1" points="74.34 115.36 74.34 111.29 74.34 107.21 74.76 107.21 75.18 107.21 75.18 111.29 75.18 115.36 74.76 115.36 74.34 115.36"/>
    <path class="cls-1" d="m77.63,109.56h.75v.51s.01.51.01.51c.23-.38.5-.67.83-.86.32-.19.7-.28,1.12-.28v.72c-.3,0-.58.06-.81.17-.24.11-.44.28-.61.51-.17.23-.29.49-.38.78-.08.29-.12.62-.12.98v2.77h-.78v-5.82Z"/>
    <path class="cls-1" d="m84.98,114.67c-.19.27-.4.48-.64.61-.24.14-.52.2-.82.2s-.57-.07-.82-.2c-.24-.14-.45-.34-.64-.61-.18-.27-.32-.59-.41-.96-.09-.37-.14-.78-.14-1.24s.05-.88.14-1.24c.09-.37.23-.69.41-.96.18-.27.39-.48.64-.61.24-.14.51-.2.82-.2s.57.07.82.2c.24.14.45.34.64.61.18.27.32.59.41.96.09.37.14.79.14,1.25s-.05.88-.13,1.25c-.09.37-.22.68-.4.95m-.57-3.94c-.11-.2-.24-.36-.39-.46-.15-.1-.32-.15-.5-.15s-.35.05-.5.15c-.15.1-.28.26-.39.46-.11.21-.19.45-.25.74-.06.29-.08.62-.08.98s.03.7.08.98c.06.29.14.53.25.74.11.21.24.36.39.46.15.1.32.15.5.15s.35-.05.5-.15c.15-.1.28-.26.39-.46.11-.21.2-.45.25-.74.06-.29.08-.62.08-.98,0-.37-.03-.7-.09-.99-.06-.29-.14-.54-.25-.74"/>
    <path class="cls-1" d="m87.01,109.56h.71v.39s.01.39.01.39c.06-.12.13-.22.21-.32.08-.1.17-.19.26-.27.13-.1.26-.18.4-.23.14-.05.28-.08.43-.08.25,0,.46.05.64.15.18.1.33.25.44.46.11.2.2.46.26.79.06.32.09.7.09,1.14v3.38h-.73v-3.32c0-.36-.02-.67-.05-.92-.03-.25-.08-.45-.15-.58-.07-.14-.16-.24-.27-.31-.11-.07-.25-.1-.41-.1-.13,0-.26.05-.38.16-.12.11-.25.27-.37.48-.12.21-.21.45-.27.69-.06.25-.09.51-.09.8v3.1h-.75v-5.81Z"/>
    <polygon class="cls-1" points="94.21 107.21 94.76 110.59 95.3 113.97 95.85 110.59 96.4 107.21 96.88 107.21 97.36 107.21 97.9 110.61 98.45 114 98.99 110.61 99.54 107.21 99.93 107.21 100.33 107.21 99.61 111.29 98.9 115.36 98.43 115.36 97.96 115.36 97.41 111.77 96.87 108.17 96.31 111.77 95.76 115.36 95.29 115.36 94.82 115.36 94.11 111.29 93.39 107.21 93.8 107.21 94.21 107.21"/>
    <path class="cls-1" d="m104.99,114.67c-.19.27-.4.48-.64.61-.24.14-.52.2-.82.2s-.57-.07-.82-.2c-.24-.14-.45-.34-.64-.61-.18-.27-.32-.59-.41-.96-.09-.37-.14-.78-.14-1.24s.05-.88.14-1.24c.09-.37.23-.69.41-.96.18-.27.39-.48.64-.61.24-.14.51-.2.82-.2s.57.07.82.2c.24.14.45.34.64.61.18.27.32.59.41.96.09.37.14.79.14,1.25s-.05.88-.13,1.25c-.09.37-.22.68-.4.95m-.57-3.94c-.11-.2-.24-.36-.39-.46-.15-.1-.32-.15-.5-.15s-.35.05-.5.15c-.15.1-.28.26-.39.46-.11.21-.19.45-.25.74-.06.29-.08.62-.08.98s.03.7.08.98c.06.29.14.53.25.74.11.21.24.36.39.46.15.1.32.15.5.15s.35-.05.5-.15c.15-.1.28-.26.39-.46.11-.21.2-.45.25-.74.06-.29.08-.62.08-.98,0-.37-.03-.7-.09-.99-.06-.29-.14-.54-.25-.74"/>
    <path class="cls-1" d="m107.23,109.56h.75v.51s.01.51.01.51c.23-.38.5-.67.83-.86.32-.19.7-.28,1.12-.28v.72c-.3,0-.58.06-.81.17-.24.11-.44.28-.61.51-.17.23-.29.49-.38.78-.08.29-.12.62-.12.98v2.77h-.78v-5.82Z"/>
    <polygon class="cls-1" points="112.48 106.99 112.48 109.43 112.48 111.87 113.44 110.71 114.4 109.56 114.89 109.56 115.37 109.56 114.18 110.94 112.99 112.32 114.19 113.84 115.4 115.36 114.92 115.36 114.44 115.36 113.46 114.08 112.48 112.8 112.48 114.08 112.48 115.36 112.11 115.36 111.73 115.36 111.73 111.18 111.73 106.99 112.11 106.99 112.48 106.99"/>
    <path class="cls-1" d="m118.38,109.45c.25,0,.5.04.74.11.24.07.48.19.72.33l-.08.33-.08.33c-.24-.15-.46-.25-.68-.33-.22-.07-.43-.11-.63-.11-.14,0-.27.02-.37.06s-.2.1-.27.18c-.07.08-.12.17-.16.28-.04.11-.05.24-.05.38s.02.26.05.36c.03.11.08.2.14.28.06.08.15.15.27.21.12.06.26.12.44.16.27.06.5.15.7.25.2.1.36.23.48.38.13.14.22.32.29.52.06.2.1.43.1.68s-.04.48-.11.68c-.07.2-.18.38-.33.52-.15.15-.32.26-.51.33-.2.07-.42.11-.67.11-.29,0-.57-.05-.84-.14-.27-.09-.52-.24-.77-.42l.09-.33.09-.33c.24.18.48.32.72.41.24.09.47.14.71.14.13,0,.25-.02.36-.06.1-.04.19-.11.26-.19.07-.08.13-.18.16-.3s.05-.26.05-.42-.02-.28-.05-.4c-.03-.11-.08-.21-.15-.3s-.16-.15-.27-.22c-.12-.06-.26-.12-.43-.16-.26-.06-.49-.15-.69-.25-.2-.1-.35-.22-.48-.36-.12-.14-.22-.3-.28-.5-.06-.19-.09-.41-.09-.65s.04-.45.11-.64c.07-.19.18-.36.33-.5.15-.14.32-.25.51-.32.2-.07.42-.11.66-.11"/>
  </g>
</svg>