<?xml version="1.0" encoding="UTF-8"?>
<svg id="_レイヤー_2" data-name="レイヤー 2" xmlns="http://www.w3.org/2000/svg" viewBox="0 0 121.55 120.57">
  <defs>
    <style>
      .cls-1 {
        fill: #fff;
        stroke-width: 0px;
      }
    </style>
  </defs>
  <g id="_レイヤー_1-2" data-name="レイヤー 1">
    <g>
      <path class="cls-1" d="m85.58,22.02c-.26.36-.5.7-.79,1.09s-.61.81-1.02,1.35v4.14s.02,2.53.02,2.53v.45c0,4.49-2.58,8.55-6.74,11.5-4.16,2.95-9.91,4.77-16.25,4.77s-12.09-1.83-16.26-4.78-6.76-7.02-6.76-11.51v-7.1c-.34-.33-.66-.76-.97-1.2s-.59-.89-.85-1.25c0,.15,0,.3,0,.42s0,.22,0,.29v8.86c0,5.04,2.78,9.6,7.28,12.91,4.5,3.31,10.7,5.36,17.55,5.36,5.19,0,10.01-1.18,13.99-3.19s7.14-4.85,8.99-8.19l-.02,6.44-.02,6.44c0,4.49-2.57,8.55-6.72,11.5-4.15,2.95-9.89,4.77-16.23,4.77s-11.86-1.87-16.09-4.84c-4.23-2.97-6.93-7.04-6.93-11.43-.91-1.22-.89-1.22-1.81-2.45,0,1.07,0,2.01,0,2.45,0,4.98,2.77,9.54,7.26,12.86,4.49,3.32,10.7,5.4,17.57,5.4s13.04-2.04,17.51-5.35c4.48-3.3,7.25-7.87,7.25-12.9v-9.89s0-9.92,0-9.92v-8.82c0-.06,0-.18,0-.31s0-.28,0-.41Z"/>
      <path class="cls-1" d="m84.44,19.54s0,0,0,0,0,0,0,0c.08-.16.16-.33.24-.49s.14-.33.21-.5c.01-.03.03-.07.04-.1s.03-.07.04-.1c.06-.17.12-.33.17-.5s.1-.34.15-.5c0,0,0,0,0,0s0,0,0,0c.04-.17.08-.34.11-.51s.06-.34.08-.51c0-.04.01-.08.02-.12s0-.08.01-.12c.02-.17.04-.34.05-.52s.02-.35.02-.52c0,0,0,0,0,0s0,0,0,0c0-1.95-.61-3.81-1.72-5.51s-2.72-3.26-4.72-4.6c-.27-.18-.54-.35-.82-.52s-.57-.34-.86-.5c-.29-.16-.59-.32-.9-.47s-.62-.3-.94-.45c-.8-.36-1.63-.69-2.49-1-.87-.3-1.76-.57-2.69-.81-.37-.1-.75-.18-1.13-.27s-.76-.16-1.15-.24c-1.16-.22-2.37-.39-3.6-.5s-2.49-.17-3.78-.17c-.43,0-.85,0-1.28.02s-.84.03-1.26.06c-.83.05-1.66.13-2.46.23s-1.6.22-2.38.37c-.58.11-1.16.23-1.72.37s-1.12.28-1.66.44c-.72.21-1.43.44-2.11.69s-1.34.52-1.98.81c-.95.43-1.86.91-2.7,1.42-.84.51-1.62,1.06-2.34,1.64-.24.19-.47.39-.69.59s-.44.4-.65.61c-.1.1-.21.21-.3.31s-.2.21-.29.32c-.19.21-.37.43-.55.65s-.34.44-.5.67c-.63.9-1.11,1.84-1.45,2.82-.33.98-.5,1.99-.5,3.03,0,.18,0,.35.02.52s.03.35.05.52c0,.04,0,.08.01.12s.01.08.02.12c.02.17.05.34.08.51s.07.34.11.51c0,0,0,0,0,0s0,0,0,0c.04.17.09.34.15.51s.11.33.17.5c.01.03.03.07.04.1s.03.07.04.1c.46,1.17,1.15,2.29,2.04,3.34.89,1.05,1.97,2.02,3.22,2.91,0,0,0,0,0,0s0,0,.01,0c.37.26.76.52,1.17.77s.82.49,1.25.72c0,0,.02.01.03.02s.02.01.03.02c.21.11.42.22.63.33s.43.21.65.31c0,0,.01,0,.02,0s.01,0,.02,0c.22.1.45.21.68.3s.46.2.7.29c.02,0,.04.01.06.02s.04.01.06.02c.21.08.43.17.65.25s.44.16.66.24c.03.01.06.02.09.03s.06.02.09.03c.24.08.48.16.72.24s.49.15.74.22c.03,0,.05.01.08.02s.05.01.08.02c.22.06.44.12.67.18s.45.11.68.17c.05.01.1.02.14.03s.1.02.14.03c.25.06.51.11.76.17s.51.1.77.15c.03,0,.06,0,.08.01s.06,0,.08.01c.23.04.46.08.7.12s.47.07.71.11c.06,0,.12.02.18.03s.12.02.18.03c.26.04.53.07.8.1s.53.06.8.08c.02,0,.04,0,.06,0s.04,0,.06,0c.25.02.5.04.75.06s.51.03.76.04c.07,0,.14,0,.21.01s.14,0,.21,0c.28.01.55.02.83.03s.56.01.84.01.56,0,.84-.01.55-.02.83-.03c.07,0,.14,0,.21,0s.14,0,.21-.01c.25-.01.51-.03.76-.04s.5-.04.75-.06c.02,0,.04,0,.06,0s.04,0,.06,0c.27-.02.54-.05.81-.08s.53-.06.8-.1c.06,0,.12-.02.18-.03s.12-.02.18-.03c.24-.03.47-.07.71-.11s.47-.08.7-.12c.03,0,.06,0,.08-.01s.06,0,.08-.01c.26-.05.52-.1.77-.15s.51-.11.76-.17c.05-.01.1-.02.14-.03s.1-.02.14-.03c.23-.05.45-.11.68-.17s.45-.12.67-.18c.03,0,.05-.01.08-.02s.05-.01.08-.02c.25-.07.49-.15.74-.22s.48-.15.72-.24c.03,0,.06-.02.09-.03s.06-.02.09-.03c.22-.08.44-.16.66-.24s.44-.16.65-.25c.02,0,.04-.01.05-.02s.04-.01.05-.02c.24-.09.47-.19.7-.29s.46-.2.68-.3c0,0,.01,0,.02-.01s.01,0,.02-.01c.22-.1.44-.21.65-.31s.42-.22.63-.33c.01,0,.02-.01.03-.02s.02-.01.03-.02c.43-.23.85-.47,1.25-.72s.79-.51,1.17-.77c0,0,0,0,.01,0s0,0,.01,0c.76-.54,1.45-1.11,2.08-1.7s1.19-1.22,1.67-1.88c0,0,0,0,0,0s0,0,0,0h0c.2-.27.39-.55.57-.83s.34-.56.49-.85h0Zm-22.88-10.42c-4.52,0-8.81.84-12.59,2.36-3.78,1.52-7.05,3.74-9.53,6.48-.23-.17-.31-.33-.47-.58s-.26-.52-.27-.77c1.95-2.52,5.3-4.78,9.33-6.41s8.72-2.61,13.37-2.57c4.38.03,8.43.84,12.03,2.35,3.6,1.51,6.75,3.72,9.34,6.56-.07.14-.18.37-.3.61s-.25.49-.37.64c-2.49-2.72-5.73-4.89-9.29-6.37-3.56-1.49-7.45-2.29-11.24-2.29Z"/>
    </g>
    <g>
      <path class="cls-1" d="m3.16,94.32c-.61,2.15-1.31,3.85-2.25,5.52l-.91-1.58c1.37-2.1,2.38-4.63,2.99-7.52H.48v-1.45h2.67v-4.27h1.62v4.27h2v1.45h-2v1.75c.91.78,1.71,1.56,2.36,2.29l-.82,1.45c-.53-.8-.93-1.33-1.54-2.06v9.7h-1.62v-9.56Zm4.4,8.57c1.79-1.14,2.95-2.84,3.26-4.8-1.31.59-2.69,1.14-4.1,1.6l-.65-1.45c.91-.23,1.05-.25,1.45-.38v-10.86l.25-.06c1.56-.32,3.18-.88,4.42-1.52l1.24,1.12c-1.41.59-3.05,1.16-4.42,1.49v9.37c.38-.11.7-.23,1.89-.67v-8.15h1.49v7.89c0,3.43-1.05,5.56-3.68,7.49l-1.16-1.07Zm11.33-4.67c0,1.22-.36,1.56-1.6,1.56-.51,0-.86-.02-1.2-.06l-.32-1.47c.29.04.8.06,1.07.06.42,0,.53-.15.53-.65v-9.24h-2.13v15.47h-1.56v-16.88h5.2v11.22Z"/>
      <path class="cls-1" d="m25.4,86.24v7.05c0,5.45-.69,7.94-2.93,10.59l-1.58-1.24c1.96-2.25,2.55-4.4,2.55-9.22v-7.18h1.96Zm6.1.46v15.3h-1.94v-15.3h1.94Zm6.44-.78v17.56h-1.92v-17.56h1.92Z"/>
      <path class="cls-1" d="m46.22,85.17h1.81v2.42h5.2v-2.42h1.83v2.42h4.95v1.39h-4.95v1.94h-1.83v-1.94h-5.2v1.94h-1.81v-1.94h-4.72v-1.39h4.72v-2.42Zm3.73,8.82c-.02.82-.08,1.68-.15,2.29h7.89c-.13,2.55-.34,4.48-.63,5.6-.34,1.33-1.01,1.75-2.8,1.75-.88,0-2.08-.06-3.1-.17l-.36-1.56c1.16.17,2.42.27,3.2.27.84,0,1.12-.21,1.3-.99.21-.82.34-1.89.44-3.52h-6.21c-.67,3.09-2.8,5.24-6.25,6.34l-1.18-1.26c4.34-1.33,6.04-3.79,6.04-8.76h-6.42v-1.41h8v-2.21h1.79v2.21h8.21v1.41h-9.79Z"/>
      <path class="cls-1" d="m68.7,90.62v1.33h-2.02v2.15h2.86v1.37h-2.86v5.3c1.07-.29,2.32-.65,3.16-.93l.13,1.37c-2.46.88-5.33,1.73-7.79,2.27l-.53-1.52c1.18-.23,1.96-.42,3.26-.74l.19-.04v-5.73h-3.16v-1.37h3.16v-2.15h-1.71c-.44.55-.61.76-1.12,1.31l-.88-1.33c1.79-1.98,3.12-4.36,3.92-6.97l1.58.34c-.13.38-.17.48-.25.72.04.04.06.04.19.15,1.05.86,2.53,2.25,3.49,3.35l-1.01,1.33c-1.01-1.3-2.02-2.4-3.2-3.52-.55,1.22-1.07,2.21-1.77,3.31h4.36Zm-5.64,10.06c-.32-1.6-.59-2.65-.99-3.77l1.41-.44c.42,1.16.74,2.38.99,3.81l-1.41.4Zm4.15-1.03c.36-.93.69-2.04,1.01-3.47l1.43.38c-.32,1.31-.72,2.46-1.18,3.41l-1.26-.32Zm7.22-14.71h1.7v4.36h3.89v1.41h-3.89v3.41h4.44v1.43h-4.21c.7,2.53,2.51,5.14,4.65,6.67l-1.07,1.45c-2.29-1.94-3.68-3.98-4.46-6.48-.59,2.84-2.32,5.26-4.78,6.76l-1.2-1.28c2.72-1.47,4.36-3.89,4.82-7.12h-3.96v-1.43h4.06v-3.41h-2.17c-.27.95-.61,1.75-.99,2.46l-1.43-.8c.84-1.52,1.39-3.33,1.77-5.77l1.49.25c-.15.95-.23,1.45-.46,2.44h1.79v-4.36Z"/>
      <path class="cls-1" d="m92.45,100.72h8.19v1.58h-18.23v-1.58h8.02v-11.68h-6.9v-1.52h16.06v1.52h-7.14v11.68Z"/>
      <path class="cls-1" d="m110.82,97.69h-1.64v-1.14h-3.68c-.08,3.7-.53,5.49-1.79,7.39l-1.39-1.09c1.2-1.92,1.52-3.43,1.52-7.28v-5.33h6.99v7.45Zm.88-11.39v1.45h-8.82v-1.45h8.82Zm-6.19,5.3v3.6h3.66v-3.6h-3.66Zm8.93,1.87c.02,5.54-.59,7.98-2.67,10.53l-1.43-1.14c1.85-2.17,2.4-4.34,2.4-9.12v-6.69l.27-.04.27-.02c2.36-.29,4.53-.76,6.21-1.37l1.14,1.35c-1.89.57-4.02,1.03-6.19,1.33v3.52h7.12v1.49h-2.53v10.48h-1.77v-10.48h-2.82v.17Z"/>
    </g>
    <g>
      <path class="cls-1" d="m4.53,115.9l-1.92-3.89h1.03l1.36,2.93,1.35-2.93h1.03l-1.93,3.88v2.72h-.91v-2.72Z"/>
      <path class="cls-1" d="m10.55,118.2h-.02c-.08.16-.22.28-.39.35-.18.08-.42.12-.73.12-.51,0-.9-.14-1.17-.42-.29-.27-.43-.6-.43-1.02s.13-.72.38-.98c.25-.27.62-.4,1.1-.41h1.27v-.5c0-.42-.31-.62-.93-.6-.23,0-.41.02-.54.07-.14.06-.25.15-.32.29l-.72-.57c.35-.47.86-.7,1.54-.68.57,0,1.03.11,1.37.33.34.24.52.64.52,1.21v3.21h-.91v-.42Zm0-1.58h-1.1c-.53.01-.8.2-.79.57,0,.16.07.3.21.41.13.12.35.19.65.19.38,0,.65-.04.81-.14.14-.1.22-.33.22-.68v-.34Z"/>
      <path class="cls-1" d="m12.98,113.92h.91v.5h.02c.3-.37.7-.56,1.18-.56.38,0,.72.14,1.03.41.31.28.47.69.49,1.22v3.12h-.91v-2.8c0-.33-.08-.58-.25-.75-.17-.18-.38-.26-.64-.26s-.48.09-.65.26c-.17.17-.26.42-.26.75v2.8h-.91v-4.7Z"/>
      <path class="cls-1" d="m20.72,118.2h-.02c-.08.16-.22.28-.39.35-.18.08-.42.12-.73.12-.51,0-.9-.14-1.17-.42-.29-.27-.43-.6-.43-1.02s.13-.72.38-.98c.25-.27.62-.4,1.1-.41h1.27v-.5c0-.42-.31-.62-.93-.6-.23,0-.41.02-.54.07-.14.06-.25.15-.32.29l-.72-.57c.35-.47.86-.7,1.54-.68.57,0,1.03.11,1.37.33.34.24.52.64.52,1.21v3.21h-.91v-.42Zm0-1.58h-1.1c-.53.01-.8.2-.79.57,0,.16.07.3.21.41.13.12.35.19.65.19.38,0,.65-.04.81-.14.14-.1.22-.33.22-.68v-.34Z"/>
      <path class="cls-1" d="m25.71,118.12c-.3.35-.69.53-1.17.54-.3,0-.54-.07-.74-.19-.2-.12-.36-.25-.47-.38-.12-.15-.21-.34-.26-.57-.06-.22-.08-.64-.08-1.26s.03-1.06.08-1.28c.05-.22.14-.41.26-.56.11-.15.26-.28.47-.4.2-.11.44-.17.74-.18.45,0,.84.19,1.17.56v-.5h.91v4.59c-.01.71-.21,1.23-.59,1.56-.39.34-.85.51-1.38.51-.62-.01-1.14-.27-1.58-.79l.71-.58c.12.11.25.21.4.29.16.09.32.14.48.14.31,0,.56-.09.75-.27.19-.18.28-.43.29-.75v-.48Zm-1.81-1.85c0,.36.01.61.04.74.02.14.07.26.14.35.06.09.16.16.28.23.12.09.27.13.45.13s.33-.04.45-.13c.12-.07.21-.15.27-.23.08-.09.13-.21.15-.35.02-.14.03-.39.03-.74s0-.62-.03-.76c-.03-.14-.08-.26-.15-.35-.06-.09-.15-.17-.27-.25-.12-.07-.27-.11-.45-.11-.18,0-.33.04-.45.11-.13.08-.22.16-.28.25-.08.09-.12.2-.14.35-.02.14-.04.4-.04.76Z"/>
      <path class="cls-1" d="m30.54,118.2h-.02c-.08.16-.22.28-.39.35-.18.08-.42.12-.73.12-.51,0-.9-.14-1.17-.42-.29-.27-.43-.6-.43-1.02s.13-.72.38-.98c.25-.27.62-.4,1.1-.41h1.27v-.5c0-.42-.31-.62-.93-.6-.23,0-.41.02-.54.07-.14.06-.25.15-.32.29l-.72-.57c.35-.47.86-.7,1.54-.68.57,0,1.03.11,1.37.33.34.24.52.64.52,1.21v3.21h-.91v-.42Zm0-1.58h-1.1c-.53.01-.8.2-.79.57,0,.16.07.3.21.41.13.12.35.19.65.19.38,0,.65-.04.81-.14.14-.1.22-.33.22-.68v-.34Z"/>
      <path class="cls-1" d="m35.81,115.32h-.02l-.95,3.29h-.81l-1.46-4.7h.97l.87,3.3h.02l1.04-3.3h.66l1.03,3.3h.02l.87-3.3h.97l-1.45,4.7h-.81l-.95-3.29Z"/>
      <path class="cls-1" d="m42.43,118.2h-.02c-.08.16-.22.28-.39.35-.18.08-.42.12-.73.12-.51,0-.9-.14-1.17-.42-.29-.27-.43-.6-.43-1.02s.13-.72.38-.98c.25-.27.62-.4,1.1-.41h1.27v-.5c0-.42-.31-.62-.93-.6-.23,0-.41.02-.54.07-.14.06-.25.15-.32.29l-.72-.57c.35-.47.86-.7,1.54-.68.57,0,1.03.11,1.37.33.34.24.52.64.52,1.21v3.21h-.91v-.42Zm0-1.58h-1.1c-.53.01-.8.2-.79.57,0,.16.07.3.21.41.13.12.35.19.65.19.38,0,.65-.04.81-.14.14-.1.22-.33.22-.68v-.34Z"/>
      <path class="cls-1" d="m45.3,115.58h2.7v.94h-2.7v-.94Z"/>
      <path class="cls-1" d="m51.13,115.9l-1.92-3.89h1.03l1.36,2.93,1.35-2.93h1.03l-1.93,3.88v2.72h-.91v-2.72Z"/>
      <path class="cls-1" d="m54.71,116.26c0-.5.04-.88.12-1.14.08-.26.21-.48.38-.66.13-.16.3-.3.53-.42.22-.12.51-.18.86-.18.36,0,.65.07.87.19.22.12.39.26.51.42.18.18.31.4.39.66.07.27.11.65.11,1.14s-.04.87-.11,1.13c-.08.26-.2.48-.39.67-.06.07-.13.14-.21.2-.08.08-.17.14-.29.19-.22.13-.51.2-.87.2-.35,0-.63-.07-.85-.2-.22-.12-.4-.25-.53-.4-.17-.19-.29-.41-.38-.67-.08-.26-.12-.64-.12-1.13Zm2.84,0c0-.34-.01-.58-.04-.74-.03-.15-.09-.28-.18-.39-.07-.11-.17-.19-.3-.25-.13-.06-.27-.1-.44-.1-.16,0-.3.03-.43.1-.13.06-.23.14-.31.25-.08.11-.14.24-.17.39-.04.15-.05.4-.05.73s.02.57.05.72c.04.15.09.29.17.41.08.09.18.17.31.24.13.07.28.1.43.1.17,0,.31-.03.44-.1.13-.07.23-.15.3-.24.09-.12.15-.25.18-.41.03-.15.04-.39.04-.71Z"/>
      <path class="cls-1" d="m60.08,117.18c.37.4.85.6,1.44.6.26,0,.48-.05.65-.16.17-.11.25-.25.25-.44,0-.17-.05-.29-.15-.35-.1-.07-.24-.11-.41-.11l-.81-.07c-.38-.04-.7-.17-.94-.4-.25-.22-.37-.53-.38-.94,0-.48.17-.85.5-1.09.32-.24.72-.36,1.2-.36.21,0,.4.01.57.04.17.03.32.07.47.13.28.12.53.28.75.47l-.57.68c-.18-.13-.36-.24-.56-.32-.19-.08-.42-.11-.67-.11-.29,0-.49.05-.6.16-.12.11-.18.24-.18.41,0,.11.04.2.14.28.09.09.24.14.46.17l.76.06c.47.04.82.18,1.03.44.2.25.29.58.29.96,0,.46-.19.81-.54,1.06-.35.25-.8.38-1.35.39-.74,0-1.41-.28-2-.84l.64-.65Z"/>
      <path class="cls-1" d="m64.58,112.01h.91v2.4h.02c.3-.37.7-.56,1.18-.56.38,0,.72.14,1.03.41.31.28.47.69.49,1.22v3.12h-.91v-2.8c0-.33-.08-.58-.25-.75-.17-.18-.38-.26-.64-.26s-.48.09-.65.26c-.17.17-.26.42-.26.75v2.8h-.91v-6.6Z"/>
      <path class="cls-1" d="m69.96,112.01h.91v.94h-.91v-.94Zm0,1.9h.91v4.7h-.91v-4.7Z"/>
      <path class="cls-1" d="m74.64,112.01h.97v6.6h-.97v-6.6Z"/>
      <path class="cls-1" d="m77.32,113.92h.91v.5h.02c.3-.37.7-.56,1.18-.56.37,0,.68.13.96.36l-.67.82c-.19-.16-.39-.24-.6-.24-.23,0-.43.08-.6.24-.19.15-.28.4-.29.75v2.83h-.91v-4.7Z"/>
      <path class="cls-1" d="m80.89,116.26c0-.5.04-.88.12-1.14.08-.26.21-.48.38-.66.13-.16.3-.3.53-.42.22-.12.51-.18.86-.18.36,0,.65.07.87.19.22.12.39.26.51.42.18.18.31.4.39.66.07.27.11.65.11,1.14s-.04.87-.11,1.13c-.08.26-.2.48-.39.67-.06.07-.13.14-.21.2-.08.08-.17.14-.29.19-.22.13-.51.2-.87.2-.35,0-.63-.07-.85-.2-.22-.12-.4-.25-.53-.4-.17-.19-.29-.41-.38-.67-.08-.26-.12-.64-.12-1.13Zm2.84,0c0-.34-.01-.58-.04-.74-.03-.15-.09-.28-.18-.39-.07-.11-.17-.19-.3-.25-.13-.06-.27-.1-.44-.1-.16,0-.3.03-.43.1-.13.06-.23.14-.31.25-.08.11-.14.24-.17.39-.04.15-.05.4-.05.73s.02.57.05.72c.04.15.09.29.17.41.08.09.18.17.31.24.13.07.28.1.43.1.17,0,.31-.03.44-.1.13-.07.23-.15.3-.24.09-.12.15-.25.18-.41.03-.15.04-.39.04-.71Z"/>
      <path class="cls-1" d="m85.94,113.92h.91v.5h.02c.3-.37.7-.56,1.18-.56.38,0,.72.14,1.03.41.31.28.47.69.49,1.22v3.12h-.91v-2.8c0-.33-.08-.58-.25-.75-.17-.18-.38-.26-.64-.26s-.48.09-.65.26c-.17.17-.26.42-.26.75v2.8h-.91v-4.7Z"/>
      <path class="cls-1" d="m92.65,112.01h1.02l1,4.69h.02l1.24-4.69h.7l1.24,4.69h.02l1.01-4.69h1.02l-1.6,6.6h-.81l-1.22-4.76h-.02l-1.22,4.76h-.81l-1.6-6.6Z"/>
      <path class="cls-1" d="m100.82,116.26c0-.5.04-.88.12-1.14.08-.26.21-.48.38-.66.13-.16.3-.3.53-.42.22-.12.51-.18.86-.18.36,0,.65.07.87.19.22.12.39.26.51.42.18.18.31.4.39.66.07.27.11.65.11,1.14s-.04.87-.11,1.13c-.08.26-.2.48-.39.67-.06.07-.13.14-.21.2-.08.08-.17.14-.29.19-.22.13-.51.2-.87.2-.35,0-.63-.07-.85-.2-.22-.12-.4-.25-.53-.4-.17-.19-.29-.41-.38-.67-.08-.26-.12-.64-.12-1.13Zm2.84,0c0-.34-.01-.58-.04-.74-.03-.15-.09-.28-.18-.39-.07-.11-.17-.19-.3-.25-.13-.06-.27-.1-.44-.1-.16,0-.3.03-.43.1-.13.06-.23.14-.31.25-.08.11-.14.24-.17.39-.04.15-.05.4-.05.73s.02.57.05.72c.04.15.09.29.17.41.08.09.18.17.31.24.13.07.28.1.43.1.17,0,.31-.03.44-.1.13-.07.23-.15.3-.24.09-.12.15-.25.18-.41.03-.15.04-.39.04-.71Z"/>
      <path class="cls-1" d="m105.87,113.92h.91v.5h.02c.3-.37.7-.56,1.18-.56.37,0,.68.13.96.36l-.67.82c-.19-.16-.39-.24-.6-.24-.23,0-.43.08-.6.24-.19.15-.28.4-.29.75v2.83h-.91v-4.7Z"/>
      <path class="cls-1" d="m110.03,112.01h.91v4.11h.02l1.75-2.2h1.1l-1.57,1.83,1.79,2.87h-1.15l-1.21-2.19-.72.84v1.35h-.91v-6.6Z"/>
      <path class="cls-1" d="m115.16,117.18c.37.4.85.6,1.44.6.26,0,.48-.05.65-.16.17-.11.25-.25.25-.44,0-.17-.05-.29-.15-.35-.1-.07-.24-.11-.41-.11l-.81-.07c-.38-.04-.7-.17-.94-.4-.25-.22-.37-.53-.38-.94,0-.48.17-.85.5-1.09.32-.24.72-.36,1.2-.36.21,0,.4.01.57.04.17.03.32.07.47.13.28.12.53.28.75.47l-.57.68c-.18-.13-.36-.24-.56-.32-.19-.08-.42-.11-.67-.11-.29,0-.49.05-.6.16-.12.11-.18.24-.18.41,0,.11.04.2.14.28.09.09.24.14.46.17l.76.06c.47.04.82.18,1.03.44.2.25.29.58.29.96,0,.46-.19.81-.54,1.06-.35.25-.8.38-1.35.39-.74,0-1.41-.28-2-.84l.64-.65Z"/>
    </g>
  </g>
</svg>