<?xml version="1.0" encoding="UTF-8"?>
<svg id="_レイヤー_2" data-name="レイヤー 2" xmlns="http://www.w3.org/2000/svg" viewBox="0 0 706.14 230.48">
  <defs>
    <style>
      .cls-1 {
        fill: #231815;
      }

      .cls-2 {
        fill: #fff;
      }

      .cls-3 {
        fill: #291f1d;
      }

      .cls-4 {
        fill: #009655;
      }

      .cls-5 {
        fill: #faef42;
      }

      .cls-6 {
        fill: #006c37;
      }
    </style>
  </defs>
  <g id="_レイヤー_1-2" data-name="レイヤー 1">
    <g>
      <path class="cls-1" d="M137.81,129.4c.29-.06-.6.04-.89.06-31.68,1.92-58.57,7.92-58.57,7.92,0,0,42.66-4.63,59.47-7.98"/>
      <path class="cls-1" d="M54.38,230.48s79.6-14.52,107.45-16.26c0,0-43.62,9.18-107.45,16.26"/>
      <path class="cls-1" d="M540.18,132.27s98.27-7.22,132.22-5.7c0,0-54.01,5.44-132.22,5.7"/>
      <path class="cls-1" d="M0,140.29s110.77-17.39,149.4-18.85c0,0-60.73,11.23-149.4,18.85"/>
      <path class="cls-1" d="M661.46,108.76c.26-.03-.52-.01-.79-.02-27.89-.65-51.88,2.63-51.88,2.63,0,0,37.7-.91,52.67-2.61"/>
      <path class="cls-1" d="M573.87,106.38s98.33-6.38,132.26-4.58c0,0-54.05,4.98-132.26,4.58"/>
      <path class="cls-1" d="M409.54,27.59s80.73-5.38,108.6-3.95c0,0-44.38,4.17-108.6,3.95"/>
      <path class="cls-1" d="M519.85,27.7c.26-.03-.52-.01-.79-.02-27.89-.65-51.88,2.63-51.88,2.63,0,0,37.7-.91,52.67-2.61"/>
      <path class="cls-1" d="M441.04,72.72s111.81-8.41,150.44-6.74c0,0-61.44,6.29-150.44,6.74"/>
      <path class="cls-3" d="M528.51,63.63l.42,17.26c-4.81-4.16-11.79-6.03-21.23-5.71-4.17.15-107.4,5.18-114.75,5.63.93-4.33,17.89-80.81,17.89-80.81L62.29,5.31s27.93,22.35,31.16,23.87c-3.49,22.85-7.03,46.32-10.55,69.94-4.53,3.14-33.41,29.41-33.41,29.41l96.5-11.39,11.2,3.66c3.44,1.41,6.89,2.82,10.3,4.19,1.41,23.15,2.82,46.23,4.23,69.21-4.23,3.2-33.31,30.97-33.31,30.97,0,0,406.57-61.15,414.03-61.98l7.75-.86,20.09-100.17-51.76,1.46Z"/>
      <path class="cls-4" d="M227.69,61.69c.98-5.61,1.96-11.2,2.95-16.77-7.89.47-15.78.95-23.67,1.46,0,0,0-.01,0-.02-3.55.22-7.1.45-10.65.69,3.88-2.18,7.76-4.33,11.64-6.45.7-4.07,1.4-8.13,2.09-12.18,9.15-.38,18.31-.74,27.46-1.08.98-5.5,1.96-10.98,2.95-16.44-11.19.18-22.37.39-33.55.63-5.6.12-11.2.25-16.8.39-6.18.15-12.36.31-18.54.48,5.73,2.56,11.46,5.08,17.18,7.55-2.74,16.27-5.48,32.7-8.22,49.29l22.75-1.3c.24-1.43.49-2.87.73-4.3,7.89-.67,15.78-1.32,23.67-1.95"/>
      <path class="cls-4" d="M317.07,44.44c1.3-6.6,2.61-13.17,3.91-19.7,1.95-9.72-3.49-14.54-16.3-14.51-7.22.03-14.44.08-21.65.15-5.73.05-11.46.11-17.19.17-6.05.07-12.1.15-18.15.24,5.61,2.35,11.21,4.66,16.82,6.92-2.88,15.56-5.76,31.32-8.65,47.23l22.78-1.3c.11-.58.21-1.16.32-1.73.48-.04.96-.07,1.44-.11.17.57.33,1.14.5,1.71l23.22-1.33c-.35-.98-.7-1.94-1.06-2.93,7.84-2.33,12.51-7.26,14-14.81M297.55,28.1c-.99,5.13-1.98,10.27-2.97,15.44-.35,1.8-1.61,2.77-3.79,2.89-.79.04-1.58.09-2.37.13-2.22.12-4.44.25-6.65.38-3.99.23-7.98.46-11.96.69,4.36-2.23,8.72-4.43,13.07-6.59.97-5.12,1.93-10.21,2.9-15.29,3.01-.09,6.02-.17,9.02-.25,2.18-.06,3.1.81,2.75,2.59"/>
      <path class="cls-4" d="M360.24,52.55c7.89-.45,15.78-.89,23.67-1.32.98-4.52,1.96-9.02,2.95-13.5-7.89.26-15.78.53-23.67.82,0,0,0-.01,0-.02-3.55.13-7.1.26-10.65.4,3.88-1.72,7.76-3.41,11.64-5.07.7-3.29,1.4-6.58,2.09-9.85,9.16-.13,18.31-.25,27.47-.34.98-4.41,1.96-8.8,2.94-13.17-11.18-.12-22.37-.21-33.55-.27-5.6-.03-11.2-.05-16.8-.06-6.18-.01-12.36-.02-18.54-.01,5.73,2.23,11.46,4.41,17.18,6.54-2.97,14.35-5.95,28.92-8.92,43.64l22.83-1.3c.45-2.17.91-4.34,1.36-6.5"/>
      <path class="cls-6" d="M179.3,76.72c-.94,5.69-1.88,11.4-2.81,17.13-5.98,3.73-11.96,7.54-17.93,11.41,5.48-.74,10.95-1.47,16.43-2.19.8-.11,1.6-.21,2.39-.32,16.38-2.16,32.76-4.25,49.13-6.27.98-5.66,1.96-11.3,2.95-16.92-9.55.98-19.09,1.98-28.64,3v-.05c-3.81.41-7.63.82-11.45,1.24,4.17-2.55,8.35-5.06,12.52-7.53.06-.36.12-.72.18-1.08.41-2.41.81-4.8,1.22-7.2l-22.75,1.3c-.41,2.49-.82,4.98-1.24,7.48"/>
      <g>
        <path class="cls-4" d="M145.08,13.19c-2.07,12.89-4.13,25.87-6.2,38.93-5.49.42-10.99.85-16.48,1.28,0-.02,0-.04.01-.06-3.88.31-7.76.62-11.63.93,4.24-2.66,8.48-5.29,12.71-7.88,1.7-10.94,3.41-21.83,5.11-32.65-1.68.06-3.35.12-5.03.18-5.82.21-11.64.43-17.47.66-5.96.23-11.92.47-17.87.72,5.52,2.64,11.04,5.25,16.56,7.8-2.57,16.82-5.15,33.79-7.72,50.9l22.34-1.28c.01-.09.03-.19.04-.28,5.49-.55,10.99-1.09,16.48-1.63-.05.32-.1.65-.15.97l22.36-1.28c3.14-19.54,6.29-38.89,9.43-58.01-7.5.21-15,.44-22.49.68"/>
        <path class="cls-6" d="M95.8,82.5c-1.13,7.5-2.25,15.02-3.38,22.57-5.73,3.95-11.47,7.96-17.2,12.04,5.25-.78,10.51-1.56,15.76-2.33,1.02-.15,2.04-.3,3.06-.45,6.48-.95,12.96-1.88,19.43-2.81,1.56-10.24,3.12-20.42,4.68-30.57.42-2.74.84-5.49,1.26-8.22l-22.34,1.28c-.43,2.83-.85,5.66-1.28,8.49"/>
        <path class="cls-6" d="M134.53,79.82c-1.53,9.75-3.05,19.53-4.58,29.37,7.5-1.05,15-2.08,22.5-3.1,1.48-9.32,2.96-18.59,4.44-27.82.42-2.59.83-5.17,1.25-7.75l-22.35,1.28c-.42,2.67-.84,5.35-1.26,8.02"/>
      </g>
      <path class="cls-6" d="M282.65,69.56c1.91,6.59,3.81,13.14,5.72,19.63,8.19-.92,16.39-1.83,24.59-2.72-2.25-6.11-4.51-12.31-6.76-18.54-.69-1.92-1.39-3.84-2.08-5.76l-23.22,1.33c.58,2.02,1.17,4.04,1.75,6.06"/>
      <path class="cls-6" d="M254.67,71.5c-.83,4.61-1.66,9.21-2.49,13.85-5.83,3.31-11.67,6.69-17.51,10.14,5.35-.65,10.69-1.3,16.04-1.93.93-.11,1.86-.22,2.79-.33,6.7-.8,13.4-1.58,20.1-2.35,1.29-7.02,2.59-14,3.88-20.95.39-2.1.78-4.19,1.17-6.29l-22.78,1.3c-.4,2.19-.79,4.37-1.19,6.57"/>
      <path class="cls-6" d="M357.04,67.87c-3.82.31-7.64.62-11.46.93,2.9-1.42,5.79-2.81,8.69-4.19,1.28-.61,2.56-1.24,3.83-1.85.26-1.24.52-2.47.77-3.71l-22.83,1.3c-.38,1.86-.75,3.72-1.13,5.59-.74,3.67-1.48,7.34-2.22,11.03-5.98,3.03-11.95,6.13-17.93,9.3,5.48-.59,10.95-1.18,16.43-1.75.8-.08,1.6-.17,2.4-.25,16.38-1.72,32.76-3.37,49.13-4.94.98-4.57,1.96-9.12,2.95-13.65-9.55.72-19.09,1.46-28.64,2.23,0-.01,0-.03,0-.04"/>
      <path class="cls-6" d="M531.08,141.98c-.73,4.5-1.46,9-2.2,13.52,7.47-.87,14.94-1.71,22.41-2.54.68-4.09,1.36-8.15,2.04-12.22l-22.26,1.25Z"/>
      <path class="cls-6" d="M201.89,165.61c-.71,2.56-1.42,5.11-2.12,7.68.03-2.5.06-5,.09-7.5.02-1.76.04-3.52.06-5.28l-19.88,1.11c.12,1.99.24,3.98.37,5.97.64,10.52,1.29,21.03,1.93,31.51-5.67,4.26-11.35,8.57-17.02,12.94,5.87-1.15,11.74-2.28,17.61-3.4.38-.07.77-.15,1.15-.22,8.35-1.6,16.7-3.17,25.04-4.72,3.54-13.38,7.09-26.63,10.63-39.77.41-1.54.83-3.07,1.24-4.6l-17.63.99c-.49,1.76-.98,3.51-1.46,5.28"/>
      <path class="cls-6" d="M245.65,161.53c-.39,1.61-.79,3.2-1.18,4.81-.08-1.56-.17-3.12-.25-4.68-.06-1.2-.13-2.41-.19-3.62l-18.06,1.01c.06,1.43.12,2.86.17,4.29.5,12.33.99,24.67,1.49,36.97,8.73-1.59,17.46-3.15,26.19-4.68,3.58-12.07,7.17-24.02,10.75-35.86.3-.98.59-1.95.89-2.92l-18.91,1.06c-.3,1.21-.59,2.41-.89,3.62"/>
      <path class="cls-6" d="M491.77,145.58c-1.82.2-3.65.39-5.47.59-.18.02-.3,0-.46,0-4.79.52-9.58,1.05-14.37,1.59,1.68-.92,3.36-1.81,5.04-2.72l-15.81.88c-.16,1.09-.33,2.18-.49,3.28-.51,3.42-.18,6.15.97,8.22-4.94,2.75-9.88,5.55-14.82,8.39,9.95-1.33,19.91-2.63,29.86-3.9,0,0,0-.01,0-.02.3-.03.58-.05.88-.09,6.43-.82,12.86-1.62,19.29-2.41,12.77-1.59,19.91-7.06,21.41-16.43.01-.08.03-.16.04-.23l-22.94,1.28c-.59.88-1.63,1.41-3.14,1.57"/>
      <path class="cls-4" d="M554.27,135.11c-7.47.66-14.94,1.35-22.41,2.05-.26,1.6-.52,3.22-.78,4.83l22.26-1.25c.31-1.88.63-3.76.94-5.63"/>
      <g>
        <path class="cls-4" d="M450.01,120.86c-10.12.88-20.29,1.8-30.51,2.75-.95,4.69-1.92,9.45-2.9,14.28,2.32-.26,4.63-.51,6.95-.76-.43,2.21-.87,4.44-1.3,6.69-.21,1.09-.42,2.18-.64,3.27l24.19-1.51c.24-1.38.47-2.76.7-4.14,1.19-6.99,2.35-13.85,3.5-20.57"/>
        <g>
          <path class="cls-6" d="M420.79,151.3c-.39,1.98-1.77,3.14-4.13,3.45-1.7.22-3.41.45-5.12.68-.08.01-.13,0-.21,0-5.21.69-10.43,1.39-15.67,2.1,4.56-2.63,9.09-5.2,13.58-7.73.14-.66.27-1.31.41-1.96l-24.52,1.53c-.67,2.87-1.34,5.74-2.02,8.66-.95,4.09-.87,7.36.19,9.83-5.75,3.38-11.56,6.84-17.43,10.38,11.37-1.82,22.65-3.59,33.86-5.32,0,0,0-.01,0-.02.27-.04.52-.06.79-.1,6.91-1.06,13.78-2.1,20.64-3.13,14.1-2.13,22.05-8.77,23.91-19.72.25-1.46.49-2.92.74-4.37l-24.19,1.51c-.27,1.4-.55,2.81-.82,4.22"/>
          <path class="cls-4" d="M410.23,144.99c2.84-13.66,5.58-26.82,8.23-39.47.37-1.76,1.66-2.72,3.88-2.87,1.59-.11,3.18-.21,4.78-.32,2.21-.15,3.14.65,2.8,2.38-.65,3.3-1.3,6.63-1.96,9.99,7.84-.64,15.65-1.26,23.44-1.85.64-3.77,1.28-7.49,1.92-11.17,1.61-9.32-3.93-13.62-16.62-13.03-6.15.3-12.32.6-18.5.92-.86.04-1.63.16-2.44.25,0-.04,0-.08,0-.12-11.81.62-23.68,1.27-35.61,1.98,6.21,2.14,12.45,4.26,18.71,6.35-1.59,2.14-2.78,4.64-3.48,7.6-3.14,13.36-6.4,27.3-9.78,41.78-.15.65-.3,1.3-.45,1.95l24.52-1.53c.2-.95.39-1.89.59-2.84"/>
        </g>
      </g>
      <path class="cls-4" d="M241.1,103c-7.43.7-14.86,1.43-22.28,2.16-5.16,18.13-10.31,36.54-15.47,55.16l17.64-.99c1.45-5.35,2.89-10.69,4.34-16,.21,5.25.42,10.48.63,15.72l18.07-1.01c-.97-18.3-1.95-36.65-2.92-55.05"/>
      <path class="cls-4" d="M200.58,107.02c-1.43.15-2.85.3-4.28.44-6.48.68-12.96,1.37-19.44,2.07-5.26.57-10.51,1.15-15.77,1.74,5.43,2.23,10.85,4.43,16.28,6.6.89,14.62,1.78,29.2,2.67,43.76l19.88-1.11c.22-17.84.44-35.68.66-53.5"/>
      <path class="cls-4" d="M260.65,101.19c-4.7,18.66-9.41,37.58-14.11,56.72l18.91-1.06c5.92-19.52,11.83-38.74,17.75-57.64-7.51.64-15.03,1.3-22.54,1.98"/>
      <path class="cls-4" d="M524.98,98.62c1.5-9.19-4.13-13.58-16.9-13.14-6.43.24-12.86.48-19.29.75-.92.04-1.74.15-2.6.24,0-.04-.01-.09-.02-.13-11.74.48-23.47,1.01-35.21,1.59,6.39,2.23,12.78,4.41,19.17,6.56-1.37,2.07-2.32,4.48-2.75,7.32-2,13.12-4,26.35-5.99,39.65-.22,1.49-.45,2.98-.67,4.47l15.81-.88c2.45-1.33,4.91-2.66,7.36-3.96.09-.58.18-1.16.27-1.74,1.87-12.14,3.74-24.21,5.61-36.2.26-1.71,1.48-2.62,3.66-2.74,1.82-.1,3.65-.2,5.47-.3,2.17-.12,3.13.66,2.86,2.35-1.88,11.85-3.75,23.79-5.63,35.79-.23,1.48-.46,2.96-.7,4.44-.08.52-.26.96-.52,1.34l22.94-1.28c.35-2.22.71-4.41,1.06-6.62,2.02-12.58,4.04-25.08,6.06-37.48"/>
      <path class="cls-4" d="M535.46,129.27c5.95-.5,11.9-.99,17.85-1.47l14.4-55.96-31.09.81-1.17,56.61Z"/>
      <path class="cls-1" d="M341.15,22.68c.19-.02-.39-.02-.58-.03-20.49-1.19-38.22.6-38.22.6,0,0,27.74.29,38.79-.57"/>
      <path class="cls-1" d="M338.73,20.2c.15-.01-.3-.02-.45-.03-15.96-.93-29.77.47-29.77.47,0,0,21.61.23,30.22-.45"/>
      <path class="cls-1" d="M594.15,89.86c.26-.02-.52-.03-.79-.04-27.86-1.48-51.93,1.07-51.93,1.07,0,0,37.71.22,52.72-1.03"/>
      <path class="cls-1" d="M606.23,86.32c.26-.02-.52-.03-.79-.04-27.86-1.48-51.93,1.07-51.93,1.07,0,0,37.71.22,52.72-1.03"/>
      <path class="cls-1" d="M588.14,146.87c.26-.03-.52,0-.79,0-27.89-.13-51.82,3.58-51.82,3.58,0,0,37.67-1.61,52.61-3.58"/>
      <path class="cls-1" d="M600.04,142.74c.26-.03-.53,0-.79,0-27.89-.13-51.82,3.58-51.82,3.58,0,0,37.67-1.61,52.61-3.58"/>
      <path class="cls-1" d="M361.16,174.96c.22-.04-.44.03-.67.04-23.63,1.5-43.68,6.04-43.68,6.04,0,0,31.81-3.54,44.35-6.08"/>
      <path class="cls-1" d="M373.86,170.58c.22-.04-.44.03-.67.04-23.63,1.5-43.68,6.04-43.68,6.04,0,0,31.81-3.54,44.35-6.08"/>
      <path class="cls-1" d="M192.34,182.93c.26-.05-.52.03-.79.05-27.84,1.76-51.46,7.1-51.46,7.1,0,0,37.48-4.17,52.24-7.15"/>
      <path class="cls-1" d="M203.94,178.01c.26-.05-.52.03-.79.05-27.84,1.76-51.46,7.1-51.46,7.1,0,0,37.48-4.17,52.24-7.15"/>
      <path class="cls-1" d="M108.27,103.11c.31-.05-.64.03-.96.04-33.95,1.41-62.83,6.61-62.83,6.61,0,0,45.74-3.76,63.79-6.65"/>
      <path class="cls-1" d="M104.9,99.3c.21-.03-.44.02-.65.03-23.13.96-42.81,4.5-42.81,4.5,0,0,31.16-2.56,43.46-4.53"/>
      <path class="cls-1" d="M417.01,74.19c.26-.03-.53,0-.79,0-27.89-.13-51.82,3.58-51.82,3.58,0,0,37.67-1.61,52.61-3.58"/>
      <path class="cls-1" d="M428.91,70.07c.26-.03-.52,0-.79,0-27.89-.13-51.82,3.58-51.82,3.58,0,0,37.67-1.61,52.61-3.58"/>
      <path class="cls-1" d="M469.17,98.55c.14-.02-.28,0-.43,0-15.11-.21-28.09,1.68-28.09,1.68,0,0,20.42-.68,28.52-1.68"/>
      <path class="cls-1" d="M460.56,96.74c.15-.02-.3,0-.45,0-16.09-.22-29.92,1.79-29.92,1.79,0,0,21.74-.73,30.37-1.79"/>
      <g>
        <path class="cls-6" d="M292.6,153.97c-1.76,7.92-3.57,16.04-5.42,24.37-7.04,4.36-14.17,8.85-21.4,13.46,6.39-1.07,12.76-2.12,19.11-3.15.92-.15,1.85-.3,2.77-.45,18.87-3.07,37.58-6.02,56.14-8.85.95-6.28,1.88-12.43,2.8-18.48-10.52,1.4-21.09,2.83-31.69,4.3,0-.02,0-.04.01-.06-4.26.59-8.52,1.18-12.79,1.79,4.73-2.88,9.42-5.7,14.07-8.47.43-2.23.85-4.44,1.27-6.64.05-.24.09-.48.14-.72l-24.66,1.3c-.12.53-.24,1.06-.36,1.6Z"/>
        <path class="cls-4" d="M344.17,142.48c.9-5.64,1.78-11.19,2.65-16.63-8.26.79-16.55,1.59-24.85,2.42,0,0,0-.01,0-.02-3.74.37-7.49.75-11.24,1.13,4.13-2.27,8.24-4.5,12.31-6.69.74-3.87,1.48-7.68,2.2-11.45,9.39-.77,18.75-1.51,28.09-2.22.79-5.06,1.56-10.02,2.32-14.91-11.16.67-22.34,1.38-33.54,2.12-5.62.37-11.25.76-16.88,1.15-6.23.43-12.46.88-18.71,1.34,5.66,1.97,11.36,3.92,17.09,5.85-3.39,15.11-6.94,31.02-10.68,47.79l24.66-1.3c.36-1.89.72-3.78,1.08-5.65,8.52-1,17.01-1.99,25.49-2.94Z"/>
      </g>
    </g>
    <g>
      <path class="cls-1" d="M648.16,201.31c-.43,1.11-.66,1.35-1.06,2.3,4.31-.64,8.28-1.05,12.5-1.76,0-.42.02-.84.03-1.25.37,0,.74-.03,1.11-.06.55-.05,1.12-.12,1.73-.22,5.83-.98,10.48-4.27,12.45-8.56l2.84,3.51c.18.22.38.43.61.62,1.07.93,3.16,1.95,7.06,1.63.55-.05,1.13-.12,1.73-.21,3.1-.5,6.11-1.54,8.49-2.93,3.35-1.99,5.36-4.54,5.81-7.43.37-2.4-.53-4.44-2.61-5.78-.48-.3-.99-.55-1.53-.75.48-.35.61-.42.86-.55.93-.52,1.87-1.03,2.8-1.55-.91-1.16-1.83-2.34-2.75-3.51,2.23-1.84,4.45-3.68,6.68-5.49-.7-.64-1.4-1.28-2.1-1.92-2.13-1.95-3.92-3.2-6.42-4.44-.76-.38-1.51-.76-2.27-1.14-1.23.96-2.46,1.95-3.69,2.92-.34-1.37-1.19-2.56-2.52-3.48-.48-.32-.99-.59-1.53-.81.48-.33.61-.4.86-.53.94-.49,1.87-.98,2.81-1.47-1.74-2.29-3.48-4.61-5.23-6.94-.94.38-1.88.77-2.82,1.15-.17.07-.25.1-1.14.23-2.42.37-5.27.72-7.61.94-1.26.12-2.06.17-2.84.18-.16,0-.32,0-.48,0-1.03,0-2.06-.01-3.1-.02-.19,2.03-.39,4.07-.58,6.11-.09,1.15-.18,2.3-.27,3.46-.51.32-.98.6-1.38.83-.37-1.2-1.04-2.28-1.98-3.16-1.76-1.64-4.35-2.52-7.3-2.46-.39,0-.8.03-1.22.08-.79.08-1.62.23-2.45.45.54-1.46,1.08-2.91,1.61-4.36-4.29.39-8.58.79-12.87,1.2-.04.93-.08,1.86-.12,2.79,0,.24-.01.37-.04.55,0,0-.04.32-.06.41-.29.04-.51.07-.61.08-.02,0-.18.01-.42.02.15-1.1.3-2.21.45-3.31-1.62.31-3.23.63-4.85.95-.86.17-1.79.3-3.02.43-.43.04-.85.09-1.28.13.17-.54.35-1.08.52-1.62-4.32.44-8.63.88-12.95,1.33.04.53.09,1.05.13,1.58-1.11.12-2.22.24-3.34.36-1.09.12-1.89.18-2.52.19-.12,0-.23,0-.34,0-.99,0-1.99,0-2.98-.01-.04.31-.08.61-.12.92-.29-.34-.59-.68-.93-1.01-.62-.61-1.23-1.22-1.85-1.84-1.2.59-2.4,1.18-3.6,1.78,0,0,0,0,0,0-.88.44-1.77.87-2.65,1.31-4.11.1-8.21.21-12.32.31-.13,1.04-.26,2.09-.38,3.13-.06.52-.33,1.57-.58,2.54-.64.13-1.24.25-1.74.35.07-.6.15-1.21.22-1.81-.86.21-1.72.43-2.57.64.36-1.49.73-2.97,1.09-4.46-1.79.35-3.59.7-5.38,1.05-.74.14-1.3.23-2.88.42-4.22.49-8.43.99-12.65,1.49-1.03.12-1.82.19-2.57.21-.15,0-.3,0-.45,0-.99,0-1.98,0-2.97,0-.18,1.58-.37,3.16-.55,4.75-.71.01-1.42.03-2.13.04-.44,3.8-.88,7.62-1.32,11.44.63-.16,1.26-.32,1.89-.48-.05.42-.1.84-.14,1.25-.33.21-.71.45-1.16.73-1.02.62-2.03,1.25-3.04,1.87-1.26-1.15-2.54-2.09-4.08-3.03-.76-.46-1.52-.93-2.29-1.39-.17.17-.33.34-.5.5-.15-.31-.29-.61-.44-.92-.4-.84-.79-1.56-1.22-2.22.21-3.4.26-5.84.47-9.23-2.61.47-27.07,4.7-27.53,4.74.05-.51.11-1.02.16-1.53-1.63.42-3.25.84-4.88,1.26-.61.16-1.26.3-2.37.45.19-.75.38-1.5.57-2.24-4.13.55-8.26,1.1-12.4,1.66,0,.55,0,1.11,0,1.66-2.33.32-4.67.64-7,.97.04,1.11.09,2.22.13,3.33.02.46,0,.94-.1,1.84-.02.23-.05.46-.07.69-.06,0-.12,0-.18,0-1.08.03-2.16.06-3.25.09-.08.82-.17,1.65-.25,2.47-.46.13-.92.26-1.39.4-.99.29-2.13.51-4.07.8-4.89.74-9.78,1.49-14.67,2.25-1.6.25-2.62.37-3.65.42-.63.02-1.26.04-1.88.06-.51-1.17-1.14-2.07-1.73-2.76-2.17-2.46-5.47-3.74-9.3-3.58-.58.02-1.17.08-1.76.17-4.57.68-8.75,3.12-11.78,6.92-.45.56-.85,1.15-1.24,1.75-.69.29-1.38.58-2.07.87-1.8-2.81-3.61-5.64-5.41-8.48-.85.47-1.71.95-2.56,1.42-.38.21-.57.3-1.82.6-1.71.43-5.78,1.24-7.91,1.58-1.31.21-1.72.25-2.31.28-1.14.04-2.29.08-3.43.12-.13,3.67-.27,7.35-.4,11.03-.39.09-.68.16-.88.19-.06.01-.17.03-.3.04-1.05.07-2.1.13-3.15.19-.06,5.03-.12,10.07-.19,15.12,1.6-.76,3.19-1.52,4.79-2.28.5-.23.99-.44,1.8-.72,0,3.7,1.83,6.79,4.89,8.02,1.47.54,3.03.72,4.93.56.77-.06,7.56-1.22,8.61-1.32.21-4.11.42-8.21.63-12.31.11-.02.22-.04.33-.06.4-.07.46-.08.9-.13.09-.01.17-.02.26-.03.35,2.12,1.09,3.94,2.21,5.3,1.5,1.82,3.57,2.72,5.83,2.54.27-.02.55-.06.83-.11.98-.18,1.86-.53,2.66-.98.22,1.04.44,2.07.66,3.11,1.16-.42,2.32-.84,3.48-1.25,4.2-1.5,6.74-3.08,9.08-5.6,1.84-1.97,3.28-4.43,4.23-7.1.7-.19,1.39-.39,2.09-.58,1.37-.38,2.58-.65,4.18-.92,4.89-.83,9.77-1.65,14.66-2.46,1.37-.23,2.44-.36,3.53-.44.57,1.28,2.89,9.4,3.05,10.67,1.16-.23,2.32-.46,3.48-.69,2.89-.57,5.2-1.26,7.53-2.26,3.7-1.64,7.11-4.05,9.87-6.98,0,0,0,0,.01-.01.68.36,1.37.71,2.05,1.07.57-.8,1.14-1.59,1.71-2.39,1.16-1.61,1.52-2.07,2.8-3.51,1.2-1.35,2.39-2.7,3.59-4.04-1-.37-2-.74-3-1.11.05-.51.11-1.02.16-1.53.75-.27,1.49-.54,2.24-.8.67-.24.89-.31,1.74-.53-.3.92-.5,1.86-.6,2.82-.54,5.08,1.72,8.87,6.25,10.36,1.94.61,10.03.62,11.03.67.63-2.78,1.26-5.53,1.88-8.3.5.35.99.71,1.49,1.06,2.07,1.47,3.2,2.56,4.67,4.47.1.13.2.26.3.39-.31,0-.53,0-.68-.02-1.09-.09-2.19-.17-3.28-.26-.5,3.99-.99,7.99-1.48,12,.31-.05.62-.11.92-.16-.21,1.73-.43,3.47-.64,5.2-.31.76-.52,1.56-.61,2.38-.31,2.8.72,4.54,1.64,5.49,1.52,1.59,3.8,2.24,6.76,1.94.52-.05,1.07-.13,1.63-.25,3.69-.73,6.47-2.29,8.04-4.5.29.21.38.31.74.66.99.98,1.99,1.95,2.98,2.92,2.33-3.65,4.66-7.27,6.99-10.85.44.06.88.12,1.31.18.04.78,0,1.33-.14,2.55-.13,1.14-.27,2.29-.4,3.43,1.15.06,2.31.13,3.46.19,1.49.08,3,.05,4.5-.1.93-.09,1.87-.23,2.8-.4,4.83-.92,8.7-2.89,11.15-5.51,3.02,1.02,6.04,2.04,9.05,3.02.39-.76.78-1.52,1.17-2.27,1.32.1,2.37.1,3.4,0,.46-.04.91-.1,1.38-.19,1.22-.22,2.3-.6,3.23-1.13.04-.03.09-.05.13-.08,1.15-.72,2.21-1.7,2.91-2.73.39-.58.76-1.26,1.1-2,1.34-.78,2.69-1.53,4.03-2.3.43.57,2.69,5.7,2.94,6.73,1.12-.29,2.24-.57,3.36-.85,4.37-1.11,7.23-2.12,10.64-3.79,2.64.46,5.51.53,9.68.28.74-.04,1.48-.09,2.22-.13.29-.62,1.51-3.08,1.78-3.56l1.45-.32Z"/>
      <g>
        <g>
          <path class="cls-1" d="M411.72,190.75c.87-.02,1.38-.08,2.73-.3,2.27-.37,5.91-1.1,7.78-1.58,1.41-.34,2.04-.56,2.68-.93.56.88,1.12,1.76,1.68,2.64-.67.61-.81.74-1.8,1.85-2.09,2.31-4.14,4.39-6.94,7.01,1.96-.57,4.23-1.2,6.39-1.74,1.46-.37,2.5-.63,2.86-.72.86-.23,1.46-.39,1.62-.42.42-.13.52-.15.92-.33-.07,1.39-.13,2.79-.2,4.18q-.41.04-.82.11c-3.2.55-5.38,1.35-7.38,2.67-2.06,1.37-3.49,3.23-3.62,4.73-.16,1.78,1.39,2.38,4.49,1.81.98-.18,1.71-.4,2.81-.81-.08,1.5-.17,2.99-.25,4.49-.31.03-.36.04-.64.09q-.26.05-1.84.41c-.21.04-.39.07-.49.09-1.16.22-2.69.33-3.78.27-2.83-.14-4.44-2.08-4.18-4.99.13-1.45.59-2.73,1.52-4.03.58-.88,1.06-1.38,2.13-2.28-.42.16-1.42.49-3.01.98q-1.49.5-2.38.78c-.78.23-2.04.66-3.74,1.24-.39.13-.71.28-1.37.55.02-1.45.03-2.91.05-4.36.23-.01.39-.04.51-.06.98-.17,2.94-.73,4.8-1.38,2.34-1.99,4.46-4.14,7.8-7.94-1.47.45-1.99.59-6.56,1.65-1.06.24-1.25.3-1.93.53.06-1.41.11-2.82.17-4.23Z"/>
          <path class="cls-1" d="M444.48,201.77c-1.79,3.96-3.65,6.01-5.87,6.41-3.2.59-5.15-2.58-4.69-7.67.31-3.37,1.59-6.61,3.69-9.23,2.48-3.12,5.79-5.07,9.49-5.64,6.49-.99,10.22,2.68,9.58,9.39-.5,5.23-3.23,9.7-7.54,12.28-1.29.78-2.35,1.26-4.22,1.94-.37-1.74-.66-2.47-1.53-3.81,2.32-.61,3.96-1.36,5.24-2.3,2.35-1.76,3.94-4.68,4.23-7.73.24-2.57-.56-4.57-2.2-5.59-.7-.43-1.3-.56-2.32-.54-.96,4.86-2.23,8.88-3.89,12.5ZM441.35,191.88c-2.12,2.04-3.6,5.1-3.87,8.04-.2,2.21.46,3.86,1.47,3.68.75-.13,1.66-1.42,2.7-3.93,1.2-2.77,2.34-6.58,2.94-9.74-1.26.37-2.15.92-3.24,1.96Z"/>
          <path class="cls-5" d="M484.02,192.25c-1.35.05-2.59.19-4.17.45-5,.8-10,1.62-14.99,2.44-1.5.25-2.82.52-4.21.92.14-1.46.28-2.92.42-4.37,1.28-.04,2.41-.16,4.17-.44,5-.8,10-1.59,15-2.37,1.86-.29,3.13-.54,4.21-.87-.14,1.42-.28,2.83-.43,4.25Z"/>
          <path class="cls-5" d="M496.16,189.01c-2.1,3.13-3.98,5.16-6.91,7.47-.55-.86-1.05-1.43-2.05-2.33,2.85-2.02,4.84-4.04,6.22-6.41.92.43,1.83.85,2.75,1.28ZM506.75,192.43q-.43.41-1.28,1.35c-2.35,2.51-4.99,4.53-7.97,6.05-2.2,1.13-4.54,1.9-7.99,2.66-.21-1.4-.44-2.18-1.02-3.5.72-.07,1.08-.13,1.39-.18,3.82-.64,7.13-1.95,10.09-3.99,1.86-1.29,3.37-2.82,4.32-4.38.82.66,1.64,1.32,2.46,1.98ZM508.89,182.21c1.27-.18,2.05-.35,2.97-.59-.12,1.15-.24,2.3-.37,3.46-.87.02-1.74.1-2.93.28-2.29.34-4.59.69-6.88,1.04-.17,1.66-.34,3.31-.52,4.97-.13,1.31-.69,2.2-1.73,2.74-.67.35-1.61.61-3.24.87,0,0-.44.07-1.26.18-.04-1.34-.14-2.05-.51-3.21.86,0,1.64-.07,2.41-.19.83-.13,1.05-.27,1.09-.68.14-1.39.29-2.79.43-4.18-2.4.36-4.79.73-7.19,1.1-1.27.2-2.15.39-3.04.63.12-1.19.24-2.38.36-3.56.87-.02,1.74-.1,3.01-.29.23-.03.47-.07.7-.1.12-1.22.25-2.43.37-3.65.1-1.01.14-1.64.12-2.39,1.2-.17,2.4-.34,3.6-.51-.18.75-.27,1.38-.38,2.42-.12,1.21-.25,2.42-.37,3.63,1.1-.16,2.19-.33,3.29-.49.18-1.74.36-3.48.54-5.22.11-1.09.15-1.9.11-2.56,1.23-.17,2.47-.34,3.7-.51-.15.66-.27,1.32-.36,2.26,0,.09-.02.18-.03.27,1.67-.24,3.35-.47,5.02-.7,1.24-.17,2-.33,2.81-.55-.12,1.12-.24,2.23-.35,3.35-.77,0-1.41.07-2.78.27-1.67.24-3.35.48-5.02.72-.08.72-.15,1.44-.23,2.17,2.22-.33,4.45-.65,6.68-.98ZM505.96,185.85c1.15,1.64,3.26,3.14,5.61,3.99-1.1,1.23-1.5,1.74-2.58,3.21-2.22-1.1-4.18-2.79-5.83-5.02.93-.73,1.87-1.46,2.8-2.18Z"/>
          <path class="cls-1" d="M516.54,176.91c.59-.06.91-.1,1.01-.11.49-.07.65-.09,4.35-.83,1.8-.37,6.28-1.19,13.43-2.45,2.29-.4,2.45-.45,2.93-.61-.08,1.31-.16,2.62-.24,3.93-.31.02-.39.03-.62.06-1.68.23-3.85,1.11-5.69,2.35-3.11,2.08-5.13,4.78-5.4,7.18-.21,1.95.82,3.19,2.93,3.48,1.15.16,2.8.16,3.76.01.15-.02.34-.05.65-.13-.34,1.44-.67,2.88-1.01,4.32-.33-.02-.43,0-.89.01-2.86.12-4.62-.03-6.08-.63-2.54-.99-3.68-3.09-3.36-6.1.39-3.57,2.56-6.75,6.39-9.34-2.62.65-2.73.69-8.55,1.95-1.43.31-2.85.69-3.86,1.02.08-1.37.16-2.73.23-4.09ZM533.58,183.54c-.49-1.37-.97-2.24-1.75-3.32.77-.43,1.54-.87,2.31-1.3.79.97,1.26,1.77,1.78,3.2-.78.47-1.56.94-2.35,1.41ZM536.77,181.67c-.49-1.28-.96-2.16-1.71-3.18.75-.41,1.5-.82,2.25-1.23.83.98,1.13,1.5,1.78,3.01-.77.47-1.55.93-2.32,1.4Z"/>
          <path class="cls-1" d="M544.29,184.77c2.25,1.46,3.64,2.69,5.45,4.85-1.14,1.12-2.27,2.24-3.41,3.37-1.63-2.22-2.98-3.53-5.17-5.1,1.04-1.05,2.08-2.09,3.12-3.12Z"/>
          <path class="cls-5" d="M577.42,175.18c-.16,1.35-.2,1.88-.19,2.63-.59.03-1.18.09-2.55.27-2.99.4-5.97.81-8.96,1.22-.4.62-.62.94-1.14,1.68,3.61-.51,7.21-1.01,10.82-1.5,1.22-.17,1.79-.27,2.34-.42-.11.5-.22,1.19-.36,2.32-.17,1.4-.34,2.8-.51,4.2-.14,1.21-.19,2.01-.21,2.79-1.15.17-2.29.34-3.44.52.04-.36.09-.73.13-1.09-3.27.49-6.54.98-9.8,1.48-.04.36-.08.72-.13,1.08-1.13.17-2.26.35-3.39.52.17-.82.33-1.71.45-2.79.11-.93.22-1.86.33-2.79-1.23,1.22-2.28,2.12-3.93,3.41-.46-1.07-.92-1.78-1.65-2.64,2.17-1.39,3.09-2.12,4.53-3.51,1.01-1.01,1.69-1.8,2.36-2.75-.32.04-.64.09-.96.13-1.32.18-2,.3-2.94.51.12-1.02.24-2.03.35-3.05.84.01,1.61-.07,2.91-.25.79-.11,1.57-.21,2.36-.32.28-.63.42-.96.68-1.64-1.55.2-3.09.41-4.64.62-1.22.16-2.08.33-2.99.55.12-1.04.24-2.08.36-3.12.92-.02,1.69-.07,2.96-.24,1.74-.22,3.47-.45,5.21-.67.15-.61.21-.86.34-1.54-1.07.13-2.14.27-3.21.4-1.27.16-2.05.29-2.91.47.12-1.02.24-2.04.36-3.06.95-.02,1.93-.09,3.17-.24,4.17-.51,8.34-1.02,12.51-1.51,1.53-.18,2.18-.28,2.94-.45-.2.79-.29,1.31-.45,2.65-.07.56-.14,1.12-.21,1.69.22-.03.43-.05.65-.08,1.04-.13,1.64-.25,2.35-.43-.12,1.01-.25,2.01-.37,3.02-.74,0-1.35.03-2.34.16-.21.03-.41.05-.62.08-.07.56-.14,1.13-.21,1.69ZM563.89,186.43c3.28-.48,6.55-.96,9.83-1.44.1-.85.2-1.7.3-2.54-3.28.46-6.56.93-9.83,1.4-.1.86-.2,1.72-.3,2.58ZM567.86,174.76c-.23.67-.37.98-.65,1.63,2.3-.31,4.61-.61,6.91-.92.06-.52.12-1.03.19-1.55-2.15.28-4.3.56-6.45.84ZM574.64,171.17c.06-.5.12-1,.18-1.5-1.93.24-3.85.48-5.78.72-.14.75-.18.9-.34,1.53,1.98-.25,3.95-.5,5.93-.75Z"/>
          <path class="cls-1" d="M584.4,171.27c.05,0,.11-.01.16-.02.78-.1,3.92-.75,5.26-1.1.78-2.58,1.14-4.01,1.25-4.93,0-.07.02-.19.02-.36,1.32-.03,2.65-.07,3.97-.1-.11.25-.19.44-.27.71-.04.1-.37,1.15-.98,3.15-.17.51-.17.54-.28.83.62-.1.99-.17,1.38-.21,1.84-.22,3.13.07,3.87.89.76.87.95,1.98.66,4.22-.54,4.25-1.73,7.67-3.22,9.18-.87.9-1.74,1.31-3.16,1.51-1.11.16-2.18.13-3.87-.1.12-.54.14-.73.19-1.1.1-.85.1-1.44-.02-2.54,1.25.35,2.71.52,3.56.4.65-.09,1.08-.53,1.51-1.53.53-1.2,1.16-3.73,1.38-5.55.14-1.15.04-1.74-.38-2.07-.3-.27-.7-.31-1.63-.19-.44.06-.73.12-1.3.24-1.39,4.02-3.27,7.87-6.26,12.93-.29.5-.32.55-.52.89-1.12-.43-2.25-.87-3.37-1.3,2.02-2.43,4.82-7.62,6.41-11.78-1.87.48-3.66.99-4.44,1.29.03-1.12.05-2.23.08-3.35ZM602.32,164.33c.9.92,1.4,1.63,1.99,2.83-.8.43-1.59.87-2.39,1.3-.55-1.12-1.26-2.18-2-2.91.8-.41,1.6-.82,2.4-1.23ZM604.37,167.87c1.69,2.37,2.55,4.55,3.08,7.6-1.26.68-2.52,1.36-3.78,2.05-.19-1.9-.52-3.3-1.23-5.09-.56-1.42-.84-1.99-1.43-2.8,1.12-.59,2.24-1.17,3.36-1.75ZM605.59,162.74c.82.79,1.47,1.66,2,2.71-.79.44-1.58.87-2.36,1.31-.6-1.13-1.18-1.97-1.96-2.81.78-.4,1.55-.81,2.33-1.21Z"/>
          <path class="cls-1" d="M630.55,173.18c-.43.37-.55.47-1.01.89-1.53,1.33-2.7,2.27-4.28,3.42,2.55.36,4.66.33,8.56-.09-.92,1.16-1.5,2.09-2.04,3.23-4.44.11-7.37-.18-10.06-.97-3.56,1.77-6.46,2.77-11.2,3.83-.33-1.15-.63-1.78-1.26-2.66,3.86-.53,6.36-1.17,9.4-2.44-.83-.46-1.25-.77-1.91-1.32-1.38.8-2.35,1.27-4.12,1.96-.41-.93-.78-1.41-1.59-2.25,2.36-.75,4.04-1.54,5.96-2.76,1.78-1.11,2.67-1.88,3.45-2.97.98.18,1.96.35,2.94.52-.39.43-.45.48-.89.94,1.39-.17,2.78-.34,4.17-.51,1.11-.14,1.77-.26,2.25-.41.55.53,1.1,1.06,1.65,1.58ZM618.3,166.95c-.86,1.35-1.36,2-2.32,3.07-.93,1.07-1.51,1.6-2.8,2.7-.24-.15-.4-.27-.51-.37q-.72-.53-1.84-1.13c1.19-.9,1.73-1.38,2.5-2.14,1.03-1.04,1.53-1.71,2.25-2.98.91.28,1.81.57,2.72.85ZM614.75,165.98c-1.32.15-2.05.26-2.92.47.13-.98.25-1.95.38-2.93.76,0,1.69-.05,3.14-.21,2.19-.24,4.37-.48,6.56-.72.02-.12.03-.24.05-.37.08-.57.1-.96.08-1.38,1.28-.14,2.56-.27,3.84-.41-.17.47-.24.81-.31,1.38-.02.13-.03.26-.05.39,2.21-.24,4.43-.48,6.64-.71,1.35-.14,2.39-.3,3.26-.48-.13.94-.26,1.88-.39,2.83-.92.01-1.82.07-3.12.21-1.28.14-2.56.28-3.84.42-.2,1.47-.4,2.94-.59,4.41-.12.89-.47,1.4-1.18,1.73-.52.24-.99.34-2.36.51-.49.06-.75.09-1.32.14-.04-1.03-.19-1.65-.58-2.5.71,0,1.25-.01,1.82-.08.44-.05.55-.13.6-.45.15-1.14.3-2.27.46-3.4-.67.08-1.35.15-2.02.23-.33,1.93-.8,3.16-1.63,4.39-.82,1.18-2.07,2.33-3.79,3.43-.82-.74-1.38-1.15-2.21-1.6,1.79-.99,2.76-1.79,3.41-2.87.55-.91.85-1.78,1.01-3-1.64.19-3.28.37-4.92.56ZM619.34,175.27c.77.56,1.62,1.02,2.69,1.42,1.3-.76,2-1.28,3.18-2.28-1.9.24-3.8.48-5.7.73-.06.05-.11.09-.17.14ZM630.58,164.66c1.53,1.14,2.64,2.19,4.01,3.7-1.02.72-2.05,1.44-3.07,2.16-1.11-1.8-1.79-2.59-3.64-4.19.9-.56,1.8-1.11,2.7-1.67Z"/>
          <path class="cls-1" d="M637.37,172.51c.64-.43,1.59-1.2,5.18-4.11.09-.67.11-.78.47-2.85-2.95.51-3.09.54-3.88.74.07-.98.14-1.96.2-2.95.41-.02.62-.05.88-.07.7-.08,1.98-.26,3.28-.46.13-.54.16-.76.29-1.69.04-.29.11-.58.14-.84.01-.09.02-.15.02-.18.05-.35.05-.53.07-1.01,1.31-.13,2.63-.25,3.94-.38-.44,1.28-.63,2.12-.81,3.4.47.33.93.65,1.39.98-.68.49-1.26,1-1.95,1.73-.04.09-.05.16-.05.2-.01.09-.02.13-.03.18-.01.08-.02.16-.03.24,0,.07-.02.13-.06.25,3.06-2.19,5.54-3.22,8.28-3.51,1.89-.2,3.77.27,4.9,1.25,1.21,1.02,1.72,2.58,1.44,4.48-.31,2.14-1.55,4.22-3.42,5.71-1.72,1.37-4.04,2.29-6.63,2.62-1.29.17-2.42.18-3.69.04.17-1.44.15-2-.11-3.25,1.74.28,2.91.33,4.3.16,3.11-.39,5.4-2.36,5.77-4.94.31-2.15-1.1-3.32-3.64-3.04-1.27.14-2.54.62-4.31,1.63-1.3.75-2.1,1.3-3.39,2.34q-.23,1.66-.3,2.15c-.41,2.95-.71,5.85-.76,6.9-1.33.17-2.66.33-3.98.5.22-.69.33-1.32.63-3.46.08-.6.17-1.21.25-1.81.09-.65.17-1.03.23-1.3q-1.02.96-2.1,1.95c-.44.41-.82.81-1.21,1.23-.44-.94-.88-1.89-1.32-2.83Z"/>
          <path class="cls-1" d="M670.42,157.32c.95.01,1.79-.03,3.35-.17,2.23-.21,5.46-.62,7.9-.99,1.02-.16,1.34-.23,1.81-.43.5.66,1.01,1.32,1.51,1.98-.58.3-.61.3-2.85,1.93-2.99,2.21-3.9,2.84-6.18,4.26,1.53-.52,2.85-.8,4.36-.95,2.2-.23,3.95.06,5.2.85,1.14.72,1.59,1.79,1.37,3.24-.31,2.01-1.77,3.77-4.27,5.13-1.86,1.02-4.21,1.75-6.69,2.05-2.26.28-4.11.13-5.1-.41-.92-.49-1.35-1.37-1.2-2.41.27-1.84,2.5-3.45,5.24-3.76,1.84-.21,3.38.22,4.31,1.19.44.44.66.85.92,1.67,1.93-.82,2.8-1.7,3-3.02.23-1.52-1.54-2.29-4.52-1.97-3.81.41-7.54,2-11.1,4.76-.56-.84-1.11-1.68-1.67-2.53,2.58-1.25,8.52-5.38,12.62-8.68-2.15.36-2.59.42-6.43.95-.84.13-1.07.15-1.86.31.1-1,.19-2,.29-3ZM674.48,170.02c-.78.09-1.35.49-1.42,1-.11.74.81,1.05,2.5.85.39-.05.49-.06,1.1-.24-.2-1.2-.96-1.75-2.18-1.61Z"/>
          <path class="cls-1" d="M694.53,165.67c2.23,1.19,3.61,2.17,5.4,3.91-1.15.88-2.3,1.77-3.44,2.66-1.61-1.78-2.94-2.83-5.12-4.1,1.05-.83,2.11-1.65,3.16-2.46Z"/>
          <path class="cls-5" d="M559.6,215.29c-.45-.46-.57-.56-1.08-.94-1.33-.95-2.91-1.73-4.31-2.07,0,.18-.01.33-.02.4-.34,2.94-2.45,4.72-6.58,5.52-3.92.76-5.97-.4-5.66-3.22.32-2.92,3.28-5.16,7.88-5.98.44-.08.75-.11,1.29-.18.06-.68.12-1.36.18-2.04-.72.13-1.73.33-2.28.43-1.68.3-2.55.43-4.89.72-.36.04-.59.08-1.03.16.13-1.11.26-2.21.39-3.32,1.11.06,3.54-.21,5.95-.63.54-.09,1.45-.25,2.15-.4.05-.49.1-.99.14-1.48.03-.28.05-.49.07-.64-.67.14-.99.19-1.37.26-.98.17-3.17.46-6.51.86-.31.03-.54.07-.64.08-.08.01-.23.04-.42.1.15-1.15.29-2.3.44-3.45,1.38.13,4.02-.11,7.02-.61.31-.05,1.11-.21,1.79-.35.22-1.92.22-2.12.19-2.99,1.3-.21,2.6-.42,3.9-.63-.24.73-.26.94-.54,2.9,3.51-.75,5.69-1.38,7.52-2.12-.09,1.09-.19,2.19-.28,3.28q-.62.13-2.17.58c-2.05.59-3.69,1.01-5.46,1.39-.09.99-.17,1.68-.21,2.08,3.07-.7,5.17-1.3,6.9-2.02-.09,1.1-.19,2.19-.28,3.29q-.21.04-.55.14c-.05,0-.21.06-.44.1q-.37.11-1.94.53c-1.25.34-2.95.76-3.99,1-.13,1.37-.18,2.26-.23,2.64,2.35.28,4.02.85,6.67,2.26.38.2.52.28.89.43-.83,1.29-1.66,2.59-2.49,3.89ZM548.91,212.2c-1.81.33-2.98,1.11-3.08,2.04-.09.8.76,1.12,2.28.84,1.75-.33,2.46-.99,2.63-2.48.02-.21.03-.51.03-.51-.73-.04-1.14-.02-1.86.12Z"/>
          <path class="cls-5" d="M569.86,195.89c1.13.09,2.98-.09,5.53-.47.7-2.08.97-2.99,1.14-4.01,1.35-.11,2.7-.22,4.05-.33-.07.2-.52,1.4-1.38,3.69,4.57-.87,8.08-1.78,9.9-2.54-.09,1.16-.18,2.31-.27,3.47q-.73.16-3.32.82c-2.59.66-4.65,1.11-7.58,1.66-.68,1.68-1.49,3.32-2.29,4.72,1.95-1.25,3.86-1.98,6.26-2.39,4.73-.78,7.26.65,6.86,3.91-.46,3.74-4.57,6.86-10.51,7.96-2.27.42-4.51.54-6.51.37.19-1.6.21-2.21.08-3.66,2.36.36,4.56.35,6.68-.03,3.62-.65,6.05-2.19,6.27-3.97.16-1.35-1.19-1.86-3.72-1.42-1.99.34-3.87,1.05-5.59,2.13-.98.61-1.43.98-1.94,1.68-1.19-.18-2.39-.36-3.58-.54,1.15-1.65,3.29-5.75,4.26-8.19q-.28.05-1.14.19c-.26.04-.41.04-2.56.25-.39.04-.64.08-.85.12-.05,0-.13.02-.23.04.15-1.15.31-2.3.46-3.45Z"/>
          <path class="cls-1" d="M595.52,194.44c.05,0,.1-.02.16-.02.78-.12,3.91-.87,5.25-1.27.78-2.58,1.14-4,1.25-4.91,0-.07.02-.19.02-.35,1.32-.08,2.64-.16,3.96-.24-.11.25-.18.45-.27.71-.04.1-.37,1.14-.98,3.14-.17.51-.17.54-.28.83.62-.12.99-.2,1.38-.26,1.84-.28,3.12-.04,3.86.75.76.83.94,1.93.66,4.14-.54,4.22-1.74,7.64-3.22,9.17-.87.92-1.73,1.35-3.16,1.6-1.11.2-2.17.2-3.87.03.12-.54.14-.73.19-1.09.11-.84.1-1.43-.02-2.51,1.25.3,2.7.42,3.55.28.65-.11,1.08-.56,1.51-1.56.53-1.21,1.16-3.73,1.38-5.53.14-1.14.04-1.72-.38-2.03-.3-.25-.7-.28-1.63-.14-.44.07-.73.14-1.3.28-1.39,4.02-3.27,7.88-6.25,12.98-.29.5-.32.55-.51.89-1.12-.39-2.24-.78-3.37-1.17,2.02-2.47,4.82-7.69,6.4-11.85-1.86.53-3.66,1.11-4.43,1.42.03-1.11.06-2.21.08-3.31ZM613.42,186.98c.9.88,1.4,1.56,1.98,2.73-.79.45-1.59.91-2.38,1.37-.54-1.09-1.25-2.11-2-2.8.8-.43,1.6-.87,2.4-1.3ZM615.46,190.41c1.68,2.28,2.54,4.41,3.07,7.4-1.26.71-2.51,1.43-3.77,2.15-.19-1.87-.52-3.24-1.23-4.99-.56-1.38-.84-1.94-1.42-2.72,1.12-.62,2.24-1.23,3.36-1.84ZM616.68,185.29c.82.75,1.47,1.59,2,2.6-.79.46-1.57.92-2.36,1.38-.59-1.1-1.17-1.91-1.96-2.71.77-.43,1.55-.85,2.32-1.27Z"/>
          <path class="cls-1" d="M641.58,194.75c-.43.38-.55.48-1.01.91-1.53,1.37-2.69,2.33-4.27,3.52,2.54.27,4.65.16,8.54-.39-.92,1.18-1.5,2.11-2.04,3.26-4.43.26-7.36.07-10.04-.61-3.56,1.87-6.46,2.96-11.18,4.17-.33-1.12-.63-1.73-1.25-2.58,3.85-.66,6.34-1.37,9.38-2.73-.83-.42-1.25-.71-1.91-1.23-1.37.83-2.35,1.33-4.12,2.08-.41-.91-.78-1.37-1.59-2.16,2.36-.82,4.04-1.66,5.95-2.93,1.77-1.16,2.67-1.95,3.44-3.05.98.14,1.95.28,2.93.41-.39.44-.45.49-.89.96,1.39-.22,2.78-.43,4.16-.65,1.11-.17,1.76-.32,2.24-.48.55.5,1.09,1.01,1.64,1.51ZM629.36,189.02c-.87,1.36-1.36,2.02-2.32,3.11-.93,1.09-1.51,1.63-2.8,2.76-.24-.14-.4-.25-.51-.35q-.72-.5-1.84-1.05c1.19-.93,1.73-1.42,2.49-2.2,1.03-1.06,1.52-1.74,2.25-3.02.91.25,1.81.5,2.72.74ZM625.82,188.18c-1.32.19-2.05.32-2.92.57.13-.97.26-1.94.38-2.9.76-.02,1.69-.11,3.14-.32,2.18-.31,4.36-.62,6.55-.93.02-.12.03-.24.05-.36.08-.57.1-.95.08-1.37,1.28-.18,2.55-.35,3.83-.53-.16.47-.24.81-.31,1.37-.02.13-.04.26-.05.38,2.21-.31,4.42-.62,6.63-.93,1.34-.19,2.39-.37,3.25-.58-.13.93-.26,1.87-.39,2.8-.92.04-1.82.13-3.11.31-1.28.18-2.55.37-3.83.55-.2,1.46-.4,2.91-.6,4.37-.12.88-.47,1.4-1.17,1.75-.52.26-.99.37-2.36.59-.49.08-.75.12-1.32.18-.04-1.02-.19-1.62-.58-2.45.71-.02,1.25-.05,1.82-.14.44-.07.55-.15.6-.47.15-1.13.3-2.25.46-3.37-.67.1-1.35.2-2.02.29-.34,1.92-.81,3.14-1.63,4.39-.82,1.2-2.07,2.37-3.79,3.52-.82-.7-1.37-1.09-2.21-1.5,1.79-1.04,2.75-1.86,3.41-2.95.55-.91.85-1.78,1.01-2.99-1.64.24-3.28.48-4.92.72ZM630.4,197.19c.76.53,1.62.95,2.68,1.31,1.3-.79,2-1.33,3.18-2.36-1.9.3-3.79.61-5.69.91-.06.05-.11.09-.17.14ZM641.62,186.34c1.53,1.08,2.63,2.08,4,3.51-1.02.74-2.05,1.49-3.07,2.24-1.1-1.74-1.79-2.5-3.63-4.01.9-.58,1.8-1.16,2.7-1.74Z"/>
          <path class="cls-1" d="M648.39,193.85c.64-.45,1.59-1.24,5.17-4.24.09-.66.11-.77.47-2.83-2.95.6-3.08.64-3.87.87.07-.97.14-1.94.21-2.91.41-.04.62-.07.88-.1.7-.1,1.97-.32,3.28-.57.13-.53.16-.75.29-1.68.04-.28.11-.57.14-.84.01-.09.02-.15.02-.18.05-.35.05-.52.07-1,1.31-.17,2.62-.34,3.93-.5-.44,1.28-.63,2.12-.81,3.38.46.31.93.61,1.39.92-.68.5-1.26,1.03-1.95,1.77-.04.09-.05.16-.05.2-.01.09-.02.13-.02.17-.01.08-.02.16-.03.24,0,.07-.02.13-.06.24,3.06-2.26,5.53-3.37,8.27-3.75,1.89-.26,3.76.14,4.89,1.07,1.2.96,1.72,2.48,1.44,4.37-.31,2.12-1.55,4.22-3.42,5.75-1.72,1.41-4.04,2.4-6.62,2.81-1.29.21-2.41.26-3.69.16.17-1.42.15-1.98-.1-3.2,1.74.22,2.9.23,4.3.01,3.1-.49,5.39-2.51,5.77-5.07.31-2.13-1.1-3.24-3.64-2.87-1.27.18-2.54.7-4.31,1.75-1.3.79-2.09,1.36-3.38,2.43q-.23,1.65-.3,2.13c-.41,2.92-.72,5.79-.76,6.84-1.33.21-2.65.42-3.98.63.22-.69.33-1.31.63-3.44.08-.6.17-1.2.25-1.79.09-.64.17-1.02.23-1.29q-1.02.98-2.1,2c-.44.42-.82.83-1.21,1.26-.44-.92-.87-1.83-1.31-2.75Z"/>
          <path class="cls-1" d="M681.39,177.73c.94-.02,1.79-.09,3.35-.29,2.22-.29,5.45-.8,7.88-1.25,1.02-.19,1.34-.27,1.8-.49.5.64,1,1.27,1.51,1.9-.58.32-.61.32-2.85,2-2.99,2.28-3.9,2.93-6.18,4.41,1.53-.56,2.85-.88,4.35-1.09,2.2-.3,3.94-.07,5.19.66,1.14.67,1.58,1.71,1.36,3.14-.31,1.99-1.78,3.77-4.27,5.21-1.86,1.07-4.2,1.87-6.68,2.25-2.25.35-4.11.27-5.09-.23-.92-.46-1.35-1.3-1.19-2.34.27-1.82,2.49-3.49,5.24-3.89,1.84-.27,3.37.1,4.3,1.03.44.42.66.82.92,1.61,1.93-.88,2.8-1.77,3-3.08.23-1.51-1.54-2.21-4.51-1.79-3.81.54-7.53,2.23-11.09,5.07-.55-.81-1.11-1.62-1.66-2.43,2.57-1.32,8.51-5.59,12.61-8.99-2.15.42-2.59.5-6.42,1.15-.84.15-1.07.18-1.86.37.1-.99.2-1.98.29-2.97ZM685.43,190.12c-.78.12-1.34.53-1.42,1.04-.11.74.81,1.01,2.49.75.39-.06.49-.08,1.1-.27-.2-1.17-.96-1.7-2.17-1.52Z"/>
        </g>
        <g>
          <path class="cls-2" d="M411.72,190.75c.87-.02,1.38-.08,2.73-.3,2.27-.37,5.91-1.1,7.78-1.58,1.41-.34,2.04-.56,2.68-.93.56.88,1.12,1.76,1.68,2.64-.67.61-.81.74-1.8,1.85-2.09,2.31-4.14,4.39-6.94,7.01,1.96-.57,4.23-1.2,6.39-1.74,1.46-.37,2.5-.63,2.86-.72.86-.23,1.46-.39,1.62-.42.42-.13.52-.15.92-.33-.07,1.39-.13,2.79-.2,4.18q-.41.04-.82.11c-3.2.55-5.38,1.35-7.38,2.67-2.06,1.37-3.49,3.23-3.62,4.73-.16,1.78,1.39,2.38,4.49,1.81.98-.18,1.71-.4,2.81-.81-.08,1.5-.17,2.99-.25,4.49-.31.03-.36.04-.64.09q-.26.05-1.84.41c-.21.04-.39.07-.49.09-1.16.22-2.69.33-3.78.27-2.83-.14-4.44-2.08-4.18-4.99.13-1.45.59-2.73,1.52-4.03.58-.88,1.06-1.38,2.13-2.28-.42.16-1.42.49-3.01.98q-1.49.5-2.38.78c-.78.23-2.04.66-3.74,1.24-.39.13-.71.28-1.37.55.02-1.45.03-2.91.05-4.36.23-.01.39-.04.51-.06.98-.17,2.94-.73,4.8-1.38,2.34-1.99,4.46-4.14,7.8-7.94-1.47.45-1.99.59-6.56,1.65-1.06.24-1.25.3-1.93.53.06-1.41.11-2.82.17-4.23Z"/>
          <path class="cls-2" d="M444.48,201.77c-1.79,3.96-3.65,6.01-5.87,6.41-3.2.59-5.15-2.58-4.69-7.67.31-3.37,1.59-6.61,3.69-9.23,2.48-3.12,5.79-5.07,9.49-5.64,6.49-.99,10.22,2.68,9.58,9.39-.5,5.23-3.23,9.7-7.54,12.28-1.29.78-2.35,1.26-4.22,1.94-.37-1.74-.66-2.47-1.53-3.81,2.32-.61,3.96-1.36,5.24-2.3,2.35-1.76,3.94-4.68,4.23-7.73.24-2.57-.56-4.57-2.2-5.59-.7-.43-1.3-.56-2.32-.54-.96,4.86-2.23,8.88-3.89,12.5ZM441.35,191.88c-2.12,2.04-3.6,5.1-3.87,8.04-.2,2.21.46,3.86,1.47,3.68.75-.13,1.66-1.42,2.7-3.93,1.2-2.77,2.34-6.58,2.94-9.74-1.26.37-2.15.92-3.24,1.96Z"/>
          <path class="cls-2" d="M484.02,192.25c-1.35.05-2.59.19-4.17.45-5,.8-10,1.62-14.99,2.44-1.5.25-2.82.52-4.21.92.14-1.46.28-2.92.42-4.37,1.28-.04,2.41-.16,4.17-.44,5-.8,10-1.59,15-2.37,1.86-.29,3.13-.54,4.21-.87-.14,1.42-.28,2.83-.43,4.25Z"/>
          <path class="cls-2" d="M496.16,189.01c-2.1,3.13-3.98,5.16-6.91,7.47-.55-.86-1.05-1.43-2.05-2.33,2.85-2.02,4.84-4.04,6.22-6.41.92.43,1.83.85,2.75,1.28ZM506.75,192.43q-.43.41-1.28,1.35c-2.35,2.51-4.99,4.53-7.97,6.05-2.2,1.13-4.54,1.9-7.99,2.66-.21-1.4-.44-2.18-1.02-3.5.72-.07,1.08-.13,1.39-.18,3.82-.64,7.13-1.95,10.09-3.99,1.86-1.29,3.37-2.82,4.32-4.38.82.66,1.64,1.32,2.46,1.98ZM508.89,182.21c1.27-.18,2.05-.35,2.97-.59-.12,1.15-.24,2.3-.37,3.46-.87.02-1.74.1-2.93.28-2.29.34-4.59.69-6.88,1.04-.17,1.66-.34,3.31-.52,4.97-.13,1.31-.69,2.2-1.73,2.74-.67.35-1.61.61-3.24.87,0,0-.44.07-1.26.18-.04-1.34-.14-2.05-.51-3.21.86,0,1.64-.07,2.41-.19.83-.13,1.05-.27,1.09-.68.14-1.39.29-2.79.43-4.18-2.4.36-4.79.73-7.19,1.1-1.27.2-2.15.39-3.04.63.12-1.19.24-2.38.36-3.56.87-.02,1.74-.1,3.01-.29.23-.03.47-.07.7-.1.12-1.22.25-2.43.37-3.65.1-1.01.14-1.64.12-2.39,1.2-.17,2.4-.34,3.6-.51-.18.75-.27,1.38-.38,2.42-.12,1.21-.25,2.42-.37,3.63,1.1-.16,2.19-.33,3.29-.49.18-1.74.36-3.48.54-5.22.11-1.09.15-1.9.11-2.56,1.23-.17,2.47-.34,3.7-.51-.15.66-.27,1.32-.36,2.26,0,.09-.02.18-.03.27,1.67-.24,3.35-.47,5.02-.7,1.24-.17,2-.33,2.81-.55-.12,1.12-.24,2.23-.35,3.35-.77,0-1.41.07-2.78.27-1.67.24-3.35.48-5.02.72-.08.72-.15,1.44-.23,2.17,2.22-.33,4.45-.65,6.68-.98ZM505.96,185.85c1.15,1.64,3.26,3.14,5.61,3.99-1.1,1.23-1.5,1.74-2.58,3.21-2.22-1.1-4.18-2.79-5.83-5.02.93-.73,1.87-1.46,2.8-2.18Z"/>
          <path class="cls-2" d="M516.54,176.91c.59-.06.91-.1,1.01-.11.49-.07.65-.09,4.35-.83,1.8-.37,6.28-1.19,13.43-2.45,2.29-.4,2.45-.45,2.93-.61-.08,1.31-.16,2.62-.24,3.93-.31.02-.39.03-.62.06-1.68.23-3.85,1.11-5.69,2.35-3.11,2.08-5.13,4.78-5.4,7.18-.21,1.95.82,3.19,2.93,3.48,1.15.16,2.8.16,3.76.01.15-.02.34-.05.65-.13-.34,1.44-.67,2.88-1.01,4.32-.33-.02-.43,0-.89.01-2.86.12-4.62-.03-6.08-.63-2.54-.99-3.68-3.09-3.36-6.1.39-3.57,2.56-6.75,6.39-9.34-2.62.65-2.73.69-8.55,1.95-1.43.31-2.85.69-3.86,1.02.08-1.37.16-2.73.23-4.09ZM533.58,183.54c-.49-1.37-.97-2.24-1.75-3.32.77-.43,1.54-.87,2.31-1.3.79.97,1.26,1.77,1.78,3.2-.78.47-1.56.94-2.35,1.41ZM536.77,181.67c-.49-1.28-.96-2.16-1.71-3.18.75-.41,1.5-.82,2.25-1.23.83.98,1.13,1.5,1.78,3.01-.77.47-1.55.93-2.32,1.4Z"/>
          <path class="cls-2" d="M544.29,184.77c2.25,1.46,3.64,2.69,5.45,4.85-1.14,1.12-2.27,2.24-3.41,3.37-1.63-2.22-2.98-3.53-5.17-5.1,1.04-1.05,2.08-2.09,3.12-3.12Z"/>
          <path class="cls-2" d="M577.42,175.18c-.16,1.35-.2,1.88-.19,2.63-.59.03-1.18.09-2.55.27-2.99.4-5.97.81-8.96,1.22-.4.62-.62.94-1.14,1.68,3.61-.51,7.21-1.01,10.82-1.5,1.22-.17,1.79-.27,2.34-.42-.11.5-.22,1.19-.36,2.32-.17,1.4-.34,2.8-.51,4.2-.14,1.21-.19,2.01-.21,2.79-1.15.17-2.29.34-3.44.52.04-.36.09-.73.13-1.09-3.27.49-6.54.98-9.8,1.48-.04.36-.08.72-.13,1.08-1.13.17-2.26.35-3.39.52.17-.82.33-1.71.45-2.79.11-.93.22-1.86.33-2.79-1.23,1.22-2.28,2.12-3.93,3.41-.46-1.07-.92-1.78-1.65-2.64,2.17-1.39,3.09-2.12,4.53-3.51,1.01-1.01,1.69-1.8,2.36-2.75-.32.04-.64.09-.96.13-1.32.18-2,.3-2.94.51.12-1.02.24-2.03.35-3.05.84.01,1.61-.07,2.91-.25.79-.11,1.57-.21,2.36-.32.28-.63.42-.96.68-1.64-1.55.2-3.09.41-4.64.62-1.22.16-2.08.33-2.99.55.12-1.04.24-2.08.36-3.12.92-.02,1.69-.07,2.96-.24,1.74-.22,3.47-.45,5.21-.67.15-.61.21-.86.34-1.54-1.07.13-2.14.27-3.21.4-1.27.16-2.05.29-2.91.47.12-1.02.24-2.04.36-3.06.95-.02,1.93-.09,3.17-.24,4.17-.51,8.34-1.02,12.51-1.51,1.53-.18,2.18-.28,2.94-.45-.2.79-.29,1.31-.45,2.65-.07.56-.14,1.12-.21,1.69.22-.03.43-.05.65-.08,1.04-.13,1.64-.25,2.35-.43-.12,1.01-.25,2.01-.37,3.02-.74,0-1.35.03-2.34.16-.21.03-.41.05-.62.08-.07.56-.14,1.13-.21,1.69ZM563.89,186.43c3.28-.48,6.55-.96,9.83-1.44.1-.85.2-1.7.3-2.54-3.28.46-6.56.93-9.83,1.4-.1.86-.2,1.72-.3,2.58ZM567.86,174.76c-.23.67-.37.98-.65,1.63,2.3-.31,4.61-.61,6.91-.92.06-.52.12-1.03.19-1.55-2.15.28-4.3.56-6.45.84ZM574.64,171.17c.06-.5.12-1,.18-1.5-1.93.24-3.85.48-5.78.72-.14.75-.18.9-.34,1.53,1.98-.25,3.95-.5,5.93-.75Z"/>
          <path class="cls-2" d="M584.4,171.27c.05,0,.11-.01.16-.02.78-.1,3.92-.75,5.26-1.1.78-2.58,1.14-4.01,1.25-4.93,0-.07.02-.19.02-.36,1.32-.03,2.65-.07,3.97-.1-.11.25-.19.44-.27.71-.04.1-.37,1.15-.98,3.15-.17.51-.17.54-.28.83.62-.1.99-.17,1.38-.21,1.84-.22,3.13.07,3.87.89.76.87.95,1.98.66,4.22-.54,4.25-1.73,7.67-3.22,9.18-.87.9-1.74,1.31-3.16,1.51-1.11.16-2.18.13-3.87-.1.12-.54.14-.73.19-1.1.1-.85.1-1.44-.02-2.54,1.25.35,2.71.52,3.56.4.65-.09,1.08-.53,1.51-1.53.53-1.2,1.16-3.73,1.38-5.55.14-1.15.04-1.74-.38-2.07-.3-.27-.7-.31-1.63-.19-.44.06-.73.12-1.3.24-1.39,4.02-3.27,7.87-6.26,12.93-.29.5-.32.55-.52.89-1.12-.43-2.25-.87-3.37-1.3,2.02-2.43,4.82-7.62,6.41-11.78-1.87.48-3.66.99-4.44,1.29.03-1.12.05-2.23.08-3.35ZM602.32,164.33c.9.92,1.4,1.63,1.99,2.83-.8.43-1.59.87-2.39,1.3-.55-1.12-1.26-2.18-2-2.91.8-.41,1.6-.82,2.4-1.23ZM604.37,167.87c1.69,2.37,2.55,4.55,3.08,7.6-1.26.68-2.52,1.36-3.78,2.05-.19-1.9-.52-3.3-1.23-5.09-.56-1.42-.84-1.99-1.43-2.8,1.12-.59,2.24-1.17,3.36-1.75ZM605.59,162.74c.82.79,1.47,1.66,2,2.71-.79.44-1.58.87-2.36,1.31-.6-1.13-1.18-1.97-1.96-2.81.78-.4,1.55-.81,2.33-1.21Z"/>
          <path class="cls-2" d="M630.55,173.18c-.43.37-.55.47-1.01.89-1.53,1.33-2.7,2.27-4.28,3.42,2.55.36,4.66.33,8.56-.09-.92,1.16-1.5,2.09-2.04,3.23-4.44.11-7.37-.18-10.06-.97-3.56,1.77-6.46,2.77-11.2,3.83-.33-1.15-.63-1.78-1.26-2.66,3.86-.53,6.36-1.17,9.4-2.44-.83-.46-1.25-.77-1.91-1.32-1.38.8-2.35,1.27-4.12,1.96-.41-.93-.78-1.41-1.59-2.25,2.36-.75,4.04-1.54,5.96-2.76,1.78-1.11,2.67-1.88,3.45-2.97.98.18,1.96.35,2.94.52-.39.43-.45.48-.89.94,1.39-.17,2.78-.34,4.17-.51,1.11-.14,1.77-.26,2.25-.41.55.53,1.1,1.06,1.65,1.58ZM618.3,166.95c-.86,1.35-1.36,2-2.32,3.07-.93,1.07-1.51,1.6-2.8,2.7-.24-.15-.4-.27-.51-.37q-.72-.53-1.84-1.13c1.19-.9,1.73-1.38,2.5-2.14,1.03-1.04,1.53-1.71,2.25-2.98.91.28,1.81.57,2.72.85ZM614.75,165.98c-1.32.15-2.05.26-2.92.47.13-.98.25-1.95.38-2.93.76,0,1.69-.05,3.14-.21,2.19-.24,4.37-.48,6.56-.72.02-.12.03-.24.05-.37.08-.57.1-.96.08-1.38,1.28-.14,2.56-.27,3.84-.41-.17.47-.24.81-.31,1.38-.02.13-.03.26-.05.39,2.21-.24,4.43-.48,6.64-.71,1.35-.14,2.39-.3,3.26-.48-.13.94-.26,1.88-.39,2.83-.92.01-1.82.07-3.12.21-1.28.14-2.56.28-3.84.42-.2,1.47-.4,2.94-.59,4.41-.12.89-.47,1.4-1.18,1.73-.52.24-.99.34-2.36.51-.49.06-.75.09-1.32.14-.04-1.03-.19-1.65-.58-2.5.71,0,1.25-.01,1.82-.08.44-.05.55-.13.6-.45.15-1.14.3-2.27.46-3.4-.67.08-1.35.15-2.02.23-.33,1.93-.8,3.16-1.63,4.39-.82,1.18-2.07,2.33-3.79,3.43-.82-.74-1.38-1.15-2.21-1.6,1.79-.99,2.76-1.79,3.41-2.87.55-.91.85-1.78,1.01-3-1.64.19-3.28.37-4.92.56ZM619.34,175.27c.77.56,1.62,1.02,2.69,1.42,1.3-.76,2-1.28,3.18-2.28-1.9.24-3.8.48-5.7.73-.06.05-.11.09-.17.14ZM630.58,164.66c1.53,1.14,2.64,2.19,4.01,3.7-1.02.72-2.05,1.44-3.07,2.16-1.11-1.8-1.79-2.59-3.64-4.19.9-.56,1.8-1.11,2.7-1.67Z"/>
          <path class="cls-2" d="M637.37,172.51c.64-.43,1.59-1.2,5.18-4.11.09-.67.11-.78.47-2.85-2.95.51-3.09.54-3.88.74.07-.98.14-1.96.2-2.95.41-.02.62-.05.88-.07.7-.08,1.98-.26,3.28-.46.13-.54.16-.76.29-1.69.04-.29.11-.58.14-.84.01-.09.02-.15.02-.18.05-.35.05-.53.07-1.01,1.31-.13,2.63-.25,3.94-.38-.44,1.28-.63,2.12-.81,3.4.47.33.93.65,1.39.98-.68.49-1.26,1-1.95,1.73-.04.09-.05.16-.05.2-.01.09-.02.13-.03.18-.01.08-.02.16-.03.24,0,.07-.02.13-.06.25,3.06-2.19,5.54-3.22,8.28-3.51,1.89-.2,3.77.27,4.9,1.25,1.21,1.02,1.72,2.58,1.44,4.48-.31,2.14-1.55,4.22-3.42,5.71-1.72,1.37-4.04,2.29-6.63,2.62-1.29.17-2.42.18-3.69.04.17-1.44.15-2-.11-3.25,1.74.28,2.91.33,4.3.16,3.11-.39,5.4-2.36,5.77-4.94.31-2.15-1.1-3.32-3.64-3.04-1.27.14-2.54.62-4.31,1.63-1.3.75-2.1,1.3-3.39,2.34q-.23,1.66-.3,2.15c-.41,2.95-.71,5.85-.76,6.9-1.33.17-2.66.33-3.98.5.22-.69.33-1.32.63-3.46.08-.6.17-1.21.25-1.81.09-.65.17-1.03.23-1.3q-1.02.96-2.1,1.95c-.44.41-.82.81-1.21,1.23-.44-.94-.88-1.89-1.32-2.83Z"/>
          <path class="cls-2" d="M670.42,157.32c.95.01,1.79-.03,3.35-.17,2.23-.21,5.46-.62,7.9-.99,1.02-.16,1.34-.23,1.81-.43.5.66,1.01,1.32,1.51,1.98-.58.3-.61.3-2.85,1.93-2.99,2.21-3.9,2.84-6.18,4.26,1.53-.52,2.85-.8,4.36-.95,2.2-.23,3.95.06,5.2.85,1.14.72,1.59,1.79,1.37,3.24-.31,2.01-1.77,3.77-4.27,5.13-1.86,1.02-4.21,1.75-6.69,2.05-2.26.28-4.11.13-5.1-.41-.92-.49-1.35-1.37-1.2-2.41.27-1.84,2.5-3.45,5.24-3.76,1.84-.21,3.38.22,4.31,1.19.44.44.66.85.92,1.67,1.93-.82,2.8-1.7,3-3.02.23-1.52-1.54-2.29-4.52-1.97-3.81.41-7.54,2-11.1,4.76-.56-.84-1.11-1.68-1.67-2.53,2.58-1.25,8.52-5.38,12.62-8.68-2.15.36-2.59.42-6.43.95-.84.13-1.07.15-1.86.31.1-1,.19-2,.29-3ZM674.48,170.02c-.78.09-1.35.49-1.42,1-.11.74.81,1.05,2.5.85.39-.05.49-.06,1.1-.24-.2-1.2-.96-1.75-2.18-1.61Z"/>
          <path class="cls-2" d="M694.53,165.67c2.23,1.19,3.61,2.17,5.4,3.91-1.15.88-2.3,1.77-3.44,2.66-1.61-1.78-2.94-2.83-5.12-4.1,1.05-.83,2.11-1.65,3.16-2.46Z"/>
          <path class="cls-2" d="M559.6,215.29c-.45-.46-.57-.56-1.08-.94-1.33-.95-2.91-1.73-4.31-2.07,0,.18-.01.33-.02.4-.34,2.94-2.45,4.72-6.58,5.52-3.92.76-5.97-.4-5.66-3.22.32-2.92,3.28-5.16,7.88-5.98.44-.08.75-.11,1.29-.18.06-.68.12-1.36.18-2.04-.72.13-1.73.33-2.28.43-1.68.3-2.55.43-4.89.72-.36.04-.59.08-1.03.16.13-1.11.26-2.21.39-3.32,1.11.06,3.54-.21,5.95-.63.54-.09,1.45-.25,2.15-.4.05-.49.1-.99.14-1.48.03-.28.05-.49.07-.64-.67.14-.99.19-1.37.26-.98.17-3.17.46-6.51.86-.31.03-.54.07-.64.08-.08.01-.23.04-.42.1.15-1.15.29-2.3.44-3.45,1.38.13,4.02-.11,7.02-.61.31-.05,1.11-.21,1.79-.35.22-1.92.22-2.12.19-2.99,1.3-.21,2.6-.42,3.9-.63-.24.73-.26.94-.54,2.9,3.51-.75,5.69-1.38,7.52-2.12-.09,1.09-.19,2.19-.28,3.28q-.62.13-2.17.58c-2.05.59-3.69,1.01-5.46,1.39-.09.99-.17,1.68-.21,2.08,3.07-.7,5.17-1.3,6.9-2.02-.09,1.1-.19,2.19-.28,3.29q-.21.04-.55.14c-.05,0-.21.06-.44.1q-.37.11-1.94.53c-1.25.34-2.95.76-3.99,1-.13,1.37-.18,2.26-.23,2.64,2.35.28,4.02.85,6.67,2.26.38.2.52.28.89.43-.83,1.29-1.66,2.59-2.49,3.89ZM548.91,212.2c-1.81.33-2.98,1.11-3.08,2.04-.09.8.76,1.12,2.28.84,1.75-.33,2.46-.99,2.63-2.48.02-.21.03-.51.03-.51-.73-.04-1.14-.02-1.86.12Z"/>
          <path class="cls-2" d="M569.86,195.89c1.13.09,2.98-.09,5.53-.47.7-2.08.97-2.99,1.14-4.01,1.35-.11,2.7-.22,4.05-.33-.07.2-.52,1.4-1.38,3.69,4.57-.87,8.08-1.78,9.9-2.54-.09,1.16-.18,2.31-.27,3.47q-.73.16-3.32.82c-2.59.66-4.65,1.11-7.58,1.66-.68,1.68-1.49,3.32-2.29,4.72,1.95-1.25,3.86-1.98,6.26-2.39,4.73-.78,7.26.65,6.86,3.91-.46,3.74-4.57,6.86-10.51,7.96-2.27.42-4.51.54-6.51.37.19-1.6.21-2.21.08-3.66,2.36.36,4.56.35,6.68-.03,3.62-.65,6.05-2.19,6.27-3.97.16-1.35-1.19-1.86-3.72-1.42-1.99.34-3.87,1.05-5.59,2.13-.98.61-1.43.98-1.94,1.68-1.19-.18-2.39-.36-3.58-.54,1.15-1.65,3.29-5.75,4.26-8.19q-.28.05-1.14.19c-.26.04-.41.04-2.56.25-.39.04-.64.08-.85.12-.05,0-.13.02-.23.04.15-1.15.31-2.3.46-3.45Z"/>
          <path class="cls-2" d="M595.52,194.44c.05,0,.1-.02.16-.02.78-.12,3.91-.87,5.25-1.27.78-2.58,1.14-4,1.25-4.91,0-.07.02-.19.02-.35,1.32-.08,2.64-.16,3.96-.24-.11.25-.18.45-.27.71-.04.1-.37,1.14-.98,3.14-.17.51-.17.54-.28.83.62-.12.99-.2,1.38-.26,1.84-.28,3.12-.04,3.86.75.76.83.94,1.93.66,4.14-.54,4.22-1.74,7.64-3.22,9.17-.87.92-1.73,1.35-3.16,1.6-1.11.2-2.17.2-3.87.03.12-.54.14-.73.19-1.09.11-.84.1-1.43-.02-2.51,1.25.3,2.7.42,3.55.28.65-.11,1.08-.56,1.51-1.56.53-1.21,1.16-3.73,1.38-5.53.14-1.14.04-1.72-.38-2.03-.3-.25-.7-.28-1.63-.14-.44.07-.73.14-1.3.28-1.39,4.02-3.27,7.88-6.25,12.98-.29.5-.32.55-.51.89-1.12-.39-2.24-.78-3.37-1.17,2.02-2.47,4.82-7.69,6.4-11.85-1.86.53-3.66,1.11-4.43,1.42.03-1.11.06-2.21.08-3.31ZM613.42,186.98c.9.88,1.4,1.56,1.98,2.73-.79.45-1.59.91-2.38,1.37-.54-1.09-1.25-2.11-2-2.8.8-.43,1.6-.87,2.4-1.3ZM615.46,190.41c1.68,2.28,2.54,4.41,3.07,7.4-1.26.71-2.51,1.43-3.77,2.15-.19-1.87-.52-3.24-1.23-4.99-.56-1.38-.84-1.94-1.42-2.72,1.12-.62,2.24-1.23,3.36-1.84ZM616.68,185.29c.82.75,1.47,1.59,2,2.6-.79.46-1.57.92-2.36,1.38-.59-1.1-1.17-1.91-1.96-2.71.77-.43,1.55-.85,2.32-1.27Z"/>
          <path class="cls-2" d="M641.58,194.75c-.43.38-.55.48-1.01.91-1.53,1.37-2.69,2.33-4.27,3.52,2.54.27,4.65.16,8.54-.39-.92,1.18-1.5,2.11-2.04,3.26-4.43.26-7.36.07-10.04-.61-3.56,1.87-6.46,2.96-11.18,4.17-.33-1.12-.63-1.73-1.25-2.58,3.85-.66,6.34-1.37,9.38-2.73-.83-.42-1.25-.71-1.91-1.23-1.37.83-2.35,1.33-4.12,2.08-.41-.91-.78-1.37-1.59-2.16,2.36-.82,4.04-1.66,5.95-2.93,1.77-1.16,2.67-1.95,3.44-3.05.98.14,1.95.28,2.93.41-.39.44-.45.49-.89.96,1.39-.22,2.78-.43,4.16-.65,1.11-.17,1.76-.32,2.24-.48.55.5,1.09,1.01,1.64,1.51ZM629.36,189.02c-.87,1.36-1.36,2.02-2.32,3.11-.93,1.09-1.51,1.63-2.8,2.76-.24-.14-.4-.25-.51-.35q-.72-.5-1.84-1.05c1.19-.93,1.73-1.42,2.49-2.2,1.03-1.06,1.52-1.74,2.25-3.02.91.25,1.81.5,2.72.74ZM625.82,188.18c-1.32.19-2.05.32-2.92.57.13-.97.26-1.94.38-2.9.76-.02,1.69-.11,3.14-.32,2.18-.31,4.36-.62,6.55-.93.02-.12.03-.24.05-.36.08-.57.1-.95.08-1.37,1.28-.18,2.55-.35,3.83-.53-.16.47-.24.81-.31,1.37-.02.13-.04.26-.05.38,2.21-.31,4.42-.62,6.63-.93,1.34-.19,2.39-.37,3.25-.58-.13.93-.26,1.87-.39,2.8-.92.04-1.82.13-3.11.31-1.28.18-2.55.37-3.83.55-.2,1.46-.4,2.91-.6,4.37-.12.88-.47,1.4-1.17,1.75-.52.26-.99.37-2.36.59-.49.08-.75.12-1.32.18-.04-1.02-.19-1.62-.58-2.45.71-.02,1.25-.05,1.82-.14.44-.07.55-.15.6-.47.15-1.13.3-2.25.46-3.37-.67.1-1.35.2-2.02.29-.34,1.92-.81,3.14-1.63,4.39-.82,1.2-2.07,2.37-3.79,3.52-.82-.7-1.37-1.09-2.21-1.5,1.79-1.04,2.75-1.86,3.41-2.95.55-.91.85-1.78,1.01-2.99-1.64.24-3.28.48-4.92.72ZM630.4,197.19c.76.53,1.62.95,2.68,1.31,1.3-.79,2-1.33,3.18-2.36-1.9.3-3.79.61-5.69.91-.06.05-.11.09-.17.14ZM641.62,186.34c1.53,1.08,2.63,2.08,4,3.51-1.02.74-2.05,1.49-3.07,2.24-1.1-1.74-1.79-2.5-3.63-4.01.9-.58,1.8-1.16,2.7-1.74Z"/>
          <path class="cls-2" d="M648.39,193.85c.64-.45,1.59-1.24,5.17-4.24.09-.66.11-.77.47-2.83-2.95.6-3.08.64-3.87.87.07-.97.14-1.94.21-2.91.41-.04.62-.07.88-.1.7-.1,1.97-.32,3.28-.57.13-.53.16-.75.29-1.68.04-.28.11-.57.14-.84.01-.09.02-.15.02-.18.05-.35.05-.52.07-1,1.31-.17,2.62-.34,3.93-.5-.44,1.28-.63,2.12-.81,3.38.46.31.93.61,1.39.92-.68.5-1.26,1.03-1.95,1.77-.04.09-.05.16-.05.2-.01.09-.02.13-.02.17-.01.08-.02.16-.03.24,0,.07-.02.13-.06.24,3.06-2.26,5.53-3.37,8.27-3.75,1.89-.26,3.76.14,4.89,1.07,1.2.96,1.72,2.48,1.44,4.37-.31,2.12-1.55,4.22-3.42,5.75-1.72,1.41-4.04,2.4-6.62,2.81-1.29.21-2.41.26-3.69.16.17-1.42.15-1.98-.1-3.2,1.74.22,2.9.23,4.3.01,3.1-.49,5.39-2.51,5.77-5.07.31-2.13-1.1-3.24-3.64-2.87-1.27.18-2.54.7-4.31,1.75-1.3.79-2.09,1.36-3.38,2.43q-.23,1.65-.3,2.13c-.41,2.92-.72,5.79-.76,6.84-1.33.21-2.65.42-3.98.63.22-.69.33-1.31.63-3.44.08-.6.17-1.2.25-1.79.09-.64.17-1.02.23-1.29q-1.02.98-2.1,2c-.44.42-.82.83-1.21,1.26-.44-.92-.87-1.83-1.31-2.75Z"/>
          <path class="cls-2" d="M681.39,177.73c.94-.02,1.79-.09,3.35-.29,2.22-.29,5.45-.8,7.88-1.25,1.02-.19,1.34-.27,1.8-.49.5.64,1,1.27,1.51,1.9-.58.32-.61.32-2.85,2-2.99,2.28-3.9,2.93-6.18,4.41,1.53-.56,2.85-.88,4.35-1.09,2.2-.3,3.94-.07,5.19.66,1.14.67,1.58,1.71,1.36,3.14-.31,1.99-1.78,3.77-4.27,5.21-1.86,1.07-4.2,1.87-6.68,2.25-2.25.35-4.11.27-5.09-.23-.92-.46-1.35-1.3-1.19-2.34.27-1.82,2.49-3.49,5.24-3.89,1.84-.27,3.37.1,4.3,1.03.44.42.66.82.92,1.61,1.93-.88,2.8-1.77,3-3.08.23-1.51-1.54-2.21-4.51-1.79-3.81.54-7.53,2.23-11.09,5.07-.55-.81-1.11-1.62-1.66-2.43,2.57-1.32,8.51-5.59,12.61-8.99-2.15.42-2.59.5-6.42,1.15-.84.15-1.07.18-1.86.37.1-.99.2-1.98.29-2.97ZM685.43,190.12c-.78.12-1.34.53-1.42,1.04-.11.74.81,1.01,2.49.75.39-.06.49-.08,1.1-.27-.2-1.17-.96-1.7-2.17-1.52Z"/>
        </g>
      </g>
    </g>
  </g>
</svg>