<?xml version="1.0" encoding="UTF-8"?>
<svg id="_レイヤー_2" data-name="レイヤー 2" xmlns="http://www.w3.org/2000/svg" viewBox="0 0 136.21 61.94">
  <defs>
    <style>
      .cls-1 {
        fill: #e5be24;
      }

      .cls-2 {
        fill-rule: evenodd;
      }

      .cls-2, .cls-3 {
        fill: #1c87c6;
      }
    </style>
  </defs>
  <g id="_レイヤー_1-2" data-name="レイヤー 1">
    <path class="cls-2" d="M111.94,45.68c-20.94-19.53-17.36-37.57-17.08-37.57,7.9,0,7.71-8.12,7.71-8.12h18.9s-.19,8.12,7.71,8.12c.28,0,3.86,18.03-17.08,37.57h-.16ZM111.94,39.35c-13.77-13.76-13.23-27.92-12.81-28.07,6.82-2.27,6.89-7.15,6.89-7.15h11.89s.07,4.88,6.88,7.15c.41.14.97,14.31-12.81,28.07h-.05Z"/>
    <path class="cls-2" d="M116.1,17.11c0,2.25-1.84,4.08-4.1,4.08s-4.1-1.83-4.1-4.08,1.83-4.1,4.1-4.1,4.1,1.83,4.1,4.1M112,13.53c-1.97,0-3.57,1.59-3.57,3.57s1.6,3.56,3.57,3.56,3.57-1.6,3.57-3.56-1.6-3.57-3.57-3.57"/>
    <path class="cls-2" d="M117.89,17.1c0,3.26-2.64,5.89-5.89,5.89s-5.9-2.64-5.9-5.89,2.64-5.9,5.9-5.9,5.89,2.64,5.89,5.9M112,11.91c-2.87,0-5.19,2.32-5.19,5.19s2.32,5.19,5.19,5.19,5.19-2.32,5.19-5.19-2.32-5.19-5.19-5.19"/>
    <path class="cls-2" d="M119.74,17.11c0,4.26-3.46,7.73-7.73,7.73s-7.74-3.46-7.74-7.73,3.46-7.76,7.74-7.76,7.73,3.47,7.73,7.76M112,10.01c-3.92,0-7.09,3.18-7.09,7.1s3.17,7.07,7.09,7.07,7.08-3.17,7.08-7.07-3.17-7.1-7.08-7.1"/>
    <path class="cls-2" d="M121.96,17.1c0,5.5-4.46,9.97-9.96,9.97s-9.97-4.47-9.97-9.97,4.46-9.96,9.97-9.96,9.96,4.46,9.96,9.96M112,7.89c-5.09,0-9.21,4.12-9.21,9.21s4.12,9.21,9.21,9.21,9.2-4.12,9.2-9.21-4.12-9.21-9.2-9.21"/>
    <rect class="cls-3" x="102.39" y="16.82" width="19.21" height=".6"/>
    <rect class="cls-3" x="111.7" y="7.52" width=".6" height="19.21"/>
    <polygon class="cls-2" points="119.01 10.55 105.42 24.14 105 23.71 118.58 10.12 119.01 10.55"/>
    <polygon class="cls-2" points="105.42 10.12 119.01 23.71 118.58 24.14 105 10.55 105.42 10.12"/>
    <path class="cls-3" d="M26.87,29.2c-1.08,8.38-5.39,12.52-14.33,12.52S.27,36.77.02,32.17c-.1-1.73.1-4.6.56-6.65h10.06c-.13,1.33-.67,3.62-.6,4.96.09,1.58,1.01,2.55,2.54,2.55,1.99,0,2.65-1.12,2.9-2.95l4.07-25.7h11.23l-3.91,24.82Z"/>
    <path class="cls-3" d="M66.72,27.01c-.46,3.73-2.73,14.71-17.89,14.71-10.57,0-16.05-6.85-16.58-16.6-.64-11.81,6.18-21.61,18.59-21.61,8.12,0,15.56,3.52,16.36,14.45h-10.62c-.09-3.42-1.83-5.36-5.3-5.36-6.23,0-8.09,7.15-7.81,12.31.16,3.01,1.13,7.72,6.29,7.72,3.52,0,5.39-2.41,5.93-5.62h11.03Z"/>
    <polygon class="cls-3" points="75.32 4.38 86.55 4.38 80.98 40.85 69.74 40.85 75.32 4.38"/>
    <path class="cls-2" d="M116.49,11.2c-.11-.23-.27-.48-.31-.72-.05-.2.02-.43-.05-.63.35-.14.79,1.45,1.08,1.74.54.54,1.39.99,2.11,1.27-.01.46-.78.22-1.02.08-.44-.29-.56-.35-1.13-.35-.18,0-.5.06-.67-.04-.28-.16-.14-.21-.19-.45-.08-.42-.01-.81-.13-1.21"/>
    <path class="cls-2" d="M113.16,8.82c-.08.19.14.27.35.22.12-.36-.23-.45-.49-.26.02.01.07.05.09.09"/>
    <path class="cls-2" d="M115.77,12.24c-.29-.04-.78-.49-.64.09.06.28.54.51.73.68.49.41.94,1.36,1.74,1.24-.39-.41-.81-.74-1.15-1.2-.25-.31-.49-.63-.81-.86"/>
    <path class="cls-2" d="M113.38,18.93c-.32-.04-.76.53-.93.77-.24.31-.45.89-.39,1.26.23,1.34,1.6,1,2.52.82.27.56.72.33,1.22.4.44.05.82.5,1.24.52.76.06.13-1.69-.1-2.11-.23-.42-.73-.57-1-.94-.26-.35-.27-.9-.49-1.31-.42-.78-1.59-.1-2.08.36-.1.1-.18.17-.21.29"/>
    <path class="cls-2" d="M117.93,20.29c-.37.38-.64,1.15.03,1.39.38.13.36-.02.69-.31.28-.26.29-.28.72-.28.12-.83-1.22-.43-1.62-.75"/>
    <path class="cls-2" d="M115.32,18.4c.55-.47,1.1-1.05,1.79-1.29-.27-.66-.82-.92-1.21-1.5-.4-.62-.73-1.32-1.25-1.85-.66-.66-1.22-.15-1.5.59-.12.31-.3.65-.35,1-.06.43.12.56.34.94-.44.23-.09.77-.03,1.13-.39.02-.25.39-.27.68-.2.12-.29.57,0,.67.09-.49.24-.26.45-.17,0,0,.09.14.14.17.09.06.39,0,.5,0"/>
    <path class="cls-2" d="M107.4,17.9c.26.09.79.13.99.31.23.2.37.75.59,1.01.37.42.96.57.85,1.24-.38.2-.75,0-1.08.18-.08.05-.04.19-.12.25-.25.17-.62.18-.91.21-.9.09-1.06-.44-1.7-.95.33-.52,1.43-1.1,1.04-1.82.2-.18.47-.11.49-.43"/>
    <path class="cls-2" d="M109.95,16.38c.11-.78-.06-1.75.36-2.47.31-.53,1.76-.99,2.35-.69-.14-.07-.74,1.42-.81,1.54-.38.77-.31.37-.93.26-.37-.07-.9.11-1.14.41-.35.41-.07.58.18.95"/>
    <path class="cls-2" d="M110.6,15.66c-.76.88.79,1.43,1.35,1.72.36-.61-.06-1.14-.38-1.62-.45-.71-.51-.09-1.01.09,0,.05-.02.06-.05.08"/>
    <polygon class="cls-3" points="130.39 37.6 129.16 37.6 129.16 37.18 132.11 37.18 132.11 37.6 130.88 37.6 130.88 40.87 130.39 40.87 130.39 37.6"/>
    <polygon class="cls-3" points="132.53 37.19 133.2 37.19 134.37 40.28 135.53 37.19 136.21 37.19 136.21 40.87 135.74 40.87 135.74 37.8 135.73 37.8 134.58 40.87 134.16 40.87 133 37.8 132.99 37.8 132.99 40.87 132.53 40.87 132.53 37.19"/>
    <polygon class="cls-1" points="42.35 51.75 42.35 55.9 46.26 51.75 49 51.75 45.09 55.7 49.38 61.76 46.62 61.76 43.61 57.26 42.35 58.53 42.35 61.76 40.15 61.76 40.15 51.75 42.35 51.75"/>
    <path class="cls-1" d="M50.09,56.57c.18-.47.43-.87.76-1.2s.72-.59,1.18-.77c.46-.18.97-.27,1.54-.27s1.08.09,1.55.27c.46.18.86.44,1.18.77s.58.73.76,1.2c.18.47.27,1,.27,1.58s-.09,1.1-.27,1.57c-.18.47-.43.87-.76,1.2-.33.33-.72.59-1.18.76-.46.18-.98.27-1.55.27s-1.08-.09-1.54-.27c-.46-.18-.85-.43-1.18-.76-.33-.33-.58-.73-.76-1.2-.18-.47-.27-.99-.27-1.57s.09-1.11.27-1.58M51.9,58.99c.06.28.15.52.29.74.14.22.32.4.54.53.22.13.5.2.84.2s.62-.07.85-.2c.23-.13.41-.31.55-.53.13-.22.23-.47.29-.74.06-.27.08-.56.08-.85s-.03-.58-.08-.86c-.06-.28-.15-.53-.29-.74-.14-.21-.32-.39-.55-.53-.23-.13-.51-.2-.85-.2s-.62.07-.84.2c-.22.14-.4.31-.54.53-.13.21-.23.46-.29.74-.06.28-.08.57-.08.86s.03.57.08.85"/>
    <path class="cls-1" d="M57.86,55.84v-1.33h1.19v-.56c0-.65.2-1.17.6-1.58.4-.41,1.01-.62,1.82-.62.18,0,.36,0,.53.02.18.01.35.02.52.04v1.48c-.23-.03-.48-.04-.73-.04-.27,0-.46.06-.58.19-.12.13-.17.34-.17.64v.43h1.37v1.33h-1.37v5.91h-1.99v-5.91h-1.19Z"/>
    <path class="cls-1" d="M68.18,61.76v-1.01h-.04c-.25.42-.58.72-.98.91-.4.19-.81.28-1.23.28-.53,0-.97-.07-1.31-.21-.34-.14-.61-.34-.81-.6-.2-.26-.33-.57-.41-.94-.08-.37-.12-.78-.12-1.23v-4.46h1.99v4.09c0,.6.09,1.05.28,1.34.19.29.52.44.99.44.54,0,.93-.16,1.18-.48.24-.32.36-.85.36-1.59v-3.8h1.99v7.24h-1.89Z"/>
  </g>
</svg>