<?xml version="1.0" encoding="UTF-8"?>
<svg id="_レイヤー_2" data-name="レイヤー 2" xmlns="http://www.w3.org/2000/svg" xmlns:xlink="http://www.w3.org/1999/xlink" viewBox="0 0 49.61 69.62">
  <defs>
    <style>
      .cls-1 {
        clip-path: url(#clippath);
      }

      .cls-2 {
        fill: none;
      }

      .cls-2, .cls-3, .cls-4 {
        stroke-width: 0px;
      }

      .cls-3 {
        fill: url(#_名称未設定グラデーション_2-2);
      }

      .cls-5 {
        clip-path: url(#clippath-1);
      }

      .cls-4 {
        fill: url(#_名称未設定グラデーション_2);
      }
    </style>
    <clipPath id="clippath">
      <path class="cls-2" d="m48.84,23.12c-.29.39-.61.82-1.02,1.36v4.14l.02,2.53v.45c0,4.49-2.58,8.55-6.74,11.5-4.16,2.95-9.91,4.77-16.24,4.77s-12.09-1.83-16.26-4.78c-4.17-2.95-6.76-7.02-6.76-11.51v-7.1c-.33-.33-.66-.76-.97-1.2-.31-.44-.59-.89-.85-1.25v9.57c0,5.04,2.78,9.6,7.28,12.91,4.49,3.31,10.7,5.35,17.55,5.35,5.19,0,10.01-1.18,13.99-3.19,3.99-2.01,7.14-4.85,8.99-8.19l-.02,6.44-.02,6.44c0,4.49-2.57,8.55-6.72,11.5-4.16,2.95-9.89,4.77-16.23,4.77s-11.86-1.87-16.09-4.84c-4.23-2.97-6.93-7.03-6.93-11.43-.91-1.22-.89-1.22-1.81-2.45v2.45c0,4.98,2.77,9.54,7.26,12.86,4.49,3.32,10.7,5.4,17.57,5.4s13.03-2.05,17.51-5.35c4.48-3.3,7.25-7.87,7.25-12.9v-29.35c-.26.36-.5.7-.79,1.08"/>
    </clipPath>
    <linearGradient id="_名称未設定グラデーション_2" data-name="名称未設定グラデーション 2" x1="-450.79" y1="122.12" x2="-449.79" y2="122.12" gradientTransform="translate(22362.37 -6012.66) scale(49.61)" gradientUnits="userSpaceOnUse">
      <stop offset="0" stop-color="#5eb97a"/>
      <stop offset=".1" stop-color="#5eb97a"/>
      <stop offset="1" stop-color="#3385be"/>
    </linearGradient>
    <clipPath id="clippath-1">
      <path class="cls-2" d="m3.02,17.4c-.16-.24-.26-.52-.27-.77,1.96-2.52,5.3-4.79,9.33-6.41,4.02-1.62,8.72-2.61,13.36-2.57,4.38.04,8.43.84,12.03,2.35s6.75,3.72,9.34,6.56c-.07.14-.17.37-.29.61-.12.24-.25.49-.37.64-2.49-2.72-5.73-4.89-9.29-6.37-3.56-1.49-7.45-2.29-11.24-2.29-4.52,0-8.81.84-12.59,2.36-3.78,1.52-7.05,3.74-9.52,6.48-.23-.17-.31-.33-.47-.58M23.55.03c-.42,0-.84.03-1.26.06-.83.05-1.65.13-2.46.23-.81.1-1.6.22-2.38.37-.58.11-1.16.23-1.72.37-.56.14-1.12.28-1.66.44-.72.21-1.43.44-2.11.69-.68.25-1.34.52-1.98.81-.95.43-1.86.91-2.7,1.42-.84.51-1.62,1.06-2.34,1.64-.24.19-.47.39-.69.59-.22.2-.44.4-.65.61l-.31.31c-.1.1-.2.21-.29.32-.19.21-.37.43-.55.65-.17.22-.34.44-.5.67-.63.9-1.11,1.84-1.45,2.82-.33.98-.5,1.99-.5,3.03,0,.18,0,.35.02.52,0,.17.03.35.05.52,0,.04,0,.08.02.12,0,.04,0,.08.02.12.02.17.05.34.08.51s.07.34.11.51h0c.04.17.09.34.15.51.05.17.11.33.17.5,0,.03.03.07.04.1,0,.03.02.07.04.1.46,1.17,1.15,2.29,2.04,3.33.89,1.05,1.97,2.02,3.22,2.91h.02c.37.27.76.52,1.17.77.4.25.82.49,1.25.72,0,0,.02.01.03.02,0,0,.02.01.03.01.21.11.42.22.64.33.21.11.43.21.65.31h.04c.22.1.45.21.68.31.23.1.46.2.7.29.02,0,.04.01.05.02.02,0,.04.02.06.02.21.09.43.17.65.25.22.08.44.16.66.24.03,0,.06.02.09.03s.06.02.09.03c.24.08.48.16.72.24.24.08.49.15.74.22.03,0,.05.01.08.02.03,0,.05.01.08.02.22.06.44.12.67.18.23.06.45.11.68.17.05.01.1.02.14.04.05.01.1.02.14.03.25.06.5.11.76.17.26.05.51.1.77.15.03,0,.06.01.09.01s.06.01.08.02c.23.04.47.08.7.12.23.04.47.07.71.11.06,0,.12.02.18.03.06,0,.12.02.18.02.26.04.53.07.8.1.27.03.54.06.81.08h.12c.25.02.5.04.75.06.25.02.51.03.76.04.07,0,.14,0,.21.01h.21c.27.01.55.02.83.03.28,0,.56.01.84.01s.56,0,.84-.01c.28,0,.55-.02.83-.03h.21c.07,0,.14,0,.21-.01.25-.01.51-.03.76-.04.25-.02.5-.04.75-.06h.12c.27-.02.54-.05.8-.08.27-.03.53-.06.8-.1.06,0,.12-.02.18-.02s.12-.02.18-.03c.24-.03.47-.07.71-.11s.47-.08.7-.12c.03,0,.06,0,.08-.02.03,0,.06,0,.09-.01.26-.05.52-.1.77-.15.26-.05.51-.11.76-.17.05-.01.1-.02.14-.03.05-.01.09-.02.14-.04.23-.05.45-.11.68-.17.22-.06.45-.12.67-.18.03,0,.05-.02.08-.02s.05-.01.08-.02c.25-.07.49-.15.74-.22.24-.08.48-.15.72-.24.03-.01.06-.02.09-.03s.06-.02.09-.03c.22-.08.44-.16.66-.24s.44-.16.65-.25c.02,0,.04-.01.05-.02.02,0,.04-.01.05-.02.23-.1.47-.19.7-.29s.46-.2.68-.3c0,0,.02,0,.02-.01,0,0,0,0,.02-.01.22-.1.44-.21.65-.31.21-.11.42-.21.63-.33,0,0,.02-.01.03-.02,0,0,.02-.01.03-.02.43-.23.85-.47,1.25-.72s.79-.51,1.17-.77h.02c.76-.54,1.45-1.11,2.08-1.7.63-.6,1.19-1.22,1.67-1.88h0c.2-.27.39-.55.57-.83s.34-.56.49-.85h0c.08-.16.16-.33.24-.49.07-.17.14-.33.21-.5,0-.03.03-.07.04-.1,0-.03.02-.07.04-.1.06-.17.12-.33.17-.5s.1-.33.15-.5h0c.04-.17.08-.34.11-.51s.06-.34.08-.51c0-.04,0-.08.02-.12,0-.04,0-.08,0-.12.02-.17.04-.34.05-.52,0-.17.02-.35.02-.52h0c0-1.95-.61-3.81-1.72-5.52s-2.72-3.26-4.72-4.6c-.27-.18-.54-.35-.82-.52s-.57-.34-.86-.5c-.29-.16-.59-.32-.9-.47s-.62-.3-.94-.45c-.8-.36-1.63-.69-2.49-.99-.87-.3-1.76-.57-2.69-.81-.37-.1-.75-.18-1.13-.27-.38-.08-.76-.16-1.15-.24-1.16-.22-2.37-.39-3.6-.5-1.23-.11-2.49-.17-3.78-.17-.43,0-.85,0-1.28.02"/>
    </clipPath>
    <linearGradient id="_名称未設定グラデーション_2-2" data-name="名称未設定グラデーション 2" y1="122.12" y2="122.12" gradientTransform="translate(22362.35 -6043.46) scale(49.61)" xlink:href="#_名称未設定グラデーション_2"/>
  </defs>
  <g id="_レイヤー_2-2" data-name=" レイヤー 2">
    <g id="_レイヤー_1-2" data-name=" レイヤー 1-2">
      <g class="cls-1">
        <rect class="cls-4" x=".02" y="22.03" width="49.61" height="47.6"/>
      </g>
      <g class="cls-5">
        <rect class="cls-3" x=".02" y=".01" width="49.61" height="30.08"/>
      </g>
    </g>
  </g>
</svg>