<?xml version="1.0" encoding="UTF-8"?>
<svg id="_レイヤー_2" data-name="レイヤー 2" xmlns="http://www.w3.org/2000/svg" xmlns:xlink="http://www.w3.org/1999/xlink" viewBox="0 0 275.51 69.62">
  <defs>
    <style>
      .cls-1 {
        fill: url(#_名称未設定グラデーション_16-2);
      }

      .cls-1, .cls-2, .cls-3, .cls-4 {
        stroke-width: 0px;
      }

      .cls-5 {
        clip-path: url(#clippath);
      }

      .cls-2 {
        fill: none;
      }

      .cls-3 {
        fill: url(#_名称未設定グラデーション_16);
      }

      .cls-6 {
        clip-path: url(#clippath-1);
      }

      .cls-4 {
        fill: #5d5e5d;
      }
    </style>
    <clipPath id="clippath">
      <path class="cls-2" d="m48.82,23.11c-.29.39-.61.82-1.02,1.36v4.14s.02,2.53.02,2.53v.45c0,4.49-2.58,8.55-6.74,11.5-4.16,2.95-9.91,4.77-16.24,4.77s-12.09-1.83-16.26-4.78c-4.17-2.95-6.76-7.02-6.76-11.51v-7.1c-.33-.33-.66-.76-.97-1.2-.31-.44-.59-.89-.85-1.25,0,.15,0,.3,0,.42,0,.12,0,.22,0,.29v8.86c0,5.04,2.78,9.6,7.28,12.91,4.49,3.31,10.7,5.35,17.55,5.35,5.19,0,10.01-1.18,13.99-3.19,3.99-2.01,7.14-4.85,8.99-8.19l-.02,6.44-.02,6.44c0,4.49-2.57,8.55-6.72,11.5-4.16,2.95-9.89,4.77-16.23,4.77s-11.86-1.87-16.09-4.84c-4.23-2.97-6.93-7.03-6.93-11.43-.91-1.22-.89-1.22-1.81-2.45,0,1.07,0,2.01,0,2.45,0,4.98,2.77,9.54,7.26,12.86,4.49,3.32,10.7,5.4,17.57,5.4s13.03-2.05,17.51-5.35c4.48-3.3,7.25-7.87,7.25-12.9v-9.89s0-9.92,0-9.92v-8.82c0-.06,0-.18,0-.31,0-.13,0-.28,0-.41-.26.36-.5.7-.79,1.08"/>
    </clipPath>
    <linearGradient id="_名称未設定グラデーション_16" data-name="名称未設定グラデーション 16" x1="-295.01" y1="341.58" x2="-294.01" y2="341.58" gradientTransform="translate(14634.35 16990.52) scale(49.61 -49.61)" gradientUnits="userSpaceOnUse">
      <stop offset="0" stop-color="#5eb97a"/>
      <stop offset=".1" stop-color="#5eb97a"/>
      <stop offset="1" stop-color="#3385be"/>
    </linearGradient>
    <clipPath id="clippath-1">
      <path class="cls-2" d="m3,17.39c-.16-.24-.26-.52-.27-.77,1.96-2.52,5.3-4.79,9.33-6.41,4.02-1.62,8.72-2.61,13.36-2.57,4.38.04,8.43.84,12.03,2.35,3.6,1.51,6.75,3.72,9.34,6.56-.07.14-.17.37-.29.61-.12.24-.25.49-.37.64-2.49-2.72-5.73-4.89-9.29-6.37-3.56-1.49-7.45-2.29-11.24-2.29-4.52,0-8.81.84-12.59,2.36-3.78,1.52-7.05,3.74-9.52,6.48-.23-.17-.31-.33-.47-.58M23.53.02c-.42.01-.84.03-1.26.06-.83.05-1.65.13-2.46.23-.81.1-1.6.22-2.38.37-.58.11-1.16.23-1.72.37-.56.14-1.12.28-1.66.44-.72.21-1.43.44-2.11.69-.68.25-1.34.52-1.98.81-.95.43-1.86.91-2.7,1.42-.84.51-1.62,1.06-2.34,1.64-.24.19-.47.39-.69.59-.22.2-.44.4-.65.61-.1.1-.21.21-.31.31-.1.1-.2.21-.29.32-.19.21-.37.43-.55.65-.17.22-.34.44-.5.67-.63.9-1.11,1.84-1.45,2.82-.33.98-.5,1.99-.5,3.03,0,.18,0,.35.02.52.01.17.03.35.05.52,0,.04.01.08.02.12,0,.04.01.08.02.12.02.17.05.34.08.51.03.17.07.34.11.51H.29c.04.17.09.34.15.51.05.17.11.33.17.5.01.03.03.07.04.1.01.03.02.07.04.1.46,1.17,1.15,2.29,2.04,3.33.89,1.05,1.97,2.02,3.22,2.91,0,0,0,0,.01,0,0,0,0,0,.01,0,.37.27.76.52,1.17.77.4.25.82.49,1.25.72,0,0,.02.01.03.02,0,0,.02.01.03.01.21.11.42.22.64.33.21.11.43.21.65.31,0,0,.01,0,.02,0,0,0,.01,0,.02,0,.22.1.45.21.68.31.23.1.46.2.7.29.02,0,.04.01.05.02.02,0,.04.02.06.02.21.09.43.17.65.25.22.08.44.16.66.24.03,0,.06.02.09.03.03.01.06.02.09.03.24.08.48.16.72.24.24.08.49.15.74.22.03,0,.05.01.08.02.03,0,.05.01.08.02.22.06.44.12.67.18.23.06.45.11.68.17.05.01.1.02.14.04.05.01.1.02.14.03.25.06.5.11.76.17.26.05.51.1.77.15.03,0,.06.01.09.01.03,0,.06.01.08.02.23.04.47.08.7.12.23.04.47.07.71.11.06,0,.12.02.18.03.06,0,.12.02.18.02.26.04.53.07.8.1.27.03.54.06.81.08.02,0,.04,0,.06,0,.02,0,.04,0,.06,0,.25.02.5.04.75.06.25.02.51.03.76.04.07,0,.14,0,.21.01.07,0,.14,0,.21,0,.27.01.55.02.83.03.28,0,.56.01.84.01s.56,0,.84-.01c.28,0,.55-.02.83-.03.07,0,.14,0,.21,0,.07,0,.14,0,.21-.01.25-.01.51-.03.76-.04.25-.02.5-.04.75-.06.02,0,.04,0,.06,0,.02,0,.04,0,.06,0,.27-.02.54-.05.8-.08.27-.03.53-.06.8-.1.06,0,.12-.02.18-.02.06,0,.12-.02.18-.03.24-.03.47-.07.71-.11.24-.04.47-.08.7-.12.03,0,.06,0,.08-.02.03,0,.06,0,.09-.01.26-.05.52-.1.77-.15.26-.05.51-.11.76-.17.05-.01.1-.02.14-.03.05-.01.09-.02.14-.04.23-.05.45-.11.68-.17.22-.06.45-.12.67-.18.03,0,.05-.02.08-.02.03,0,.05-.01.08-.02.25-.07.49-.15.74-.22.24-.08.48-.15.72-.24.03-.01.06-.02.09-.03.03-.01.06-.02.09-.03.22-.08.44-.16.66-.24.22-.08.44-.16.65-.25.02,0,.04-.01.05-.02.02,0,.04-.01.05-.02.23-.1.47-.19.7-.29.23-.1.46-.2.68-.3,0,0,.02,0,.02-.01,0,0,.01,0,.02-.01.22-.1.44-.21.65-.31.21-.11.42-.21.63-.33.01,0,.02-.01.03-.02,0,0,.02-.01.03-.02.43-.23.85-.47,1.25-.72.4-.25.79-.51,1.17-.77,0,0,0,0,.01,0,0,0,0,0,.01,0,.76-.54,1.45-1.11,2.08-1.7.63-.6,1.19-1.22,1.67-1.88h0c.2-.27.39-.55.57-.83.18-.28.34-.56.49-.85h0c.08-.16.16-.33.24-.49.07-.17.14-.33.21-.5.01-.03.03-.07.04-.1.01-.03.02-.07.04-.1.06-.17.12-.33.17-.5.05-.17.1-.33.15-.5,0,0,0,0,0,0h0c.04-.17.08-.34.11-.51.03-.17.06-.34.08-.51,0-.04.01-.08.02-.12,0-.04,0-.08.01-.12.02-.17.04-.34.05-.52.01-.17.02-.35.02-.52h0c0-1.95-.61-3.81-1.72-5.52s-2.72-3.26-4.72-4.6c-.27-.18-.54-.35-.82-.52-.28-.17-.57-.34-.86-.5-.29-.16-.59-.32-.9-.47-.31-.15-.62-.3-.94-.45-.8-.36-1.63-.69-2.49-.99-.87-.3-1.76-.57-2.69-.81-.37-.1-.75-.18-1.13-.27-.38-.08-.76-.16-1.15-.24-1.16-.22-2.37-.39-3.6-.5-1.23-.11-2.49-.17-3.78-.17-.43,0-.85,0-1.28.02"/>
    </clipPath>
    <linearGradient id="_名称未設定グラデーション_16-2" data-name="名称未設定グラデーション 16" x1="-295.01" y1="341.58" x2="-294.01" y2="341.58" gradientTransform="translate(14634.33 16959.72) scale(49.61 -49.61)" xlink:href="#_名称未設定グラデーション_16"/>
  </defs>
  <g id="_レイヤー_1-2" data-name="レイヤー 1">
    <path class="cls-4" d="m72.01,23.53c-1.02,3.59-2.18,6.45-3.77,9.23l-1.51-2.64c2.29-3.52,3.98-7.75,5-12.57h-4.19v-2.43h4.47v-7.15h2.71v7.15h3.35v2.43h-3.35v2.92c1.51,1.3,2.85,2.61,3.94,3.84l-1.37,2.43c-.88-1.34-1.55-2.22-2.57-3.45v16.24h-2.71v-15.99Zm7.36,14.34c2.99-1.9,4.93-4.76,5.46-8.03-2.18.99-4.51,1.9-6.87,2.68l-1.09-2.43c1.52-.39,1.76-.42,2.43-.63V11.27l.42-.11c2.61-.53,5.32-1.48,7.4-2.54l2.08,1.87c-2.36.99-5.11,1.94-7.4,2.5v15.67c.64-.18,1.16-.39,3.17-1.13v-13.63h2.5v13.21c0,5.74-1.76,9.3-6.16,12.54l-1.94-1.8Zm18.95-7.82c0,2.04-.6,2.61-2.68,2.61-.85,0-1.44-.04-2.01-.11l-.53-2.47c.49.07,1.34.11,1.8.11.7,0,.88-.25.88-1.09v-15.46h-3.56v25.89h-2.61V11.27h8.7v18.77Z"/>
    <path class="cls-4" d="m110.3,10.01v11.8c0,9.12-1.16,13.28-4.9,17.72l-2.64-2.08c3.28-3.77,4.26-7.36,4.26-15.43v-12.01h3.27Zm10.22,26.38h-3.24V10.78h3.24v25.61Zm10.78,2.46h-3.21V9.48h3.21v29.38Z"/>
    <path class="cls-4" d="m146.23,8.21h3.03v4.05h8.7v-4.05h3.07v4.05h8.28v2.33h-8.28v3.24h-3.07v-3.24h-8.7v3.24h-3.03v-3.24h-7.89v-2.33h7.89v-4.05Zm6.23,14.76c-.03,1.37-.14,2.82-.25,3.84h13.21c-.21,4.26-.56,7.5-1.06,9.37-.56,2.22-1.69,2.92-4.68,2.92-1.48,0-3.49-.1-5.18-.28l-.6-2.61c1.94.28,4.05.46,5.35.46,1.41,0,1.87-.35,2.18-1.65.35-1.37.56-3.17.74-5.88h-10.39c-1.13,5.18-4.68,8.77-10.46,10.6l-1.97-2.11c7.26-2.22,10.11-6.34,10.11-14.65h-10.74v-2.36h13.39v-3.7h2.99v3.7h13.74v2.36h-16.38Z"/>
    <path class="cls-4" d="m184.91,17.33v2.22h-3.38v3.59h4.79v2.29h-4.79v8.88c1.8-.49,3.87-1.09,5.28-1.55l.21,2.29c-4.12,1.48-8.91,2.89-13.03,3.8l-.88-2.54c1.97-.39,3.28-.7,5.46-1.23l.32-.07v-9.58h-5.28v-2.29h5.28v-3.59h-2.85c-.74.92-1.02,1.27-1.87,2.18l-1.48-2.22c2.99-3.31,5.21-7.29,6.55-11.66l2.64.56c-.21.63-.28.81-.42,1.2.07.07.11.07.32.25,1.76,1.44,4.23,3.77,5.85,5.6l-1.69,2.22c-1.69-2.18-3.38-4.02-5.35-5.88-.92,2.04-1.8,3.7-2.96,5.53h7.29Zm-9.44,16.84c-.53-2.68-.99-4.44-1.66-6.3l2.36-.74c.7,1.94,1.23,3.98,1.65,6.38l-2.36.67Zm6.94-1.73c.6-1.55,1.16-3.42,1.69-5.81l2.4.63c-.53,2.18-1.2,4.12-1.97,5.71l-2.11-.53Zm12.08-24.62h2.85v7.29h6.52v2.36h-6.52v5.71h7.43v2.4h-7.04c1.16,4.23,4.19,8.59,7.78,11.17l-1.79,2.43c-3.84-3.24-6.16-6.66-7.47-10.85-.99,4.76-3.88,8.81-7.99,11.31l-2.01-2.15c4.54-2.47,7.29-6.52,8.07-11.91h-6.62v-2.4h6.8v-5.71h-3.63c-.46,1.58-1.02,2.92-1.66,4.12l-2.4-1.34c1.41-2.54,2.33-5.57,2.96-9.65l2.5.42c-.25,1.59-.39,2.43-.78,4.09h2.99v-7.29Z"/>
    <polygon class="cls-4" points="225.73 34.24 239.44 34.24 239.44 36.88 208.93 36.88 208.93 34.24 222.35 34.24 222.35 14.69 210.8 14.69 210.8 12.15 237.67 12.15 237.67 14.69 225.73 14.69 225.73 34.24"/>
    <path class="cls-4" d="m257.54,29.17h-2.75v-1.9h-6.16c-.14,6.2-.88,9.19-2.99,12.36l-2.32-1.83c2.01-3.21,2.54-5.74,2.54-12.19v-8.91h11.7v12.47Zm1.48-16.62h-14.76v-2.43h14.76v2.43Zm-10.36,6.44v6.02h6.13v-6.02h-6.13Zm14.93,3.14c.03,9.26-.99,13.35-4.47,17.61l-2.4-1.9c3.1-3.63,4.02-7.26,4.02-15.25v-11.2l.46-.07.46-.04c3.94-.49,7.57-1.27,10.39-2.29l1.9,2.25c-3.17.95-6.73,1.73-10.35,2.22v5.88h11.91v2.5h-4.23v17.54h-2.96v-17.54h-4.72v.28Z"/>
    <polygon class="cls-4" points="68.96 47.72 71.76 54.39 74.54 47.72 76.11 47.72 72.46 55.9 72.46 61.91 71.02 61.91 71.02 55.9 67.37 47.72 68.96 47.72"/>
    <path class="cls-4" d="m81.15,51.61c1.04,0,1.78.29,2.22.88.45.58.67,1.54.67,2.88v3.83c0,.91.08,1.81.23,2.72h-1.26c-.07-.39-.11-.83-.14-1.32-.22.4-.5.72-.84.97-.49.35-1.05.52-1.67.52-.7,0-1.26-.26-1.68-.78-.42-.52-.63-1.23-.63-2.12,0-1.12.36-2.02,1.09-2.68.73-.66,1.73-1,3.01-1h.58v-.1c0-.98-.12-1.67-.35-2.05-.23-.38-.65-.57-1.24-.57-.8,0-1.63.3-2.49.89l-.23-1.15c.85-.61,1.76-.91,2.72-.91m-1.77,7.53c0,.58.11,1.04.34,1.36.23.33.52.49.88.49.57,0,1.07-.32,1.5-.96.43-.64.65-1.42.65-2.35v-1.08h-.58c-.89,0-1.58.22-2.06.68-.48.45-.72,1.07-.72,1.86"/>
    <path class="cls-4" d="m87.88,51.8h1.24l.02,1.36c.22-.4.5-.74.84-1.03.44-.35.92-.52,1.44-.52.86,0,1.48.35,1.89,1.06.4.71.6,1.82.6,3.35v5.89h-1.26v-5.77c0-1.26-.12-2.13-.35-2.61-.23-.49-.63-.73-1.18-.73-.45,0-.89.37-1.3,1.12-.42.74-.62,1.61-.62,2.59v5.4h-1.3v-10.1Z"/>
    <path class="cls-4" d="m100.05,51.61c1.04,0,1.78.29,2.22.88.45.58.67,1.54.67,2.88v3.83c0,.91.08,1.81.23,2.72h-1.26c-.07-.39-.11-.83-.14-1.32-.22.4-.5.72-.84.97-.49.35-1.05.52-1.67.52-.7,0-1.26-.26-1.68-.78-.42-.52-.63-1.23-.63-2.12,0-1.12.36-2.02,1.09-2.68.73-.66,1.73-1,3.01-1h.58v-.1c0-.98-.12-1.67-.35-2.05-.23-.38-.65-.57-1.24-.57-.8,0-1.63.3-2.49.89l-.23-1.15c.85-.61,1.76-.91,2.72-.91m-1.77,7.53c0,.58.11,1.04.34,1.36.23.33.52.49.88.49.57,0,1.07-.32,1.5-.96.43-.64.65-1.42.65-2.35v-1.08h-.58c-.89,0-1.58.22-2.06.68-.48.45-.72,1.07-.72,1.86"/>
    <path class="cls-4" d="m105.99,56.66c0-1.62.26-2.87.79-3.74.53-.88,1.26-1.31,2.19-1.31.99,0,1.73.48,2.22,1.44l.02-1.24h1.27v9.27c0,3.54-1.15,5.3-3.46,5.3-.8,0-1.6-.21-2.39-.62l.31-1.15c.73.4,1.42.6,2.08.6.73,0,1.26-.32,1.6-.95.34-.63.52-1.68.52-3.13v-.74c-.49.88-1.22,1.32-2.18,1.32-.88,0-1.6-.46-2.15-1.38-.55-.92-.83-2.14-.83-3.67m1.32,0c0,1.2.18,2.15.53,2.85.35.69.81,1.04,1.36,1.04s1-.34,1.37-1.01c.37-.67.56-1.6.56-2.78v-.19c0-1.17-.19-2.09-.56-2.77-.37-.68-.83-1.02-1.37-1.02-.58,0-1.04.33-1.38.99-.34.66-.51,1.62-.51,2.89"/>
    <path class="cls-4" d="m119.06,51.61c1.04,0,1.78.29,2.22.88.45.58.67,1.54.67,2.88v3.83c0,.91.08,1.81.23,2.72h-1.26c-.07-.39-.11-.83-.14-1.32-.22.4-.5.72-.84.97-.49.35-1.05.52-1.67.52-.7,0-1.26-.26-1.68-.78-.42-.52-.63-1.23-.63-2.12,0-1.12.36-2.02,1.09-2.68.73-.66,1.73-1,3.01-1h.58v-.1c0-.98-.12-1.67-.35-2.05-.23-.38-.65-.57-1.24-.57-.8,0-1.63.3-2.49.89l-.23-1.15c.85-.61,1.76-.91,2.72-.91m-1.77,7.53c0,.58.11,1.04.34,1.36.23.33.52.49.88.49.57,0,1.07-.32,1.5-.96.43-.64.65-1.42.65-2.35v-1.08h-.58c-.89,0-1.58.22-2.06.68-.48.45-.72,1.07-.72,1.86"/>
    <polygon class="cls-4" points="126.29 51.8 127.73 59.94 129.11 51.8 130.76 51.8 132.18 59.91 133.6 51.8 135 51.8 132.94 61.91 131.3 61.91 129.92 53.94 128.54 61.91 126.91 61.91 124.85 51.8 126.29 51.8"/>
    <path class="cls-4" d="m140.39,51.61c1.04,0,1.78.29,2.22.88.45.58.67,1.54.67,2.88v3.83c0,.91.08,1.81.23,2.72h-1.26c-.07-.39-.11-.83-.14-1.32-.22.4-.5.72-.84.97-.49.35-1.05.52-1.67.52-.7,0-1.26-.26-1.68-.78-.42-.52-.63-1.23-.63-2.12,0-1.12.36-2.02,1.09-2.68.73-.66,1.73-1,3.01-1h.58v-.1c0-.98-.12-1.67-.35-2.05-.23-.38-.65-.57-1.24-.57-.8,0-1.63.3-2.49.89l-.23-1.15c.85-.61,1.76-.91,2.72-.91m-1.77,7.53c0,.58.11,1.04.34,1.36.23.33.52.49.88.49.57,0,1.07-.32,1.5-.96.43-.64.65-1.42.65-2.35v-1.08h-.58c-.89,0-1.58.22-2.06.68-.48.45-.72,1.07-.72,1.86"/>
    <polygon class="cls-4" points="149.86 47.72 152.66 54.39 155.44 47.72 157.01 47.72 153.36 55.9 153.36 61.91 151.92 61.91 151.92 55.9 148.27 47.72 149.86 47.72"/>
    <path class="cls-4" d="m164.47,60.7c-.65.95-1.5,1.42-2.54,1.42s-1.89-.47-2.53-1.42c-.64-.95-.95-2.23-.95-3.83s.32-2.89.95-3.83c.63-.95,1.48-1.42,2.53-1.42s1.89.47,2.53,1.42c.64.95.95,2.23.95,3.84s-.31,2.89-.93,3.82m-.99-6.86c-.39-.71-.9-1.07-1.55-1.07s-1.16.36-1.55,1.08c-.39.72-.58,1.72-.58,3s.19,2.28.58,3c.39.72.9,1.08,1.55,1.08s1.16-.36,1.56-1.08c.39-.72.59-1.72.58-3,0-1.28-.2-2.29-.59-3.01"/>
    <path class="cls-4" d="m170.66,51.61c.88,0,1.73.26,2.54.78l-.27,1.15c-.82-.51-1.57-.76-2.27-.76-.49,0-.86.14-1.11.41-.25.27-.37.66-.37,1.15,0,.47.11.84.32,1.11.21.27.62.49,1.23.64.93.22,1.62.58,2.06,1.09.44.51.66,1.2.66,2.08s-.25,1.58-.76,2.09-1.19.77-2.06.77c-1.01,0-1.94-.33-2.8-.99l.31-1.15c.84.64,1.67.95,2.49.95.47,0,.83-.15,1.08-.44.25-.29.38-.71.38-1.25s-.11-.92-.34-1.2c-.23-.29-.63-.51-1.22-.66-.92-.22-1.6-.57-2.03-1.06-.43-.49-.65-1.15-.65-1.99s.25-1.49.76-1.98c.51-.49,1.19-.74,2.04-.74"/>
    <path class="cls-4" d="m176.82,47.33h1.3v5.77c.57-1,1.32-1.5,2.23-1.5.85,0,1.48.35,1.89,1.06.4.71.6,1.82.6,3.35v5.89h-1.26v-5.77c0-1.26-.12-2.13-.35-2.61-.23-.49-.63-.73-1.19-.73-.47,0-.9.38-1.31,1.14-.41.76-.61,1.62-.61,2.57v5.4h-1.3v-14.57Z"/>
    <path class="cls-4" d="m186.71,47.33h1.34v2.14h-1.34v-2.14Zm0,4.47h1.34v10.1h-1.34v-10.1Z"/>
    <rect class="cls-4" x="196.08" y="47.72" width="1.46" height="14.18"/>
    <path class="cls-4" d="m201.81,51.81h1.3l.02,1.79c.79-1.33,1.92-1.99,3.38-1.98v1.24c-1.06,0-1.89.4-2.47,1.18-.58.79-.88,1.81-.88,3.07v4.82h-1.36v-10.12Z"/>
    <path class="cls-4" d="m214.59,60.7c-.65.95-1.5,1.42-2.54,1.42s-1.89-.47-2.53-1.42c-.64-.95-.95-2.23-.95-3.83s.32-2.89.95-3.83c.63-.95,1.48-1.42,2.53-1.42s1.89.47,2.53,1.42c.64.95.95,2.23.95,3.84s-.31,2.89-.93,3.82m-.99-6.86c-.39-.71-.9-1.07-1.55-1.07s-1.16.36-1.55,1.08c-.39.72-.58,1.72-.58,3s.19,2.28.58,3c.39.72.9,1.08,1.55,1.08s1.16-.36,1.56-1.08c.39-.72.59-1.72.58-3,0-1.28-.2-2.29-.59-3.01"/>
    <path class="cls-4" d="m218.13,51.8h1.24l.02,1.36c.22-.4.5-.74.84-1.03.44-.35.92-.52,1.44-.52.86,0,1.48.35,1.89,1.06.4.71.6,1.82.6,3.35v5.89h-1.26v-5.77c0-1.26-.12-2.13-.35-2.61-.23-.49-.63-.73-1.18-.73-.45,0-.89.37-1.3,1.12-.42.74-.62,1.61-.62,2.59v5.4h-1.3v-10.1Z"/>
    <polygon class="cls-4" points="230.65 47.72 232.56 59.48 234.46 47.72 236.13 47.72 238.04 59.54 239.92 47.72 241.3 47.72 238.81 61.91 237.18 61.91 235.28 49.39 233.35 61.91 231.72 61.91 229.23 47.72 230.65 47.72"/>
    <path class="cls-4" d="m249.42,60.7c-.65.95-1.5,1.42-2.54,1.42s-1.89-.47-2.53-1.42c-.64-.95-.95-2.23-.95-3.83s.32-2.89.95-3.83c.63-.95,1.48-1.42,2.53-1.42s1.89.47,2.53,1.42c.64.95.95,2.23.95,3.84s-.31,2.89-.93,3.82m-.99-6.86c-.39-.71-.9-1.07-1.55-1.07s-1.16.36-1.55,1.08c-.39.72-.58,1.72-.58,3s.19,2.28.58,3c.39.72.9,1.08,1.55,1.08s1.16-.36,1.56-1.08c.39-.72.59-1.72.58-3,0-1.28-.2-2.29-.59-3.01"/>
    <path class="cls-4" d="m253.31,51.81h1.3l.02,1.79c.79-1.33,1.92-1.99,3.38-1.98v1.24c-1.06,0-1.89.4-2.47,1.18-.58.79-.88,1.81-.88,3.07v4.82h-1.36v-10.12Z"/>
    <polygon class="cls-4" points="262.45 47.33 262.45 55.83 265.79 51.8 267.49 51.8 263.33 56.6 267.52 61.91 265.85 61.91 262.45 57.44 262.45 61.91 261.15 61.91 261.15 47.33 262.45 47.33"/>
    <path class="cls-4" d="m272.71,51.61c.88,0,1.73.26,2.54.78l-.27,1.15c-.82-.51-1.57-.76-2.27-.76-.49,0-.86.14-1.11.41-.25.27-.37.66-.37,1.15,0,.47.11.84.32,1.11.21.27.62.49,1.23.64.93.22,1.62.58,2.06,1.09.44.51.66,1.2.66,2.08s-.25,1.58-.76,2.09c-.51.51-1.19.77-2.06.77-1.01,0-1.94-.33-2.8-.99l.31-1.15c.84.64,1.67.95,2.49.95.47,0,.83-.15,1.08-.44.25-.29.38-.71.38-1.25s-.11-.92-.34-1.2c-.23-.29-.63-.51-1.21-.66-.92-.22-1.6-.57-2.03-1.06-.43-.49-.65-1.15-.65-1.99s.25-1.49.76-1.98c.51-.49,1.18-.74,2.04-.74"/>
    <g class="cls-5">
      <rect class="cls-3" x="0" y="22.02" width="49.61" height="47.6"/>
    </g>
    <g class="cls-6">
      <rect class="cls-1" width="49.61" height="30.08"/>
    </g>
  </g>
</svg>