<!--?xml version="1.0" encoding="utf-8"?-->
<!-- Generator: Adobe Illustrator 18.1.1, SVG Export Plug-In . SVG Version: 6.00 Build 0)  -->

<svg version="1.1" id="_x32_" xmlns="http://www.w3.org/2000/svg" xmlns:xlink="http://www.w3.org/1999/xlink" x="0px" y="0px" viewBox="0 0 512 512" style="width: 256px; height: 256px; opacity: 1;" xml:space="preserve">
<style type="text/css">
	.st0{fill:#4B4B4B;}
</style>
<g>
	<path class="st0" d="M431.792,329.65c-22.578-24.188-46.287-56.09-65.735-96.995c-2.252-4.748-4.497-9.566-6.593-14.55
		c-13.577-31.66-24.588-68.388-30.937-110.658l-1.53-10.289H184.995l-1.523,10.289c-6.349,42.348-17.359,79.077-30.945,110.736
		c-2.166,4.984-4.34,9.811-6.584,14.472c-19.769,41.548-43.878,73.694-66.709,98.038c-21.048,22.344-41.06,38.095-55.768,48.14
		c-7.315,4.984-13.342,8.602-17.438,10.932c-2.009,1.201-3.618,2.009-4.662,2.567l-1.123,0.565L0,393.062l1.844,3.853l8.524,17.926
		c0.965-0.487,41.547-19.934,86.392-67.588c22.5-23.866,45.966-54.968,65.979-94.107l20.734,25.31l36.243-44.2l36.243,44.2
		l36.242-44.2l36.329,44.2l20.735-25.31c20.013,39.139,43.479,70.241,65.979,94.107c44.844,47.654,85.426,67.101,86.392,67.588
		L512,393.062C511.756,392.898,473.584,374.415,431.792,329.65z M328.528,252.582l-36.329-44.278l-36.242,44.2l-36.243-44.2
		l-36.243,44.2l-12.863-15.673c15.108-33.033,27.571-71.441,35.042-115.563h100.777c7.394,44.122,19.848,82.53,34.955,115.563
		L328.528,252.582z" style="fill: rgb(75, 75, 75);"></path>
</g>
</svg>
