<?xml version="1.0" encoding="UTF-8"?>
<svg id="_レイヤー_2" data-name="レイヤー 2" xmlns="http://www.w3.org/2000/svg" viewBox="0 0 1153.12 719.87">
  <defs>
    <style>
      .cls-1 {
        fill: #1d1d1b;
        stroke-width: 0px;
      }
    </style>
  </defs>
  <g id="_Слой_1" data-name="Слой 1">
    <path class="cls-1" d="m1151.11,719.87c-.41,0-.82-.12-1.18-.38l-360.95-263.48c-.08-.06-.16-.13-.24-.2-14.13-14.2-28.65-30.47-44.39-49.73-5.17-6.33-12.99-13.4-24.65-19.25-21.1,6.77-43.54,13.33-60.01,16.5-38.96,7.49-45.98,8.84-78.75,31.19-5.84,3.98-9.4,4.99-11.55,3.29-1.61-1.28-1.79-3.57-.53-6.84,3.23-8.38,16.27-24.33,34.09-37.36,15.58-11.4,40.13-24.59,68.49-22.74,20.66,1.35,36.49,5.86,48.57,11.66,9.24-2.98,18.19-5.99,26.22-8.75,17.12-5.88,32.92-14.72,46.95-26.26,29.36-24.14,78.62-68.74,78.62-96.15,0-23.32-10.35-34.39-18.92-37.17-1.55,2.51-3.3,4.24-4.79,5.23-2.25,1.49-4.47,1.76-6.06.72-.86-.56-2.22-1.96-1.69-5.11.62-3.72,4.47-5.94,9.58-5.51.29.02.58.06.88.1,2-4.57,3.01-11.09,1.54-19.41-2.77-15.72-15.67-30.08-24.9-35.44-.98,2.45-2.32,4.25-3.83,5.43-2.2,1.72-4.76,2.02-6.69.77-2.13-1.38-2.89-4.22-2.05-7.59.8-3.19,3.19-4.95,6.55-4.83,1.03.04,2.17.26,3.37.65.9-5.56.32-14.07-3.87-26.18-7.88-22.77-21.76-26.95-27.36-27.69-.06,0-.13-.02-.19-.02-2.96,5.39-6.49,8.49-9.69,8.51h-.02c-1.89,0-3.52-1.05-4.6-2.97-.95-1.7-.86-3.63.26-5.28,1.87-2.76,6.37-4.42,11.52-4.42.04,0,.09,0,.13,0,4.16-9.2,7.39-26.48-2.86-42.71-10.18-16.12-30.53-24.13-46.96-26.42.11,3.1-2.23,6.53-7.09,10.42-10.38,8.31-15.67,3.95-17.04,2.42-3.34-3.73-2.93-10.6.87-14.4,1.8-1.8,5.47-2.7,9.74-3.02-3.88-.65-9.08-1.07-15.83-1.07-17.63,0-35.36-7.27-42.16-10.4-2.32-1.06-4.88-1.52-7.41-1.32-6.87.55-12.08,1.44-15.91,2.47l28.91,23.13c14.33,4.06,27.06,8.27,29.16,16.27,1.13,4.31-.89,8.97-6.18,14.26-12.18,12.18-34.59,13.61-51.25,12.66-17.78-1.01-34.21-5.02-36.39-6.44-1.04-.68-1.2-1.77-.89-2.56.68-1.75,2.57-1.44,4.95-1.04,8.45,1.41,14.52-1.94,18.13-4.99.07-.06.14-.12.21-.18-.32-1.39-.44-2.95-.34-4.66.46-8.19,6.04-20.13,10.48-20.13.02,0,.05,0,.07,0,1.17.03,3.12.72,3.12,4.93,0,7.39-3.34,15.3-8.68,20.93.9,1.49,2.4,2.29,4.59,2.47,11.14.93,29.09-3.06,41.77-9.28,1.72-.84,2.86-2.48,3.07-4.37.21-1.92-.53-3.71-2.04-4.91l-11.65-9.32c-1.12-.32-2.24-.63-3.36-.94-12.17-3.4-24.74-6.92-31.48-12.53-4.08-3.4-5.66-6.68-4.7-9.72.55-1.73,1.93-3.25,4.13-4.56-3.62-1.81-7.74-2.5-11.8-1.92l-28.61,4.09c1.51.78,2.66,2.17,3.11,3.86,1.29,4.92,3.96,21.38-15.82,26.66-2.26.6-4.4.87-6.43.87-15.16,0-24.06-15.22-27.42-22.44-.66-1.41-.61-3.01.13-4.38.74-1.37,2.05-2.28,3.59-2.5l10.68-1.53-13.32-1.25c-1.61-.15-3.19-.09-4.69.18-10.12,1.83-17.33,6.2-22.4,11.92,2.32-.55,4.83-.92,7.53-1.08,8.38-.52,16.35,4.33,19.82,12.03,2.71,6,9.28,14.49,25.23,20.87,27.36,10.94,42.52,26.9,45.28,29.98.69.77,1.01,1.8.9,2.82-.33,2.84-1.95,12.42-9.25,16.62-3.29,1.9-7.23,2.42-11.74,1.58-1.89-.05-4.23-.44-7.05-1.16l15.89,6.95c1.85.55,3.55,1.11,5.09,1.66,5.78,2.04,9.58,7.49,9.46,13.58-.21,9.95-2.59,33.28-20.1,34.99-2.38.23-6.89-.38-12.83-1.59.31.15.61.29.91.43,5.29,1.99,9.63,4.24,12.19,5.69,2.41,1.36,3.74,4,3.38,6.73-1.4,10.71-6.49,35.91-23.58,38.54-11.83,1.82-33.65-4.67-52.89-10.4-13.09-3.9-25.46-7.58-31.41-7.58-5.28,0-10.78-.18-16.33-.55-8.17-.53-14.94-6.26-16.85-14.24-1.41-5.91-2.38-13.86-1.02-22.79-3.39,3.75-5.41,7.91-6.01,12.41-1.41,10.58,5.25,20.84,9.35,26.01,2.2,2.78,2.89,6.46,1.83,9.85-.3.98-.58,2.15-.8,3.54,2.42-1.62,4.71-2.92,6.54-3.89,2.91-1.54,6.09-2.42,9.45-2.63,16.76-1.02,37.08-1.31,46.27,2.26l.42.05c3.98.5,7.41,2.77,9.42,6.25,1.99,3.45,2.25,7.52.72,11.17-4.42,10.52-18.6,17.89-33.62,25.68-2.31,1.2-4.63,2.41-6.92,3.63-26.87,14.33-76.64,50.58-91.25,61.34-28.14,20.74-136.98,80.54-181.81,102.19-43.03,20.77-226.56,101.22-228.41,102.03-1.01.44-2.19-.02-2.63-1.03-.44-1.01.02-2.19,1.03-2.63,1.85-.81,185.31-81.22,228.27-101.97,44.71-21.58,153.18-81.18,181.17-101.8,10.69-7.87,40.1-29.32,65.77-45.98-1.47-1-3.36-2.61-5.93-4.92-15.93-14.34-18.84-22.6-12.45-35.38,2.18-4.36,5.81-8.13,9.63-11.2.19-3.39.71-5.98,1.31-7.9.66-2.13.23-4.44-1.15-6.18-4.49-5.67-11.79-16.97-10.18-29.02.95-7.08,4.8-13.37,11.45-18.73.83-2.93,1.93-5.93,3.36-8.96,1.61-3.42,1.39-7.38-.59-10.59-4.35-7.06-10.81-20.7-5.2-32.76,2.38-5.12,6.64-9.39,12.74-12.79,2.52-5.24,6.45-10.2,12.36-14.37,2.16-1.53,3.55-3.94,3.8-6.62.9-9.65,4.94-29.88,22.8-37.92,5.48-8.48,14.28-15.55,28.29-18.08,1.86-.33,3.8-.41,5.78-.23l29.93,2.81L625.61.24c5.9-.84,11.93.56,16.83,3.87,4.67-1.62,11.18-2.77,19.49-3.44,3.22-.26,6.46.32,9.4,1.67,6.57,3.02,23.65,10.03,40.49,10.03,14.58,0,23.59,1.76,27.34,5.36.1.01.2.02.29.03,8.59.96,37.73,5.84,52.06,28.53,9.6,15.2,8.87,32.91,3.69,45.23,6.9,1.22,21.36,6.64,29.51,30.18,4.48,12.94,5.19,22.55,3.89,29.13,10.78,5.76,24.67,21.57,27.69,38.67,1.61,9.11.49,16.09-1.57,21.09,9.79,3.58,21.1,15.85,21.1,40.75,0,29.05-50.17,74.65-80.08,99.24-14.41,11.85-30.62,20.91-48.19,26.95-6.96,2.39-14.6,4.96-22.53,7.55,10.34,5.76,17.52,12.42,22.44,18.44,15.62,19.11,30.02,35.25,44.02,49.33l360.82,263.39c.89.65,1.09,1.9.44,2.79-.39.54-1,.82-1.62.82Zm-485.07-345.19c-39.18,0-72.51,28.83-86.45,46.57-5.83,7.42-7.54,11.88-7.56,13.31.67-.07,2.56-.56,6.67-3.36,33.46-22.81,41.52-24.36,80.25-31.81,15.23-2.93,35.67-8.81,55.39-15.06-11.11-4.72-25.23-8.31-43.15-9.48-1.73-.11-3.44-.17-5.15-.17Zm-194.45-164.91c-.07,4.64.53,10.8,2.43,18.87,1.89,8.02,4.07,14.71,5.66,19.61,1.09,3.35,1.87,5.74,2.23,7.5,7.52-4.77,14.55-8.99,20.48-12.15,2.3-1.23,4.63-2.44,6.96-3.65,13.72-7.13,27.91-14.5,31.77-23.69,1.05-2.49.87-5.27-.49-7.62-.36-.63-.79-1.2-1.28-1.7-1.6,11.05-4.85,20.92-25.52,20.92-4.74,0-8.28-1.46-10.52-4.35-2.96-3.81-3.44-9.77-1.42-17.72.39-1.53,1.15-3.05,2.32-4.34-4.92.06-10.27.27-15.98.61-2.79.17-5.42.9-7.82,2.17-2.39,1.26-5.62,3.14-8.82,5.53Zm-3.94,3.28c-2.44,2.28-4.61,4.87-6.03,7.71-5.48,10.95-2.99,17.53,11.55,30.62,2.05,1.85,3.49,3.06,4.49,3.84-.44-1.57-1.12-3.67-1.79-5.73-1.61-4.96-3.82-11.75-5.75-19.93-1.56-6.61-2.27-12.06-2.47-16.51Zm45.75-11.17c-4.04,0-6.83,1.76-7.63,4.9-1.17,4.6-2,10.81.7,14.28,1.47,1.88,3.87,2.8,7.36,2.8,17.7,0,20.11-7.34,21.59-17.71.03-.19.03-.41-.3-.76-.37-.4-.94-.78-1.69-1.12l-18.09-2.26c-.68-.08-1.33-.13-1.94-.13Zm335.17,11.59c-2.38.02-4.05.86-4.28,2.22-.1.59-.06.92-.02,1.07.35-.01,1.34-.28,2.73-1.56.54-.5,1.07-1.08,1.57-1.74Zm-375.94-65.21c-2.66,10.39-1.67,19.75-.09,26.38,1.5,6.27,6.81,10.76,13.22,11.18,5.46.36,10.87.54,16.07.54,6.53,0,18.59,3.59,32.55,7.74,18.84,5.61,40.2,11.96,51.14,10.28,14.82-2.28,19.23-27.45,20.22-35.1.14-1.1-.4-2.18-1.38-2.73-.37-.21-.77-.43-1.21-.67.3,6.05-.66,18.81-12.53,27.61-2.84,2.11-6.73,2.42-9.91.8l-19.79-10.08c-4.9-2.5-7.71-7.83-6.97-13.27,1.43-10.55,7.36-16.79,16.7-17.56,1.52-.13,3.06-.16,4.59-.11-1.68-.69-3.25-1.31-4.65-1.82-1.9-.51-3.84-1.04-5.81-1.58-5.26-.04-53.62-6.82-74.21-9.73-3.07-.44-6.19.27-8.77,2l-8.86,5.9c-.1.08-.21.15-.31.23Zm101.25,8.98c-.96,0-1.93.04-2.88.12-7.49.62-11.89,5.37-13.07,14.11-.51,3.76,1.43,7.44,4.82,9.17l19.79,10.08c1.84.94,4.08.76,5.71-.45,11.82-8.76,11.17-22.4,10.75-26.09-1.99-.99-4.2-2.06-6.5-3.16-5.54-2.06-12.1-3.78-18.62-3.78Zm247.22-4.7c-1.56,0-2.07.72-2.34,1.8-.45,1.8-.15,2.94.35,3.26.43.28,1.25.06,2.04-.56.93-.73,1.9-2.04,2.65-3.99-.92-.31-1.76-.48-2.51-.51-.07,0-.13,0-.19,0Zm-249.51-4.97c16.3,4.38,29.62,7.41,34.09,6.98,14.32-1.39,16.3-22.21,16.49-31.09.09-4.36-2.63-8.27-6.79-9.73-.27-.09-.54-.19-.82-.28,2.36,7.63,5.56,24.51-8.45,33.07-4.18,2.55-9.3,3.11-14.05,1.53l-17.82-5.94c-6.48-2.16-10.84-8.44-10.6-15.27.5-14.82,7.32-22.98,19.2-22.98,3.41,0,6.74.21,9.93.56l-6.14-2.69-74.88-24.48c-1.74-.57-3.61-.73-5.42-.46-9.79,1.46-17.72,3.75-23.74,6.85-4.77,10.89-3.17,23.01-1.23,30.71,1.08,4.3,4.37,7.77,8.59,9.05,2.88.88,6.45,1.97,10.52,3.22,16.52,5.08,42.68,13.11,64.97,19.27,1.43.15,3.59.77,6.16,1.68Zm11.24-39.71c-9.65,0-14.77,6.43-15.2,19.11-.17,5.07,3.06,9.73,7.87,11.34l17.82,5.94c3.63,1.21,7.53.79,10.7-1.15,13.92-8.5,7.43-27.09,5.8-31.16-7.28-2.13-16.75-4.08-27-4.08Zm-94.03,28.14c.78,0,1.56.05,2.34.16,17.32,2.45,35.65,5,49.73,6.86-15.11-4.45-30.07-9.04-41.58-12.58-4.07-1.25-7.63-2.34-10.51-3.22-5.55-1.69-9.88-6.25-11.3-11.9-1.8-7.15-3.31-17.81-.4-28.21-3.07,2.39-5.33,5.11-6.75,8.18-4.82,10.36,1.05,22.6,4.98,28.98,2.69,4.37,2.99,9.75.8,14.4-.54,1.15-1.03,2.3-1.48,3.43l4.97-3.31c2.75-1.83,5.95-2.79,9.21-2.79Zm299.96-40.76c-3.23.35-5.41,1.52-6.12,2.56-.31.46-.26.75-.08,1.08.52.92.94.93,1.11.92,1.09,0,3.04-1.45,5.08-4.56Zm-204.87-29.46c2.99,0,6.39.74,10.17,2.22,11.02,4.31,17.28,9.26,19.13,15.12,1.74,5.54-.72,10.82-3.65,15.48,1.07-.24,2.06-.62,2.97-1.14,5.54-3.19,6.93-10.87,7.25-13.44-2.94-3.26-17.5-18.34-43.66-28.81-17.19-6.88-24.38-16.27-27.39-22.94-2.79-6.19-9.2-10.09-15.94-9.68-4.53.27-8.44,1.21-11.83,2.63-5.18,8.62-6.95,18.99-7.26,28.2-.23,7.01,4.09,13.31,10.76,15.67,7.74,2.74,18.01,7.1,28.88,11.72,10.16,4.32,20.62,8.76,29.63,12.14-11.98-9.21-11.16-18.34-11.11-18.82,0-.09.03-.17.05-.26.04-.18,1.12-4.35,5.55-6.65,1.87-.97,4.03-1.45,6.45-1.45Zm-8.07,8.93c-.02,1.33.43,12.68,21.32,21.82,2.31,1.01,4.45,1.7,6.43,2.06,1.04-.03,1.36-.26,1.43-.32,3-4.51,5.83-9.32,4.38-13.94-1.44-4.57-7.08-8.81-16.77-12.6-5.6-2.19-10.18-2.52-13.26-.97-2.48,1.25-3.34,3.37-3.53,3.96Zm-67.77-2.05c1.67,0,3.35.26,4.94.78l56.47,18.46c-5.3-2.17-11.19-4.64-17.69-7.4-10.82-4.59-21.03-8.93-28.66-11.64-8.32-2.95-13.71-10.81-13.42-19.58.23-6.92,1.38-16.01,5.08-24.56-11.56,8.55-14.47,23.73-15.19,31.47-.36,3.85-2.35,7.31-5.47,9.52-3.44,2.43-6.13,5.17-8.22,8.09,5.56-2.17,12.18-3.83,19.85-4.97.76-.11,1.54-.17,2.31-.17Zm117.3-5.84c19.19,3.56,54.69,6.5,70.07-8.88,4.13-4.14,5.86-7.64,5.13-10.41-1.15-4.4-8.15-7.69-16.91-10.58l3.9,3.12c2.56,2.05,3.88,5.22,3.52,8.47-.36,3.27-2.33,6.08-5.29,7.53-13.24,6.5-32.1,10.66-43.86,9.68-3.21-.27-5.66-1.56-7.24-3.72-2.34,1.86-5.46,3.73-9.32,4.8Zm16.98-28.41c-2.13,2.71-5.59,10-5.71,15.94,3.55-4.63,5.7-10.46,5.71-15.94Zm-59.84-27.98l-27.19,3.88c-.38.05-.56.3-.64.45-.08.14-.18.44-.02.78,3.39,7.27,13.01,23.7,29.19,19.39,15.2-4.05,14.66-15.39,12.99-21.78-.22-.84-.97-1.47-1.86-1.55l-12.46-1.17Zm149.1,10.87c-6.07,0-9.86,1-10.85,1.98-2.31,2.31-2.67,6.72-.72,8.9,2.08,2.32,6.4,1.25,11.56-2.88,4.07-3.25,6.06-6.07,5.48-7.72,0-.01,0-.03-.01-.04-1.98-.17-3.8-.24-5.46-.24Zm-89.75-12.66c-2.55,1.1-3.86,2.25-4.18,3.25-.56,1.77,1.92,4.17,3.45,5.44,5.09,4.24,14.45,7.32,24.27,10.14l-23.53-18.83Z"/>
  </g>
</svg>