<?xml version="1.0" encoding="UTF-8"?>
<svg id="_レイヤー_2" data-name="レイヤー 2" xmlns="http://www.w3.org/2000/svg" xmlns:xlink="http://www.w3.org/1999/xlink" viewBox="0 0 2080.37 1545.03">
  <defs>
    <style>
      .cls-1 {
        clip-path: url(#clippath);
      }

      .cls-2 {
        stroke-width: 0px;
      }

      .cls-2, .cls-3 {
        fill: none;
      }

      .cls-3 {
        fill-rule: evenodd;
        stroke: #363435;
        stroke-linecap: round;
        stroke-linejoin: round;
        stroke-width: 8.4px;
      }
    </style>
    <clipPath id="clippath">
      <rect class="cls-2" width="2080.37" height="1545.03"/>
    </clipPath>
  </defs>
  <g id="Layer_1" data-name="Layer 1">
    <g class="cls-1">
      <path class="cls-3" d="m-572.75,1143.64c56.87-13.21,138.94-19.95,165.11-78.09,30.16-66.97,70.59-163.34,37.59-130.33-49.17,49.17-72.47,44,23.29,139.75,95.76,95.76,375.27,204.45,471.02,222.57,95.76,18.12,535.72-292.45,592.66-320.92,56.93-28.47,100.93-41.41,77.64-93.16-23.29-51.76-137.16-165.63-137.16-152.7s-7.76,23.85,44-1.01c51.76-24.87,72.88-87.88,99.53-61.23,26.65,26.64,121.74,128.25,94.56,155.41-27.17,27.17-103.52,56.94-67.29,20.71,36.23-36.23,162.54-108.06,189.75-159.78,27.22-51.71,34.02-106.15,34.02-189.16s10.89-193.25-19.06-193.25-36.74,142.9-36.74,111.59,57.73-74.85,57.73-129.29,2.15-108.87-18.26-88.45c-20.42,20.42-31.99,105.47-16.34,89.82,15.66-15.66,23.14-127.92,5.45-110.24-17.69,17.7-29.94,61.24-48.99,137.45-19.05,76.22-46.28,134.73-46.28,152.43s-42.86,135.4-63.96,156.5c-21.09,21.09-167.39,108.87-266.73,156.5-99.35,47.63-303.49,149.7-322.54,156.5-19.05,6.8-23.82,46.95-32.66,38.1-8.84-8.85-34.02-24.49-42.19-16.33-8.17,8.16-27.22,42.19-27.22,35.39s-10.89-34.02-23.14-21.78c-12.25,12.25-65.32,103.43-31.3,103.43s42.19-78.93,1.36-96.62c-40.83-17.7-253.13-110.24-304.85-208.22-51.71-97.99-57.16-182.38-78.93-100.72-21.78,81.67-46.28,244.98,97.98,310.3,144.26,65.33,168.75,46.28,149.7,100.71-19.05,54.44-43.55,89.82,35.38,89.82s148.34-23.13,171.47,0c23.14,23.14-70.76,73.49,76.22,16.33,146.97-57.15,479.04-217.74,446.38-285.78-32.66-68.05-152.42-54.44-68.04-54.44s228.84-55.07,283.06-109.3c54.23-54.22,78.93-111.16,57.16-89.39,0,0,50.86,60.18,90.35,99.68,39.5,39.5,66.48,41.43,92.49,15.4,26.01-26.01,57.81-93.32,57.81-93.32,0,0-63.59-70.45-63.59-124.4s25.05-144.51-3.85-144.51-50.09,28.9-50.09,77.08-36.62,82.85-36.62,82.85c0,0-4.81,64.54,5.79,75.14,10.6,10.61-47.97-38.45-36.61-152.21,11.37-113.75,5.78-217.74,23.12-175.34,17.35,42.39,5.79,163.78,5.79,115.6s-6.75-184.01,17.33-159.92c24.09,24.08,11.57,181.12,11.57,136.8s-17.34-196.53,7.7-171.49c25.05,25.05,25.05,117.54,25.05,158s7.71,158,25.05,198.46c17.34,40.46,58.77,79.96,34.69,104.05-24.08,24.08-65.51,60.43-65.51,75.14s9.63,44.32,32.75,67.45c23.13,23.12,138.74-73.22,127.17-113.68-11.56-40.47-33.63-46.29-33.63-35.4s291.23,182.37,337.5,228.64c46.28,46.27,92.54,51.71,92.54,81.66s-14.97-55.81,13.61-27.23c28.58,28.58,54.44,51.72,62.61,43.56,8.16-8.16-42.19-77.58-13.61-49,28.57,28.58,141.53-66.38,195.97-96.32,54.43-29.94,159.23-123.85,179.64-144.25,20.41-20.42-32.67-166.04-32.67-114.32s35.39,171.48,81.66,291.24c46.26,119.77,88.98,383.97,57.16,352.15-31.83-31.82-16.34-90.85-35.39-148.01-19.05-57.15-97.99-187.81-78.94-103.43,19.06,84.38,63.97,142.9,35.39,114.32-28.58-28.57-108.87-54.43-76.21-21.77,32.66,32.67,117.04,65.33,117.04,92.54s-424.6,128.99-511.7,118.1c-87.1-10.9-170.11-69.42-215.02-114.33-44.91-44.91-57.16-62.59-81.66-87.09-24.49-24.5-40.82,0-68.05-65.33-27.21-65.33-166.02-171.48-130.64-171.48s114.32,190.53,187.81,176.92c73.49-13.61,117.04-95.26,130.64-16.33,13.61,78.93,87.1,182.36,182.36,217.74,95.26,35.38,255.86-106.15,155.15-106.15s57.15,83.32,146.97,83.32,286.73-98.55,298.31-32.67c15.13,86.18,194.52,95.74,265.13,90.87"/>
    </g>
  </g>
</svg>