<?xml version="1.0" encoding="utf-8"?>
<!-- Generator: Adobe Illustrator 27.5.0, SVG Export Plug-In . SVG Version: 6.00 Build 0)  -->
<svg version="1.1" id="_レイヤー_2" xmlns="http://www.w3.org/2000/svg" xmlns:xlink="http://www.w3.org/1999/xlink" x="0px"
	 y="0px" viewBox="0 0 1526.1 58.6" style="enable-background:new 0 0 1526.1 58.6;" xml:space="preserve">
<style type="text/css">
	.st0{fill:none;stroke:#231815;stroke-width:0.85;stroke-miterlimit:10;}
</style>
<g id="_レイヤー_1-2">
	<path d="M297.9,57.9c0.6,0,1.2,0,1.7,0c20.9,0,41.9-0.1,62.8,0c3.6,0,6.6-0.7,9.5-2.8c2.2-1.7,4.6-3,6.9-4.5
		c0.3-0.2,0.9-0.2,1.3-0.1c0.4,0.1,0.7,0.4,1.2,0.6c0.9-1.5,1.7-2.8,2.5-4.2c1.2-2.1,2.4-4.2,3.6-6.2c0.5-0.8,1.1-1.3,2.1-1.2
		c1.4,0.2,2.2-0.3,2.9-1.6c0.7-1.3,1.6-2.4,2.5-3.6c0.5-0.8,1-0.9,1.8-0.3c1.2,0.9,2.4,1.7,3.7,2.6c0.2-0.5,0.4-0.8,0.6-1.2
		c0.8-1.2,1.7-2.2,3.4-1.9c1.5,0.3,2.4-0.3,3-1.8c0.6-1.6,1.6-2.5,3.5-2.2c1.8,0.3,3.2-0.1,4.2-1.8c0.5-0.9,1.6-1.4,2.7-1.2
		c2.8,0.5,4.8-0.6,6.6-2.7c1.9-2.3,4.2-4.3,6.2-6.4c0.8-0.8,1.6-1.2,2.7-0.8c0.7,0.3,1.5,0.3,2.3,0.5c1.4,0.2,2.2-0.9,2.7-1.8
		c0.6-1.2,1.4-1.4,2.6-1.3c1.8,0.1,3.6,0.2,5.4,0.2c0.9,0,1.5,0.3,1.7,1.1c0.4,1.6,1.2,2.6,3.1,2.6c1.6,0,3.3,0.3,4.9,0.7
		c1,0.2,2.2,0.7,3,1.4c2.5,2.4,5,4.9,7.3,7.5c1,1.1,2.3,1.9,3.7,2.1c3.2,0.5,6,1.8,8.8,3.3c1.2,0.7,2.4,0.9,3.7,0.9
		c4.9-0.3,9.7-0.5,14.6-0.8c0.3,0,0.7,0,1,0c4.8-0.5,9.4,0.9,13.8,2.4c0.7,0.2,1.1,0.1,1.6-0.5c0.9-1.4,1.9-2.8,2.9-4.2
		c0.5-0.6,0.9-0.8,1.8-0.5c0.8,0.4,1.9,0.4,2.8,0.4c0.4,0,0.9-0.6,1.2-1c0.7-1.3,1.1-2.7,1.8-4c0.8-1.4,1.1-1.4,2.4-0.7
		c0,0,0.1,0,0.1,0.1c1.9,1.1,1.8,1,3.4-0.6c0.5-0.5,1.4-0.8,2.1-0.9c0.8-0.1,1.8,0,2.6,0.2c1.2,0.4,1.8-0.2,2.6-0.9
		c3.1-3.1,2-3,5.6-0.5c0.9,0.7,1.7,0.8,2.7,0.2c1.1-0.6,2.3-1.2,3.4-1.8c0.7-0.4,1.2-0.3,1.8,0.2c1.7,1.3,3.5,2.5,5.2,3.9
		c0.8,0.6,1.5,0.7,2.1-0.2c0.6-0.8,1.3-0.8,2.1-0.3c2.9,1.9,5.8,1.8,8.8,0.3c1-0.5,2.2-0.7,3.3-1.1c0.9-0.3,1.6-0.1,2.3,0.4
		c3,1.9,6,3.8,8.9,5.7c0.8,0.5,1.5,0.6,2.4,0.2c1.5-0.7,3.1-1.2,4.6-1.9c1.7-0.9,3.5-0.6,5.1,0c2.7,1.1,5.2,0.2,7.6-0.5
		c1.6-0.5,2.9-0.4,4.4,0.2c6.2,2.6,12.4,5,18.6,7.5c6.8,2.7,13.5,5.3,20.3,8c1,0.4,1.9,1,2.8,1.7c0.8,0.6,1.5,0.6,2.4,0.2
		c2.4-1.3,4.8-2.6,7.3-3.7c1.2-0.5,2.5-0.8,3.8-0.9c2.3-0.1,4.7,0.1,7-0.1c2.5-0.2,4.9,0.4,7.3,1.1c5.7,1.6,11.4,3.1,17.1,4.7
		c4.3,1.2,8.5,2.4,12.8,3.6c3.1,0.9,6.2,1.7,9.4,2.5c1.5,0.4,2.8,1.1,3.8,2.2c0.7,0.7,1.4,1.3,2,2.1c1.6,2.2,3.8,2.3,6.1,1.7
		c-0.7-1.9-0.5-3.3,0.5-4c0.8-0.5,1.3,0.1,1.8,0.7c1,1.2,1,1.7-0.5,3.4h71.5c-0.5-0.8-0.9-1.3-1.3-1.8c-1-1.2-0.4-4,1-4.5
		c0.3-0.1,0.9,0.1,1.1,0.4c1.2,1.4,1.1,3.1,0,4.6c-0.3,0.4-0.3,0.9-0.5,1.3c0.4,0.1,0.8,0.3,1.3,0.3c1.5,0,3.1,0,4.6,0
		c0.8,0,1.1-0.4,1-1.2c-0.1-3-0.1-6-0.2-8.9c0-0.8,0.2-1.2,1.1-1.2c4.4,0.1,8.8,0.1,13.2,0.1c0.8,0,1.1,0.3,1.1,1.1
		c-0.1,2.9,0,5.9-0.1,8.8c0,1,0.3,1.3,1.2,1.3c1.2,0,2.5,0,3.7,0c2.7,0,5.3,0,8,0c1.8,0,1.8,0,1.8-1.8c-0.1-4.7-0.1-9.4-0.3-14
		c0-1.3,0.4-1.6,1.6-1.5c1.3,0.1,2.6,0,3.9,0c0.8,0,1.2,0.2,1.2,1.1c-0.1,4.9-0.1,9.9-0.2,14.8c0,1.2,0.3,1.6,1.5,1.6
		c0.1,0,0.2,0,0.2,0c2.4,0.1,2.4,0,2.4-2.3c0-6.5,0-13.1,0-19.7c0-0.8,0-1.7,0-2.7c4.3,0,8.4,0,12.5,0c2.9,0,3,0,3,3
		c0,1.3,0,2.7-0.1,4c0,0.8,0.3,1.1,1.1,1.1c1.4,0,2.7,0,4.1,0c0.5,0,1,0,1,0.9c-0.1,3.9-0.1,7.8-0.1,11.7c0,1,0,1.9-0.1,2.9
		c0,0.7,0.3,1.1,1,1.1c0.7,0,1.1-0.3,1-1.1c-0.1-3.7-0.1-7.5-0.2-11.2c0-1.1,0.3-1.5,1.4-1.5c3.1,0.1,3.1,0,3-3.1
		c-0.1-2.3-0.1-4.6-0.1-7c0-0.5,0-1.1,0.8-1.1c5.2,0,10.3,0,15.5,0v15.8c1.8,0,3.5,0,5.2,0c0.2,0,0.5-0.6,0.6-0.9
		c0.2-3,0.3-6,0.5-9.1c0.3-6.2,0.6-12.5,0.8-18.7c0-0.3,0-0.6-0.2-0.8c-0.3-0.9-0.7-1.8-1-2.7c-0.3-0.8-0.2-1.5,0.8-1.7
		c0.2-0.1,0.5-0.6,0.5-0.9c-0.1-2.1,0.8-4.2-0.3-6.2c0-0.1-0.1-0.3,0-0.4c1.2-2.1,0.3-4.4,0.8-6.6c0.1-0.3,0.3-0.6,0.5-0.9
		c0.2,0.3,0.6,0.6,0.6,0.9c0.1,1.2,0,2.4,0.1,3.6c0.1,0.9,0.4,1.8,0.5,2.6c0,0.3,0.2,0.6,0,0.8c-1,2-0.4,4.1-0.2,6.2
		c0,0.2,0.2,0.5,0.4,0.7c0.3,0.4,1.1,0.8,1,1.2c0,0.9-0.4,1.8-0.6,2.7c-0.1,0.5-0.5,1-0.5,1.4c0.2,3.6,0.4,7.2,0.6,10.8
		c0.3,5.7,0.6,11.3,0.8,17c0,0.9,0.4,1.2,1.2,1.1c1-0.1,1.3,0.4,1.2,1.3c-0.2,2.1-0.3,4.2-0.5,6.3c-0.1,0.7,0.1,1.2,0.9,1.2
		c2,0,4.1,0.1,6.1,0c0.3,0,0.7-0.8,0.7-1.2c0-3.9,0-7.9-0.1-11.8c0-1,0.4-1.2,1.2-1.2c2.5-0.1,2.5-0.1,2.5-2.6c0-2,0-4,0-6.2
		c0.6,0,1.3-0.2,2-0.2c5.2,0,10.3,0.1,15.5,0c1,0,1.5,0.2,1.4,1.4c-0.1,6.9-0.1,13.8-0.1,20.8c0,0.8,0.4,1,1,1
		c0.7,0.1,0.9-0.3,0.9-1c0-7.3,0-14.7-0.1-22c0-2-0.2-3.9-0.3-6.1h11c0,1.1,0,2.1,0,3.1c-0.1,1,0.4,1.5,1.4,1.3c0.3,0,0.6,0,0.9-0.1
		c1-0.3,1.3,0.2,1.3,1.2c-0.1,1,0,2-0.1,3c-0.1,0.7,0.2,1,0.8,1c1.9,0,3.8,0,5.6-0.1c0.2,0,0.7-0.5,0.7-0.8c0-3.3,0-6.6-0.2-9.9
		c0-0.8,0.2-1.2,1-1.2c4.2,0,8.3,0,12.5,0c0.4,0,1,0.5,1,0.8c0,4.2,0,8.4-0.1,12.5c0,2.8,0,2.8,2.8,3c0.2,0,0.3,0,0.6,0.1
		c0,0.5,0,0.9,0,1.3c0,4.2,0,8.3,0,12.4c0,1.1,0.5,1.3,1.4,1.3c0.9,0,1.4-0.3,1.4-1.4c-0.1-4.6-0.1-9.3-0.2-13.9c0-1,0.5-1,1.2-1
		c2,0,4.1,0,6.3,0V31.4c0.2-0.1,0.3-0.2,0.3-0.2c3.4,0,6.7-0.1,10.1-0.1c0.7,0,1.6,0.4,2,0.1c0.4-0.3,0.4-1.3,0.6-2
		c0.2-0.4,0.4-0.9,0.8-1.2c0.9,4.1,3.4,7.7,3.2,12.2c-0.3,5.5-0.1,10.9-0.1,16.4c0,0.7-0.2,1.5,1,1.5c1.1,0,1.2-0.6,1.2-1.5
		c0-3.8,0-7.7,0-11.6c0-1.1,0.3-1.3,1.4-1.2c2.6,0.1,5.2,0.1,7.9,0c1.1,0,1.4,0.3,1.4,1.4c-0.1,3.9-0.1,7.8-0.2,11.7
		c0,0.7,0.2,1.1,1,1.1c0.8,0,1.6,0,2.5,0c-0.4-0.9-1-1.7-1-2.4c0.1-0.8,0.8-1.5,1.2-2.3c1.7,1,1.9,2.2,0.8,4.7
		c1.2-0.1,2.3-0.1,3.7-0.2c-1.1-1-1.6-1.9-0.3-2.6c0.5-0.3,1.4-0.3,1.9,0c1.3,0.7,0.1,1.7-0.1,2.8c0.8-0.1,1.6,0,2.4-0.2
		c0.2,0,0.4-0.7,0.4-1c-0.1-7.6-0.2-15.2-0.5-22.8c0-1.2,0.4-1.5,1.5-1.5c1.6,0,3.2,0,4.9,0c0.9,0,1.2,0.3,1.2,1.2
		c0,1.8,0,3.7-0.1,5.5c-0.1,1.2,0.4,1.6,1.5,1.6c2.6,0,5.2,0.1,7.7,0.1c1.3,0,1.5,0.4,1.5,1.6c-0.1,4.8,0,9.6-0.1,14.4
		c0,1.1,0.5,1.3,1.4,1.2c0.9,0,1.3-0.3,1.3-1.3c-0.1-5.8-0.2-11.6-0.3-17.4c0-2-0.1-4.1-0.2-6.1c0-0.9,0.2-1.4,1.2-1.3
		c1.1,0.1,2.3,0.1,3.4,0c1.8-0.2,3.1,0.5,4.3,1.8c1.9,2.1,4,4.1,5.9,6.2c0.5,0.5,0.8,1.5,0.8,2.2c0.1,4.9,0.1,9.8,0.2,14.7
		c0,0.8,0.3,1.1,1.1,1.2c3,0.3,3.3,0.1,3.3-2.9c0-3.7,0-7.4,0-11.1c0-0.4,0-0.8,0.1-1.4c1.6,0,3.1,0,4.6,0c1.6,0,3.2,0,4.9,0
		c0.8,0,1.2,0.3,1.1,1.2c-0.1,4.3,0,8.5-0.1,12.8c0,0.9,0.2,1.3,1.1,1.3c3.7,0,7.4,0,11.1,0c0.4,0,0.7-0.2,1.4-0.3
		c-0.4-0.6-0.8-1-1.1-1.5c-0.2-0.3-0.7-0.7-0.6-1c0.2-1.4,0.5-2.8,0.8-4.2c0.1-0.2,0.5-0.5,0.7-0.6c0.2,0,0.6,0.3,0.7,0.5
		c0.4,1.2,0.9,2.4,1.1,3.7c0.1,0.5-0.5,1-0.8,1.5c-0.2,0.5-0.4,1-0.6,1.4c0.4,0.1,0.9,0.4,1.4,0.4c2.8,0,5.7,0,8.5,0
		c1.1,0,1.6-0.3,1.5-1.6c-0.1-3.6-0.1-7.1-0.1-10.7c0-0.8,0.2-1.2,1-1.2c1.7,0,3.4,0,5.1-0.1c0.9,0,1.2,0.3,1.2,1.3
		c-0.1,3.7-0.1,7.5-0.2,11.2c0,0.8,0.3,1.1,1,1.1c0.5,0,0.9,0.1,1.4,0.1c9,0,18.1,0,27.1,0c0.5,0,0.9-0.1,1.4-0.1
		c0.1-0.2,0.1-0.3,0.2-0.4c-0.6-0.4-1.2-0.7-1.7-1.1c-0.5-0.4-1.2-1-1.1-1.3c0.2-0.6,0.8-1.2,1.4-1.4c1-0.5,2-0.1,2.9,0.5
		c0.7,0.5,0.7,1,0.1,1.6c-0.5,0.5-1,1.2-1.4,1.8c0.1,0.1,0.2,0.3,0.2,0.4h63c0,0.1,0,0.3,0,0.4H297.9
		C297.9,58.2,297.9,58.1,297.9,57.9L297.9,57.9z"/>
	<path d="M1065,57c-0.2-0.1-0.6-0.3-1-0.4c-1.5-0.4-1.7-0.9-0.9-2.3c1-1.6,3.1-1.8,4.4-0.5c0.8,0.8,0.6,1.6-0.4,2.1
		C1066.5,56.3,1065.9,56.6,1065,57L1065,57z"/>
	<path d="M888.3,57.3c-0.3-0.3-0.6-0.7-1-0.9c-1-0.7-1-1.4-0.3-2.3c0.5-0.7,1.1-1.1,2-0.5c0.8,0.6,0.9,1.5,0.2,2.4
		C889,56.5,888.6,56.9,888.3,57.3L888.3,57.3z"/>
</g>
<g id="_レイヤー_2-2">
	<line class="st0" x1="0" y1="58.2" x2="1526.1" y2="58.2"/>
</g>
</svg>
