<?xml version="1.0" encoding="UTF-8"?><svg id="_レイヤー_2" xmlns="http://www.w3.org/2000/svg" viewBox="0 0 923.47 399.19"><defs><style>.cls-1{stroke-linecap:round;stroke-linejoin:round;stroke-width:5.67px;}.cls-1,.cls-2{fill:none;stroke:#000;}.cls-2{stroke-miterlimit:10;stroke-width:.57px;}</style></defs><g id="Layer_1"><polyline class="cls-2" points="671.9 281.18 671.93 281.18 704.7 297.46"/><polyline class="cls-2" points="652.69 254.56 652.72 254.59 711.52 283.74"/><line class="cls-2" x1="718.33" y1="270.06" x2="633.49" y2="227.91"/><line class="cls-2" x1="725.11" y1="256.34" x2="614.31" y2="201.31"/><line class="cls-2" x1="731.93" y1="242.65" x2="617.27" y2="185.67"/><line class="cls-2" x1="733.98" y1="226.55" x2="625.53" y2="172.7"/><line class="cls-2" x1="731.9" y1="208.43" x2="633.79" y2="159.71"/><line class="cls-2" x1="729.82" y1="190.31" x2="642.05" y2="146.74"/><line class="cls-2" x1="727.74" y1="172.19" x2="650.31" y2="133.75"/><polyline class="cls-2" points="658.57 120.75 658.6 120.75 725.66 154.07"/><line class="cls-2" x1="723.58" y1="135.95" x2="666.86" y2="107.79"/><polyline class="cls-2" points="671.9 281.18 671.93 281.18 704.7 297.46"/><polyline class="cls-2" points="652.69 254.56 652.72 254.59 711.52 283.74"/><line class="cls-2" x1="718.33" y1="270.06" x2="633.49" y2="227.91"/><line class="cls-2" x1="725.11" y1="256.34" x2="614.31" y2="201.31"/><line class="cls-2" x1="731.93" y1="242.65" x2="617.27" y2="185.67"/><line class="cls-2" x1="733.98" y1="226.55" x2="625.53" y2="172.7"/><line class="cls-2" x1="731.9" y1="208.43" x2="633.79" y2="159.71"/><line class="cls-2" x1="729.82" y1="190.31" x2="642.05" y2="146.74"/><line class="cls-2" x1="727.74" y1="172.19" x2="650.31" y2="133.75"/><polyline class="cls-2" points="658.57 120.75 658.6 120.75 725.66 154.07"/><line class="cls-2" x1="723.58" y1="135.95" x2="666.86" y2="107.79"/><polyline class="cls-2" points="671.9 281.18 671.93 281.18 704.7 297.46"/><polyline class="cls-2" points="652.69 254.56 652.72 254.59 711.52 283.74"/><line class="cls-2" x1="718.33" y1="270.06" x2="633.49" y2="227.91"/><line class="cls-2" x1="725.11" y1="256.34" x2="614.31" y2="201.31"/><line class="cls-2" x1="731.93" y1="242.65" x2="617.27" y2="185.67"/><line class="cls-2" x1="733.98" y1="226.55" x2="625.53" y2="172.7"/><line class="cls-2" x1="731.9" y1="208.43" x2="633.79" y2="159.71"/><line class="cls-2" x1="729.82" y1="190.31" x2="642.05" y2="146.74"/><line class="cls-2" x1="727.74" y1="172.19" x2="650.31" y2="133.75"/><polyline class="cls-2" points="658.57 120.75 658.6 120.75 725.66 154.07"/><line class="cls-2" x1="723.58" y1="135.95" x2="666.86" y2="107.79"/><line class="cls-2" x1="721.5" y1="117.83" x2="675.13" y2="94.79"/><polyline class="cls-2" points="671.9 281.18 671.93 281.18 704.7 297.46"/><polyline class="cls-2" points="652.69 254.56 652.72 254.59 711.52 283.74"/><line class="cls-2" x1="718.33" y1="270.06" x2="633.49" y2="227.91"/><line class="cls-2" x1="725.11" y1="256.34" x2="614.31" y2="201.31"/><line class="cls-2" x1="731.93" y1="242.65" x2="617.27" y2="185.67"/><line class="cls-2" x1="733.98" y1="226.55" x2="625.53" y2="172.7"/><line class="cls-2" x1="731.9" y1="208.43" x2="633.79" y2="159.71"/><line class="cls-2" x1="729.82" y1="190.31" x2="642.05" y2="146.74"/><line class="cls-2" x1="727.74" y1="172.19" x2="650.31" y2="133.75"/><polyline class="cls-2" points="658.57 120.75 658.6 120.75 725.66 154.07"/><line class="cls-2" x1="723.58" y1="135.95" x2="666.86" y2="107.79"/><line class="cls-2" x1="721.5" y1="117.83" x2="675.13" y2="94.79"/><polyline class="cls-2" points="652.69 254.56 652.72 254.59 711.52 283.74"/><line class="cls-2" x1="718.33" y1="270.06" x2="633.49" y2="227.91"/><line class="cls-2" x1="725.11" y1="256.34" x2="614.31" y2="201.31"/><line class="cls-2" x1="731.93" y1="242.65" x2="617.27" y2="185.67"/><line class="cls-2" x1="733.98" y1="226.55" x2="625.53" y2="172.7"/><line class="cls-2" x1="731.9" y1="208.43" x2="633.79" y2="159.71"/><line class="cls-2" x1="729.82" y1="190.31" x2="642.05" y2="146.74"/><line class="cls-2" x1="727.74" y1="172.19" x2="650.31" y2="133.75"/><polyline class="cls-2" points="658.57 120.75 658.6 120.75 725.66 154.07"/><line class="cls-2" x1="723.58" y1="135.95" x2="666.86" y2="107.79"/><line class="cls-2" x1="721.5" y1="117.83" x2="675.13" y2="94.79"/><line class="cls-2" x1="719.39" y1="99.71" x2="683.39" y2="81.8"/><polyline class="cls-2" points="652.69 254.56 652.72 254.59 711.52 283.74"/><line class="cls-2" x1="718.33" y1="270.06" x2="633.49" y2="227.91"/><line class="cls-2" x1="725.11" y1="256.34" x2="614.31" y2="201.31"/><line class="cls-2" x1="731.93" y1="242.65" x2="617.27" y2="185.67"/><line class="cls-2" x1="733.98" y1="226.55" x2="625.53" y2="172.7"/><line class="cls-2" x1="731.9" y1="208.43" x2="633.79" y2="159.71"/><line class="cls-2" x1="729.82" y1="190.31" x2="642.05" y2="146.74"/><line class="cls-2" x1="727.74" y1="172.19" x2="650.31" y2="133.75"/><polyline class="cls-2" points="658.57 120.75 658.6 120.75 725.66 154.07"/><line class="cls-2" x1="723.58" y1="135.95" x2="666.86" y2="107.79"/><line class="cls-2" x1="721.5" y1="117.83" x2="675.13" y2="94.79"/><line class="cls-2" x1="719.39" y1="99.71" x2="683.39" y2="81.8"/><line class="cls-2" x1="718.33" y1="270.06" x2="633.49" y2="227.91"/><line class="cls-2" x1="725.11" y1="256.34" x2="614.31" y2="201.31"/><line class="cls-2" x1="731.93" y1="242.65" x2="617.27" y2="185.67"/><line class="cls-2" x1="733.98" y1="226.55" x2="625.53" y2="172.7"/><line class="cls-2" x1="731.9" y1="208.43" x2="633.79" y2="159.71"/><line class="cls-2" x1="729.82" y1="190.31" x2="642.05" y2="146.74"/><line class="cls-2" x1="727.74" y1="172.19" x2="650.31" y2="133.75"/><polyline class="cls-2" points="658.57 120.75 658.6 120.75 725.66 154.07"/><line class="cls-2" x1="723.58" y1="135.95" x2="666.86" y2="107.79"/><line class="cls-2" x1="721.5" y1="117.83" x2="675.13" y2="94.79"/><line class="cls-2" x1="719.39" y1="99.71" x2="683.39" y2="81.8"/><line class="cls-2" x1="717.31" y1="81.59" x2="691.65" y2="68.83"/><line class="cls-2" x1="718.33" y1="270.06" x2="633.49" y2="227.91"/><line class="cls-2" x1="725.11" y1="256.34" x2="614.31" y2="201.31"/><line class="cls-2" x1="731.93" y1="242.65" x2="617.27" y2="185.67"/><line class="cls-2" x1="733.98" y1="226.55" x2="625.53" y2="172.7"/><line class="cls-2" x1="731.9" y1="208.43" x2="633.79" y2="159.71"/><line class="cls-2" x1="729.82" y1="190.31" x2="642.05" y2="146.74"/><line class="cls-2" x1="727.74" y1="172.19" x2="650.31" y2="133.75"/><polyline class="cls-2" points="658.57 120.75 658.6 120.75 725.66 154.07"/><line class="cls-2" x1="723.58" y1="135.95" x2="666.86" y2="107.79"/><line class="cls-2" x1="721.5" y1="117.83" x2="675.13" y2="94.79"/><line class="cls-2" x1="719.39" y1="99.71" x2="683.39" y2="81.8"/><line class="cls-2" x1="717.31" y1="81.59" x2="691.65" y2="68.83"/><line class="cls-2" x1="725.11" y1="256.34" x2="614.31" y2="201.31"/><line class="cls-2" x1="731.93" y1="242.65" x2="617.27" y2="185.67"/><line class="cls-2" x1="733.98" y1="226.55" x2="625.53" y2="172.7"/><line class="cls-2" x1="731.9" y1="208.43" x2="633.79" y2="159.71"/><line class="cls-2" x1="729.82" y1="190.31" x2="642.05" y2="146.74"/><line class="cls-2" x1="727.74" y1="172.19" x2="650.31" y2="133.75"/><polyline class="cls-2" points="658.57 120.75 658.6 120.75 725.66 154.07"/><line class="cls-2" x1="723.58" y1="135.95" x2="666.86" y2="107.79"/><line class="cls-2" x1="721.5" y1="117.83" x2="675.13" y2="94.79"/><line class="cls-2" x1="719.39" y1="99.71" x2="683.39" y2="81.8"/><line class="cls-2" x1="717.31" y1="81.59" x2="691.65" y2="68.83"/><line class="cls-2" x1="715.23" y1="63.47" x2="699.91" y2="55.84"/><line class="cls-2" x1="725.11" y1="256.34" x2="614.31" y2="201.31"/><line class="cls-2" x1="731.93" y1="242.65" x2="617.27" y2="185.67"/><line class="cls-2" x1="733.98" y1="226.55" x2="625.53" y2="172.7"/><line class="cls-2" x1="731.9" y1="208.43" x2="633.79" y2="159.71"/><line class="cls-2" x1="729.82" y1="190.31" x2="642.05" y2="146.74"/><line class="cls-2" x1="727.74" y1="172.19" x2="650.31" y2="133.75"/><polyline class="cls-2" points="658.57 120.75 658.6 120.75 725.66 154.07"/><line class="cls-2" x1="723.58" y1="135.95" x2="666.86" y2="107.79"/><line class="cls-2" x1="721.5" y1="117.83" x2="675.13" y2="94.79"/><line class="cls-2" x1="719.39" y1="99.71" x2="683.39" y2="81.8"/><line class="cls-2" x1="717.31" y1="81.59" x2="691.65" y2="68.83"/><line class="cls-2" x1="715.23" y1="63.47" x2="699.91" y2="55.84"/><line class="cls-2" x1="714.2" y1="54.42" x2="704.04" y2="49.36"/><line class="cls-2" x1="731.93" y1="242.65" x2="617.27" y2="185.67"/><line class="cls-2" x1="733.98" y1="226.55" x2="625.53" y2="172.7"/><line class="cls-2" x1="731.9" y1="208.43" x2="633.79" y2="159.71"/><line class="cls-2" x1="729.82" y1="190.31" x2="642.05" y2="146.74"/><line class="cls-2" x1="727.74" y1="172.19" x2="650.31" y2="133.75"/><polyline class="cls-2" points="658.57 120.75 658.6 120.75 725.66 154.07"/><line class="cls-2" x1="723.58" y1="135.95" x2="666.86" y2="107.79"/><line class="cls-2" x1="721.5" y1="117.83" x2="675.13" y2="94.79"/><line class="cls-2" x1="719.39" y1="99.71" x2="683.39" y2="81.8"/><line class="cls-2" x1="717.31" y1="81.59" x2="691.65" y2="68.83"/><line class="cls-2" x1="715.23" y1="63.47" x2="699.91" y2="55.84"/><line class="cls-2" x1="714.2" y1="54.42" x2="704.04" y2="49.36"/><line class="cls-2" x1="731.93" y1="242.65" x2="617.27" y2="185.67"/><line class="cls-2" x1="733.98" y1="226.55" x2="625.53" y2="172.7"/><line class="cls-2" x1="731.9" y1="208.43" x2="633.79" y2="159.71"/><line class="cls-2" x1="729.82" y1="190.31" x2="642.05" y2="146.74"/><line class="cls-2" x1="727.74" y1="172.19" x2="650.31" y2="133.75"/><polyline class="cls-2" points="658.57 120.75 658.6 120.75 725.66 154.07"/><line class="cls-2" x1="723.58" y1="135.95" x2="666.86" y2="107.79"/><line class="cls-2" x1="721.5" y1="117.83" x2="675.13" y2="94.79"/><line class="cls-2" x1="719.39" y1="99.71" x2="683.39" y2="81.8"/><line class="cls-2" x1="717.31" y1="81.59" x2="691.65" y2="68.83"/><line class="cls-2" x1="715.23" y1="63.47" x2="699.91" y2="55.84"/><line class="cls-2" x1="714.2" y1="54.42" x2="704.04" y2="49.36"/><line class="cls-2" x1="733.98" y1="226.55" x2="625.53" y2="172.7"/><line class="cls-2" x1="731.9" y1="208.43" x2="633.79" y2="159.71"/><line class="cls-2" x1="729.82" y1="190.31" x2="642.05" y2="146.74"/><line class="cls-2" x1="727.74" y1="172.19" x2="650.31" y2="133.75"/><polyline class="cls-2" points="658.57 120.75 658.6 120.75 725.66 154.07"/><line class="cls-2" x1="723.58" y1="135.95" x2="666.86" y2="107.79"/><line class="cls-2" x1="721.5" y1="117.83" x2="675.13" y2="94.79"/><line class="cls-2" x1="719.39" y1="99.71" x2="683.39" y2="81.8"/><line class="cls-2" x1="717.31" y1="81.59" x2="691.65" y2="68.83"/><line class="cls-2" x1="715.23" y1="63.47" x2="699.91" y2="55.84"/><line class="cls-2" x1="714.2" y1="54.42" x2="704.04" y2="49.36"/><line class="cls-2" x1="733.98" y1="226.55" x2="625.53" y2="172.7"/><line class="cls-2" x1="731.9" y1="208.43" x2="633.79" y2="159.71"/><line class="cls-2" x1="729.82" y1="190.31" x2="642.05" y2="146.74"/><line class="cls-2" x1="727.74" y1="172.19" x2="650.31" y2="133.75"/><polyline class="cls-2" points="658.57 120.75 658.6 120.75 725.66 154.07"/><line class="cls-2" x1="723.58" y1="135.95" x2="666.86" y2="107.79"/><line class="cls-2" x1="721.5" y1="117.83" x2="675.13" y2="94.79"/><line class="cls-2" x1="719.39" y1="99.71" x2="683.39" y2="81.8"/><line class="cls-2" x1="717.31" y1="81.59" x2="691.65" y2="68.83"/><line class="cls-2" x1="715.23" y1="63.47" x2="699.91" y2="55.84"/><line class="cls-2" x1="714.2" y1="54.42" x2="704.04" y2="49.36"/><line class="cls-2" x1="731.9" y1="208.43" x2="633.79" y2="159.71"/><line class="cls-2" x1="729.82" y1="190.31" x2="642.05" y2="146.74"/><line class="cls-2" x1="727.74" y1="172.19" x2="650.31" y2="133.75"/><polyline class="cls-2" points="658.57 120.75 658.6 120.75 725.66 154.07"/><line class="cls-2" x1="723.58" y1="135.95" x2="666.86" y2="107.79"/><line class="cls-2" x1="721.5" y1="117.83" x2="675.13" y2="94.79"/><line class="cls-2" x1="719.39" y1="99.71" x2="683.39" y2="81.8"/><line class="cls-2" x1="717.31" y1="81.59" x2="691.65" y2="68.83"/><line class="cls-2" x1="715.23" y1="63.47" x2="699.91" y2="55.84"/><line class="cls-2" x1="714.2" y1="54.42" x2="704.04" y2="49.36"/><line class="cls-2" x1="731.9" y1="208.43" x2="633.79" y2="159.71"/><line class="cls-2" x1="729.82" y1="190.31" x2="642.05" y2="146.74"/><line class="cls-2" x1="727.74" y1="172.19" x2="650.31" y2="133.75"/><polyline class="cls-2" points="658.57 120.75 658.6 120.75 725.66 154.07"/><line class="cls-2" x1="723.58" y1="135.95" x2="666.86" y2="107.79"/><line class="cls-2" x1="721.5" y1="117.83" x2="675.13" y2="94.79"/><line class="cls-2" x1="719.39" y1="99.71" x2="683.39" y2="81.8"/><line class="cls-2" x1="717.31" y1="81.59" x2="691.65" y2="68.83"/><line class="cls-2" x1="715.23" y1="63.47" x2="699.91" y2="55.84"/><line class="cls-2" x1="714.2" y1="54.42" x2="704.04" y2="49.36"/><line class="cls-2" x1="729.82" y1="190.31" x2="642.05" y2="146.74"/><line class="cls-2" x1="727.74" y1="172.19" x2="650.31" y2="133.75"/><polyline class="cls-2" points="658.57 120.75 658.6 120.75 725.66 154.07"/><line class="cls-2" x1="723.58" y1="135.95" x2="666.86" y2="107.79"/><line class="cls-2" x1="721.5" y1="117.83" x2="675.13" y2="94.79"/><line class="cls-2" x1="719.39" y1="99.71" x2="683.39" y2="81.8"/><line class="cls-2" x1="717.31" y1="81.59" x2="691.65" y2="68.83"/><line class="cls-2" x1="715.23" y1="63.47" x2="699.91" y2="55.84"/><line class="cls-2" x1="714.2" y1="54.42" x2="704.04" y2="49.36"/><line class="cls-2" x1="729.82" y1="190.31" x2="642.05" y2="146.74"/><line class="cls-2" x1="727.74" y1="172.19" x2="650.31" y2="133.75"/><polyline class="cls-2" points="658.57 120.75 658.6 120.75 725.66 154.07"/><line class="cls-2" x1="723.58" y1="135.95" x2="666.86" y2="107.79"/><line class="cls-2" x1="721.5" y1="117.83" x2="675.13" y2="94.79"/><line class="cls-2" x1="719.39" y1="99.71" x2="683.39" y2="81.8"/><line class="cls-2" x1="717.31" y1="81.59" x2="691.65" y2="68.83"/><line class="cls-2" x1="715.23" y1="63.47" x2="699.91" y2="55.84"/><line class="cls-2" x1="714.2" y1="54.42" x2="704.04" y2="49.36"/><line class="cls-2" x1="727.74" y1="172.19" x2="650.31" y2="133.75"/><polyline class="cls-2" points="658.57 120.75 658.6 120.75 725.66 154.07"/><line class="cls-2" x1="723.58" y1="135.95" x2="666.86" y2="107.79"/><line class="cls-2" x1="721.5" y1="117.83" x2="675.13" y2="94.79"/><line class="cls-2" x1="719.39" y1="99.71" x2="683.39" y2="81.8"/><line class="cls-2" x1="717.31" y1="81.59" x2="691.65" y2="68.83"/><line class="cls-2" x1="715.23" y1="63.47" x2="699.91" y2="55.84"/><line class="cls-2" x1="714.2" y1="54.42" x2="704.04" y2="49.36"/><line class="cls-2" x1="727.74" y1="172.19" x2="650.31" y2="133.75"/><polyline class="cls-2" points="658.57 120.75 658.6 120.75 725.66 154.07"/><line class="cls-2" x1="723.58" y1="135.95" x2="666.86" y2="107.79"/><line class="cls-2" x1="721.5" y1="117.83" x2="675.13" y2="94.79"/><line class="cls-2" x1="719.39" y1="99.71" x2="683.39" y2="81.8"/><line class="cls-2" x1="717.31" y1="81.59" x2="691.65" y2="68.83"/><line class="cls-2" x1="715.23" y1="63.47" x2="699.91" y2="55.84"/><line class="cls-2" x1="714.2" y1="54.42" x2="704.04" y2="49.36"/><polyline class="cls-2" points="658.57 120.75 658.6 120.75 725.66 154.07"/><line class="cls-2" x1="723.58" y1="135.95" x2="666.86" y2="107.79"/><line class="cls-2" x1="721.5" y1="117.83" x2="675.13" y2="94.79"/><line class="cls-2" x1="719.39" y1="99.71" x2="683.39" y2="81.8"/><line class="cls-2" x1="717.31" y1="81.59" x2="691.65" y2="68.83"/><line class="cls-2" x1="715.23" y1="63.47" x2="699.91" y2="55.84"/><line class="cls-2" x1="714.2" y1="54.42" x2="704.04" y2="49.36"/><polyline class="cls-2" points="658.57 120.75 658.6 120.75 725.66 154.07"/><line class="cls-2" x1="723.58" y1="135.95" x2="666.86" y2="107.79"/><line class="cls-2" x1="721.5" y1="117.83" x2="675.13" y2="94.79"/><line class="cls-2" x1="719.39" y1="99.71" x2="683.39" y2="81.8"/><line class="cls-2" x1="717.31" y1="81.59" x2="691.65" y2="68.83"/><line class="cls-2" x1="715.23" y1="63.47" x2="699.91" y2="55.84"/><line class="cls-2" x1="714.2" y1="54.42" x2="704.04" y2="49.36"/><line class="cls-2" x1="723.58" y1="135.95" x2="666.86" y2="107.79"/><line class="cls-2" x1="721.5" y1="117.83" x2="675.13" y2="94.79"/><line class="cls-2" x1="719.39" y1="99.71" x2="683.39" y2="81.8"/><line class="cls-2" x1="717.31" y1="81.59" x2="691.65" y2="68.83"/><line class="cls-2" x1="715.23" y1="63.47" x2="699.91" y2="55.84"/><line class="cls-2" x1="714.2" y1="54.42" x2="704.04" y2="49.36"/><line class="cls-2" x1="723.58" y1="135.95" x2="666.86" y2="107.79"/><line class="cls-2" x1="721.5" y1="117.83" x2="675.13" y2="94.79"/><line class="cls-2" x1="719.39" y1="99.71" x2="683.39" y2="81.8"/><line class="cls-2" x1="717.31" y1="81.59" x2="691.65" y2="68.83"/><line class="cls-2" x1="715.23" y1="63.47" x2="699.91" y2="55.84"/><line class="cls-2" x1="714.2" y1="54.42" x2="704.04" y2="49.36"/><line class="cls-2" x1="721.5" y1="117.83" x2="675.13" y2="94.79"/><line class="cls-2" x1="719.39" y1="99.71" x2="683.39" y2="81.8"/><line class="cls-2" x1="717.31" y1="81.59" x2="691.65" y2="68.83"/><line class="cls-2" x1="715.23" y1="63.47" x2="699.91" y2="55.84"/><line class="cls-2" x1="714.2" y1="54.42" x2="704.04" y2="49.36"/><line class="cls-2" x1="721.5" y1="117.83" x2="675.13" y2="94.79"/><line class="cls-2" x1="719.39" y1="99.71" x2="683.39" y2="81.8"/><line class="cls-2" x1="717.31" y1="81.59" x2="691.65" y2="68.83"/><line class="cls-2" x1="715.23" y1="63.47" x2="699.91" y2="55.84"/><line class="cls-2" x1="714.2" y1="54.42" x2="704.04" y2="49.36"/><line class="cls-2" x1="457.26" y1="263.97" x2="446.68" y2="258.72"/><line class="cls-2" x1="465.52" y1="251" x2="444.6" y2="240.6"/><line class="cls-2" x1="473.78" y1="238.01" x2="442.52" y2="222.48"/><polyline class="cls-2" points="428.92 198.66 428.95 198.66 482.04 225.04"/><path class="cls-2" d="m407.48,170.92s.03,0,.03.03l82.82,41.09"/><line class="cls-2" x1="498.6" y1="199.08" x2="404.59" y2="152.38"/><line class="cls-2" x1="506.86" y1="186.09" x2="405.13" y2="135.56"/><line class="cls-2" x1="457.26" y1="263.97" x2="446.68" y2="258.72"/><line class="cls-2" x1="465.52" y1="251" x2="444.6" y2="240.6"/><line class="cls-2" x1="473.78" y1="238.01" x2="442.52" y2="222.48"/><polyline class="cls-2" points="428.92 198.66 428.95 198.66 482.04 225.04"/><path class="cls-2" d="m407.48,170.92s.03,0,.03.03l82.82,41.09"/><line class="cls-2" x1="498.6" y1="199.08" x2="404.59" y2="152.38"/><line class="cls-2" x1="506.86" y1="186.09" x2="405.13" y2="135.56"/><line class="cls-2" x1="457.26" y1="263.97" x2="446.68" y2="258.72"/><line class="cls-2" x1="465.52" y1="251" x2="444.6" y2="240.6"/><line class="cls-2" x1="473.78" y1="238.01" x2="442.52" y2="222.48"/><polyline class="cls-2" points="428.92 198.66 428.95 198.66 482.04 225.04"/><path class="cls-2" d="m407.48,170.92s.03,0,.03.03l82.82,41.09"/><line class="cls-2" x1="498.6" y1="199.08" x2="404.59" y2="152.38"/><line class="cls-2" x1="506.86" y1="186.09" x2="405.13" y2="135.56"/><line class="cls-2" x1="515.12" y1="173.09" x2="405.67" y2="118.73"/><line class="cls-2" x1="457.26" y1="263.97" x2="446.68" y2="258.72"/><line class="cls-2" x1="465.52" y1="251" x2="444.6" y2="240.6"/><line class="cls-2" x1="473.78" y1="238.01" x2="442.52" y2="222.48"/><polyline class="cls-2" points="428.92 198.66 428.95 198.66 482.04 225.04"/><path class="cls-2" d="m407.48,170.92s.03,0,.03.03l82.82,41.09"/><line class="cls-2" x1="498.6" y1="199.08" x2="404.59" y2="152.38"/><line class="cls-2" x1="506.86" y1="186.09" x2="405.13" y2="135.56"/><line class="cls-2" x1="515.12" y1="173.09" x2="405.67" y2="118.73"/><line class="cls-2" x1="457.26" y1="263.97" x2="446.68" y2="258.72"/><line class="cls-2" x1="465.52" y1="251" x2="444.6" y2="240.6"/><line class="cls-2" x1="473.78" y1="238.01" x2="442.52" y2="222.48"/><polyline class="cls-2" points="428.92 198.66 428.95 198.66 482.04 225.04"/><path class="cls-2" d="m407.48,170.92s.03,0,.03.03l82.82,41.09"/><line class="cls-2" x1="498.6" y1="199.08" x2="404.59" y2="152.38"/><line class="cls-2" x1="506.86" y1="186.09" x2="405.13" y2="135.56"/><line class="cls-2" x1="515.12" y1="173.09" x2="405.67" y2="118.73"/><line class="cls-2" x1="523.38" y1="160.13" x2="406.19" y2="101.94"/><line class="cls-2" x1="457.26" y1="263.97" x2="446.68" y2="258.72"/><line class="cls-2" x1="465.52" y1="251" x2="444.6" y2="240.6"/><line class="cls-2" x1="473.78" y1="238.01" x2="442.52" y2="222.48"/><polyline class="cls-2" points="428.92 198.66 428.95 198.66 482.04 225.04"/><path class="cls-2" d="m407.48,170.92s.03,0,.03.03l82.82,41.09"/><line class="cls-2" x1="498.6" y1="199.08" x2="404.59" y2="152.38"/><line class="cls-2" x1="506.86" y1="186.09" x2="405.13" y2="135.56"/><line class="cls-2" x1="515.12" y1="173.09" x2="405.67" y2="118.73"/><line class="cls-2" x1="523.38" y1="160.13" x2="406.19" y2="101.94"/><line class="cls-2" x1="457.26" y1="263.97" x2="446.68" y2="258.72"/><line class="cls-2" x1="465.52" y1="251" x2="444.6" y2="240.6"/><line class="cls-2" x1="473.78" y1="238.01" x2="442.52" y2="222.48"/><polyline class="cls-2" points="428.92 198.66 428.95 198.66 482.04 225.04"/><path class="cls-2" d="m407.48,170.92s.03,0,.03.03l82.82,41.09"/><line class="cls-2" x1="498.6" y1="199.08" x2="404.59" y2="152.38"/><line class="cls-2" x1="506.86" y1="186.09" x2="405.13" y2="135.56"/><line class="cls-2" x1="515.12" y1="173.09" x2="405.67" y2="118.73"/><line class="cls-2" x1="523.38" y1="160.13" x2="406.19" y2="101.94"/><line class="cls-2" x1="515" y1="138.87" x2="406.73" y2="85.08"/><line class="cls-2" x1="457.26" y1="263.97" x2="446.68" y2="258.72"/><line class="cls-2" x1="465.52" y1="251" x2="444.6" y2="240.6"/><line class="cls-2" x1="473.78" y1="238.01" x2="442.52" y2="222.48"/><polyline class="cls-2" points="428.92 198.66 428.95 198.66 482.04 225.04"/><path class="cls-2" d="m407.48,170.92s.03,0,.03.03l82.82,41.09"/><line class="cls-2" x1="498.6" y1="199.08" x2="404.59" y2="152.38"/><line class="cls-2" x1="506.86" y1="186.09" x2="405.13" y2="135.56"/><line class="cls-2" x1="515.12" y1="173.09" x2="405.67" y2="118.73"/><line class="cls-2" x1="523.38" y1="160.13" x2="406.19" y2="101.94"/><line class="cls-2" x1="515" y1="138.87" x2="406.73" y2="85.08"/><line class="cls-2" x1="457.26" y1="263.97" x2="446.68" y2="258.72"/><line class="cls-2" x1="465.52" y1="251" x2="444.6" y2="240.6"/><line class="cls-2" x1="473.78" y1="238.01" x2="442.52" y2="222.48"/><polyline class="cls-2" points="428.92 198.66 428.95 198.66 482.04 225.04"/><path class="cls-2" d="m407.48,170.92s.03,0,.03.03l82.82,41.09"/><line class="cls-2" x1="498.6" y1="199.08" x2="404.59" y2="152.38"/><line class="cls-2" x1="506.86" y1="186.09" x2="405.13" y2="135.56"/><line class="cls-2" x1="515.12" y1="173.09" x2="405.67" y2="118.73"/><line class="cls-2" x1="523.38" y1="160.13" x2="406.19" y2="101.94"/><line class="cls-2" x1="515" y1="138.87" x2="406.73" y2="85.08"/><polyline class="cls-2" points="407.27 68.29 492.93 110.83 492.96 110.83"/><line class="cls-2" x1="457.26" y1="263.97" x2="446.68" y2="258.72"/><line class="cls-2" x1="465.52" y1="251" x2="444.6" y2="240.6"/><line class="cls-2" x1="473.78" y1="238.01" x2="442.52" y2="222.48"/><polyline class="cls-2" points="428.92 198.66 428.95 198.66 482.04 225.04"/><path class="cls-2" d="m407.48,170.92s.03,0,.03.03l82.82,41.09"/><line class="cls-2" x1="498.6" y1="199.08" x2="404.59" y2="152.38"/><line class="cls-2" x1="506.86" y1="186.09" x2="405.13" y2="135.56"/><line class="cls-2" x1="515.12" y1="173.09" x2="405.67" y2="118.73"/><line class="cls-2" x1="523.38" y1="160.13" x2="406.19" y2="101.94"/><line class="cls-2" x1="515" y1="138.87" x2="406.73" y2="85.08"/><polyline class="cls-2" points="407.27 68.29 492.93 110.83 492.96 110.83"/><line class="cls-2" x1="457.26" y1="263.97" x2="446.68" y2="258.72"/><line class="cls-2" x1="465.52" y1="251" x2="444.6" y2="240.6"/><line class="cls-2" x1="473.78" y1="238.01" x2="442.52" y2="222.48"/><polyline class="cls-2" points="428.92 198.66 428.95 198.66 482.04 225.04"/><path class="cls-2" d="m407.48,170.92s.03,0,.03.03l82.82,41.09"/><line class="cls-2" x1="498.6" y1="199.08" x2="404.59" y2="152.38"/><line class="cls-2" x1="506.86" y1="186.09" x2="405.13" y2="135.56"/><line class="cls-2" x1="515.12" y1="173.09" x2="405.67" y2="118.73"/><line class="cls-2" x1="523.38" y1="160.13" x2="406.19" y2="101.94"/><line class="cls-2" x1="515" y1="138.87" x2="406.73" y2="85.08"/><polyline class="cls-2" points="407.27 68.29 492.93 110.83 492.96 110.83"/><line class="cls-2" x1="470.89" y1="82.79" x2="407.78" y2="51.47"/><line class="cls-2" x1="457.26" y1="263.97" x2="446.68" y2="258.72"/><line class="cls-2" x1="465.52" y1="251" x2="444.6" y2="240.6"/><line class="cls-2" x1="473.78" y1="238.01" x2="442.52" y2="222.48"/><polyline class="cls-2" points="428.92 198.66 428.95 198.66 482.04 225.04"/><path class="cls-2" d="m407.48,170.92s.03,0,.03.03l82.82,41.09"/><line class="cls-2" x1="498.6" y1="199.08" x2="404.59" y2="152.38"/><line class="cls-2" x1="506.86" y1="186.09" x2="405.13" y2="135.56"/><line class="cls-2" x1="515.12" y1="173.09" x2="405.67" y2="118.73"/><line class="cls-2" x1="523.38" y1="160.13" x2="406.19" y2="101.94"/><line class="cls-2" x1="515" y1="138.87" x2="406.73" y2="85.08"/><polyline class="cls-2" points="407.27 68.29 492.93 110.83 492.96 110.83"/><line class="cls-2" x1="470.89" y1="82.79" x2="407.78" y2="51.47"/><line class="cls-2" x1="465.52" y1="251" x2="444.6" y2="240.6"/><line class="cls-2" x1="473.78" y1="238.01" x2="442.52" y2="222.48"/><polyline class="cls-2" points="428.92 198.66 428.95 198.66 482.04 225.04"/><path class="cls-2" d="m407.48,170.92s.03,0,.03.03l82.82,41.09"/><line class="cls-2" x1="498.6" y1="199.08" x2="404.59" y2="152.38"/><line class="cls-2" x1="506.86" y1="186.09" x2="405.13" y2="135.56"/><line class="cls-2" x1="515.12" y1="173.09" x2="405.67" y2="118.73"/><line class="cls-2" x1="523.38" y1="160.13" x2="406.19" y2="101.94"/><line class="cls-2" x1="515" y1="138.87" x2="406.73" y2="85.08"/><polyline class="cls-2" points="407.27 68.29 492.93 110.83 492.96 110.83"/><line class="cls-2" x1="470.89" y1="82.79" x2="407.78" y2="51.47"/><polyline class="cls-2" points="408.33 34.64 448.82 54.75 448.85 54.75"/><line class="cls-2" x1="465.52" y1="251" x2="444.6" y2="240.6"/><line class="cls-2" x1="473.78" y1="238.01" x2="442.52" y2="222.48"/><polyline class="cls-2" points="428.92 198.66 428.95 198.66 482.04 225.04"/><path class="cls-2" d="m407.48,170.92s.03,0,.03.03l82.82,41.09"/><line class="cls-2" x1="498.6" y1="199.08" x2="404.59" y2="152.38"/><line class="cls-2" x1="506.86" y1="186.09" x2="405.13" y2="135.56"/><line class="cls-2" x1="515.12" y1="173.09" x2="405.67" y2="118.73"/><line class="cls-2" x1="523.38" y1="160.13" x2="406.19" y2="101.94"/><line class="cls-2" x1="515" y1="138.87" x2="406.73" y2="85.08"/><polyline class="cls-2" points="407.27 68.29 492.93 110.83 492.96 110.83"/><line class="cls-2" x1="470.89" y1="82.79" x2="407.78" y2="51.47"/><polyline class="cls-2" points="408.33 34.64 448.82 54.75 448.85 54.75"/><line class="cls-2" x1="473.78" y1="238.01" x2="442.52" y2="222.48"/><polyline class="cls-2" points="428.92 198.66 428.95 198.66 482.04 225.04"/><path class="cls-2" d="m407.48,170.92s.03,0,.03.03l82.82,41.09"/><line class="cls-2" x1="498.6" y1="199.08" x2="404.59" y2="152.38"/><line class="cls-2" x1="506.86" y1="186.09" x2="405.13" y2="135.56"/><line class="cls-2" x1="515.12" y1="173.09" x2="405.67" y2="118.73"/><line class="cls-2" x1="523.38" y1="160.13" x2="406.19" y2="101.94"/><line class="cls-2" x1="515" y1="138.87" x2="406.73" y2="85.08"/><polyline class="cls-2" points="407.27 68.29 492.93 110.83 492.96 110.83"/><line class="cls-2" x1="470.89" y1="82.79" x2="407.78" y2="51.47"/><polyline class="cls-2" points="408.33 34.64 448.82 54.75 448.85 54.75"/><line class="cls-2" x1="426.78" y1="26.71" x2="408.87" y2="17.82"/><line class="cls-2" x1="473.78" y1="238.01" x2="442.52" y2="222.48"/><polyline class="cls-2" points="428.92 198.66 428.95 198.66 482.04 225.04"/><path class="cls-2" d="m407.48,170.92s.03,0,.03.03l82.82,41.09"/><line class="cls-2" x1="498.6" y1="199.08" x2="404.59" y2="152.38"/><line class="cls-2" x1="506.86" y1="186.09" x2="405.13" y2="135.56"/><line class="cls-2" x1="515.12" y1="173.09" x2="405.67" y2="118.73"/><line class="cls-2" x1="523.38" y1="160.13" x2="406.19" y2="101.94"/><line class="cls-2" x1="515" y1="138.87" x2="406.73" y2="85.08"/><polyline class="cls-2" points="407.27 68.29 492.93 110.83 492.96 110.83"/><line class="cls-2" x1="470.89" y1="82.79" x2="407.78" y2="51.47"/><polyline class="cls-2" points="408.33 34.64 448.82 54.75 448.85 54.75"/><line class="cls-2" x1="426.78" y1="26.71" x2="408.87" y2="17.82"/><polyline class="cls-2" points="428.92 198.66 428.95 198.66 482.04 225.04"/><path class="cls-2" d="m407.48,170.92s.03,0,.03.03l82.82,41.09"/><line class="cls-2" x1="498.6" y1="199.08" x2="404.59" y2="152.38"/><line class="cls-2" x1="506.86" y1="186.09" x2="405.13" y2="135.56"/><line class="cls-2" x1="515.12" y1="173.09" x2="405.67" y2="118.73"/><line class="cls-2" x1="523.38" y1="160.13" x2="406.19" y2="101.94"/><line class="cls-2" x1="515" y1="138.87" x2="406.73" y2="85.08"/><polyline class="cls-2" points="407.27 68.29 492.93 110.83 492.96 110.83"/><line class="cls-2" x1="470.89" y1="82.79" x2="407.78" y2="51.47"/><polyline class="cls-2" points="408.33 34.64 448.82 54.75 448.85 54.75"/><line class="cls-2" x1="426.78" y1="26.71" x2="408.87" y2="17.82"/><polyline class="cls-2" points="428.92 198.66 428.95 198.66 482.04 225.04"/><path class="cls-2" d="m407.48,170.92s.03,0,.03.03l82.82,41.09"/><line class="cls-2" x1="498.6" y1="199.08" x2="404.59" y2="152.38"/><line class="cls-2" x1="506.86" y1="186.09" x2="405.13" y2="135.56"/><line class="cls-2" x1="515.12" y1="173.09" x2="405.67" y2="118.73"/><line class="cls-2" x1="523.38" y1="160.13" x2="406.19" y2="101.94"/><line class="cls-2" x1="515" y1="138.87" x2="406.73" y2="85.08"/><polyline class="cls-2" points="407.27 68.29 492.93 110.83 492.96 110.83"/><line class="cls-2" x1="470.89" y1="82.79" x2="407.78" y2="51.47"/><polyline class="cls-2" points="408.33 34.64 448.82 54.75 448.85 54.75"/><line class="cls-2" x1="426.78" y1="26.71" x2="408.87" y2="17.82"/><path class="cls-2" d="m407.48,170.92s.03,0,.03.03l82.82,41.09"/><line class="cls-2" x1="498.6" y1="199.08" x2="404.59" y2="152.38"/><line class="cls-2" x1="506.86" y1="186.09" x2="405.13" y2="135.56"/><line class="cls-2" x1="515.12" y1="173.09" x2="405.67" y2="118.73"/><line class="cls-2" x1="523.38" y1="160.13" x2="406.19" y2="101.94"/><line class="cls-2" x1="515" y1="138.87" x2="406.73" y2="85.08"/><polyline class="cls-2" points="407.27 68.29 492.93 110.83 492.96 110.83"/><line class="cls-2" x1="470.89" y1="82.79" x2="407.78" y2="51.47"/><polyline class="cls-2" points="408.33 34.64 448.82 54.75 448.85 54.75"/><line class="cls-2" x1="426.78" y1="26.71" x2="408.87" y2="17.82"/><path class="cls-2" d="m407.48,170.92s.03,0,.03.03l82.82,41.09"/><line class="cls-2" x1="498.6" y1="199.08" x2="404.59" y2="152.38"/><line class="cls-2" x1="506.86" y1="186.09" x2="405.13" y2="135.56"/><line class="cls-2" x1="515.12" y1="173.09" x2="405.67" y2="118.73"/><line class="cls-2" x1="523.38" y1="160.13" x2="406.19" y2="101.94"/><line class="cls-2" x1="515" y1="138.87" x2="406.73" y2="85.08"/><polyline class="cls-2" points="407.27 68.29 492.93 110.83 492.96 110.83"/><line class="cls-2" x1="470.89" y1="82.79" x2="407.78" y2="51.47"/><polyline class="cls-2" points="408.33 34.64 448.82 54.75 448.85 54.75"/><line class="cls-2" x1="426.78" y1="26.71" x2="408.87" y2="17.82"/><line class="cls-2" x1="498.6" y1="199.08" x2="404.59" y2="152.38"/><line class="cls-2" x1="506.86" y1="186.09" x2="405.13" y2="135.56"/><line class="cls-2" x1="515.12" y1="173.09" x2="405.67" y2="118.73"/><line class="cls-2" x1="523.38" y1="160.13" x2="406.19" y2="101.94"/><line class="cls-2" x1="515" y1="138.87" x2="406.73" y2="85.08"/><polyline class="cls-2" points="407.27 68.29 492.93 110.83 492.96 110.83"/><line class="cls-2" x1="470.89" y1="82.79" x2="407.78" y2="51.47"/><polyline class="cls-2" points="408.33 34.64 448.82 54.75 448.85 54.75"/><line class="cls-2" x1="426.78" y1="26.71" x2="408.87" y2="17.82"/><line class="cls-2" x1="498.6" y1="199.08" x2="404.59" y2="152.38"/><line class="cls-2" x1="506.86" y1="186.09" x2="405.13" y2="135.56"/><line class="cls-2" x1="515.12" y1="173.09" x2="405.67" y2="118.73"/><line class="cls-2" x1="523.38" y1="160.13" x2="406.19" y2="101.94"/><line class="cls-2" x1="515" y1="138.87" x2="406.73" y2="85.08"/><polyline class="cls-2" points="407.27 68.29 492.93 110.83 492.96 110.83"/><line class="cls-2" x1="470.89" y1="82.79" x2="407.78" y2="51.47"/><polyline class="cls-2" points="408.33 34.64 448.82 54.75 448.85 54.75"/><line class="cls-2" x1="426.78" y1="26.71" x2="408.87" y2="17.82"/><line class="cls-2" x1="506.86" y1="186.09" x2="405.13" y2="135.56"/><line class="cls-2" x1="515.12" y1="173.09" x2="405.67" y2="118.73"/><line class="cls-2" x1="523.38" y1="160.13" x2="406.19" y2="101.94"/><line class="cls-2" x1="515" y1="138.87" x2="406.73" y2="85.08"/><polyline class="cls-2" points="407.27 68.29 492.93 110.83 492.96 110.83"/><line class="cls-2" x1="470.89" y1="82.79" x2="407.78" y2="51.47"/><polyline class="cls-2" points="408.33 34.64 448.82 54.75 448.85 54.75"/><line class="cls-2" x1="426.78" y1="26.71" x2="408.87" y2="17.82"/><line class="cls-2" x1="506.86" y1="186.09" x2="405.13" y2="135.56"/><line class="cls-2" x1="515.12" y1="173.09" x2="405.67" y2="118.73"/><line class="cls-2" x1="523.38" y1="160.13" x2="406.19" y2="101.94"/><line class="cls-2" x1="515" y1="138.87" x2="406.73" y2="85.08"/><polyline class="cls-2" points="407.27 68.29 492.93 110.83 492.96 110.83"/><line class="cls-2" x1="470.89" y1="82.79" x2="407.78" y2="51.47"/><polyline class="cls-2" points="408.33 34.64 448.82 54.75 448.85 54.75"/><line class="cls-2" x1="426.78" y1="26.71" x2="408.87" y2="17.82"/><line class="cls-2" x1="515.12" y1="173.09" x2="405.67" y2="118.73"/><line class="cls-2" x1="523.38" y1="160.13" x2="406.19" y2="101.94"/><line class="cls-2" x1="515" y1="138.87" x2="406.73" y2="85.08"/><polyline class="cls-2" points="407.27 68.29 492.93 110.83 492.96 110.83"/><line class="cls-2" x1="470.89" y1="82.79" x2="407.78" y2="51.47"/><polyline class="cls-2" points="408.33 34.64 448.82 54.75 448.85 54.75"/><line class="cls-2" x1="426.78" y1="26.71" x2="408.87" y2="17.82"/><line class="cls-2" x1="515.12" y1="173.09" x2="405.67" y2="118.73"/><line class="cls-2" x1="523.38" y1="160.13" x2="406.19" y2="101.94"/><line class="cls-2" x1="515" y1="138.87" x2="406.73" y2="85.08"/><polyline class="cls-2" points="407.27 68.29 492.93 110.83 492.96 110.83"/><line class="cls-2" x1="470.89" y1="82.79" x2="407.78" y2="51.47"/><polyline class="cls-2" points="408.33 34.64 448.82 54.75 448.85 54.75"/><line class="cls-2" x1="426.78" y1="26.71" x2="408.87" y2="17.82"/><polyline class="cls-1" points="527.12 154.28 554.28 118.04 610.6 196.16"/><line class="cls-1" x1="754.93" y1="396.36" x2="696.11" y2="314.74"/><path class="cls-1" d="m409.29,4.46c-.42-.57-.84-1.12-1.27-1.63-51.59,84.15-108.57,177.04-108.75,177.34,0,0-19.39-27.41-19.6-27.71l-9.29-13.15-9.32-13.18-9.32-13.18-26.62-37.63v-.03l-.93-1.3S12.81,376.88,2.83,391.17"/><polygon class="cls-1" points="735.1 236.29 696.11 314.74 610.6 196.16 712.15 36.6 735.1 236.29"/><polyline class="cls-1" points="712.15 36.6 712.21 36.48 920.64 378.24"/><path class="cls-1" d="m527.12,154.28l-78.33,122.98-1.84-16.07c-.12-1.27-2.05-17.85-2.08-18.12-.12-1.27-2.05-17.85-2.08-18.12-.06-.6-1.08-9.53-1.12-9.83l-9.8-12.69h-.03l-10.7-13.87c-.97-1.3-16.76-21.68-17-21.98,1.15-35.85,1.63-51.1,1.81-56.92.03-.3.03-.57.03-.81v-.27c.03-.3.03-.54.03-.75.18-5.79.72-22.1,1.99-62.5.09-2.44,1.3-40.55,1.3-40.85,30.96,39.41,117.56,149.49,117.83,149.82Z"/><path class="cls-1" d="m225.13,75.32c-.29,19.71-1.6,108.12-1.6,108.12-.91,2.06-27.51,62.25-27.17,61.48.22.3,22.01,30.42,22.01,30.42-.14,3.17-1.77,40.99-1.93,44.65,1.71-2.89,83.31-140.63,82.82-139.81"/><line class="cls-2" x1="229.29" y1="298.31" x2="217.63" y2="292.52"/><line class="cls-2" x1="237.1" y1="285.1" x2="218.35" y2="275.79"/><line class="cls-2" x1="244.94" y1="271.9" x2="199.63" y2="249.4"/><line class="cls-2" x1="252.75" y1="258.72" x2="201.53" y2="233.24"/><polyline class="cls-2" points="260.59 245.51 260.56 245.51 207.71 219.25"/><line class="cls-2" x1="268.4" y1="232.31" x2="213.89" y2="205.26"/><line class="cls-2" x1="276.21" y1="219.1" x2="220.1" y2="191.24"/><line class="cls-2" x1="284.05" y1="205.9" x2="223.66" y2="175.9"/><line class="cls-2" x1="291.86" y1="192.69" x2="223.9" y2="158.95"/><polyline class="cls-2" points="224.14 141.98 298.31 178.82 299.69 179.52"/><line class="cls-2" x1="279.67" y1="152.47" x2="224.41" y2="125.03"/><line class="cls-2" x1="261.07" y1="126.15" x2="224.65" y2="108.06"/><line class="cls-2" x1="237.1" y1="285.1" x2="218.35" y2="275.79"/><line class="cls-2" x1="244.94" y1="271.9" x2="199.63" y2="249.4"/><line class="cls-2" x1="252.75" y1="258.72" x2="201.53" y2="233.24"/><polyline class="cls-2" points="260.59 245.51 260.56 245.51 207.71 219.25"/><line class="cls-2" x1="268.4" y1="232.31" x2="213.89" y2="205.26"/><line class="cls-2" x1="276.21" y1="219.1" x2="220.1" y2="191.24"/><line class="cls-2" x1="284.05" y1="205.9" x2="223.66" y2="175.9"/><line class="cls-2" x1="291.86" y1="192.69" x2="223.9" y2="158.95"/><polyline class="cls-2" points="224.14 141.98 298.31 178.82 299.69 179.52"/><line class="cls-2" x1="279.67" y1="152.47" x2="224.41" y2="125.03"/><line class="cls-2" x1="261.07" y1="126.15" x2="224.65" y2="108.06"/><polyline class="cls-2" points="242.47 99.83 242.44 99.83 224.89 91.11"/><line class="cls-2" x1="237.1" y1="285.1" x2="218.35" y2="275.79"/><line class="cls-2" x1="244.94" y1="271.9" x2="199.63" y2="249.4"/><line class="cls-2" x1="252.75" y1="258.72" x2="201.53" y2="233.24"/><polyline class="cls-2" points="260.59 245.51 260.56 245.51 207.71 219.25"/><line class="cls-2" x1="268.4" y1="232.31" x2="213.89" y2="205.26"/><line class="cls-2" x1="276.21" y1="219.1" x2="220.1" y2="191.24"/><line class="cls-2" x1="284.05" y1="205.9" x2="223.66" y2="175.9"/><line class="cls-2" x1="291.86" y1="192.69" x2="223.9" y2="158.95"/><polyline class="cls-2" points="224.14 141.98 298.31 178.82 299.69 179.52"/><line class="cls-2" x1="279.67" y1="152.47" x2="224.41" y2="125.03"/><line class="cls-2" x1="261.07" y1="126.15" x2="224.65" y2="108.06"/><polyline class="cls-2" points="242.47 99.83 242.44 99.83 224.89 91.11"/><line class="cls-2" x1="244.94" y1="271.9" x2="199.63" y2="249.4"/><line class="cls-2" x1="252.75" y1="258.72" x2="201.53" y2="233.24"/><polyline class="cls-2" points="260.59 245.51 260.56 245.51 207.71 219.25"/><line class="cls-2" x1="268.4" y1="232.31" x2="213.89" y2="205.26"/><line class="cls-2" x1="276.21" y1="219.1" x2="220.1" y2="191.24"/><line class="cls-2" x1="284.05" y1="205.9" x2="223.66" y2="175.9"/><line class="cls-2" x1="291.86" y1="192.69" x2="223.9" y2="158.95"/><polyline class="cls-2" points="224.14 141.98 298.31 178.82 299.69 179.52"/><line class="cls-2" x1="279.67" y1="152.47" x2="224.41" y2="125.03"/><line class="cls-2" x1="261.07" y1="126.15" x2="224.65" y2="108.06"/><polyline class="cls-2" points="242.47 99.83 242.44 99.83 224.89 91.11"/><line class="cls-2" x1="244.94" y1="271.9" x2="199.63" y2="249.4"/><line class="cls-2" x1="252.75" y1="258.72" x2="201.53" y2="233.24"/><polyline class="cls-2" points="260.59 245.51 260.56 245.51 207.71 219.25"/><line class="cls-2" x1="268.4" y1="232.31" x2="213.89" y2="205.26"/><line class="cls-2" x1="276.21" y1="219.1" x2="220.1" y2="191.24"/><line class="cls-2" x1="284.05" y1="205.9" x2="223.66" y2="175.9"/><line class="cls-2" x1="291.86" y1="192.69" x2="223.9" y2="158.95"/><polyline class="cls-2" points="224.14 141.98 298.31 178.82 299.69 179.52"/><line class="cls-2" x1="279.67" y1="152.47" x2="224.41" y2="125.03"/><line class="cls-2" x1="261.07" y1="126.15" x2="224.65" y2="108.06"/><polyline class="cls-2" points="242.47 99.83 242.44 99.83 224.89 91.11"/><line class="cls-2" x1="252.75" y1="258.72" x2="201.53" y2="233.24"/><polyline class="cls-2" points="260.59 245.51 260.56 245.51 207.71 219.25"/><line class="cls-2" x1="268.4" y1="232.31" x2="213.89" y2="205.26"/><line class="cls-2" x1="276.21" y1="219.1" x2="220.1" y2="191.24"/><line class="cls-2" x1="284.05" y1="205.9" x2="223.66" y2="175.9"/><line class="cls-2" x1="291.86" y1="192.69" x2="223.9" y2="158.95"/><polyline class="cls-2" points="224.14 141.98 298.31 178.82 299.69 179.52"/><line class="cls-2" x1="279.67" y1="152.47" x2="224.41" y2="125.03"/><line class="cls-2" x1="261.07" y1="126.15" x2="224.65" y2="108.06"/><polyline class="cls-2" points="242.47 99.83 242.44 99.83 224.89 91.11"/><line class="cls-2" x1="252.75" y1="258.72" x2="201.53" y2="233.24"/><polyline class="cls-2" points="260.59 245.51 260.56 245.51 207.71 219.25"/><line class="cls-2" x1="268.4" y1="232.31" x2="213.89" y2="205.26"/><line class="cls-2" x1="276.21" y1="219.1" x2="220.1" y2="191.24"/><line class="cls-2" x1="284.05" y1="205.9" x2="223.66" y2="175.9"/><line class="cls-2" x1="291.86" y1="192.69" x2="223.9" y2="158.95"/><polyline class="cls-2" points="224.14 141.98 298.31 178.82 299.69 179.52"/><line class="cls-2" x1="279.67" y1="152.47" x2="224.41" y2="125.03"/><line class="cls-2" x1="261.07" y1="126.15" x2="224.65" y2="108.06"/><polyline class="cls-2" points="242.47 99.83 242.44 99.83 224.89 91.11"/><polyline class="cls-2" points="260.59 245.51 260.56 245.51 207.71 219.25"/><line class="cls-2" x1="268.4" y1="232.31" x2="213.89" y2="205.26"/><line class="cls-2" x1="276.21" y1="219.1" x2="220.1" y2="191.24"/><line class="cls-2" x1="284.05" y1="205.9" x2="223.66" y2="175.9"/><line class="cls-2" x1="291.86" y1="192.69" x2="223.9" y2="158.95"/><polyline class="cls-2" points="224.14 141.98 298.31 178.82 299.69 179.52"/><line class="cls-2" x1="279.67" y1="152.47" x2="224.41" y2="125.03"/><line class="cls-2" x1="261.07" y1="126.15" x2="224.65" y2="108.06"/><polyline class="cls-2" points="242.47 99.83 242.44 99.83 224.89 91.11"/><polyline class="cls-2" points="260.59 245.51 260.56 245.51 207.71 219.25"/><line class="cls-2" x1="268.4" y1="232.31" x2="213.89" y2="205.26"/><line class="cls-2" x1="276.21" y1="219.1" x2="220.1" y2="191.24"/><line class="cls-2" x1="284.05" y1="205.9" x2="223.66" y2="175.9"/><line class="cls-2" x1="291.86" y1="192.69" x2="223.9" y2="158.95"/><polyline class="cls-2" points="224.14 141.98 298.31 178.82 299.69 179.52"/><line class="cls-2" x1="279.67" y1="152.47" x2="224.41" y2="125.03"/><line class="cls-2" x1="261.07" y1="126.15" x2="224.65" y2="108.06"/><polyline class="cls-2" points="242.47 99.83 242.44 99.83 224.89 91.11"/><line class="cls-2" x1="268.4" y1="232.31" x2="213.89" y2="205.26"/><line class="cls-2" x1="276.21" y1="219.1" x2="220.1" y2="191.24"/><line class="cls-2" x1="284.05" y1="205.9" x2="223.66" y2="175.9"/><line class="cls-2" x1="291.86" y1="192.69" x2="223.9" y2="158.95"/><polyline class="cls-2" points="224.14 141.98 298.31 178.82 299.69 179.52"/><line class="cls-2" x1="279.67" y1="152.47" x2="224.41" y2="125.03"/><line class="cls-2" x1="261.07" y1="126.15" x2="224.65" y2="108.06"/><polyline class="cls-2" points="242.47 99.83 242.44 99.83 224.89 91.11"/><line class="cls-2" x1="268.4" y1="232.31" x2="213.89" y2="205.26"/><line class="cls-2" x1="276.21" y1="219.1" x2="220.1" y2="191.24"/><line class="cls-2" x1="284.05" y1="205.9" x2="223.66" y2="175.9"/><line class="cls-2" x1="291.86" y1="192.69" x2="223.9" y2="158.95"/><polyline class="cls-2" points="224.14 141.98 298.31 178.82 299.69 179.52"/><line class="cls-2" x1="279.67" y1="152.47" x2="224.41" y2="125.03"/><line class="cls-2" x1="261.07" y1="126.15" x2="224.65" y2="108.06"/><polyline class="cls-2" points="242.47 99.83 242.44 99.83 224.89 91.11"/><line class="cls-2" x1="276.21" y1="219.1" x2="220.1" y2="191.24"/><line class="cls-2" x1="284.05" y1="205.9" x2="223.66" y2="175.9"/><line class="cls-2" x1="291.86" y1="192.69" x2="223.9" y2="158.95"/><polyline class="cls-2" points="224.14 141.98 298.31 178.82 299.69 179.52"/><line class="cls-2" x1="279.67" y1="152.47" x2="224.41" y2="125.03"/><line class="cls-2" x1="261.07" y1="126.15" x2="224.65" y2="108.06"/><polyline class="cls-2" points="242.47 99.83 242.44 99.83 224.89 91.11"/><line class="cls-2" x1="276.21" y1="219.1" x2="220.1" y2="191.24"/><line class="cls-2" x1="284.05" y1="205.9" x2="223.66" y2="175.9"/><line class="cls-2" x1="291.86" y1="192.69" x2="223.9" y2="158.95"/><polyline class="cls-2" points="224.14 141.98 298.31 178.82 299.69 179.52"/><line class="cls-2" x1="279.67" y1="152.47" x2="224.41" y2="125.03"/><line class="cls-2" x1="261.07" y1="126.15" x2="224.65" y2="108.06"/><polyline class="cls-2" points="242.47 99.83 242.44 99.83 224.89 91.11"/><line class="cls-2" x1="284.05" y1="205.9" x2="223.66" y2="175.9"/><line class="cls-2" x1="291.86" y1="192.69" x2="223.9" y2="158.95"/><polyline class="cls-2" points="224.14 141.98 298.31 178.82 299.69 179.52"/><line class="cls-2" x1="279.67" y1="152.47" x2="224.41" y2="125.03"/><line class="cls-2" x1="261.07" y1="126.15" x2="224.65" y2="108.06"/><polyline class="cls-2" points="242.47 99.83 242.44 99.83 224.89 91.11"/><line class="cls-2" x1="284.05" y1="205.9" x2="223.66" y2="175.9"/><line class="cls-2" x1="291.86" y1="192.69" x2="223.9" y2="158.95"/><polyline class="cls-2" points="224.14 141.98 298.31 178.82 299.69 179.52"/><line class="cls-2" x1="279.67" y1="152.47" x2="224.41" y2="125.03"/><line class="cls-2" x1="261.07" y1="126.15" x2="224.65" y2="108.06"/><polyline class="cls-2" points="242.47 99.83 242.44 99.83 224.89 91.11"/><line class="cls-2" x1="291.86" y1="192.69" x2="223.9" y2="158.95"/><polyline class="cls-2" points="224.14 141.98 298.31 178.82 299.69 179.52"/><line class="cls-2" x1="279.67" y1="152.47" x2="224.41" y2="125.03"/><line class="cls-2" x1="261.07" y1="126.15" x2="224.65" y2="108.06"/><polyline class="cls-2" points="242.47 99.83 242.44 99.83 224.89 91.11"/><line class="cls-2" x1="291.86" y1="192.69" x2="223.9" y2="158.95"/><polyline class="cls-2" points="224.14 141.98 298.31 178.82 299.69 179.52"/><line class="cls-2" x1="279.67" y1="152.47" x2="224.41" y2="125.03"/><line class="cls-2" x1="261.07" y1="126.15" x2="224.65" y2="108.06"/><polyline class="cls-2" points="242.47 99.83 242.44 99.83 224.89 91.11"/><polyline class="cls-2" points="224.14 141.98 298.31 178.82 299.69 179.52"/><line class="cls-2" x1="279.67" y1="152.47" x2="224.41" y2="125.03"/><line class="cls-2" x1="261.07" y1="126.15" x2="224.65" y2="108.06"/><polyline class="cls-2" points="242.47 99.83 242.44 99.83 224.89 91.11"/><polyline class="cls-2" points="224.14 141.98 298.31 178.82 299.69 179.52"/><line class="cls-2" x1="279.67" y1="152.47" x2="224.41" y2="125.03"/><line class="cls-2" x1="261.07" y1="126.15" x2="224.65" y2="108.06"/><polyline class="cls-2" points="242.47 99.83 242.44 99.83 224.89 91.11"/><line class="cls-2" x1="279.67" y1="152.47" x2="224.41" y2="125.03"/><line class="cls-2" x1="261.07" y1="126.15" x2="224.65" y2="108.06"/><polyline class="cls-2" points="242.47 99.83 242.44 99.83 224.89 91.11"/><line class="cls-2" x1="279.67" y1="152.47" x2="224.41" y2="125.03"/><line class="cls-2" x1="261.07" y1="126.15" x2="224.65" y2="108.06"/><polyline class="cls-2" points="242.47 99.83 242.44 99.83 224.89 91.11"/><line class="cls-2" x1="261.07" y1="126.15" x2="224.65" y2="108.06"/><polyline class="cls-2" points="242.47 99.83 242.44 99.83 224.89 91.11"/><line class="cls-2" x1="261.07" y1="126.15" x2="224.65" y2="108.06"/><polyline class="cls-2" points="242.47 99.83 242.44 99.83 224.89 91.11"/><polyline class="cls-2" points="242.47 99.83 242.44 99.83 224.89 91.11"/><polyline class="cls-2" points="242.47 99.83 242.44 99.83 224.89 91.11"/></g></svg>