<?xml version="1.0" encoding="UTF-8"?><svg id="_レイヤー_2" xmlns="http://www.w3.org/2000/svg" viewBox="0 0 923.48 399.2"><defs><style>.cls-1{stroke-miterlimit:10;stroke-width:.57px;}.cls-1,.cls-2{fill:none;stroke:#fff;}.cls-2{stroke-linecap:round;stroke-linejoin:round;stroke-width:5.67px;}</style></defs><g id="_レイヤー_2-2"><g id="Layer_1"><polyline class="cls-1" points="671.91 281.18 671.93 281.18 704.71 297.46"/><polyline class="cls-1" points="652.7 254.56 652.72 254.59 711.53 283.74"/><line class="cls-1" x1="718.34" y1="270.06" x2="633.49" y2="227.92"/><line class="cls-1" x1="725.11" y1="256.34" x2="614.31" y2="201.31"/><line class="cls-1" x1="731.93" y1="242.65" x2="617.28" y2="185.67"/><line class="cls-1" x1="733.98" y1="226.56" x2="625.54" y2="172.7"/><line class="cls-1" x1="731.91" y1="208.43" x2="633.79" y2="159.72"/><line class="cls-1" x1="729.83" y1="190.31" x2="642.05" y2="146.75"/><line class="cls-1" x1="727.74" y1="172.2" x2="650.31" y2="133.76"/><polyline class="cls-1" points="658.58 120.76 658.6 120.76 725.66 154.08"/><line class="cls-1" x1="723.59" y1="135.95" x2="666.86" y2="107.8"/><polyline class="cls-1" points="671.91 281.18 671.93 281.18 704.71 297.46"/><polyline class="cls-1" points="652.7 254.56 652.72 254.59 711.53 283.74"/><line class="cls-1" x1="718.34" y1="270.06" x2="633.49" y2="227.92"/><line class="cls-1" x1="725.11" y1="256.34" x2="614.31" y2="201.31"/><line class="cls-1" x1="731.93" y1="242.65" x2="617.28" y2="185.67"/><line class="cls-1" x1="733.98" y1="226.56" x2="625.54" y2="172.7"/><line class="cls-1" x1="731.91" y1="208.43" x2="633.79" y2="159.72"/><line class="cls-1" x1="729.83" y1="190.31" x2="642.05" y2="146.75"/><line class="cls-1" x1="727.74" y1="172.2" x2="650.31" y2="133.76"/><polyline class="cls-1" points="658.58 120.76 658.6 120.76 725.66 154.08"/><line class="cls-1" x1="723.59" y1="135.95" x2="666.86" y2="107.8"/><polyline class="cls-1" points="671.91 281.18 671.93 281.18 704.71 297.46"/><polyline class="cls-1" points="652.7 254.56 652.72 254.59 711.53 283.74"/><line class="cls-1" x1="718.34" y1="270.06" x2="633.49" y2="227.92"/><line class="cls-1" x1="725.11" y1="256.34" x2="614.31" y2="201.31"/><line class="cls-1" x1="731.93" y1="242.65" x2="617.28" y2="185.67"/><line class="cls-1" x1="733.98" y1="226.56" x2="625.54" y2="172.7"/><line class="cls-1" x1="731.91" y1="208.43" x2="633.79" y2="159.72"/><line class="cls-1" x1="729.83" y1="190.31" x2="642.05" y2="146.75"/><line class="cls-1" x1="727.74" y1="172.2" x2="650.31" y2="133.76"/><polyline class="cls-1" points="658.58 120.76 658.6 120.76 725.66 154.08"/><line class="cls-1" x1="723.59" y1="135.95" x2="666.86" y2="107.8"/><line class="cls-1" x1="721.51" y1="117.84" x2="675.14" y2="94.8"/><polyline class="cls-1" points="671.91 281.18 671.93 281.18 704.71 297.46"/><polyline class="cls-1" points="652.7 254.56 652.72 254.59 711.53 283.74"/><line class="cls-1" x1="718.34" y1="270.06" x2="633.49" y2="227.92"/><line class="cls-1" x1="725.11" y1="256.34" x2="614.31" y2="201.31"/><line class="cls-1" x1="731.93" y1="242.65" x2="617.28" y2="185.67"/><line class="cls-1" x1="733.98" y1="226.56" x2="625.54" y2="172.7"/><line class="cls-1" x1="731.91" y1="208.43" x2="633.79" y2="159.72"/><line class="cls-1" x1="729.83" y1="190.31" x2="642.05" y2="146.75"/><line class="cls-1" x1="727.74" y1="172.2" x2="650.31" y2="133.76"/><polyline class="cls-1" points="658.58 120.76 658.6 120.76 725.66 154.08"/><line class="cls-1" x1="723.59" y1="135.95" x2="666.86" y2="107.8"/><line class="cls-1" x1="721.51" y1="117.84" x2="675.14" y2="94.8"/><polyline class="cls-1" points="652.7 254.56 652.72 254.59 711.53 283.74"/><line class="cls-1" x1="718.34" y1="270.06" x2="633.49" y2="227.92"/><line class="cls-1" x1="725.11" y1="256.34" x2="614.31" y2="201.31"/><line class="cls-1" x1="731.93" y1="242.65" x2="617.28" y2="185.67"/><line class="cls-1" x1="733.98" y1="226.56" x2="625.54" y2="172.7"/><line class="cls-1" x1="731.91" y1="208.43" x2="633.79" y2="159.72"/><line class="cls-1" x1="729.83" y1="190.31" x2="642.05" y2="146.75"/><line class="cls-1" x1="727.74" y1="172.2" x2="650.31" y2="133.76"/><polyline class="cls-1" points="658.58 120.76 658.6 120.76 725.66 154.08"/><line class="cls-1" x1="723.59" y1="135.95" x2="666.86" y2="107.8"/><line class="cls-1" x1="721.51" y1="117.84" x2="675.14" y2="94.8"/><line class="cls-1" x1="719.4" y1="99.71" x2="683.4" y2="81.81"/><polyline class="cls-1" points="652.7 254.56 652.72 254.59 711.53 283.74"/><line class="cls-1" x1="718.34" y1="270.06" x2="633.49" y2="227.92"/><line class="cls-1" x1="725.11" y1="256.34" x2="614.31" y2="201.31"/><line class="cls-1" x1="731.93" y1="242.65" x2="617.28" y2="185.67"/><line class="cls-1" x1="733.98" y1="226.56" x2="625.54" y2="172.7"/><line class="cls-1" x1="731.91" y1="208.43" x2="633.79" y2="159.72"/><line class="cls-1" x1="729.83" y1="190.31" x2="642.05" y2="146.75"/><line class="cls-1" x1="727.74" y1="172.2" x2="650.31" y2="133.76"/><polyline class="cls-1" points="658.58 120.76 658.6 120.76 725.66 154.08"/><line class="cls-1" x1="723.59" y1="135.95" x2="666.86" y2="107.8"/><line class="cls-1" x1="721.51" y1="117.84" x2="675.14" y2="94.8"/><line class="cls-1" x1="719.4" y1="99.71" x2="683.4" y2="81.81"/><line class="cls-1" x1="718.34" y1="270.06" x2="633.49" y2="227.92"/><line class="cls-1" x1="725.11" y1="256.34" x2="614.31" y2="201.31"/><line class="cls-1" x1="731.93" y1="242.65" x2="617.28" y2="185.67"/><line class="cls-1" x1="733.98" y1="226.56" x2="625.54" y2="172.7"/><line class="cls-1" x1="731.91" y1="208.43" x2="633.79" y2="159.72"/><line class="cls-1" x1="729.83" y1="190.31" x2="642.05" y2="146.75"/><line class="cls-1" x1="727.74" y1="172.2" x2="650.31" y2="133.76"/><polyline class="cls-1" points="658.58 120.76 658.6 120.76 725.66 154.08"/><line class="cls-1" x1="723.59" y1="135.95" x2="666.86" y2="107.8"/><line class="cls-1" x1="721.51" y1="117.84" x2="675.14" y2="94.8"/><line class="cls-1" x1="719.4" y1="99.71" x2="683.4" y2="81.81"/><line class="cls-1" x1="717.31" y1="81.59" x2="691.66" y2="68.84"/><line class="cls-1" x1="718.34" y1="270.06" x2="633.49" y2="227.92"/><line class="cls-1" x1="725.11" y1="256.34" x2="614.31" y2="201.31"/><line class="cls-1" x1="731.93" y1="242.65" x2="617.28" y2="185.67"/><line class="cls-1" x1="733.98" y1="226.56" x2="625.54" y2="172.7"/><line class="cls-1" x1="731.91" y1="208.43" x2="633.79" y2="159.72"/><line class="cls-1" x1="729.83" y1="190.31" x2="642.05" y2="146.75"/><line class="cls-1" x1="727.74" y1="172.2" x2="650.31" y2="133.76"/><polyline class="cls-1" points="658.58 120.76 658.6 120.76 725.66 154.08"/><line class="cls-1" x1="723.59" y1="135.95" x2="666.86" y2="107.8"/><line class="cls-1" x1="721.51" y1="117.84" x2="675.14" y2="94.8"/><line class="cls-1" x1="719.4" y1="99.71" x2="683.4" y2="81.81"/><line class="cls-1" x1="717.31" y1="81.59" x2="691.66" y2="68.84"/><line class="cls-1" x1="725.11" y1="256.34" x2="614.31" y2="201.31"/><line class="cls-1" x1="731.93" y1="242.65" x2="617.28" y2="185.67"/><line class="cls-1" x1="733.98" y1="226.56" x2="625.54" y2="172.7"/><line class="cls-1" x1="731.91" y1="208.43" x2="633.79" y2="159.72"/><line class="cls-1" x1="729.83" y1="190.31" x2="642.05" y2="146.75"/><line class="cls-1" x1="727.74" y1="172.2" x2="650.31" y2="133.76"/><polyline class="cls-1" points="658.58 120.76 658.6 120.76 725.66 154.08"/><line class="cls-1" x1="723.59" y1="135.95" x2="666.86" y2="107.8"/><line class="cls-1" x1="721.51" y1="117.84" x2="675.14" y2="94.8"/><line class="cls-1" x1="719.4" y1="99.71" x2="683.4" y2="81.81"/><line class="cls-1" x1="717.31" y1="81.59" x2="691.66" y2="68.84"/><line class="cls-1" x1="715.23" y1="63.48" x2="699.91" y2="55.85"/><line class="cls-1" x1="725.11" y1="256.34" x2="614.31" y2="201.31"/><line class="cls-1" x1="731.93" y1="242.65" x2="617.28" y2="185.67"/><line class="cls-1" x1="733.98" y1="226.56" x2="625.54" y2="172.7"/><line class="cls-1" x1="731.91" y1="208.43" x2="633.79" y2="159.72"/><line class="cls-1" x1="729.83" y1="190.31" x2="642.05" y2="146.75"/><line class="cls-1" x1="727.74" y1="172.2" x2="650.31" y2="133.76"/><polyline class="cls-1" points="658.58 120.76 658.6 120.76 725.66 154.08"/><line class="cls-1" x1="723.59" y1="135.95" x2="666.86" y2="107.8"/><line class="cls-1" x1="721.51" y1="117.84" x2="675.14" y2="94.8"/><line class="cls-1" x1="719.4" y1="99.71" x2="683.4" y2="81.81"/><line class="cls-1" x1="717.31" y1="81.59" x2="691.66" y2="68.84"/><line class="cls-1" x1="715.23" y1="63.48" x2="699.91" y2="55.85"/><line class="cls-1" x1="714.21" y1="54.42" x2="704.04" y2="49.37"/><line class="cls-1" x1="731.93" y1="242.65" x2="617.28" y2="185.67"/><line class="cls-1" x1="733.98" y1="226.56" x2="625.54" y2="172.7"/><line class="cls-1" x1="731.91" y1="208.43" x2="633.79" y2="159.72"/><line class="cls-1" x1="729.83" y1="190.31" x2="642.05" y2="146.75"/><line class="cls-1" x1="727.74" y1="172.2" x2="650.31" y2="133.76"/><polyline class="cls-1" points="658.58 120.76 658.6 120.76 725.66 154.08"/><line class="cls-1" x1="723.59" y1="135.95" x2="666.86" y2="107.8"/><line class="cls-1" x1="721.51" y1="117.84" x2="675.14" y2="94.8"/><line class="cls-1" x1="719.4" y1="99.71" x2="683.4" y2="81.81"/><line class="cls-1" x1="717.31" y1="81.59" x2="691.66" y2="68.84"/><line class="cls-1" x1="715.23" y1="63.48" x2="699.91" y2="55.85"/><line class="cls-1" x1="714.21" y1="54.42" x2="704.04" y2="49.37"/><line class="cls-1" x1="731.93" y1="242.65" x2="617.28" y2="185.67"/><line class="cls-1" x1="733.98" y1="226.56" x2="625.54" y2="172.7"/><line class="cls-1" x1="731.91" y1="208.43" x2="633.79" y2="159.72"/><line class="cls-1" x1="729.83" y1="190.31" x2="642.05" y2="146.75"/><line class="cls-1" x1="727.74" y1="172.2" x2="650.31" y2="133.76"/><polyline class="cls-1" points="658.58 120.76 658.6 120.76 725.66 154.08"/><line class="cls-1" x1="723.59" y1="135.95" x2="666.86" y2="107.8"/><line class="cls-1" x1="721.51" y1="117.84" x2="675.14" y2="94.8"/><line class="cls-1" x1="719.4" y1="99.71" x2="683.4" y2="81.81"/><line class="cls-1" x1="717.31" y1="81.59" x2="691.66" y2="68.84"/><line class="cls-1" x1="715.23" y1="63.48" x2="699.91" y2="55.85"/><line class="cls-1" x1="714.21" y1="54.42" x2="704.04" y2="49.37"/><line class="cls-1" x1="733.98" y1="226.56" x2="625.54" y2="172.7"/><line class="cls-1" x1="731.91" y1="208.43" x2="633.79" y2="159.72"/><line class="cls-1" x1="729.83" y1="190.31" x2="642.05" y2="146.75"/><line class="cls-1" x1="727.74" y1="172.2" x2="650.31" y2="133.76"/><polyline class="cls-1" points="658.58 120.76 658.6 120.76 725.66 154.08"/><line class="cls-1" x1="723.59" y1="135.95" x2="666.86" y2="107.8"/><line class="cls-1" x1="721.51" y1="117.84" x2="675.14" y2="94.8"/><line class="cls-1" x1="719.4" y1="99.71" x2="683.4" y2="81.81"/><line class="cls-1" x1="717.31" y1="81.59" x2="691.66" y2="68.84"/><line class="cls-1" x1="715.23" y1="63.48" x2="699.91" y2="55.85"/><line class="cls-1" x1="714.21" y1="54.42" x2="704.04" y2="49.37"/><line class="cls-1" x1="733.98" y1="226.56" x2="625.54" y2="172.7"/><line class="cls-1" x1="731.91" y1="208.43" x2="633.79" y2="159.72"/><line class="cls-1" x1="729.83" y1="190.31" x2="642.05" y2="146.75"/><line class="cls-1" x1="727.74" y1="172.2" x2="650.31" y2="133.76"/><polyline class="cls-1" points="658.58 120.76 658.6 120.76 725.66 154.08"/><line class="cls-1" x1="723.59" y1="135.95" x2="666.86" y2="107.8"/><line class="cls-1" x1="721.51" y1="117.84" x2="675.14" y2="94.8"/><line class="cls-1" x1="719.4" y1="99.71" x2="683.4" y2="81.81"/><line class="cls-1" x1="717.31" y1="81.59" x2="691.66" y2="68.84"/><line class="cls-1" x1="715.23" y1="63.48" x2="699.91" y2="55.85"/><line class="cls-1" x1="714.21" y1="54.42" x2="704.04" y2="49.37"/><line class="cls-1" x1="731.91" y1="208.43" x2="633.79" y2="159.72"/><line class="cls-1" x1="729.83" y1="190.31" x2="642.05" y2="146.75"/><line class="cls-1" x1="727.74" y1="172.2" x2="650.31" y2="133.76"/><polyline class="cls-1" points="658.58 120.76 658.6 120.76 725.66 154.08"/><line class="cls-1" x1="723.59" y1="135.95" x2="666.86" y2="107.8"/><line class="cls-1" x1="721.51" y1="117.84" x2="675.14" y2="94.8"/><line class="cls-1" x1="719.4" y1="99.71" x2="683.4" y2="81.81"/><line class="cls-1" x1="717.31" y1="81.59" x2="691.66" y2="68.84"/><line class="cls-1" x1="715.23" y1="63.48" x2="699.91" y2="55.85"/><line class="cls-1" x1="714.21" y1="54.42" x2="704.04" y2="49.37"/><line class="cls-1" x1="731.91" y1="208.43" x2="633.79" y2="159.72"/><line class="cls-1" x1="729.83" y1="190.31" x2="642.05" y2="146.75"/><line class="cls-1" x1="727.74" y1="172.2" x2="650.31" y2="133.76"/><polyline class="cls-1" points="658.58 120.76 658.6 120.76 725.66 154.08"/><line class="cls-1" x1="723.59" y1="135.95" x2="666.86" y2="107.8"/><line class="cls-1" x1="721.51" y1="117.84" x2="675.14" y2="94.8"/><line class="cls-1" x1="719.4" y1="99.71" x2="683.4" y2="81.81"/><line class="cls-1" x1="717.31" y1="81.59" x2="691.66" y2="68.84"/><line class="cls-1" x1="715.23" y1="63.48" x2="699.91" y2="55.85"/><line class="cls-1" x1="714.21" y1="54.42" x2="704.04" y2="49.37"/><line class="cls-1" x1="729.83" y1="190.31" x2="642.05" y2="146.75"/><line class="cls-1" x1="727.74" y1="172.2" x2="650.31" y2="133.76"/><polyline class="cls-1" points="658.58 120.76 658.6 120.76 725.66 154.08"/><line class="cls-1" x1="723.59" y1="135.95" x2="666.86" y2="107.8"/><line class="cls-1" x1="721.51" y1="117.84" x2="675.14" y2="94.8"/><line class="cls-1" x1="719.4" y1="99.71" x2="683.4" y2="81.81"/><line class="cls-1" x1="717.31" y1="81.59" x2="691.66" y2="68.84"/><line class="cls-1" x1="715.23" y1="63.48" x2="699.91" y2="55.85"/><line class="cls-1" x1="714.21" y1="54.42" x2="704.04" y2="49.37"/><line class="cls-1" x1="729.83" y1="190.31" x2="642.05" y2="146.75"/><line class="cls-1" x1="727.74" y1="172.2" x2="650.31" y2="133.76"/><polyline class="cls-1" points="658.58 120.76 658.6 120.76 725.66 154.08"/><line class="cls-1" x1="723.59" y1="135.95" x2="666.86" y2="107.8"/><line class="cls-1" x1="721.51" y1="117.84" x2="675.14" y2="94.8"/><line class="cls-1" x1="719.4" y1="99.71" x2="683.4" y2="81.81"/><line class="cls-1" x1="717.31" y1="81.59" x2="691.66" y2="68.84"/><line class="cls-1" x1="715.23" y1="63.48" x2="699.91" y2="55.85"/><line class="cls-1" x1="714.21" y1="54.42" x2="704.04" y2="49.37"/><line class="cls-1" x1="727.74" y1="172.2" x2="650.31" y2="133.76"/><polyline class="cls-1" points="658.58 120.76 658.6 120.76 725.66 154.08"/><line class="cls-1" x1="723.59" y1="135.95" x2="666.86" y2="107.8"/><line class="cls-1" x1="721.51" y1="117.84" x2="675.14" y2="94.8"/><line class="cls-1" x1="719.4" y1="99.71" x2="683.4" y2="81.81"/><line class="cls-1" x1="717.31" y1="81.59" x2="691.66" y2="68.84"/><line class="cls-1" x1="715.23" y1="63.48" x2="699.91" y2="55.85"/><line class="cls-1" x1="714.21" y1="54.42" x2="704.04" y2="49.37"/><line class="cls-1" x1="727.74" y1="172.2" x2="650.31" y2="133.76"/><polyline class="cls-1" points="658.58 120.76 658.6 120.76 725.66 154.08"/><line class="cls-1" x1="723.59" y1="135.95" x2="666.86" y2="107.8"/><line class="cls-1" x1="721.51" y1="117.84" x2="675.14" y2="94.8"/><line class="cls-1" x1="719.4" y1="99.71" x2="683.4" y2="81.81"/><line class="cls-1" x1="717.31" y1="81.59" x2="691.66" y2="68.84"/><line class="cls-1" x1="715.23" y1="63.48" x2="699.91" y2="55.85"/><line class="cls-1" x1="714.21" y1="54.42" x2="704.04" y2="49.37"/><polyline class="cls-1" points="658.58 120.76 658.6 120.76 725.66 154.08"/><line class="cls-1" x1="723.59" y1="135.95" x2="666.86" y2="107.8"/><line class="cls-1" x1="721.51" y1="117.84" x2="675.14" y2="94.8"/><line class="cls-1" x1="719.4" y1="99.71" x2="683.4" y2="81.81"/><line class="cls-1" x1="717.31" y1="81.59" x2="691.66" y2="68.84"/><line class="cls-1" x1="715.23" y1="63.48" x2="699.91" y2="55.85"/><line class="cls-1" x1="714.21" y1="54.42" x2="704.04" y2="49.37"/><polyline class="cls-1" points="658.58 120.76 658.6 120.76 725.66 154.08"/><line class="cls-1" x1="723.59" y1="135.95" x2="666.86" y2="107.8"/><line class="cls-1" x1="721.51" y1="117.84" x2="675.14" y2="94.8"/><line class="cls-1" x1="719.4" y1="99.71" x2="683.4" y2="81.81"/><line class="cls-1" x1="717.31" y1="81.59" x2="691.66" y2="68.84"/><line class="cls-1" x1="715.23" y1="63.48" x2="699.91" y2="55.85"/><line class="cls-1" x1="714.21" y1="54.42" x2="704.04" y2="49.37"/><line class="cls-1" x1="723.59" y1="135.95" x2="666.86" y2="107.8"/><line class="cls-1" x1="721.51" y1="117.84" x2="675.14" y2="94.8"/><line class="cls-1" x1="719.4" y1="99.71" x2="683.4" y2="81.81"/><line class="cls-1" x1="717.31" y1="81.59" x2="691.66" y2="68.84"/><line class="cls-1" x1="715.23" y1="63.48" x2="699.91" y2="55.85"/><line class="cls-1" x1="714.21" y1="54.42" x2="704.04" y2="49.37"/><line class="cls-1" x1="723.59" y1="135.95" x2="666.86" y2="107.8"/><line class="cls-1" x1="721.51" y1="117.84" x2="675.14" y2="94.8"/><line class="cls-1" x1="719.4" y1="99.71" x2="683.4" y2="81.81"/><line class="cls-1" x1="717.31" y1="81.59" x2="691.66" y2="68.84"/><line class="cls-1" x1="715.23" y1="63.48" x2="699.91" y2="55.85"/><line class="cls-1" x1="714.21" y1="54.42" x2="704.04" y2="49.37"/><line class="cls-1" x1="721.51" y1="117.84" x2="675.14" y2="94.8"/><line class="cls-1" x1="719.4" y1="99.71" x2="683.4" y2="81.81"/><line class="cls-1" x1="717.31" y1="81.59" x2="691.66" y2="68.84"/><line class="cls-1" x1="715.23" y1="63.48" x2="699.91" y2="55.85"/><line class="cls-1" x1="714.21" y1="54.42" x2="704.04" y2="49.37"/><line class="cls-1" x1="721.51" y1="117.84" x2="675.14" y2="94.8"/><line class="cls-1" x1="719.4" y1="99.71" x2="683.4" y2="81.81"/><line class="cls-1" x1="717.31" y1="81.59" x2="691.66" y2="68.84"/><line class="cls-1" x1="715.23" y1="63.48" x2="699.91" y2="55.85"/><line class="cls-1" x1="714.21" y1="54.42" x2="704.04" y2="49.37"/><line class="cls-1" x1="457.27" y1="263.98" x2="446.68" y2="258.73"/><line class="cls-1" x1="465.52" y1="251.01" x2="444.61" y2="240.61"/><line class="cls-1" x1="473.78" y1="238.01" x2="442.52" y2="222.48"/><polyline class="cls-1" points="428.93 198.67 428.96 198.67 482.05 225.04"/><path class="cls-1" d="m407.49,170.92s.03,0,.03.03l82.82,41.09"/><line class="cls-1" x1="498.61" y1="199.09" x2="404.59" y2="152.39"/><line class="cls-1" x1="506.86" y1="186.09" x2="405.14" y2="135.56"/><line class="cls-1" x1="457.27" y1="263.98" x2="446.68" y2="258.73"/><line class="cls-1" x1="465.52" y1="251.01" x2="444.61" y2="240.61"/><line class="cls-1" x1="473.78" y1="238.01" x2="442.52" y2="222.48"/><polyline class="cls-1" points="428.93 198.67 428.96 198.67 482.05 225.04"/><path class="cls-1" d="m407.49,170.92s.03,0,.03.03l82.82,41.09"/><line class="cls-1" x1="498.61" y1="199.09" x2="404.59" y2="152.39"/><line class="cls-1" x1="506.86" y1="186.09" x2="405.14" y2="135.56"/><line class="cls-1" x1="457.27" y1="263.98" x2="446.68" y2="258.73"/><line class="cls-1" x1="465.52" y1="251.01" x2="444.61" y2="240.61"/><line class="cls-1" x1="473.78" y1="238.01" x2="442.52" y2="222.48"/><polyline class="cls-1" points="428.93 198.67 428.96 198.67 482.05 225.04"/><path class="cls-1" d="m407.49,170.92s.03,0,.03.03l82.82,41.09"/><line class="cls-1" x1="498.61" y1="199.09" x2="404.59" y2="152.39"/><line class="cls-1" x1="506.86" y1="186.09" x2="405.14" y2="135.56"/><line class="cls-1" x1="515.12" y1="173.09" x2="405.68" y2="118.74"/><line class="cls-1" x1="457.27" y1="263.98" x2="446.68" y2="258.73"/><line class="cls-1" x1="465.52" y1="251.01" x2="444.61" y2="240.61"/><line class="cls-1" x1="473.78" y1="238.01" x2="442.52" y2="222.48"/><polyline class="cls-1" points="428.93 198.67 428.96 198.67 482.05 225.04"/><path class="cls-1" d="m407.49,170.92s.03,0,.03.03l82.82,41.09"/><line class="cls-1" x1="498.61" y1="199.09" x2="404.59" y2="152.39"/><line class="cls-1" x1="506.86" y1="186.09" x2="405.14" y2="135.56"/><line class="cls-1" x1="515.12" y1="173.09" x2="405.68" y2="118.74"/><line class="cls-1" x1="457.27" y1="263.98" x2="446.68" y2="258.73"/><line class="cls-1" x1="465.52" y1="251.01" x2="444.61" y2="240.61"/><line class="cls-1" x1="473.78" y1="238.01" x2="442.52" y2="222.48"/><polyline class="cls-1" points="428.93 198.67 428.96 198.67 482.05 225.04"/><path class="cls-1" d="m407.49,170.92s.03,0,.03.03l82.82,41.09"/><line class="cls-1" x1="498.61" y1="199.09" x2="404.59" y2="152.39"/><line class="cls-1" x1="506.86" y1="186.09" x2="405.14" y2="135.56"/><line class="cls-1" x1="515.12" y1="173.09" x2="405.68" y2="118.74"/><line class="cls-1" x1="523.39" y1="160.14" x2="406.2" y2="101.95"/><line class="cls-1" x1="457.27" y1="263.98" x2="446.68" y2="258.73"/><line class="cls-1" x1="465.52" y1="251.01" x2="444.61" y2="240.61"/><line class="cls-1" x1="473.78" y1="238.01" x2="442.52" y2="222.48"/><polyline class="cls-1" points="428.93 198.67 428.96 198.67 482.05 225.04"/><path class="cls-1" d="m407.49,170.92s.03,0,.03.03l82.82,41.09"/><line class="cls-1" x1="498.61" y1="199.09" x2="404.59" y2="152.39"/><line class="cls-1" x1="506.86" y1="186.09" x2="405.14" y2="135.56"/><line class="cls-1" x1="515.12" y1="173.09" x2="405.68" y2="118.74"/><line class="cls-1" x1="523.39" y1="160.14" x2="406.2" y2="101.95"/><line class="cls-1" x1="457.27" y1="263.98" x2="446.68" y2="258.73"/><line class="cls-1" x1="465.52" y1="251.01" x2="444.61" y2="240.61"/><line class="cls-1" x1="473.78" y1="238.01" x2="442.52" y2="222.48"/><polyline class="cls-1" points="428.93 198.67 428.96 198.67 482.05 225.04"/><path class="cls-1" d="m407.49,170.92s.03,0,.03.03l82.82,41.09"/><line class="cls-1" x1="498.61" y1="199.09" x2="404.59" y2="152.39"/><line class="cls-1" x1="506.86" y1="186.09" x2="405.14" y2="135.56"/><line class="cls-1" x1="515.12" y1="173.09" x2="405.68" y2="118.74"/><line class="cls-1" x1="523.39" y1="160.14" x2="406.2" y2="101.95"/><line class="cls-1" x1="515.01" y1="138.87" x2="406.74" y2="85.09"/><line class="cls-1" x1="457.27" y1="263.98" x2="446.68" y2="258.73"/><line class="cls-1" x1="465.52" y1="251.01" x2="444.61" y2="240.61"/><line class="cls-1" x1="473.78" y1="238.01" x2="442.52" y2="222.48"/><polyline class="cls-1" points="428.93 198.67 428.96 198.67 482.05 225.04"/><path class="cls-1" d="m407.49,170.92s.03,0,.03.03l82.82,41.09"/><line class="cls-1" x1="498.61" y1="199.09" x2="404.59" y2="152.39"/><line class="cls-1" x1="506.86" y1="186.09" x2="405.14" y2="135.56"/><line class="cls-1" x1="515.12" y1="173.09" x2="405.68" y2="118.74"/><line class="cls-1" x1="523.39" y1="160.14" x2="406.2" y2="101.95"/><line class="cls-1" x1="515.01" y1="138.87" x2="406.74" y2="85.09"/><line class="cls-1" x1="457.27" y1="263.98" x2="446.68" y2="258.73"/><line class="cls-1" x1="465.52" y1="251.01" x2="444.61" y2="240.61"/><line class="cls-1" x1="473.78" y1="238.01" x2="442.52" y2="222.48"/><polyline class="cls-1" points="428.93 198.67 428.96 198.67 482.05 225.04"/><path class="cls-1" d="m407.49,170.92s.03,0,.03.03l82.82,41.09"/><line class="cls-1" x1="498.61" y1="199.09" x2="404.59" y2="152.39"/><line class="cls-1" x1="506.86" y1="186.09" x2="405.14" y2="135.56"/><line class="cls-1" x1="515.12" y1="173.09" x2="405.68" y2="118.74"/><line class="cls-1" x1="523.39" y1="160.14" x2="406.2" y2="101.95"/><line class="cls-1" x1="515.01" y1="138.87" x2="406.74" y2="85.09"/><polyline class="cls-1" points="407.27 68.3 492.93 110.84 492.96 110.84"/><line class="cls-1" x1="457.27" y1="263.98" x2="446.68" y2="258.73"/><line class="cls-1" x1="465.52" y1="251.01" x2="444.61" y2="240.61"/><line class="cls-1" x1="473.78" y1="238.01" x2="442.52" y2="222.48"/><polyline class="cls-1" points="428.93 198.67 428.96 198.67 482.05 225.04"/><path class="cls-1" d="m407.49,170.92s.03,0,.03.03l82.82,41.09"/><line class="cls-1" x1="498.61" y1="199.09" x2="404.59" y2="152.39"/><line class="cls-1" x1="506.86" y1="186.09" x2="405.14" y2="135.56"/><line class="cls-1" x1="515.12" y1="173.09" x2="405.68" y2="118.74"/><line class="cls-1" x1="523.39" y1="160.14" x2="406.2" y2="101.95"/><line class="cls-1" x1="515.01" y1="138.87" x2="406.74" y2="85.09"/><polyline class="cls-1" points="407.27 68.3 492.93 110.84 492.96 110.84"/><line class="cls-1" x1="457.27" y1="263.98" x2="446.68" y2="258.73"/><line class="cls-1" x1="465.52" y1="251.01" x2="444.61" y2="240.61"/><line class="cls-1" x1="473.78" y1="238.01" x2="442.52" y2="222.48"/><polyline class="cls-1" points="428.93 198.67 428.96 198.67 482.05 225.04"/><path class="cls-1" d="m407.49,170.92s.03,0,.03.03l82.82,41.09"/><line class="cls-1" x1="498.61" y1="199.09" x2="404.59" y2="152.39"/><line class="cls-1" x1="506.86" y1="186.09" x2="405.14" y2="135.56"/><line class="cls-1" x1="515.12" y1="173.09" x2="405.68" y2="118.74"/><line class="cls-1" x1="523.39" y1="160.14" x2="406.2" y2="101.95"/><line class="cls-1" x1="515.01" y1="138.87" x2="406.74" y2="85.09"/><polyline class="cls-1" points="407.27 68.3 492.93 110.84 492.96 110.84"/><line class="cls-1" x1="470.9" y1="82.8" x2="407.78" y2="51.48"/><line class="cls-1" x1="457.27" y1="263.98" x2="446.68" y2="258.73"/><line class="cls-1" x1="465.52" y1="251.01" x2="444.61" y2="240.61"/><line class="cls-1" x1="473.78" y1="238.01" x2="442.52" y2="222.48"/><polyline class="cls-1" points="428.93 198.67 428.96 198.67 482.05 225.04"/><path class="cls-1" d="m407.49,170.92s.03,0,.03.03l82.82,41.09"/><line class="cls-1" x1="498.61" y1="199.09" x2="404.59" y2="152.39"/><line class="cls-1" x1="506.86" y1="186.09" x2="405.14" y2="135.56"/><line class="cls-1" x1="515.12" y1="173.09" x2="405.68" y2="118.74"/><line class="cls-1" x1="523.39" y1="160.14" x2="406.2" y2="101.95"/><line class="cls-1" x1="515.01" y1="138.87" x2="406.74" y2="85.09"/><polyline class="cls-1" points="407.27 68.3 492.93 110.84 492.96 110.84"/><line class="cls-1" x1="470.9" y1="82.8" x2="407.78" y2="51.48"/><line class="cls-1" x1="465.52" y1="251.01" x2="444.61" y2="240.61"/><line class="cls-1" x1="473.78" y1="238.01" x2="442.52" y2="222.48"/><polyline class="cls-1" points="428.93 198.67 428.96 198.67 482.05 225.04"/><path class="cls-1" d="m407.49,170.92s.03,0,.03.03l82.82,41.09"/><line class="cls-1" x1="498.61" y1="199.09" x2="404.59" y2="152.39"/><line class="cls-1" x1="506.86" y1="186.09" x2="405.14" y2="135.56"/><line class="cls-1" x1="515.12" y1="173.09" x2="405.68" y2="118.74"/><line class="cls-1" x1="523.39" y1="160.14" x2="406.2" y2="101.95"/><line class="cls-1" x1="515.01" y1="138.87" x2="406.74" y2="85.09"/><polyline class="cls-1" points="407.27 68.3 492.93 110.84 492.96 110.84"/><line class="cls-1" x1="470.9" y1="82.8" x2="407.78" y2="51.48"/><polyline class="cls-1" points="408.33 34.64 448.83 54.76 448.86 54.76"/><line class="cls-1" x1="465.52" y1="251.01" x2="444.61" y2="240.61"/><line class="cls-1" x1="473.78" y1="238.01" x2="442.52" y2="222.48"/><polyline class="cls-1" points="428.93 198.67 428.96 198.67 482.05 225.04"/><path class="cls-1" d="m407.49,170.92s.03,0,.03.03l82.82,41.09"/><line class="cls-1" x1="498.61" y1="199.09" x2="404.59" y2="152.39"/><line class="cls-1" x1="506.86" y1="186.09" x2="405.14" y2="135.56"/><line class="cls-1" x1="515.12" y1="173.09" x2="405.68" y2="118.74"/><line class="cls-1" x1="523.39" y1="160.14" x2="406.2" y2="101.95"/><line class="cls-1" x1="515.01" y1="138.87" x2="406.74" y2="85.09"/><polyline class="cls-1" points="407.27 68.3 492.93 110.84 492.96 110.84"/><line class="cls-1" x1="470.9" y1="82.8" x2="407.78" y2="51.48"/><polyline class="cls-1" points="408.33 34.64 448.83 54.76 448.86 54.76"/><line class="cls-1" x1="473.78" y1="238.01" x2="442.52" y2="222.48"/><polyline class="cls-1" points="428.93 198.67 428.96 198.67 482.05 225.04"/><path class="cls-1" d="m407.49,170.92s.03,0,.03.03l82.82,41.09"/><line class="cls-1" x1="498.61" y1="199.09" x2="404.59" y2="152.39"/><line class="cls-1" x1="506.86" y1="186.09" x2="405.14" y2="135.56"/><line class="cls-1" x1="515.12" y1="173.09" x2="405.68" y2="118.74"/><line class="cls-1" x1="523.39" y1="160.14" x2="406.2" y2="101.95"/><line class="cls-1" x1="515.01" y1="138.87" x2="406.74" y2="85.09"/><polyline class="cls-1" points="407.27 68.3 492.93 110.84 492.96 110.84"/><line class="cls-1" x1="470.9" y1="82.8" x2="407.78" y2="51.48"/><polyline class="cls-1" points="408.33 34.64 448.83 54.76 448.86 54.76"/><line class="cls-1" x1="426.78" y1="26.71" x2="408.87" y2="17.82"/><line class="cls-1" x1="473.78" y1="238.01" x2="442.52" y2="222.48"/><polyline class="cls-1" points="428.93 198.67 428.96 198.67 482.05 225.04"/><path class="cls-1" d="m407.49,170.92s.03,0,.03.03l82.82,41.09"/><line class="cls-1" x1="498.61" y1="199.09" x2="404.59" y2="152.39"/><line class="cls-1" x1="506.86" y1="186.09" x2="405.14" y2="135.56"/><line class="cls-1" x1="515.12" y1="173.09" x2="405.68" y2="118.74"/><line class="cls-1" x1="523.39" y1="160.14" x2="406.2" y2="101.95"/><line class="cls-1" x1="515.01" y1="138.87" x2="406.74" y2="85.09"/><polyline class="cls-1" points="407.27 68.3 492.93 110.84 492.96 110.84"/><line class="cls-1" x1="470.9" y1="82.8" x2="407.78" y2="51.48"/><polyline class="cls-1" points="408.33 34.64 448.83 54.76 448.86 54.76"/><line class="cls-1" x1="426.78" y1="26.71" x2="408.87" y2="17.82"/><polyline class="cls-1" points="428.93 198.67 428.96 198.67 482.05 225.04"/><path class="cls-1" d="m407.49,170.92s.03,0,.03.03l82.82,41.09"/><line class="cls-1" x1="498.61" y1="199.09" x2="404.59" y2="152.39"/><line class="cls-1" x1="506.86" y1="186.09" x2="405.14" y2="135.56"/><line class="cls-1" x1="515.12" y1="173.09" x2="405.68" y2="118.74"/><line class="cls-1" x1="523.39" y1="160.14" x2="406.2" y2="101.95"/><line class="cls-1" x1="515.01" y1="138.87" x2="406.74" y2="85.09"/><polyline class="cls-1" points="407.27 68.3 492.93 110.84 492.96 110.84"/><line class="cls-1" x1="470.9" y1="82.8" x2="407.78" y2="51.48"/><polyline class="cls-1" points="408.33 34.64 448.83 54.76 448.86 54.76"/><line class="cls-1" x1="426.78" y1="26.71" x2="408.87" y2="17.82"/><polyline class="cls-1" points="428.93 198.67 428.96 198.67 482.05 225.04"/><path class="cls-1" d="m407.49,170.92s.03,0,.03.03l82.82,41.09"/><line class="cls-1" x1="498.61" y1="199.09" x2="404.59" y2="152.39"/><line class="cls-1" x1="506.86" y1="186.09" x2="405.14" y2="135.56"/><line class="cls-1" x1="515.12" y1="173.09" x2="405.68" y2="118.74"/><line class="cls-1" x1="523.39" y1="160.14" x2="406.2" y2="101.95"/><line class="cls-1" x1="515.01" y1="138.87" x2="406.74" y2="85.09"/><polyline class="cls-1" points="407.27 68.3 492.93 110.84 492.96 110.84"/><line class="cls-1" x1="470.9" y1="82.8" x2="407.78" y2="51.48"/><polyline class="cls-1" points="408.33 34.64 448.83 54.76 448.86 54.76"/><line class="cls-1" x1="426.78" y1="26.71" x2="408.87" y2="17.82"/><path class="cls-1" d="m407.49,170.92s.03,0,.03.03l82.82,41.09"/><line class="cls-1" x1="498.61" y1="199.09" x2="404.59" y2="152.39"/><line class="cls-1" x1="506.86" y1="186.09" x2="405.14" y2="135.56"/><line class="cls-1" x1="515.12" y1="173.09" x2="405.68" y2="118.74"/><line class="cls-1" x1="523.39" y1="160.14" x2="406.2" y2="101.95"/><line class="cls-1" x1="515.01" y1="138.87" x2="406.74" y2="85.09"/><polyline class="cls-1" points="407.27 68.3 492.93 110.84 492.96 110.84"/><line class="cls-1" x1="470.9" y1="82.8" x2="407.78" y2="51.48"/><polyline class="cls-1" points="408.33 34.64 448.83 54.76 448.86 54.76"/><line class="cls-1" x1="426.78" y1="26.71" x2="408.87" y2="17.82"/><path class="cls-1" d="m407.49,170.92s.03,0,.03.03l82.82,41.09"/><line class="cls-1" x1="498.61" y1="199.09" x2="404.59" y2="152.39"/><line class="cls-1" x1="506.86" y1="186.09" x2="405.14" y2="135.56"/><line class="cls-1" x1="515.12" y1="173.09" x2="405.68" y2="118.74"/><line class="cls-1" x1="523.39" y1="160.14" x2="406.2" y2="101.95"/><line class="cls-1" x1="515.01" y1="138.87" x2="406.74" y2="85.09"/><polyline class="cls-1" points="407.27 68.3 492.93 110.84 492.96 110.84"/><line class="cls-1" x1="470.9" y1="82.8" x2="407.78" y2="51.48"/><polyline class="cls-1" points="408.33 34.64 448.83 54.76 448.86 54.76"/><line class="cls-1" x1="426.78" y1="26.71" x2="408.87" y2="17.82"/><line class="cls-1" x1="498.61" y1="199.09" x2="404.59" y2="152.39"/><line class="cls-1" x1="506.86" y1="186.09" x2="405.14" y2="135.56"/><line class="cls-1" x1="515.12" y1="173.09" x2="405.68" y2="118.74"/><line class="cls-1" x1="523.39" y1="160.14" x2="406.2" y2="101.95"/><line class="cls-1" x1="515.01" y1="138.87" x2="406.74" y2="85.09"/><polyline class="cls-1" points="407.27 68.3 492.93 110.84 492.96 110.84"/><line class="cls-1" x1="470.9" y1="82.8" x2="407.78" y2="51.48"/><polyline class="cls-1" points="408.33 34.64 448.83 54.76 448.86 54.76"/><line class="cls-1" x1="426.78" y1="26.71" x2="408.87" y2="17.82"/><line class="cls-1" x1="498.61" y1="199.09" x2="404.59" y2="152.39"/><line class="cls-1" x1="506.86" y1="186.09" x2="405.14" y2="135.56"/><line class="cls-1" x1="515.12" y1="173.09" x2="405.68" y2="118.74"/><line class="cls-1" x1="523.39" y1="160.14" x2="406.2" y2="101.95"/><line class="cls-1" x1="515.01" y1="138.87" x2="406.74" y2="85.09"/><polyline class="cls-1" points="407.27 68.3 492.93 110.84 492.96 110.84"/><line class="cls-1" x1="470.9" y1="82.8" x2="407.78" y2="51.48"/><polyline class="cls-1" points="408.33 34.64 448.83 54.76 448.86 54.76"/><line class="cls-1" x1="426.78" y1="26.71" x2="408.87" y2="17.82"/><line class="cls-1" x1="506.86" y1="186.09" x2="405.14" y2="135.56"/><line class="cls-1" x1="515.12" y1="173.09" x2="405.68" y2="118.74"/><line class="cls-1" x1="523.39" y1="160.14" x2="406.2" y2="101.95"/><line class="cls-1" x1="515.01" y1="138.87" x2="406.74" y2="85.09"/><polyline class="cls-1" points="407.27 68.3 492.93 110.84 492.96 110.84"/><line class="cls-1" x1="470.9" y1="82.8" x2="407.78" y2="51.48"/><polyline class="cls-1" points="408.33 34.64 448.83 54.76 448.86 54.76"/><line class="cls-1" x1="426.78" y1="26.71" x2="408.87" y2="17.82"/><line class="cls-1" x1="506.86" y1="186.09" x2="405.14" y2="135.56"/><line class="cls-1" x1="515.12" y1="173.09" x2="405.68" y2="118.74"/><line class="cls-1" x1="523.39" y1="160.14" x2="406.2" y2="101.95"/><line class="cls-1" x1="515.01" y1="138.87" x2="406.74" y2="85.09"/><polyline class="cls-1" points="407.27 68.3 492.93 110.84 492.96 110.84"/><line class="cls-1" x1="470.9" y1="82.8" x2="407.78" y2="51.48"/><polyline class="cls-1" points="408.33 34.64 448.83 54.76 448.86 54.76"/><line class="cls-1" x1="426.78" y1="26.71" x2="408.87" y2="17.82"/><line class="cls-1" x1="515.12" y1="173.09" x2="405.68" y2="118.74"/><line class="cls-1" x1="523.39" y1="160.14" x2="406.2" y2="101.95"/><line class="cls-1" x1="515.01" y1="138.87" x2="406.74" y2="85.09"/><polyline class="cls-1" points="407.27 68.3 492.93 110.84 492.96 110.84"/><line class="cls-1" x1="470.9" y1="82.8" x2="407.78" y2="51.48"/><polyline class="cls-1" points="408.33 34.64 448.83 54.76 448.86 54.76"/><line class="cls-1" x1="426.78" y1="26.71" x2="408.87" y2="17.82"/><line class="cls-1" x1="515.12" y1="173.09" x2="405.68" y2="118.74"/><line class="cls-1" x1="523.39" y1="160.14" x2="406.2" y2="101.95"/><line class="cls-1" x1="515.01" y1="138.87" x2="406.74" y2="85.09"/><polyline class="cls-1" points="407.27 68.3 492.93 110.84 492.96 110.84"/><line class="cls-1" x1="470.9" y1="82.8" x2="407.78" y2="51.48"/><polyline class="cls-1" points="408.33 34.64 448.83 54.76 448.86 54.76"/><line class="cls-1" x1="426.78" y1="26.71" x2="408.87" y2="17.82"/><polyline class="cls-2" points="527.12 154.28 554.29 118.05 610.6 196.17"/><line class="cls-2" x1="754.93" y1="396.36" x2="696.11" y2="314.74"/><path class="cls-2" d="m409.3,4.47c-.42-.57-.84-1.12-1.27-1.63-51.59,84.15-108.57,177.04-108.75,177.34,0,0-19.39-27.41-19.6-27.71l-9.29-13.15-9.32-13.18-9.32-13.18-26.62-37.63v-.03l-.93-1.3S12.82,376.89,2.84,391.18"/><polygon class="cls-2" points="735.1 236.29 696.11 314.74 610.6 196.17 712.16 36.6 735.1 236.29"/><polyline class="cls-2" points="712.16 36.6 712.22 36.48 920.65 378.24"/><path class="cls-2" d="m527.12,154.28l-78.33,122.98-1.84-16.07c-.12-1.27-2.05-17.85-2.08-18.12-.12-1.27-2.05-17.85-2.08-18.12-.06-.6-1.08-9.53-1.12-9.83l-9.8-12.69h-.03l-10.7-13.87c-.97-1.3-16.76-21.68-17-21.98,1.15-35.85,1.63-51.1,1.81-56.92.03-.3.03-.57.03-.81v-.27c.03-.3.03-.54.03-.75.18-5.79.72-22.1,1.99-62.5.09-2.44,1.3-40.55,1.3-40.85,30.96,39.41,117.56,149.49,117.83,149.82v-.02Z"/><path class="cls-2" d="m225.14,75.32c-.29,19.71-1.6,108.12-1.6,108.12-.91,2.06-27.51,62.25-27.17,61.48.22.3,22.01,30.42,22.01,30.42-.14,3.17-1.77,40.99-1.93,44.65,1.71-2.89,83.31-140.63,82.82-139.81"/><line class="cls-1" x1="229.29" y1="298.31" x2="217.64" y2="292.52"/><line class="cls-1" x1="237.11" y1="285.11" x2="218.36" y2="275.8"/><line class="cls-1" x1="244.95" y1="271.9" x2="199.64" y2="249.4"/><line class="cls-1" x1="252.76" y1="258.73" x2="201.53" y2="233.25"/><polyline class="cls-1" points="260.59 245.51 260.56 245.51 207.72 219.26"/><line class="cls-1" x1="268.4" y1="232.31" x2="213.89" y2="205.26"/><line class="cls-1" x1="276.21" y1="219.11" x2="220.11" y2="191.25"/><line class="cls-1" x1="284.05" y1="205.9" x2="223.67" y2="175.9"/><line class="cls-1" x1="291.86" y1="192.7" x2="223.9" y2="158.95"/><polyline class="cls-1" points="224.14 141.98 298.31 178.83 299.7 179.53"/><line class="cls-1" x1="279.68" y1="152.48" x2="224.42" y2="125.03"/><line class="cls-1" x1="261.08" y1="126.16" x2="224.65" y2="108.06"/><line class="cls-1" x1="237.11" y1="285.11" x2="218.36" y2="275.8"/><line class="cls-1" x1="244.95" y1="271.9" x2="199.64" y2="249.4"/><line class="cls-1" x1="252.76" y1="258.73" x2="201.53" y2="233.25"/><polyline class="cls-1" points="260.59 245.51 260.56 245.51 207.72 219.26"/><line class="cls-1" x1="268.4" y1="232.31" x2="213.89" y2="205.26"/><line class="cls-1" x1="276.21" y1="219.11" x2="220.11" y2="191.25"/><line class="cls-1" x1="284.05" y1="205.9" x2="223.67" y2="175.9"/><line class="cls-1" x1="291.86" y1="192.7" x2="223.9" y2="158.95"/><polyline class="cls-1" points="224.14 141.98 298.31 178.83 299.7 179.53"/><line class="cls-1" x1="279.68" y1="152.48" x2="224.42" y2="125.03"/><line class="cls-1" x1="261.08" y1="126.16" x2="224.65" y2="108.06"/><polyline class="cls-1" points="242.48 99.84 242.45 99.84 224.89 91.12"/><line class="cls-1" x1="237.11" y1="285.11" x2="218.36" y2="275.8"/><line class="cls-1" x1="244.95" y1="271.9" x2="199.64" y2="249.4"/><line class="cls-1" x1="252.76" y1="258.73" x2="201.53" y2="233.25"/><polyline class="cls-1" points="260.59 245.51 260.56 245.51 207.72 219.26"/><line class="cls-1" x1="268.4" y1="232.31" x2="213.89" y2="205.26"/><line class="cls-1" x1="276.21" y1="219.11" x2="220.11" y2="191.25"/><line class="cls-1" x1="284.05" y1="205.9" x2="223.67" y2="175.9"/><line class="cls-1" x1="291.86" y1="192.7" x2="223.9" y2="158.95"/><polyline class="cls-1" points="224.14 141.98 298.31 178.83 299.7 179.53"/><line class="cls-1" x1="279.68" y1="152.48" x2="224.42" y2="125.03"/><line class="cls-1" x1="261.08" y1="126.16" x2="224.65" y2="108.06"/><polyline class="cls-1" points="242.48 99.84 242.45 99.84 224.89 91.12"/><line class="cls-1" x1="244.95" y1="271.9" x2="199.64" y2="249.4"/><line class="cls-1" x1="252.76" y1="258.73" x2="201.53" y2="233.25"/><polyline class="cls-1" points="260.59 245.51 260.56 245.51 207.72 219.26"/><line class="cls-1" x1="268.4" y1="232.31" x2="213.89" y2="205.26"/><line class="cls-1" x1="276.21" y1="219.11" x2="220.11" y2="191.25"/><line class="cls-1" x1="284.05" y1="205.9" x2="223.67" y2="175.9"/><line class="cls-1" x1="291.86" y1="192.7" x2="223.9" y2="158.95"/><polyline class="cls-1" points="224.14 141.98 298.31 178.83 299.7 179.53"/><line class="cls-1" x1="279.68" y1="152.48" x2="224.42" y2="125.03"/><line class="cls-1" x1="261.08" y1="126.16" x2="224.65" y2="108.06"/><polyline class="cls-1" points="242.48 99.84 242.45 99.84 224.89 91.12"/><line class="cls-1" x1="244.95" y1="271.9" x2="199.64" y2="249.4"/><line class="cls-1" x1="252.76" y1="258.73" x2="201.53" y2="233.25"/><polyline class="cls-1" points="260.59 245.51 260.56 245.51 207.72 219.26"/><line class="cls-1" x1="268.4" y1="232.31" x2="213.89" y2="205.26"/><line class="cls-1" x1="276.21" y1="219.11" x2="220.11" y2="191.25"/><line class="cls-1" x1="284.05" y1="205.9" x2="223.67" y2="175.9"/><line class="cls-1" x1="291.86" y1="192.7" x2="223.9" y2="158.95"/><polyline class="cls-1" points="224.14 141.98 298.31 178.83 299.7 179.53"/><line class="cls-1" x1="279.68" y1="152.48" x2="224.42" y2="125.03"/><line class="cls-1" x1="261.08" y1="126.16" x2="224.65" y2="108.06"/><polyline class="cls-1" points="242.48 99.84 242.45 99.84 224.89 91.12"/><line class="cls-1" x1="252.76" y1="258.73" x2="201.53" y2="233.25"/><polyline class="cls-1" points="260.59 245.51 260.56 245.51 207.72 219.26"/><line class="cls-1" x1="268.4" y1="232.31" x2="213.89" y2="205.26"/><line class="cls-1" x1="276.21" y1="219.11" x2="220.11" y2="191.25"/><line class="cls-1" x1="284.05" y1="205.9" x2="223.67" y2="175.9"/><line class="cls-1" x1="291.86" y1="192.7" x2="223.9" y2="158.95"/><polyline class="cls-1" points="224.14 141.98 298.31 178.83 299.7 179.53"/><line class="cls-1" x1="279.68" y1="152.48" x2="224.42" y2="125.03"/><line class="cls-1" x1="261.08" y1="126.16" x2="224.65" y2="108.06"/><polyline class="cls-1" points="242.48 99.84 242.45 99.84 224.89 91.12"/><line class="cls-1" x1="252.76" y1="258.73" x2="201.53" y2="233.25"/><polyline class="cls-1" points="260.59 245.51 260.56 245.51 207.72 219.26"/><line class="cls-1" x1="268.4" y1="232.31" x2="213.89" y2="205.26"/><line class="cls-1" x1="276.21" y1="219.11" x2="220.11" y2="191.25"/><line class="cls-1" x1="284.05" y1="205.9" x2="223.67" y2="175.9"/><line class="cls-1" x1="291.86" y1="192.7" x2="223.9" y2="158.95"/><polyline class="cls-1" points="224.14 141.98 298.31 178.83 299.7 179.53"/><line class="cls-1" x1="279.68" y1="152.48" x2="224.42" y2="125.03"/><line class="cls-1" x1="261.08" y1="126.16" x2="224.65" y2="108.06"/><polyline class="cls-1" points="242.48 99.84 242.45 99.84 224.89 91.12"/><polyline class="cls-1" points="260.59 245.51 260.56 245.51 207.72 219.26"/><line class="cls-1" x1="268.4" y1="232.31" x2="213.89" y2="205.26"/><line class="cls-1" x1="276.21" y1="219.11" x2="220.11" y2="191.25"/><line class="cls-1" x1="284.05" y1="205.9" x2="223.67" y2="175.9"/><line class="cls-1" x1="291.86" y1="192.7" x2="223.9" y2="158.95"/><polyline class="cls-1" points="224.14 141.98 298.31 178.83 299.7 179.53"/><line class="cls-1" x1="279.68" y1="152.48" x2="224.42" y2="125.03"/><line class="cls-1" x1="261.08" y1="126.16" x2="224.65" y2="108.06"/><polyline class="cls-1" points="242.48 99.84 242.45 99.84 224.89 91.12"/><polyline class="cls-1" points="260.59 245.51 260.56 245.51 207.72 219.26"/><line class="cls-1" x1="268.4" y1="232.31" x2="213.89" y2="205.26"/><line class="cls-1" x1="276.21" y1="219.11" x2="220.11" y2="191.25"/><line class="cls-1" x1="284.05" y1="205.9" x2="223.67" y2="175.9"/><line class="cls-1" x1="291.86" y1="192.7" x2="223.9" y2="158.95"/><polyline class="cls-1" points="224.14 141.98 298.31 178.83 299.7 179.53"/><line class="cls-1" x1="279.68" y1="152.48" x2="224.42" y2="125.03"/><line class="cls-1" x1="261.08" y1="126.16" x2="224.65" y2="108.06"/><polyline class="cls-1" points="242.48 99.84 242.45 99.84 224.89 91.12"/><line class="cls-1" x1="268.4" y1="232.31" x2="213.89" y2="205.26"/><line class="cls-1" x1="276.21" y1="219.11" x2="220.11" y2="191.25"/><line class="cls-1" x1="284.05" y1="205.9" x2="223.67" y2="175.9"/><line class="cls-1" x1="291.86" y1="192.7" x2="223.9" y2="158.95"/><polyline class="cls-1" points="224.14 141.98 298.31 178.83 299.7 179.53"/><line class="cls-1" x1="279.68" y1="152.48" x2="224.42" y2="125.03"/><line class="cls-1" x1="261.08" y1="126.16" x2="224.65" y2="108.06"/><polyline class="cls-1" points="242.48 99.84 242.45 99.84 224.89 91.12"/><line class="cls-1" x1="268.4" y1="232.31" x2="213.89" y2="205.26"/><line class="cls-1" x1="276.21" y1="219.11" x2="220.11" y2="191.25"/><line class="cls-1" x1="284.05" y1="205.9" x2="223.67" y2="175.9"/><line class="cls-1" x1="291.86" y1="192.7" x2="223.9" y2="158.95"/><polyline class="cls-1" points="224.14 141.98 298.31 178.83 299.7 179.53"/><line class="cls-1" x1="279.68" y1="152.48" x2="224.42" y2="125.03"/><line class="cls-1" x1="261.08" y1="126.16" x2="224.65" y2="108.06"/><polyline class="cls-1" points="242.48 99.84 242.45 99.84 224.89 91.12"/><line class="cls-1" x1="276.21" y1="219.11" x2="220.11" y2="191.25"/><line class="cls-1" x1="284.05" y1="205.9" x2="223.67" y2="175.9"/><line class="cls-1" x1="291.86" y1="192.7" x2="223.9" y2="158.95"/><polyline class="cls-1" points="224.14 141.98 298.31 178.83 299.7 179.53"/><line class="cls-1" x1="279.68" y1="152.48" x2="224.42" y2="125.03"/><line class="cls-1" x1="261.08" y1="126.16" x2="224.65" y2="108.06"/><polyline class="cls-1" points="242.48 99.84 242.45 99.84 224.89 91.12"/><line class="cls-1" x1="276.21" y1="219.11" x2="220.11" y2="191.25"/><line class="cls-1" x1="284.05" y1="205.9" x2="223.67" y2="175.9"/><line class="cls-1" x1="291.86" y1="192.7" x2="223.9" y2="158.95"/><polyline class="cls-1" points="224.14 141.98 298.31 178.83 299.7 179.53"/><line class="cls-1" x1="279.68" y1="152.48" x2="224.42" y2="125.03"/><line class="cls-1" x1="261.08" y1="126.16" x2="224.65" y2="108.06"/><polyline class="cls-1" points="242.48 99.84 242.45 99.84 224.89 91.12"/><line class="cls-1" x1="284.05" y1="205.9" x2="223.67" y2="175.9"/><line class="cls-1" x1="291.86" y1="192.7" x2="223.9" y2="158.95"/><polyline class="cls-1" points="224.14 141.98 298.31 178.83 299.7 179.53"/><line class="cls-1" x1="279.68" y1="152.48" x2="224.42" y2="125.03"/><line class="cls-1" x1="261.08" y1="126.16" x2="224.65" y2="108.06"/><polyline class="cls-1" points="242.48 99.84 242.45 99.84 224.89 91.12"/><line class="cls-1" x1="284.05" y1="205.9" x2="223.67" y2="175.9"/><line class="cls-1" x1="291.86" y1="192.7" x2="223.9" y2="158.95"/><polyline class="cls-1" points="224.14 141.98 298.31 178.83 299.7 179.53"/><line class="cls-1" x1="279.68" y1="152.48" x2="224.42" y2="125.03"/><line class="cls-1" x1="261.08" y1="126.16" x2="224.65" y2="108.06"/><polyline class="cls-1" points="242.48 99.84 242.45 99.84 224.89 91.12"/><line class="cls-1" x1="291.86" y1="192.7" x2="223.9" y2="158.95"/><polyline class="cls-1" points="224.14 141.98 298.31 178.83 299.7 179.53"/><line class="cls-1" x1="279.68" y1="152.48" x2="224.42" y2="125.03"/><line class="cls-1" x1="261.08" y1="126.16" x2="224.65" y2="108.06"/><polyline class="cls-1" points="242.48 99.84 242.45 99.84 224.89 91.12"/><line class="cls-1" x1="291.86" y1="192.7" x2="223.9" y2="158.95"/><polyline class="cls-1" points="224.14 141.98 298.31 178.83 299.7 179.53"/><line class="cls-1" x1="279.68" y1="152.48" x2="224.42" y2="125.03"/><line class="cls-1" x1="261.08" y1="126.16" x2="224.65" y2="108.06"/><polyline class="cls-1" points="242.48 99.84 242.45 99.84 224.89 91.12"/><polyline class="cls-1" points="224.14 141.98 298.31 178.83 299.7 179.53"/><line class="cls-1" x1="279.68" y1="152.48" x2="224.42" y2="125.03"/><line class="cls-1" x1="261.08" y1="126.16" x2="224.65" y2="108.06"/><polyline class="cls-1" points="242.48 99.84 242.45 99.84 224.89 91.12"/><polyline class="cls-1" points="224.14 141.98 298.31 178.83 299.7 179.53"/><line class="cls-1" x1="279.68" y1="152.48" x2="224.42" y2="125.03"/><line class="cls-1" x1="261.08" y1="126.16" x2="224.65" y2="108.06"/><polyline class="cls-1" points="242.48 99.84 242.45 99.84 224.89 91.12"/><line class="cls-1" x1="279.68" y1="152.48" x2="224.42" y2="125.03"/><line class="cls-1" x1="261.08" y1="126.16" x2="224.65" y2="108.06"/><polyline class="cls-1" points="242.48 99.84 242.45 99.84 224.89 91.12"/><line class="cls-1" x1="279.68" y1="152.48" x2="224.42" y2="125.03"/><line class="cls-1" x1="261.08" y1="126.16" x2="224.65" y2="108.06"/><polyline class="cls-1" points="242.48 99.84 242.45 99.84 224.89 91.12"/><line class="cls-1" x1="261.08" y1="126.16" x2="224.65" y2="108.06"/><polyline class="cls-1" points="242.48 99.84 242.45 99.84 224.89 91.12"/><line class="cls-1" x1="261.08" y1="126.16" x2="224.65" y2="108.06"/><polyline class="cls-1" points="242.48 99.84 242.45 99.84 224.89 91.12"/><polyline class="cls-1" points="242.48 99.84 242.45 99.84 224.89 91.12"/><polyline class="cls-1" points="242.48 99.84 242.45 99.84 224.89 91.12"/></g></g></svg>