<?xml version="1.0" encoding="UTF-8"?>
<svg id="_レイヤー_2" data-name="レイヤー 2" xmlns="http://www.w3.org/2000/svg" xmlns:xlink="http://www.w3.org/1999/xlink" viewBox="0 0 47.1 471.03">
  <defs>
    <style>
      .cls-1 {
        fill: url(#_名称未設定グラデーション_148-10);
      }

      .cls-2 {
        fill: url(#_名称未設定グラデーション_148-11);
      }

      .cls-3 {
        fill: url(#_名称未設定グラデーション_148-12);
      }

      .cls-4 {
        fill: url(#_名称未設定グラデーション_148-13);
      }

      .cls-5 {
        fill: url(#_名称未設定グラデーション_148-8);
      }

      .cls-6 {
        fill: url(#_名称未設定グラデーション_148-2);
      }

      .cls-7 {
        fill: url(#_名称未設定グラデーション_148-3);
      }

      .cls-8 {
        fill: url(#_名称未設定グラデーション_148-7);
      }

      .cls-9 {
        fill: url(#_名称未設定グラデーション_148-9);
      }

      .cls-10 {
        fill: url(#_名称未設定グラデーション_148-4);
      }

      .cls-11 {
        fill: url(#_名称未設定グラデーション_148-6);
      }

      .cls-12 {
        fill: url(#_名称未設定グラデーション_148-5);
      }

      .cls-13 {
        fill: #fff;
      }

      .cls-14 {
        fill: url(#_名称未設定グラデーション_148);
      }
    </style>
    <linearGradient id="_名称未設定グラデーション_148" data-name="名称未設定グラデーション 148" x1="23.18" y1="13.37" x2="23.18" y2="455.73" gradientUnits="userSpaceOnUse">
      <stop offset="0" stop-color="#acd6a6"/>
      <stop offset=".34" stop-color="#76c9d6"/>
      <stop offset=".61" stop-color="#49a4c3"/>
      <stop offset="1" stop-color="#ec7796"/>
    </linearGradient>
    <linearGradient id="_名称未設定グラデーション_148-2" data-name="名称未設定グラデーション 148" x1="23.09" x2="23.09" y2="455.73" xlink:href="#_名称未設定グラデーション_148"/>
    <linearGradient id="_名称未設定グラデーション_148-3" data-name="名称未設定グラデーション 148" x1="23.24" y1="13.37" x2="23.24" y2="455.73" xlink:href="#_名称未設定グラデーション_148"/>
    <linearGradient id="_名称未設定グラデーション_148-4" data-name="名称未設定グラデーション 148" x1="23.19" x2="23.19" y2="455.73" xlink:href="#_名称未設定グラデーション_148"/>
    <linearGradient id="_名称未設定グラデーション_148-5" data-name="名称未設定グラデーション 148" x1="23.22" y1="13.37" x2="23.22" y2="455.73" xlink:href="#_名称未設定グラデーション_148"/>
    <linearGradient id="_名称未設定グラデーション_148-6" data-name="名称未設定グラデーション 148" x1="22.7" y1="13.37" x2="22.7" y2="455.73" xlink:href="#_名称未設定グラデーション_148"/>
    <linearGradient id="_名称未設定グラデーション_148-7" data-name="名称未設定グラデーション 148" x1="23.19" x2="23.19" y2="455.73" xlink:href="#_名称未設定グラデーション_148"/>
    <linearGradient id="_名称未設定グラデーション_148-8" data-name="名称未設定グラデーション 148" x1="23.22" y1="13.37" x2="23.22" y2="455.73" xlink:href="#_名称未設定グラデーション_148"/>
    <linearGradient id="_名称未設定グラデーション_148-9" data-name="名称未設定グラデーション 148" x1="23.22" y1="13.37" x2="23.22" y2="455.73" xlink:href="#_名称未設定グラデーション_148"/>
    <linearGradient id="_名称未設定グラデーション_148-10" data-name="名称未設定グラデーション 148" x1="23.67" y1="13.37" x2="23.67" y2="455.73" xlink:href="#_名称未設定グラデーション_148"/>
    <linearGradient id="_名称未設定グラデーション_148-11" data-name="名称未設定グラデーション 148" x1="23.07" y1="13.37" x2="23.07" y2="455.73" xlink:href="#_名称未設定グラデーション_148"/>
    <linearGradient id="_名称未設定グラデーション_148-12" data-name="名称未設定グラデーション 148" x1="23.09" y1="13.37" x2="23.09" y2="455.73" xlink:href="#_名称未設定グラデーション_148"/>
    <linearGradient id="_名称未設定グラデーション_148-13" data-name="名称未設定グラデーション 148" x1="23.22" y1="13.37" x2="23.22" y2="455.73" xlink:href="#_名称未設定グラデーション_148"/>
  </defs>
  <g id="_レイヤー_5" data-name="レイヤー 5">
    <rect class="cls-13" width="47.1" height="471.03"/>
    <g>
      <path class="cls-14" d="M17.91,13.7c.06-.24.39-.87,1.47-.87s1.77.39,1.77,1.59c0,.3-.09,1.68-.09,1.95,1.77-.03,5.28-.09,7.5-.21.75-.03,4.44-.24,5.16-.24.42,0,1.71,0,1.71,1.59,0,1.41-.99,1.47-1.74,1.53-4.11.27-8.49.36-12.75.45-.03.36-.09,2.13-.09,2.61,1.62-.33,3.06-.42,4.17-.42,7.65,0,11.19,4.02,11.19,9.03,0,3.69-1.86,5.7-3.03,6.57-3.18,2.37-7.71,2.37-7.83,2.37-.54,0-1.92,0-1.92-1.65,0-1.38.9-1.44,1.77-1.47,2.1-.12,7.62-.51,7.62-6,0-4.14-3.3-5.25-5.13-5.73-.93,2.34-3.24,6.69-5.58,9.39.51,1.02.6,1.2.6,1.62,0,.87-.84,1.62-1.77,1.62-.66,0-.96-.42-1.23-.78-.93.78-2.49,2.1-4.74,2.1-3.09,0-4.83-2.67-4.83-5.76,0-4.47,3.21-8.04,7.44-9.87.03-2.28.03-2.52.06-3.57h-5.07c-.54,0-1.8,0-1.8-1.56s1.08-1.56,2.7-1.56c.69,0,3.66.03,4.26,0,.03-.9.06-2.37.18-2.73ZM17.52,26.27c-2.52,1.53-4.32,3.78-4.32,6.69,0,2.49,1.5,2.85,2.1,2.85,1.2,0,2.55-1.29,3.18-1.95-.66-2.28-.96-5.07-.96-7.59ZM24.57,24.41c-.93,0-2.01.03-3.81.48-.03,1.41-.09,3.6.27,5.82,2.13-2.94,3.06-5.13,3.54-6.3Z"/>
      <path class="cls-6" d="M13.62,70.37c-.51.9-.93,1.32-1.8,1.32-1.08,0-1.8-.75-1.8-1.5,0-.51.21-.9.66-1.62,2.73-4.38,3.81-7.53,4.8-10.44-2.4.06-3.27.06-3.84.06-.51,0-1.77,0-1.77-1.5,0-1.41.93-1.56,1.26-1.62.21-.03,4.65-.09,5.25-.12.12-.48.6-2.7.69-3.12.12-.45.3-1.29,1.59-1.29.3,0,1.8.03,1.8,1.32,0,.6-.15,1.2-.63,2.97.45-.03,3.27-.15,3.48-.15.42,0,1.65,0,1.65,1.56,0,.54-.18,1.23-.87,1.44-.36.12-4.38.3-5.16.33-.21.66-2.01,6.6-5.31,12.36ZM26.43,60.83c-.06-.69.09-1.77,1.59-1.77,1.59,0,1.65,1.17,1.68,1.62l.36,6.3c2.37,1.11,6.06,3.54,6.06,5.07,0,.87-.66,1.71-1.65,1.71-.54,0-.69-.15-2.04-1.32-.03-.03-1.68-1.26-2.52-1.86.03,1.11.03,2.19-.45,3.27-1.41,3.21-4.98,3.21-5.91,3.21-5.31,0-7.2-2.94-7.2-5.58,0-2.37,1.65-5.79,7.77-5.79,1.23,0,1.98.15,2.67.24l-.36-5.1ZM23.88,68.42c-2.43,0-4.53.84-4.53,3,0,2.79,3.18,2.79,3.99,2.79,3.69,0,3.66-2.52,3.6-5.22-.72-.27-1.44-.57-3.06-.57ZM35.01,56.18c.63.51,1.29,1.11,1.29,1.95,0,.93-.87,1.68-1.71,1.68-.57,0-.78-.21-1.65-.96-2.07-1.83-2.82-2.19-5.67-3.66-.39-.18-1.05-.54-1.05-1.32,0-.93.78-1.56,1.68-1.56,1.08,0,4.68,1.86,7.11,3.87Z"/>
      <path class="cls-7" d="M12.69,95.36c-1.35,0-2.37,0-2.37-1.56,0-1.26.69-1.59,1.68-1.59h4.2c.42-2.55.48-2.82.57-3.15.27-.93,1.05-1.02,1.47-1.02,1.23,0,1.8.54,1.8,1.47,0,.39-.03.81-.36,2.61,3.66-.09,5.16-.12,8.67-.27.36-.03,1.98-.12,2.31-.12.48,0,1.68.06,1.68,1.59s-1.14,1.53-1.71,1.56c-5.91.3-8.82.36-11.58.42-.81,3.66-1.17,5.4-2.82,10.56-.72,2.31-2.22,6.6-2.82,7.68-.27.51-.69.87-1.41.87-.6,0-1.86-.33-1.86-1.5,0-.33.03-.6.63-1.92.87-1.86,2.49-6.12,3.6-10.23.48-1.8.9-3.6,1.26-5.4h-2.94ZM35.07,113.99c-.54.12-2.16.36-5.13.36-7.11,0-10.14-1.26-10.14-4.83,0-1.38.66-3.3,2.37-3.3.6,0,1.56.33,1.56,1.14,0,.39-.15.66-.24.84-.21.45-.33.66-.33,1.05,0,.99.81,1.41,1.86,1.65.63.15,1.83.33,3.63.33,1.29,0,2.88-.06,4.26-.21,1.41-.15,1.59-.18,1.86-.18,1.11,0,1.56.63,1.56,1.53s-.48,1.44-1.26,1.62ZM34.89,101.69c-.36.21-.75.24-1.02.24s-1.53-.12-2.28-.18c-.45-.03-.81-.03-1.53-.03-1.47,0-2.97.06-4.41.21-.33.03-2.61.27-2.73.27-1.38,0-1.38-1.38-1.38-1.53,0-1.17.78-1.53,2.76-1.8,1.92-.27,4.86-.36,6.24-.36.06,0,3.42.03,4.26.45.66.36.66.93.66,1.5,0,.36-.18.96-.57,1.23Z"/>
      <path class="cls-10" d="M20.58,145.67c-1.2,2.07-2.7,3.6-5.01,3.6-3.57,0-5.88-3.72-5.88-8.67,0-8.82,6.51-13.86,14.25-13.86,9.99,0,12.75,6.99,12.75,12.24,0,1.74,0,7.14-6.03,10.68-2.88,1.68-6.3,1.98-6.69,1.98-1.74,0-1.74-1.59-1.74-1.74,0-1.32.93-1.47,2.16-1.62,2.25-.3,8.79-1.35,8.79-9.36,0-3.96-1.83-8.7-8.22-9.03-1.14,9.15-3.3,13.95-4.38,15.78ZM17.98,131.27c-3.75,2.13-5.04,6.18-5.04,9.39s1.41,5.07,2.76,5.07,2.25-1.53,3.15-3.96c1.68-4.41,2.25-7.77,2.79-11.79-.78.15-2.16.45-3.66,1.29Z"/>
      <path class="cls-12" d="M8.31,167.54h29.82v7.53c-.66-.45-6.48-4.29-14.91-4.29s-14.25,3.84-14.91,4.29v-7.53Z"/>
      <path class="cls-11" d="M12.27,197.75c-.45-.33-2.76-1.95-2.91-2.13-.12-.15-.21-.45-.21-.75,0-.66.54-1.5,1.35-1.5.72,0,2.01.87,2.91,1.5,1.11.78,1.56,1.08,1.56,1.89,0,.75-.69,1.59-1.41,1.59-.39,0-.66-.15-1.29-.6ZM15.54,202.94c0,.69-.69,2.67-1.47,4.68-.42,1.08-1.53,3.87-2.19,4.71-.21.24-.48.42-.93.42-.81,0-1.62-.63-1.62-1.5,0-.45.12-.69,1.05-2.52.84-1.62,1.56-3.75,2.25-5.76.33-.93.48-1.35,1.5-1.35.54,0,1.41.39,1.41,1.32ZM12.99,189.65c-.39-.3-2.22-1.44-2.58-1.71-.27-.18-.57-.45-.57-1.02,0-.6.48-1.56,1.47-1.56.72,0,2.01.84,3.48,1.83.93.63,1.08.87,1.08,1.35,0,.72-.63,1.77-1.59,1.77-.24,0-.51-.06-1.29-.66ZM27.18,188.9c0-2.46.57-3.09,3.12-3.09h2.82c2.52,0,3.12.63,3.12,3.09v21.27c0,2.64-1.29,2.64-3.78,2.64-1.77,0-2.7,0-2.7-1.65s1.17-1.59,1.62-1.59c1.08,0,1.44,0,1.59-.03.33-.09.48-.36.48-.99v-5.49h-3.63c-.06.87-.36,5.16-2.13,8.37-.69,1.29-1.11,1.53-1.74,1.53-.87,0-1.74-.72-1.74-1.5,0-.39.18-.72.3-.9-.51.33-1.11.42-2.16.42h-3.12c-2.43,0-3.03-.66-3.03-2.94v-7.02c0-2.28.6-2.97,3.09-2.94v-5.16h-2.73c-.69,0-1.47-.24-1.47-1.35,0-.87.27-1.5,1.47-1.5h2.73v-3.69c0-.36,0-1.38,1.41-1.38,1.29,0,1.5.63,1.5,1.38v3.69h2.91c.51,0,1.47.06,1.47,1.35,0,.99-.33,1.5-1.47,1.5h-2.91v5.16c1.23,0,2.01.12,2.49.54.51.42.69,1.17.69,2.4v7.02c0,.42,0,.75-.09,1.2,1.8-2.97,1.89-8.04,1.89-9.27v-11.07ZM22.74,201.65c0-.57-.3-.84-.84-.84h-2.22c-.54,0-.84.27-.84.84v5.73c0,.6.3.84.84.84h2.22c.48,0,.84-.21.84-.84v-5.73ZM29.85,193.13h3.6v-3.51c0-.6-.3-.84-.81-.84h-1.95c-.51,0-.84.21-.84.84v3.51ZM33.45,195.86h-3.6v4.44h3.6v-4.44Z"/>
      <path class="cls-8" d="M19.44,245.84c1.53-.21,1.77-.27,6.21-1.17.33-.06.6-.09.78-.09,1.26,0,1.32,1.38,1.32,1.56,0,1.23-.48,1.32-3.57,2.01-4.86,1.05-11.4,1.92-12.57,1.92-1.5,0-1.5-1.5-1.5-1.71,0-1.23.81-1.38,1.23-1.47.45-.09,4.14-.48,4.92-.6v-7.95c-1.38,1.11-4.44,3.18-5.49,3.18-1.14,0-1.65-1.23-1.65-1.89,0-.84.54-1.17,1.08-1.44,2.19-1.17,7.17-3.81,9.63-8.97h-9.06c-.48,0-1.56-.03-1.56-1.44,0-1.08.36-1.62,1.56-1.62h10.71v-2.4c0-.51.03-1.5,1.59-1.5,1.38,0,1.83.39,1.83,1.5v2.4h10.8c.51,0,1.56.06,1.56,1.44,0,.9-.39,1.62-1.56,1.62h-9.57c.27,2.49.99,4.92,1.86,7.26,1.89-1.35,3.12-2.52,3.78-3.18,1.74-1.83,1.8-1.89,2.46-1.89.84,0,1.59.75,1.59,1.62,0,.54-.09.9-1.83,2.58-2.04,1.92-3.99,3.33-4.71,3.81,2.34,4.23,4.56,5.88,6.87,7.56.39.27.99.72.99,1.56,0,.69-.63,1.92-1.68,1.92-.51,0-.93-.06-2.97-1.8-3.15-2.64-5.43-6.12-6.96-9.93-1.44-3.51-2.16-7.74-2.31-9.15-1.08,2.46-2.82,4.62-3.78,5.7v10.56Z"/>
      <path class="cls-5" d="M16.89,265.22c1.38,0,3.09,0,3.09,2.7,0,1.02-.09,2.4-.21,3.42-.36,3.63-.93,5.97-1.74,7.92,2.49,1.86,2.55,2.28,2.55,2.79,0,.9-.78,1.71-1.65,1.71-.54,0-.57-.03-2.28-1.68-.78,1.29-1.95,3.03-4.29,5.07-.69.6-1.05.72-1.44.72-.96,0-1.71-.93-1.71-1.65,0-.63.48-1.02.87-1.38,1.35-1.14,3.12-2.88,4.23-4.65-.54-.39-.81-.54-3.24-1.98-.57-.33-1.29-.78-1.29-1.92,0-.45.09-.75.39-1.89.75-2.73,1.11-4.68,1.38-6.24h-.9c-.48,0-1.5-.03-1.5-1.47s1.14-1.47,1.5-1.47h1.29c.09-.96.18-1.92.3-3.81.03-.57.06-1.5,1.47-1.5,1.53,0,1.53.96,1.53,1.38,0,.36-.15,1.92-.42,3.93h2.07ZM14.37,268.16c-.39,2.28-.96,4.98-1.32,6.33-.15.57-.21.78-.21,1.02,0,.36.18.57.6.84.6.36,1.59.9,2.19,1.26.9-2.34,1.56-5.94,1.56-8.4,0-.81-.27-1.05-.96-1.05h-1.86ZM31.62,284.51h4.08c.39,0,1.59,0,1.59,1.44s-1.17,1.47-1.59,1.47h-10.92c-2.34,0-3.36-.81-3.36-3.33v-19.92c0-2.46.96-3.33,3.36-3.33h10.71c.39,0,1.56,0,1.56,1.44s-1.2,1.44-1.56,1.44h-3.87v4.62h1.71c2.76,0,2.76,1.86,2.76,3.09v4.83c0,1.26,0,3.12-2.76,3.12h-1.71v5.13ZM28.74,268.34v-4.62h-3.06c-.72,0-1.17.3-1.17,1.2v3.42h4.23ZM24.51,271.16v5.4h7.59c.75,0,.96-.45.96-.96v-3.51c0-.57-.24-.93-.96-.93h-7.59ZM28.74,279.38h-4.23v3.93c0,.81.39,1.2,1.17,1.2h3.06v-5.13Z"/>
      <path class="cls-9" d="M38.13,305.42H8.31v-7.53c.66.45,6.48,4.29,14.91,4.29s14.25-3.84,14.91-4.29v7.53Z"/>
      <path class="cls-1" d="M15.24,322.52c0,.3,0,.48-.03.63-.54,3.15-1.14,6.48-1.14,12.03,0,2.64.18,6,.57,8.28.06.42.21,1.38.21,1.74,0,1.11-.69,1.5-1.65,1.5-.9,0-1.41-.39-1.65-1.38-.48-2.1-.75-6.87-.75-10.38,0-6.84,1.02-12.15,1.11-12.54.15-.54.39-1.53,2.01-1.32,1.14.15,1.32.78,1.32,1.44ZM26.73,322.67c-.03-.63.03-1.77,1.68-1.77s1.71,1.08,1.71,1.74l.06,3.66c.6-.03,3.84-.18,4.2-.18.45,0,1.68,0,1.68,1.59,0,1.35-.93,1.5-1.23,1.53-.39.06-3.87.18-4.62.21l.12,7.14c1.86.99,3.51,2.16,5.07,3.63.9.81,1.14,1.38,1.14,1.89,0,1.05-.87,1.86-1.68,1.86-.63,0-.72-.12-2.1-1.56-.93-.99-1.92-1.71-2.58-2.16,0,1.59-.03,2.82-.48,3.84-1.11,2.43-4.35,2.67-5.7,2.67-5.1,0-7.02-2.82-7.02-5.76,0-3.66,2.97-5.82,7.08-5.82,1.44,0,2.4.24,2.97.39l-.15-6c-1.2.06-5.64.15-8.19.15-.54,0-1.74,0-1.74-1.59s1.08-1.56,2.07-1.56c2.58-.03,5.58-.06,7.8-.15l-.09-3.75ZM24.09,337.97c-1.14,0-4.17.3-4.17,3.09,0,2.58,2.58,2.91,3.84,2.91.84,0,2.49-.18,3.06-1.44.48-1.02.27-3.27.27-3.93-.66-.3-1.5-.63-3-.63Z"/>
      <path class="cls-2" d="M15.24,384.08c0,.45,0,1.56-1.44,1.56-1.26,0-1.5-.75-1.5-1.56v-13.29c-.84,1.41-1.17,1.8-1.77,1.8-.87,0-1.68-.96-1.68-1.89,0-.48.18-.87.6-1.5,1.11-1.74,2.76-4.32,4.29-10.47.18-.75.39-1.47,1.44-1.47.15,0,1.56,0,1.56,1.47,0,1.02-.99,4.11-1.5,5.49v19.86ZM34.86,381.77c0,3.57-1.83,3.57-5.25,3.57-.6,0-2.37,0-2.82-.12-.63-.15-.96-.9-.96-1.65,0-1.53.93-1.53,1.56-1.53.42,0,2.31.09,2.67.09.87,0,1.68,0,1.68-1.38v-19.26h-13.23c-.39,0-1.41,0-1.41-1.41s.63-1.56,1.41-1.56h17.22c.39,0,1.56,0,1.56,1.47,0,.9-.45,1.5-1.44,1.5h-.99v20.28ZM29.01,374.48c0,2.55-1.02,3.36-3.33,3.36h-4.5c-2.31,0-3.36-.81-3.36-3.36v-6.57c0-2.49.99-3.36,3.36-3.36h4.5c2.34,0,3.33.87,3.33,3.36v6.57ZM26.19,368.45c0-.9-.51-1.17-1.17-1.17h-3.15c-.72,0-1.17.33-1.17,1.17v5.49c0,.78.36,1.17,1.17,1.17h3.15c.78,0,1.17-.39,1.17-1.17v-5.49Z"/>
      <path class="cls-3" d="M28.53,396.92c1.17,0,1.41,0,1.89.24.99.45.99,1.44.99,1.68,0,1.2-.51,2.28-2.73,4.38h3.12c2.34,0,3.54.78,3.54,3.54v3.48c0,2.67-1.08,3.54-3.54,3.54H14.98v4.5c0,1.05.72,1.14,1.02,1.17.24.03,3.45.03,3.9.03h4.17c1.17,0,8.04,0,8.52-.09.81-.18.87-.51,1.32-2.85.15-.78.33-1.56,1.5-1.56.45,0,1.77.27,1.77,1.59,0,.39-.24,3.15-.87,4.29-.9,1.62-2.22,1.62-5.25,1.62h-11.34c-1.26,0-4.11.03-5.16-.06-2.13-.15-2.73-1.41-2.73-3.45v-12.21c0-.42,0-.75.09-1.26-.33.18-.81.45-1.32.45-.99,0-1.59-1.08-1.59-1.8s.54-1.14.75-1.26c3.27-1.98,4.56-2.67,6.48-4.62,1.2-1.23,2.31-3.45,3.75-3.45.51,0,1.77.36,1.77,1.38,0,.33-.12.57-.21.72h6.99ZM21.99,406.04h-5.82c-.63,0-1.2.24-1.2,1.2v3.75h7.02v-4.95ZM19.2,399.74c-1.71,1.68-2.43,2.31-3.99,3.48h9.36c.57-.48,2.49-2.46,2.49-3.06,0-.3-.3-.42-.63-.42h-7.23ZM24.99,406.04v4.95h5.94c.72,0,1.17-.33,1.17-1.2v-2.55c0-.9-.51-1.2-1.17-1.2h-5.94Z"/>
      <path class="cls-4" d="M22.98,451.49c-1.8,0-1.8-1.14-1.8-2.19,0-1.44.18-3.45,2.79-5.46,2.25-1.74,3.33-2.55,3.33-4.35,0-2.88-2.7-3.06-3.87-3.06-3.69,0-3.99,2.07-4.29,3.93-.09.63-.45,1.38-1.89,1.38-.51,0-1.86-.15-1.86-1.74,0-1.86,1.29-6.84,8.19-6.84,5.7,0,7.47,3.39,7.47,6.27s-1.32,3.93-3.21,5.52c-2.37,2.01-3.06,2.61-3.06,4.62,0,.72,0,1.92-1.8,1.92ZM25.2,456.29c0,1.23-.99,2.22-2.22,2.22s-2.22-.99-2.22-2.22.99-2.22,2.22-2.22,2.22.99,2.22,2.22Z"/>
    </g>
  </g>
</svg>