<?xml version="1.0" encoding="UTF-8"?>
<svg id="_レイヤー_2" data-name="レイヤー 2" xmlns="http://www.w3.org/2000/svg" viewBox="0 0 246.99 37.91">
  <defs>
    <style>
      .cls-1 {
        fill: #231815;
        stroke-width: 0px;
      }
    </style>
  </defs>
  <g id="_レイヤー_1-2" data-name="レイヤー 1">
    <g>
      <path class="cls-1" d="m0,27.32L8.56,1.96H.6V.04h10.4v1.28L2.44,26.68h8.96v1.92H0v-1.28Z"/>
      <path class="cls-1" d="m16.57,21.8c0,3.76.88,5.28,3.12,5.28s3.12-1.4,3.12-4.8h2.04c0,2.08-.16,3.2-.68,4.24-.76,1.56-2.36,2.44-4.52,2.44-2,0-3.48-.8-4.36-2.36-.64-1.16-.88-2.64-.88-5.2v-5.48c0-2.8.32-4.36,1.08-5.56.88-1.32,2.28-2,4.16-2,2.04,0,3.52.8,4.36,2.36.64,1.16.88,2.64.88,5.2v3h-8.32v2.88Zm6.2-4.68v-1.68c0-3.76-.88-5.2-3.12-5.2s-3.08,1.44-3.08,5.2v1.68h6.2Z"/>
      <path class="cls-1" d="m28.49,8.72h1.68l.28,1.96c.68-1.64,1.64-2.32,3.16-2.32.92,0,1.68.28,2.56,1l-1.04,1.8c-.64-.64-1.16-.88-1.8-.88-1.88,0-2.68,2.56-2.68,8.56v9.76h-2.16V8.72Z"/>
      <path class="cls-1" d="m38.1,15.72c0-2.76.32-4.28,1.12-5.4.88-1.32,2.32-1.96,4.2-1.96,3.8,0,5.36,2.16,5.36,7.36v5.84c0,5.24-1.56,7.4-5.36,7.4-2.08,0-3.52-.76-4.44-2.32-.64-1.08-.88-2.56-.88-5.08v-5.84Zm8.52-.2c0-3.8-.88-5.28-3.2-5.28s-3.16,1.48-3.16,5.28v6.28c0,3.8.88,5.28,3.16,5.28s3.2-1.48,3.2-5.28v-6.28Z"/>
      <path class="cls-1" d="m59.5.04h2.2l5.6,19.04L72.9.04h2.24v28.56h-2.2V5.52l-5,17.4h-1.28l-5-17.4v23.08h-2.16V.04Z"/>
      <path class="cls-1" d="m79.31,15.72c0-2.76.32-4.28,1.12-5.4.88-1.32,2.32-1.96,4.2-1.96,3.8,0,5.36,2.16,5.36,7.36v5.84c0,5.24-1.56,7.4-5.36,7.4-2.08,0-3.52-.76-4.44-2.32-.64-1.08-.88-2.56-.88-5.08v-5.84Zm8.52-.2c0-3.8-.88-5.28-3.2-5.28s-3.16,1.48-3.16,5.28v6.28c0,3.8.88,5.28,3.16,5.28s3.2-1.48,3.2-5.28v-6.28Z"/>
      <path class="cls-1" d="m95.82,8.72v12.76c0,4.08.72,5.56,2.64,5.56,2.2,0,3.08-1.92,3.08-6.68v-11.64h2.16v19.88h-1.68l-.12-1.96c-.56.84-.68,1-1,1.32-.68.64-1.68,1-2.8,1-2.04,0-3.4-1.04-4.04-3.08-.28-.84-.4-2.24-.4-4.16v-13h2.16Z"/>
      <path class="cls-1" d="m107.75,8.72h1.68l.16,1.96c1.12-1.76,2.08-2.32,3.96-2.32,2.08,0,3.52,1.04,4.2,3.08.28.84.4,2.2.4,4.16v13h-2.16v-12.8c0-4.04-.76-5.52-2.84-5.52-2.32,0-3.24,1.92-3.24,6.64v11.68h-2.16V8.72Z"/>
      <path class="cls-1" d="m121.07,10.56v-1.84h1.64l.08-6.64h2.08v6.64h2.48v1.84h-2.48v12.88c-.04,2.48.48,3.28,2,3.28h.6v1.88h-.72c-3.24.04-4.08-1.08-4.04-5.32v-12.72h-1.64Z"/>
      <path class="cls-1" d="m138.35,15.36c0-3.76-.76-5.12-2.88-5.12s-2.88,1.32-2.88,4.56h-2.04c0-2.24.2-3.28.76-4.28.8-1.4,2.28-2.16,4.2-2.16,3.52,0,5,2.08,5,7.16v13.08h-1.72l-.16-1.2c-.8,1.16-1.76,1.56-3.72,1.56-3.64,0-5-1.6-5-5.76s1.52-6,5.36-6h3.08v-1.84Zm-2.6,3.64c-2.64,0-3.68,1.2-3.68,4.16s.8,3.92,3.28,3.92c2.28,0,3-1,3-4.24v-3.84h-2.6Z"/>
      <path class="cls-1" d="m144.52,0h2.16v3.76h-2.16V0Zm0,8.72h2.16v19.88h-2.16V8.72Z"/>
      <path class="cls-1" d="m150.7,8.72h1.68l.16,1.96c1.12-1.76,2.08-2.32,3.96-2.32,2.08,0,3.52,1.04,4.2,3.08.28.84.4,2.2.4,4.16v13h-2.16v-12.8c0-4.04-.76-5.52-2.84-5.52-2.32,0-3.24,1.92-3.24,6.64v11.68h-2.16V8.72Z"/>
      <path class="cls-1" d="m172.06.04h5.72c4.6-.08,6.88,2.48,6.8,7.76v13c.08,5.28-2.2,7.88-6.8,7.8h-5.72V.04Zm5.64,26.68c3.24.04,4.64-1.88,4.64-6.28v-12.24c0-4.44-1.4-6.32-4.64-6.28h-3.4v24.8h3.4Z"/>
      <path class="cls-1" d="m190.58,21.8c0,3.76.88,5.28,3.12,5.28s3.12-1.4,3.12-4.8h2.04c0,2.08-.16,3.2-.68,4.24-.76,1.56-2.36,2.44-4.52,2.44-2,0-3.48-.8-4.36-2.36-.64-1.16-.88-2.64-.88-5.2v-5.48c0-2.8.32-4.36,1.08-5.56.88-1.32,2.28-2,4.16-2,2.04,0,3.52.8,4.36,2.36.64,1.16.88,2.64.88,5.2v3h-8.32v2.88Zm6.2-4.68v-1.68c0-3.76-.88-5.2-3.12-5.2s-3.08,1.44-3.08,5.2v1.68h6.2Z"/>
      <path class="cls-1" d="m203.95,22.04c0,1.68.08,2.44.36,3.12.48,1.28,1.48,1.92,2.96,1.92,2.16,0,3.36-1.44,3.36-3.96,0-1.24-.36-2.2-1-2.72-.52-.4-.72-.48-2.56-1.08-3.6-1.12-4.68-2.44-4.68-5.64,0-3.44,1.72-5.32,4.76-5.32,2.2,0,3.8,1,4.48,2.8.36.84.48,1.8.48,3.56h-2c0-3.16-.88-4.52-2.88-4.52-1.76,0-2.76,1.24-2.76,3.48,0,1.48.44,2.44,1.48,3.08.6.4.76.44,3.12,1.16,2.64.8,3.64,2.2,3.64,5.16,0,3.8-1.92,5.88-5.44,5.88-2.52,0-4.32-1.2-5-3.4-.24-.84-.36-1.76-.36-3.52h2.04Z"/>
      <path class="cls-1" d="m216.03,0h2.16v3.76h-2.16V0Zm0,8.72h2.16v19.88h-2.16V8.72Z"/>
      <path class="cls-1" d="m230.38,27.12c-.96,1.32-1.92,1.84-3.52,1.84-3.28,0-4.88-2.44-4.88-7.56v-5.76c0-4.96,1.56-7.28,4.84-7.28,1.72,0,2.76.6,3.72,2.24l.28-1.88h1.72v21.84c0,5.2-1.52,7.36-5.24,7.36-2.12,0-3.56-.84-4.24-2.48-.32-.8-.44-1.64-.44-3.32h1.96c0,2.84.8,3.96,2.72,3.96,2.28,0,3.08-1.4,3.08-5.28v-3.68Zm-6.24-5.6c0,3.68,1.04,5.52,3.04,5.52,2.16,0,3.2-2.28,3.2-7v-2.8c0-4.68-1.04-6.96-3.24-6.96-1.96,0-3,1.76-3,5.24v6Z"/>
      <path class="cls-1" d="m236.59,8.72h1.68l.16,1.96c1.12-1.76,2.08-2.32,3.96-2.32,2.08,0,3.52,1.04,4.2,3.08.28.84.4,2.2.4,4.16v13h-2.16v-12.8c0-4.04-.76-5.52-2.84-5.52-2.32,0-3.24,1.92-3.24,6.64v11.68h-2.16V8.72Z"/>
    </g>
  </g>
</svg>