<?xml version="1.0" encoding="UTF-8"?>
<svg id="_レイヤー_2" data-name="レイヤー 2" xmlns="http://www.w3.org/2000/svg" viewBox="0 0 275.56 69.62">
  <defs>
    <style>
      .cls-1 {
        fill: #fff;
        stroke-width: 0px;
      }
    </style>
  </defs>
  <g id="_レイヤー_1-2" data-name="レイヤー 1">
    <g>
      <path class="cls-1" d="M49.61,22.02c-.26.36-.5.7-.79,1.09s-.61.81-1.02,1.35v4.14s.02,2.53.02,2.53v.45c0,4.49-2.58,8.55-6.74,11.5s-9.91,4.77-16.25,4.77-12.09-1.83-16.26-4.78c-4.17-2.95-6.76-7.02-6.76-11.51v-7.1c-.34-.33-.66-.76-.97-1.2s-.59-.89-.85-1.25c0,.15,0,.3,0,.42s0,.22,0,.29v8.86c0,5.04,2.78,9.6,7.28,12.91s10.7,5.36,17.55,5.36c5.19,0,10.01-1.18,13.99-3.19s7.14-4.85,8.99-8.19l-.02,6.44-.02,6.44c0,4.49-2.57,8.55-6.72,11.5-4.15,2.95-9.89,4.77-16.23,4.77s-11.86-1.87-16.09-4.84c-4.23-2.97-6.93-7.04-6.93-11.43-.91-1.22-.89-1.22-1.81-2.45,0,1.07,0,2.01,0,2.45,0,4.98,2.77,9.54,7.26,12.86,4.49,3.32,10.7,5.4,17.57,5.4s13.04-2.04,17.51-5.35c4.48-3.3,7.25-7.87,7.25-12.9v-9.89s0-9.92,0-9.92v-8.82c0-.06,0-.18,0-.31s0-.28,0-.41Z"/>
      <path class="cls-1" d="M48.47,19.54s0,0,0,0,0,0,0,0c.08-.16.16-.33.24-.49s.14-.33.21-.5c.01-.03.03-.07.04-.1s.03-.07.04-.1c.06-.17.12-.33.17-.5s.1-.34.15-.5c0,0,0,0,0,0s0,0,0,0c.04-.17.08-.34.11-.51s.06-.34.08-.51c0-.04.01-.08.02-.12s0-.08.01-.12c.02-.17.04-.34.05-.52s.02-.35.02-.52c0,0,0,0,0,0s0,0,0,0c0-1.95-.61-3.81-1.72-5.51s-2.72-3.26-4.72-4.6c-.27-.18-.54-.35-.82-.52s-.57-.34-.86-.5c-.29-.16-.59-.32-.9-.47s-.62-.3-.94-.45c-.8-.36-1.63-.69-2.49-1-.87-.3-1.76-.57-2.69-.81-.37-.1-.75-.18-1.13-.27s-.76-.16-1.15-.24c-1.16-.22-2.37-.39-3.6-.5s-2.49-.17-3.78-.17c-.43,0-.85,0-1.28.02s-.84.03-1.26.06c-.83.05-1.66.13-2.46.23s-1.6.22-2.38.37c-.58.11-1.16.23-1.72.37s-1.12.28-1.66.44c-.72.21-1.43.44-2.11.69s-1.34.52-1.98.81c-.95.43-1.86.91-2.7,1.42-.84.51-1.62,1.06-2.34,1.64-.24.19-.47.39-.69.59s-.44.4-.65.61c-.1.1-.21.21-.3.31s-.2.21-.29.32c-.19.21-.37.43-.55.65s-.34.44-.5.67c-.63.9-1.11,1.84-1.45,2.82s-.5,1.99-.5,3.03c0,.18,0,.35.02.52s.03.35.05.52c0,.04,0,.08.01.12s.01.08.02.12c.02.17.05.34.08.51s.07.34.11.51c0,0,0,0,0,0s0,0,0,0c.04.17.09.34.15.51s.11.33.17.5c.01.03.03.07.04.1s.03.07.04.1c.46,1.17,1.15,2.29,2.04,3.34.89,1.05,1.97,2.02,3.22,2.91,0,0,0,0,0,0s0,0,.01,0c.37.26.76.52,1.17.77s.82.49,1.25.72c0,0,.02.01.03.02s.02.01.03.02c.21.11.42.22.63.33s.43.21.65.31c0,0,.01,0,.02,0s.01,0,.02,0c.22.1.45.21.68.3s.46.2.7.29c.02,0,.04.01.06.02s.04.01.06.02c.21.08.43.17.65.25s.44.16.66.24c.03.01.06.02.09.03s.06.02.09.03c.24.08.48.16.72.24s.49.15.74.22c.03,0,.05.01.08.02s.05.01.08.02c.22.06.44.12.67.18s.45.11.68.17c.05.01.1.02.14.03s.1.02.14.03c.25.06.51.11.76.17s.51.1.77.15c.03,0,.06,0,.08.01s.06,0,.08.01c.23.04.46.08.7.12s.47.07.71.11c.06,0,.12.02.18.03s.12.02.18.03c.26.04.53.07.8.1s.53.06.8.08c.02,0,.04,0,.06,0s.04,0,.06,0c.25.02.5.04.75.06s.51.03.76.04c.07,0,.14,0,.21.01s.14,0,.21,0c.28.01.55.02.83.03s.56.01.84.01.56,0,.84-.01.55-.02.83-.03c.07,0,.14,0,.21,0s.14,0,.21-.01c.25-.01.51-.03.76-.04s.5-.04.75-.06c.02,0,.04,0,.06,0s.04,0,.06,0c.27-.02.54-.05.81-.08s.53-.06.8-.1c.06,0,.12-.02.18-.03s.12-.02.18-.03c.24-.03.47-.07.71-.11s.47-.08.7-.12c.03,0,.06,0,.08-.01s.06,0,.08-.01c.26-.05.52-.1.77-.15s.51-.11.76-.17c.05-.01.1-.02.14-.03s.1-.02.14-.03c.23-.05.45-.11.68-.17s.45-.12.67-.18c.03,0,.05-.01.08-.02s.05-.01.08-.02c.25-.07.49-.15.74-.22s.48-.15.72-.24c.03,0,.06-.02.09-.03s.06-.02.09-.03c.22-.08.44-.16.66-.24s.44-.16.65-.25c.02,0,.04-.01.05-.02s.04-.01.05-.02c.24-.09.47-.19.7-.29s.46-.2.68-.3c0,0,.01,0,.02-.01s.01,0,.02-.01c.22-.1.44-.21.65-.31s.42-.22.63-.33c.01,0,.02-.01.03-.02s.02-.01.03-.02c.43-.23.85-.47,1.25-.72s.79-.51,1.17-.77c0,0,0,0,.01,0s0,0,.01,0c.76-.54,1.45-1.11,2.08-1.7s1.19-1.22,1.67-1.88c0,0,0,0,0,0s0,0,0,0h0c.2-.27.39-.55.57-.83s.34-.56.49-.85h0ZM25.59,9.12c-4.52,0-8.81.84-12.59,2.36s-7.05,3.74-9.53,6.48c-.23-.17-.31-.33-.47-.58s-.26-.52-.27-.77c1.95-2.52,5.3-4.78,9.33-6.41,4.02-1.62,8.72-2.61,13.37-2.57,4.38.03,8.43.84,12.03,2.35s6.75,3.72,9.34,6.56c-.07.14-.18.37-.3.61s-.25.49-.37.64c-2.49-2.72-5.73-4.89-9.29-6.37-3.56-1.49-7.45-2.29-11.24-2.29Z"/>
    </g>
    <g>
      <path class="cls-1" d="M72.06,23.43c-1.02,3.59-2.18,6.45-3.77,9.23l-1.52-2.64c2.29-3.52,3.98-7.75,5-12.57h-4.19v-2.43h4.47v-7.15h2.71v7.15h3.35v2.43h-3.35v2.92c1.51,1.3,2.85,2.61,3.94,3.84l-1.37,2.43c-.88-1.34-1.55-2.22-2.57-3.45v16.24h-2.71v-15.99ZM79.42,37.77c2.99-1.9,4.93-4.76,5.46-8.03-2.18.99-4.51,1.9-6.87,2.68l-1.09-2.43c1.51-.39,1.76-.42,2.43-.63V11.17l.42-.11c2.61-.53,5.32-1.48,7.4-2.54l2.08,1.87c-2.36.99-5.11,1.94-7.4,2.5v15.67c.63-.18,1.16-.39,3.17-1.13v-13.63h2.5v13.21c0,5.74-1.76,9.3-6.16,12.54l-1.94-1.8ZM98.38,29.95c0,2.04-.6,2.61-2.68,2.61-.85,0-1.44-.04-2.01-.11l-.53-2.47c.49.07,1.34.11,1.8.11.7,0,.88-.25.88-1.09v-15.46h-3.56v25.89h-2.61V11.17h8.7v18.77Z"/>
      <path class="cls-1" d="M110.35,9.91v11.8c0,9.12-1.16,13.28-4.9,17.72l-2.64-2.08c3.28-3.77,4.26-7.36,4.26-15.43v-12.01h3.28ZM120.57,10.68v25.61h-3.24V10.68h3.24ZM131.35,9.38v29.38h-3.2V9.38h3.2Z"/>
      <path class="cls-1" d="M146.28,8.11h3.03v4.05h8.7v-4.05h3.07v4.05h8.28v2.32h-8.28v3.24h-3.07v-3.24h-8.7v3.24h-3.03v-3.24h-7.89v-2.32h7.89v-4.05ZM152.52,22.87c-.04,1.37-.14,2.82-.25,3.84h13.21c-.21,4.26-.56,7.5-1.06,9.37-.56,2.22-1.69,2.92-4.68,2.92-1.48,0-3.49-.11-5.18-.28l-.6-2.61c1.94.28,4.05.46,5.35.46,1.41,0,1.87-.35,2.18-1.66.35-1.37.56-3.17.74-5.88h-10.39c-1.13,5.18-4.68,8.77-10.46,10.6l-1.97-2.11c7.26-2.22,10.11-6.34,10.11-14.65h-10.74v-2.36h13.38v-3.7h2.99v3.7h13.74v2.36h-16.38Z"/>
      <path class="cls-1" d="M184.96,17.23v2.22h-3.38v3.59h4.79v2.29h-4.79v8.88c1.8-.49,3.87-1.09,5.28-1.55l.21,2.29c-4.12,1.48-8.91,2.89-13.03,3.8l-.88-2.54c1.97-.39,3.28-.7,5.46-1.23l.32-.07v-9.58h-5.28v-2.29h5.28v-3.59h-2.85c-.74.92-1.02,1.27-1.87,2.18l-1.48-2.22c2.99-3.31,5.21-7.29,6.55-11.66l2.64.56c-.21.63-.28.81-.42,1.2.07.07.11.07.32.25,1.76,1.44,4.23,3.77,5.85,5.6l-1.69,2.22c-1.69-2.18-3.38-4.02-5.35-5.88-.92,2.04-1.8,3.7-2.96,5.53h7.29ZM175.52,34.07c-.53-2.68-.99-4.44-1.66-6.3l2.36-.74c.7,1.94,1.23,3.98,1.66,6.38l-2.36.67ZM182.46,32.34c.6-1.55,1.16-3.42,1.69-5.81l2.39.63c-.53,2.18-1.2,4.12-1.97,5.71l-2.11-.53ZM194.54,7.72h2.85v7.29h6.52v2.36h-6.52v5.71h7.43v2.39h-7.05c1.16,4.23,4.19,8.59,7.78,11.17l-1.8,2.43c-3.84-3.24-6.16-6.66-7.47-10.85-.99,4.76-3.87,8.81-8,11.31l-2.01-2.15c4.54-2.47,7.29-6.52,8.07-11.91h-6.62v-2.39h6.8v-5.71h-3.63c-.46,1.59-1.02,2.92-1.66,4.12l-2.39-1.34c1.41-2.54,2.33-5.57,2.96-9.65l2.5.42c-.25,1.59-.39,2.43-.78,4.09h2.99v-7.29Z"/>
      <path class="cls-1" d="M225.79,34.14h13.7v2.64h-30.5v-2.64h13.42V14.59h-11.55v-2.54h26.88v2.54h-11.94v19.55Z"/>
      <path class="cls-1" d="M257.6,29.07h-2.75v-1.9h-6.16c-.14,6.2-.88,9.19-2.99,12.36l-2.32-1.83c2.01-3.21,2.54-5.74,2.54-12.19v-8.91h11.69v12.47ZM259.08,10.01v2.43h-14.76v-2.43h14.76ZM248.72,18.89v6.02h6.13v-6.02h-6.13ZM263.66,22.02c.03,9.26-.99,13.35-4.47,17.61l-2.39-1.9c3.1-3.63,4.02-7.26,4.02-15.25v-11.2l.46-.07.46-.04c3.94-.49,7.57-1.27,10.39-2.29l1.9,2.25c-3.17.95-6.73,1.73-10.36,2.22v5.88h11.91v2.5h-4.23v17.54h-2.96v-17.54h-4.72v.28Z"/>
    </g>
    <g>
      <path class="cls-1" d="M69.01,47.62l2.8,6.66,2.78-6.66h1.57l-3.65,8.18v6h-1.44v-6l-3.65-8.18h1.59Z"/>
      <path class="cls-1" d="M81.21,51.51c1.04,0,1.78.29,2.22.87.45.58.67,1.54.67,2.88v3.83c0,.91.08,1.81.23,2.72h-1.26c-.06-.39-.11-.83-.14-1.32-.22.4-.5.72-.84.97-.49.35-1.05.52-1.67.52-.7,0-1.26-.26-1.68-.78-.42-.52-.63-1.23-.63-2.12,0-1.12.36-2.02,1.09-2.68.73-.66,1.73-1,3.01-1h.58v-.1c0-.98-.12-1.67-.35-2.05-.23-.38-.65-.57-1.24-.57-.8,0-1.63.3-2.49.89l-.23-1.15c.85-.61,1.76-.91,2.72-.91ZM79.44,59.04c0,.58.11,1.03.34,1.36.23.33.52.49.88.49.57,0,1.06-.32,1.5-.96.43-.64.65-1.42.65-2.35v-1.08h-.58c-.89,0-1.57.23-2.06.68-.48.45-.72,1.07-.72,1.86Z"/>
      <path class="cls-1" d="M87.94,51.7h1.24l.02,1.36c.22-.4.5-.74.84-1.03.44-.35.92-.53,1.44-.53.85,0,1.48.35,1.88,1.06.4.71.6,1.82.6,3.35v5.89h-1.26v-5.77c0-1.26-.12-2.13-.35-2.61-.23-.49-.63-.73-1.18-.73-.45,0-.89.37-1.3,1.12-.41.74-.62,1.61-.62,2.59v5.4h-1.3v-10.1Z"/>
      <path class="cls-1" d="M100.1,51.51c1.04,0,1.78.29,2.22.87.45.58.67,1.54.67,2.88v3.83c0,.91.08,1.81.23,2.72h-1.26c-.06-.39-.11-.83-.14-1.32-.22.4-.5.72-.84.97-.49.35-1.05.52-1.67.52-.7,0-1.26-.26-1.68-.78-.42-.52-.63-1.23-.63-2.12,0-1.12.36-2.02,1.09-2.68.73-.66,1.73-1,3.01-1h.58v-.1c0-.98-.12-1.67-.35-2.05-.23-.38-.65-.57-1.24-.57-.8,0-1.63.3-2.49.89l-.23-1.15c.85-.61,1.76-.91,2.72-.91ZM98.34,59.04c0,.58.11,1.03.34,1.36.23.33.52.49.88.49.57,0,1.06-.32,1.5-.96.43-.64.65-1.42.65-2.35v-1.08h-.58c-.89,0-1.57.23-2.06.68s-.72,1.07-.72,1.86Z"/>
      <path class="cls-1" d="M106.05,56.56c0-1.62.26-2.87.79-3.74.53-.87,1.26-1.31,2.19-1.31.99,0,1.73.48,2.22,1.44l.02-1.24h1.27v9.27c0,3.54-1.15,5.3-3.46,5.3-.8,0-1.6-.21-2.39-.62l.31-1.15c.73.4,1.42.6,2.08.6.73,0,1.26-.32,1.6-.95.34-.64.51-1.68.51-3.13v-.74c-.49.88-1.22,1.32-2.18,1.32-.88,0-1.6-.46-2.15-1.38-.55-.92-.83-2.14-.83-3.67ZM107.37,56.56c0,1.2.18,2.15.53,2.85s.81,1.04,1.36,1.04,1-.34,1.37-1.01c.37-.67.56-1.6.56-2.78v-.19c0-1.17-.19-2.09-.56-2.77-.37-.68-.83-1.02-1.37-1.02-.58,0-1.04.33-1.38.99-.34.66-.51,1.63-.51,2.9Z"/>
      <path class="cls-1" d="M119.12,51.51c1.04,0,1.78.29,2.22.87.45.58.67,1.54.67,2.88v3.83c0,.91.08,1.81.23,2.72h-1.26c-.06-.39-.11-.83-.14-1.32-.22.4-.5.72-.84.97-.49.35-1.05.52-1.67.52-.7,0-1.26-.26-1.68-.78-.42-.52-.63-1.23-.63-2.12,0-1.12.36-2.02,1.09-2.68.73-.66,1.73-1,3.01-1h.58v-.1c0-.98-.12-1.67-.35-2.05-.23-.38-.65-.57-1.24-.57-.8,0-1.63.3-2.49.89l-.23-1.15c.85-.61,1.76-.91,2.72-.91ZM117.35,59.04c0,.58.11,1.03.34,1.36.23.33.52.49.88.49.57,0,1.06-.32,1.5-.96.43-.64.65-1.42.65-2.35v-1.08h-.58c-.89,0-1.57.23-2.06.68s-.72,1.07-.72,1.86Z"/>
      <path class="cls-1" d="M126.35,51.7l1.44,8.14,1.38-8.14h1.65l1.42,8.1,1.42-8.1h1.4l-2.06,10.1h-1.63l-1.38-7.97-1.38,7.97h-1.63l-2.06-10.1h1.44Z"/>
      <path class="cls-1" d="M140.45,51.51c1.04,0,1.78.29,2.22.87.45.58.67,1.54.67,2.88v3.83c0,.91.08,1.81.23,2.72h-1.26c-.06-.39-.11-.83-.14-1.32-.22.4-.5.72-.84.97-.49.35-1.05.52-1.67.52-.7,0-1.26-.26-1.68-.78s-.63-1.23-.63-2.12c0-1.12.36-2.02,1.09-2.68.73-.66,1.73-1,3.01-1h.58v-.1c0-.98-.12-1.67-.35-2.05-.23-.38-.65-.57-1.24-.57-.8,0-1.63.3-2.49.89l-.23-1.15c.85-.61,1.76-.91,2.72-.91ZM138.68,59.04c0,.58.11,1.03.34,1.36.23.33.52.49.88.49.57,0,1.06-.32,1.5-.96.43-.64.65-1.42.65-2.35v-1.08h-.58c-.89,0-1.57.23-2.06.68s-.72,1.07-.72,1.86Z"/>
      <path class="cls-1" d="M149.92,47.62l2.8,6.66,2.78-6.66h1.57l-3.65,8.18v6h-1.44v-6l-3.65-8.18h1.59Z"/>
      <path class="cls-1" d="M164.52,60.6c-.65.95-1.5,1.42-2.54,1.42s-1.89-.47-2.53-1.42c-.64-.95-.95-2.23-.95-3.83s.32-2.89.95-3.83c.63-.95,1.48-1.42,2.53-1.42s1.89.47,2.53,1.42c.64.95.95,2.23.95,3.84s-.31,2.89-.93,3.83ZM163.53,53.74c-.39-.71-.9-1.07-1.55-1.07s-1.16.36-1.55,1.08-.58,1.72-.58,3,.19,2.28.58,3,.9,1.08,1.55,1.08,1.16-.36,1.56-1.08.59-1.72.58-3c0-1.28-.2-2.29-.59-3.01Z"/>
      <path class="cls-1" d="M170.72,51.51c.88,0,1.73.26,2.54.78l-.27,1.15c-.82-.51-1.57-.76-2.27-.76-.49,0-.86.14-1.11.41s-.37.66-.37,1.15c0,.47.11.84.32,1.11.21.27.63.49,1.23.64.93.22,1.62.58,2.06,1.09.44.51.66,1.2.66,2.08s-.25,1.58-.76,2.09c-.51.51-1.19.77-2.06.77-1.01,0-1.94-.33-2.8-.99l.31-1.15c.84.64,1.67.95,2.49.95.47,0,.83-.15,1.08-.44.25-.29.38-.71.38-1.25s-.11-.92-.34-1.2c-.23-.28-.63-.51-1.21-.66-.92-.22-1.6-.57-2.03-1.06-.43-.49-.65-1.15-.65-1.99s.25-1.49.76-1.98c.51-.49,1.19-.74,2.04-.74Z"/>
      <path class="cls-1" d="M176.88,47.23h1.3v5.77c.57-1,1.31-1.5,2.23-1.5.85,0,1.48.35,1.88,1.06.4.71.6,1.82.6,3.35v5.89h-1.26v-5.77c0-1.26-.12-2.13-.35-2.61s-.63-.73-1.19-.73c-.47,0-.9.38-1.31,1.14-.41.76-.61,1.62-.61,2.57v5.4h-1.3v-14.57Z"/>
      <path class="cls-1" d="M186.76,49.37v-2.14h1.34v2.14h-1.34ZM186.76,61.81v-10.1h1.34v10.1h-1.34Z"/>
      <path class="cls-1" d="M196.14,61.81v-14.18h1.46v14.18h-1.46Z"/>
      <path class="cls-1" d="M201.87,51.71h1.3l.02,1.78c.79-1.33,1.92-1.99,3.38-1.98v1.24c-1.06,0-1.88.4-2.47,1.18-.58.79-.87,1.81-.87,3.07v4.82h-1.36v-10.12Z"/>
      <path class="cls-1" d="M214.64,60.6c-.65.95-1.5,1.42-2.54,1.42s-1.89-.47-2.53-1.42c-.64-.95-.95-2.23-.95-3.83s.32-2.89.95-3.83c.63-.95,1.48-1.42,2.53-1.42s1.89.47,2.53,1.42c.64.95.95,2.23.95,3.84s-.31,2.89-.93,3.83ZM213.66,53.74c-.39-.71-.9-1.07-1.55-1.07s-1.16.36-1.55,1.08-.58,1.72-.58,3,.19,2.28.58,3,.9,1.08,1.55,1.08,1.16-.36,1.56-1.08c.39-.72.59-1.72.58-3,0-1.28-.2-2.29-.59-3.01Z"/>
      <path class="cls-1" d="M218.18,51.7h1.24l.02,1.36c.22-.4.5-.74.84-1.03.44-.35.92-.53,1.44-.53.85,0,1.48.35,1.88,1.06.4.71.6,1.82.6,3.35v5.89h-1.26v-5.77c0-1.26-.12-2.13-.35-2.61-.23-.49-.63-.73-1.18-.73-.45,0-.89.37-1.3,1.12s-.62,1.61-.62,2.59v5.4h-1.3v-10.1Z"/>
      <path class="cls-1" d="M230.71,47.62l1.9,11.76,1.9-11.76h1.67l1.9,11.81,1.88-11.81h1.38l-2.49,14.18h-1.63l-1.9-12.51-1.92,12.51h-1.63l-2.49-14.18h1.42Z"/>
      <path class="cls-1" d="M249.47,60.6c-.65.95-1.5,1.42-2.54,1.42s-1.89-.47-2.53-1.42c-.64-.95-.95-2.23-.95-3.83s.32-2.89.95-3.83c.63-.95,1.48-1.42,2.53-1.42s1.89.47,2.53,1.42c.64.95.95,2.23.95,3.84s-.31,2.89-.93,3.83ZM248.49,53.74c-.39-.71-.9-1.07-1.55-1.07s-1.16.36-1.55,1.08c-.39.72-.58,1.72-.58,3s.19,2.28.58,3c.39.72.9,1.08,1.55,1.08s1.16-.36,1.56-1.08.59-1.72.58-3c0-1.28-.2-2.29-.59-3.01Z"/>
      <path class="cls-1" d="M253.36,51.71h1.3l.02,1.78c.79-1.33,1.92-1.99,3.38-1.98v1.24c-1.06,0-1.88.4-2.47,1.18-.58.79-.87,1.81-.87,3.07v4.82h-1.36v-10.12Z"/>
      <path class="cls-1" d="M262.51,47.23v8.49l3.34-4.02h1.69l-4.16,4.8,4.2,5.3h-1.67l-3.4-4.47v4.47h-1.3v-14.57h1.3Z"/>
      <path class="cls-1" d="M272.76,51.51c.88,0,1.73.26,2.54.78l-.27,1.15c-.82-.51-1.57-.76-2.27-.76-.49,0-.86.14-1.11.41s-.37.66-.37,1.15c0,.47.11.84.32,1.11.21.27.63.49,1.23.64.93.22,1.62.58,2.06,1.09.44.51.66,1.2.66,2.08s-.25,1.58-.76,2.09c-.51.51-1.19.77-2.06.77-1.01,0-1.94-.33-2.8-.99l.31-1.15c.84.64,1.67.95,2.49.95.47,0,.83-.15,1.08-.44.25-.29.38-.71.38-1.25s-.11-.92-.34-1.2c-.23-.28-.63-.51-1.21-.66-.92-.22-1.6-.57-2.03-1.06-.43-.49-.65-1.15-.65-1.99s.25-1.49.76-1.98c.51-.49,1.19-.74,2.04-.74Z"/>
    </g>
    <g>
      <path class="cls-1" d="M49.61,22.02c-.26.36-.5.7-.79,1.09s-.61.81-1.02,1.35v4.14s.02,2.53.02,2.53v.45c0,4.49-2.58,8.55-6.74,11.5s-9.91,4.77-16.25,4.77-12.09-1.83-16.26-4.78c-4.17-2.95-6.76-7.02-6.76-11.51v-7.1c-.34-.33-.66-.76-.97-1.2s-.59-.89-.85-1.25c0,.15,0,.3,0,.42s0,.22,0,.29v8.86c0,5.04,2.78,9.6,7.28,12.91s10.7,5.36,17.55,5.36c5.19,0,10.01-1.18,13.99-3.19s7.14-4.85,8.99-8.19l-.02,6.44-.02,6.44c0,4.49-2.57,8.55-6.72,11.5-4.15,2.95-9.89,4.77-16.23,4.77s-11.86-1.87-16.09-4.84c-4.23-2.97-6.93-7.04-6.93-11.43-.91-1.22-.89-1.22-1.81-2.45,0,1.07,0,2.01,0,2.45,0,4.98,2.77,9.54,7.26,12.86,4.49,3.32,10.7,5.4,17.57,5.4s13.04-2.04,17.51-5.35c4.48-3.3,7.25-7.87,7.25-12.9v-9.89s0-9.92,0-9.92v-8.82c0-.06,0-.18,0-.31s0-.28,0-.41Z"/>
      <path class="cls-1" d="M48.47,19.54s0,0,0,0,0,0,0,0c.08-.16.16-.33.24-.49s.14-.33.21-.5c.01-.03.03-.07.04-.1s.03-.07.04-.1c.06-.17.12-.33.17-.5s.1-.34.15-.5c0,0,0,0,0,0s0,0,0,0c.04-.17.08-.34.11-.51s.06-.34.08-.51c0-.04.01-.08.02-.12s0-.08.01-.12c.02-.17.04-.34.05-.52s.02-.35.02-.52c0,0,0,0,0,0s0,0,0,0c0-1.95-.61-3.81-1.72-5.51s-2.72-3.26-4.72-4.6c-.27-.18-.54-.35-.82-.52s-.57-.34-.86-.5c-.29-.16-.59-.32-.9-.47s-.62-.3-.94-.45c-.8-.36-1.63-.69-2.49-1-.87-.3-1.76-.57-2.69-.81-.37-.1-.75-.18-1.13-.27s-.76-.16-1.15-.24c-1.16-.22-2.37-.39-3.6-.5s-2.49-.17-3.78-.17c-.43,0-.85,0-1.28.02s-.84.03-1.26.06c-.83.05-1.66.13-2.46.23s-1.6.22-2.38.37c-.58.11-1.16.23-1.72.37s-1.12.28-1.66.44c-.72.21-1.43.44-2.11.69s-1.34.52-1.98.81c-.95.43-1.86.91-2.7,1.42-.84.51-1.62,1.06-2.34,1.64-.24.19-.47.39-.69.59s-.44.4-.65.61c-.1.1-.21.21-.3.31s-.2.21-.29.32c-.19.21-.37.43-.55.65s-.34.44-.5.67c-.63.9-1.11,1.84-1.45,2.82s-.5,1.99-.5,3.03c0,.18,0,.35.02.52s.03.35.05.52c0,.04,0,.08.01.12s.01.08.02.12c.02.17.05.34.08.51s.07.34.11.51c0,0,0,0,0,0s0,0,0,0c.04.17.09.34.15.51s.11.33.17.5c.01.03.03.07.04.1s.03.07.04.1c.46,1.17,1.15,2.29,2.04,3.34.89,1.05,1.97,2.02,3.22,2.91,0,0,0,0,0,0s0,0,.01,0c.37.26.76.52,1.17.77s.82.49,1.25.72c0,0,.02.01.03.02s.02.01.03.02c.21.11.42.22.63.33s.43.21.65.31c0,0,.01,0,.02,0s.01,0,.02,0c.22.1.45.21.68.3s.46.2.7.29c.02,0,.04.01.06.02s.04.01.06.02c.21.08.43.17.65.25s.44.16.66.24c.03.01.06.02.09.03s.06.02.09.03c.24.08.48.16.72.24s.49.15.74.22c.03,0,.05.01.08.02s.05.01.08.02c.22.06.44.12.67.18s.45.11.68.17c.05.01.1.02.14.03s.1.02.14.03c.25.06.51.11.76.17s.51.1.77.15c.03,0,.06,0,.08.01s.06,0,.08.01c.23.04.46.08.7.12s.47.07.71.11c.06,0,.12.02.18.03s.12.02.18.03c.26.04.53.07.8.1s.53.06.8.08c.02,0,.04,0,.06,0s.04,0,.06,0c.25.02.5.04.75.06s.51.03.76.04c.07,0,.14,0,.21.01s.14,0,.21,0c.28.01.55.02.83.03s.56.01.84.01.56,0,.84-.01.55-.02.83-.03c.07,0,.14,0,.21,0s.14,0,.21-.01c.25-.01.51-.03.76-.04s.5-.04.75-.06c.02,0,.04,0,.06,0s.04,0,.06,0c.27-.02.54-.05.81-.08s.53-.06.8-.1c.06,0,.12-.02.18-.03s.12-.02.18-.03c.24-.03.47-.07.71-.11s.47-.08.7-.12c.03,0,.06,0,.08-.01s.06,0,.08-.01c.26-.05.52-.1.77-.15s.51-.11.76-.17c.05-.01.1-.02.14-.03s.1-.02.14-.03c.23-.05.45-.11.68-.17s.45-.12.67-.18c.03,0,.05-.01.08-.02s.05-.01.08-.02c.25-.07.49-.15.74-.22s.48-.15.72-.24c.03,0,.06-.02.09-.03s.06-.02.09-.03c.22-.08.44-.16.66-.24s.44-.16.65-.25c.02,0,.04-.01.05-.02s.04-.01.05-.02c.24-.09.47-.19.7-.29s.46-.2.68-.3c0,0,.01,0,.02-.01s.01,0,.02-.01c.22-.1.44-.21.65-.31s.42-.22.63-.33c.01,0,.02-.01.03-.02s.02-.01.03-.02c.43-.23.85-.47,1.25-.72s.79-.51,1.17-.77c0,0,0,0,.01,0s0,0,.01,0c.76-.54,1.45-1.11,2.08-1.7s1.19-1.22,1.67-1.88c0,0,0,0,0,0s0,0,0,0h0c.2-.27.39-.55.57-.83s.34-.56.49-.85h0ZM25.59,9.12c-4.52,0-8.81.84-12.59,2.36s-7.05,3.74-9.53,6.48c-.23-.17-.31-.33-.47-.58s-.26-.52-.27-.77c1.95-2.52,5.3-4.78,9.33-6.41,4.02-1.62,8.72-2.61,13.37-2.57,4.38.03,8.43.84,12.03,2.35s6.75,3.72,9.34,6.56c-.07.14-.18.37-.3.61s-.25.49-.37.64c-2.49-2.72-5.73-4.89-9.29-6.37-3.56-1.49-7.45-2.29-11.24-2.29Z"/>
    </g>
    <g>
      <path class="cls-1" d="M72.06,23.43c-1.02,3.59-2.18,6.45-3.77,9.23l-1.52-2.64c2.29-3.52,3.98-7.75,5-12.57h-4.19v-2.43h4.47v-7.15h2.71v7.15h3.35v2.43h-3.35v2.92c1.51,1.3,2.85,2.61,3.94,3.84l-1.37,2.43c-.88-1.34-1.55-2.22-2.57-3.45v16.24h-2.71v-15.99ZM79.42,37.77c2.99-1.9,4.93-4.76,5.46-8.03-2.18.99-4.51,1.9-6.87,2.68l-1.09-2.43c1.51-.39,1.76-.42,2.43-.63V11.17l.42-.11c2.61-.53,5.32-1.48,7.4-2.54l2.08,1.87c-2.36.99-5.11,1.94-7.4,2.5v15.67c.63-.18,1.16-.39,3.17-1.13v-13.63h2.5v13.21c0,5.74-1.76,9.3-6.16,12.54l-1.94-1.8ZM98.38,29.95c0,2.04-.6,2.61-2.68,2.61-.85,0-1.44-.04-2.01-.11l-.53-2.47c.49.07,1.34.11,1.8.11.7,0,.88-.25.88-1.09v-15.46h-3.56v25.89h-2.61V11.17h8.7v18.77Z"/>
      <path class="cls-1" d="M110.35,9.91v11.8c0,9.12-1.16,13.28-4.9,17.72l-2.64-2.08c3.28-3.77,4.26-7.36,4.26-15.43v-12.01h3.28ZM120.57,10.68v25.61h-3.24V10.68h3.24ZM131.35,9.38v29.38h-3.2V9.38h3.2Z"/>
      <path class="cls-1" d="M146.28,8.11h3.03v4.05h8.7v-4.05h3.07v4.05h8.28v2.32h-8.28v3.24h-3.07v-3.24h-8.7v3.24h-3.03v-3.24h-7.89v-2.32h7.89v-4.05ZM152.52,22.87c-.04,1.37-.14,2.82-.25,3.84h13.21c-.21,4.26-.56,7.5-1.06,9.37-.56,2.22-1.69,2.92-4.68,2.92-1.48,0-3.49-.11-5.18-.28l-.6-2.61c1.94.28,4.05.46,5.35.46,1.41,0,1.87-.35,2.18-1.66.35-1.37.56-3.17.74-5.88h-10.39c-1.13,5.18-4.68,8.77-10.46,10.6l-1.97-2.11c7.26-2.22,10.11-6.34,10.11-14.65h-10.74v-2.36h13.38v-3.7h2.99v3.7h13.74v2.36h-16.38Z"/>
      <path class="cls-1" d="M184.96,17.23v2.22h-3.38v3.59h4.79v2.29h-4.79v8.88c1.8-.49,3.87-1.09,5.28-1.55l.21,2.29c-4.12,1.48-8.91,2.89-13.03,3.8l-.88-2.54c1.97-.39,3.28-.7,5.46-1.23l.32-.07v-9.58h-5.28v-2.29h5.28v-3.59h-2.85c-.74.92-1.02,1.27-1.87,2.18l-1.48-2.22c2.99-3.31,5.21-7.29,6.55-11.66l2.64.56c-.21.63-.28.81-.42,1.2.07.07.11.07.32.25,1.76,1.44,4.23,3.77,5.85,5.6l-1.69,2.22c-1.69-2.18-3.38-4.02-5.35-5.88-.92,2.04-1.8,3.7-2.96,5.53h7.29ZM175.52,34.07c-.53-2.68-.99-4.44-1.66-6.3l2.36-.74c.7,1.94,1.23,3.98,1.66,6.38l-2.36.67ZM182.46,32.34c.6-1.55,1.16-3.42,1.69-5.81l2.39.63c-.53,2.18-1.2,4.12-1.97,5.71l-2.11-.53ZM194.54,7.72h2.85v7.29h6.52v2.36h-6.52v5.71h7.43v2.39h-7.05c1.16,4.23,4.19,8.59,7.78,11.17l-1.8,2.43c-3.84-3.24-6.16-6.66-7.47-10.85-.99,4.76-3.87,8.81-8,11.31l-2.01-2.15c4.54-2.47,7.29-6.52,8.07-11.91h-6.62v-2.39h6.8v-5.71h-3.63c-.46,1.59-1.02,2.92-1.66,4.12l-2.39-1.34c1.41-2.54,2.33-5.57,2.96-9.65l2.5.42c-.25,1.59-.39,2.43-.78,4.09h2.99v-7.29Z"/>
      <path class="cls-1" d="M225.79,34.14h13.7v2.64h-30.5v-2.64h13.42V14.59h-11.55v-2.54h26.88v2.54h-11.94v19.55Z"/>
      <path class="cls-1" d="M257.6,29.07h-2.75v-1.9h-6.16c-.14,6.2-.88,9.19-2.99,12.36l-2.32-1.83c2.01-3.21,2.54-5.74,2.54-12.19v-8.91h11.69v12.47ZM259.08,10.01v2.43h-14.76v-2.43h14.76ZM248.72,18.89v6.02h6.13v-6.02h-6.13ZM263.66,22.02c.03,9.26-.99,13.35-4.47,17.61l-2.39-1.9c3.1-3.63,4.02-7.26,4.02-15.25v-11.2l.46-.07.46-.04c3.94-.49,7.57-1.27,10.39-2.29l1.9,2.25c-3.17.95-6.73,1.73-10.36,2.22v5.88h11.91v2.5h-4.23v17.54h-2.96v-17.54h-4.72v.28Z"/>
    </g>
    <g>
      <path class="cls-1" d="M69.01,47.62l2.8,6.66,2.78-6.66h1.57l-3.65,8.18v6h-1.44v-6l-3.65-8.18h1.59Z"/>
      <path class="cls-1" d="M81.21,51.51c1.04,0,1.78.29,2.22.87.45.58.67,1.54.67,2.88v3.83c0,.91.08,1.81.23,2.72h-1.26c-.06-.39-.11-.83-.14-1.32-.22.4-.5.72-.84.97-.49.35-1.05.52-1.67.52-.7,0-1.26-.26-1.68-.78-.42-.52-.63-1.23-.63-2.12,0-1.12.36-2.02,1.09-2.68.73-.66,1.73-1,3.01-1h.58v-.1c0-.98-.12-1.67-.35-2.05-.23-.38-.65-.57-1.24-.57-.8,0-1.63.3-2.49.89l-.23-1.15c.85-.61,1.76-.91,2.72-.91ZM79.44,59.04c0,.58.11,1.03.34,1.36.23.33.52.49.88.49.57,0,1.06-.32,1.5-.96.43-.64.65-1.42.65-2.35v-1.08h-.58c-.89,0-1.57.23-2.06.68-.48.45-.72,1.07-.72,1.86Z"/>
      <path class="cls-1" d="M87.94,51.7h1.24l.02,1.36c.22-.4.5-.74.84-1.03.44-.35.92-.53,1.44-.53.85,0,1.48.35,1.88,1.06.4.71.6,1.82.6,3.35v5.89h-1.26v-5.77c0-1.26-.12-2.13-.35-2.61-.23-.49-.63-.73-1.18-.73-.45,0-.89.37-1.3,1.12-.41.74-.62,1.61-.62,2.59v5.4h-1.3v-10.1Z"/>
      <path class="cls-1" d="M100.1,51.51c1.04,0,1.78.29,2.22.87.45.58.67,1.54.67,2.88v3.83c0,.91.08,1.81.23,2.72h-1.26c-.06-.39-.11-.83-.14-1.32-.22.4-.5.72-.84.97-.49.35-1.05.52-1.67.52-.7,0-1.26-.26-1.68-.78-.42-.52-.63-1.23-.63-2.12,0-1.12.36-2.02,1.09-2.68.73-.66,1.73-1,3.01-1h.58v-.1c0-.98-.12-1.67-.35-2.05-.23-.38-.65-.57-1.24-.57-.8,0-1.63.3-2.49.89l-.23-1.15c.85-.61,1.76-.91,2.72-.91ZM98.34,59.04c0,.58.11,1.03.34,1.36.23.33.52.49.88.49.57,0,1.06-.32,1.5-.96.43-.64.65-1.42.65-2.35v-1.08h-.58c-.89,0-1.57.23-2.06.68s-.72,1.07-.72,1.86Z"/>
      <path class="cls-1" d="M106.05,56.56c0-1.62.26-2.87.79-3.74.53-.87,1.26-1.31,2.19-1.31.99,0,1.73.48,2.22,1.44l.02-1.24h1.27v9.27c0,3.54-1.15,5.3-3.46,5.3-.8,0-1.6-.21-2.39-.62l.31-1.15c.73.4,1.42.6,2.08.6.73,0,1.26-.32,1.6-.95.34-.64.51-1.68.51-3.13v-.74c-.49.88-1.22,1.32-2.18,1.32-.88,0-1.6-.46-2.15-1.38-.55-.92-.83-2.14-.83-3.67ZM107.37,56.56c0,1.2.18,2.15.53,2.85s.81,1.04,1.36,1.04,1-.34,1.37-1.01c.37-.67.56-1.6.56-2.78v-.19c0-1.17-.19-2.09-.56-2.77-.37-.68-.83-1.02-1.37-1.02-.58,0-1.04.33-1.38.99-.34.66-.51,1.63-.51,2.9Z"/>
      <path class="cls-1" d="M119.12,51.51c1.04,0,1.78.29,2.22.87.45.58.67,1.54.67,2.88v3.83c0,.91.08,1.81.23,2.72h-1.26c-.06-.39-.11-.83-.14-1.32-.22.4-.5.72-.84.97-.49.35-1.05.52-1.67.52-.7,0-1.26-.26-1.68-.78-.42-.52-.63-1.23-.63-2.12,0-1.12.36-2.02,1.09-2.68.73-.66,1.73-1,3.01-1h.58v-.1c0-.98-.12-1.67-.35-2.05-.23-.38-.65-.57-1.24-.57-.8,0-1.63.3-2.49.89l-.23-1.15c.85-.61,1.76-.91,2.72-.91ZM117.35,59.04c0,.58.11,1.03.34,1.36.23.33.52.49.88.49.57,0,1.06-.32,1.5-.96.43-.64.65-1.42.65-2.35v-1.08h-.58c-.89,0-1.57.23-2.06.68s-.72,1.07-.72,1.86Z"/>
      <path class="cls-1" d="M126.35,51.7l1.44,8.14,1.38-8.14h1.65l1.42,8.1,1.42-8.1h1.4l-2.06,10.1h-1.63l-1.38-7.97-1.38,7.97h-1.63l-2.06-10.1h1.44Z"/>
      <path class="cls-1" d="M140.45,51.51c1.04,0,1.78.29,2.22.87.45.58.67,1.54.67,2.88v3.83c0,.91.08,1.81.23,2.72h-1.26c-.06-.39-.11-.83-.14-1.32-.22.4-.5.72-.84.97-.49.35-1.05.52-1.67.52-.7,0-1.26-.26-1.68-.78s-.63-1.23-.63-2.12c0-1.12.36-2.02,1.09-2.68.73-.66,1.73-1,3.01-1h.58v-.1c0-.98-.12-1.67-.35-2.05-.23-.38-.65-.57-1.24-.57-.8,0-1.63.3-2.49.89l-.23-1.15c.85-.61,1.76-.91,2.72-.91ZM138.68,59.04c0,.58.11,1.03.34,1.36.23.33.52.49.88.49.57,0,1.06-.32,1.5-.96.43-.64.65-1.42.65-2.35v-1.08h-.58c-.89,0-1.57.23-2.06.68s-.72,1.07-.72,1.86Z"/>
      <path class="cls-1" d="M149.92,47.62l2.8,6.66,2.78-6.66h1.57l-3.65,8.18v6h-1.44v-6l-3.65-8.18h1.59Z"/>
      <path class="cls-1" d="M164.52,60.6c-.65.95-1.5,1.42-2.54,1.42s-1.89-.47-2.53-1.42c-.64-.95-.95-2.23-.95-3.83s.32-2.89.95-3.83c.63-.95,1.48-1.42,2.53-1.42s1.89.47,2.53,1.42c.64.95.95,2.23.95,3.84s-.31,2.89-.93,3.83ZM163.53,53.74c-.39-.71-.9-1.07-1.55-1.07s-1.16.36-1.55,1.08-.58,1.72-.58,3,.19,2.28.58,3,.9,1.08,1.55,1.08,1.16-.36,1.56-1.08.59-1.72.58-3c0-1.28-.2-2.29-.59-3.01Z"/>
      <path class="cls-1" d="M170.72,51.51c.88,0,1.73.26,2.54.78l-.27,1.15c-.82-.51-1.57-.76-2.27-.76-.49,0-.86.14-1.11.41s-.37.66-.37,1.15c0,.47.11.84.32,1.11.21.27.63.49,1.23.64.93.22,1.62.58,2.06,1.09.44.51.66,1.2.66,2.08s-.25,1.58-.76,2.09c-.51.51-1.19.77-2.06.77-1.01,0-1.94-.33-2.8-.99l.31-1.15c.84.64,1.67.95,2.49.95.47,0,.83-.15,1.08-.44.25-.29.38-.71.38-1.25s-.11-.92-.34-1.2c-.23-.28-.63-.51-1.21-.66-.92-.22-1.6-.57-2.03-1.06-.43-.49-.65-1.15-.65-1.99s.25-1.49.76-1.98c.51-.49,1.19-.74,2.04-.74Z"/>
      <path class="cls-1" d="M176.88,47.23h1.3v5.77c.57-1,1.31-1.5,2.23-1.5.85,0,1.48.35,1.88,1.06.4.71.6,1.82.6,3.35v5.89h-1.26v-5.77c0-1.26-.12-2.13-.35-2.61s-.63-.73-1.19-.73c-.47,0-.9.38-1.31,1.14-.41.76-.61,1.62-.61,2.57v5.4h-1.3v-14.57Z"/>
      <path class="cls-1" d="M186.76,49.37v-2.14h1.34v2.14h-1.34ZM186.76,61.81v-10.1h1.34v10.1h-1.34Z"/>
      <path class="cls-1" d="M196.14,61.81v-14.18h1.46v14.18h-1.46Z"/>
      <path class="cls-1" d="M201.87,51.71h1.3l.02,1.78c.79-1.33,1.92-1.99,3.38-1.98v1.24c-1.06,0-1.88.4-2.47,1.18-.58.79-.87,1.81-.87,3.07v4.82h-1.36v-10.12Z"/>
      <path class="cls-1" d="M214.64,60.6c-.65.95-1.5,1.42-2.54,1.42s-1.89-.47-2.53-1.42c-.64-.95-.95-2.23-.95-3.83s.32-2.89.95-3.83c.63-.95,1.48-1.42,2.53-1.42s1.89.47,2.53,1.42c.64.95.95,2.23.95,3.84s-.31,2.89-.93,3.83ZM213.66,53.74c-.39-.71-.9-1.07-1.55-1.07s-1.16.36-1.55,1.08-.58,1.72-.58,3,.19,2.28.58,3,.9,1.08,1.55,1.08,1.16-.36,1.56-1.08c.39-.72.59-1.72.58-3,0-1.28-.2-2.29-.59-3.01Z"/>
      <path class="cls-1" d="M218.18,51.7h1.24l.02,1.36c.22-.4.5-.74.84-1.03.44-.35.92-.53,1.44-.53.85,0,1.48.35,1.88,1.06.4.71.6,1.82.6,3.35v5.89h-1.26v-5.77c0-1.26-.12-2.13-.35-2.61-.23-.49-.63-.73-1.18-.73-.45,0-.89.37-1.3,1.12s-.62,1.61-.62,2.59v5.4h-1.3v-10.1Z"/>
      <path class="cls-1" d="M230.71,47.62l1.9,11.76,1.9-11.76h1.67l1.9,11.81,1.88-11.81h1.38l-2.49,14.18h-1.63l-1.9-12.51-1.92,12.51h-1.63l-2.49-14.18h1.42Z"/>
      <path class="cls-1" d="M249.47,60.6c-.65.95-1.5,1.42-2.54,1.42s-1.89-.47-2.53-1.42c-.64-.95-.95-2.23-.95-3.83s.32-2.89.95-3.83c.63-.95,1.48-1.42,2.53-1.42s1.89.47,2.53,1.42c.64.95.95,2.23.95,3.84s-.31,2.89-.93,3.83ZM248.49,53.74c-.39-.71-.9-1.07-1.55-1.07s-1.16.36-1.55,1.08c-.39.72-.58,1.72-.58,3s.19,2.28.58,3c.39.72.9,1.08,1.55,1.08s1.16-.36,1.56-1.08.59-1.72.58-3c0-1.28-.2-2.29-.59-3.01Z"/>
      <path class="cls-1" d="M253.36,51.71h1.3l.02,1.78c.79-1.33,1.92-1.99,3.38-1.98v1.24c-1.06,0-1.88.4-2.47,1.18-.58.79-.87,1.81-.87,3.07v4.82h-1.36v-10.12Z"/>
      <path class="cls-1" d="M262.51,47.23v8.49l3.34-4.02h1.69l-4.16,4.8,4.2,5.3h-1.67l-3.4-4.47v4.47h-1.3v-14.57h1.3Z"/>
      <path class="cls-1" d="M272.76,51.51c.88,0,1.73.26,2.54.78l-.27,1.15c-.82-.51-1.57-.76-2.27-.76-.49,0-.86.14-1.11.41s-.37.66-.37,1.15c0,.47.11.84.32,1.11.21.27.63.49,1.23.64.93.22,1.62.58,2.06,1.09.44.51.66,1.2.66,2.08s-.25,1.58-.76,2.09c-.51.51-1.19.77-2.06.77-1.01,0-1.94-.33-2.8-.99l.31-1.15c.84.64,1.67.95,2.49.95.47,0,.83-.15,1.08-.44.25-.29.38-.71.38-1.25s-.11-.92-.34-1.2c-.23-.28-.63-.51-1.21-.66-.92-.22-1.6-.57-2.03-1.06-.43-.49-.65-1.15-.65-1.99s.25-1.49.76-1.98c.51-.49,1.19-.74,2.04-.74Z"/>
    </g>
  </g>
</svg>