<?xml version="1.0" encoding="UTF-8"?>
<svg id="_レイヤー_2" data-name="レイヤー 2" xmlns="http://www.w3.org/2000/svg" viewBox="0 0 77.93 77.93">
  <defs>
    <style>
      .cls-1 {
        fill: #231815;
      }

      .cls-1, .cls-2 {
        stroke-width: 0px;
      }

      .cls-2 {
        fill: #fff;
      }
    </style>
  </defs>
  <g id="_レイヤー_2-2" data-name="レイヤー 2">
    <rect class="cls-2" width="77.93" height="77.93"/>
  </g>
  <g id="_レイヤー_1-2" data-name="レイヤー 1">
    <g>
      <path class="cls-1" d="m14.45,50.98l8.56-25.36h-7.96v-1.92h10.4v1.28l-8.56,25.36h8.96v1.92h-11.4v-1.28Z"/>
      <path class="cls-1" d="m29.78,23.71h2.2l5.6,19.04,5.6-19.04h2.24v28.56h-2.2v-23.08l-5,17.4h-1.28l-5-17.4v23.08h-2.16v-28.56Z"/>
      <path class="cls-1" d="m50.2,23.71h5.72c4.6-.08,6.88,2.48,6.8,7.76v13c.08,5.28-2.2,7.88-6.8,7.8h-5.72v-28.56Zm5.64,26.68c3.24.04,4.64-1.88,4.64-6.28v-12.24c0-4.44-1.4-6.32-4.64-6.28h-3.4v24.8h3.4Z"/>
    </g>
  </g>
</svg>