<?xml version="1.0" encoding="UTF-8"?><svg id="_レイヤー_2" xmlns="http://www.w3.org/2000/svg" viewBox="0 0 1011.68 253.68"><defs><style>.cls-1{fill:#fff;}.cls-2{fill:#522b7b;}.cls-3{isolation:isolate;}</style></defs><g id="_レイヤー_2-2"><g id="_レイヤー_5"><path class="cls-1" d="m211.5,128.5l72.3-91.1h56l-72.9,91.1h-55.4Zm0,26.8v-26.8l32.4-11.6h93.8v38.4h-126.2Zm5-106.2V10.7h123.2v26.8l-32.4,11.6h-90.8Z"/><path class="cls-1" d="m416.5,154.5c-14.9,0-28.1-3.1-39.6-9.2-11.5-6.1-20.6-14.7-27.2-25.6-6.6-10.9-9.9-23.4-9.9-37.4s3.2-25.8,9.6-36.7c6.4-10.8,15.2-19.4,26.3-25.6,11.1-6.2,23.7-9.3,37.6-9.3s25.9,2.9,36.2,8.8,18.6,14,24.6,24.3c6,10.4,9.1,22.3,9.1,35.7,0,2.7-.1,5.3-.4,8.1s-.9,5.8-1.8,9.2l-118.3.6v-30l99.6-.6-18.7,12.7c-.2-7.7-1.4-14.2-3.7-19.4-2.3-5.2-5.6-9.2-10-12s-9.8-4.2-16-4.2c-6.8,0-12.7,1.6-17.7,4.8-5,3.2-8.9,7.6-11.6,13.3s-4.1,12.5-4.1,20.4,1.5,14.8,4.4,20.7c2.9,5.9,7.1,10.3,12.5,13.4,5.4,3.1,11.8,4.7,19.1,4.7,6.6,0,12.6-1.2,18.1-3.5,5.5-2.4,10.3-5.9,14.4-10.6l24.1,23.8c-6.8,8.1-15,14.1-24.6,18-9.6,3.6-20.3,5.5-32,5.6h0Z"/><path class="cls-1" d="m492.4,155.3V10.7h45.8v144.6h-45.8Zm45.8-76.2l-19-14.9c3.8-17.1,10.2-30.3,19.2-39.6s21.4-14,37.1-14c6.9,0,13,1,18.3,3.1,5.2,2.1,9.9,5.2,13.8,9.4l-24.5,34.7c-1.8-2-6.7-3.7-9.7-4.9s-6.3-1.8-10.1-1.8c-7.7,0-13.8,2.3-18.3,7-4.5,4.7-6.7,11.7-6.8,21h0Z"/><path class="cls-1" d="m633.4,51.3c8.4-8.1,10.5-8.1,16.7,0,6.7,8.8,23.4,33.1,27.6,37.4s8.5,6.3,12.8.9l8.3-10.4c5-6.3,9.6-7.1,14.9,0,5,6.7,14.2,20.2,18.7,26.7,2.4-7.2,3.8-14.9,3.8-22.9,0-39.8-32.2-72-72-72s-72,32.2-72,72c0,7.4,1.1,14.6,3.2,21.3,10-15.3,30.8-46,38-53h0Z"/><g class="cls-3"><path class="cls-2" d="m128,193.2c-.6,0-1.8.2-3.4.2-5.4,0-14.7-1.4-20.7-9.3-7.9-10.1-14.7-26.6-15.5-57.6-.6-30.8-1.8-47.9-3.2-47.9-.8,0-2,3-3.8,10.9-2.2,8.9-8.5,31-14.1,36.6-3,3-6.2,4.8-9.1,4.8-2.4,0-4.4-1.4-5.6-4.4-2.6-6.6-5.6-22.7-9.3-47.1-3.6-24.4-4.2-38.2-4.8-44.1-.6-6-.6-16.7-1.4-18.3-.2-.4-.6-.8-.8-.8-.6,0-1,1.2-1.6,3.6-.8,3.8-4.6,25.8-6.6,53.9-2,28.4-4.6,56.2-6,69.2-1.4,13.3-2.2,21.5-7.8,24.2-.4.2-.8.2-1.4.2-4.6,0-7.6-13.5-9.3-25.2-1.6-11.5-3.6-36.4-3.6-59.8v-6.2c.2-24.8,1-27.4,2.6-31.1,2-4.2,3.8-5.6,5.8-5.6,1.6,0,4.2.4,4.2,2.6,0,.4,0,.8-.2,1.2-1.4,3.2-2.8,2-3.8,9.1-.6,4.2-.8,16.3-.8,27.2,0,6.8,0,13.3.2,17.3.4,9.9.6,15.1,1.6,24.6s3,16.1,3,16.7c.8,0,1.2-5.2,1.8-11.5l3.4-38.4c1.2-14.7,4-48.3,8.1-66.8C30.2,2.8,31.8,0,35.6,0s6.4,4.4,7,9.1c.6,4.8,5.6,38.4,8.3,60.8,2.6,22.1,5.6,42.1,7.4,47.1,1,2.4,1.6,3.4,2.2,3.4s1.4-1.2,2.2-2.8c1.8-3.2,9.3-19.1,12.1-32.6,2.6-12.9,5.2-29.8,5.2-33.6v-1c0-2.6,1.2-5.6,4.8-5.6,3.6.4,5.6,5.8,6.4,11.3.8,5.4,3.4,27.4,4.4,50.9,1,23.7.8,38.6,4.2,51.1,3.4,12.3,6.2,21.1,14.1,28,5,4.4,9.1,5,11.7,5h2.8c.8,0,1.6.4,1.6,1,.2.3-.4.7-2,1.1Z"/><path class="cls-2" d="m159.2,116.7c-2.2,1.4-3.6,1.6-4.6,1.6-.4,0-.8,0-2-.2-.2-.2-.4-.2-1-.2-2.4,0-9.9.4-11.1,1.2-.4.4-.6,1.8-.6,4.2v7.6c-.2,2.6-.4,7.8-1,13.1-.6,5.4-1.4,10.5-3,13.3-2,3.4-5,4.8-7.8,4.8-1.6,0-3-.4-4.4-1.2-3.2-1.6-6.2-7.8-6.2-12.3,0-.6.2-1.2.2-1.8.2-.6.4-.8.6-.8.4,0,.6.6,1,1.2,1,1.4,1.6,3,2.2,4.4.8,1.4,1.2,2.8,2.2,4.2.6.6,1.4,1.2,2.2,1.2.6,0,1.4-.2,2-.8,2.8-2.4,4-15.5,4-22.1,0-.8,0-1.6-.2-2.2,0-2.6,0-5.2-.2-7.4s-.2-3.8-1.2-3.8c-1.8,0-9.5,1.4-11.7,2.6-1.6.8-2.8,2.4-2.8,4,0,.4.2,1,.6,1.6.2.6.4.8.4,1.2s-.4.6-1.2.6c-.4,0-1,0-1.4-.2-2-.4-5-3-5-6.4,0-1.2.4-2.6,1.4-4,2.6-3.8,8.7-5.6,12.9-6.4l5.2-1.2c1.4-.2,2-1.2,2-2.8,0-.8-.2-8.1-.2-10.1v-5.2c-.2-21.1-.8-28.8-1-35.2-.2-3-.2-6-.2-9.1,0-9.7.6-19.3,2-28,2-11.5,3.8-14.9,8.3-14.9,2.6,0,3,3.4,3,6.2,0,1.2,0,2.2-.2,3,0,1.2-.2,3.2-.6,5.6-.4,2.4-1,5.2-1.8,7.2-1.8,4.4-1.8,8.7-2.2,13.5v5.2c0,5.2.2,12.3.6,19.7.4,10.7,1.4,21.5,1.4,32.8v5.8c0,2,.2,3.8.8,3.8s2.6-.4,4.6-.4h7c2,.2,3.8.4,5.2.8,1.4.2,2.6.6,3.4.8.8.2,1.4.8,1.4,1.6,0,1.3-.6,2.5-3,3.9Z"/><path class="cls-2" d="m189.4,148.7c-2.8,2.8-5.4,4.4-7.6,4.4-1,0-2-.4-2.8-1.2-1-1-1.2-2-1.2-3s.2-2.2.2-3.2c0-.6,0-1.2-.2-1.6-.2-.6-.2-1-.2-1.4,0-2,1.8-3,4.4-4.8,1.4-1,3-1.6,4.4-1.6,1.6,0,3,.8,3.4,2.6.4,2.2,1.8,3.8,1.8,5.6,0,1.2-.6,2.6-2.2,4.2Z"/></g><g class="cls-3"><path class="cls-2" d="m420.7,162.2c-.3-.9-1.6-4.4-1-5.8.6-2.2,3.4-5.1,5-8.4,1.5-3.4,4.6-7.3,6.9-10.9,7.7-15.3,22.5-39.6,31.1-54.4l10.5-14.8c.2-1.8,2.2-6.4,4.5-11.8,1-2.7,2.3-5.7,3.7-8.3-14.7-1.8-29.6-1.8-42,.8-8.3,1.5-15.4,8.8-23.8,12.7-6.5,2-11.6-10.5-5.4-13.8,8.9-4,10.9-1.6,19.9-5.3,9.2-3.8,33.2-2.2,54.3.5,3-4.5,6.6-7.6,10.7-7.3,1.4,1.2,2.3,2.3,2.8,3.8.2,1.4.2,3.4.1,5.4,9.7,1.6,17.7,3.2,21.4,4.3,30.4,8.6,35.5,10.9,50.7,19.8,15.8,9.4,26.8,18.5,26.6,37.1,0,2.3-.5,7.4-1.8,9-3.4,7.6-18.7,21.6-30.2,26.1-23.7,10.1-45.7,23-69.8,30.2-9.7,2-18.7,5.3-23.7,6.7-19.5,4.9-40.1,11.3-58.8,15.7-12.9,3-29.1,5.2-43,7.2-2.8.6-3.2.8-4.3.7l-2.2.2c-1.5.2-3.4.6-4.9.5-5.3.5-11.1.3-14.6-1.4-2.4,0-4.9.1-6.1-.3-1.3-.5-1.4-2.4-2-3.4-1.3-4.4,4.6-10.3,8.1-7.3.5.7,1.8,4.9,5.5,5.9,3.6,1.2,8.1,1.7,11.6,2.1,3.7,0,6.9-.1,8.4-.5,15.4-2.7,26.6-5.3,41.5-9.2,25.1-6.2,50.3-15.4,75.1-22.5,5.1-1.5,10.2-3.5,15.1-5.4,19.8-7.4,38.9-17.3,56.6-27.4,9.8-5.5,23.5-14.4,26.8-24.4,3.4-8.9,1.8-16.5-2.5-22.7-6.2-8.7-16.9-14.8-17.5-15-15.6-7.2-38.4-12.7-57.1-17.8-3.2-.9-6.7-1.7-10.2-2.4l-.3.8c-3.5,6.7-9.2,8.6-12.9,15.3-5.9,10.1-22.5,30.4-31.1,43-5.7,8.6-10.3,16.5-13.1,23.8l-2.3,6.1c-.9,2.8-3.8,7.5-5.3,10.7-2.3,5.1-1.8,8.9-1.7,9.4.7,4.9-6.5,6.1-9.3,2.7Z"/><path class="cls-2" d="m606.9,142.2c-.9-.1-1.5-.5-1.7-1l-1.6,1.4c-.7.6-2,2.3-2.7,3.6-.7,1.2-.6,2.2-.6,2.5,0,1,1.3,1.6,2.4,2.2,1.5.7,4.4,2.1,15.1,1,3.6-.2,7.7,0,16.9-2.1,9-2,13.9-4,20.9-6.2,3.2-1,6.1-1.8,9.6-3,5.1-1.5,7.7-3.1,8.2-3.5,1.2-.9,4-1,3.2,1.2-.6,1.4-3.9,2.5-7.1,3.9-5,2.3-10.6,4.7-12.8,5.4-5.9,2.2-11.4,3.9-18,6-6.7,1.6-11.2,3.4-17.1,4.4-2,.3-5.7,1.2-8.1,1.4-8.4.8-12.2.8-15.5.6-2.1-.1-3-.5-4.5-1-1.6-.6-1.7-1.2-2.9-1.8-2.1-1.3-3.1-3.6-3.1-6.2,0-1.5-.1-3.8,1.2-5.9.8-1,2.3-3.6,4.9-6,2.2-2.1,5.3-4.6,8.2-6.5,4.4-2.8,5.8-3.7,8.1-5,2.1-1.2,5-2.1,10.5-4.7,9.9-4.7,14.6-5.9,20.3-6.9l4.5-.9c2.7-.3,12.6-.6,13.1,4,.1,1.6-.5,2.9-2.9,5-2,1.6-3.4,2.9-6.5,4.5-4.7,2.5-13.6,6-22.1,9.1-1.3.5-3,1-5.2,1.6-1.5.7-3.1,1.4-4.5,1.8-2.5,1-7.5,2.9-10.2,1.1Zm4.6-6.5h.5c.9,0,2.7-.1,4.5-.2,1.4-.1,1.5,0,2.5-.1l2.5-.5,2.7-.8c1.6-.5,3-.9,4-1.4,5.1-2.2,13.2-6,15.8-8.1,1.5-1.2.2-1.8.1-2-1.5-.6-2.5-.6-2.7-.6-2.1.2-4.2.2-9.2,2.4-.9.5-2.8,1.5-3.9,2.1l-4.4,2.1c-3.6,1.7-7,3.7-9.9,5.5-.7.6-1.7,1.1-2.5,1.6Z"/><path class="cls-2" d="m685.3,132.5c3-.9,5.9-1.7,7.9-2.2,7.9-2,13.6-2.4,20.1-2.5.1-.8.3-1.6.6-2.2.9-2.2.6-3,2-4.9,4.4-5.3,13.2-11.8,20.1-9.4,1.3.5,3,1.8,3.8,2.8.3,1.6-.3,4.3-1.3,5.9-1.6,2.8-7.7,4.6-10.1,2.8l-1.2-.8c-.9-.6-4.7-1.3-4.9.5s-.3,3.5-.1,5.3c.7,0,1.4-.1,2.1-.1,14.2-.2,16.1-.1,29.5,1.4,1.8.1,4.7.8,7,1.7,1.5.6,2.5,1,2.5,1.6.7,1.2-.9,2.2-1.8,2.9-1.4.9-3.1,1.3-4.7.2-1.8-1-2.1-2-4.7-2.2-1.4-.5-4.7-1.5-8.8-1.8-5.9-.5-12.9-.5-15.4-.5h-5.2c.7,2.9,1.7,5.7,2.8,8.1,1.4,3,1.8,6.2-.3,9.7-1.3,1.8-3.4,3.8-5.4,5.1-4,3-10.7,5.5-19.8,6.5-7.5.9-15.1.6-19.2-.1-3.6-.7-6.8-2.1-9.6-3.8-3-2-5.1-4.2-5.2-7.3-.1-3.1,2.2-6.8,6.6-10.3,2.7-1.8,3.4-2.4,7-4.4,1.5-.7,1.2-1,3.1-1.4l2.6-.6Zm27.8-1.4c-4.9.2-9.7.7-14.4,2-4,1-8.7,1.4-12.5,2.7-1.4.5-3.8,2-5,2.8-1.7,1.2-2.3,3-3.2,5.2-1.2,2.8.6,4.9,1.6,6.4,1.6,2.3,3.4,2.3,4.9,2.9,4,1.5,8.8,3.7,13.8,3.1,3.7-.6,4.7-1.2,7.6-1.6,2.2-.1,6.2-1.6,7.6-3.6,1.2-1.5,3.7-2.9,2.1-7-1.3-3.4-2.4-8.6-2.5-12.9Z"/><path class="cls-2" d="m755.5,136.3c2.5-5.2,4.7-10.3,7.3-13.6,2.9-4.5,7.3-5.2,10.6-5.7,1.8-.2,4.3,1.6,4.6,3.4.8,1.8-.7,3.5-2,4.7-2.1,2.2-4,3.1-5.3,4-1.2,1.3-2.5,2.1-3.5,2.9-2.1,2-3.2,3.5-4.6,6-2,3.7-2.3,5.8-1.5,9,1.2,5.1,7.4,4.4,11.2,3.7,7.4-1.6,14.8-2.7,21.8-5.1,4.9-1.6,9.7-3.9,14-6.4,2.3-.5,4.6.2,3,1.7-11.3,7.4-27,16.2-41.6,18.1-6.7.9-15,0-17.3-7-1.5-4.8.5-9.8,3.3-15.7Zm40.8-60c1.4.8,2.7,1.6.6,4.7-3.7,5-4.9,6.1-9.2,8.4-.2.1-4.6,1.7-6.9-.5-.8-.8-.3-2.4-.8-3.4-1.3-3.8,4.7-6,9.2-7.9,1.7-.8,1.3-.3,2.3-.8,2.5-.7,3.9-.8,4.8-.5Z"/><path class="cls-2" d="m892.1,150.4c-3.9,2-6.5,3-9,5l-11.1,8.9c-13.2,22.2-25.1,36.5-44,57.7-3.5,4.2-7.3,8.3-11.3,12.5-.6.5-17.9,21.3-24,19-1.5-.5-1.8-2-1.6-3.8.3-3.4.9-6.6,1.8-8.7,1.7-3.9,2.5-6.4,16.3-23.3,7.2-8.8,22.1-23.5,31-31.4,5.7-5.1,11.4-9.8,17.7-14.7l5.9-4.9c4.5-7.5,8.1-15.3,9.8-23.3.5-2.4-4.6-5.3-5.5-5.1-1.6.5-3.2.3-4.5.6-3.6.6-5.7,1.5-9.5,3-5,2.2-13.8,5.3-22,8.7-6,2.4-10.3,4.5-15.8,5.8-5.1,1.2-9.8,2.3-12.8.7-2.8-1.6-3-4-3-6.2.1-2.7,2.3-5.2,5.8-8.9,6.6-6.7,19-14.9,32.1-20.1,11.3-4.4,16.5-6,22.5-8,2.5-.8,10.2-.1,12.6.1,1.6.3,1.8.8,2.4,2.2l.6,5.3c0,2.7-.7,3.8-2.7,4.9-2.3,1-5.2,1.6-7,0-2-1.8-7.5-5.3-11.8-3.2-3.8,1.8-5.8,1.2-13.3,4.7-8.8,4-15.6,8.7-20.6,12.6-2.1,1.6-2.9,2.8-4.3,4.2-.7.8-1.3,1.7-1.6,2.5-.2.6-.5,1.2,1.4,1.3,2.4.1,4.4-.2,6.5-.7,2.9-.6,3.6-.9,7-1.8,6.6-1.7,11.8-3.8,16.9-6,5.8-2.4,10.9-4.3,18.3-6.7,5.8-2.2,16.9-4.7,19.3,2,1.5,4.3-3,13.2-6.8,19.6l4.4-2.5c2.7-1.6,6.4-3.9,14.3-7.5,2.4-1.4,4-2.5,7.2-3.7,3.5-1.4,5.4-2.8,7.7-3.4.7-.1.7-.2,2-.2,1.5,0,3.9,2.1,3.8,3.8-.1,1-.9,2.2-2.3,3-2.1,1.2-3.5.2-6.4,1.3-1.5.5-2.8.2-5.1.6-1.4.5-3,.8-4.4,1.3-.8.2-1.5.6-2.8,1.2-1.8.4-2.2.7-4.1,1.6Zm-34.9,26l-1.5,1.4c-12.5,10.6-28.1,28.9-38.6,41-6.9,8.2-7.9,12.5-8,13.8,9.2-9,5.4-3.6,13.6-13.2,14.2-16.3,23.5-26.3,34.5-43Z"/><path class="cls-2" d="m922.7,121.4c1.4-1.8,3.7-3.8,6.1-4.4,3.9-1.5,7.3.7,6.9,4.9-1.7,5.3-10.6,13.6-14.2,18.3-1.2,1.4-1.6,2.5-1.2,2.7.3,0,.9.6,2.9-.3,2-.9,4.7-2.4,5.5-2.9,3.7-2.2,13.4-8.2,22.9-13.8,9.1-5,16.5-8.4,21.1-7.9,7.6.9,7.4,6.4,6.1,13.4-.7,3.9-1.2,8.1-1.3,10.7,0,6,5.4,8.6,10.7,8.6,6.7,0,14.9-3.4,20.1-5.9v-.1c.2-.1.6-.1.8-.1,3.2-.2,3.4,1.8.7,3.4-9.2,4.9-20.2,11.3-28.4,10.6-4.9-.3-10.4-4.7-11-11.2-.3-3.6-.3-6.6.1-10.4.2-2.3,0-4-.2-5.3-.2-1-1.2-2.2-2-2.8-.7-.5-2.2-1.4-4.2-1-3.8.7-9.1,2.1-15.3,5.3-6,3.2-11.9,7.7-16.8,10.7-4,2.5-10.6,8.3-14.4,10.3-2.2,1-3.7,2.3-6.1,2.8-1,.3-1.8.7-2.8.5-3.1-.3-4.4-1.5-5.5-4.3-.2-3,1.8-6,4.4-9.5,1.3-1.7,2.8-4,3.9-5.5,2.2-3.2,4.5-6.2,6.4-8.4,3.4-5,2.5-5.2,4.2-7.5.2-.2.2-.5.3-.6v-.3h.3Z"/></g></g></g></svg>