<?xml version="1.0" encoding="utf-8"?>
<!-- Generator: Adobe Illustrator 27.5.0, SVG Export Plug-In . SVG Version: 6.00 Build 0)  -->
<svg version="1.1" xmlns="http://www.w3.org/2000/svg" xmlns:xlink="http://www.w3.org/1999/xlink" x="0px" y="0px"
	 viewBox="0 0 150 112" style="enable-background:new 0 0 150 112;" xml:space="preserve">
<style type="text/css">
	.st0{fill:#FFFFFF;}
</style>
<g id="レイヤー_2">
</g>
<g id="_レイヤー_2">
	<g id="Layer_2">
		<path class="st0" d="M15,110.4c-6.6,0-12-5.4-12-12V13.6c0-6.6,5.4-12,12-12h120c6.6,0,12,5.4,12,12v84.9c0,6.6-5.4,12-12,12H15z
			 M15,8.7c-2.7,0-4.8,2.2-4.8,4.8v84.9c0,2.7,2.2,4.8,4.8,4.8h120c2.7,0,4.8-2.2,4.8-4.8v-2h0V13.6c0-2.7-2.2-4.8-4.8-4.8H15z"/>
		<path class="st0" d="M135,3.6H15C9.5,3.6,5,8,5,13.6v84.9c0,5.5,4.5,10,10,10h120c5.5,0,10-4.5,10-10V13.6
			C145,8,140.5,3.6,135,3.6L135,3.6z M141.8,98.4c0,3.8-3.1,6.8-6.8,6.8H15c-3.8,0-6.8-3.1-6.8-6.8V13.6c0-3.8,3.1-6.8,6.8-6.8h120
			c3.8,0,6.8,3.1,6.8,6.8L141.8,98.4L141.8,98.4z"/>
		<path class="st0" d="M133.6,102.5c-1.3,0-2.6-0.5-3.6-1.3l-46-38.1l-5.5,4.6C77.5,68.6,76.3,69,75,69c-1.3,0-2.6-0.5-3.6-1.3
			l-5.5-4.6l-46,38.1c-1,0.8-2.3,1.3-3.6,1.3c-1.7,0-3.3-0.7-4.3-2c-0.9-1.1-1.4-2.6-1.2-4.1c0.1-1.5,0.8-2.8,2-3.8l44.3-36.7
			L12.8,19.3c-1.1-0.9-1.9-2.3-2-3.8c-0.1-1.5,0.3-2.9,1.2-4.1c1.1-1.3,2.6-2,4.3-2c1.3,0,2.6,0.5,3.6,1.3l55,45.5l55.1-45.5
			c1-0.8,2.2-1.3,3.5-1.3c1.7,0,3.2,0.7,4.3,2c1,1.1,1.4,2.6,1.3,4.1c-0.1,1.5-0.8,2.8-2,3.8L92.8,56l44.3,36.7
			c1.1,0.9,1.9,2.3,2,3.8c0.1,1.5-0.3,2.9-1.3,4.1C136.8,101.8,135.3,102.5,133.6,102.5z"/>
		<path class="st0" d="M84.1,60.6l-6.8,5.6C76.6,66.7,75.8,67,75,67c-0.8,0-1.6-0.3-2.3-0.8l-6.8-5.6"/>
		<path class="st0" d="M60.3,55.9L14.1,17.8c-0.7-0.6-1.2-1.5-1.3-2.4c-0.1-0.9,0.2-1.9,0.8-2.6c0.7-0.8,1.7-1.3,2.8-1.3
			c0.8,0,1.6,0.3,2.3,0.8L75,58.8l56.3-46.5c0.6-0.5,1.4-0.8,2.3-0.8c1.1,0,2.1,0.5,2.8,1.3c0.6,0.7,0.9,1.7,0.8,2.6
			c-0.1,0.9-0.5,1.8-1.3,2.4L89.7,56"/>
		<path class="st0" d="M60.3,55.9L14.1,17.8c-0.7-0.6-1.2-1.5-1.3-2.4c-0.1-0.9,0.2-1.9,0.8-2.6c0.7-0.8,1.7-1.3,2.8-1.3
			c0.8,0,1.6,0.3,2.3,0.8L75,58.8l56.3-46.5c0.6-0.5,1.4-0.8,2.3-0.8c1.1,0,2.1,0.5,2.8,1.3c0.6,0.7,0.9,1.7,0.8,2.6
			c-0.1,0.9-0.5,1.8-1.3,2.4L89.7,56"/>
		<path class="st0" d="M84.1,60.6l-6.8,5.6C76.6,66.7,75.8,67,75,67c-0.8,0-1.6-0.3-2.3-0.8l-6.8-5.6"/>
		<path class="st0" d="M65.9,58l8.1,6.7c0.3,0.2,0.7,0.4,1,0.4s0.7-0.1,1-0.4l8.1-6.7"/>
		<path class="st0" d="M86.6,56L86.6,56l48.1-39.7c0.7-0.6,0.8-1.6,0.2-2.2s-1.6-0.8-2.2-0.2L75,61.4L17.4,13.8
			c-0.7-0.6-1.7-0.5-2.2,0.2s-0.5,1.7,0.2,2.2l48.1,39.7"/>
	</g>
</g>
</svg>
