<?xml version="1.0" standalone="no"?>
<svg version="1.1" id="Layer_1" xmlns="http://www.w3.org/2000/svg" xmlns:xlink="http://www.w3.org/1999/xlink" x="0px" y="0px" viewBox="0 0 595.28 595.28" enable-background="new 0 0 595.28 595.28" xml:space="preserve">
<path id="color_x5F_11" fill="#1178B5" d="M427.292,154.535L427.292,154.535L427.292,154.535L427.292,154.535L427.292,154.535z
	 M519.139,195.813v5.596h-42.167h-24.266v7.783h-14.404v249.383h31.793v20.708h-85.342v-20.708h31.793V209.191h-14.67v-7.783
	H245.644h-2.51h-6.006v-5.596l0,0l0.133,0.613l2.87-0.613h161.747v-3.338l24.411-36.442l0.866-0.185l1.455,0.654l24.097,35.973
	v3.338h63.328H519.139z M434.756,194.078c0-4.048-3.282-7.33-7.33-7.33s-7.33,3.282-7.33,7.33s3.282,7.33,7.33,7.33
	S434.756,198.127,434.756,194.078z"></path>
<path id="color_x5F_10" fill="#FDB957" d="M253.606,445.206c-0.574-1.65-2.908-1.65-3.481,0l-10.797,31.057h-3.422v3.019h2.372
	h27.174h2.372v-3.019h-3.422L253.606,445.206z M247.447,453.896l6.443-5.71l2.752,7.14l-12.765,10.5L247.447,453.896z
	 M239.65,476.257l20.042-12.349l4.23,12.349H239.65z M157.104,272.995c0.168-1.318,1.373-2.25,2.691-2.082
	c1.318,0.168,2.25,1.372,2.082,2.69c-0.168,1.318-1.373,2.25-2.691,2.082C157.868,275.517,156.936,274.313,157.104,272.995z
	 M149.504,272.026c0.168-1.318,1.373-2.25,2.691-2.082c1.318,0.168,2.25,1.372,2.082,2.69c-0.168,1.318-1.373,2.25-2.691,2.082
	C150.268,274.549,149.336,273.344,149.504,272.026z M142.371,271.117c0.168-1.318,1.372-2.25,2.69-2.082
	c1.318,0.168,2.25,1.373,2.082,2.69c-0.168,1.318-1.373,2.25-2.691,2.082C143.135,273.639,142.203,272.435,142.371,271.117z
	 M99.393,313.091l0.879,1.508l-21.798,10.878l-1.091,0.563l-0.698-1.6l0.868-0.515c-1.273-4.013-1.79-11.707,4.955-14.315
	c8.363-3.233,13.364,4.986,13.364,4.986L99.393,313.091z M314.867,394.447H192.376c-2.828,0-5.121,2.293-5.121,5.12v26.697h132.733
	v-26.697C319.988,396.74,317.695,394.447,314.867,394.447z M192.806,425.494l18.506-30.276h21.185l-18.506,30.276H192.806z
	 M253.682,425.494h-21.185l18.506-30.276h21.185L253.682,425.494z M295.931,425.494h-21.185l18.506-30.276h21.185L295.931,425.494z
	 M260.11,329.423l-123.17-15.699l2.327-18.26l123.17,15.699L260.11,329.423z"></path>
<path id="color_x5F_9" fill="#6A307D" d="M237.128,204.677h-7.373v-12.133h7.373v2.627l190.164-40.637l91.847,41.278h-3.104
	l-88.88-39.965l-189.894,40.579l-0.133-0.613V204.677z M209.337,267.288l34.512-16.844l25.913,24.545l2.46,0.314l2.452,0.306
	l-29.03-27.498v-46.703h-2.51v46.126l-39.081,19.073l2.636,0.343L209.337,267.288z M476.973,232.184h42.167v-30.775h-42.167V232.184
	z M427.426,186.748c-4.048,0-7.33,3.282-7.33,7.33s3.282,7.33,7.33,7.33s7.33-3.282,7.33-7.33S431.474,186.748,427.426,186.748z
	 M338.219,306.412L338.219,306.412l-206.533-26.325c1.432-11.231,11.696-19.175,22.927-17.743l165.863,21.141
	C331.707,284.917,339.651,295.182,338.219,306.412z M145.062,269.035c-1.318-0.168-2.523,0.764-2.69,2.082
	c-0.168,1.318,0.764,2.522,2.082,2.69c1.318,0.168,2.523-0.764,2.691-2.082C147.312,270.407,146.38,269.203,145.062,269.035z
	 M152.194,269.944c-1.318-0.168-2.523,0.764-2.691,2.082c-0.168,1.318,0.764,2.522,2.082,2.69c1.318,0.168,2.523-0.764,2.691-2.082
	C154.444,271.317,153.512,270.112,152.194,269.944z M159.794,270.913c-1.318-0.168-2.523,0.764-2.691,2.082
	c-0.168,1.318,0.764,2.522,2.082,2.69c1.318,0.168,2.522-0.764,2.691-2.082C162.044,272.285,161.112,271.081,159.794,270.913z
	 M291.973,479.282h4.627v-53.016h-4.627V479.282z M210.643,466.021c0.41-0.026,0.81,0.008,1.183,0.144
	c2.488,0.905,0.377,6.181,0.377,6.181s1.488-2.815,3.067-3.125v-42.956h-4.627V466.021z M294.928,368.345
	c0.36-0.558,0.927-1.35,1.636-2.059c0,0-0.911,0.534-1.633,1.493l0.072-12.298c0.44-1.118,1.464-3.604,2.323-4.766
	c0,0-1.392,1.629-2.318,3.834l0.031-5.424l-0.559,13.089c-0.125-0.312-1.323-3.244-2.953-5.469c0,0,2.358,4.103,2.917,6.317
	l-0.475,11.11h-11.255l5.168,20.277h13.12l5.566-20.277h-11.676L294.928,368.345z"></path>
<path id="color_x5F_8" fill="#CCE4EE" d="M453.527,427.425l-5.389-2.668l2.692,7.296c0,0-6.749,1.959-12.528,6.974v-20.839
	c7.537-3.064,16.187-4.442,25.429-1.99L453.527,427.425z M392.394,428.806c-24.584-19.793-63.366-11.624-63.366-11.624
	l20.025,15.346l10.82-3.137l-0.773,9.935l8.097,4.863l12.994-2.422l-5.845,10.348l13.427,1.875
	c-33.533,1.07-43.76,26.149-43.76,26.149l16.324-3.387l5.146-7.453l1.8,6.208l10.98-1.261l1.49-8.124l5.001,7.883v-15.431h31.793
	v-25.427c-3.994,3.966-6.25,7.004-6.25,7.004l-7.33-12.679l6.825,0.327l5.904-14.788l-7.098-5.249l7.736-0.512l0.215-0.452v-13.306
	C393.546,402.432,392.394,428.806,392.394,428.806z M131.131,359.305l123.17,15.699l0.882-6.917l-123.17-15.699L131.131,359.305z
	 M129.57,371.548l123.17,15.699l0.882-6.917l-123.17-15.699L129.57,371.548z M134.252,334.82l3.181,0.405
	c2.155-1.451,4.436-2.871,4.746-2.674c0.575,0.363-0.399,1.879-1.294,2.342c-0.248,0.129-0.561,0.373-0.885,0.659l117.421,14.966
	l0.882-6.917l-123.17-15.699L134.252,334.82z M138.058,342.822c-0.682,0.49-1.309,0.965-1.944,1.207
	c-0.636,0.242-1.463-0.078-1.805-0.449c-0.233-0.253-0.768-0.524-1.088-0.673l-0.53,4.156l123.17,15.699l0.882-6.917
	l-117.161-14.933C139.5,341.707,138.657,342.391,138.058,342.822z M78.502,479.282v-1.538c-4.451,0.726-10.808,1.538-10.808,1.538
	H78.502z M84.515,476.721c1.722,0.658,3.828,1.466,4.08,1.583c0.435,0.202,0.279,0.978,0.279,0.978h2.103v-4.751h0.308v-2.02
	c-1.692,0.884-3.047,2.486-4.519,3.304C85.953,476.266,85.294,476.524,84.515,476.721z M221.022,472.196
	c-2.488-0.754-3.845,1.734-3.845,1.734s0.98-3.317-0.905-4.523c-1.884-1.206-4.071,2.94-4.071,2.94s2.111-5.277-0.377-6.181
	c-2.488-0.905-6.181,2.337-6.181,2.337s1.055-3.091-0.528-4.146c-1.583-1.055-5.201,1.809-5.201,1.809s1.884-3.543,1.055-6.257
	c-0.829-2.714-3.392-0.226-3.392-0.226s3.769-7.086,1.884-8.141c-1.884-1.055-5.352,1.281-5.352,1.281s2.488-4.9,0.377-6.031
	c-2.111-1.131-4.297,2.789-4.297,2.789s0.377-6.257-1.734-7.161c-2.111-0.905-3.769,3.241-3.769,3.241s-1.357-10.101-3.468-10.93
	c-2.111-0.829-3.995,3.618-3.995,3.618s-9.197-18.092-16.584-16.132c-7.387,1.96-0.151,21.409-0.151,21.409s-1.96-3.015-4.523-2.563
	c-2.563,0.452-0.889,5.126-0.889,5.126s-3.634-4.297-6.197-4.071c-2.563,0.226-0.452,5.277-0.452,5.277s-1.131-1.282-4.071,0
	c-2.94,1.281-0.603,9.046-0.603,9.046s-3.468-6.181-6.634-5.201c-3.166,0.98-0.528,7.312-0.528,7.312s-5.277-4.598-7.538-3.769
	c-2.261,0.829-1.131,7.161-1.131,7.161s-1.734-5.051-5.578-4.598c-3.845,0.452-3.166,7.387-3.166,7.387s-2.412-9.197-6.031-8.443
	s-2.94,8.443-2.94,8.443s-2.261-3.92-4.447-3.015c-2.186,0.905-0.905,7.463-0.905,7.463s-1.583-2.563-4.825-1.96
	c-3.241,0.603-3.241,6.106-3.241,6.106s-0.46-1.193-2.41-1.407v2.611h0.321v1.32c0,0,5.931,2.251,6.366,2.453
	c0.435,0.202,0.279,0.978,0.279,0.978h122.688C224.038,479.282,223.51,472.95,221.022,472.196z"></path>
<path id="color_x5F_7" fill="#A5BFCC" d="M294.928,368.345c0.36-0.558,0.927-1.35,1.636-2.059c0,0-0.911,0.534-1.633,1.493
	l0.072-12.298c0.44-1.118,1.464-3.604,2.323-4.766c0,0-1.392,1.629-2.318,3.834l0.032-5.424l-0.559,13.089
	c-0.125-0.312-1.323-3.244-2.953-5.469c0,0,2.358,4.103,2.917,6.317l-0.365,8.554c-0.142-0.007-0.286-0.016-0.431-0.028
	c0,0-3.23-0.745-2.982-3.429c0.249-2.684,1.889-2.783,0.895-5.069c-0.994-2.286-3.479-2.684-2.385-5.815
	c1.093-3.131,3.479-2.435,3.181-4.97c-0.298-2.535-1.292-4.175,0.149-5.815c1.441-1.64,2.882-2.087,3.032-5.169
	c0.149-3.081,2.535-1.193,2.435,1.093s-0.547,3.578,0.497,5.169c1.044,1.59,2.051,3.737,0.481,5.784
	c-1.143,1.491-1.475,2.267-0.183,3.857c1.292,1.59,2.286,2.684,1.143,4.522c-1.143,1.839-2.319,1.783-1.69,3.479
	c1.812,4.882-0.27,6.332-3.312,6.402L294.928,368.345z M338.055,405.836c3.63,2.371,7.46,1.87,10.536,1.468
	c1.965-0.257,3.66-0.478,4.965-0.008c2.149,0.776,2.606,1.873,2.698,2.383c-1.326,1.556-2.95,3.063-4.552,4.547
	c-0.473,0.438-0.941,0.875-1.402,1.311c1.211,0.027,2.454,0.076,3.72,0.151c3.553-3.3,7.071-6.735,7.718-11.002
	c1.305-0.297,4.228-0.888,9.553-1.627c8.884-1.234,9.5-6.909,9.522-7.15l-2.635-0.26c-0.02,0.153-0.545,3.661-6.762,4.702
	c0.336-2.552,1.495-3.433,1.551-3.474l-1.484-2.193c-0.261,0.172-2.449,1.751-2.764,6.071c-3.368,0.503-5.568,0.919-6.891,1.2
	c-0.056-1.182-0.204-2.203-0.345-3.126c-0.356-2.324-0.613-4.002,0.981-7.063c2.42-4.646,11.427-6.242,11.517-6.258l-0.446-2.61
	c-0.423,0.072-10.393,1.832-13.42,7.645c-1.994,3.828-1.632,6.188-1.249,8.687c0.197,1.286,0.4,2.615,0.329,4.338
	c-0.053,1.272-0.498,2.499-1.191,3.693c-0.643-0.89-1.724-1.797-3.547-2.455c-1.908-0.69-3.997-0.417-6.207-0.128
	c-2.332,0.304-4.726,0.613-7.028-0.209c0.083-0.709,0.34-1.735,1.121-2.332c2.127-1.627,1.852-4.045,1.409-5.096l-1.22,0.514
	l-1.227,0.497c0.077,0.199,0.411,1.231-0.57,1.982c-1.106,0.846-1.657,2.018-1.933,3.055c-3.475-2.964-1.54-7.675-1.45-7.886
	l-2.439-1.034C333.808,396.774,333.045,402.564,338.055,405.836z M379.948,466.428l-0.194-0.306l-0.153,0.834
	C379.718,466.787,379.836,466.612,379.948,466.428z M340.434,412.341c-2.866-0.882-6.295,1.41-9.38,4.477
	c2.46-0.399,7-1.012,12.73-1.228C343.25,414.095,342.223,412.891,340.434,412.341z M371.108,415.761
	c-0.909,0.377-1.913,1.032-2.962,1.868c6.739,1.517,13.562,4.012,19.761,7.963c-0.33-2.134-0.934-4.313-1.917-6.521
	c0,0-1.531-2.869-3.848-3.31C382.142,415.761,376.956,413.334,371.108,415.761z M205.962,466.941
	c-0.079,0.853-0.318,1.561-0.318,1.561s1.164-1.021,2.625-1.757C207.396,466.625,206.562,466.646,205.962,466.941z M384.755,472.496
	v1.509l-1.015-1.601c-0.502,0.042-1.077,0.212-1.708,0.623c0,0,0.507-0.869,0.904-1.889l-2.192-3.455
	c-0.465,0.055-0.92,0.16-1.329,0.286l-1.152,6.277l-10.98,1.261l-1.8-6.208l-5.146,7.453l-12.135,2.518l35.803,0.012
	c0,0,2.771-4.048,1.777-6.255C385.783,473.027,385.404,472.677,384.755,472.496z M375.582,455.593c0.759-0.762,1.69-1.748,2.7-2.929
	l-3.936-0.55l5.845-10.348l-12.994,2.422l-8.097-4.863l0.773-9.935l-3.117,0.904c-0.825,1.103-1.316,1.798-1.316,1.798
	s0.281-0.681,0.555-1.577l-6.942,2.013l-19.063-14.608c-4.147,4.457-7.432,9.869-7.432,9.869s-0.906-2.706-2.571-3.45v1.927h-3.327
	c-1.562,2.253-2.929,5.495-2.929,5.495s-1.545-3.531-3.2-3.862c-1.655-0.331-4.303,3.2-4.303,6.841c0,0-4.524-9.048-8.496-7.944
	c-0.492,0.137-0.862,0.409-1.133,0.781v6.727c0.507,1.957,1.133,3.525,1.133,3.525s-0.439-0.817-1.133-1.773v43.196l47.816,0.016
	C346.25,475.525,354.758,460.582,375.582,455.593z M291.112,437.608c0,0-1.103-0.772-2.096-0.221
	c-0.993,0.552-0.883,5.296-0.883,5.296s-8.905-11.77-18.529-16.419h-12.418c-0.765,1.138-1.657,3.612,0.052,8.143
	c2.538,6.731,5.296,11.545,5.296,11.545s-3.09-3.27-4.855-2.277c-1.765,0.993-1.42,4.524-1.42,4.524s-0.903-0.686-2.031-1.205
	l10.174,29.267h3.422v2.98l24.149,0.008v-46.074C289.955,433.843,291.112,437.608,291.112,437.608z M243.667,452.614
	c-2.317,1.655,0,6.289,0,6.289s-3.531-3.972-5.738-2.759c-2.207,1.214-1.434,6.731-1.434,6.731s-2.869-4.303-5.848-4.303
	s0,6.289,0,6.289s-2.869-2.869-5.848-1.103c-2.979,1.765-1.324,5.517-1.655,5.517c-0.265,0-4.616-5.07-7.874-6.037v5.983
	c0.335-0.066,0.674-0.026,1.004,0.185c1.885,1.206,0.905,4.523,0.905,4.523s1.357-2.488,3.845-1.734
	c2.369,0.718,2.96,6.484,3.011,7.032l11.874,0.004v-2.969h3.422l8.423-24.229C246.306,451.842,244.708,451.87,243.667,452.614z"></path>
<path id="color_x5F_6" fill="#FFFFFF" d="M253.889,448.187l2.752,7.14l-12.765,10.5l3.571-11.931L253.889,448.187z M232.497,425.494
	h21.185l18.506-30.276h-21.185L232.497,425.494z M239.65,476.257h24.271l-4.23-12.349L239.65,476.257z M211.313,395.219
	l-18.506,30.276h21.185l18.506-30.276H211.313z M293.252,395.219l-18.506,30.276h21.185l18.506-30.276H293.252z M294.445,363.061
	L294.445,363.061c-0.07-0.277-0.168-0.583-0.286-0.907C294.277,362.478,294.375,362.784,294.445,363.061z M294.481,362.212
	l0.28-6.544L294.481,362.212C294.481,362.212,294.481,362.212,294.481,362.212z M296.837,351.345
	c-0.294,0.403-0.685,0.979-1.076,1.673C296.152,352.324,296.543,351.748,296.837,351.345z M295.008,354.548l0.032-5.424l0,0.003
	L295.008,354.548z M294.931,367.778l0.072-12.298L294.931,367.778L294.931,367.778z M291.528,356.744
	c0.451,0.616,0.868,1.286,1.24,1.941C292.396,358.03,291.98,357.36,291.528,356.744L291.528,356.744z M296.53,366.306
	c-0.026,0.016-0.064,0.04-0.12,0.078C296.467,366.346,296.504,366.323,296.53,366.306z M340.69,304.123l-15.891,124.674
	l-19.864-2.532h15.052v-26.697c0-2.828-2.292-5.12-5.12-5.12h-13.864l5.566-20.277h-11.676l0.015-2.544
	c3.042-0.069,5.124-1.52,3.312-6.402c-0.63-1.696,0.547-1.64,1.69-3.479c1.143-1.839,0.149-2.932-1.143-4.522
	c-1.292-1.59-0.96-2.366,0.183-3.857c1.569-2.047,0.562-4.194-0.481-5.784c-1.044-1.59-0.597-2.882-0.497-5.169
	c0.1-2.286-2.286-4.175-2.435-1.093c-0.149,3.081-1.59,3.529-3.032,5.169c-1.441,1.64-0.447,3.28-0.149,5.815
	c0.298,2.535-2.087,1.839-3.181,4.97c-1.093,3.131,1.392,3.528,2.386,5.815c0.994,2.286-0.646,2.385-0.895,5.069
	c-0.248,2.684,2.982,3.429,2.982,3.429c0.145,0.012,0.288,0.02,0.431,0.028l0.263-6.153l-0.372,8.71h-11.255l5.169,20.277h-95.508
	c-2.828,0-5.12,2.292-5.12,5.12v11.698l-73.278-9.34l6.26-49.112l10.876-8.273l-2.608-4.694l-7.078,3.637l1.572-12.334
	c0.689-0.255,1.849-0.691,2.172-0.857c0.467-0.241,3.213-3.71,3.358-4.18c0.145-0.47,0.373-1.097-0.515-2.218
	c-0.888-1.121-2.773-2.756-3.13-2.489c-0.35,0.262-0.668,1.943-0.977,2.619l5.552-43.558c1.619-12.699,13.226-21.682,25.925-20.063
	l168.049,21.419C334.356,283.216,342.082,293.2,340.69,304.123z M253.622,380.33l-123.17-15.699l-0.881,6.917l123.17,15.699
	L253.622,380.33z M255.182,368.088l-123.17-15.699l-0.882,6.917l123.17,15.699L255.182,368.088z M258.303,343.602l-123.17-15.699
	l-0.882,6.917l3.181,0.405c-1.833,1.234-3.576,2.492-3.933,2.797c-0.41,0.351-2.611,1.512-4.602,2.532l1.915,3.447l2.151-1.21
	c0,0,0.107,0.045,0.256,0.115l-0.53,4.156l123.17,15.699l0.882-6.917l-117.161-14.933c0.011-0.109,0.01-0.221-0.011-0.334
	c-0.167-0.936-1.421-2.632-1.371-2.97c0.036-0.244,0.955-1.307,1.8-2.055l117.421,14.966L258.303,343.602z M262.438,311.163
	l-123.17-15.699l-2.327,18.26l123.17,15.699L262.438,311.163z M320.476,283.485l-165.863-21.141
	c-11.231-1.431-21.495,6.512-22.927,17.743l206.533,26.325v0C339.651,295.182,331.707,284.917,320.476,283.485z M296.564,366.286
	L296.564,366.286c0,0-0.016,0.009-0.034,0.021C296.549,366.295,296.564,366.286,296.564,366.286z"></path>
<path id="color_x5F_5" fill="#FFD2BB" d="M128.013,323.896c0.888,1.121,0.66,1.748,0.515,2.218c-0.145,0.47-2.891,3.939-3.358,4.18
	c-0.467,0.241-2.696,1.05-2.696,1.05l-2.207,2.306l-1.922-2.726l1.713-1.79c0,0-0.751-1.97-0.64-2.405
	c0.111-0.434,0.196-2.078,0.062-2.68c-0.134-0.602,0.446-0.925,1.199-0.475c0.753,0.45,0.63,1.956,0.758,2.281
	s0.526,0.334,0.916,0.032c0.391-0.302,1.218-1.167,1.533-1.813c0.314-0.646,0.638-2.398,0.996-2.665
	C125.24,321.14,127.124,322.775,128.013,323.896z M96.022,316.627c-0.896,0.381-1.973,0.935-3.743,1.235
	c-3.258,0.551-5.012,4.861-5.012,5.062c0,0.2-0.351-3.3-1.353-3.805c-1.002-0.505-3.408,1.316-2.005,3.814
	c1.403,2.498,0.502,3.514,0.001,4.868c-0.31,0.837-1.299,1.527-2.367,1.429c0.332,1.251,0.519,2.878,0.623,4.159l7.955,2.374
	c-0.009-1.297,0.062-2.641,0.383-2.861c0.644-0.443,1.492-0.37,3.705-1.49c1.591-0.805,1.933-4.954,1.973-5.316
	c0.04-0.362,1.153-0.861,1.128-1.289c-0.035-0.602-1.128-3.826-1.128-3.826C96.306,319.34,96.239,317.896,96.022,316.627z
	 M91.286,474.53h3.077h0.02v-2.891h-3.097V474.53z M78.81,474.53h3.077h0.02v-2.891H78.81V474.53z M142.179,332.551
	c-0.575-0.363-7.901,4.807-8.679,5.472c-0.41,0.351-2.611,1.512-4.602,2.532l1.915,3.447l2.151-1.21c0,0,1.002,0.416,1.344,0.788
	c0.342,0.372,1.169,0.691,1.805,0.449c0.636-0.242,1.263-0.717,1.944-1.207c0.682-0.491,1.68-1.308,1.513-2.244
	c-0.167-0.936-1.42-2.632-1.371-2.97c0.05-0.338,1.79-2.25,2.685-2.714C141.78,334.43,142.754,332.914,142.179,332.551z"></path>
<path id="color_x5F_4" fill="#f1f1f1" d="M240.131,195.813l186.158-39.78l-24.411,36.442v3.338H240.131z M382.936,471.138
	c-0.397,1.02-0.904,1.889-0.904,1.889c0.631-0.41,1.206-0.581,1.708-0.623l1.015,1.601l-2.706-4.265L382.936,471.138z
	 M379.601,466.956L379.601,466.956l0.153-0.834L379.601,466.956z M379.948,466.428c-0.113,0.184-0.23,0.359-0.347,0.528
	l-0.186,1.012c0.409-0.126,0.864-0.231,1.329-0.286l-0.99-1.561L379.948,466.428z M378.282,452.664
	c-1.01,1.181-1.941,2.167-2.7,2.928c3.674-0.88,7.72-1.46,12.192-1.603l-13.427-1.875L378.282,452.664z M408.598,407.762
	l7.098,5.249l-5.904,14.788l-6.825-0.327l7.33,12.679c0,0,2.257-3.038,6.25-7.004v-26.349l-0.215,0.452L408.598,407.762z
	 M452.707,195.813h63.328l-88.88-39.965l1.455,0.654l24.096,35.973V195.813z M187.255,411.266l-73.278-9.34l6.26-49.111
	l10.876-8.274l-1.304-2.347l1.304,2.347l-28.341,21.56l-5.611-2.416c-0.464,2.95-0.859,6.062-0.909,8.762
	c-0.132,7.172,2.624,17.908,2.624,17.909h0.015c1.391,35.817-3.187,81.284-3.187,81.284h-1.321v0.28
	c1.95,0.214,2.41,1.407,2.41,1.407s0-5.503,3.241-6.106c3.242-0.603,4.825,1.96,4.825,1.96s-1.282-6.558,0.905-7.463
	c2.186-0.905,4.447,3.015,4.447,3.015s-0.678-7.689,2.94-8.443c3.618-0.754,6.031,8.443,6.031,8.443s-0.678-6.935,3.166-7.387
	c3.845-0.452,5.578,4.598,5.578,4.598s-1.131-6.332,1.131-7.161c2.262-0.829,7.538,3.769,7.538,3.769s-2.638-6.332,0.528-7.312
	c3.166-0.98,6.634,5.201,6.634,5.201s-2.337-7.764,0.603-9.046c2.94-1.281,4.071,0,4.071,0s-2.111-5.051,0.452-5.277
	c2.563-0.226,6.197,4.071,6.197,4.071s-1.674-4.674,0.889-5.126c2.563-0.452,4.523,2.563,4.523,2.563s-7.237-19.449,0.151-21.409
	c7.387-1.96,16.584,16.132,16.584,16.132s1.884-4.448,3.995-3.618c2.111,0.829,3.468,10.93,3.468,10.93s1.658-4.146,3.769-3.241
	c2.111,0.905,1.734,7.161,1.734,7.161s2.186-3.92,4.297-2.789c2.111,1.131-0.377,6.031-0.377,6.031s3.468-2.337,5.352-1.282
	c1.884,1.055-1.884,8.141-1.884,8.141s2.563-2.488,3.392,0.226c0.829,2.714-1.055,6.257-1.055,6.257s3.618-2.865,5.201-1.809
	c0.826,0.551,0.932,1.654,0.846,2.585c0.6-0.295,1.434-0.316,2.307-0.196c0,0,0,0-0.001,0c0.752-0.379,1.582-0.674,2.374-0.724
	v-39.756h-23.388V411.266z M355.44,432.091c0,0,0.491-0.695,1.316-1.798l-0.761,0.22C355.721,431.41,355.44,432.091,355.44,432.091z
	 M349.053,432.527l6.942-2.013l0,0L349.053,432.527z M256.26,448.201c0,0-0.346-3.531,1.42-4.524
	c1.765-0.993,4.855,2.277,4.855,2.277s-2.759-4.815-5.296-11.545c-1.708-4.531-0.817-7.005-0.052-8.143H215.27v36.973
	c3.258,0.967,7.609,6.037,7.874,6.037c0.331,0-1.324-3.752,1.655-5.517c2.979-1.765,5.848,1.103,5.848,1.103s-2.979-6.289,0-6.289
	s5.848,4.303,5.848,4.303s-0.773-5.517,1.434-6.731c2.207-1.214,5.738,2.758,5.738,2.758s-2.317-4.634,0-6.289
	c1.042-0.744,2.64-0.773,4.085-0.581l2.374-6.828c0.574-1.65,2.908-1.65,3.481,0l10.796,31.057l-10.174-29.267
	C255.357,447.515,256.26,448.201,256.26,448.201z M288.133,442.684c0,0-0.11-4.745,0.883-5.296c0.993-0.552,2.097,0.221,2.097,0.221
	s-1.157-3.765,0.861-4.431v-6.912h-22.369C279.228,430.914,288.133,442.684,288.133,442.684z M401.878,201.408H245.644v46.703
	l29.03,27.498l48.758,6.215c10.923,1.392,18.65,11.376,17.258,22.299l-15.211,119.34c1.246-1.715,2.803-3.708,4.511-5.544
	l-0.962-0.737c0,0,0.814-0.169,2.241-0.397c-0.068,0.011-0.15,0.023-0.215,0.034c3.085-3.067,6.514-5.359,9.38-4.477
	c1.789,0.551,2.816,1.754,3.35,3.249c-0.174,0.007-0.337,0.017-0.509,0.024c2.286-0.097,4.767-0.129,7.389-0.061
	c-0.119-0.003-0.245-0.012-0.364-0.015c0.462-0.436,0.929-0.872,1.402-1.311c1.602-1.484,3.226-2.992,4.552-4.547
	c-0.093-0.511-0.549-1.607-2.698-2.383c-1.305-0.47-3-0.249-4.965,0.008c-3.077,0.401-6.906,0.902-10.536-1.468
	c-5.01-3.272-4.247-9.062-3.144-11.666l2.439,1.034c-0.09,0.211-2.025,4.923,1.45,7.886c0.275-1.037,0.826-2.209,1.933-3.055
	c0.981-0.751,0.647-1.783,0.57-1.982l1.227-0.497l1.22-0.514c0.443,1.051,0.718,3.47-1.409,5.096
	c-0.781,0.597-1.037,1.623-1.121,2.332c2.301,0.822,4.696,0.512,7.028,0.209c2.21-0.29,4.299-0.563,6.207,0.128
	c1.822,0.658,2.904,1.565,3.547,2.455c0.693-1.194,1.138-2.42,1.191-3.693c0.072-1.723-0.132-3.052-0.329-4.338
	c-0.383-2.498-0.744-4.858,1.249-8.687c3.028-5.813,12.998-7.573,13.42-7.645l0.446,2.61c-0.09,0.016-9.097,1.612-11.517,6.258
	c-1.594,3.06-1.337,4.739-0.981,7.063c0.141,0.923,0.289,1.944,0.345,3.126c1.324-0.281,3.524-0.697,6.891-1.2
	c0.315-4.32,2.503-5.899,2.764-6.071l1.484,2.193c-0.056,0.041-1.214,0.923-1.551,3.474c6.216-1.041,6.742-4.55,6.762-4.702
	l2.635,0.26c-0.022,0.241-0.638,5.916-9.522,7.15c-5.325,0.739-8.248,1.33-9.553,1.627c-0.647,4.267-4.165,7.702-7.718,11.002
	c-0.007,0-0.013,0-0.02-0.001c4.7,0.275,9.739,0.913,14.814,2.104c-0.222-0.052-0.445-0.112-0.667-0.162
	c1.049-0.836,2.053-1.491,2.962-1.868c5.848-2.427,11.034,0,11.034,0c2.317,0.441,3.848,3.31,3.848,3.31
	c0.983,2.208,1.587,4.387,1.917,6.521c-0.028-0.018-0.057-0.033-0.085-0.051c1.567,0.995,3.096,2.076,4.572,3.265
	c0,0,1.152-26.373,24.154-35.314V209.191h-14.67V201.408z M86.141,410.09l-2.956,61.55h-1.278v2.891h0.321v1.32
	c0,0,1.044,0.396,2.286,0.87c0.779-0.196,1.438-0.455,2.252-0.906c1.472-0.818,2.827-2.42,4.519-3.304v-0.871h-1.102L86.141,410.09z
	 M123.934,323.952c-0.009,0.021-0.018,0.05-0.027,0.07l0,0.004C123.915,324.006,123.925,323.974,123.934,323.952z M123.934,323.952
	c0.215-0.51,0.435-1.455,0.668-2.054C124.369,322.496,124.149,323.442,123.934,323.952z M581,336.356
	c0.003,100.459-110.904,142.925-110.904,142.925v-20.708h-31.793v-19.547c5.778-5.015,12.528-6.974,12.528-6.974l-2.692-7.296
	l5.389,2.668l10.205-11.228c-9.242-2.451-17.892-1.074-25.429,1.99V209.191h14.404v-7.783h24.266v30.775h42.167v-30.775v-5.596
	l-91.847-41.278l-190.164,40.637v-2.627h-7.373v12.132h7.373v-3.268h6.006v46.126l-39.081,19.073l-48.67-6.203
	c-12.699-1.619-24.306,7.364-25.925,20.063l-5.552,43.555c-0.006,0.014-0.013,0.037-0.019,0.05
	c-0.314,0.646-1.142,1.511-1.533,1.813c-0.391,0.302-0.788,0.294-0.916-0.032c-0.128-0.325-0.006-1.831-0.758-2.281
	c-0.753-0.45-1.333-0.126-1.199,0.475c0.134,0.602,0.049,2.245-0.062,2.68c-0.111,0.434,0.64,2.405,0.64,2.405l-1.713,1.79
	l1.922,2.726l2.207-2.306c0,0,0.283-0.103,0.661-0.243c-0.046,0.017-0.095,0.035-0.137,0.051l-1.572,12.334l7.078-3.637
	l-19.359,9.948l11.752-15.251l-3.275-4.647l-16.937,14.34l-7.969-3.622c-0.698-2.825-0.434-4.208-0.434-4.208l-10.391-3.101
	c0,0-5.368,1.653-7.982,9.584c-3.869,11.736-0.869,17.909-0.526,26.15c0.294,7.047-2.153,21.316-2.153,21.316h0.015
	c0,0.001-1.535,6.521,2.246,19.169c3.008,10.06,4.129,62.115,4.129,62.115h1.189v2.891h-0.308v3.213
	c-4.451,0.727-10.808,1.538-10.808,1.538S9.017,436.827,9,371.627C8.982,303.49,24.679,247.104,136.94,226.6
	c94.27-17.218,128.057-123.247,266.459-123.024C553.694,103.819,580.997,233.153,581,336.356z M96.034,316.714l4.238-2.115
	l-0.879-1.508l-3.521,1.505c0,0-5.002-8.219-13.364-4.987c-6.745,2.608-6.227,10.302-4.955,14.315l-0.868,0.515l0.698,1.6
	l1.091-0.563l0.35-0.175c0.835,1.44,2.719,3.926,2.719,3.926c0,0,0,0,0,0c0.332,1.251,0.519,2.878,0.623,4.159l7.955,2.374
	c-0.009-1.297,0.062-2.641,0.383-2.861c0.644-0.443,1.492-0.37,3.705-1.49c1.591-0.805,1.933-4.954,1.973-5.316
	c0.04-0.362,1.153-0.861,1.128-1.289c-0.035-0.602-1.128-3.826-1.128-3.826C96.303,319.376,96.24,317.963,96.034,316.714z
	 M81.543,329.228L81.543,329.228L81.543,329.228L81.543,329.228z M81.543,329.228c0.341,0.031,0.67-0.024,0.975-0.133
	C82.251,329.165,81.938,329.206,81.543,329.228z M384.755,479.282v-1.259c-0.403,0.749-0.749,1.259-0.749,1.259H384.755z
	 M243.849,250.444l-34.501,16.838l60.406,7.699L243.849,250.444z M296.6,426.265v1.311c0.271-0.372,0.64-0.645,1.133-0.782
	c3.972-1.103,8.496,7.944,8.496,7.944c0-3.641,2.648-7.172,4.303-6.841c1.655,0.331,3.2,3.862,3.2,3.862s0.891-2.112,2.054-4.112
	l-10.851-1.383H296.6z M296.6,436.056c0.693,0.955,1.133,1.773,1.133,1.773s-0.626-1.568-1.133-3.525V436.056z"></path>
<path id="color_x5F_3" fill="#E84393" d="M101.35,479.282H90.977v-4.751h3.385h0.342v1.32c0,0,5.931,2.251,6.366,2.453
	C101.505,478.505,101.35,479.282,101.35,479.282z M98.891,390.356H71.246c0,0-1.535,6.52,2.246,19.169
	c3.008,10.06,4.129,62.115,4.129,62.115h5.564l2.956-61.55l4.042,61.55h5.52C95.704,471.64,100.282,426.173,98.891,390.356z
	 M88.595,478.303c-0.435-0.202-6.366-2.453-6.366-2.453v-1.32h-0.342h-3.385v4.751h10.372
	C88.875,479.282,89.03,478.505,88.595,478.303z"></path>
<path id="color_x5F_2" fill="#FBC02D" d="M128.505,339.847l2.608,4.694l-28.341,21.56l-5.611-2.416
	c-0.464,2.95-0.859,6.062-0.909,8.762c-0.132,7.172,2.624,17.909,2.624,17.909H71.231c0,0,2.447-14.269,2.153-21.316
	c-0.343-8.242-3.343-14.414,0.526-26.15c2.614-7.931,7.982-9.584,7.982-9.584l10.391,3.101c0,0-0.264,1.383,0.434,4.208l7.969,3.622
	l16.937-14.34l3.275,4.647l-11.752,15.251L128.505,339.847z"></path>
<path id="color_x5F_1" fill="#0984E3" d="M83.817,322.81c0.159,0.215,1.342,1.909,0.561,3.859c-0.837,2.087-1.127,2.463-2.835,2.559
	c0,0-1.885-2.486-2.72-3.926L83.817,322.81z M86.956,321.244l0.311,1.68c0.225-0.7,1.374-2.521,1.374-2.521l0.001,0L86.956,321.244z
	"></path>
</svg>