<svg xmlns="http://www.w3.org/2000/svg" width="21.125" height="31.06" viewBox="0 0 21.125 31.06">
  <defs>
    <style>
      .cls-1 {
        fill: #2e2e2e;
        fill-rule: evenodd;
      }
    </style>
  </defs>
  <path id="b" class="cls-1" d="M694.328,7504.39a87.57,87.57,0,0,0-5.169,8.19c-3.49,5.96-9.342,16.5-11.475,20.11-1.115,1.88.542,2.31,1.109,1.6,0.247-.31,5.23-8.03,9.861-15.69,3.626-6,7.037-12.11,7.787-13.58C696.951,7504.02,695.288,7502.83,694.328,7504.39Zm1.465,22c-1.466,1.39-5.281,4.73-6.773,6.71-1.594,1.93.686,1.98,1.717,0.99,1.092-1.05,5.748-5.58,6.876-6.93C699.355,7525.08,697.977,7524.27,695.793,7526.39Z" transform="translate(-677.281 -7503.66)"/>
</svg>
