<?xml version="1.0" encoding="UTF-8"?>
<svg id="_レイヤー_2" data-name="レイヤー 2" xmlns="http://www.w3.org/2000/svg" viewBox="0 0 21.1 31.09">
  <defs>
    <style>
      .cls-1 {
        fill: #2e2e2e;
        fill-rule: evenodd;
        stroke-width: 0px;
      }
    </style>
  </defs>
  <g id="_レイヤー_1-2" data-name="レイヤー 1">
    <path id="b" class="cls-1" d="m4.07.75c1.87,2.63,3.6,5.37,5.17,8.19,3.49,5.96,9.34,16.5,11.48,20.11,1.11,1.88-.54,2.31-1.11,1.6-.25-.31-5.23-8.03-9.86-15.69C6.12,8.96,2.71,2.85,1.96,1.38,1.45.38,3.11-.81,4.07.75Zm-1.47,22c1.47,1.39,5.28,4.73,6.77,6.71,1.59,1.93-.69,1.98-1.72.99-1.09-1.05-5.75-5.58-6.88-6.93-1.74-2.08-.36-2.89,1.82-.77Z"/>
  </g>
</svg>