<svg xmlns="http://www.w3.org/2000/svg" viewBox="0 0 1280 100" width="100%">
  <defs>
    <linearGradient id="wave-1736247682723" gradientUnits="userSpaceOnUse" x1="0" y1="0" x2="1280" y2="0">
      <stop offset="0%" stop-color="#6ab0ce"/>
      <stop offset="100%" stop-color="#cd789c"/>
    </linearGradient>
  </defs>
  <path d="M 0 80 Q 14.55 80 29.09 90 Q 58.18 110 87.27 90 Q 101.82 80 116.36 80 Q 130.91 80 145.45 90 Q 174.55 110 203.64 90 Q 218.18 80 232.73 80 Q 247.27 80 261.82 90 Q 290.91 110 320 90 Q 334.55 80 349.09 80 Q 363.64 80 378.18 90 Q 407.27 110 436.36 90 Q 450.91 80 465.45 80 Q 480 80 494.55 90 Q 523.64 110 552.73 90 Q 567.27 80 581.82 80 Q 596.36 80 610.91 90 Q 640 110 669.09 90 Q 683.64 80 698.18 80 Q 712.73 80 727.27 90 Q 756.36 110 785.45 90 Q 800 80 814.55 80 Q 829.09 80 843.64 90 Q 872.73 110 901.82 90 Q 916.36 80 930.91 80 Q 945.45 80 960 90 Q 989.09 110 1018.18 90 Q 1032.73 80 1047.27 80 Q 1061.82 80 1076.36 90 Q 1105.45 110 1134.55 90 Q 1149.09 80 1163.64 80 Q 1178.18 80 1192.73 90 Q 1221.82 110 1250.91 90 Q 1265.45 80 1280 80 L 1280 0 L 0 0 Z" fill="url(#wave-1736247682723)"></path>
</svg>