<?xml version="1.0" encoding="UTF-8"?>
<svg id="_レイヤー_2" data-name="レイヤー 2" xmlns="http://www.w3.org/2000/svg" xmlns:xlink="http://www.w3.org/1999/xlink" viewBox="0 0 441.41 441.41">
  <defs>
    <style>
      .cls-1 {
        fill: none;
        stroke: #000;
        stroke-miterlimit: 10;
        stroke-width: 3px;
      }

      .cls-2 {
        clip-path: url(#clippath);
      }

      .cls-3, .cls-4 {
        fill: #fff;
      }

      .cls-5 {
        fill: #f2e4d7;
      }

      .cls-5, .cls-6, .cls-7, .cls-4 {
        stroke-width: 0px;
      }

      .cls-6 {
        fill: #232323;
      }

      .cls-7 {
        fill: #d4e2cf;
      }
    </style>
    <clipPath id="clippath">
      <circle class="cls-4" cx="220.98" cy="221.95" r="219.2"/>
    </clipPath>
  </defs>
  <g id="_レイヤー_2-2" data-name="レイヤー 2">
    <g>
      <circle class="cls-3" cx="220.98" cy="221.95" r="219.2"/>
      <g class="cls-2">
        <g>
          <path class="cls-4" d="m290.47,485.97c3.79-22.77,2.26-65.41,2.26-86.62l-6.05-23.2-63.86,6.49-67.35,2-2.25,14.72c0,21.2-1.53,63.85,2.26,86.62.44,2.62-6.03,107.04-1.02,175.56.15,2.02,15.81,9.77,15.97,11.72,0,0,4.99,2.25,13.47,2.25s21.95-5.74,21.95-5.74c.09-2.62,11.37-7.87,11.48-11.23,1.88-59,2-230.99,2-230.99h7.3s.12,172,2,230.99c.11,3.35,11.38,8.61,11.47,11.23,0,0,15.15,5.24,24.13,5.74,8.98.5,11.29-2.25,11.29-2.25.15-1.95,15.82-9.71,15.97-11.72,4.42-60.33-2.73-165.3-1.02-175.56Z"/>
          <path class="cls-4" d="m147.51,184.3c-7.73,5.89-13.67,10.99-14.84,13.36-.32.66-.58,1.34-.79,2.03-1.97,3.59-3.12,7.52-3.89,11.6-.14-.13-.29-.26-.44-.37,0,.03-37.19,32.61-37.19,32.65-.67,5.04-8.56,57.82-3.74,73.71,7.48,24.7,32.93.37,32.93.37,4.1-7.11,24.7-49.02,24.7-49.02l.3,16.17c7.66-32.74,7.07-66.82,2.96-100.51Z"/>
          <path class="cls-4" d="m319.84,211.02c-.07-.54,1.77-16.09-17.68-23.57-5.5,32.31-6.56,62.89-.32,94.6l1.79.82,19.86,56.13c-.03.11-17.21,11.6-17.21,11.6,4.86,1.12,10.35,5.49,11.85,12.97,1.09,5.43,2.37,14.72,1.5,16.96,0,0,42.78-10.48,43.16-26.57.81-34.95-42.26-137.89-42.93-142.94Z"/>
          <path class="cls-7" d="m302.67,185.18c-.17-.12-18.34-11.96-33.68-23.56l-11.34-6.75-6.38-3.73s-2.99,13.97-6.98,26.94c-1.41,4.59-19.07,41.53-19.07,41.53,0,0-17.32-34.11-19.09-38.79-3.7-9.75-7.12-30.81-7.12-30.81l-6.34,4.49c-2.61.11-28.18,16.86-45.15,29.79,4.12,33.69,4.7,67.76-2.96,100.51l1.7,90.48,6.97,24.07s15.38,4.85,21.33,5.49c13.84,1.5,30.57,5.99,43.41,5.24l6.36-15.22,9.35,16.71c12.84.76,29.1-3.34,38.91-6.36,5.72-1.76,21.14-5.86,21.14-5.86l5.84-20,1.6-44.48.67-52.83c-6.24-31.71-4.67-64.55.83-96.86Z"/>
          <path class="cls-5" d="m301.65,360.69c-12.22,3.13-73.06,20.93-95.29,22.95-7.61.69-22.2-.29-35.02-1.39.49-.43-18.96-2.9-19.72-1.81-2.6-.23-4.29-.36-4.64-.3l-1,8.48c-1.61,5.97-.26,10.87-1,11.47-1.7,1.4-5.51,1.54-6.98,2.74-1.29,1.05-.26,5.29-1.27,6.28-2.16,2.11-3.56,4.17-3.72,6.57-.25,3.87-2.16,6.54-2.74,12.85-2.05-1.29-2.74,2.93-2.74,1.5-2.73,3.78-.59,14.9-1.62,19.52-.23,1.05,2.16,6.24,6.97,7.61.35.3.72.61,1.13.93,6.98,5.49,13.97,12.47,20.95,10.48,2.54-.73,15.96-4.92,15.97-7.98,0-6.33-2.44-31.59-2.49-37.89-.06-6.57-.55-10.94-.25-17.49.1-2.26-.01-6.9.24-11.47,13.87,1.26,31.71,2.65,40.42,1.86,22.23-2.02,81.07-18.32,93.3-21.45l-.5-13.47Z"/>
          <path class="cls-4" d="m291.92,399.45c.81-3.77,2.02-10.71,5.49-12.72,1,6.24,2.24,14.8,1.87,16.71-1.31,6.75-5.69,20.06-5.73,27.06-.01,1.97,1.87,7.86,5.07,3.18.68-.99,1.72-3.08,2.29-4.05,2.46-4.2,3.49-10.57,7.84-20.96,1.22-2.91,1.77-3.93,1.89-7.01.29-7.42.97-10.31,1.75-16.93.75-6.36,5.74-2.71,7.24-4.21,0,0,.26-9.92-1.5-16.96-1.76-7.04-12.85-14.75-12.85-14.75-.64.03-4.58,7.88-5.36,8.23-5.51,2.46-10.05,9.68-10.73,11.72-.5,1.5-1.09,13.32-1.79,16.75-.89,4.36-3.31,13.55-3.49,17.97,0,0,6.53,2.95,8.03-4.04Z"/>
          <path class="cls-4" d="m223.82,147.41c8.61-.37,17.47,0,20.47-4.12l1.46,7.05,4.77,2.8-9.98,32.93-15.33,33.55-15.1-30.31-12.22-36.92,6.49-3.49,1.76-4.86c3.74,4.12,13.76,3.54,17.7,3.37Z"/>
          <polygon class="cls-5" points="260.76 49.17 49.35 232.9 49.35 245.37 92.26 245.37 303.67 61.65 303.67 49.17 260.76 49.17"/>
          <path class="cls-4" d="m123.79,157.38c-.98.78-1.76,3.03-2.42,4.9-2.22-.18-4.05-.02-4.82.59-.93.74-1.69,2.83-2.33,4.64-2.27-.17-4.14-.01-4.91.6-1.02.81-1.83,3.22-2.5,5.13-.96.14-1.88.48-2.73,1.16-1.53,1.21-4.3,1.98-5.12,4.44-.79,2.35-3.37,14.03-3.37,14.03l11.99-11.98c2.17,1.12,11.56,1.14,13.7-2.05.45-.66.6-1.21.57-1.69,2.66-.31,5.18-1.18,6.42-3.05.46-.69.3-1.38-.29-2.05,3.13-.13,6.19-.9,7.27-2.94.37-.7.21-1.39-.32-2.05,2.92,0,5.91-.75,7.56-3.19,2.75-4.07-15.77-8.81-18.71-6.49Z"/>
          <path class="cls-4" d="m253.15,96.84l.1-13.5s-3.78-12.82-7.21-16.76l-16.21,1c-6.42-.89-12.13,2.82-17.62-4.54l-5.1-.52c-5.69-2.78-11.53,8.5-12.95,19.03l-.75,4.99c-.26,2.97.27,10.83.27,10.83-8.06,2.75-3.81,17.59,1.32,21.51l3.13.83c.89,3.95,3.86,8.12,6.98,12.22,1.23,2.72.25,14.47.25,14.47,0,0,15.2,3.24,19.21,3.24,9.73,0,19.46-3.74,20.95-4.99l-.91-15.55c3.24-4.39,4.44-6.43,5.41-10.4l2.18-.34c5.06-4.01,9.05-18.92.94-21.54Z"/>
          <path class="cls-5" d="m261.85,69.25c.78-13.64-5.76-22.03-17.55-28.11-9.5-4.9-56.91.04-55.89,13.66.35,4.63-2.28,21.95-1.68,26.57.64,4.93,2.54,13.18,5.69,17.15l1.27-1.15-.34-14.03c1.42-10.53,8.08-23.6,13.77-20.82,0,0,38.85,6.73,40.18,7.8,1.25,1,5.89,6.87,5.74,11.23l-.07,16.46,2.76.23s3.73-13.25,4.28-18.2c.52-4.63,1.58-6.17,1.85-10.8Z"/>
          <path class="cls-4" d="m261.54,74.84c.19-1.25.3-2.73.3-4.52,0-22.18-14.91-42.41-38.2-42.41s-38.2,20.23-38.2,42.41c0,1.79.11,3.27.3,4.52-6.79.71-5.57,1.61-5.57,2.59,0,2.27,16.53,4.12,43.47,4.12s43.47-1.84,43.47-4.12c0-.98,1.23-1.88-5.57-2.59Z"/>
          <path class="cls-6" d="m237.64,94.18c1.43-.04,2.63,1.69,2.69,3.85.05,2.16-1.06,3.94-2.49,3.97-1.43.04-2.63-1.68-2.69-3.84-.05-2.16,1.06-3.94,2.49-3.98Zm-31.57,4.23c.06,2.16,1.26,3.88,2.69,3.84,1.43-.03,2.54-1.81,2.49-3.97-.05-2.16-1.26-3.88-2.69-3.85-1.43.04-2.55,1.82-2.49,3.98Zm16.2,19.57c.3,0,.61-.03.92-.1.92-.2,1.5-1.11,1.29-2.03-.2-.92-1.1-1.5-2.02-1.29-.07.02-.13.02-.17.02-.08-.22-.1-.77.14-1.31.31-.69.56-1.16.77-1.55.57-1.09.89-1.74,1.16-3.5.15-.93-.49-1.8-1.41-1.94-.92-.14-1.8.49-1.94,1.41-.2,1.29-.37,1.6-.81,2.45-.23.44-.51.96-.85,1.73-.65,1.43-.79,3.51.35,4.92.63.78,1.55,1.2,2.58,1.2Zm9.02,5.49c-.47.54-2.89,1.35-6.81,1.46-4.04.12-7.22-.61-7.97-1.38-.66-.67-1.73-.68-2.4-.02-.67.66-.68,1.73-.02,2.4,2.09,2.13,7.14,2.41,9.61,2.41.35,0,.66,0,.89-.01,2.15-.06,7.37-.44,9.27-2.62.62-.71.54-1.78-.16-2.4-.71-.62-1.78-.54-2.4.16Zm8.79,121.62l.76-11.33c.04-.62.33-1.19.81-1.59.48-.4,1.1-.58,1.71-.51,12.77,1.5,34.12,1.17,44.34-1.71.65-.18,1.35-.07,1.91.32s.91,1,.96,1.68c.3,3.84.32,8.04.06,12.49-.03.54-.26,1.06-.64,1.45-5.31,5.44-14.59,8.21-24.24,8.21-8.83,0-17.98-2.31-24.71-7.01-.65-.45-1.02-1.22-.96-2.01Zm4.61-1.01c12.18,7.67,32.68,7.31,41.47-.77.15-2.91.17-5.7.06-8.33-10.79,2.3-28.59,2.61-41.01,1.43l-.51,7.67Zm-9.93-126.26c-.91-.25-1.84.28-2.09,1.19-.25.9.28,1.84,1.19,2.09,1.25.34,3.84,2.54,4.01,3.4.15.82.86,1.4,1.67,1.4.1,0,.2,0,.3-.03.92-.17,1.54-1.05,1.37-1.97-.47-2.61-4.52-5.55-6.45-6.08Zm-10.59,46.1c.62,0,1.21-.01,1.75-.04l.76-.03c3.57-.11,10.99-.35,14.85-4.88.81-.95.7-2.38-.26-3.19-.95-.81-2.38-.7-3.19.26-2.56,3.01-8.63,3.2-11.55,3.29l-.81.03c-6.89.3-12.3-1.31-14.85-4.42-.8-.97-2.23-1.1-3.19-.31-.97.8-1.1,2.22-.31,3.19,4.23,5.14,11.75,6.1,16.8,6.1Zm120.3,210.78c-4.6,2.18-9.2,3.94-12.99,5.25-.13.05-.25.1-.39.13-4.84,1.66-8.29,2.55-8.54,2.62-.19.05-.38.07-.57.07-.42,0-.8-.14-1.15-.35-1.19.89-2.68.78-3.8.68-1.97-.16-2.17-.18-2.41,1.87-.23,1.93-.44,3.54-.65,5.04-.5,3.66-.89,6.55-1.09,11.72-.13,3.22-.7,4.58-1.75,7.07l-.31.73c-2.07,4.96-3.4,9.05-4.47,12.33-1.18,3.65-2.12,6.53-3.5,8.9-.19.33-.44.79-.71,1.3-.54,1.01-1.16,2.15-1.66,2.88-1.51,2.21-3.04,2.75-4.18,2.75-.39,0-.72-.06-1-.15-.01,17.68-.5,36.18-2.6,48.78-.58,3.48-.02,20.09.68,41.12,1.27,38.05,3.19,95.56.36,134.23-.14,1.96-1.98,3.3-9.16,7.72-2.31,1.42-5.69,3.51-6.78,4.5,0,2.15-.33,8.22-1.48,27.83-.93,15.82-2.2,37.31-2.05,40.43,2.53,5.13,6.74,10.87,10.82,16.43,3.11,4.24,6.05,8.25,8.06,11.75,2.69,4.7,3.28,8.76,1.73,12.07-2.7,5.8-10.77,7.26-16.11,8.22-.84.15-1.59.29-2.21.42-2.17.48-5.7.89-9.68.89-6.5,0-14.18-1.1-19.03-4.8-3.16-2.41-4.86-5.61-5.05-9.51-.22-4.37-1.23-9.23-2.31-14.37-1.94-9.26-3.94-18.83-1.4-26.71.13-1.88-.25-14.11-.62-25.94-.92-29.61-1.04-37.87-.72-40.61-.64-.8-2.74-2.32-4.18-3.36-3.82-2.76-7.12-5.15-7.21-8.04-1.74-54.69-1.97-208.27-1.99-228.8h-2.77c-.02,20.53-.25,174.11-1.99,228.8-.09,2.89-3.39,5.28-7.21,8.04-1.44,1.04-3.53,2.56-4.18,3.36.31,2.73.19,11-.72,40.6-.37,11.84-.75,24.08-.62,25.96,2.54,7.88.54,17.45-1.4,26.71-1.08,5.14-2.09,10-2.31,14.37-.19,3.9-1.89,7.11-5.05,9.51-4.85,3.7-12.53,4.8-19.03,4.8-3.97,0-7.51-.41-9.68-.89-.62-.14-1.37-.27-2.21-.42-5.34-.96-13.41-2.42-16.11-8.22-1.54-3.31-.96-7.37,1.73-12.07,2-3.49,4.94-7.5,8.06-11.75,4.07-5.56,8.29-11.3,10.82-16.43.15-3.12-1.12-24.63-2.05-40.46-1.15-19.59-1.48-25.65-1.48-27.8-1.09-.99-4.47-3.07-6.78-4.5-7.18-4.42-9.01-5.76-9.16-7.72-3.98-54.37-.8-129.91.55-162.17.29-6.89.52-12.35.48-13.26-.69-4.16-1.24-9.24-1.65-15.11-5.6-.4-10.88-4.7-16.01-8.89-.65-.53-1.3-1.06-1.95-1.58-.4-.32-.65-.74-.77-1.2-1.36-.31-2.5-.85-3.4-1.43-3.79-2.41-5.78-6.71-5.82-8.44-.02-.76-.06-1.64-.1-2.61-.33-7.62-.42-14.75,2.15-18.29.55-.76,1.51-1.08,2.41-.85.39-1.84,1.02-3.5,2.1-4.75-.13-.33-.2-.7-.15-1.08l.09-.85c.2-1.8.41-3.69.63-5.73.26-2.39,1.37-4.6,3.5-6.94.09-.1.2-.19.31-.28-.17-1.78.02-3.41.91-4.84,1.14-1.83,3.22-3.01,6.53-3.69.38-.08.77-.16,1.18-.23.06-1.22.08-2.84.1-4.53.07-5.7.15-12.17,1.59-15.66.11-.27.22-.52.38-.73-.08-.22-.14-.46-.15-.71-.02-.75-2.45-75.01-2.45-89.71,0-3.04-.03-6.08-.09-9.22-1.04,2.15-2.1,4.39-3.18,6.68-8.86,18.73-18.91,39.96-33.21,44.12-1.66.48-3.34.73-5.04.73-3.86,0-7.79-1.25-11.75-3.74-9.87-6.21-5.68-47.93-1.6-79.05h-38.45c-1.25,0-2.27-1.01-2.27-2.27v-12.47c0-.18.03-.35.07-.52,0-.04.02-.07.03-.11.05-.17.12-.33.21-.49.02-.03.03-.06.05-.09.11-.17.24-.32.39-.46.01-.01.02-.03.03-.04l46.8-40.67c-.02-.2-.03-.41,0-.61,1.54-9.96,2-11.33,2.16-11.78.86-2.55,3-3.78,4.57-4.68.5-.29.98-.56,1.29-.81.78-.62,1.59-1.04,2.42-1.31.85-2.38,1.63-4.04,2.82-4.99.96-.76,2.67-1.09,4.73-1.11.71-1.87,1.45-3.29,2.5-4.13.99-.78,2.67-1.12,4.65-1.13.75-1.99,1.5-3.49,2.58-4.36,2.16-1.71,7.6-1.21,12.53.17.13-.27.31-.51.55-.72l51.76-44.98c.09-.08.19-.15.3-.21-.58-2.5-.77-5.03-.41-7.23.35-2.16,1.22-3.95,2.5-5.28-1.87-4.57-3.74-10.39-4.83-15-.06-.24-.06-.48-.04-.72-6.82-1.38-6.82-3.11-6.82-4.21-.08-.43-.27-1.55.52-2.59.75-.99,2.06-1.55,4.82-1.97-.05-.8-.08-1.64-.08-2.55,0-11.69,3.87-22.69,10.9-30.99,7.48-8.83,17.98-13.69,29.56-13.69s22.07,4.86,29.56,13.69c2.2,2.59,4.09,5.45,5.64,8.5l.44-.38c.41-.36.94-.56,1.49-.56h42.91c.21,0,.42.04.61.09.04.01.09.03.13.04.19.07.37.15.54.26.01,0,.02.02.03.03.15.11.29.24.41.39.03.03.06.06.08.1.12.16.22.34.3.53,0,0,.01.02.02.03,0,.02,0,.04.01.07.06.17.09.35.11.53,0,.04.01.08.01.13,0,.02,0,.05,0,.07v12.47c0,.66-.28,1.28-.78,1.71l-44,38.24c-.1.09-.22.17-.33.24,1.06,6.06-1.89,14.65-6.21,18.07-.42.33-.91.49-1.41.49-.63,0-1.24-.27-1.68-.77-1.15,2.86-2.79,6.09-4.73,9.24.28.36.45.81.47,1.3l.7,18.74c.06.02.13.04.19.06.2-.38.5-.71.9-.92.73-.4,1.62-.37,2.32.08l52.01,33.55c.69.45,1.09,1.23,1.03,2.05-.04.6-.1,1.22-.15,1.84.12.06.24.13.35.21,3.26,2.44,5.67,4.28,7.36,5.64,7.87,6.33,9.07,11.51,10.11,19.3.21,1.29,3.47,10.39,7.25,20.94,11.74,32.77,33.59,93.77,36.44,119.43.95,8.51-6.22,16.46-21.3,23.62Zm-117.61-153.52c-.42.43-1.04.7-1.65.7-.22,0-.44-.04-.64-.1-.2.06-.42.1-.64.1-1.56,0-1.72,0-5.83-8.5-1.5-3.11-4.53-9.54-7.94-17.6-4.89-11.56-10.86-27.24-12.79-38.77l-45.79,39.79v.16c.7,8.1,1.41,16.48,1.41,24.52.02,16.57.05,44.32-4.56,61.22-.18.67-.66,1.16-1.24,1.43.01,1.33.02,2.65.02,3.98,0,14.4,2.35,86.51,2.45,89.48,3.27.03,8.99.52,19.26,1.68.53.06.87.1.97.11.04,0,.08.02.12.02.46.06.88.26,1.2.56,17.47,1.5,28.93,1.96,34.96,1.42,17.7-1.61,60.09-13.31,82.86-19.6.59-.16,1.19-.07,1.69.2,1.95-2.48,4.51-5.03,7.39-6.56,0-.1-.02-.19-.02-.29.77-24.84,1.68-56.35,1.68-65.42,0-2.98.04-5.84.12-8.62-.14-.21-.24-.45-.3-.71-3.53-15.18-3.47-38.23-3.43-55.06v-3.83c.02-7,1.07-15.15,2.09-23.03.63-4.89,1.23-9.53,1.57-13.71l-47.61-30.71c-2.39,21.76-23.26,65.06-25.33,67.15Zm94.18,118.11c-2.42-4.47-6.48-16.82-11.83-33.44-1.68-5.23-3.49-10.84-4.93-15.07-.06,9.31-.78,34.83-1.46,57.35.83-1.18,1.41-1.56,2.35-1.59.49-.03.98.12,1.39.4.13.09.39.28.72.52l13.76-8.17Zm-35.34,41.56c-18.33,4.83-41.24,10.68-58.78,14.17l6.35,13.23c12.43.38,32.69-3.54,42.43-6.53,1.56-.48,3.69-1.07,6.32-1.77.51-3.26,1.42-7.24,2.2-10.64.38-1.64.72-3.11.95-4.26.18-.87.36-2.42.53-4.2Zm-69.27,27.03l4.93-11.8c-4.72.85-8.91,1.48-12.3,1.79-1.83.17-4.04.24-6.52.24-9.17,0-22-1-32.87-1.97.08.68.15,1.31.21,1.84.16,1.41.32,2.72.42,3.9,9.34,2.75,33.23,6.42,46.12,6.01Zm-51.93,72.2s-.07,0-.1,0c-.55,0-1.13.01-1.71.01-1.89,0-3.85-.07-5.49-.46-.11-.02-.2-.07-.3-.1.25,2.2.53,4.23.83,6.06.12.72.05,2.79-.43,14.12-.34,8-.79,18.68-1.21,31.03.63.08,1.26.18,1.88.28,1.68.28,3.29.55,4.71.38.08-1.2.17-2.6.27-4.16.78-12.06,2.23-34.5,1.87-42.23-.08-1.79-.19-3.42-.31-4.94Zm-30.88-54.02c.5.08.98.31,1.34.72.9,1.01,2.57.95,3.04.7.14-.26.32-.48.53-.67-.44-.42-1.07-.74-1.99-1.04-1.18-.38-2.05-.4-2.57-.05-.13.08-.24.2-.35.33Zm-1.56,6.33c.66.44,1.44.86,2.37,1.2.75.28,2.91.93,4.66.35-.09-.29-.13-.61-.09-.94l.08-.61c.02-.18.04-.35.06-.52-.28.08-.56.16-.86.21-.39.06-.79.1-1.19.1-1.77,0-3.52-.63-4.83-1.73-.09.71-.15,1.38-.2,1.94Zm6.9,26.79c5.38,4.39,10.47,8.37,15.09,7.28-.15-.2-.28-.43-.36-.68-1.08-3.33-.97-7.38-.87-11.31.05-1.8.09-3.5.01-4.98-.48-8.93-.73-16.82-.75-24.09-4.86-.6-10.14-4.34-15.95-8.78-.39-.3-.65-.7-.79-1.14-.03.15-.06.31-.07.46-.19,1.78-.37,3.44-.55,5.03.99-.03,2.06.13,3.21.5,6.8,2.19,6.16,7.35,5.64,11.49l-.02.18c.06.06.13.11.18.18.61.72.69,1.72.27,2.51-.28,1.28-.64,6.45-.91,10.27-.77,11.08-.82,11.75-2.43,12.46-.59.26-1.15.46-1.71.63Zm26.08-75.77c-10.58-1.14-14.71-1.32-16.31-1.29-.52,2.07-.72,5.24-.81,8.36.32-.3.73-.52,1.19-.6.79-.13,2.56.02,11.21.83,1.36.13,2.81.27,4.33.41-.2-3.14-.14-5.74.39-7.71Zm-17.3,15.8c2.02.29,3.91,1.36,5.14,4.03.99-.24,1.86-.38,2.44-.42,2.98-.18,6.04-.07,8.18,1.9,1.12,1.04,1.84,2.45,2.32,4.28,0-1.23.03-2.51.1-3.89.06-1.32-.24-3.89-.55-6.62-.11-.96-.21-1.88-.31-2.78-1.82-.17-3.56-.33-5.16-.48-4.79-.45-9.29-.88-10.16-.86-.72.08-1.41-.19-1.89-.68,0,.45-.01.89-.02,1.31-.02,1.6-.04,3.02-.09,4.22Zm6.32,21.71c1.68-.21,5.34-2.19,8.09-4.24-.04-1.39-.12-2.74-.25-3.95-1.48.96-4.12,2.3-7.34,2.3-1.12,0-2.3-.16-3.53-.55-1.19-.38-1.85-1.65-1.47-2.85.38-1.19,1.65-1.85,2.85-1.47,4.15,1.32,7.65-1.66,7.8-1.79.1-.09.21-.16.32-.22-.03-.03-.06-.07-.08-.09-.71-.66-2.16-.87-4.84-.71-2.03.12-5.61,1.5-6.19,2.38-.48,1.03-.06,5.78.12,7.81.09.97.16,1.84.2,2.54,1.6.67,3.06,1.01,4.33.85Zm2.7,13.84c.27-.02.54,0,.81.07,2.67.74,6.13.27,7.44-2.52.32-.68.93-1.12,1.62-1.26-.26-3.63-.44-6.63-.46-8.34-.01-1.19-.04-2.3-.07-3.37-.16.18-.36.32-.57.44-2.51,1.97-6.05,4.15-8.92,5.14,0,3.15.05,6.42.15,9.84Zm-12.02-24.34c-.83.19-1.68.31-2.5.31-.96,0-1.88-.15-2.71-.43.16.71.36,1.45.55,2.2.12.47.08.94-.08,1.36,1.7,1.29,3.37,2.51,4.97,3.56-.24-2.79-.39-5.15-.23-7Zm18.15,57.93c-2.21.84-4.55,1.59-6.8,2.24.12,1.72.25,3.36.39,4.93.5-.32,1.12-.45,1.75-.31,1.53.36,3.86.35,5.81.33-.34-2.79-.74-5.11-1.15-7.19Zm5.78-8.08c-.03-3.39-.67-11.47-1.28-19.3-.11-1.35-.21-2.68-.31-3.98-1.85,1.72-4.38,2.69-7.17,2.69-.98,0-1.98-.12-3-.36.12,3.16.27,6.46.45,9.91.09,1.66.04,3.45,0,5.35-.09,3.54-.19,7.21.65,9.79.09.28.12.56.1.83,4.85-1.65,9.58-3.73,10.57-4.93Zm118.84-93.39c-23.42,6.46-63.54,17.42-80.95,19-1.78.16-3.96.24-6.55.24-6.94,0-16.92-.58-30.57-1.78-.47,1.32-.42,4.24-.2,7.19,13.77,1.24,30.99,2.57,39.41,1.81,18.05-1.64,61.92-13.19,77.46-17.3,0-.04,0-.08,0-.11.42-5.01.6-6.99.9-7.9.1-.31.27-.7.49-1.15Zm-86.09-213.4c.01.06.03.12.04.19,2.04,18.23,18.51,53.62,23.11,62.52,2.2-4.23,7.11-14.47,11.92-26.24,6.5-15.9,10.32-28.33,11.19-36.38-.95-.34-1.9-.68-2.86-.98-1.19-.37-1.86-1.65-1.48-2.84.03-.1.08-.18.12-.27l-.08-2.19c-3.83,2.7-9.49,3.55-16.56,3.86-.29.01-.64.02-1.03.02-3.95,0-12.74-.7-18.06-3.3l-.1,2.55c-.05,1.22-1.05,2.17-2.26,2.17-.03,0-.06,0-.09,0-.72-.03-1.33-.39-1.73-.93l-2.09,1.82Zm41.46-18.98c-2.73,3.51-5.73,6.49-8.65,8.1-.05.03-.1.05-.15.08-.56.26-5.62,2.51-9.39,2.54-.04,0-.08,0-.11,0-4.42,0-9.67-2.28-9.9-2.38-2.18-1.07-4.42-2.75-6.58-4.8l-.21,5.11c.4,0,.8.09,1.16.3,4.46,2.6,14.21,3.31,17.55,3.16,7.71-.34,13.36-1.26,15.85-4.68.19-.26.42-.47.68-.62l-.25-6.82Zm5.72-20.53c1.44-6.53,3.39-19.6,2.88-28.82-.06-1.07.63-1.99,1.61-2.29-3.06.26-6.69.48-11.01.64.29.14.53.27.72.38.8.49,1.05,1.54.56,2.34-.32.52-.88.81-1.45.81-.3,0-.61-.08-.89-.25-.76-.47-3.93-1.7-5.47-.39-.71.61-1.79.52-2.4-.19-.61-.71-.52-1.79.19-2.4.03-.03.07-.05.1-.07-3.02.05-6.29.07-9.83.07-4.24,0-8.09-.04-11.58-.11.14.09.28.18.41.29.73.6.83,1.67.24,2.39-.6.73-1.67.83-2.39.24-1.55-1.27-4.75,0-5.47.47-.28.18-.6.27-.91.27-.56,0-1.11-.28-1.43-.78-.51-.79-.27-1.84.52-2.35.29-.19.83-.47,1.53-.74-4.11-.16-7.6-.37-10.54-.63,1.03.29,1.74,1.27,1.64,2.38-.58,6.61,1.42,18.18,2.62,25.09.31,1.8.57,3.29.71,4.3.99,6.89,10.25,20.53,17.6,24.12h0s4.55,1.96,7.99,1.96c.03,0,.05,0,.08,0,2.33-.02,6.11-1.49,7.48-2.1,6.39-3.59,14.82-17.09,16.48-24.62Zm-24.98-34.71c20.51,0,32.85-1.07,38.4-2.1-.23-.03-.48-.05-.74-.08-.62-.06-1.18-.38-1.56-.87-.3-.39-.45-.85-.47-1.33-14.97-4.66-55.72-5.07-71.34-.73.02.11.03.23.04.34.09.61-.07,1.24-.45,1.73-.38.49-.94.8-1.56.87-.26.03-.51.05-.74.08,5.56,1.03,17.89,2.1,38.4,2.1Zm-35.88-11.31c-.02.51-.03,1.04-.03,1.56,16.8-4.2,55.57-3.81,71.84.73,0-.51-.02-1.01-.03-1.52-14.81-4.76-56.2-5.18-71.78-.76Zm68.35,20.86c.51-2.21.95-4.44,1.27-6.39-1.03.12-2.15.24-3.37.35,1.08.12,1.96.99,2.02,2.12.07,1.25.09,2.56.08,3.92Zm5.86-6.42l.98-.85c-.28.06-.58.12-.89.18-.03.22-.06.44-.1.68Zm-67.54,32.42c-.15-.95-.36-2.21-.63-3.72-.47-2.72-1.06-6.14-1.58-9.73-.28.51-.51,1.15-.65,1.99-.59,3.59.9,8.42,2.85,11.46Zm61.92-12.28c-.16-.88-.42-1.53-.73-2.05-.09,0-.19-.01-.28-.03-.63,5.66-1.54,10.98-2.31,14.48,0,.03-.02.07-.03.1,2.23-2.91,4.07-8.51,3.34-12.51Zm45.05-41.94v-6.47l-40.14,34.89c-.19.17-.41.29-.63.38-.61,2.69-1.31,5.35-2.02,7.51.15.17.28.35.41.53l42.38-36.83Zm-40.64-8.44c2.18,5.63,3.34,11.79,3.34,18.15,0,.91-.03,1.75-.08,2.55,2.76.42,4.07.98,4.82,1.97.29.38.45.77.53,1.13l28.23-24.53h-36l-.85.73Zm-28.14-20.74c1.23,5.98,3.72,20.14,1.92,29.28,9.71.51,18.61,1.58,24.63,3.2-2.24-17.83-13.76-28.93-26.54-32.48Zm-8.99-1.25c-1.08,0-2.16.05-3.24.16-.77,3.47-4.23,20.05-2.33,29.56.03.16.04.33.04.49,3.97-.05,8,0,11.95.13-.02-.2-.01-.41.03-.62,1.88-9.42-1.49-25.75-2.3-29.45-1.38-.17-2.77-.27-4.14-.27Zm-35.44,33c6.3-1.51,15.47-2.4,25.37-2.7-1.74-9.28.81-23.53,2.01-29.3-12.97,3.22-24.86,14.18-27.38,32Zm1.25,19.21c.44,1.74.97,3.61,1.57,5.5,0-1.08.03-2.1.12-3.04.1-1.11.99-1.95,2.05-2.05-1.36-.13-2.61-.26-3.74-.4Zm-64.94,78.02c4.46.79,9.13,2.5,11.23,4.25.06.05.11.1.17.15.1-.02.2-.05.3-.06,1.87-.18,3.25-.77,4.12-1.75-2.05-2.09-12.7-4.84-15.15-3.8-.11.13-.33.45-.66,1.21Zm-7.11,5.21c4.44.71,9.1,2.3,11.41,4.12,0,0,0,0,0,0,2.36-.21,3.69-.82,4.24-1.4-.46-.46-1.79-1.38-4.65-2.31-4.96-1.62-9.63-1.78-10.52-1.32-.03.04-.2.26-.5.92Zm-6.69,4.3c-.12.13-.33.45-.64,1.15.83.12,1.63.29,2.38.44.71.15,1.42.3,2.13.4.24.04.54.07.89.11,2.43.28,5.92.68,7.66,2.62,1.06-.25,2.19-.66,2.91-1.37-2.24-2.01-12.95-4.43-15.34-3.34Zm-10.82,16.06l5.48-4.76c-.07-.45,0-.93.22-1.37.57-1.11,1.94-1.55,3.05-.97,1.58.78,9.53.56,10.78-1.3.03-.04.05-.08.07-.11-.66-.36-2.18-.67-4.52-.94-.41-.05-.77-.09-1.05-.13-.79-.12-1.59-.28-2.39-.45-2.82-.59-4.62-.89-6.03.23-.58.46-1.23.83-1.86,1.19-1.34.77-2.23,1.33-2.52,2.19-.09.27-.41,1.48-1.23,6.42Zm-44.47,44.65h36l112.2-97.51c-3.14-3.93-5.81-8.35-7.46-12.31-.35.21-.75.33-1.16.33-.48,0-.96-.15-1.37-.47-1.8-1.37-3.37-3.62-4.55-6.21l-49.46,42.98c1.61.72,2.96,1.5,3.8,2.27,2.1,1.95,1.88,4.07.97,5.42-1.43,2.12-3.75,3.47-6.74,3.97-.1.48-.26.85-.37,1.06-1.08,2.04-3.28,3.34-6.56,3.89-.11.48-.29.92-.55,1.3-1.27,1.91-3.45,3.18-6.46,3.79-.14.31-.31.63-.53.96-2.28,3.39-9.32,4.12-13.71,3.55l-54.06,46.98Zm-3.8,12.47h39.79l111.84-97.19.27-6.7-109.78,95.4c-.41.36-.94.56-1.49.56h-40.64v7.94Zm92.41,23.16c.58-1.01,1.81-1.39,2.85-.94,1.61-14.87,1.59-32.15,1.58-43.82,0-6.83-.54-13.98-1.12-21l-21.45,18.64s0,0,0,0c.47,11.73-1.46,51.92-2.38,71.24l-.19,4.06c-.06,1.21-1.06,2.16-2.26,2.16-.04,0-.07,0-.11,0-1.25-.06-2.22-1.12-2.16-2.37l.19-4.06c.84-17.56,2.51-52.4,2.45-67.15l-27.69,24.06c-.38.33-.87.52-1.37.54,0,.01,0,.03,0,.04-8.5,64.73-2.57,73.91-.55,75.18,4.62,2.91,8.91,3.73,13.11,2.5,12.34-3.6,21.92-23.84,30.38-41.71,3.03-6.4,5.89-12.45,8.72-17.38Zm-4.53,139.32c.39,0,.79.09,1.15.3,1.15.68,4.45.28,6.04-1.45.26-.29.59-.48.93-.6-.84-.3-2.21-.2-4.69.31-1.73.36-2.9.85-3.44,1.44Zm-7.13,48.93c1.64.87,3.44.96,5.48.28.24-1.82.52-5.89.74-9.01.22-3.13.39-5.45.54-7.18-2.07.33-4.43,0-6.86-1-1.43-.59-2.86-1.43-4.05-2.43-.48,3.61-.27,8.54-.13,11.63.04.96.08,1.84.1,2.6.17.74,1.59,3.72,4.19,5.1Zm70.59,255.95c.4-13.09.93-30.15.88-37.1-3.24,1.39-8.9,3.18-17.29,3.65-6.89.38-11.16,0-13.78-.55.22,4.92.82,15.08,1.4,24.98,2.42,41.03,2.24,41.39,1.77,42.38-2.69,5.59-7.12,11.62-11.4,17.46-3.03,4.14-5.9,8.05-7.78,11.32-1.92,3.34-2.44,6-1.56,7.9,1.71,3.67,8.65,4.92,12.8,5.67.91.16,1.72.31,2.39.46,5.47,1.22,18.85,1.58,24.98-3.08,2.08-1.58,3.15-3.59,3.27-6.13.23-4.72,1.34-9.98,2.4-15.07,1.83-8.75,3.72-17.79,1.47-24.55-.3-.91-.3-3.19.45-27.33Zm67.07,33.36c-.47-.98-.65-1.35,1.77-42.35.58-9.91,1.18-20.08,1.4-25.01-2.62.55-6.88.94-13.78.55-8.39-.47-14.05-2.26-17.29-3.65-.06,6.95.47,24.02.88,37.11.75,24.13.75,26.41.45,27.32-2.25,6.75-.36,15.8,1.47,24.55,1.06,5.09,2.17,10.35,2.4,15.07.13,2.54,1.2,4.55,3.27,6.13,6.12,4.67,19.5,4.3,24.98,3.08.67-.15,1.48-.3,2.39-.46,4.15-.75,11.1-2,12.8-5.67.88-1.9.36-4.56-1.56-7.9-1.88-3.27-4.74-7.18-7.78-11.32-4.28-5.84-8.71-11.87-11.4-17.46Zm19.09-208.36c-.08.01-.16.03-.25.04-1.42.24-2.95.49-4.5.49-1.31,0-2.64-.18-3.95-.7-.81-.33-1.37-1.09-1.42-1.97-.09-1.46-.22-3.42-.37-5.72-.84-13.01-2.25-34.8-1.88-42.79.45-9.6,1.47-15,2.67-20.58.22-1,1.08-1.74,2.11-1.79,3.14-.15,5.76-.5,8.83-.99.62-15.48.41-32.94.24-47.1-.04-3.11-.07-6.11-.1-8.91-.1.06-.2.12-.3.17-3.25,1.64-6.84.11-7.24-.07-.43-.19-.77-.51-1-.89-2.01.54-3.67,1.01-4.93,1.4-9.58,2.95-29.1,6.75-42.13,6.75-1.13,0-2.2-.03-3.22-.09-.82-.05-1.55-.54-1.91-1.28l-5.3-11.04-4.41,10.56c-.33.8-1.09,1.34-1.96,1.39-12.6.74-36.69-2.8-47.68-5.74-.11,3.44,0,6.33.12,9.38.08,2.08.16,4.23.18,6.7.03,2.96.62,10.58,1.2,17.95.64,8.16,1.3,16.6,1.3,19.96,0,2.17-2.52,4.18-6.05,5.93.9,4.42,1.79,9.69,2.18,18.28.37,7.98-1.04,29.74-1.88,42.73-.15,2.33-.28,4.31-.37,5.78-.05.88-.61,1.64-1.42,1.97-1.31.52-2.64.7-3.95.7-1.55,0-3.08-.25-4.5-.49-.44-.07-.87-.14-1.28-.21-1.2,36.8-2.05,86.6.76,125.55,1.03,1,4.62,3.21,7.05,4.71,5.12,3.15,7.45,4.69,8.39,6.04,1.05.41,4.69,1.42,14.15.9,10.31-.57,15.99-3.28,17.7-4.24.84-1.71,2.98-3.27,5.74-5.27,1.74-1.26,4.95-3.58,5.34-4.59,1.85-58.37,1.99-229.12,1.99-230.84,0-1.25,1.01-2.26,2.27-2.26h7.3c1.25,0,2.26,1.01,2.27,2.26,0,1.72.14,172.47,1.99,230.84.39,1.02,3.6,3.34,5.34,4.59,2.76,2,4.9,3.56,5.74,5.27,1.7.95,7.38,3.67,17.7,4.24,9.46.53,13.1-.49,14.15-.9.95-1.35,3.28-2.89,8.39-6.04,2.44-1.5,6.03-3.71,7.06-4.71,2.57-35.86,1.09-87.88-.15-125.38Zm7.54-138.06l-.75,2.58c-.15.51-.48.92-.9,1.21.01,2.97.05,6.32.09,9.87.8-3.06,1.55-5.94,1.96-8.06.04-.21.12-1.28-.39-5.6Zm-6.51,68.67c-2.27.35-4.36.62-6.65.79-.55,2.66-1.05,5.39-1.45,8.69,1.95.02,4.28.03,5.81-.33.58-.13,1.15-.03,1.63.24.27-2.98.49-6.12.66-9.39Zm-6.98,61.23c.1,1.53.19,2.91.26,4.1,1.41.17,3.02-.1,4.7-.38.28-.05.56-.09.84-.13-.04-1.11-.07-2.2-.11-3.28-.77-22.94-1.27-38.09-.62-42.02.31-1.87.59-3.89.83-6.02-.06.02-.11.05-.17.06-1.64.39-3.6.46-5.49.46-.58,0-1.15,0-1.71-.01-.04,0-.07,0-.1,0-.12,1.52-.23,3.15-.31,4.94-.36,7.74,1.1,30.22,1.88,42.29Zm34.2-148.71c-.02-3.14-.22-9.61-1.44-14.49-1.06-4.25-6.67-9.38-10.18-12.12-.4.67-.84,1.44-1.2,2.05-2.22,3.85-2.74,4.64-3.72,5.07-4.9,2.18-9.01,8.89-9.5,10.37-.17.65-.47,4.22-.69,6.84-.32,3.81-.65,7.76-1.03,9.65-.24,1.17-.59,2.69-.97,4.36-.78,3.42-1.79,7.83-2.24,11.03.03.15.04.3.03.45.59.06,1.23.02,1.75-.24.73-.37,1.24-1.25,1.53-2.59l.18-.86c.92-4.37,2.3-10.98,6.39-13.35.35-.2.74-.31,1.14-.31.33,0,.66.07.97.22.67.32,1.15.95,1.27,1.69,2.37,14.83,2,16.77,1.86,17.5-.45,2.34-1.26,5.42-2.11,8.67-1.67,6.38-3.56,13.6-3.58,17.97,0,.6.3,1.66.62,2.3.09-.11.19-.25.31-.41.37-.54.95-1.61,1.41-2.48.3-.56.58-1.07.79-1.44,1.14-1.95,2.01-4.62,3.11-8.01,1.09-3.36,2.45-7.55,4.6-12.68l.31-.75c.98-2.31,1.31-3.09,1.4-5.48.21-5.38.64-8.52,1.13-12.15.2-1.48.41-3.06.64-4.96.75-6.34,5.41-6.02,7.24-5.86Zm11.51-2.51c3.24-9.29-2.19-25.81-8.72-31l-9.09,5.4c3.56,3.1,8.07,7.79,9.26,12.52,1.3,5.2,1.54,11.74,1.57,15.19,1.94-.51,4.33-1.22,6.98-2.11Zm32.4-24.51c-2.79-25.13-24.53-85.81-36.2-118.4-5.04-14.06-7.27-20.34-7.47-21.87-.94-7.04-1.74-10.97-8.46-16.37-1.31-1.05-3.09-2.43-5.39-4.16-.3,2.65-.66,5.4-1.03,8.25-1,7.74-2.04,15.74-2.05,22.46v3.84c-.03,9.57-.05,21.16.58,32.08.18-2.16.36-4.3.54-6.43,1-11.61,2.03-23.61,2.03-38.34,0-1.25,1.01-2.27,2.27-2.27s2.27,1.01,2.27,2.27c0,14.93-1.04,27.03-2.04,38.73-.79,9.15-1.59,18.58-1.89,29.37.42.15.8.43,1.07.83,1.15,1.68,3.33,8.26,8.03,22.89,3.85,11.96,9.03,28.08,11.41,32.53,1.06-.54,2.37-.19,2.98.85.64,1.08.28,2.47-.79,3.11l-2.9,1.72c6.55,6.48,11.51,21.03,9.75,31.59,12.95-4.93,28.36-13.15,27.3-22.68Zm-72.21-28.75c-4.32,2.66-19.07,2.66-24.62,2.66-1.18,0-2.37.01-3.56.03-5.35.06-10.87.12-15.73-1.08-1.21-.3-2.44.44-2.75,1.65-.3,1.21.44,2.44,1.65,2.74,4.27,1.06,8.78,1.24,13.25,1.24,1.21,0,2.42-.01,3.62-.03,1.18-.01,2.35-.03,3.51-.03,10.67,0,22.23-.4,26.99-3.33,1.07-.66,1.4-2.05.74-3.12-.66-1.06-2.05-1.4-3.12-.74Zm-80.76-89.07l.76,11.33c.05.79-.31,1.56-.96,2.01-6.73,4.69-15.88,7.01-24.71,7.01-9.66,0-18.93-2.77-24.24-8.21-.38-.39-.61-.9-.64-1.45-.26-4.45-.24-8.65.06-12.49.05-.68.41-1.29.96-1.68s1.26-.51,1.91-.32c10.22,2.88,31.57,3.21,44.34,1.71.62-.07,1.24.11,1.71.51.48.4.77.97.81,1.59Zm-3.85,10.32l-.51-7.67c-12.42,1.18-30.23.86-41.01-1.43-.11,2.63-.09,5.42.06,8.33,8.79,8.08,29.29,8.44,41.47.77Zm-.45,80.35c-4.86,1.21-10.39,1.15-15.73,1.08-1.19-.01-2.39-.03-3.56-.03-5.55,0-20.3,0-24.62-2.66-1.07-.66-2.46-.32-3.12.74-.66,1.07-.32,2.46.74,3.12,4.77,2.93,16.32,3.33,26.99,3.33,1.16,0,2.34.01,3.51.03,1.2.01,2.41.03,3.62.03,4.47,0,8.98-.19,13.25-1.24,1.21-.3,1.96-1.53,1.65-2.74-.3-1.22-1.53-1.95-2.74-1.65Zm20.33-98.73c2.9,0,5.26,2.36,5.26,5.26s-2.36,5.26-5.26,5.26-5.26-2.36-5.26-5.26,2.36-5.26,5.26-5.26Zm0,4.53c-.4,0-.73.33-.73.73s.33.73.73.73.73-.33.73-.73-.33-.73-.73-.73Zm5.26,40.14c0,2.9-2.36,5.26-5.26,5.26s-5.26-2.36-5.26-5.26,2.36-5.26,5.26-5.26,5.26,2.36,5.26,5.26Zm-4.53,0c0-.4-.33-.73-.73-.73s-.73.33-.73.73.33.73.73.73.73-.33.73-.73Zm4.53,39.41c0,2.9-2.36,5.26-5.26,5.26s-5.26-2.36-5.26-5.26,2.36-5.26,5.26-5.26,5.26,2.36,5.26,5.26Zm-4.53,0c0-.4-.33-.73-.73-.73s-.73.33-.73.73.33.73.73.73.73-.33.73-.73Zm4.53,39.41c0,2.9-2.36,5.26-5.26,5.26s-5.26-2.36-5.26-5.26,2.36-5.26,5.26-5.26,5.26,2.36,5.26,5.26Zm-4.53,0c0-.4-.33-.73-.73-.73s-.73.33-.73.73.33.73.73.73.73-.33.73-.73Z"/>
        </g>
      </g>
    </g>
    <circle class="cls-1" cx="220.7" cy="220.7" r="219.2"/>
  </g>
</svg>