<?xml version="1.0" encoding="UTF-8"?>
<svg id="_レイヤー_2" data-name="レイヤー 2" xmlns="http://www.w3.org/2000/svg" xmlns:xlink="http://www.w3.org/1999/xlink" viewBox="0 0 441.41 441.41">
  <defs>
    <style>
      .cls-1 {
        fill: none;
        stroke: #000;
        stroke-miterlimit: 10;
        stroke-width: 3px;
      }

      .cls-2 {
        clip-path: url(#clippath);
      }

      .cls-3, .cls-4 {
        fill: #fff;
      }

      .cls-5 {
        fill: #f2e4d7;
      }

      .cls-5, .cls-6, .cls-7, .cls-4 {
        stroke-width: 0px;
      }

      .cls-6 {
        fill: #232323;
      }

      .cls-7 {
        fill: #d4e2cf;
      }
    </style>
    <clipPath id="clippath">
      <circle class="cls-4" cx="220.98" cy="221.95" r="219.2"/>
    </clipPath>
  </defs>
  <g id="_レイヤー_1-2" data-name="レイヤー 1">
    <g>
      <circle class="cls-3" cx="220.98" cy="221.95" r="219.2"/>
      <g class="cls-2">
        <g>
          <path class="cls-4" d="m292.57,412.26l-73.16,20s5.6,109.66,8.42,201.29c13.22,14.15,30.21,14.34,42.5,4.1,4.92-62.37,13.79-127.22,15.61-138.2,3.89-23.37,2.96-63.76,6.62-87.19Z"/>
          <path class="cls-4" d="m141.34,412.26c3.67,23.43,2.73,63.82,6.62,87.19,1.81,10.89,10.47,75.77,15.35,137.68,13.54,12.39,29.44,10.45,43.01-1.02,2.83-91.77,8.17-203.85,8.17-203.85l-73.16-20Z"/>
          <path class="cls-4" d="m221.05,163.1c8.83-.38,14.98-1.54,18.05-5.76l10.75,5.76-30.34,62.98-30.72-59.91,8.06-9.22c3.84,4.22,20.15,6.32,24.19,6.14Z"/>
          <path class="cls-7" d="m355.55,353.97c-2.39-35.8-38.23-131.54-38.92-136.72-.08-.56,2.34-10.37-17.63-23.81-14.92-10.04-18.82-14.98-34.56-26.88l-11.64-6.93-9.88-18.02-2.54.88.21,12.49,1.07,5.95s.26,9.47-5.63,20.74c-2.28,4.37-10.24,14.85-10.24,14.85l-6.4,23.04-6.66-23.81s-9.45-10.56-11.27-15.36c-3.79-10.01-5.38-18.43-5.38-18.43l3.03-6.97,1.32-11.46s-1.54,0-2.87-.16l-11.47,15.91c-3.89.17-57.74,36.51-61.56,44.28-.33.68-.59,1.37-.81,2.08-2.02,3.69-3.21,7.72-3.99,11.91-.15-.13-.3-.27-.45-.38,0,.03,0,.06-.01.09-.69,5.18-36.53,100.92-38.92,136.72-1.54,23.04,43.01,24.58,43.01,24.58-4.85-3.13-8.54-10.55-7.42-16.13,1.54-7.68,7.6-12.38,16.64-14.08l-11.7-7.67,14.78-49.68,2.82,94.86,5.65,61.78s11.96,2.85,17.83,4.65c10.08,3.1,34.78,7.56,47.96,6.78h10.08c13.18.78,41.93-3.68,52.01-6.78,5.87-1.81,17.83-4.65,17.83-4.65l5.99-57.61,1.64-45.65.77-60.68,14.69,56.61c-.03.12-.06.25-.1.35l-9.51,7.68c9.04,1.7,15.11,6.4,16.64,14.08,1.12,5.58-2.57,13-7.42,16.13,0,0,44.55-1.54,43.01-24.58Z"/>
          <path class="cls-4" d="m251,299.31c-.03-6.19-2.71-8.53-8.79-10.67-4.1-1.44-10.92-.94-13.49,3.37l-1.48,2.47c-1.5-4.03-3.38-6.53-8.06-7.02l.32-5.44c-2.3-1.32-12.35-1.55-13.83.38,1.43,1.76,2.04,5.11,2.23,6.39-2.71,1.06-4.62,2.87-5.79,6l-2.59-2.02c-3.65-5.4-13.89-1.33-18.05,1.9-7.97,6.17-5.81,15.84-5.76,24.6l47.24,6.02,27.4-4.86.64-21.12Z"/>
          <path class="cls-4" d="m293.62,287.6c-3.27,1.59-5.67,4.85-8.03,8.17-1.11-5.89-4.82-13.42-11.16-8.2-4.99,4.11-6.09,12.76-9.87,18.08l19.51,5.57c.74-1.46,13.38,1.63,13.38,1.63,2.89-3.38,4.59-9.26,5.01-13.55.6-6-.98-15.52-8.84-11.71Z"/>
          <path class="cls-4" d="m288.74,274.48s-.58-4.29-3.02-5.68c-1.85,4.18-1.76,9.52-4.2,13.7l-1.67-.39c-1.96-.64-3.66-2.19-5.54-3.26.04,1.57,1.1,2.6.59,4.06-.59,1.7-3.72,2.68-4.97,3.96,6.97-1.79,6.45,1.85,8.67,7,4.75-10.94,4.86-.58,11.87,1.44-.4-3.87-3.3-8-6-10.66,1.74-2.99,4.27-10.19,4.27-10.19Z"/>
          <path class="cls-4" d="m301.69,284.33l-1.54-.77c-1.76-1.08-3.05-2.98-4.62-4.46-.33,1.54.46,2.78-.37,4.08-.97,1.51-4.24,1.73-5.76,2.69,7.19-.11,5.84,3.31,6.79,8.84,7.18-9.52,4.86.57,11.2,4.19.52-3.85-1.34-8.55-3.34-11.77,2.39-2.5,6.54-8.91,6.54-8.91,0,0,.45-4.3-1.6-6.22-2.78,3.63-3.94,8.84-7.3,12.33Z"/>
          <path class="cls-4" d="m296.09,314.09c-2.72-3.55-8.92-7.65-14.36-7.9l.37-.74c-2.63-3.42-7.32-3.17-11.14-5.08-4.46-2.23-6-6.64-11.15-7.21-13.62-1.53-20.38,10.45-15.35,21.89,0,0,6.91,6.4,12.03,10.75,5.12,4.35,6.91,16.64,6.91,16.64l11.52-2.82,23.68-8.06c3.81-4.27.44-13.61-2.53-17.48Z"/>
          <path class="cls-4" d="m247.02,319.69c-10.4-4.01-24.54-1.39-26.63,8.19-.56-.16-1.12-.3-1.7-.42l1.35-2.93c3.42-10.12-7.16-18.83-19.92-19.45-11.51-.56-24.24,5.34-22.22,15.61l13.83,16.9.35.04c-.85,1.93-1.31,5.63-.86,7.9,0,0,29.85,2.3,39.68,1.79s29.19-4.61,29.19-4.61c4.61-8.19-1.15-18.42-13.07-23.02Z"/>
          <path class="cls-4" d="m249.85,318.38c1.18-1.84-.41-4.59.36-6.54-2.47,1.51-3.53,5.6-6.49,5.83-2.66.2-4.98-1.99-7.49-2.36.91,1.86,3.63,3.24,3.88,5.12.24,1.76-3.44,2.6-3.84,4.61,2.27-.87,7.5-2.59,9.73-2.05,1.98.48,6.1,4.7,7.42,6.14-.33-2.29-.97-5.13-1.56-7.36,2-.1,3.94-1.07,5.91-1.02-2.82-1.17-5.14-1.32-7.94-2.37Z"/>
          <path class="cls-4" d="m210.68,302.71c-3.05-.23-5.87,1.63-8.86,1.51.54-2.12-1.25-5.5-1.13-7.6-1.87,2.21-1.6,6.43-4.33,7.57-2.46,1.03-5.35-.33-7.85.11,1.44,1.48,5.81,2.84,6.65,4.54.78,1.6-2.91,4.44-2.66,6.47,1.88-1.54,5.79-4.28,8.07-4.46,2.03-.16,5.37,1.9,7.08,2.85-1.03-2.07-2.54-4.45-3.81-6.38l1.54-1.79c1.87-.72,3.41-2.25,5.3-2.82Z"/>
          <path class="cls-4" d="m224.5,326.06c-2.5-.44-5.39.92-7.85-.11-2.73-1.14-5.31-4.57-7.18-6.78.12,2.09,1.18,4.69,1.72,6.8-2.98.12-5.81-1.73-8.86-1.51,1.89.57,3.43,2.1,5.3,2.82l1.54,1.79c-1.27,1.93-2.77,4.31-3.81,6.38,1.71-.95,5.04-3.01,7.08-2.85,2.29.18,4.54,3.8,6.42,5.34.25-2.03-1.79-5.75-1-7.35.83-1.7,5.2-3.06,6.65-4.54Z"/>
          <path class="cls-4" d="m204.81,347.3c-10.54-5.75-18.75-15.05-25.62-24.94-5.35-7.69-8.68-18.03-14.68-24.99-3.39-3.94-8.3-6.11-9.64.24-.35,1.64-.43,3.37-.33,5.14-1.61-2.92-3.35-5.7-5.39-8.07-3.39-3.94-8.3-6.11-9.64.25-1.05,4.97.17,10.75,2.3,15.95l-.64-.42c-3.89-3.45-6.91-9.99-10.75-3.46-4.16,7.07,3.48,20.72,8.7,26.47,0,0,18.57,6.43,29.32,8.99,10.75,2.56,36.38,4.84,36.38,4.84Z"/>
          <path class="cls-4" d="m306.3,340.4s-2.99-.64-1.04-1.58c2.32-1.11,3.3-3.89,2.19-6.2-1.11-2.32-3.89-3.29-6.2-2.19-46.8,22.4-119.29,22.39-168.63-.04-2.34-1.06-5.1-.03-6.16,2.31-1.06,2.34-.03,5.1,2.31,6.16,0,0-1.73,1.41-2.61,4.42-.46,1.58,6.05,2.56,6.42,5.06.38,2.5-5.38,6.52-3.43,9.99,10.47,18.58,39.32,32,87.82,32s78.96-15.34,87.82-32c1.44-2.71-3.28-5.03-2.72-7.04.87-3.07,6.53-5.4,6.21-7.07-.54-2.76-1.98-3.81-1.98-3.81Z"/>
          <path class="cls-4" d="m186.87,372.41c-.17-5.02-16.87-2.79-23.67-3.13-6.98-.35-17.37-3.52-18.66-4.3l.1-.26c5.91-3.31,21.85,9.36,21.96-2.68-2.75-2.11-18-11.41-23.72-11.12-6.62.34-17.94.24-17.94.24,0,0-5.6-.18-8.61,8.32-4.35,12.29,6.26,17.23,6.26,17.23,0,0,27.64,15.61,28.71,15.67,1.54.09,3.94.23,6.48.43,1.86.14,25-.99,24.83-5.98-.07-2-1.57-2.42-5.17-2.14l-1.95-.28c4.84-.93,8.88-2.34,8.81-4.43-.07-2-1.57-2.42-5.17-2.14l-3.69-.55c5.91-.89,11.5-2.41,11.42-4.88Z"/>
          <path class="cls-4" d="m248.67,372.41c.17-5.02,16.87-2.79,23.67-3.13,6.98-.35,17.37-3.52,18.66-4.3l-.1-.26c-5.91-3.31-21.85,9.36-21.96-2.68,2.75-2.11,18-11.41,23.72-11.12,6.62.34,17.94.24,17.94.24,0,0,5.6-.18,8.61,8.32,4.35,12.29-6.26,17.23-6.26,17.23,0,0-27.64,15.61-28.71,15.67-1.54.09-3.94.23-6.48.43-1.86.14-25-.99-24.83-5.98.07-2,1.57-2.42,5.17-2.14l1.95-.28c-4.84-.93-8.88-2.34-8.81-4.43.07-2,1.57-2.42,5.17-2.14l3.69-.55c-5.91-.89-11.5-2.41-11.42-4.88Z"/>
          <path class="cls-4" d="m246.03,145.57s5.87,10.24,7.91,17.92c2.05,7.68,3.84,25.86,3.84,25.86l-1.28.26c.61,13.82-1.27,23.66-2.75,41.24-.63,7.51-4.93,35.16-.32,35.56,2.36.2,13.95,2.15,15.9,1.03,1-.57,1.77-9.73,1.77-9.73,9.22-3.58,11.32-5.07,11.52-7.68,3.07-40.44,4.38-90.63-36.59-104.46Z"/>
          <path class="cls-4" d="m183.28,190.88l-2.56-.51s-1.79-17.54,1.79-24.32c3.58-6.78,12.29-20.99,12.29-20.99-44.8,13.31-39,58.48-38.66,94.22.08,8.41.51,3.07,9.73,6.66,0,0,2.08,5.6,3.05,6.15,1.95,1.11,13.54-.83,15.9-1.03,4.61-.4,1.1-12.7.47-20.21-1.46-17.44-2.58-26.26-2-39.96Z"/>
          <path class="cls-5" d="m218.65,74.39c-49.91,0-90.12,11.63-90.12,29.72s40.46,32.75,90.38,32.75,90.38-14.66,90.38-32.75-40.72-29.72-90.63-29.72Z"/>
          <path class="cls-4" d="m248.19,100.07l.1-13.85s-3.88-13.16-7.4-17.2l-16.64,1.02c-6.59-.92-12.44,2.89-18.08-4.66l-5.24-.54c-5.84-2.86-11.83,8.72-13.29,19.53l-.77,5.12c-.27,3.04.28,11.11.28,11.11-8.27,2.83-3.91,18.06,1.36,22.08l2.02-1.79c.92,4.05,3.74,9.17,7.32,13.75,1.26,2.79,2.09,23.47,2.09,23.47,0,0,14.58,6.14,18.69,6.14,9.99,0,18.95-5.63,20.48-6.91,3.5-1.93-1.51-21.66.34-24.15,3.33-4.5,4.56-6.6,5.55-10.67l2.24-.35c5.2-4.12,9.29-19.42.97-22.1Z"/>
          <path class="cls-4" d="m257.11,71.75c.8-14-44.66-34.59-53.26-26.89l.13.12s-24.8,19.82-25.1,26.07c-.23,4.76-1.04,11.74-.42,16.48.66,5.06,4.15,10.17,7.38,14.25l1.3-1.18-.35-14.4c1.46-10.81,8.29-24.23,14.13-21.37l2.48.75,8.55,8.54c8.7,6.66,11.78,3.33,11.78,3.33l-1.79-6.1c1.96,1.37,18.85.4,20.23,1.5,1.28,1.02,6.05,7.05,5.89,11.52l-.74,16.01,3.5,1.13s6.74-9.04,7.3-14.11c.53-4.75-1.28-10.9-1.01-15.65Z"/>
          <path class="cls-5" d="m284.45,75.93c-8.19-4.1-15.62-6.14-25.35-10.75-4.67-9.61-5.54-12.59-11.78-21.51-3.58-5.12-13.31-9.73-27.65-8.71h-1.79c-14.34-1.02-24.07,3.58-27.65,8.71-6.24,8.91-7.1,11.9-11.78,21.51-9.73,4.61-17.15,6.66-25.35,10.75-5.55,2.77-18.95,12.29-22.02,19.97,0,0,9.02-9.78,28.55-15.36,26.88-7.68,79.5-7.68,107.15-2.69,27.43,4.95,39.68,18.05,39.68,18.05-3.07-7.68-16.47-17.2-22.02-19.97Z"/>
          <path class="cls-6" d="m229.71,101.43c-.05-2.21,1.09-4.04,2.56-4.08,1.47-.04,2.7,1.73,2.76,3.95.05,2.22-1.09,4.04-2.56,4.08-1.47.04-2.7-1.73-2.76-3.95Zm-24.53.13c-.05-2.22-1.29-3.99-2.76-3.95-1.47.04-2.61,1.87-2.56,4.08.06,2.22,1.29,3.98,2.76,3.94,1.47-.04,2.61-1.86,2.55-4.08Zm11.31,20.22c.31,0,.62-.04.95-.11.94-.21,1.54-1.14,1.33-2.08-.21-.94-1.14-1.53-2.08-1.33-.08.02-.13.02-.17.03-.09-.22-.11-.79.14-1.34.32-.7.58-1.19.79-1.59.59-1.12.91-1.78,1.19-3.59.15-.95-.5-1.84-1.45-1.99-.96-.15-1.84.5-1.99,1.45-.21,1.32-.38,1.65-.83,2.51-.24.45-.52.99-.88,1.77-.67,1.47-.81,3.6.36,5.04.65.8,1.59,1.23,2.65,1.23Zm12.52-32c.4,0,.8-.14,1.13-.42,1.99-1.69,4.48-.24,4.5-.23.82.5,1.89.25,2.4-.57.5-.82.25-1.9-.57-2.4-1.6-.98-5.45-2.13-8.59.54-.73.62-.82,1.72-.2,2.46.34.41.84.61,1.33.61Zm-24.79-.19c.32.27.72.4,1.1.4.5,0,1-.22,1.35-.64.61-.75.5-1.84-.24-2.45-3.19-2.62-7.02-1.4-8.6-.39-.81.52-1.05,1.6-.53,2.41.52.81,1.6,1.05,2.41.53.02-.02,2.49-1.51,4.51.15Zm13.73,42.82c.36,0,.68,0,.91-.01,2.21-.06,7.56-.45,9.51-2.69.63-.73.56-1.83-.17-2.46-.73-.63-1.83-.56-2.46.17-.48.55-2.97,1.38-6.99,1.5-4.14.12-7.41-.63-8.19-1.42-.68-.69-1.78-.7-2.47-.02-.69.68-.7,1.78-.02,2.47,2.15,2.19,7.32,2.47,9.86,2.47Zm-60.67,663.69c-.51-1.03-1.71-1.55-2.82-1.18-1.22.41-1.88,1.72-1.47,2.94.5,1.5,2.03,2.38,3.14,2.91,4.79,2.3,16.26,4.4,25.35,4.4,3.76,0,7.11-.36,9.42-1.21,1.2-.45,1.82-1.78,1.37-2.99-.45-1.2-1.79-1.82-2.99-1.37-7.53,2.79-29.32-1.13-31.99-3.5Zm84.1,4.87c-.45,1.2.17,2.54,1.37,2.99,2.3.85,5.65,1.21,9.42,1.21,9.09,0,20.55-2.1,25.35-4.4,1.11-.53,2.63-1.41,3.14-2.91.41-1.22-.25-2.53-1.47-2.94-1.11-.37-2.31.15-2.82,1.18-2.67,2.37-24.46,6.29-31.99,3.5-1.2-.45-2.54.17-2.99,1.37Zm-10.79-680.13c-.93-.25-1.89.29-2.14,1.22-.26.93.29,1.89,1.22,2.14,1.01.28,2.15.94,2.33,1.95.15.84.89,1.44,1.71,1.44.1,0,.21,0,.31-.03.95-.17,1.58-1.08,1.41-2.03-.4-2.22-2.21-3.98-4.84-4.7Zm-9.07,53.93c.55-.02,1.26-.02,2.06-.02,3.7.02,8.74.01,12.02-1.81,1.12-.62,1.53-2.04.9-3.16-.62-1.12-2.04-1.53-3.16-.9-2.22,1.23-6.94,1.23-9.75,1.22-.89,0-1.67,0-2.28.03-4.3.19-13.41-.07-17.11-2.35-1.09-.67-2.53-.33-3.2.76-.67,1.09-.33,2.53.76,3.2,4.36,2.68,12.46,3.09,16.95,3.09,1.29,0,2.29-.03,2.81-.06Zm131.63,192.42c-11.32,12.53-39.35,13.64-40.54,13.68-.03,0-.05,0-.08,0-.45,0-.86-.15-1.22-.37-5.27,2.97-9.48,5.32-12.84,7.17.05.25.07.52.03.79-.14,1-.29,1.72-.46,2.26-2.04,6.41-4.94,43.36-5.89,57.06-.03.42-.19.79-.41,1.12-.09,2.01-.18,4.03-.27,6.06-.72,16.12-1.46,32.79-3.47,44.86-1.47,8.81-9.94,71.21-15.07,134.47.19,0,.37.02.56.07.79.2,1.42.81,1.65,1.6.24.81.3,1.03-4.16,52.83-2.66,30.88-5.95,69.1-5.97,73.67,2.6,5.25,6.9,11.11,11.07,16.79,3.19,4.36,6.21,8.47,8.27,12.06,2.76,4.82,3.36,8.99,1.78,12.39-2.77,5.95-11.05,7.45-16.53,8.44-.86.16-1.63.29-2.27.43-2.23.49-5.85.92-9.93.92-6.67,0-14.55-1.13-19.53-4.92-3.24-2.47-4.99-5.76-5.19-9.76-.22-4.48-1.27-9.47-2.37-14.75-1.98-9.48-4.03-19.27-1.45-27.35.07-2.84-1.21-26.12-2.45-48.65-4.09-74.38-3.86-74.7-2.99-75.88.4-.55,1.02-.89,1.7-.94.11,0,.21,0,.32,0-1.99-62.6-5.39-132.53-7.31-169.86h-2.58c-1.93,37.38-5.34,107.3-7.33,169.86.11,0,.22-.02.34-.01.68.05,1.3.4,1.7.94.87,1.18,1.1,1.5-2.99,75.88-1.24,22.53-2.52,45.81-2.45,48.65,2.58,8.07.53,17.87-1.45,27.35-1.1,5.28-2.15,10.27-2.37,14.75-.2,4.01-1.94,7.29-5.19,9.76-4.98,3.79-12.86,4.92-19.53,4.92-4.08,0-7.7-.42-9.93-.92-.63-.14-1.41-.28-2.27-.43-5.48-.99-13.76-2.49-16.53-8.44-1.58-3.4-.98-7.57,1.78-12.39,2.06-3.59,5.07-7.7,8.27-12.06,4.16-5.68,8.47-11.54,11.07-16.79-.02-4.57-3.31-42.8-5.97-73.67-4.46-51.8-4.4-52.02-4.16-52.83.23-.79.86-1.4,1.66-1.6.19-.05.38-.07.58-.07-4.81-59.52-13.07-122.35-15.09-134.47-2.01-12.07-2.76-28.75-3.47-44.87-.1-2.3-.21-4.6-.31-6.88-.02-.1-.06-.19-.07-.3-.95-14.15-3.85-52.28-5.89-58.69-.19-.58-.35-1.41-.5-2.53-2.99-1.66-6.56-3.66-10.83-6.06-.36.23-.77.37-1.22.37-.03,0-.05,0-.08,0-1.19-.04-29.22-1.15-40.54-13.68-3.46-3.83-5.05-8.33-4.71-13.38,1.81-27.21,22.14-86.91,33.06-118.98,3.05-8.97,5.69-16.71,5.87-17.89,1.07-7.99,2.29-13.31,10.37-19.8,5.16-4.15,16.12-12.13,25.79-19.17l5.5-4.01c.39-.28.83-.43,1.27-.44,5.32-13.37,14.98-24.29,32.35-30.16.43-.14.87-.15,1.28-.05.56-1.06,1.03-2.07,1.37-2.99.19-.53.58-.97,1.07-1.24.23-.13.8-.43,1.51-.45v-.05c-.1-.11-.21-.22-.32-.33-.03,0-.05,0-.08,0-42.41-3.77-70.9-17.48-70.9-34.13,0-3.02.91-5.81,2.58-8.39.02-.23.06-.46.15-.69,3.43-8.56,17.74-18.49,23.14-21.19,4.3-2.15,8.33-3.73,12.61-5.39,3.78-1.48,7.68-3,12.05-5.03.82-1.7,1.52-3.19,2.16-4.54,2.75-5.83,4.4-9.34,9.45-16.55,3.63-5.18,13.57-10.82,29.64-9.7h1.63c16.08-1.13,26.01,4.51,29.64,9.7,5.04,7.2,6.7,10.72,9.45,16.55.64,1.35,1.34,2.84,2.16,4.54,4.37,2.03,8.27,3.56,12.05,5.03,4.27,1.67,8.31,3.25,12.61,5.39,5.39,2.7,19.71,12.62,23.14,21.19.03.07.04.13.06.2,1.89,2.71,2.93,5.66,2.93,8.88,0,16.28-28.33,30.06-69.32,33.98l.03.81c.09-.04.17-.09.26-.13,1.16-.43,2.17.12,2.5.3.5.27.88.71,1.07,1.24.4,1.09.83,2.19,1.28,3.29,15.56,5.45,26.24,16.21,32.4,32.7.44.02.88.16,1.26.44l1.61,1.17c9.7,7.06,20.69,15.06,25.86,19.22,8.08,6.5,9.31,11.82,10.38,19.81.18,1.18,2.82,8.92,5.87,17.89,10.92,32.07,31.25,91.78,33.06,118.98.34,5.05-1.25,9.55-4.71,13.38Zm-103.05-217.51c1.49,3.12,3.08,6.1,4.68,8.73.23.38.33.8.33,1.22.47.25.87.66,1.08,1.2,3.87,9.88,4.52,22.19,3.91,29.73-.08.99-.8,1.76-1.7,2.03.07,10.25-.77,20.24-1.84,32.74l-.49,5.71c-.12,1.44-.37,3.6-.66,6.09-.76,6.55-2.76,23.6-1.2,27.01.57.07,1.35.17,2.27.29,2.57.34,9.02,1.21,11.31,1,1.5-5,2.39-31.17,2.73-41.3.14-3.98.24-7.12.33-8.54.24-3.72.15-10.51.07-16.5-.04-2.89-.07-5.66-.07-7.96,0-1.28,1.04-2.33,2.33-2.33s2.33,1.04,2.33,2.33c0,2.28.04,5.02.07,7.89.08,6.37.17,12.96-.08,16.86-.09,1.35-.19,4.47-.33,8.41-.47,13.95-.93,23.48-1.4,30.05,6.38-2.56,6.44-3.17,6.54-4.5,3.09-40.71,3.41-85-30.2-100.16Zm23.63,109.67c-.13.05-.27.09-.4.11-.05.54-.11,1.05-.16,1.53,3.79-.28,7.12-.66,9.78-1.14.08-1.79.1-3.53.08-5.21-1.56,1.46-4.34,2.77-9.29,4.7Zm-14.33-179.75c.01.44.03.87.04,1.29.09,2.93.18,5.46-.12,8.09-.41,3.69-2.27,6.57-3.92,9.11-.5.78-.98,1.53-1.42,2.28,1.02,1.26,1.72,2.86,2.06,4.73,1.13,6.22-1.91,15.1-6.36,18.63-.43.34-.94.5-1.44.5-.32,0-.63-.07-.92-.2-1.04,2.98-2.74,6.22-4.85,9.35,37.03-3.68,64.47-16.01,64.47-29.28,0-11-18.84-20.08-47.55-24.5Zm-7.97,16.07s.05-.07.07-.11c1.5-2.31,2.91-4.5,3.2-7.1.26-2.3.18-4.67.09-7.42-.02-.68-.04-1.38-.06-2.11-1.91-.25-3.86-.48-5.84-.69.77,2.56,1.37,5.19,1.7,7.65.1.75-.17,1.46-.67,1.95.82.32,1.42,1.09,1.48,2.03.1,1.79.1,3.75.03,5.8Zm-2.57,21.9c1.9-3.16,3.27-8.03,2.62-11.64-.15-.8-.37-1.44-.64-1.94-.51,4.87-1.25,9.68-1.97,13.58Zm-60.74-66.47c18.49-3.38,45.03-2.95,61.24-.12-1.05-1.74-2.3-3.65-3.95-5.99-3.17-4.53-12.3-8.67-25.58-7.72-.06,0-.11,0-.17,0h-1.79c-.06,0-.11,0-.17,0-13.28-.95-22.41,3.19-25.58,7.72-1.68,2.4-2.95,4.34-4.02,6.11Zm-5.33,10.38c19.95-4.91,55.07-4.35,71.9-.16-.07-.15-.15-.32-.22-.47-.79-1.69-1.49-3.15-2.19-4.55-16.1-3.64-47.76-4.31-67.08.15-.67,1.36-1.34,2.78-2.11,4.4-.1.2-.2.42-.3.63Zm-36.98,21.88c18.07-7.68,46.06-11.3,72.83-11.3s54.71,3.58,72.89,11.16c-3.08-2.29-6.06-4.18-8.13-5.21-4.11-2.05-8.05-3.59-12.22-5.22-4.05-1.58-8.23-3.22-13.01-5.48-12.35-5.28-58.42-7.12-78.87.04-4.75,2.24-8.91,3.87-12.94,5.44-4.17,1.63-8.11,3.17-12.22,5.22-2.12,1.06-5.18,3-8.33,5.36Zm38.73,5.92c.05-.55.29-1.03.65-1.4-.52-.5-.81-1.22-.71-1.99.32-2.4.9-4.9,1.67-7.38-1.78.21-3.53.43-5.24.67-.21,2.73-.44,5.78-.15,8.04.28,2.2,1.3,3.56,2.71,5.44.31.41.64.86.98,1.33-.05-1.72-.03-3.32.09-4.71Zm2.74,28.16c-.55-3.3-1.26-7.71-1.85-12.26-.18.44-.35.94-.45,1.57-.54,3.29.62,7.58,2.3,10.69Zm5.8,15.7c-1.9-2.7-3.41-5.49-4.31-8.18-.09.01-.18.03-.28.03-.49,0-.99-.16-1.41-.48-2.49-1.9-4.57-5.44-5.77-9.28-.32.49-.86.79-1.44.79-.2,0-.41-.04-.61-.11-.74-.27-1.52-.52-2.31-.76-2.73-.85-5.82-1.81-8.2-4.24-.67-.69-.66-1.79.03-2.47.69-.67,1.79-.66,2.47.03,1.76,1.8,4.29,2.59,6.74,3.35.85.27,1.69.53,2.49.82.07.03.13.06.19.09-.48-2.34-.61-4.69-.27-6.75.36-2.21,1.24-4.04,2.55-5.41-.98-2.18-2.1-3.7-3.2-5.16-1.55-2.07-3.15-4.22-3.59-7.62-.31-2.41-.16-5.26.04-7.92-27.47,4.52-45.35,13.45-45.35,24.2,0,13.13,25.91,25.1,62.23,29.05Zm17.57,9.93s4.67,2.01,8.2,2.01c.03,0,.05,0,.08,0,2.4-.02,6.28-1.53,7.68-2.16,6.78-3.78,15.29-15.06,16.92-22.43,1.58-7.16,3.74-21.16,3.23-30.37-.04-.69.23-1.31.68-1.76-.76-.3-1.33-.99-1.45-1.85-.38-2.82-1.14-5.89-2.14-8.76-5.54-.48-11.34-.8-17.34-.95.29.37.59.72.89,1.01.93.89.96,2.36.07,3.29-.46.48-1.07.72-1.68.72-.58,0-1.16-.21-1.61-.65-.54-.52-1.06-1.14-1.54-1.79-.29.99-1.2,1.67-2.22,1.67-.12,0-.24,0-.35-.03-3.67-.56-6.47-1.87-9.07-4.22-6.87.17-13.47.56-19.73,1.16-1.02,2.83-1.79,5.82-2.16,8.55-.07.51-.3.95-.64,1.29.49.47.78,1.15.72,1.88-.62,6.99,1.59,20.36,2.78,27.54.27,1.65.5,3,.63,3.93,1,6.98,10.11,18.04,18.06,21.93Zm-12.24,16.79c2.08,15.6,9.91,29.17,15.45,32.31,1.4.8,1.84,1.61,4.71,18.06.21,1.23.45,2.56.67,3.83.23-1.27.46-2.59.67-3.83,2.87-16.45,3.31-17.26,4.71-18.06,5.55-3.15,13.41-16.78,15.47-32.43-3.82,4.15-10.38,5.29-18.96,5.66-.22,0-.5.02-.86.02-4.17,0-17.19-.8-21.87-5.57Zm3.23-3.33c2.93,3.22,14.86,4.42,19.3,4.23,7.92-.34,13.72-1.29,16.27-4.81.28-.38.65-.65,1.06-.81,0-.03-.01-.07-.01-.1l-.58-15.51c-2.87,3.19-5.98,5.88-8.91,7.5-.05.03-.1.05-.16.08-.58.26-5.77,2.58-9.64,2.61-.04,0-.08,0-.12,0-4.53,0-9.93-2.34-10.16-2.44-2.16-1.06-4.46-2.61-6.73-4.5l-.53,12.27-3.48-.15c.03.59.07,1.18.11,1.77.08-.11.18-.22.28-.31.95-.86,2.42-.79,3.29.16Zm-6.09-7.41s.03,0,.04,0c.54,0,1.03.21,1.42.52l.14-3.26c-.5.9-1.03,1.82-1.61,2.75Zm-37.19,82.57c.04,2.55.08,5.07.1,7.55,0,.73.02,2.05.09,2.88.03,0,.07,0,.1,0,1.25.03,3.2.08,6.03.93-.36-4.51-.64-10.85-.89-19.86-.09-3.14-.16-5.86-.25-7.32-.25-3.9-.16-10.49-.08-16.86.04-2.87.07-5.62.07-7.89,0-1.28,1.04-2.33,2.33-2.33s2.33,1.04,2.33,2.33c0,2.29-.04,5.06-.07,7.96-.08,5.99-.17,12.78.07,16.5.1,1.54.17,4.17.26,7.49.2,7.14.64,23.44,1.91,26.99,2.2.25,8.8-.64,11.41-.99,1.2-.16,2.16-.29,2.73-.34.86-1.4-.13-7.73-.66-11.17-.35-2.24-.71-4.55-.88-6.54l-.48-5.71c-1.07-12.44-1.91-22.42-1.84-32.64-1.17-.04-2.14-.95-2.24-2.13-.61-7.52.04-19.78,3.88-29.65,0,0,0-.02,0-.03,0-.02.01-.03.02-.05.02-.06.06-.11.09-.17.03-.07.06-.13.09-.2.01-.02.02-.04.03-.05,0,0,0,0,0,0,1.11-1.82,2.56-3.94,4.1-6.19,1.12-1.63,2.28-3.34,3.39-5.04-32.73,13.61-32.16,50.14-31.65,82.52Zm24.65,22.28h-.02c-.36,0-.69-.09-1-.23-5.07.67-8.37,1-10.58,1-1.81,0-2.9-.22-3.65-.65-.37-.21-.71-.5-1.01-.94-3.48-.32-6.88-.7-9.89-1.04-.73-.08-1.45-.16-2.15-.24-.12,2.52-.12,5.19,0,7.97,11.09,1.81,29.39,1.06,35.82.72l-.46-6.89c-2.21.18-4.58.29-7.06.3Zm-65.77,121.72c-2.9-4.14-4.43-9.45-3.57-13.73,1.39-6.96,6.21-12.04,13.74-14.65-2.76-1.94-6.95-4.59-12.13-6.92-8.4,4.14-13.25,8.7-14.82,13.93-1.5,4.99-.13,10.93,4.17,18.18.19.31.28.65.31.99,4.52,1.14,8.92,1.81,12.29,2.21Zm84.42-69.16c-.67-.05-1.29-.39-1.7-.93-.22-.3-.37-.65-.43-1.01-.56.71-1.29,1.33-2.27,1.74-.29.12-.57.22-.86.3.35.36.63.75.85,1.18.25.51.35,1.01.36,1.5.96-.42,1.92-.71,2.79-.78.49-.04,1,0,1.52.08,0,0,0-.01-.01-.02-.41-.63-.48-1.4-.24-2.06Zm1.81-7.46c.02.08.04.15.06.23.2.73.41,1.51.55,2.3.45-.11.91-.24,1.38-.38,1.6-.46,3.42-.98,5.4-.84,1.12.08,2.02.95,2.14,2.07.12,1.11-.57,2.16-1.64,2.48-.18.05-.37.13-.56.22,4.74,2.02,8.47,5.13,10.52,8.92,1,1.84,1.55,3.79,1.67,5.76,1.89-1.47,4.23-2.6,6.86-3.33-.09-3.26-.47-6.68-1.94-9.06-.68-1.09-.34-2.52.75-3.2,1.09-.68,2.53-.34,3.2.75,1.61,2.6,2.25,5.79,2.5,8.95,0,0,0,0,0,0,.51-.7,1.36-1.05,2.21-.93,1.42.21,2.7.81,3.82,1.35.54.26,1.07.5,1.57.69-2.46-6.33-1.84-12.92,1.75-17.8.95-1.3,2.09-2.41,3.36-3.33-1.06-1.15-2.78-2.09-5.62-3.08-3.22-1.13-8.85-.78-10.72,2.37-.27.45-.66.77-1.11.95.34.97.65,1.95.95,2.93.38,1.23-.31,2.53-1.54,2.91-1.23.37-2.53-.31-2.91-1.54-2.07-6.74-3.12-9.05-9.76-8.73-8.48.41-11.79,1.92-12.9,9.35Zm6.23-13.22c1.92-.43,4.06-.66,6.44-.78.3-.02.58,0,.87,0l.08-1.4c-2.1-.38-5.87-.47-8.13-.13.28.69.52,1.47.74,2.32Zm86.46-.36c.2.19.37.42.49.68.68.96,1.03,2.09,1.23,3.26,1-.75,1.99-1.13,3.06-1.03.56.05,1.04.22,1.45.46-.11-.18-.21-.36-.32-.53-.56-.9-.44-2.07.29-2.84,1.68-1.75,4.59-6.02,5.93-8.05,0-.18,0-.37,0-.57-.06.08-.12.16-.17.25-1.93,2.74-3.93,5.57-6.3,8.04-.76.79-1.96.94-2.89.37-.63-.38-1.19-.83-1.7-1.31-.04.07-.08.13-.12.2-.27.42-.6.77-.97,1.07Zm5.38,61.08c.14-.12,1.6-1.38,4.11-3.15-.35-.83-.75-1.19-.77-1.21-.19-.13-.33-.3-.47-.47-23.94,11.04-54.53,17.11-86.47,17.11s-63.37-6.11-88.51-17.2c-.18.27-.37.6-.55.98,3.21,2.17,5.08,3.79,5.24,3.93.02.02.04.04.06.06.06.05.11.11.16.17.05.06.1.12.14.18.04.06.08.12.11.19.04.07.08.14.11.21.03.06.05.13.07.2.03.08.05.16.07.24,0,.03.02.05.02.08,0,.04,0,.09.01.13.01.08.02.16.02.24,0,.08,0,.15,0,.23,0,.07-.01.15-.03.22,0,.03,0,.06-.01.09,2.76-.03,5.62-.1,7.89-.22,6.89-.34,22.91,9.8,25.25,11.59.58.44.92,1.14.91,1.87-.02,2.01-.44,3.64-1.25,4.88.65-.02,1.32-.04,2.01-.06,9.49-.31,19.3-.64,19.51,5.45.03.95-.26,2.34-1.85,3.63-.46.38-1.05.72-1.71,1.05.61.84.97,1.84,1,2.89.03.83-.2,2.07-1.43,3.25-.38.36-.85.69-1.38,1,.42.45.71.95.9,1.5,9.78,1.56,20.61,2.36,32.25,2.36,12.28,0,23.87-1,34.46-2.97.17-.32.36-.62.61-.9-.52-.31-.98-.63-1.35-.99-1.23-1.18-1.46-2.42-1.43-3.25.02-.72.28-1.77,1.33-2.72-.81-.37-1.51-.78-2.06-1.23-1.57-1.28-1.87-2.67-1.84-3.62.2-6.09,10.02-5.76,19.51-5.45.68.02,1.36.04,2.01.06-.8-1.24-1.23-2.87-1.25-4.88,0-.73.33-1.42.91-1.87,2.34-1.79,18.37-11.92,25.25-11.59,2.21.11,4.96.18,7.65.21-.16-.79.08-1.65.74-2.22Zm-98.25-12.16c.69-1.39,1.57-2.87,2.46-4.3-6.84,1.94-13.36,6.84-12.07,13.38.01.06,0,.11.02.17,12.67,1.29,25.59,1.57,38.27.82,1.39-6.24-3.86-11.3-9.98-13.65-.17-.06-.32-.15-.46-.25-.63.35-1.24.72-1.51.99.01.51.32,1.63.52,2.33.4,1.45.82,2.95.65,4.33-.1.84-.66,1.56-1.44,1.87-.28.11-.57.17-.86.17-.53,0-1.05-.18-1.47-.53-.74-.61-1.44-1.38-2.19-2.2-.75-.83-2.32-2.56-2.95-2.62-1.09-.08-4.03,1.58-5.14,2.21l-.62.35c-.89.5-2,.36-2.74-.35-.74-.7-.93-1.81-.48-2.72Zm7.83-4.07s0,.01-.01.02c.37-.06.74-.1,1.09-.1.14,0,.29,0,.43.02,1,.08,1.9.47,2.73,1.03.02-.61.14-1.19.41-1.74.21-.44.5-.83.85-1.19-.29-.08-.57-.18-.86-.3-.82-.34-1.61-.83-2.36-1.39-.08.23-.19.46-.34.66-.4.54-1.02.88-1.7.93.24.66.17,1.43-.24,2.06Zm22.88-5.77c.37-1.87,1.89-2.97,3-3.77.18-.13.4-.29.59-.44-.04-.05-.09-.11-.14-.17-5.04-.08-9.43,1.28-12.12,3.7.65.25,1.17.76,1.39,1.44.26.8.06,1.68-.52,2.29,7.43,3.71,11.37,9.92,10.53,16.52,7.7-.61,15.28-1.61,22.65-2.98-.04-.33-.02-.67.09-1,1.23-3.8-.24-8.23-3.85-12.08.04.24.08.48.11.71.15,1.01-.38,2-1.31,2.43-.32.15-.66.22-1,.22-.64,0-1.26-.26-1.71-.75-2.42-2.64-5.35-5.19-6.27-5.46-1.09-.27-4.83.61-8.34,1.96-.79.3-1.69.15-2.33-.39-.65-.55-.95-1.4-.78-2.23Zm15.75-3.77c-.24-.08-.48-.17-.72-.26-.66-.25-1.17-.78-1.39-1.44-.09-.26-.12-.53-.12-.8-.94.87-2.1,1.55-3.62,1.67-.52.04-1.02.02-1.51-.04,0,.06.02.11.03.17.03.25.04.49.03.71.89-.16,1.77-.26,2.57-.26.56,0,1.08.05,1.54.16.91.22,1.98.86,3.07,1.67,0-.01,0-.02,0-.03-.14-.52-.09-1.07.13-1.55Zm8.61,3.42c.23-.61.53-1.16.89-1.67-.42.34-.95.53-1.52.52-.18,0-.38,0-.58.02.42.37.82.75,1.21,1.13Zm-126.7,8.28c-.31-.14-.64-.21-.96-.21-.88,0-1.73.51-2.12,1.36-.53,1.17-.01,2.55,1.15,3.08,24.81,11.28,56.14,17.49,88.2,17.49s62.74-6.22,86.32-17.51c1.16-.55,1.65-1.95,1.09-3.1-.55-1.16-1.94-1.65-3.1-1.09-47.35,22.67-120.69,22.66-170.59-.02Zm162.59-17c-2.53-3.31-8.3-6.91-12.85-7-2.05-.04-3.58.61-4.72,1.98-.88,1.06-1.36,2.26-1.87,3.54-.81,2.06-1.74,4.39-4.4,6.29-.88.63-1.86,1.16-2.91,1.73-3.03,1.64-5.01,2.87-4.96,4.87.02.67-.25,1.27-.69,1.7,2.31,3.75,3.19,7.8,2.41,11.6,11.71-2.49,22.79-5.96,32.79-10.42,1.7-2.26.87-6.96-.78-10.73-.08-.14-.15-.29-.21-.46-.55-1.18-1.17-2.25-1.82-3.1Zm16.21,24.81c-.1-.83-.3-2.04-.59-3.52-.3.9-.77,1.75-1.41,2.47.34.38.73.9,1.1,1.6.29-.18.59-.36.89-.54Zm-2.02-10.35c-1.48-6.6-3.54-14.97-5.53-22.34-.67,1.87-1.53,3.69-2.6,5.27.19.34.31.72.3,1.14l-.02,3.32c1.35,3.12,2.32,6.92,1.97,10.32,2.2-.22,4.38.63,5.87,2.28Zm-12.79-33c-.9-.22-1.59-.95-1.74-1.86-.2-1.13-.3-2.17-.39-3.09-.06-.6-.11-1.11-.17-1.54-2.28,1.61-4.18,4.28-6.17,7.09-1.31,1.85-2.66,3.75-4.18,5.4.34.32.66.67.96,1.06.02.03.04.07.06.1,4.48.86,9.08,3.59,12.15,6.57,2.24-3.05,3.63-8.04,3.99-11.62.13-1.26.14-2.6.03-3.87-.04-.51.09-1,.34-1.41-.06-.12-.13-.24-.19-.36-.44.41-1.17,1.18-2.28,2.66-.56.74-1.5,1.08-2.4.86Zm-13.19-13.47c1.22-2.1,3.06-6.93,3.88-9.22-.04-.18-.08-.36-.14-.55-.04.09-.08.19-.11.28-1.23,3.1-2.5,6.3-4.22,9.24,0,.01-.01.02-.02.03,0,0,0,0,0,.01-.02.03-.05.06-.07.09-.06.09-.12.19-.2.27-.04.04-.08.08-.12.12-.07.07-.13.13-.21.19-.05.04-.1.07-.15.1-.07.05-.15.1-.23.14-.05.03-.1.04-.16.06-.09.04-.17.07-.26.1-.05.01-.1.02-.16.03-.09.02-.19.04-.28.05-.06,0-.13,0-.19,0-.09,0-.17,0-.26,0-.09-.01-.18-.04-.27-.06-.05-.01-.11-.02-.16-.04,0,0-.01,0-.02,0-.01,0-.03-.01-.04-.02-.68-.22-1.3-.51-1.9-.85-.02.07-.04.14-.07.22-.17.48-.41.91-.71,1.3,1.28.79,2.04,2.04,2.62,3.39.8-.97,1.68-1.56,2.74-1.72.54-.08,1.04-.03,1.49.1-.14-.14-.26-.3-.4-.43-.76-.74-.91-1.91-.38-2.83Zm-7.1,8.39c-.2-.57-.37-1.05-.53-1.45-1.62,1.85-2.77,4.44-3.89,7.23.34.23.69.44,1.07.62,1.17.59,2.51.95,3.92,1.34.95.26,1.94.54,2.93.9,1.5-1.46,2.87-3.33,4.29-5.33-.04-.1-.1-.19-.13-.3-.26-1.02-.58-1.96-.94-2.81-.33.55-.77,1.4-1.34,2.72-.37.85-1.21,1.4-2.13,1.4h0c-.93,0-1.76-.55-2.13-1.4-.46-1.06-.8-2.04-1.1-2.91Zm-5.43,10.56c-2.12-1.06-3.64-2.51-4.98-3.78-1.73-1.65-3.1-2.95-5.39-3.2-5.23-.58-9.53,1.02-12.11,4.54-2.52,3.43-2.98,8.11-1.36,12.76.78-1.05,1.67-2.15,2.91-2.91.86-.52,1.94-.44,2.71.2.77.64,1.03,1.7.67,2.63-.13.33-.02,1.19.07,1.87.09.69.2,1.46.17,2.26.49.13.98.25,1.48.38,1.43.35,2.9.71,4.57,1.4,1.04.43,1.62,1.54,1.38,2.63-.04.19-.11.36-.19.53,1.52-1.7,3.65-2.86,5.41-3.82.92-.5,1.78-.97,2.43-1.43,1.54-1.1,2.09-2.47,2.77-4.21.59-1.48,1.25-3.17,2.61-4.8,1.02-1.23,2.25-2.17,3.66-2.79-.65-.21-1.34-.41-2.06-.6-1.57-.43-3.18-.87-4.77-1.66Zm-69.17,10.71c-1.21.1-4.25,1.86-6.79,3.94-.42.35-.95.53-1.47.53-.29,0-.58-.05-.86-.17-.79-.32-1.34-1.03-1.44-1.87-.23-1.85.87-3.46,1.84-4.88.23-.33.53-.78.73-1.13-.39-.28-1.06-.66-1.66-.98-6.15,1.96-10.55,5.86-11.3,10.09-.01.08-.04.15-.06.22.44.72.89,1.43,1.36,2.1,3.53,5.08,6.95,9.32,10.43,12.94,2.35-3.21,6.01-5.71,10.02-7.31-1-.36-1.64-1.36-1.52-2.43.12-1.11,1.02-1.98,2.14-2.06,1.98-.15,3.8.38,5.4.84.11.03.23.07.34.1-.37-1.26-.68-2.54-.75-3.78-.06-1,.53-1.92,1.46-2.29.93-.37,1.99-.11,2.64.66.25.29.5.6.77.92,1.55,1.87,3.68,4.44,5.53,5.21.08.03.18.04.27.07,0-.03.01-.06.02-.1.88-2.59.67-5.11-.63-7.5-1.7-3.15-5.22-5.83-9.62-7.4.77,1.26,1.53,2.57,2.14,3.78.45.91.26,2.02-.48,2.72-.74.7-1.85.84-2.74.35l-.61-.35c-1.1-.63-4-2.31-5.14-2.21Zm-1.75-18.13c-.55-.13-1.06-.45-1.4-.95-.56-.83-1.42-1.33-2.63-1.52-3.76-.6-9.43,1.91-12.07,3.96-4.97,3.85-5.32,9.47-5.12,15.56,1.99-2.7,4.97-5.01,8.67-6.68-.3-.55-.37-1.21-.17-1.82.26-.82.96-1.43,1.81-1.58,1.42-.25,2.82-.07,4.05.08,1.27.16,2.47.31,3.3-.04.63-.26,1.02-1.47,1.44-2.75.45-1.37.95-2.92,2.02-4.17.03-.03.06-.05.09-.08Zm-21.73,28.64c-2.41-3.47-4.43-7.45-6.38-11.3-2.43-4.81-4.95-9.78-8.16-13.5-1.99-2.32-3.83-3.12-4.5-2.94-.31.08-.79.69-1.09,2.15-.21,1.02-.33,2.13-.33,3.29,0,.19-.03.37-.08.55,1.02,1.87,1.99,3.78,2.95,5.67,1.88,3.71,3.82,7.54,6.05,10.75,7.64,10.98,15.03,18.43,23.14,23.26.02-1.2.2-2.35.53-3.44-.3-.12-.57-.29-.81-.54-3.8-3.89-7.5-8.46-11.31-13.94Zm-21.74-13.99c-2.43-4.81-4.95-9.78-8.16-13.5-2-2.32-3.83-3.12-4.5-2.94-.31.08-.79.69-1.09,2.15-1.47,7,2.24,16.47,6.57,22.75,1.82,2.64,4.53,5.74,7.14,8.74,3.06,3.51,6.23,7.14,8.26,10.33.28.44.39.94.35,1.43,5.59,1.36,11.32,2.5,17.14,3.42-6.67-5.03-12.95-11.89-19.33-21.07-2.41-3.47-4.43-7.45-6.38-11.3Zm-15.59,2.73c-.11-.07-.22-.15-.33-.24-.98-.87-1.86-1.85-2.7-2.8-.88-.98-2.51-2.82-3.13-2.85,0,0-.51.17-1.37,1.64-3.05,5.19,2.45,16.56,7.59,22.77.02.02.03.05.05.07.94.38,1.88.76,2.84,1.12.03-.3.14-.6.34-.86.59-.76,1.68-.91,2.45-.32.28.22.61.38.93.47.93.25,1.48,1.21,1.23,2.14-.03.11-.09.2-.14.3,3.34,1.15,6.76,2.21,10.24,3.18-1.73-2.26-3.86-4.71-5.95-7.11-2.7-3.1-5.5-6.3-7.47-9.16-1.61-2.34-3.23-5.22-4.57-8.36Zm-13.18,16.45c1.56-1.06,3.52-1.48,5.43-1.06-1.24-2.1-2.38-4.4-3.29-6.74-.15.56-.31,1.13-.46,1.68-.61,2.24-1.17,4.28-1.68,6.12Zm-3.08,10.57c.43.24.84.48,1.25.72.18-.34.36-.65.54-.93-.47-.54-.85-1.14-1.13-1.79-.25.83-.47,1.5-.65,2Zm28.08,50.63c1.55.09,3.82.23,6.2.41.64.04,5.9-.14,11.43-.87,5.98-.8,8.75-1.77,10-2.4,0-.04,0-.07,0-.11.01-.06.03-.11.05-.17-.78-.19-1.98-.33-3.64-.21-7.3,1.39-15.83,1.55-16.48,1.55-.02,0-.03,0-.04,0-4.21-.32-8.1-.52-8.14-.52-1.28-.06-2.27-1.15-2.21-2.44.06-1.28,1.14-2.27,2.44-2.21.04,0,3.99.2,8.27.53,2.02.13,9.4-.41,15.18-1.45.16-.05.32-.08.48-.09,0,0,0,0,.01,0,3.18-.6,5.8-1.35,6.62-2.23-.03-.08-.09-.15-.17-.23-.18-.16-.88-.63-2.61-.56-5.61,1.21-12.25,1.7-15.65,1.7-.72,0-1.3-.02-1.68-.06h0s-12.8-1.08-12.8-1.08c-1.28-.11-2.23-1.23-2.12-2.51.11-1.28,1.23-2.23,2.51-2.12l12.8,1.08c.12.01.24.03.36.06.72.09,5.75-.06,11.34-.86,1.5-.21,2.78-.44,3.89-.66.21-.08.43-.15.67-.17.05,0,.09,0,.14,0,3.69-.82,5.16-1.63,5.7-2.03-1.97-1.29-10.67-1.01-14.49-.88-2.55.08-4.96.16-6.76.07-4.5-.22-9.86-1.51-12.67-2.25-7.92-2.1-8.27-2.82-8.34-4.38-.03-.7.28-1.37.78-1.83,0,0,0,0,0,0,.09-.08.19-.16.3-.23.03-.02.05-.04.07-.06.01,0,.03-.01.04-.02.03-.02.05-.03.08-.04,3.2-1.92,7.68-.56,12.03.76,2.91.88,6.9,2.09,8.15,1.17.32-.24.55-.77.67-1.53-4.63-3.18-16.98-10.15-21.19-9.93-6.4.33-16.89.25-17.98.24-3.21,1.91-5.89,4.85-6.8,9.39-.7,3.52,1.06,8.34,3.93,11.56.52-.1,1.08-.03,1.58.25,9.71,5.48,25.55,14.31,28.03,15.39Zm54.34,248.45c-4.53,3.43-12.61,8.35-22.18,8.88-9.1.5-16.3-2.96-20.55-5.77.67,8.8,2.33,28.03,3.94,46.78,6.4,74.28,6.24,74.61,5.72,75.69-2.76,5.74-7.31,11.93-11.7,17.92-3.11,4.25-6.06,8.26-7.98,11.62-1.97,3.43-2.51,6.16-1.6,8.11,1.75,3.77,8.88,5.05,13.14,5.82.93.17,1.76.32,2.45.47,5.62,1.25,19.35,1.62,25.64-3.16,2.13-1.62,3.23-3.68,3.36-6.3.24-4.85,1.37-10.25,2.46-15.47,1.88-8.98,3.82-18.26,1.51-25.19-.31-.93-.28-2.94,2.31-50.11,1.37-24.86,3.15-57.36,3.49-69.28Zm4.78-177.13h-.89c-13.35.77-38.14-3.63-48.71-6.89-3.92-1.21-10.7-2.91-14.63-3.87.06,1.37.12,2.74.19,4.12.71,15.99,1.45,32.52,3.41,44.32,2.06,12.37,10.6,77.35,15.38,137.88.01.18,0,.36-.02.54,3.61,2.44,10.02,5.71,18.06,5.26,8.61-.48,16.06-5.21,20.02-8.27-.14-.31-.21-.65-.2-1,1.97-63.06,5.44-134.16,7.39-172.09Zm59.41,180.24c-4.25,2.81-11.45,6.28-20.55,5.77-9.57-.53-17.65-5.45-22.18-8.88.34,11.92,2.12,44.43,3.49,69.28,2.59,47.17,2.62,49.18,2.31,50.11-2.31,6.93-.37,16.22,1.51,25.19,1.09,5.22,2.22,10.62,2.46,15.47.13,2.61,1.23,4.67,3.36,6.3,6.28,4.79,20.02,4.41,25.64,3.17.68-.15,1.52-.3,2.45-.47,4.26-.77,11.39-2.06,13.14-5.82.91-1.95.37-4.68-1.6-8.11-1.93-3.36-4.87-7.37-7.98-11.62-4.39-5.99-8.94-12.18-11.7-17.92-.52-1.08-.68-1.41,5.72-75.69,1.61-18.74,3.27-37.98,3.94-46.78Zm16.72-190.92c-3.97.97-10.5,2.62-14.32,3.79-9.46,2.91-34.74,6.98-49.33,6.98-.2,0-.39,0-.58,0,1.95,37.9,5.4,108.95,7.37,172.01.01.35-.06.69-.2.99,3.96,3.05,11.42,7.8,20.04,8.28,8,.44,14.4-2.8,18.02-5.23,0-.02,0-.03,0-.05,4.82-61.07,13.35-126.09,15.4-138.4,1.97-11.79,2.7-28.32,3.41-44.31.06-1.36.12-2.7.18-4.06Zm1.81-20.41c-3.42.83-11.65,2.86-16.13,4.24-9.46,2.91-34.74,6.98-49.32,6.98-1.23,0-2.38-.03-3.44-.09h-9.94c-13.35.77-38.14-3.63-48.71-6.89-4.46-1.37-12.64-3.39-16.09-4.23.54,6.9.95,12.68,1.14,15.46,3.51.85,11.69,2.87,16.31,4.29,10.39,3.2,34.75,7.41,47.14,6.68.05,0,.09,0,.14,0h10.08s.09,0,.14,0c12.75.75,41.24-3.62,51.19-6.68,4.62-1.42,12.8-3.44,16.31-4.29.2-2.78.62-8.58,1.18-15.47Zm4.47-39.78c-7.6,4.12-8.15,4.16-8.56,4.18-1.53.09-3.91.23-6.43.43,0,0-.02,0-.04,0-1.01,0-20.91-.38-25.87-5.13-.12-.12-.23-.24-.33-.36-10.81,1.99-22.6,3.01-35.09,3.01s-23.43-.85-33.63-2.52c-5.2,4.62-24.71,4.99-25.71,4.99-.02,0-.03,0-.04,0-2.51-.19-4.9-.34-6.43-.43-.44-.02-1.04-.06-10.35-5.15,1.37,6.51,2.87,22.38,3.98,35.88,1.25.3,12.19,2.92,17.85,4.66,10.39,3.2,34.76,7.41,47.14,6.68.05,0,.09,0,.14,0h10.08s.09,0,.14,0c12.75.75,41.24-3.62,51.19-6.68,5.75-1.77,16.99-4.46,17.9-4.67,1.14-13.42,2.68-29.03,4.07-34.89Zm24.39-27.64c-.91-4.54-3.59-7.48-6.8-9.39-1.09,0-11.57.09-17.98-.24-4.17-.24-16.56,6.75-21.19,9.93.11.76.34,1.29.67,1.53,1.25.92,5.24-.29,8.15-1.17,4.34-1.32,8.83-2.67,12.03-.76.03.01.05.03.08.04.01,0,.02.01.04.02.03.02.05.04.07.06.1.07.2.15.3.23,0,0,0,0,0,0,.5.47.82,1.13.78,1.83-.08,1.56-.42,2.28-8.34,4.38-2.8.74-8.17,2.03-12.67,2.25-1.8.09-4.21,0-6.76-.07-3.83-.13-12.52-.41-14.49.88.66.49,2.69,1.58,8.38,2.54.1,0,.21,0,.31.01.21.02.41.07.6.14.36.06.72.11,1.11.17,5.59.8,10.62.95,11.44.84.12-.03.14-.03.25-.04l12.8-1.08c1.27-.11,2.4.84,2.51,2.12.11,1.28-.84,2.41-2.12,2.51l-12.8,1.08h0c-.38.04-.94.06-1.65.06-2.84,0-8-.35-12.92-1.18-2.04-.1-3.92.25-4.98.62,1.09.62,3.81,1.69,10.29,2.55,5.53.74,10.79.91,11.44.87,4.27-.33,8.23-.52,8.26-.53,1.29-.06,2.37.93,2.44,2.21.06,1.28-.93,2.37-2.21,2.44-.04,0-3.93.19-8.14.52,0,0-.02,0-.04,0-.64,0-9.18-.16-16.48-1.55-.08,0-.15.01-.23,0-1.86-.14-3.11.04-3.8.25.98.6,3.63,1.73,10.45,2.64,5.54.74,10.78.91,11.44.87,2.38-.18,4.64-.32,6.19-.41,2.48-1.08,18.32-9.91,28.03-15.39.5-.28,1.05-.35,1.58-.25,2.87-3.22,4.64-8.04,3.93-11.56Zm17.77-8.56c-1.58-5.25-6.47-9.83-14.94-13.99-5.19,2.33-9.4,4.97-12.18,6.93,7.63,2.59,12.52,7.7,13.92,14.71.86,4.29-.67,9.6-3.57,13.73,3.37-.39,7.77-1.07,12.29-2.21.03-.34.12-.68.31-.99,4.3-7.25,5.67-13.2,4.17-18.18Zm17.78-.19c-1.77-26.6-22.74-88.19-32.82-117.79-4.07-11.97-5.88-17.32-6.08-18.77-.96-7.23-1.79-11.26-8.68-16.8-4.72-3.79-14.47-10.92-23.57-17.54.37,1.33.71,2.68,1.03,4.08,4.14,18.16,3.53,39.31,2.07,59.72.44.02.87.14,1.23.39.57.4.98,1.02,1.04,1.71.31,3.94.33,8.25.06,12.82-.06,1.04-.81,1.91-1.83,2.13-3.31.72-7.88,1.29-13.22,1.64-.58,2.67-1.22,3.31-1.97,3.73-.75.43-1.84.65-3.65.65-2.27,0-5.68-.34-10.98-1.05-1.18-.16-2.12-.29-2.62-.33-.67-.06-1.65-.34-2.48-1.35-.33-.41-.61-.92-.85-1.54-2.66-.2-4.65-.48-5.89-.83-1.05-.3-1.75-1.3-1.68-2.39l.78-11.63c.04-.64.34-1.23.83-1.63.49-.41,1.12-.6,1.76-.52,1.24.15,2.51.26,3.77.37.31-3.64.76-7.82,1.31-12.6.29-2.46.53-4.58.65-5.95l.49-5.72c1.07-12.47,1.91-22.42,1.82-32.54-.85-.1-1.73-.2-2.63-.32-2.22-.28-4.49-.57-6.36-.65l-1.09,4.38c-.23.91-.98,1.6-1.91,1.74l-.87.13c-4.4.66-7.06,1.05-9.14,2.53-.41.29-.88.43-1.35.43-.73,0-1.44-.34-1.89-.97-.75-1.05-.5-2.5.54-3.24,2.85-2.03,6.09-2.59,10.48-3.25l1.16-4.64c.25-.99,1.12-1.71,2.14-1.76,2.47-.13,5.72.29,8.87.69,1.39.18,2.73.34,3.91.46.28-7.07-.53-17.17-3.74-25.38-.11-.28-.16-.56-.16-.85-.36-.19-.67-.47-.89-.84-2.99-4.91-5.96-10.98-8.28-16.94-.01,0-.02,0-.03,0l.2,5.26c.07,0,.14-.02.21-.02h.03c1.27,0,2.31,1.02,2.33,2.3.26,20.65-9.98,39.42-17.75,44.46-.73,2.11-2.14,10.21-3,15.17-.48,2.75-.93,5.31-1.29,7.19-.62,3.18-.95,4.93-3.07,4.93-.32,0-.62-.06-.9-.18-.28.12-.58.18-.9.18-2.11,0-2.45-1.75-3.07-4.93-.36-1.87-.81-4.44-1.29-7.19-.86-4.96-2.27-13.06-3-15.17-7.61-4.93-17.57-23.02-17.75-43.15-.93,1.4-1.87,2.78-2.78,4.12-1.47,2.15-2.85,4.17-3.89,5.87-3.16,8.19-3.95,18.18-3.67,25.2,1.18-.11,2.52-.28,3.91-.46,3.15-.4,6.41-.81,8.87-.69,1.02.05,1.9.76,2.14,1.76l1.16,4.64c4.4.66,7.64,1.22,10.48,3.25,1.05.75,1.29,2.2.54,3.24-.45.64-1.17.97-1.89.97-.47,0-.94-.14-1.35-.43-2.08-1.48-4.73-1.88-9.13-2.53l-.87-.13c-.93-.14-1.68-.82-1.91-1.74l-1.09-4.38c-1.87.08-4.14.37-6.36.65-.72.09-1.41.18-2.1.26-.09,10.14.75,20.12,1.82,32.6l.49,5.71c.15,1.83.49,3.96.84,6.21.75,4.82,1.43,9.15.8,12.21.94-.07,1.85-.15,2.73-.26.63-.07,1.27.11,1.76.52.49.41.79,1,.83,1.63l.78,11.63c.09,1.28-.88,2.39-2.16,2.48-.62.04-9.09.6-18.83.6-7.73,0-16.26-.35-22.32-1.6-1.03-.21-1.79-1.09-1.85-2.14-.27-4.57-.25-8.88.06-12.82.05-.63.35-1.2.83-1.61.48-.4,1.11-.59,1.73-.52,1.45.15,2.99.33,4.6.51,2.54.29,5.16.58,7.89.85,0-.06-.02-.12-.03-.19-.07-.02-.15-.03-.22-.06-3.2-1.24-5.16-1.28-6.46-1.31-4.68-.09-4.7-2.88-4.75-7.49-.02-2.47-.06-4.98-.1-7.52-.27-17.19-.55-35.5,3.88-51.29l-1.72,1.25c-9.63,7.01-20.54,14.95-25.61,19.03-6.89,5.54-7.72,9.57-8.68,16.8-.19,1.45-2,6.8-6.08,18.77-10.08,29.6-31.05,91.2-32.82,117.79-.25,3.79.9,7.05,3.52,9.95,3.06,3.38,7.7,5.83,12.68,7.6-3.58-7.06-4.52-13.21-2.87-18.7,1.74-5.8,6.39-10.78,14.16-15.15-.39-.6-.5-1.36-.23-2.08.45-1.2,1.79-1.81,2.99-1.36,2.36.88,4.57,1.86,6.6,2.86.86-2.65,2.6-9.01,4.44-15.71.91-3.31,1.86-6.81,2.81-10.22.05-.16.11-.31.18-.46.12-1.83.57-3.54,1.45-5.04.02-.03.03-.05.05-.08,0-.23.01-.46.08-.69,2.73-9.55,3.99-13.04,4.75-14.57-.05-12.66-.25-23.72-.44-34.45-.22-12.4-.45-25.22-.45-40.46,0-1.28,1.04-2.33,2.33-2.33s2.33,1.04,2.33,2.33c0,15.2.23,28,.45,40.38.19,10.77.39,21.87.44,34.59.06.3.07.62,0,.93,0,.26,0,.52,0,.78,1.01-2.27,2.54-3.17,3.78-3.49,3.98-1.03,7.75,2.75,9.19,4.41.72.84,1.39,1.73,2.05,2.64.97-2.94,2.74-4.01,4.13-4.37,3.97-1.02,7.75,2.75,9.19,4.41,2.74,3.18,4.93,6.99,6.95,10.86.38-5.09,1.92-10.05,6.85-13.86,3.05-2.36,10-5.78,15.65-4.87,2.37.38,4.29,1.51,5.57,3.28,1.06-1.65,2.39-2.88,4.01-3.78-.37-1.62-.89-2.93-1.42-3.59-.68-.83-.7-2.02-.04-2.88,2.58-3.39,14.18-2.51,16.83-.99.76.44,1.21,1.27,1.16,2.15l-.2,3.42c2.76.75,4.57,2.25,5.86,4.15,3.75-4.63,11.25-4.78,15.49-3.29,3.17,1.11,6.31,2.54,8.27,5.29,2.65-.92,5.64-1.24,8.82-.89,3.27.37,5.38,1.97,7.16,3.6.78-1.84,1.64-3.64,2.71-5.26-.82,0-1.61-.41-2.04-1.15-.52-.9-.38-2.04.34-2.79.71-.73,1.64-1.28,2.54-1.81.64-.38,1.72-1.01,1.92-1.35.01-.05-.11-.41-.23-.75-.2-.6-.49-1.42-.51-2.42-.02-.84.41-1.63,1.13-2.06.72-.43,1.62-.44,2.35-.02.75.43,1.44.9,2.1,1.36.44.3.87.59,1.29.85,1.08-2.16,2.01-4.49,2.92-6.76.59-1.48,1.19-3.01,1.82-4.43.27-.6.77-1.06,1.4-1.27.63-.21,1.31-.14,1.88.19,3.35,1.9,4.1,6.83,4.17,7.39.05.36.01.73-.11,1.08-.09.26-1.95,5.54-3.63,9.02.08.09.15.18.22.26.17-.24.38-.47.64-.63.86-.54,1.89-.86,2.9-1.16.71-.22,1.9-.58,2.18-.86.02-.04-.01-.44-.05-.79-.06-.63-.14-1.5.07-2.48.17-.82.78-1.49,1.58-1.74.62-.19,1.28-.11,1.83.2.4-6.55.92-12.77,1.44-18.8,1.02-11.91,2.08-24.23,2.08-39.35,0-1.28,1.04-2.33,2.33-2.33s2.33,1.04,2.33,2.33c0,15.32-1.07,27.74-2.1,39.75-.55,6.41-1.11,13.04-1.51,20.03,1.07-1.38,2.09-2.83,3.09-4.25.92-1.3,1.86-2.64,2.81-3.88.4-.52,1-.85,1.66-.9.65-.06,1.3.17,1.78.62,2.81,2.64,2.38,7.6,2.33,8.16-.04.37-.16.72-.36,1.02-.15.23-3.2,4.93-5.65,7.92,1.38,2.57,3.4,7.28,2.8,11.79-.1.77-.58,1.43-1.27,1.78-.33.16-.68.24-1.03.24-.4,0-.8-.1-1.15-.31-.56-.32-1.05-.69-1.51-1.07-.03.31-.09.66-.14.99.8.19,1.47.78,1.71,1.62,3.2,11.34,7.26,28.1,8.5,35.45,2.39-1.23,5.04-2.45,7.93-3.53,1.2-.45,2.54.16,2.99,1.36.25.68.16,1.39-.17,1.97,7.88,4.4,12.6,9.41,14.35,15.26,1.65,5.49.71,11.63-2.87,18.7,4.98-1.77,9.62-4.22,12.68-7.6,2.62-2.9,3.77-6.15,3.52-9.95Zm-104.09-100.29c-.52-.04-1.03-.09-1.55-.14l-.48,7.17c.52.07,1.17.15,1.96.22-.12-1.99-.09-4.4.07-7.25Zm-94.05-142.73c-4.4-1.18-9.47-4.82-11.78-8.47-.52-.81-1.59-1.05-2.41-.54-.81.52-1.05,1.59-.54,2.41,2.77,4.37,8.59,8.57,13.82,9.97.15.04.3.06.45.06.77,0,1.48-.51,1.68-1.29.25-.93-.3-1.89-1.23-2.14Zm5.71-6.88c-.68-.51-1.41-.99-2.16-1.49-2.14-1.42-4.35-2.88-5.53-5.1-.45-.85-1.51-1.17-2.36-.72-.85.45-1.17,1.51-.72,2.36,1.6,3,4.3,4.79,6.68,6.37.69.46,1.38.91,2.01,1.38.31.23.68.34,1.04.34.53,0,1.06-.24,1.4-.7.57-.77.41-1.87-.36-2.44Zm6.13-4.54c.64,0,1.25-.35,1.56-.96.43-.86.08-1.91-.78-2.34-1.96-.98-3.28-1.99-3.93-2.98-.52-.81-1.6-1.04-2.41-.51-.81.52-1.04,1.61-.51,2.41,1,1.54,2.73,2.91,5.29,4.19.25.13.52.19.78.19Zm12.25,22.63c-4.58.08-10.44-1.98-13.68-4.83-.72-.64-1.83-.57-2.46.16-.64.72-.57,1.83.16,2.46,3.8,3.34,10.32,5.71,15.67,5.71.13,0,.26,0,.39,0,.96-.02,1.73-.82,1.71-1.78-.02-.96-.81-1.75-1.78-1.71Zm102.68-9.07c.21.78.91,1.29,1.68,1.29.15,0,.3-.02.45-.06,5.23-1.4,11.05-5.59,13.82-9.97.52-.81.28-1.89-.54-2.41-.81-.52-1.89-.28-2.41.54-2.31,3.65-7.38,7.29-11.78,8.47-.93.25-1.48,1.21-1.23,2.14Zm-4.84-6.58c.34.46.87.7,1.4.7.36,0,.73-.11,1.04-.34.63-.47,1.31-.92,2.01-1.38,2.38-1.58,5.08-3.37,6.68-6.37.45-.85.13-1.91-.72-2.36-.85-.45-1.91-.13-2.36.72-1.18,2.22-3.4,3.69-5.53,5.1-.75.49-1.48.98-2.16,1.49-.77.57-.94,1.67-.36,2.44Zm-5.77-6.98c.26,0,.53-.06.78-.19,2.56-1.28,4.29-2.66,5.29-4.19.52-.81.29-1.89-.51-2.41-.81-.52-1.89-.29-2.41.51-.64.99-1.96,1.99-3.93,2.98-.86.43-1.21,1.48-.78,2.34.31.61.92.96,1.56.96Zm-67.08-54.89c-1.47,0-2.91.23-4.58.5-.99.16-2.07.33-3.31.48-.96.11-1.64.98-1.53,1.94.1.89.86,1.54,1.73,1.54.07,0,.14,0,.21-.01,1.29-.15,2.42-.33,3.45-.5,1.58-.25,2.83-.45,4.03-.45.96,0,1.74-.78,1.74-1.74s-.78-1.74-1.74-1.74Zm-4.99-.93c.12,0,.24-.01.37-.04.7-.15,2.79-.54,4.05-.54.96,0,1.74-.78,1.74-1.74s-.78-1.74-1.74-1.74c-1.89,0-4.67.59-4.78.61-.94.2-1.54,1.13-1.34,2.07.18.82.9,1.38,1.7,1.38Zm73.14,283.56c-.67-.45-1.54-.37-2.12.14-.66-.58-1.66-.58-2.32.02-.71.65-.77,1.75-.12,2.46.78.86,1.63,1.3,2.52,1.3.07,0,.13,0,.2,0,.63-.05,1.55-.34,2.32-1.49.54-.8.32-1.88-.48-2.42Zm9.09-11.35c-.57-.16-1.16,0-1.58.35-.62-.15-1.31.05-1.75.57-.62.74-.53,1.84.21,2.46.73.61,1.39.8,1.93.8.26,0,.49-.04.69-.1.48-.15,1.34-.6,1.71-1.95.26-.93-.29-1.87-1.22-2.13Zm3.2,10.18c-.1.07-.2.1-.31.11-.96.06-1.69.89-1.63,1.85.06.92.83,1.63,1.74,1.63.04,0,.07,0,.11,0,.72-.05,1.39-.27,1.99-.66.81-.53,1.04-1.61.51-2.41-.53-.81-1.61-1.04-2.41-.51Zm-33.67-21.4c-.65-.52-1.6-.52-2.24.05-.72.64-.8,1.74-.16,2.46.58.66,1.35,1.01,2.18,1.01.21,0,.43-.02.65-.07.94-.2,1.54-1.13,1.34-2.07-.18-.84-.96-1.41-1.77-1.38Zm8.35,8.94c-.39-.15-.84-.15-1.26.01-.89.36-1.33,1.37-.97,2.27.32.8.94,1.34,1.69,1.48.12.02.25.04.4.04.55,0,1.24-.21,1.96-.98.66-.71.59-1.79-.11-2.44-.47-.44-1.12-.55-1.71-.38Zm8.22-1.65h-.77c-.96,0-1.74.78-1.74,1.74s.78,1.74,1.74,1.74h.77c.96,0,1.74-.78,1.74-1.74s-.78-1.74-1.74-1.74Zm-5.65-7.29c-.27-.74-1.02-1.24-1.83-1.14-.96.11-1.65.97-1.54,1.92.14,1.25,1.05,2.62,3.2,2.7.02,0,.05,0,.07,0,.93,0,1.7-.73,1.74-1.67.04-.95-.69-1.76-1.64-1.81Zm-97.07,5.13c-.96.1-1.65.96-1.55,1.92.05.51.32.94.71,1.22.28.39.71.65,1.23.71.06,0,.13,0,.19,0,.88,0,1.64-.66,1.73-1.56.1-.91-.32-1.47-.57-1.73-.26-.26-.82-.67-1.73-.57Zm10.91,13.08c-.94-.2-1.87.41-2.06,1.35-.16.79.23,1.56.92,1.91.29.58.9.96,1.55.96.12,0,.24-.01.36-.04.94-.2,1.55-1.12,1.35-2.06-.22-1.08-1.04-1.9-2.12-2.12Zm5.16,11.78c.21.08.42.12.63.12.7,0,1.36-.42,1.63-1.11.33-.84-.05-1.79-.84-2.19-.37-.74-1.24-1.13-2.06-.88-.92.28-1.44,1.25-1.16,2.18.26.86.92,1.54,1.81,1.89Zm-29.05-27.97c-.55-.79-1.64-.98-2.43-.43-.79.55-.98,1.64-.43,2.43.24.35.49.72.72,1.08.33.53.9.81,1.48.81.32,0,.64-.09.93-.27.81-.51,1.06-1.59.54-2.41-.26-.41-.54-.83-.81-1.22Zm10.08,21.18h.03c.96,0,1.74-.8,1.73-1.76,0-.83-.59-1.52-1.37-1.69-.61-.53-1.52-.58-2.19-.07-.77.58-.92,1.67-.34,2.44.53.69,1.29,1.08,2.15,1.08Zm6.72,10.46c.3.2.64.3.97.3.56,0,1.11-.27,1.45-.77.54-.8.33-1.88-.47-2.42-.23-.15-.39-.36-.45-.57-.26-.93-1.23-1.47-2.16-1.2-.93.26-1.46,1.23-1.2,2.16.29,1,.94,1.89,1.86,2.51Zm-25.35-12.69c.01.95.79,1.72,1.74,1.72h.03c.96-.01,1.73-.81,1.72-1.77-.02-1.08-.51-2.09-1.38-2.84-.73-.63-1.83-.54-2.46.2-.63.73-.54,1.83.2,2.46.15.13.16.2.16.23Zm-6.87-9.75c-.91.3-1.41,1.29-1.11,2.21l.38,1.15,3.31-1.11-.38-1.14c-.3-.91-1.29-1.41-2.21-1.11Zm65.53,45.6c-2.02,0-3.98-.2-6.06-.41-1.32-.13-2.68-.27-4.05-.35-1.28-.08-2.38.9-2.46,2.18-.08,1.28.9,2.38,2.18,2.46,1.27.08,2.53.2,3.85.34,2.1.21,4.27.43,6.53.43,1.28,0,2.33-1.04,2.33-2.33s-1.04-2.33-2.33-2.33Zm-1.28,8.96c-1.77,0-2.76-.16-3.89-.34-.96-.15-2.04-.33-3.65-.42-1.28-.08-2.38.9-2.46,2.18-.08,1.28.9,2.38,2.18,2.46,1.38.08,2.3.23,3.19.37,1.22.2,2.49.4,4.63.4,1.28,0,2.33-1.04,2.33-2.33s-1.04-2.33-2.33-2.33Zm-.26,8.7c-1.97,0-2.91-.1-4.1-.23-.83-.09-1.77-.19-3.18-.28-1.28-.08-2.38.9-2.46,2.18-.08,1.28.9,2.38,2.18,2.46,1.31.08,2.17.17,2.96.26,1.28.14,2.38.26,4.61.26,1.28,0,2.33-1.04,2.33-2.33s-1.04-2.33-2.33-2.33Zm22.63-18.07c-1.37,0-2.74.04-4.06.08-2.08.07-4.05.14-6.07,0-1.28-.08-2.39.89-2.47,2.17-.09,1.28.89,2.39,2.17,2.47.94.06,1.88.09,2.8.09,1.27,0,2.52-.04,3.74-.09,1.33-.05,2.59-.08,3.87-.08,1.27.02,2.33-1.02,2.34-2.31,0-1.28-1.03-2.33-2.31-2.34Zm-1.87,8.86c-1.63-.02-2.71.09-3.67.18-1.15.11-2.14.2-3.91.08-1.29-.09-2.39.89-2.47,2.17-.09,1.28.88,2.39,2.17,2.47.7.05,1.31.07,1.85.07,1.12,0,1.97-.08,2.8-.16.85-.08,1.73-.16,3-.16.07,0,.14,0,.22,0,1.28,0,2.32-1.03,2.33-2.31,0-1.28-1.03-2.33-2.31-2.34Zm21.89-9.29c-1.37.09-2.73.23-4.05.38-2.07.22-4.03.43-6.05.44-1.28,0-2.32,1.05-2.31,2.34,0,1.28,1.05,2.31,2.33,2.31h.01c2.25-.01,4.42-.24,6.52-.47,1.33-.14,2.58-.28,3.85-.36,1.28-.08,2.25-1.19,2.17-2.47-.08-1.28-1.18-2.25-2.47-2.17Zm-1.23,8.97c-1.61.1-2.69.28-3.65.44-1.14.19-2.12.35-3.89.36-1.28,0-2.32,1.05-2.31,2.34,0,1.28,1.05,2.31,2.33,2.31h.01c2.14-.01,3.41-.22,4.63-.42.89-.15,1.81-.3,3.19-.39,1.28-.08,2.25-1.19,2.17-2.47-.08-1.28-1.19-2.25-2.47-2.17Zm-21.25,9.26c-1.42-.01-2.36.03-3.19.06-1.19.05-2.14.09-4.11-.04-1.29-.09-2.39.89-2.47,2.17-.09,1.28.88,2.39,2.17,2.47,1.11.07,1.95.1,2.66.1s1.31-.02,1.95-.05c.71-.03,1.48-.06,2.58-.06.13,0,.27,0,.41,0,1.28,0,2.32-1.03,2.33-2.31,0-1.28-1.03-2.33-2.31-2.34Z"/>
        </g>
      </g>
    </g>
  </g>
  <g id="_レイヤー_2-2" data-name="レイヤー 2">
    <circle class="cls-1" cx="220.7" cy="220.7" r="219.2"/>
  </g>
</svg>