<?xml version="1.0" encoding="UTF-8"?>
<svg id="_レイヤー_2" data-name="レイヤー 2" xmlns="http://www.w3.org/2000/svg" xmlns:xlink="http://www.w3.org/1999/xlink" viewBox="0 0 441.41 441.41">
  <defs>
    <style>
      .cls-1 {
        fill: none;
        stroke: #000;
        stroke-miterlimit: 10;
        stroke-width: 3px;
      }

      .cls-2 {
        clip-path: url(#clippath);
      }

      .cls-3, .cls-4 {
        fill: #fff;
      }

      .cls-5 {
        fill: #f2e4d7;
      }

      .cls-5, .cls-6, .cls-7, .cls-4 {
        stroke-width: 0px;
      }

      .cls-6 {
        fill: #232323;
      }

      .cls-7 {
        fill: #d4e2cf;
      }
    </style>
    <clipPath id="clippath">
      <circle class="cls-4" cx="220.98" cy="221.95" r="219.2"/>
    </clipPath>
  </defs>
  <g id="_レイヤー_1-2" data-name="レイヤー 1">
    <g>
      <circle class="cls-3" cx="220.98" cy="221.95" r="219.2"/>
      <g class="cls-2">
        <g>
          <path class="cls-5" d="m168.56,498.53c3.47,20.8,14.38,236.77,15.46,254.92,0,0,16.61,5,22.4,3.58,4.2-1.03,12.59-3.94,13.39-6.72,1.91-6.58.58-321.39.58-321.39l2.59-13.82-57.75-5.35c-.84,25.96-.55,65.55,3.32,88.77Z"/>
          <path class="cls-5" d="m278.9,498.53c-3.47,20.8-12.89,236.77-13.97,254.92,0,0-16.61,5-22.4,3.58-4.2-1.03-12.59-3.94-13.39-6.72-1.91-6.58-2.31-321.39-2.31-321.39l-2.59-13.82,58.82-7.84c.84,25.96-.28,68.04-4.15,91.26Z"/>
          <path class="cls-4" d="m332,333.22c.03-3.01-.87-10.05-2.28-20.33-4.77-34.64-25.97-97.56-28.19-106.27-3.79-14.92-4.91-23.68-16.64-33.6-9.85-8.33-38.54-23.09-38.54-23.09-2.77,5.25,1.24-12.17-7.88-11.62-4.07.25-.83,13.98-14.88,14.25-14.16.27-15.23-12.63-18.3-15.08-2.59-2.06-6.97,12.53-7.59,11.1,0,0-35.48,23.96-36.04,24.44-11.73,9.92-12.84,18.67-16.64,33.6-.2.78-2.36,10.8-3.06,14.91-2.29,12.18-5.21,28.68-8.35,43.79-1.87,7.28-4.85,19.29-6.32,23.52-1.86,5.37-12.1-1.31-12.1-1.31,0,0-1.69,22.43,2.14,37.61,3.38,13.4,11.98,19.64,16.8,21.36,5.81,2.07,10.37,2.07,16.18-10.37l13.07-29.66c20.87,31.98,119.12-33.88,119.12-33.88,0,0,19.01,64.78,20.05,64.99,9.75-14.73,15.76-11.62,15.76-11.62l13.69,7.26Z"/>
          <path class="cls-7" d="m280.7,283.21s2.08-19.8,2.77-24.46c.91-6.12-2.49-22.82-4.15-27.79-1.73-.35-2.89-19.01-4.79-19.33l-.05-.72c.28-19.64-.28-34.02-5.25-50.33l-12.17-6.08c4.98,16.32,5.81,34.02,5.53,53.65l-.73,1.72c-19.81-2.3-43.39-3.2-59.3-2.32-6.16.34-12.29,1.03-18.39,1.9l-.12-1.29c-.28-19.64.55-37.33,5.53-53.65l-12.17,6.08c-4.98,16.32-5.53,30.7-5.25,50.33l-.04.38c-2.02.29-4.79,22.11-5.21,23.4-2.07,6.37-4.63,16.79-3.73,22.82.69,4.65.97,20.05.97,20.05,0,0-14.82,272.01-18.07,269.74,0,0,45,6.51,71.77,6.51h10.89c26.77,0,70.93-8.83,70.93-8.83,0-3.44-18.95-261.77-18.95-261.77Z"/>
          <path class="cls-4" d="m303.24,339.17c-2.98-5.21-10.71-9.47-17.17-9.47h-127.99c-6.46,0-14.19,4.26-17.17,9.47l-6.49,11.33c-2.98,5.21-.14,9.47,6.32,9.47h162.68c6.46,0,9.31-4.26,6.32-9.47l-6.49-11.33Z"/>
          <path class="cls-5" d="m305.45,309.6c-5.48-2.12-12.96-1.31-19.69-.13,8.25-7.44,17.72-18.79,4.61-22.43-8.2-2.28-19.97,1.99-27.74,4.17-13.06,3.68-25.69,7.96-38.18,13.38-22.09,9.6-43.74,19.01-63.92,32.26-4.2,2.76-16.94,14.3-8.79,19.51,1.81,1.71,4.12,2.79,6.78,3.39-.33,1.87.21,3.67,2.15,5.2,10.79,12.44,45.9-.19,59.2-3.78,8.92-2.41,18.05-3.91,26.91-6.6,15.41-4.66,29.59-9.64,43.58-17.65,5.42-3.1,32.73-20.5,15.08-27.33Z"/>
          <path class="cls-5" d="m166.91,341.81c-10.52.52-20.09,7.89-25.31,17.33l55.45.28-.69-1.94c-6.74-10.93-16.38-16.32-29.44-15.67Z"/>
          <path class="cls-5" d="m229.54,338.4c-6.54-.46-17.38,3.08-22.82,7.05-3.57,2.61-7.07,8.57-7.88,12.86l54.62,1.66-.69-2.49c-2.07-8.71-5.39-17.84-23.23-19.08Z"/>
          <path class="cls-5" d="m252.36,357.49l1.11,2.49,48.26-1.66c-7.03-25.46-39.02-22.87-49.36-.83Z"/>
          <path class="cls-4" d="m137.45,380.63c0,3.26,2.64,5.89,5.89,5.89h157.9c3.01,0,5.45-2.44,5.45-5.45l4.15-25.25-4.56,4.15-168-.41-4.98-3.73,4.15,24.8Z"/>
          <path class="cls-4" d="m332,333.22s-10.37-11.41-17.84-6.84c-7.47,4.56-11.62,11.2-11.62,11.2l8.3,18.25c-2.79,1.02-3.31,6.01-4.55,8.62-1.85,3.9-5.76,15.33-4.44,17.52,2.38,2.31,4.78.31,6.99-2.83l-4.5,7.1c12.44,8.3,19.18,3.22,22.3-5.15,2.07-5.56,8.54-15.72,9.81-21.52.72-3.29.25-9.01-4.45-26.36Z"/>
          <path class="cls-4" d="m130.78,328.83c-6.09,1.29-12.09,6.96-13.67,12.9-1.08,4.06-.77,7.11.94,9.31,2.46,3.18,6.64,3.14,10,3.13.99,0,1.92-.01,2.74.05.1,0,.2.01.29.01,1.95,0,3.6-1.5,3.75-3.48.16-2.07-1.39-3.89-3.47-4.05-1.13-.09-2.27-.08-3.37-.07-1.22,0-3.22.02-3.96-.25-.04-.3-.07-1.1.35-2.72.77-2.89,4.33-6.7,7.95-7.46,1.97-.42,3.5.17,4.85,1.84,1.3,1.62,3.67,1.88,5.3.58,1.62-1.3,1.88-3.68.58-5.3-3.14-3.91-7.5-5.51-12.29-4.49Z"/>
          <path class="cls-4" d="m312.44,329.25c-4.77-1.01-9.14.58-12.29,4.49-1.3,1.62-1.05,3.99.58,5.3,1.63,1.3,3.99,1.05,5.3-.58,1.34-1.67,2.88-2.26,4.85-1.84,3.62.77,7.18,4.57,7.94,7.46.43,1.62.4,2.42.35,2.72-.74.28-2.73.26-3.96.25-1.74-.01-3.54-.03-5.28.33-2.04.42-3.35,2.41-2.94,4.45.37,1.78,1.94,3.01,3.69,3.01.25,0,.51-.03.76-.08.96-.2,2.36-.19,3.71-.18,3.35.02,7.53.05,10-3.13,1.71-2.21,2.02-5.25.94-9.31-1.58-5.95-7.58-11.61-13.67-12.9Z"/>
          <path class="cls-4" d="m118.13,99.17c-3.97,4.47-2.98,9.86.46,14.2-3.68,2.67-4.27,9.48-.23,12.18-3.01,2.79-1.27,5.57.7,8.15,1.14,1.49,2.02,1.59,2.8,3.47,1.18,2.85.41,46.47.02,51.16-.39,4.69-2.26,8.21-6.41,2.41-1.82-2.55-15.15-45.89-14.84-48.96.2-2.02,1.01-2.37,1.67-4.13,1.14-3.03,1.99-6.2-1.7-8,3.09-3.76.54-10.11-3.76-11.59,2.03-5.14,1.42-10.59-3.68-13.72-6.62-4.06-8.81.97-7.97,5.5,1.18,6.43,14.31,71.86,26.67,88.57,4.44,6.01,13.5,6.74,16.47-3.53,4.98-17.22-.23-86.26-.97-92.75-.52-4.58-4.07-8.75-9.23-2.95Z"/>
          <path class="cls-4" d="m138.89,235.12c2.22-9.64,4.05-23.3,3.9-29.72-.03-1.43-.1-2.97-.98-4.11-.5-.64-1.2-1.08-1.9-1.5-1.13-.67-3.04-1.55-5.08-2.38l.15-.16c-.65-1.42-2.85-8.69-4.45-15.92-.56-2.53-1.77,6.38-1.7,13.98-1.57-.43-2.74-.59-3.01-.29-.55.63-.54,1.57-.38,2.39.73,3.64.79,2.41.79,2.41,1.16,1.14-1.87,3.11-7.05,3.11-3.94-.21-6.83-3.77-8.92-6.22-.39-.46-.89-.81-1.43-1.07l-1.25-4.35c3.91-1.76,5.66-2.56,5.23-5.03-.44-2.53-5.64-2.56-9.25-1.79-5.47,1.17-5.75,7.12-2.96,10.43l.63,1.52c-.77.45-1.45,1-1.98,1.62-3.98,4.76.77,14.48,2.05,18.24,1.59,4.66,16.79,23.26,16.79,23.26l.39,1.78c.68,11.57.39,29.57.29,50.17l14.73-.41,12.44-6.22c-.7-11.39-4.99-39.67-7.06-49.77Z"/>
          <path class="cls-4" d="m254.58,94.83l-2.23-7.54-11.62-5.25s-7.47-6.64-9.96-16.59c-1.53-6.14-10.61-12.45-15.76-11.34-2.46.53-12.13,4.53-16.53,11.46-4.4,6.93-8.68,19.8-8.68,19.8.25,2.54.28,4.27.89,8.18,0,0-7.84.69-5.4,12.04,2.65,12.34,9.84,10.72,9.84,10.72.65,2.97,1.11,5.09,1.12,5.1,3.34,6.7,6.57,9.5,11.77,13.02,1.73,1.18-1.03,8.72-1.03,8.72,0,0,6.93,10.01,16.59,9.4,8.85-.55,15.49-10.23,15.49-10.23l-1.7-6.93s7.5-5.43,11.04-14.32c.22-.56,3.16-2.83,3.38-3.83l3.53-1.42c6.76-7.86,8.17-20.7-.75-21Z"/>
          <path class="cls-4" d="m268.95,98.91c-.34-4.82-4.15-23.51-4.98-28.21l-6.36-7.19-32.36-24.89-4.98,4.7c-5.64,3.09-38.17,27.38-38.17,27.38-.83,4.7-4.64,23.39-4.98,28.21-.64,9.09-1.66,24.89,7.74,34.02l1.94.28c6.64-4.98,13.44-1.35,18.53.55l-6.91-9.13-3.32-7.19s-7.87-.79-9.8-11.85c-1.94-11.06,5.4-12.04,6.76-13.04l-1.46-10.46s9.2-17.2,11.69-18.86c.92-.61,9.68-9.68,16.32-9.13l12.65,9.85c.57,1.24,1.09,2.51,1.6,3.74,1.75,4.19,3.3,8.59,6.2,12.13,3.44,4.21,8.44,6.09,13.68,6.54l.37,7.54s8.93.86,6.99,9.16c-1.94,8.3-4.76,12.78-4.76,12.78l-5.2,1.6-9.4,16.32c5.08-1.9,11.89-5.53,18.53-.55l1.94-.28c9.4-9.13,8.39-24.93,7.74-34.02Z"/>
          <path class="cls-5" d="m260.38,47.2c-3.84-5.68-7.16-8.43-13.12-11.46-7.9-4.03-17.31-5.96-22.01-6.24h-3.87c-4.7.28-14.38,2.21-22.28,6.24-5.95,3.03-9.27,5.78-13.12,11.46-2.82,4.17-7.19,19.91-5.25,27.38l.76-1.69c1.65-3.23,4.43-6.34,7.26-8.87-.03,7.84,5.36,9.41,10.5,7.68,5.45-1.83,10.23-6.53,21.02-5.98h5.81c10.79-.55,15.57,4.15,21.02,5.98,5.14,1.73,10.53.16,10.5-7.68,3.34,2.96,6.59,6.74,8.02,10.55,1.94-7.47-2.44-23.21-5.25-27.38Z"/>
          <path class="cls-6" d="m234.89,95.1c-.02-2.29,1.19-4.16,2.7-4.18,1.52-.02,2.77,1.83,2.79,4.12.02,2.29-1.18,4.16-2.7,4.18-1.52.02-2.77-1.82-2.8-4.12Zm-25.35-.23c-.02-2.29-1.27-4.14-2.79-4.12-1.52.02-2.73,1.89-2.7,4.18.03,2.29,1.28,4.13,2.79,4.12,1.52-.01,2.72-1.89,2.7-4.18Zm11.49,17.53c.28.14.57.21.87.21.68,0,1.34-.37,1.67-1.02.48-.92.12-2.06-.81-2.54-.41-.21-.62-.37-.71-.45.05-.23.2-.63.32-.94.42-1.11.98-2.63.97-4.77,0-1.04-.85-1.87-1.88-1.87h0c-1.04,0-1.88.85-1.88,1.89,0,1.45-.39,2.5-.74,3.43-.61,1.64-1.54,4.12,2.19,6.05Zm-12.86-28.31c.51.47,1.31.43,1.77-.08.47-.51.43-1.31-.08-1.77-1.06-.97-2.73-1.47-4.54-1.39-1.77.08-3.35.71-4.24,1.69-.47.51-.43,1.31.08,1.77.24.22.54.33.85.33.34,0,.68-.14.93-.41.43-.47,1.44-.82,2.5-.87,1.13-.05,2.18.23,2.73.74Zm14.22,42.1c.39,0,.78-.01,1.15-.04,4.38-.33,7.8-2.4,8.93-5.38.37-.97-.12-2.06-1.1-2.43-.97-.36-2.06.12-2.43,1.1-.59,1.55-2.87,2.74-5.69,2.96-2.69.2-5.97-.58-7.22-2.79-.51-.91-1.66-1.23-2.57-.72-.91.51-1.23,1.66-.72,2.57,1.98,3.51,6.08,4.74,9.63,4.74Zm116.53,233.92c-.83,3.77-3.44,8.81-5.98,13.68-1.62,3.12-3.15,6.06-3.94,8.18-1.74,4.67-4.91,8.02-8.93,9.45-1.45.51-2.98.77-4.57.77-3.08,0-6.36-.96-9.55-2.85-.49-.29-.83-.72-1.03-1.2-1.12.58-2.37.9-3.67.9h-10.29c11.2,153.51,11.2,155.35,11.2,155.96,0,1.2-.85,2.22-2.02,2.46-.84.17-10.55,2.1-23.38,4.11-2.59,45.71-5.63,114.4-7.64,159.86-1,22.57-1.72,38.87-1.99,43.42-.07,1.12-.86,2.05-1.95,2.3-.57.13-2.61.58-5.31,1.08,3.75,10.83,12.42,29.03,13.87,30.82,7.77,9.43,6.49,16.63,5.05,20.08-2.21,5.26-7.06,7.98-10.63,8.29-.87.08-1.75.11-2.62.11-7.21,0-14.23-2.57-19.57-7.23-5.52-4.82-8.76-11.38-9.11-18.48-.27-5.31-1.8-8.89-3.28-12.35-2.32-5.43-4.73-11.05-1.43-21.73.06-.19.14-.36.24-.53-2.39-.87-4.24-2.1-4.83-4.11-.35-1.21-1.41-4.9-2.73-196.76h-1.94c-.28,191.87-1.31,195.44-1.7,196.78-.7,2.43-3.24,3.71-6.34,4.6,0,.01.01.03.02.04,3.3,10.67.9,16.29-1.43,21.73-1.48,3.46-3.01,7.04-3.28,12.35-.35,7.1-3.59,13.67-9.11,18.48-5.35,4.66-12.36,7.23-19.57,7.23-.87,0-1.75-.04-2.62-.11-3.57-.31-8.43-3.04-10.63-8.29-1.45-3.45-2.72-10.65,5.05-20.08,1.46-1.81,10.28-20.33,13.97-31.12-1.88-.37-3.23-.67-3.68-.77-1.09-.25-1.89-1.18-1.95-2.3-.22-3.66-.81-15.18-1.63-31.13-2.17-42.28-6.19-120.63-9.38-170.81-13.97-1.57-24.65-3.11-24.87-3.14h0c-.39-.06-.76-.2-1.08-.43-.95-.67-1.32-1.9-.89-2.98.08-.21.19-.41.33-.58.98-4.01,3.71-30.7,11.2-156.76h-11.92c-4.56,0-8.28-3.65-8.4-8.18l-4.03-24.11c-.1,0-.2,0-.3-.01-.73-.06-1.64-.05-2.53-.04-3.76.02-8.79.05-12-4.1-2.22-2.87-2.68-6.63-1.38-11.5.67-2.54,2.01-5,3.78-7.17-1.79-3.14-3-6.32-3.55-9.47-1.37-7.88-2.32-23.42-2.25-36.95,0-.02,0-.04,0-.06,0-.09.02-.19.03-.28.01-.07.02-.15.04-.22.02-.08.05-.16.08-.24.03-.08.05-.15.08-.23.03-.07.07-.14.11-.21.04-.07.08-.14.13-.21.05-.07.1-.13.16-.19.05-.06.1-.12.16-.17.06-.06.12-.11.19-.16.06-.05.13-.1.2-.15.06-.04.13-.07.2-.11.08-.04.16-.08.25-.12.02,0,.04-.02.06-.03.05-.02.1-.02.15-.04.09-.02.17-.05.26-.06.09-.01.17-.02.25-.03.06,0,.11-.02.16-.02h.01s.05,0,.07,0c.09,0,.17.02.25.03.08.01.17.02.25.04.07.02.14.04.2.06.09.03.18.06.26.1.06.03.12.06.18.1.02,0,.03.02.05.03.08-18.56.06-34.44-.47-43.66l-.22-1c-3.28-4.03-15.26-18.93-16.84-23.56-.18-.52-.43-1.16-.71-1.89-1.96-5.07-5.24-13.57-.9-18.77.22-.27.48-.51.75-.74-1.68-2.49-2.19-5.68-1.26-8.39.77-2.25,2.39-3.9,4.63-4.79-10.22-27.72-18.66-71.82-18.74-72.26-.71-3.86.35-7.28,2.76-8.94,1.64-1.13,4.54-1.9,9,.84,5.04,3.09,7.01,8.56,5.42,14.63,1.96,1.37,3.48,3.52,4.18,6.01.6,2.12.52,4.23-.18,6.07,3.19,3.14,1.47,7.72.75,9.63-.33.87-.68,1.47-.96,1.95-.34.58-.48.82-.55,1.45.24,3.97,12.41,43.98,14.42,47.41.55.77.99,1.25,1.3,1.53.19-.53.41-1.41.52-2.76.44-5.19,1.03-46.17.13-50.07-.25-.58-.45-.77-.95-1.22-.41-.38-.92-.85-1.49-1.59-1.24-1.61-4.21-5.5-2.07-9.43-1.2-1.56-1.89-3.55-1.93-5.75-.05-2.59.78-5.09,2.26-6.97-3.29-5.34-2.99-11.15.93-15.57,3.48-3.91,6.47-4.01,8.37-3.41,2.79.88,4.79,3.85,5.24,7.75.52,4.61,4.27,52.3,2.76,79.4.4.32.7.76.85,1.29.45,1.67.89,3.33,1.31,4.89.85,3.19,1.8,6.73,2.28,8.21,1.68.72,3.16,1.43,4.14,2.02.9.53,1.85,1.14,2.61,2.13.09.12.16.24.24.36,2.94-11.86,5.29-19.97,15.99-29.03,3.27-2.76,8.05-5.98,14.55-9.8.14-.5.27-.98.42-1.46.2-.66.66-1.21,1.28-1.51l12.17-6.08c.74-.37,1.61-.33,2.32.07l.77-.42c2.11-1.14,4.14-2.23,6.02-3.26.04-.02.09-.04.13-.06,2.02-8.8,3.95-11.92,5.47-12.98-.16-.06-.31-.12-.47-.18-4.71-1.87-9.59-3.8-14.38-.21-.85.63-1.96.65-2.81.14-.01,0-.03,0-.04,0-.05.01-.09.03-.14.04-.15.03-.3.04-.46.04h0c-.17,0-.34-.02-.51-.05-.05-.01-.1-.03-.15-.04-.12-.03-.23-.07-.34-.11-.06-.03-.12-.06-.17-.09-.1-.05-.19-.1-.28-.17-.06-.04-.11-.09-.17-.14-.04-.04-.09-.06-.13-.1-10.33-10.03-9.14-26.92-8.5-35.99.26-3.7,2.34-14.51,3.86-22.4.03-.16.06-.32.09-.48,0,0,0-.01-.01-.02-.04-.06-.08-.12-.11-.19-.05-.1-.08-.21-.12-.32-.01-.04-.04-.08-.05-.13,0,0,0-.01,0-.02,0-.03-.01-.06-.02-.08-2.06-8.24,2.49-24.67,5.63-29.31,3.96-5.86,7.51-8.96,14.06-12.29,8.37-4.26,18.5-6.23,23.28-6.51.05,0,.1,0,.15,0h3.87s.1,0,.15,0c5.57.33,15.14,2.5,23,6.51,6.55,3.34,10.09,6.44,14.06,12.29,3.14,4.64,7.69,21.07,5.63,29.31,0,.03,0,.05-.02.08,0,0,0,.02,0,.02,0,.01-.01.02-.01.03-.07.24-.17.47-.31.69-.01.02-.03.05-.04.07-.04.06-.09.11-.14.17.01.06.02.11.03.17,1.52,7.89,3.6,18.7,3.86,22.4.64,9.01,1.8,25.74-8.31,35.79,0,0,0,0,0,0,0,0,0,0,0,0-.07.06-.12.14-.18.2-.04.04-.09.07-.13.1-.06.05-.11.1-.17.14-.09.06-.18.12-.28.17-.06.03-.11.06-.17.09-.11.05-.22.08-.34.11-.05.01-.1.03-.15.04-.17.03-.34.05-.51.05h0c-.15,0-.31-.02-.46-.04-.05,0-.09-.02-.14-.04-.01,0-.02,0-.04,0-.85.52-1.96.5-2.81-.14-4.79-3.59-9.66-1.66-14.38.21-.42.17-.81.32-1.21.47,1.39,1.23,3.08,4.28,4.85,11.61.45-.02.91.07,1.33.3l3.73,2.06c1.33.74,2.72,1.5,4.12,2.28.64-.23,1.34-.21,1.97.1l12.17,6.08c.62.31,1.08.86,1.28,1.51.15.48.29.98.43,1.49.21.06.41.14.61.26,6.22,3.78,10.75,6.89,13.86,9.51,11.17,9.45,13.24,17.85,16.37,30.57.34,1.38.7,2.82,1.08,4.32,1.21,4.76,4.91,17.01,9.2,31.18,8.06,26.65,18.1,59.82,18.84,67.23,1.38,13.82,2.76,34.17,2.77,34.37.03.38-.04.75-.18,1.09,4.07,10.53,4.95,17.29,4.3,20.23Zm-10.46-36.49c-4.43-7.62-10.8-6.86-14.2-5.73-.23.08-.46.11-.69.11-.7,2.87-2.74,5.79-5.32,8.52.18-.02.35-.02.53-.03,3.34-3.08,6.91-4.28,10.64-3.55,3.87.75,7.15,3.49,9.66,6.43-.13-1.7-.27-3.55-.42-5.48-.07-.09-.15-.17-.21-.27Zm-126.8,33.84h48.21c0-.26.05-.52.14-.77-2.09-8.11-5.59-14.73-20.62-15.78-5.69-.4-15.98,2.8-21.16,6.58-2.62,1.91-5.45,6.3-6.56,9.98Zm6.55-15.89c.3-.17.61-.34.92-.5-1.17-.57-2.29-.85-3.24-.8.74.35,1.51.79,2.32,1.3Zm26.11-5.85c.32.21.56.51.7.84,1.11.2,2.16.45,3.15.72-1.87-1.88-4.4-3.35-6.67-3.64-.37-.05-.71-.05-1.04-.04,1.2.53,2.49,1.23,3.86,2.12Zm18.76,14.28c.24-.08.48-.15.71-.23.18-.06.35-.09.53-.11,6.57-8.2,16.64-12.86,26.91-11.99.86.07,1.7.2,2.52.35.22-.32.51-.6.88-.79,1.53-.81,3.05-1.64,4.51-2.47,8.4-4.81,20.06-13.89,19.67-19.02-.11-1.47-1.54-2.74-4.25-3.79-6.15-2.38-15.94-.5-23.08.88-1.26.24-2.46.47-3.58.67-14.29,2.54-27.04,5.64-38.98,9.48-18.89,6.08-36.82,11.87-54.34,19.81,4.98,2.54,9.26,6.43,12.82,11.68,1.55-4.02,4.39-8.21,7.29-10.58-1.49-.77-2.43-.96-2.92-.99-1.04-.06-1.83-.95-1.77-1.99.02-.36.15-.69.34-.97.05-.21.14-.42.27-.61,1.1-1.58,2.68-2.54,4.58-2.77,2.44-.3,5.38.69,8.1,2.65,3.9-1.55,8.17-2.68,11.92-3.13-.67-.3-1.13-.98-1.11-1.76.01-.44.17-.83.42-1.15.07-.2.16-.39.29-.56,1.66-2.12,4.21-3.07,7.18-2.69,4.74.61,9.95,4.56,11.86,8.99.1.24.15.48.15.72,4.72,2.63,7.38,6.35,9.08,10.38Zm-83.42-139.11c0-.48.04-4.62.29-10.51-.7,3.64-1.96,7.46-3.27,11.42-2.36,7.08-4.79,14.41-3.84,20.8.17,1.13.47,4.22.83,8.26.35-1.86.72-3.75,1.1-5.65,2.53-12.73,4.18-19.3,5.46-22.73-.35-.44-.56-.98-.56-1.58Zm-10.6,112.82c-.5,1.2-1,2.37-1.49,3.49.17,0,.35-.02.53-.02h.77c.07-1.16.13-2.33.2-3.47Zm123.71-82.85c.46-4.13.83-7.21.98-8.26.95-6.39-1.49-13.72-3.84-20.8-1.26-3.78-2.46-7.44-3.17-10.94.2,5.03.26,8.7.27,9.75,1.23,2.29,2.59,8.49,5.16,26.02.21,1.41.41,2.83.61,4.23Zm.52,43.06c.22-.01.43-.01.65-.02-.2-.63-.39-1.23-.58-1.81-.06.54-.1.94-.12,1.17l.05.67Zm-16.45,8.69c-1.23.37-2.4.71-3.5,1.02-13.97,3.93-26.35,8.27-37.86,13.27-22.38,9.72-43.51,18.9-63.54,32.05-.6.4-1.37.97-2.2,1.66,1.92-.61,3.89-1.01,5.87-1.2.05-.13.11-.25.18-.37,1-1.54,2.52-2.55,4.4-2.91,2.82-.54,6.3.4,9.3,2.53.26.18.44.42.58.68,5.32-2.48,10.73-4.77,16.18-6.91-2.38-1.35-4.45-2.11-5.78-2.05-.99.02-1.91-.77-1.96-1.81-.01-.36.08-.69.24-.98.03-.22.1-.45.22-.66,1.08-1.93,2.83-3.09,5.07-3.34,3.59-.41,8.33,1.74,11.68,5.25,5.03-1.83,10.07-3.57,15.11-5.25-2.83-1.51-5.36-2.34-6.97-2.23-1.04.07-1.94-.7-2.02-1.74-.03-.42.08-.82.29-1.15.04-.22.12-.43.25-.63,1.31-2.07,3.41-3.24,6.06-3.37,4.12-.21,9.2,2.26,12.2,5.89,2.25-.73,4.5-1.45,6.74-2.17,2.71-.87,5.46-1.7,8.26-2.5-4.22-3.11-8.74-5.2-11.17-5.05-1.07.07-1.93-.72-2-1.76-.03-.4.08-.78.28-1.1.04-.22.11-.44.24-.64,1.59-2.62,4.39-3.82,7.89-3.37,5.38.68,11.09,5.11,12.76,9.79,5.81-1.47,11.84-2.82,18.17-4.03-.29-.1-.56-.27-.78-.51-2.66-2.97-9.87-7.48-13.3-7.18-1.05.09-1.95-.69-2.03-1.72-.03-.42.07-.81.27-1.14.05-.2.13-.4.25-.58,2.31-3.56,7.42-4.06,12.42-1.2,4.19,2.39,7.68,6.98,5.48,11.42-.12.23-.28.42-.47.59,1.12-.21,2.23-.42,3.37-.62,1.1-.19,2.27-.42,3.51-.66,1.35-.26,2.75-.53,4.19-.79.09-.12.19-.24.3-.34,6.49-6.03,9.95-11.31,9.27-14.13-.33-1.36-1.87-2.43-4.57-3.18-6.36-1.77-15.91,1.07-22.89,3.15Zm-.06,7.84c-1.24-.71-2.68-1.23-3.98-1.34,2.48.97,5.02,2.48,7.12,4-.79-1.02-1.92-1.96-3.14-2.65Zm-26.38,7.05c-.73-.09-1.39-.08-1.96.04,4.2,1.36,8.75,4.47,11.39,6.65-1.49-3.16-5.7-6.22-9.44-6.69Zm-21.77,10.74c-.17,0-.32.05-.47.07,2.85.93,5.65,2.56,7.41,3.71,0,0,0,0,0,0,.37-.12.73-.24,1.1-.36-2.29-2.11-5.54-3.55-8.05-3.42Zm-24.16,9.09c-.06,0-.11.03-.17.04,2.28.82,4.58,2.17,6.35,3.35.37-.14.75-.28,1.13-.42-2.36-1.97-5.25-3.2-7.31-2.97Zm-48.84,30.14h47.73c-6.3-9.39-14.92-13.71-26.3-13.14-8.01.4-16.12,5.46-21.43,13.14Zm109.66-.15c0,.05,0,.1,0,.15h43.55c-2.92-8.69-9.42-14.05-18.04-14.79-10.32-.87-20.4,4.97-25.52,14.64Zm48.81.12c1.45-.08,2.6-.44,3.35-1.02-1.44-.89-2.52-2.33-2.88-4.08-.33-1.6,0-3.18.79-4.48l-3.2-5.58c-1.05-.16-2.08-.57-2.98-1.28-1.61-1.29-2.39-3.23-2.32-5.15-2.56,1.72-4.57,2.9-5.22,3.26-.53.3-1.07.6-1.61.9,6.72,3.16,11.75,9.25,14.06,17.42Zm5.36-12.51c1.98-.4,3.99-.39,5.76-.38.28,0,.69,0,1.14,0-.67-2.07-3.47-4.93-5.98-5.47-.91-.19-1.52-.1-2.37.96-.26.32-.55.61-.85.86l2.3,4.03Zm14.24-2.13c-1.33-5.02-6.61-10-11.76-11.09-3.86-.82-7.25.43-9.81,3.61-.43.54-.35,1.33.19,1.77.54.43,1.33.35,1.77-.19,1.95-2.43,4.42-3.34,7.33-2.72,4.68.99,8.88,5.6,9.85,9.28.41,1.55.55,2.8.41,3.73-.13.91-.75,1.67-1.61,1.99-.99.37-2.41.43-4.83.41-.32,0-.64,0-.95,0-1.37,0-2.64.04-3.83.28-.68.14-1.12.8-.98,1.48.14.66.81,1.12,1.48.98,1.21-.25,2.73-.24,4.21-.23,2.99.02,6.32.05,8.03-2.15,1.2-1.55,1.36-3.88.5-7.13Zm-50.12-174.74c1.41,7.68,2.25,16.7,2.74,24.5.37-1.07,1.43-1.79,2.62-1.67,1.38.14,2.38,1.38,2.24,2.76-.47,4.59,1.46,10.41,3.51,16.57,2.54,7.64,5.17,15.54,4.05,23.12-.35,2.38-1.84,15.92-3.17,28.33,0,.06.01.1.01.1.05.42-.01.82-.15,1.19-.31,2.85-.6,5.61-.87,8.14.08.12.17.23.23.37,1.1,2.21,2.58,6.4,4.53,12.76.6.11,1.19.23,1.77.39,4.58,1.27,7.31,3.57,8.1,6.83.82,3.35-.64,7.41-4.31,12.12l.62,2.24c3.88-.15,7.64.19,10.9,1.45,3.57,1.38,5.86,3.3,6.87,5.71,5.47-1.65,10.63-.73,14.74,2.49-.31-3.65-.63-7.28-.96-10.54-.69-6.93-11.07-41.23-18.65-66.28-4.31-14.23-8.02-26.52-9.26-31.4-.39-1.51-.74-2.96-1.09-4.36-3-12.19-4.82-19.54-14.74-27.94-2.3-1.94-5.51-4.21-9.72-6.88Zm-12.73-8.87c3.6,17.09,4.2,44.86,4.27,48.54,2.36.3,4.64.61,6.84.94-.16-7.62-.98-32.68-4.81-46.34l-6.3-3.15Zm-1.34-46.6c-1.25,2.63-2.83,4.86-4.47,6.12-.46.35-1,.52-1.53.52-.44,0-.86-.13-1.25-.35-.24.81-.48,1.51-.73,2.04-1.29,2.83-2.88,5.51-4.72,7.98,3.93-1.07,8.4-1.31,12.9,1.55,1.03-3.09.58-11.59-.21-17.87Zm6.96-13.5c-.24-3.4-2.37-14.47-3.78-21.8-.37-1.91-.69-3.57-.92-4.83-.71-1.11-1.56-2.21-2.48-3.26-.83,2.11-2.11,3.4-3.23,4.15-1.5,1.01-3.3,1.51-5.28,1.51-1.41,0-2.9-.26-4.44-.77-1.69-.57-3.24-1.34-4.88-2.16-1.59-.8-3.22-1.6-5.04-2.26,1.3,3.15,2.61,6.11,4.61,8.57,5.02,6.13,13.75,6.06,18.51,5.46,1.37-.17,2.63.81,2.8,2.18.17,1.38-.81,2.63-2.18,2.8-1.64.2-3.23.31-4.77.31-.1,0-.18-.01-.28-.01.07.62.14,1.29.21,1.92.06.56.12,1.09.17,1.53,3.04.48,5.21,2.43,6.15,5.59.48,1.61.59,3.47.43,5.4.54.31.96.82,1.15,1.46.25.85,1.71,8.48,2.06,15.95,2.17-7.64,1.58-16.26,1.19-21.75Zm-22.77-31.66c1.48.74,2.88,1.44,4.23,1.89,2.16.73,4.1.67,5.32-.15,1.06-.71,1.67-2.08,1.83-4.04-1.79-1.5-3.58-2.75-5.04-3.57-10.52-5.92-20.08-7.45-26.25-7.7h-1.28c-6.07.25-15.63,1.78-26.15,7.7-1.47.82-3.25,2.07-5.05,3.58.12,1.47.55,3.13,1.77,3.99,1.22.87,3.19.94,5.39.2,1.35-.46,2.75-1.15,4.23-1.89,4.12-2.06,9.27-4.63,17.65-4.21h5.68c8.39-.41,13.53,2.15,17.65,4.21Zm-60.68-1.12c3.52-4.11,7.96-7.48,10.89-9.13,11.39-6.41,21.79-8.07,28.51-8.34h1.48c6.82.27,17.22,1.93,28.61,8.34,2.93,1.65,7.37,5.02,10.89,9.13-.76-6.88-3.25-15.01-5.07-17.7-3.46-5.12-6.42-7.7-12.18-10.63-7.66-3.9-16.68-5.7-20.94-5.96h-3.72c-4.38.27-13.58,2.07-21.22,5.96-5.75,2.93-8.71,5.51-12.17,10.63-1.82,2.7-4.31,10.83-5.07,17.7Zm5.9,25.27c-.4-3.78-.68-7.11-.79-9.35,0,0,0,0,0-.01,0-.11,0-.22.02-.33,0-.06,0-.12.01-.17,0-.03.02-.06.02-.1.03-.13.06-.27.1-.39,0,0,0,0,0,0,.99-2.62,2.05-5.01,3.22-7.25-.46-.21-.9-.45-1.31-.74-1.07-.76-2.27-2.01-3.07-4.03-1.11,1.26-2.09,2.58-2.88,3.91-.22,1.16-.49,2.58-.8,4.17-1.41,7.33-3.54,18.4-3.78,21.8-.39,5.49-.98,14.11,1.19,21.75.36-7.47,1.81-15.11,2.06-15.95.11-.36.3-.68.53-.95-.17-1.72-.15-3.39.12-4.91.63-3.54,2.52-6.14,5.35-7.45Zm.65,5.71c-.44.58-.83,1.41-1.05,2.61-.73,4.1,1.09,9.78,3.36,12.9-.85-4.52-1.66-10.15-2.32-15.52Zm9.01,31.44c-1.83-2.51-3.42-5.23-4.69-8.11-.24-.54-.48-1.27-.73-2.13-.41.26-.88.41-1.35.41-.54,0-1.09-.18-1.55-.54-1.42-1.12-2.7-2.76-3.77-4.68-.71,6.14-1.05,13.86-.08,16.78,4.23-2.69,8.42-2.64,12.17-1.74Zm16.54,7.88c1.23.68,4.65,2.26,7.5,2.46,2.85-.17,6.28-1.71,7.43-2.33,7.23-3.57,13.36-10.07,16.92-17.89.86-1.89,2.12-7.97,3.37-16.27.21-1.37,1.49-2.31,2.86-2.11,1.37.21,2.32,1.49,2.11,2.86-.45,3-1.01,6.4-1.62,9.48,2.37-3.49,4.2-9.74,3.13-13.36-.51-1.72-1.46-2.03-2.41-2.11-.74-.06-1.37-.44-1.78-.98-1-.21-1.81-1.02-1.97-2.09-.05-.34-.18-1.51-.32-2.82-.11-1-.23-2.08-.33-2.92-5.37-.95-9.78-3.35-12.86-7.11-2.71-3.31-4.28-7.17-5.81-10.9-.25-.62-.51-1.24-.76-1.85l-.14-.33c-1.29-.12-2.66-.17-4.19-.09-.04,0-.09,0-.13,0h-5.81s-.09,0-.13,0c-7.11-.37-11.23,1.7-15.21,3.69-1.64.82-3.19,1.59-4.87,2.16-1.12.38-2.23.6-3.3.69-1.33,2.35-2.52,4.89-3.61,7.73.58,9.98,3.45,31.85,5.31,36.08,3.47,7.86,9.53,14.43,16.63,18.02Zm20.16,2.97c-.95.58-1.93,1.12-2.92,1.61-.12.07-4.23,2.28-8.5,2.81-.23.07-.47.12-.73.12h-.01c-.18,0-.36-.01-.54-.02-.15,0-.3.02-.45.02h-.07c-.26,0-.5-.05-.73-.13-4.27-.57-8.38-2.85-8.57-2.96-.79-.4-1.56-.84-2.32-1.3l-.28,2.1c0,.07-.03.13-.04.2,2.14,3.91,6.11,6.63,11.91,8.09.18.04.34.12.5.2.16-.08.32-.15.5-.2,6.34-1.58,10.52-4.68,12.48-9.19l-.21-1.35Zm-48.66,66.99c5.14-.68,10.44-1.24,15.82-1.54,15.99-.89,38.55.01,57.64,2.11-.13-5.84-.96-34.72-4.81-49.79-1.91-1.06-3.79-2.1-5.58-3.09l-1.88-1.04c-.39,3.21-2.32,7.2-5.25,10.57-3.98,4.57-8.87,7.05-13.86,7.05-.26,0-.53,0-.79-.02-1.38-.07-2.45-1.25-2.38-2.64.07-1.39,1.27-2.44,2.64-2.38,4.96.26,8.77-3.22,10.59-5.32,3.04-3.49,4.35-7.37,4.09-8.71-.69-3.33-1.64-6.73-2.48-9.07-.12.25-.29.47-.48.66-2.45,5.28-7.21,9.09-13.98,11.15-.11,2.27-.13,6.81-.07,10.71.02,1.39-1.08,2.53-2.47,2.55-.01,0-.03,0-.04,0-.29,0-.57-.06-.83-.15-.26.09-.54.15-.83.15-.01,0-.03,0-.04,0-1.39-.02-2.49-1.16-2.47-2.55.06-3.9.04-8.42-.07-10.71-7.14-2.17-12.05-6.3-14.36-12.05-.86,2.36-1.85,5.88-2.58,9.35-.25,1.3,1.06,5.18,4.1,8.67,1.83,2.1,5.6,5.57,10.59,5.32,1.39-.09,2.57.99,2.64,2.38.07,1.39-.99,2.57-2.38,2.64-.26.01-.53.02-.79.02-4.98,0-9.88-2.48-13.86-7.06-2.57-2.95-4.36-6.39-5.04-9.35-1.13.61-2.28,1.23-3.47,1.87l-2.63,1.42c-3.66,14.73-4.54,41.96-4.7,48.83Zm-11.88,1.78c2.24-.37,4.52-.73,6.84-1.07.1-5.09.78-31.58,4.26-48.09l-6.29,3.15c-3.78,13.48-4.62,38.04-4.8,46.01Zm-9.44,51.82c.71,8.82,1.31,16.48,1.37,17.19,0,.11,0,.22,0,.33,0,0-1.1,20.17-2.76,49.48h7.45c.06,0,.12.01.18.02,16.87-9.66,34.65-17.39,51.95-24.91,11.72-5.09,24.31-9.51,38.5-13.5,1.07-.3,2.22-.64,3.43-1,3.98-1.18,8.45-2.51,12.89-3.28l-.08-1.11c0-.15,0-.3,0-.45.09-.86,1.12-10.56,2.27-21.25-2.56-20.58-5.93-42.97-7.51-47.78-20.59-3.3-50.53-4.96-70.27-3.87-9.51.53-18.79,1.88-27.45,3.3-2.02,4.24-6.55,26.53-9.97,46.82Zm-54.12-67.75c.94,1.8,1.85,3.32,2.72,4.49,1.51,2.05,3.68,3.31,5.78,3.36,1.36.04,2.57-.44,3.6-1.38-.1-.31-.2-.62-.27-.96-.47-2.32.26-3.75.95-4.54.57-.65,1.3-.99,2.4-1.01,3.9-18.86-.57-82-1.48-89.99-.22-1.93-1.07-3.31-1.76-3.53-.48-.15-1.59.27-3.09,1.96-3.75,4.22-1.26,8.68.55,10.97.43.54.61,1.22.52,1.9-.09.68-.46,1.29-1.01,1.69-1.22.89-2.02,2.71-1.98,4.54.01.73.21,2.54,1.67,3.52.64.43,1.05,1.12,1.11,1.89.06.77-.23,1.52-.79,2.04-1.03.95-1.45,1.6.98,4.78.3.4.58.66.91.96.68.63,1.52,1.41,2.21,3.07,1.58,3.81.4,49.93.2,52.33-.37,4.39-1.76,6.94-4.13,7.59-3.35.92-5.97-2.74-6.82-3.94-.11-.15-.25-.45-.44-.86-.55.39-1.17.76-1.83,1.1Zm-4.69-10.83c.95-.06,2-.06,3.04.05-4.68-14.02-11.66-37.24-11.38-40.13.18-1.8.76-2.79,1.23-3.59.22-.38.42-.71.59-1.18,1.41-3.75.81-4.24-.45-4.86-.69-.34-1.19-.97-1.35-1.72-.16-.75.02-1.53.51-2.13,1.12-1.37.78-3.15.58-3.86-.5-1.76-1.79-3.28-3.21-3.77-.65-.22-1.18-.7-1.46-1.32-.29-.62-.31-1.33-.05-1.97,1.07-2.71,2.15-7.71-2.66-10.65-1.93-1.18-3.11-1.26-3.53-.98-.6.41-1.01,1.98-.66,3.88,1.6,8.7,9.89,48.37,18.81,72.22Zm-3.92,11.73c.07.09.13.19.19.28,1.09-.23,2.21-.32,3.27-.28-.01-.03-.03-.06-.04-.09-.27-.23-.5-.52-.66-.87-.57-1.26,0-2.75,1.26-3.32,1.56-.71,3.51-1.58,3.83-2.04,0,0,0,0,0-.02-.73-.37-3.22-.67-6.28-.01-1.31.28-2.16.95-2.52,2-.46,1.35-.07,3.14.95,4.35Zm17.52,44.67c.25.31.43.67.51,1.06l.39,1.78c.03.13.04.25.05.38.59,10.01.57,27.75.47,48.29,5.74.96,15.39-2.77,21.9-6.07-2.29-17.91-5.62-41.39-6.94-47.81-.07-.35-.07-.72.01-1.07,2.22-9.64,3.98-22.96,3.84-29.09-.02-.89-.05-2.1-.46-2.63-.22-.28-.71-.59-1.19-.87-2.38-1.41-7.59-3.41-10.46-4.21.62,1.45,2.06,2.65,3.69,4.02.79.66,1.6,1.34,2.37,2.1,2.18,2.14.98,6.04-.08,9.49-.24.76-.48,1.56-.55,1.94-.25,1.36-1.55,2.27-2.92,2.02-1.37-.25-2.27-1.56-2.02-2.92.12-.68.39-1.53.69-2.52.35-1.13,1.13-3.67,1.09-4.69-.56-.52-1.17-1.03-1.81-1.57-.89-.75-1.83-1.54-2.69-2.43-1.79,1.37-3.9,2.11-6.15,2.11-.09,0-.18,0-.28,0-2.7-.07-5.38-1.2-7.58-3.12-.46.86-1.05,1.5-1.56,2.02,3.12,1.36,7,3.84,6.52,7.66-.14,1.11-.79,2.12-1.63,3,6.61,3.29,13.64,7.6,15.6,12.97.48,1.3-.19,2.74-1.5,3.22-1.3.48-2.75-.19-3.22-1.5-1.18-3.22-6.36-7.02-15.39-11.3-1.56-.74-3.32-1.57-2.7-3.68.21-.72.75-1.28,1.41-1.58.97-.57,2.02-1.39,2.4-1.86-.4-.77-3.08-2.37-5.93-3.22-1.18-.35-1.94-1.51-1.78-2.74.29-2.19,1.52-3.41,2.42-4.3.79-.79,1.14-1.13,1.16-2.11-.27-.19-1.08-.47-2.4-.45-1.92.04-3.62.73-4.16,1.37-2.45,2.93.27,9.96,1.73,13.74.31.8.58,1.51.78,2.08,1.05,3.08,10.59,15.42,16.36,22.48Zm-2.24,59.26c9.44,3.65,24.55.2,30.46-7.08-.14-1.12-.28-2.26-.41-3.46-6.82,3.71-20.85,10.07-29.23,7.27-.31-.1-.6-.22-.89-.35.02,1.2.04,2.41.08,3.62Zm.19,5.37c.37,8.41,1.04,16.18,1.87,20.97.38,2.2,1.18,4.44,2.33,6.68,2.43-1.9,5.21-3.29,8.06-3.9,5.59-1.19,10.91.71,14.62,5.2,2.06-1.41,4.33-2.52,6.65-3.28,2.66-5.66,5.42-12.58,8.19-20.62.07-.19.16-.36.26-.52.95-16.96,1.56-28.1,1.64-29.57-.22-2.81-3.12-39.89-3.77-44.26-1.13-7.58,1.5-15.48,4.05-23.12,2.05-6.16,3.98-11.97,3.51-16.56-.14-1.38.86-2.61,2.24-2.76,1.28-.14,2.4.7,2.69,1.9.49-7.84,1.33-16.96,2.75-24.71-4.21,2.61-7.45,4.88-9.8,6.86-9.93,8.39-11.74,15.75-14.74,27.94-.34,1.4-.7,2.85-1.09,4.36-1.18,4.62-2.92,14.08-4.94,25.04l-.79,4.3c1.48,8.21,4.28,28.06,6.37,44.2.14-.09.31-.19.43-.28.72-.49,1.65-.56,2.44-.2.79.36,1.34,1.11,1.45,1.97.09.7.19,1.61.31,2.68.5,4.54,2.03,18.36,4.35,20.7.98.98.97,2.58-.01,3.55-.49.49-1.13.73-1.77.73s-1.29-.25-1.78-.74c-1.99-2.01-3.29-6.42-4.35-12.88-5.74,4.64-14.55,7.39-22.76,7.39-2.93,0-5.78-.36-8.39-1.1Zm14.34,47.95c.05-.69-.47-1.3-1.16-1.35-1.03-.08-2.1-.07-3.15-.06-2.47,0-3.88-.04-4.86-.41-.86-.32-1.48-1.08-1.61-1.99-.14-.93,0-2.18.41-3.73.98-3.68,5.17-8.29,9.85-9.28,2.91-.62,5.37.29,7.33,2.72.43.54,1.23.63,1.77.19.35-.28.44-.65.46-.84.02-.19.01-.57-.27-.92-2.56-3.18-5.95-4.43-9.81-3.61-5.15,1.09-10.43,6.07-11.76,11.09-.86,3.25-.7,5.58.5,7.13,1.57,2.03,4.29,2.18,7.95,2.15.33,0,.65,0,.98,0,.69,0,1.37.01,2.01.06h.1c.65,0,1.2-.51,1.25-1.16Zm2.83-6.44l1.76-3.07c-.62-.37-1.2-.84-1.68-1.44-.85-1.05-1.48-1.14-2.37-.96-.99.21-2.02.78-2.95,1.52,1.95,1.78,3.78,3.09,5.24,3.94Zm4.54,13.28c2.14-3.74,4.8-7.02,7.82-9.73,2.37-5.54,8.79-11.06,11.63-12.93,1.32-.86,2.64-1.71,3.97-2.55h-5.06c-3.84,0-8.4,1.8-11.79,4.59-.27,1.49-1.03,2.83-2.22,3.79-.5.4-1.04.68-1.6.9l-5.13,8.96c0,.17.03.33.01.5-.11,1.41-.71,2.68-1.6,3.67.13,2.07,2.42,2.64,3.96,2.79Zm3.64,26.6h14.64s.06,0,.09,0c0,0,.02,0,.02,0h142.29c-.09-.08-.18-.15-.27-.24-.16-.15-.29-.32-.4-.51-2.56-4.27,4.25-19.74,4.32-19.9.16-.34.36-.64.55-.94-.39.03-.77.06-1.17.06h-162.68c-1.46,0-2.73-.19-3.86-.51l3.05,18.24c.02.14.03.28.03.41,0,1.86,1.52,3.38,3.38,3.38Zm16.95,5.02c-.92,15.43-1.79,29.82-2.61,43.14,12.14,1.52,25.59.6,27.21-1.32.33-.61,2.04-5.73.54-41.82h-25.14Zm49.76,370.19c-.04-.13-.06-.26-.08-.4-.04,0-.08.02-.12.02-1.01.21-1.98.4-2.82.61-1.11.27-2.53.39-4.11.39-3.25,0-7.19-.48-10.69-1.03-3.6,10.87-12.91,30.77-15.1,33.43-5.78,7.02-5.53,12-4.29,14.94,1.32,3.15,4.3,5.05,6.44,5.23,6.77.59,13.49-1.56,18.46-5.9,4.48-3.91,7.11-9.22,7.39-14.95.31-6.21,2.1-10.39,3.67-14.08,2.24-5.23,4-9.36,1.25-18.27Zm7.79-202.9h0c-12.22,0-28.31-1.36-42.19-2.84,3.17,50.24,7.17,127.95,9.32,169.99.71,13.77,1.24,24.24,1.52,29.18,5.38,1.11,15.56,2.85,19.34,1.93.9-.22,1.93-.43,3.01-.65,2.17-.44,6.65-1.36,7.52-2.31.44-2.87,1.25-32.68,1.48-195.29Zm36.99,202.72c-3.05.44-6.3.78-9.04.78-1.58,0-3-.11-4.11-.39-.84-.21-1.8-.4-2.82-.61-.61-.12-1.22-.25-1.83-.38,0,.25-.02.5-.1.75-2.75,8.91-.99,13.04,1.25,18.27,1.58,3.69,3.36,7.87,3.67,14.08.29,5.73,2.91,11.04,7.39,14.95,4.97,4.34,11.7,6.49,18.46,5.9,2.13-.18,5.11-2.08,6.44-5.23,1.23-2.94,1.49-7.91-4.29-14.94-2.17-2.64-11.35-22.26-15.01-33.18Zm16.85-206.71c-13.48,2-29.3,3.87-41.85,3.98,1.11,161.27,2.05,191.92,2.53,195.3.89.95,5.34,1.86,7.51,2.3,1.08.22,2.12.43,3.01.65,3.78.93,13.96-.81,19.34-1.92.33-6.26.99-21.37,1.88-41.44,2-45.12,5.01-113.12,7.58-158.86Zm25.34-9.4c-.45-6.95-2.3-33.05-7.59-105.79-3.37.39-8.63.83-13.97.83-7.78,0-15.7-.93-17.98-4.27-.93-1.36-3.1-4.55-1.43-44.67h-65.59c1.66,40.13-.5,43.32-1.43,44.68-2.3,3.36-10.25,4.23-17.82,4.23-5.65,0-11.09-.48-13.83-.77-1.4,22.43-2.66,41.68-3.77,57.5-2.24,31.98-3.42,45.03-4.39,50.54,10.2,1.4,46.15,6.09,68.63,6.09h10.88c22.89,0,59.16-6.62,68.29-8.36Zm-11.09-153.9h-24.85c-1.5,36.08.21,41.21.57,41.87,1.63,1.91,15.33,2.81,27.42,1.24-.94-12.92-1.98-27.24-3.14-43.12Zm42.39-51.3c-.15-.36-.21-.74-.19-1.1-2.23-3.55-5.82-8.01-9.67-8.75-.72-.14-1.43-.13-2.14,0,5.72,2.46,10.69,7.84,12.23,13.63,1.29,4.87.84,8.63-1.38,11.5-.97,1.25-2.13,2.12-3.37,2.73.06.84-.3,1.68-1.03,2.21-2.36,1.7-5.06,2.63-7.44,3.45-3.53,1.22-5.75,2.07-6.74,4.13-1.93,4.06-4.48,12.31-4.48,14.93,1.47-.17,4.77-6.02,5.87-7.96,1.89-3.35,3.03-5.29,4.45-6.27,1.14-.79,2.7-.51,3.5.63.16.23.26.48.34.73h.01c1.03,3.49,2.55,8.65-.15,12.37-1.64,2.26-4.48,3.46-8.43,3.57-.02,0-.05,0-.07,0-.34,0-.67-.07-.97-.2-.13.13-.27.23-.4.35.08.39.05.8-.07,1.19.12.05.24.1.35.16,3.59,2.12,7.01,2.7,9.89,1.67,2.63-.93,4.67-3.17,5.9-6.46.9-2.4,2.49-5.48,4.19-8.74,2.27-4.37,4.84-9.32,5.53-12.44.32-1.47-.07-8.16-5.69-21.31Zm-14.27,39.25c.45-.61.58-1.49.55-2.48-.09.15-.18.31-.26.45-.57,1.01-1.15,2.03-1.74,3.02.6-.23,1.12-.54,1.45-.99Zm-122.24,425.24c-1.47,1.28-7.53,2.37-11.66,1.19-.67-.19-2.25-.74-2.54-1.69-.41-1.33-1.81-2.07-3.14-1.66-1.33.41-2.07,1.81-1.66,3.14.51,1.67,1.96,3.9,5.96,5.05,1.66.47,3.57.7,5.51.7,4.29,0,8.72-1.09,10.83-2.93,1.05-.91,1.16-2.5.25-3.54-.91-1.05-2.5-1.16-3.54-.25Zm59.49.25c-.91,1.05-.8,2.63.25,3.54,2.11,1.84,6.54,2.93,10.83,2.93,1.94,0,3.85-.22,5.51-.7,4-1.14,5.45-3.37,5.96-5.05.41-1.33-.34-2.73-1.66-3.14-1.32-.41-2.73.34-3.14,1.66-.29.95-1.87,1.5-2.54,1.69-4.13,1.18-10.19.09-11.66-1.19-1.05-.91-2.63-.8-3.54.25Zm-28.8-624.39c1.26,0,2.29-1.02,2.29-2.29s-1.02-2.29-2.29-2.29-2.29,1.02-2.29,2.29,1.02,2.29,2.29,2.29Zm0,23.23c1.26,0,2.29-1.02,2.29-2.29s-1.02-2.29-2.29-2.29-2.29,1.02-2.29,2.29,1.02,2.29,2.29,2.29Zm24.99,126.28c-1.04-.04-1.85-.91-1.82-1.95.01-.4.15-.77.38-1.07.06-.22.16-.43.31-.62,2.77-3.69,7.92-3.83,13.14-.37,5.1,3.38,8.95,9.65,6.06,14.62-.32.55-.91.91-1.55.93-.03,0-.05,0-.08,0-.61,0-1.19-.3-1.54-.8-2.83-4.04-10.8-10.6-14.9-10.74Zm4.28-2.7c3.76,1.63,7.79,4.86,10.66,7.75-.77-2.17-2.75-4.42-5.01-5.93-1.7-1.13-3.85-2.01-5.65-1.83Zm17.88-5.71c0-.42.15-.8.38-1.11.07-.19.17-.38.31-.55,2.65-3.32,7.78-3.31,12.48.02,3.93,2.79,6.96,7.7,4.33,11.9-.33.53-.9.86-1.53.88-.02,0-.05,0-.07,0-.6,0-1.17-.29-1.52-.77-2.36-3.22-9.04-8.4-12.53-8.46-1.04-.02-1.87-.88-1.85-1.92Zm7.16-.29c2.37,1.21,4.75,2.96,6.69,4.68-.68-1.09-1.72-2.14-2.86-2.95-1.17-.83-2.54-1.48-3.83-1.73Zm-102.57,52.4c1.49-.05,2.49.02,3.47.08.73.05,1.47.1,2.37.1.75,0,1.6-.03,2.65-.13,1.38-.13,2.4-1.35,2.27-2.73-.13-1.38-1.34-2.39-2.73-2.27-1.91.18-2.98.11-4.22.02-1.04-.07-2.23-.15-3.97-.09-1.39.05-2.47,1.21-2.43,2.59.05,1.39,1.23,2.45,2.59,2.43Zm8.62,4.43c-2.12.2-3.15.18-4.44.16-.9-.01-1.92-.03-3.45.02-1.39.05-2.47,1.21-2.43,2.59.05,1.36,1.16,2.43,2.51,2.43.03,0,.06,0,.08,0,1.41-.05,2.35-.03,3.2-.02,1.39.02,2.59.04,4.98-.18,1.38-.13,2.4-1.35,2.27-2.73-.13-1.38-1.33-2.4-2.73-2.27Zm-29.23-3.47c.76.05,1.41.07,2,.07,1.21,0,2.13-.09,3.02-.17.92-.09,1.87-.17,3.24-.17.08,0,.18,0,.24,0,1.38,0,2.5-1.11,2.51-2.49,0-1.39-1.11-2.52-2.49-2.53-1.75-.02-2.92.1-3.96.19-1.24.12-2.31.22-4.22.09-1.36-.09-2.58.95-2.67,2.34-.09,1.38.96,2.58,2.34,2.67Zm4.64,9.45c.76-.03,1.6-.07,2.78-.07.14,0,.34.01.44,0,1.38,0,2.5-1.11,2.51-2.49.01-1.39-1.11-2.52-2.49-2.53-1.54-.01-2.55.03-3.45.07-1.29.05-2.31.1-4.44-.04-1.37-.1-2.58.96-2.67,2.34-.09,1.38.96,2.58,2.34,2.67,1.2.08,2.1.11,2.88.11s1.42-.03,2.11-.06Zm38.95-9.94c.76.05,1.41.07,2,.07,1.21,0,2.13-.09,3.02-.17.92-.09,1.87-.17,3.24-.17.08,0,.18,0,.24,0,1.38,0,2.5-1.11,2.51-2.49,0-1.39-1.11-2.52-2.49-2.53-1.73-.02-2.92.1-3.96.19-1.24.12-2.31.22-4.22.09-1.36-.09-2.58.95-2.67,2.34-.09,1.38.96,2.58,2.34,2.67Zm-.35,9.4c1.2.08,2.1.11,2.88.11s1.42-.03,2.11-.06c.76-.03,1.6-.07,2.78-.07.14,0,.34,0,.44,0,1.38,0,2.5-1.11,2.51-2.49,0-1.39-1.11-2.52-2.49-2.53-1.54-.01-2.55.03-3.45.07-1.29.05-2.31.1-4.44-.04-1.37-.1-2.58.96-2.67,2.34-.09,1.38.96,2.58,2.34,2.67Zm21.92-9.82c.76.05,1.41.07,2,.07,1.21,0,2.13-.09,3.02-.17.92-.09,1.87-.17,3.25-.17.08,0,.17,0,.23,0,1.38,0,2.5-1.11,2.51-2.5,0-1.39-1.11-2.52-2.49-2.53-1.74-.02-2.92.1-3.96.2-1.24.12-2.31.22-4.22.09-1.38-.09-2.58.96-2.67,2.34-.09,1.38.96,2.58,2.34,2.67Zm-.35,9.4c1.2.08,2.1.11,2.87.11s1.42-.03,2.11-.06c.76-.03,1.6-.07,2.79-.07.14,0,.3,0,.43,0,1.38,0,2.5-1.11,2.51-2.5,0-1.39-1.11-2.52-2.49-2.53-1.52-.01-2.55.03-3.45.07-1.29.05-2.31.1-4.44-.04-1.36-.08-2.58.96-2.67,2.34-.09,1.38.96,2.58,2.34,2.67Zm21.92-9.81c.75.05,1.41.07,1.99.07,1.21,0,2.13-.09,3.03-.17.92-.09,1.87-.17,3.24-.17.08,0,.18,0,.24,0,1.38,0,2.5-1.11,2.51-2.49,0-1.39-1.11-2.52-2.49-2.53-1.74-.02-2.92.1-3.96.2-1.24.12-2.31.22-4.22.09-1.36-.09-2.58.96-2.67,2.34-.09,1.38.96,2.58,2.34,2.67Zm-.35,9.4c1.2.08,2.1.11,2.88.11s1.42-.03,2.11-.06c.76-.03,1.6-.07,2.78-.07.14,0,.33,0,.44,0,1.38,0,2.5-1.11,2.51-2.49,0-1.39-1.11-2.52-2.49-2.53-1.53-.01-2.55.03-3.45.07-1.29.05-2.31.1-4.44-.04-1.37-.08-2.58.96-2.67,2.34-.09,1.38.96,2.58,2.34,2.67Zm20.58-8.76c.83.06,1.54.08,2.17.08,1.13,0,2-.08,2.85-.15.97-.08,1.98-.17,3.46-.15,1.39,0,2.53-1.09,2.55-2.48.02-1.39-1.09-2.53-2.48-2.55-1.75-.02-2.92.08-3.96.17-1.24.11-2.31.2-4.22.06-1.36-.11-2.59.94-2.69,2.32-.1,1.38.94,2.59,2.32,2.69Zm-.41,9.4c1.32.1,2.27.13,3.1.13.68,0,1.26-.02,1.89-.04.85-.03,1.79-.07,3.2-.04h.03c1.37,0,2.49-1.1,2.51-2.48.02-1.39-1.09-2.53-2.48-2.55-1.53-.02-2.55.02-3.45.05-1.29.05-2.31.08-4.44-.07-1.36-.12-2.59.94-2.69,2.32-.1,1.38.94,2.59,2.32,2.69Zm21.15-9.4c.83.06,1.54.08,2.17.08,1.13,0,2-.08,2.85-.15.97-.08,1.98-.17,3.46-.15,1.4,0,2.53-1.09,2.55-2.48.02-1.39-1.09-2.53-2.48-2.55-1.75-.02-2.92.08-3.96.17-1.24.11-2.31.2-4.22.06-1.38-.11-2.59.94-2.69,2.32-.1,1.38.94,2.59,2.32,2.69Zm-.41,9.4c1.32.1,2.27.13,3.1.13.68,0,1.26-.02,1.89-.04.85-.03,1.79-.07,3.2-.04h.03c1.37,0,2.49-1.1,2.51-2.48.02-1.39-1.09-2.53-2.48-2.55-1.52-.02-2.55.02-3.45.05-1.29.05-2.31.08-4.44-.07-1.38-.12-2.59.94-2.69,2.32-.1,1.38.94,2.59,2.32,2.69Z"/>
        </g>
      </g>
    </g>
    <circle class="cls-1" cx="220.7" cy="220.7" r="219.2"/>
  </g>
</svg>