<?xml version="1.0" encoding="UTF-8"?>
<svg id="_レイヤー_2" data-name="レイヤー 2" xmlns="http://www.w3.org/2000/svg" xmlns:xlink="http://www.w3.org/1999/xlink" viewBox="0 0 441.41 441.41">
  <defs>
    <style>
      .cls-1 {
        fill: none;
        stroke: #000;
        stroke-miterlimit: 10;
        stroke-width: 3px;
      }

      .cls-2 {
        clip-path: url(#clippath);
      }

      .cls-3, .cls-4 {
        fill: #fff;
      }

      .cls-5 {
        fill: #f2e4d7;
      }

      .cls-5, .cls-6, .cls-7, .cls-4 {
        stroke-width: 0px;
      }

      .cls-6 {
        fill: #232323;
      }

      .cls-7 {
        fill: #d7e9f4;
      }
    </style>
    <clipPath id="clippath">
      <circle class="cls-4" cx="220.98" cy="221.95" r="219.2"/>
    </clipPath>
  </defs>
  <g id="_レイヤー_1-2" data-name="レイヤー 1">
    <g>
      <circle class="cls-3" cx="220.98" cy="221.95" r="219.2"/>
      <g class="cls-2">
        <g>
          <path class="cls-4" d="m349.71,419.51c-.36-20.44-3.38-54.06-5.07-80.24-1.41-21.91-4.19-30.76-5.91-53.21-1.71-22.33-9.92-66.77-13.44-82.17l.1-1.11c-1.63-6.84-4.41-13.21-9.43-18.03-8.13-7.83-19.08-12.03-28.34-19-9.31-7-21.1-13.17-32.31-16.68l.93,2.87c.36,10.01-7.25,56.65-8.88,65.74-3.78,21.09-20.25,82.33-20.25,82.33l-3.82,3.59c-11.93-19.15-19.34-74.84-22.81-85.92-1.61-5.15-4.5-23.32-6.55-39.54l-3.57-30.59c-11.21,3.52-25.8,11.21-35.11,18.21-9.27,6.97-20.21,11.17-28.34,19-5.03,4.84-7.82,11.24-9.45,18.1-3.38,14.36-11.93,60.36-13.68,83.21-1.72,22.45-4.5,31.3-5.91,53.21-1.69,26.18-4.71,59.81-5.07,80.24-.15,8.5-.72,42.31-.72,42.31,0,0,20.99,7.66,26.23,6.13,5.09-1.49,10.23-6.05,15.53-8.96-.45,35.52-2.61,103.69-2.61,103.69,0,0-2.96,10.53,11.12,14.22,10.02,2.62,21.02,3.47,31.96,3.52,10.75.04,36.34-.87,45.89-13.05l3.12,1.19c10.23,11.06,34.49,11.91,44.87,11.87,10.94-.04,21.94-.9,31.96-3.52,14.08-3.69,11.12-14.22,11.12-14.22,0,0-2.16-68.17-2.61-103.69,5.3,2.91,10.44,7.47,15.53,8.96,5.25,1.53,26.23-6.13,26.23-6.13,0,0-.57-33.81-.72-42.31Z"/>
          <circle class="cls-7" cx="279.48" cy="265.79" r="10.14"/>
          <path class="cls-7" d="m257.1,155.14s-.84-3.01-.87-3.55l-6.34-9.71c-3.99,4.45-6.78,9.06-11.82,12.67-2.96,2.12-9.55,8.53-13.51,8.43-2.53-.06-8.87-4.63-13.94-9.07-3-2.63-7.16-8.49-10.14-13.94l-9.29,13.73c-.09,7.19,6.5,55.05,9.29,63.96,3.47,11.07,10.88,66.77,22.81,85.92h1.27c11.93-19.15,19.34-74.84,22.81-85.92,2.22-7.07,6.83-38.69,8.38-56.08l1.36-6.45Z"/>
          <polygon class="cls-4" points="236.41 271.7 228.78 191.71 232.16 184.53 225.43 164.85 223.31 166.54 214.02 184.28 219.07 191.71 211.49 270.85 223.29 303.58 224.16 302.53 236.41 271.7"/>
          <path class="cls-5" d="m260.18,45.33c-6.97-10.14-9.41-12.04-19.55-11.4l.04.11-5.95-.96c-5.49-1.69-14.9-.92-20.27-.84-6.54.09-13.07,2.73-18.04,6.76-6.24,5.06-5.31,5.53-9.44,12.5-1.59,2.69-4.7,12.78-3.77,15.79.96,3.12,2.09,21.37,3.78,29.4l7.62-1.52.95-21.86,10.59-4.69c2.39,0,4.84.24,7.56.37,3.85.18,7.83-.42,11.63-.83,4.64-.5,14.45-2.13,15.72-6.78l17.53,32.84,4.98,1.79c2.25-8.7,3.38-27.87,3.8-32.1.39-3.87-3.62-13.4-7.18-18.58Z"/>
          <path class="cls-4" d="m258.97,95l-1.56-.86c.36-7.3.51-14.58.1-18.83,0,0-3.36-8.34-8.43-11.4-4.1-2.48-8.02-2.53-8.02-2.53-1.27,4.65-11.08,6.27-15.72,6.78-3.8.41-7.78,1.02-11.63.83-2.72-.13-5.17-.36-7.56-.37h0c-3.24,0-6.36.4-9.85,2.05l-2.82,4.65c-.41,4.2-.27,11.36.08,18.57l-1.09,1.11c-9.04,3-4.43,19.64,2.53,24.71l1.36.41c1.5,4.12,4.26,8.81,7.49,13.01,3.57,4.64-2.8,12.32.89,14.3,0,0,16.03,15.55,19.83,15.55,4.48,0,21.03-15.55,21.03-15.55,4.15-2.07-1.98-10.04,1.83-14.94,3.27-4.21,5.97-8.84,7.37-12.87l2.91-.55c5.7-4.43,10.31-21.07,1.27-24.07Z"/>
          <path class="cls-6" d="m212.61,97.2c-.04,2.42-1.37,4.35-2.97,4.33-1.6-.02-2.86-2-2.82-4.42.04-2.42,1.37-4.36,2.96-4.33,1.6.03,2.87,2.01,2.83,4.42Zm28.74-4.42c-1.6-.03-2.93,1.91-2.97,4.33-.04,2.42,1.22,4.39,2.82,4.42,1.6.03,2.93-1.91,2.97-4.33.04-2.41-1.23-4.39-2.83-4.42Zm-16.45,20.91c-1.03.21-1.7,1.21-1.49,2.24.18.9.97,1.53,1.86,1.53.12,0,.25-.01.37-.04,1.56-.31,2.62-.94,3.25-1.92,1-1.56.57-3.38.07-5.48-.31-1.31-.66-2.8-.79-4.53-.07-1.05-.99-1.84-2.03-1.76-1.05.08-1.83.98-1.76,2.03.15,2.04.55,3.76.88,5.14.22.94.53,2.24.46,2.52,0,0-.17.15-.82.28Zm-21.75-27.39c.34,0,.69-.09,1.01-.29.35-.22,3.58-2.13,7.74-.87,1,.31,2.07-.26,2.37-1.27.31-1-.26-2.07-1.27-2.37-5.65-1.72-10.04.77-10.87,1.29-.89.56-1.16,1.73-.6,2.62.36.58.98.89,1.61.89Zm34.47-4.8c-1,.31-1.57,1.37-1.27,2.37.31,1,1.36,1.57,2.37,1.27,4.29-1.3,7.13.36,7.44.55.31.2.66.29,1.01.29.63,0,1.25-.32,1.61-.89.56-.89.29-2.06-.6-2.62-.75-.47-4.78-2.73-10.56-.97Zm-12.25,46.34c1.29,0,2.52-.07,3.6-.18,4.82-.49,7.7-1.83,8.56-3.98.39-.97-.08-2.09-1.05-2.48-.98-.39-2.08.07-2.47,1.05-.25.44-2.28,1.48-6.72,1.73-5.72.33-9.68-.84-10.2-1.56-.58-.87-1.76-1.11-2.63-.53-.87.58-1.11,1.76-.53,2.63,1.66,2.5,6.9,3.31,11.45,3.31Zm29.72,736.15c-.49,1.31.18,2.77,1.5,3.26,2.51.93,6.16,1.32,10.26,1.32,9.9,0,22.4-2.29,27.62-4.79,1.21-.58,2.87-1.54,3.42-3.18.44-1.33-.28-2.76-1.6-3.21-1.21-.4-2.52.16-3.07,1.28-2.91,2.58-26.65,6.86-34.86,3.81-1.32-.49-2.77.18-3.26,1.5Zm-67.35-1.5c-8.2,3.04-31.95-1.23-34.86-3.81-.55-1.12-1.86-1.69-3.07-1.28-1.33.44-2.05,1.88-1.6,3.21.55,1.64,2.21,2.6,3.42,3.18,5.22,2.5,17.72,4.79,27.62,4.79,4.1,0,7.75-.39,10.26-1.32,1.31-.49,1.98-1.94,1.5-3.26-.49-1.31-1.94-1.98-3.26-1.5Zm45.69-527.02c0,4.89-3.98,8.87-8.87,8.87s-8.87-3.98-8.87-8.87,3.98-8.87,8.87-8.87,8.87,3.98,8.87,8.87Zm-5.07,0c0-2.1-1.71-3.8-3.8-3.8s-3.8,1.7-3.8,3.8,1.7,3.8,3.8,3.8,3.8-1.71,3.8-3.8Zm5.07,66.73c0,4.89-3.98,8.87-8.87,8.87s-8.87-3.98-8.87-8.87,3.98-8.87,8.87-8.87,8.87,3.98,8.87,8.87Zm-5.07,0c0-2.1-1.71-3.8-3.8-3.8s-3.8,1.71-3.8,3.8,1.7,3.8,3.8,3.8,3.8-1.7,3.8-3.8Zm5.07,66.73c0,4.89-3.98,8.87-8.87,8.87s-8.87-3.98-8.87-8.87,3.98-8.87,8.87-8.87,8.87,3.98,8.87,8.87Zm-5.07,0c0-2.1-1.71-3.8-3.8-3.8s-3.8,1.7-3.8,3.8,1.7,3.8,3.8,3.8,3.8-1.71,3.8-3.8Zm11.17-426.81c-.61-1.26-2.12-1.79-3.38-1.18-1.26.61-1.79,2.12-1.18,3.38l.49,1c2.38,4.9,3.82,7.86,3.5,10.71-.15,1.39.85,2.64,2.24,2.8.1.01.19.02.28.02,1.27,0,2.37-.96,2.52-2.25.48-4.31-1.29-7.96-3.98-13.48l-.48-1Zm3.97,19.93c.37-1.35-.43-2.74-1.78-3.11-1.35-.37-2.74.43-3.11,1.78-.47,1.71-4.91,3.99-13.55,4.93-.69.07-1.38.16-2.08.24-3.05.36-6.2.72-9.15.58-.93-.05-1.83-.1-2.7-.16-5.22-.33-10.14-.64-15.91,2.07-1.27.6-1.81,2.1-1.21,3.37.43.92,1.34,1.46,2.29,1.46.36,0,.73-.08,1.08-.24,4.59-2.16,8.5-1.91,13.44-1.6.9.06,1.82.12,2.78.16,3.37.16,6.73-.23,9.99-.61.68-.08,1.36-.16,2.04-.23,7.3-.79,16.34-2.94,17.89-8.63Zm5.58,4.4c.4,0,.81-.1,1.19-.3,4.85-2.57,8.95-9.59,8.95-15.33,0-1.4-1.13-2.53-2.53-2.53s-2.53,1.13-2.53,2.53c0,4.24-3.36,9.32-6.26,10.85-1.24.66-1.71,2.19-1.05,3.43.45.86,1.33,1.35,2.24,1.35Zm103.89,395.33c.02,1.08-.65,2.05-1.66,2.42-.67.24-1.85.67-3.34,1.18,5.03,14.49-.11,39.16-3.05,42.74-10.08,12.29-23.51,13.7-29.16,13.7-1.54,0-2.5-.1-2.66-.12-.17-.02-.33-.06-.48-.11.58,21.08,1.12,38.47,1.19,40.76.26,1.2.85,5.2-1.46,9.22-2.13,3.71-6.01,6.33-11.55,7.78-1.53.4-3.12.75-4.74,1.09-3.73,54.99-8.82,152.19-11.56,204.5-.85,16.32-1.47,28.1-1.7,31.94-.07,1.13-.87,2.07-1.97,2.32-.21.05-.62.14-1.16.25,2.53,6.31,8.17,14.01,13.22,20.89,3.48,4.74,6.77,9.23,9.01,13.14,3.01,5.25,3.66,9.79,1.94,13.49-3.02,6.48-12.04,8.11-18.01,9.19-.94.17-1.78.32-2.47.47-2.43.54-6.38,1-10.82,1-7.27,0-15.86-1.23-21.28-5.37-3.53-2.69-5.43-6.27-5.65-10.64-.24-4.88-1.38-10.32-2.58-16.07-2.06-9.85-4.18-20.02-1.93-28.57-.58-.6-1.02-1.28-1.26-2.09-1.09-3.76-5.52-84.46-13.17-239.85-.01-.29.03-.58.11-.85-2.05-1.2-3.92-2.56-5.54-4.11-.52.58-1.08,1.13-1.66,1.65,0,.09.02.17.01.26-7.74,157.39-12.23,239.11-13.33,242.89-.24.81-.68,1.5-1.27,2.1.04.1.08.2.11.3,2.11,8.49.01,18.54-2.02,28.25-1.2,5.75-2.34,11.19-2.58,16.08-.22,4.37-2.12,7.95-5.65,10.64-5.42,4.13-14.01,5.36-21.28,5.36-4.44,0-8.39-.46-10.82-1-.69-.15-1.53-.3-2.47-.47-5.97-1.08-14.99-2.71-18.01-9.19-1.72-3.7-1.07-8.24,1.94-13.5,2.24-3.91,5.53-8.39,9.01-13.13,5.05-6.88,10.69-14.58,13.22-20.89-.54-.12-.95-.21-1.16-.25-1.1-.25-1.9-1.19-1.97-2.32-.23-3.83-.85-15.61-1.7-31.91-2.72-51.92-7.78-148.57-11.51-203.73,0-.04,0-.08,0-.12-2.92-.49-5.72-1.07-8.36-1.76-5.53-1.45-9.42-4.07-11.55-7.78-2.3-4.02-1.71-8.02-1.46-9.22.07-2.29.62-19.69,1.19-40.76-.15.05-.32.09-.48.11-.16.02-1.13.12-2.66.12-5.65,0-19.08-1.42-29.16-13.7-2.93-3.58-8.08-28.25-3.05-42.74-1.49-.51-2.68-.94-3.34-1.18-1.01-.37-1.68-1.34-1.66-2.42,0,0,.57-33.82.72-42.31.25-14.04,1.75-34.32,3.2-53.93.66-8.92,1.34-18.15,1.88-26.43.74-11.47,1.83-19.24,2.98-27.48,1.04-7.4,2.11-15.05,2.93-25.77,1.78-23.26,10.42-69.48,13.74-83.6,0,0,0,0,0,0,0,0,0,0,0,0,1.97-8.34,5.29-14.67,10.15-19.35,4.97-4.78,10.95-8.27,16.72-11.65,3.99-2.33,8.12-4.74,11.85-7.55,5.69-4.28,16.04-9.35,25.82-13.5,4.38-4.79,9.46-8.75,15.13-11.69.75-.38,1.59-.36,2.29-.01.22-.55.62-1.02,1.14-1.3.36-.2,1.45-.79,2.72-.33.14.05.27.12.39.19l.09-2.07c.01-.27.08-.52.16-.76-3.11-4.1-5.74-8.6-7.31-12.7-.15.03-.31.05-.46.05-.54,0-1.09-.17-1.55-.53-4.89-3.8-8.28-13.45-7.11-20.24.12-.72.31-1.39.53-2.03-.54-.35-.95-.91-1.1-1.59-.94-4.45-1.68-11.72-2.34-18.14-.47-4.61-1.01-9.83-1.38-11.03-1.31-4.26,2.5-15.28,4.02-17.83,1.01-1.7,1.72-3.03,2.29-4.1,1.98-3.69,2.9-5.17,7.73-9.08,5.63-4.56,12.78-7.23,19.6-7.32,1.03-.01,2.22-.05,3.5-.1,5.67-.19,12.72-.43,17.55,1.05,1.34.41,2.09,1.83,1.68,3.17-.41,1.34-1.83,2.09-3.17,1.68-4.01-1.24-10.87-1-15.88-.83-1.32.05-2.54.09-3.61.1-5.71.07-11.71,2.33-16.48,6.19-4.28,3.47-4.78,4.41-6.45,7.53-.6,1.11-1.34,2.5-2.4,4.29-1.58,2.67-4.1,11.89-3.53,13.76.49,1.6.9,5.41,1.58,12.01.54,5.3,1.15,11.16,1.85,15.39.59-.43,1.23-.78,1.92-1.07-.32-6.91-.42-13.67-.02-17.81.14-1.39,1.38-2.41,2.77-2.28,1.39.14,2.41,1.38,2.28,2.77-.89,9.15.97,34.12,1.76,40.01,1.04,7.79,11.05,21.73,18.55,25.88,1.86.66,6.68,2.17,9.33,2.17,3.81,0,8.09-2.1,8.14-2.12,7.99-4,18.35-17.81,19.44-25.93.79-5.89,2.66-30.87,1.76-40.01-.14-1.39.88-2.63,2.28-2.77,1.39-.14,2.63.88,2.77,2.28.4,4.1.3,10.78-.01,17.62.54.2,1.05.44,1.54.72,1.5-7.2,2.43-19.07,2.95-25.73.14-1.79.25-3.19.33-4.02.29-2.95-3.24-11.79-6.75-16.89-6.74-9.8-8.51-10.86-17.3-10.31-1.38.08-2.6-.97-2.69-2.37-.09-1.4.97-2.6,2.37-2.69,11.41-.71,14.51,1.9,21.79,12.5,3.51,5.11,8.11,15.3,7.61,20.27-.08.81-.19,2.18-.32,3.91-.58,7.46-1.67,21.34-3.55,28.57-.11.42-.33.76-.61,1.05.44.95.77,1.99.97,3.14,1.17,6.79-2.22,16.44-7.11,20.24-.46.36-1.01.53-1.55.53-.31,0-.61-.07-.9-.18-1.55,4.02-4.15,8.41-7.26,12.43.2.34.33.73.34,1.15l.07,1.71c.78.03,1.4.35,1.65.49.54.29.96.78,1.17,1.35.14.38.3.77.45,1.16,4.97,2.88,9.45,6.56,13.35,10.91,7.95,3.49,15.82,8.01,22.55,13.08,3.73,2.81,7.86,5.22,11.86,7.55,5.78,3.37,11.75,6.86,16.72,11.65,4.84,4.66,8.16,10.97,10.13,19.27.11.45.08.9-.05,1.32,3.5,15.4,11.72,59.73,13.46,82.36.82,10.72,1.89,18.37,2.93,25.77,1.15,8.23,2.24,16.01,2.98,27.48.53,8.28,1.22,17.51,1.88,26.43,1.45,19.61,2.95,39.9,3.2,53.93.15,8.5.72,42.31.72,42.31Zm-93.25-363.5c-.39,6.51-.89,12.56-1.25,15.98,2.07-3.43,3.58-8.66,2.91-12.57-.31-1.78-.99-2.8-1.66-3.41Zm-67.32,14.98c-.34-3.43-.77-8.77-1.12-14.52-.52.63-.99,1.55-1.23,2.95-.61,3.54.58,8.18,2.35,11.57Zm41.23,157.1c-.32-.38-.54-.86-.59-1.4l-6.78-77.03c-.04-.45.04-.9.23-1.3l3.38-7.18c.07-.14.15-.27.24-.39-.41-.94-.83-1.92-1.26-2.94-1.37-3.23-2.93-6.87-4.92-10.68-1.99,3.81-3.55,7.44-4.92,10.68-.43,1.01-.85,1.99-1.26,2.94.09.12.17.25.23.39l3.38,7.18c.19.4.27.85.23,1.3l-6.73,77.45c-.04.51-.24.98-.54,1.35,2.77,11.25,5.97,21.78,9.61,28.82,3.68-7.12,6.91-17.81,9.7-29.19Zm-33.86-125.11c-1.65,3.95-3.53,7.89-5.49,11.5.17,2.59.46,5.83.84,9.47,3.47,2.98,6.46,6.94,9.35,10.79,2.13,2.83,4.31,5.74,6.67,8.22,1.06-2.04,2.08-4.44,3.21-7.09,1.59-3.75,3.39-8,5.88-12.57.24-.45.6-.79,1.02-1.01-4.26-1.96-9.73-6.51-12.29-8.75-2.76-2.41-6.54-6.93-9.19-10.56Zm39.78,11.35c-.62.45-1.47,1.14-2.45,1.94-3.59,2.94-6.88,5.48-9.87,6.49.15.16.29.33.4.53,2.49,4.56,4.29,8.82,5.88,12.57,1.12,2.65,2.14,5.05,3.21,7.09,2.36-2.49,4.54-5.39,6.67-8.22,2.89-3.85,5.88-7.81,9.35-10.79.57-5.47.94-10.03.98-12.83-1.28-2.55-2.51-5.19-3.62-7.83-.19.46-.52.84-.93,1.12-.22.27-.45.55-.67.82-2.53,3.14-5.15,6.38-8.95,9.11Zm-43.5,17.83c2.01,16.68,5.1,36.86,6.86,42.47,1.04,3.32,2.37,10.21,4.05,18.94,1.16,6.03,2.49,12.94,3.99,20.04l5.54-63.71-1.57-3.33c-.37.65-.75,1.29-1.15,1.87-.41.6-1.06.99-1.78,1.08-.1.01-.21.02-.31.02-.61,0-1.21-.22-1.68-.63-3.62-3.19-6.65-7.23-9.59-11.13-1.47-1.96-2.91-3.87-4.37-5.61Zm44.85,61.41c1.68-8.73,3.01-15.62,4.05-18.94,1.76-5.6,4.85-25.79,6.86-42.47-1.46,1.75-2.9,3.65-4.37,5.61-2.93,3.9-5.97,7.94-9.59,11.13-.46.41-1.06.63-1.68.63-.1,0-.21,0-.31-.02-.72-.09-1.37-.49-1.78-1.08-.4-.59-.78-1.23-1.15-1.88l-1.57,3.33,5.59,63.49c1.48-7.02,2.8-13.85,3.94-19.81Zm-34.7-96.11l-.23,5.31c2.13,2.68,4.53,5.39,6.32,6.96,6.41,5.61,11.16,8.36,12.34,8.44.01,0,.03,0,.04,0,2.11,0,6.72-3.78,9.21-5.82,1.05-.86,1.96-1.61,2.72-2.15,3.24-2.32,5.53-5.16,7.95-8.16.21-.26.43-.53.64-.79l-.19-4.42c-2.94,3-6.04,5.47-8.97,6.93-.22.11-5.38,2.65-10.4,2.65-4.13,0-10.52-2.28-11.24-2.54-.12-.04-.23-.09-.34-.15-2.56-1.38-5.26-3.6-7.86-6.27Zm-76.15,377.09c.04-1.37.07-2.75.11-4.14-.6.15-1.18.23-1.75.23-.95,0-1.86-.21-2.71-.62-.35-.17-.67-.38-.98-.61-.08.2-.18.39-.31.57-.5.66-1.26,1.01-2.03,1.01-.53,0-1.06-.17-1.52-.51-5.71-4.28-9.06-7.49-9.28-11.2-.2-3.34,2.25-6,4.57-8.23.54-.52,1.26-.74,1.96-.69-.07-.18-.15-.35-.22-.48-1.18.23-2.4-.41-2.86-1.57-.51-1.3.13-2.77,1.43-3.27,1.67-.65,2.98-.25,3.78.19,2.65,1.48,3.37,5.39,4.27,10.33.66,3.6,1.65,9.04,3.42,9.9.32.16.76.12,1.2,0,1.28-8.75,2.46-25.19.38-28.63-2.54-4.21-4.37-8.49-5.34-10.99-1.68.95-3.39,1.76-5.12,2.27-.65.19-1.46.28-2.39.28-4.42,0-11.57-1.92-17.27-3.7-4.58,13.02.55,35.52,2.19,38,10.97,13.38,26.61,11.78,27.27,11.71.42-.05.83.02,1.2.17Zm5.59-19.93c.75-.21,1.58-.08,2.24.43,13.1,10.19,28.76,7.17,36.99-.86,1.61-4.12,2.1-33.91,2.33-48.32.07-4.13.12-7.62.19-10.12-2.82-.34-5.74-.3-8.79-.26-2.4.03-4.89.07-7.38-.1-2.1-.14-4.24-.3-6.41-.47-6.11-.48-12.42-.97-18.23-.79-.14,0-.27-.01-.41-.03.03,1.11.08,2.09.13,2.92.42,6.33-.04,31.57-.67,57.6Zm-4.38-33.34c-.6.39-1.2.79-1.78,1.18-.31.21-.62.42-.94.63.47,1.25,1.35,3.48,2.58,6.05.05-2.72.1-5.36.14-7.86Zm-14.63,37.69c.09,1.4,2.37,3.57,4.79,5.54-.88-2.4-1.4-5.24-1.91-8.04-.08-.43-.16-.9-.26-1.38-1.86,1.84-2.68,3.05-2.63,3.87Zm83.75,318.25c-1.95.64-4.17,1.09-6.37,1.54-1.11.23-2.18.44-3.1.67-1.21.3-2.75.42-4.47.42-4.62,0-10.54-.89-14.99-1.69-2.6,7.1-8.48,15.12-14.18,22.89-3.39,4.62-6.6,8.99-8.7,12.65-2.14,3.74-2.73,6.71-1.74,8.83,1.91,4.1,9.68,5.51,14.32,6.34,1.01.18,1.92.35,2.67.51,6.12,1.36,21.09,1.77,27.93-3.45,2.32-1.77,3.52-4.01,3.66-6.86.26-5.28,1.49-11.17,2.68-16.86,1.83-8.76,3.71-17.8,2.27-25.01Zm13.95-244.05c-10.67,6.02-26.44,7.5-39.34,7.5-.23,0-.45,0-.68,0-7-.03-13.33-.4-19.12-1.11,3.73,55.34,8.74,151.2,11.45,202.85.74,14.14,1.3,24.88,1.59,29.96,5.87,1.22,17.25,3.18,21.47,2.14.98-.24,2.11-.47,3.3-.72,2.46-.5,7.55-1.54,8.39-2.65.63-3.29,3.15-39.24,12.94-237.98Zm60.29,244.99c-4.44.81-10.37,1.69-14.99,1.69-1.72,0-3.26-.12-4.47-.42-.92-.23-1.99-.44-3.1-.67-2.2-.45-4.42-.91-6.37-1.54-1.44,7.22.44,16.25,2.28,25.02,1.19,5.69,2.42,11.58,2.68,16.86.14,2.85,1.34,5.09,3.66,6.86,6.85,5.22,21.81,4.81,27.93,3.45.75-.17,1.65-.33,2.67-.51,4.64-.84,12.41-2.24,14.32-6.34.99-2.12.4-5.1-1.74-8.83-2.1-3.66-5.31-8.03-8.7-12.66-5.7-7.77-11.58-15.79-14.18-22.89Zm16.3-239.09c-6.73,1.03-14.23,1.56-22.71,1.6-.06,0-.14,0-.22,0-3.41,0-22.01-.29-36.18-6.26,9.74,197.75,12.26,233.46,12.88,236.73.84,1.1,5.93,2.14,8.4,2.65,1.19.24,2.32.47,3.3.72,4.22,1.04,15.6-.92,21.47-2.14.28-5.08.85-15.83,1.59-29.98,2.72-51.93,7.75-148.07,11.48-203.31Zm17.91-18.01c-.05-.18-.08-.39-.09-.58-.07-2.3-.99-31.36-1.73-60.87-6.62,4.9-13.79,6.98-20.56,6.98-8.92,0-17.15-3.59-22.58-9.02-1.99-1.99-2.93-9.6-3.62-51.63-.09-5.56-.16-9.95-.26-12.25-.05-1.25.81-2.34,2.04-2.59,3.99-.79,8.04-.74,11.96-.69,2.31.03,4.69.06,6.98-.09,2.08-.14,4.2-.3,6.34-.47,6.24-.49,12.7-.99,18.78-.8.11,0,.22.03.33.04.09-12.82-.49-35.11-1.11-58.43-1.04-39.37-2.11-80.08-.55-92.04.44-3.38.8-10.86,1.23-19.53,1.22-24.97,2.39-44.49,5.42-49.81.69-1.22,2.24-1.64,3.46-.95,1.22.69,1.64,2.24.95,3.46-2.67,4.69-3.93,30.49-4.76,47.55-.43,8.78-.8,16.36-1.26,19.94-1.5,11.57-.39,53.91.59,91.26.78,29.47,1.51,57.31.88,66.81-.18,2.73-.19,9.22-.09,17.87,1.6.95,3.17,2,4.69,3.02,3.19,2.14,6.2,4.16,9.04,4.99,2.59.75,13.57-2.16,22.96-5.47-.12-7.13-.56-33.18-.69-40.49-.25-13.89-1.74-34.1-3.18-53.65-.66-8.94-1.34-18.17-1.88-26.48-.73-11.28-1.8-18.96-2.94-27.1-1.05-7.48-2.13-15.21-2.97-26.08-1.77-23.02-10.33-68.83-13.62-82.82-.1-.42-.08-.84.03-1.23-1.76-6.74-4.51-11.88-8.41-15.63-4.54-4.36-9.99-7.55-15.76-10.92-4.12-2.41-8.38-4.89-12.35-7.88-3.78-2.84-7.94-5.5-12.26-7.9.03.31.07.61.1.92,2.6,4.5,4.72,9.44,6.3,14.74,3.01,10.11,5.03,19.63,6,28.32,1.32,11.81,1.4,22.88.24,34.51,3.5-.24,6.44-.73,8.24-1.33,1.32-.44,2.76.27,3.21,1.6.44,1.33-.28,2.76-1.6,3.21-2.29.76-6.04,1.38-10.43,1.62-.39,3.03-.83,6.1-1.39,9.25-.08.47-.29.88-.58,1.22,4.81,1.8,8.24,6.43,8.24,11.86,0,6.99-5.68,12.67-12.67,12.67s-12.67-5.68-12.67-12.67,5.68-12.67,12.67-12.67c.05,0,.09,0,.14,0-.14-.4-.2-.84-.12-1.29.5-2.82.9-5.57,1.26-8.29-4.51-.07-9.31-.54-13.74-1.65-.37-.09-.69-.26-.97-.48-9.27,22.26-23.54,54.83-30.68,63.4-.5.6-1.22.91-1.95.91-.57,0-1.15-.19-1.62-.59-1.08-.9-1.22-2.49-.32-3.57,8.81-10.57,31.14-64.44,37.53-80.86-2.2-1.99-4.52-5.45-7.65-10.14l-1.44-2.16c-.71-1.05-.53-2.47.43-3.31,2.41-2.12,8.1-3.35,11.52-3.92-.24-2.53-.64-6.65-1.04-10.23-.46-4.13-.65-8.45-.85-13.02-.2-4.65-.43-9.75-.97-15.48-1.64-2.73-3.47-5.28-5.47-7.61-1.52-.65-3.04-1.26-4.56-1.83.02.38-.05.76-.19,1.11-.4,13.87-6.43,56.15-8.99,64.32-.95,3.04-2.26,9.81-3.91,18.38-4.15,21.53-10.41,54.07-19.16,68.12-.48.77-1.31,1.2-2.15,1.2-.21,0-.42-.03-.63-.09-.21.05-.42.09-.63.09-.85,0-1.67-.42-2.15-1.2-8.75-14.05-15.02-46.59-19.16-68.12-1.65-8.57-2.95-15.34-3.91-18.38-2.73-8.7-9.38-55.98-8.99-66.6-2.09.81-4.29,1.71-6.54,2.65-1.44,1.65-2.78,3.41-4.04,5.25-.75,6.84-1.02,12.83-1.25,18.19-.2,4.57-.39,8.88-.85,13.02-.4,3.58-.8,7.7-1.04,10.23,3.42.57,9.11,1.8,11.52,3.92.95.84,1.14,2.26.43,3.31l-1.45,2.16c-3.13,4.69-5.45,8.15-7.65,10.14,6.39,16.42,28.72,70.29,37.53,80.86.9,1.08.75,2.67-.32,3.57-.47.39-1.05.59-1.62.59-.73,0-1.45-.31-1.95-.91-10.37-12.44-35.81-75.56-39.06-84.11-.46-1.22.07-2.59,1.23-3.17,1.63-.81,4.49-5.09,7.54-9.64-2.35-.86-6.11-1.66-9.25-2.04-1.36-.17-2.34-1.38-2.21-2.74,0-.07.64-7.06,1.27-12.72.44-3.97.63-8.2.82-12.68.09-2.14.19-4.39.33-6.73-.79,1.94-1.5,3.95-2.12,6.01-2.93,9.82-4.88,19.05-5.82,27.43-1.79,16.05-1.27,30.67,1.69,47.42,0,.04,0,.08,0,.12,4.97-.14,9.84,2.99,14.11,8.99,8.98,12.63,10.87,27.9,12.7,42.67.34,2.77.69,5.53,1.07,8.28.03.22.02.44,0,.66,2.94.88,4.07,3.16,4.1,5.05.05,2.58-1.62,5.06-4.02,6.31-.55.58-1.38.9-2.23.76-.01,0-.02,0-.03,0-.01,0-.02,0-.03,0-.13.02-.26.03-.39.03-.77,0-1.48-.35-1.95-.92-2.39-1.48-3.6-4.4-3.26-6.93.25-1.87,1.32-3.29,2.84-4.05-.02-.07-.04-.13-.05-.2-.39-2.77-.74-5.57-1.09-8.37-1.75-14.15-3.56-28.77-11.8-40.36-3.22-4.53-6.75-6.98-9.92-6.86-3.77.12-6.78,3.72-8.64,6.73-10.1,16.33-4.23,40.44,3.93,56.29,2.97-.07,5.27,1.75,5.66,4.63.35,2.53-.87,5.45-3.26,6.93-.47.57-1.18.92-1.95.92-.13,0-.26-.01-.39-.03-.01,0-.02,0-.03,0-.01,0-.02,0-.03,0-.86.13-1.68-.18-2.23-.76-2.39-1.25-4.07-3.73-4.02-6.31.02-1.17.48-2.48,1.51-3.52-9.04-17.8-14.61-42.86-3.5-60.81,2.68-4.33,5.48-6.68,8.02-7.91-.05-.14-.1-.29-.12-.45-3.04-17.25-3.58-32.32-1.73-48.87.97-8.68,2.99-18.21,6-28.32,1.83-6.16,4.4-11.82,7.6-16.89-6.55,3.08-12.62,6.32-16.35,9.13-3.97,2.98-8.23,5.47-12.34,7.88-5.77,3.37-11.23,6.56-15.77,10.92-4.14,3.98-6.99,9.5-8.74,16.86,0,0,0,0,0,0-3.29,14-11.85,59.8-13.62,82.82-.83,10.88-1.92,18.61-2.97,26.08-1.14,8.14-2.22,15.82-2.94,27.1-.54,8.3-1.22,17.54-1.88,26.48-1.44,19.54-2.94,39.75-3.18,53.65-.13,7.31-.57,33.36-.69,40.49,9.39,3.31,20.37,6.22,22.96,5.47,2.84-.83,5.85-2.85,9.04-4.99,1.52-1.02,3.09-2.07,4.69-3.02.1-8.66.09-15.15-.09-17.88-.63-9.49.1-37.33.88-66.81.98-37.35,2.1-79.68.59-91.26-.46-3.58-.83-11.16-1.26-19.94-.83-17.07-2.09-42.86-4.76-47.55-.69-1.22-.27-2.76.95-3.46,1.22-.69,2.76-.27,3.46.95,3.03,5.32,4.2,24.84,5.42,49.81.42,8.67.79,16.15,1.23,19.53,1.55,11.97.48,52.67-.55,92.04-.61,23.33-1.2,45.61-1.11,58.43.11-.02.22-.04.33-.04,6.08-.19,12.54.31,18.78.8,2.14.17,4.26.33,6.34.47,2.29.15,4.68.12,6.98.09,3.92-.05,7.97-.11,11.96.69,1.22.24,2.09,1.34,2.04,2.59-.09,2.3-.17,6.69-.26,12.25-.69,42.03-1.63,49.64-3.62,51.63-5.43,5.43-13.67,9.02-22.58,9.02-6.77,0-13.93-2.08-20.56-6.98-.74,29.51-1.66,58.57-1.73,60.87,0,.2-.04.41-.09.61-.21.81-1.78,8.17,9.32,11.08,8.64,2.26,18.89,3.39,31.32,3.44,12.85.06,35.55-1.45,43.88-12.08.73-.92,1.96-1.2,2.99-.76.94-.37,2.05-.15,2.78.63,9.01,9.74,32.05,12.29,44.2,12.2,12.44-.05,22.69-1.17,31.32-3.44,11.11-2.91,9.53-10.27,9.32-11.11Zm-148.16-237.13c.18.32.49.66.89.92.32-.29.5-.67.56-.82.24-.61.15-1.09.08-1.19-.02-.01-.14-.05-.36-.05-.09,0-.19,0-.3.02-.75.09-1.04.3-1.08.35-.02.06-.01.36.22.77Zm30.84-7.72c.06.15.23.53.56.82.4-.25.71-.6.89-.92.24-.41.25-.71.22-.78-.03-.05-.33-.26-1.08-.35-.11-.01-.21-.02-.3-.02-.23,0-.35.04-.38.06-.07.09-.15.57.09,1.18Zm87.98-60.31c-4.19,0-7.6,3.41-7.6,7.6s3.41,7.6,7.6,7.6,7.6-3.41,7.6-7.6-3.41-7.6-7.6-7.6Zm1.7-53.78c-.93-8.38-2.89-17.61-5.82-27.43-.13-.45-.29-.89-.43-1.33.03.69.06,1.38.09,2.05.2,4.48.38,8.71.82,12.68.63,5.66,1.27,12.65,1.27,12.72.12,1.36-.85,2.58-2.21,2.74-3.14.39-6.9,1.19-9.25,2.05,3.05,4.56,5.91,8.83,7.54,9.64,1.16.58,1.7,1.95,1.23,3.17-.86,2.26-3.26,8.31-6.53,16.23.11.01.22.02.34.05,4.21,1.05,8.84,1.49,13.12,1.53,1.19-11.52,1.12-22.44-.18-34.1Zm25.03,234.89c.05-.83.1-1.81.13-2.92-.13.02-.27.03-.41.03-5.81-.19-12.12.31-18.23.79-2.17.17-4.31.34-6.41.47-2.49.16-4.98.13-7.38.1-3.05-.04-5.97-.08-8.79.26.06,2.49.12,5.99.19,10.12.24,14.41.72,44.2,2.33,48.32,8.23,8.03,23.9,11.05,36.99.86.66-.51,1.49-.64,2.24-.43-.64-26.03-1.09-51.27-.67-57.6Zm5.19,32.12c1.23-2.57,2.12-4.81,2.58-6.05-.31-.21-.63-.42-.94-.63-.59-.39-1.18-.79-1.78-1.18.04,2.5.08,5.14.14,7.86Zm31.74-4.46c-5.7,1.78-12.85,3.7-17.27,3.7-.93,0-1.74-.09-2.39-.28-1.73-.51-3.44-1.32-5.12-2.27-.97,2.5-2.8,6.78-5.34,10.99-2.08,3.44-.9,19.88.38,28.63.44.13.88.16,1.2,0,1.77-.86,2.76-6.3,3.42-9.9.9-4.94,1.61-8.84,4.27-10.33.8-.45,2.11-.84,3.78-.19,1.3.51,1.95,1.97,1.45,3.28-.45,1.17-1.68,1.81-2.87,1.57-.07.13-.15.29-.22.47.7-.05,1.41.17,1.96.69,2.32,2.23,4.77,4.89,4.57,8.23-.23,3.72-3.58,6.92-9.28,11.2-.46.34-.99.51-1.52.51-.77,0-1.53-.35-2.03-1.01-.13-.18-.23-.37-.31-.57-.31.23-.63.44-.98.61-.85.41-1.76.62-2.71.62-.56,0-1.15-.09-1.75-.23.04,1.39.07,2.77.11,4.14.37-.15.78-.21,1.21-.16.65.07,16.29,1.67,27.31-11.76,1.61-2.43,6.74-24.93,2.15-37.95Zm-22.05,39.83c2.42-1.97,4.71-4.14,4.79-5.54.05-.83-.77-2.04-2.63-3.87-.09.48-.18.95-.26,1.38-.51,2.79-1.03,5.63-1.91,8.04Z"/>
        </g>
      </g>
    </g>
    <circle class="cls-1" cx="220.7" cy="220.7" r="219.2"/>
  </g>
</svg>