<?xml version="1.0" encoding="UTF-8"?>
<svg id="_レイヤー_2" data-name="レイヤー 2" xmlns="http://www.w3.org/2000/svg" xmlns:xlink="http://www.w3.org/1999/xlink" viewBox="0 0 441.41 441.41">
  <defs>
    <style>
      .cls-1 {
        fill: none;
        stroke: #000;
        stroke-miterlimit: 10;
        stroke-width: 3px;
      }

      .cls-2 {
        clip-path: url(#clippath);
      }

      .cls-3, .cls-4 {
        fill: #fff;
      }

      .cls-5 {
        fill: #f2e4d7;
      }

      .cls-5, .cls-6, .cls-7, .cls-4 {
        stroke-width: 0px;
      }

      .cls-6 {
        fill: #232323;
      }

      .cls-7 {
        fill: #d4e2cf;
      }
    </style>
    <clipPath id="clippath">
      <circle class="cls-4" cx="220.98" cy="221.95" r="219.2"/>
    </clipPath>
  </defs>
  <g id="_レイヤー_2-2" data-name="レイヤー 2">
    <g>
      <circle class="cls-3" cx="220.98" cy="221.95" r="219.2"/>
      <g class="cls-2">
        <g>
          <path class="cls-5" d="m317.4,288.29c-.37-7.65-2.85-41.28-4.63-48.72-1.69-7.1-7.15-28.28-10.37-34.44l-9.95,6.64s-1.18-17.17-5.25-23.68c-2.51-4.02-5.88-8.67-10.26-11.05-10.17-5.53-27.67-14.51-36.36-17.66l9.83,9.93c-5.09,6.07-15.43,12.75-29.38,12.75-14.85,0-25.58-6.25-29.87-12.26l9.53-9.64c-8.68,3.16-25.36,11.36-35.53,16.88-4.39,2.38-7.75,7.03-10.26,11.05-4.06,6.51-5.25,23.68-5.25,23.68l-9.96-6.64c-3.22,6.16-8.68,27.34-10.37,34.44-1.78,7.44-4.26,41.07-4.63,48.72-.21,4.36-2.35,9.54-.33,13.57,1.53,3.06,6.93,10.74,9.72,12.84l30.64-22.75,1.31.62c-.27,7.53-.75,15.52-1.42,22.7-.31,3.35-1.85,7.58-.97,10.96.63,2.42,2.26,5,4.02,7.5l-.34.32c-2.61,11.99-10.53,43.25-15.96,82.56-1.48,10.7-12.46,226.12-12.46,226.12,2.35,10.17,36.39,25.51,51.62,27.37,13.95,1.71,17.17-3.77,30.5-3.92,13.33.14,16.55,5.63,30.5,3.92,15.23-1.87,49.27-17.21,51.62-27.37,0,0-10.98-215.42-12.46-226.12-5.43-39.32-13.35-70.57-15.96-82.56l-.41-.22c1.79-2.53,3.46-5.15,4.1-7.6.88-3.39-.65-7.62-.97-10.96-.56-5.98-.99-12.53-1.27-18.91l31.82,18.34c2.79-2.1,8.19-9.78,9.72-12.84,2.02-4.03-.12-9.21-.33-13.57Z"/>
          <path class="cls-7" d="m263.27,319.98c-23.72,18.25-44.72,30.65-81.22,31.69-10.03,1.16-13.22.43-19.96-4.6-2.23,5.34-8.43,16.29-11.12,25.48-.35,1.21-5.19,1.4-5.52,2.62-2.36,8.73-3.81,18.41-4.72,25.65-1.78,14.25-6.18,33.47-3.61,39.19,3.58,7.93,18.68,9.83,24.98,6.68,0,0,5.71-32.73,7.12-44.08,2.15-17.18,7.35-28.93,10.73-41.49l2.48.06c36.5-1.04,56.57-13.56,80.3-31.81,4.84-3.72,12.77-12.25,15.12-17.73l.52-9.39c-2.35,5.48-10.28,14-15.12,17.73Z"/>
          <path class="cls-4" d="m166.03,292.57c1.83-11.72-8.93-98-8.93-98,2.65-8.94,5.16-21.69,5.39-27.74.05-1.35.08-2.8-.68-3.92-.43-.63-1.07-1.09-1.7-1.52-1-.68-2.67-1.58-4.49-2.46v-.21c-1.07-2.77-5.29-28.65-7.39-29.27-4.61-1.36-3.27,12.89-1.95,19.21l.76,7.58c-.45.56-.5,1.37-.4,2.1.12.88.98,5.78,1.41,6.51l-6.52.78h-9.39c-.26-1.3-3.65-.78-3.65-.78.54-2.78,3.59-2.62,3.78-6.26.09-1.6-1.47-2.54-3.44-2.84l1.36-4.2c3.78-1.43,5.47-2.09,5.21-4.43-.27-2.4-5.16-2.73-8.6-2.22-5.21.78-5.82,6.37-3.39,9.65l.41,1.71c-.75.29-1.4.68-1.86,1.17-4.02,4.25-.11,13.67.88,17.28,1.23,4.47,14.46,22.85,14.46,22.85l.26,2.11c-.1,18.48-4.06,65.41-4.63,83.5-.32,10.01-.99,20.96,2.97,30.37,1.63,3.88,3.11,7.64,7.47,8.52,10.3,2.09,17.79-10.75,20.85-18.31l1.83-11.18Z"/>
          <path class="cls-4" d="m275.76,292.57c-1.83-11.72,8.93-98,8.93-98-2.65-8.94-5.16-21.69-5.39-27.74-.05-1.35-.08-2.8.68-3.92.43-.63,1.07-1.09,1.7-1.52,1-.68,9.56-3.89,11.38-4.77l3.58-1.16c1.07-2.77,13.81-24.15,15.9-24.77,4.61-1.36,2.36,4.37,1.04,10.69l-.78,5.48c7.3.52,8.02,4.42,5.59,7.69,0,0,.99,2.39,1.45,2.88,4.02,4.25.11,13.67-.88,17.28-1.23,4.47-14.46,22.85-14.46,22.85l-.26,2.11c.1,18.48,4.06,65.41,4.63,83.5.32,10.01.99,20.96-2.97,30.37-1.63,3.88-3.11,7.64-7.47,8.52-10.3,2.09-17.78-10.75-20.85-18.31l-1.83-11.18Z"/>
          <path class="cls-4" d="m248.41,108.8l-2.61-22.94s-15.53-2.85-21.38-8.86c-4.16-4.28-7.81-11.76-12.71-10.91-2.34.41-10.5,5.44-12.84,15.61-1.74,7.54-5.22,6.47-5.22,6.47.14,2.41-2.76,16.42-2.34,20.12,0,0,3.56,19.11,3.58,19.16,2.89,6.44,7.28,11.54,12.04,15.06,1.59,1.17-3.79,14-2.16,14.81l-15.54,8.33s8.34,16.95,33.11,16.16c19.07-.6,30.76-16.56,30.76-16.56l-16.68-7.87c.5-1.69-3.86-14.51-1.71-16.33,4.04-3.42,7.69-8.02,10.2-13.63.23-.52.48-1.28.73-2.22l2.76-16.4Z"/>
          <path class="cls-7" d="m253.3,60.35c-2.18-4.08-7.24-9.3-7.24-9.3,6.65-2.74,4.54-11.84,2.39-14.91-.57-.81-1.75-1.63-3.09-2.24.4-3.29-3.81-8.35-9.13-8.07-11.3.59-17.55,7.89-15.47,19.1,0,0-5.21.15-7.68,2.73l-1.95-.35c-16.14-2.09-21.8,12.17-26.61,21.08-8.79,16.31-6.78,33.63-6.78,33.63,1.25,6.18,2.28,14.05,6.69,19.29,1.46,10.74,5.51,20.93,12.67,30.02-4.75-6.25-5.81-13.07-5.88-20.45l1.25-6.32-.89-6.7c.03-1.02.05-2.04.06-3.07.05-8.91.72-17.81,2.01-26.62h0,0c6.01-3.34,4.69-13.08,13.32-19.7l4.75-2.37,2.08-.7c1.57-.42,5.52,9.05,12.62,14.18s19.38,6.3,19.38,6.3l2.25,19.76c.08,1.41.14,2.82.18,4.23l-2.59,15.35c-.26,1.75,3.02.28,3.02.28.02,0,.03-.01.05-.02.39,9.41.28,17.89-5.59,25.61,7.81-9.91,11.85-21.09,12.86-32.86,1.95-3.79,3.25-8.18,4.94-11.24,1.82-12.78,1.85-28.87-7.62-46.62Z"/>
          <path class="cls-6" d="m233.79,100.17c1.43-.02,2.62,1.71,2.65,3.87.03,2.16-1.09,3.93-2.52,3.95-1.43.02-2.62-1.7-2.66-3.87-.03-2.16,1.1-3.93,2.53-3.95Zm-31.6,3.97c.04,2.16,1.23,3.89,2.66,3.87,1.43-.02,2.56-1.79,2.52-3.95-.03-2.16-1.22-3.89-2.65-3.87-1.43.02-2.56,1.8-2.53,3.95Zm16.11,16.38c.26.13.53.2.81.2.65,0,1.27-.35,1.58-.97.45-.87.1-1.94-.77-2.39-.39-.2-.58-.34-.68-.42.05-.21.19-.59.29-.88.39-1.05.91-2.49.89-4.5-.01-.97-.8-1.76-1.78-1.76h-.02c-.98.01-1.77.81-1.76,1.79.01,1.36-.35,2.36-.67,3.24-.57,1.55-1.43,3.89,2.1,5.69Zm-15.17-29.3c-1.57.29-3.05,1.04-3.87,1.95-.44.49-.4,1.23.09,1.67.23.2.51.3.79.3.32,0,.65-.13.88-.39.39-.44,1.33-.98,2.54-1.2,1.07-.2,1.99-.07,2.46.35.49.44,1.23.4,1.67-.09.44-.49.4-1.23-.09-1.67-1.04-.94-2.63-1.26-4.48-.92Zm17.62,41.38c3.49-.22,6.37-1.56,8.11-3.78.61-.77.47-1.89-.3-2.49-.77-.61-1.89-.47-2.49.3-1.09,1.39-3.11,2.27-5.54,2.43-2.84.19-5.72-.67-7.19-2.1-.7-.69-1.82-.68-2.51.02-.69.7-.68,1.82.02,2.51,2.02,1.98,5.35,3.15,8.89,3.15.34,0,.68-.01,1.02-.03Zm101.38,40.93c-.22.7-.42,1.32-.56,1.82-1.25,4.57-12.17,19.92-14.69,23.42.03.16.05.32.05.49,0,3.43.16,7.98.41,13.17.35.28.63.66.77,1.12,2.84,8.91,5.8,20.55,6.97,25.46,1.85,7.74,4.31,41.24,4.69,49.16.06,1.21.29,2.54.54,3.95.6,3.43,1.28,7.32-.46,10.8-1.57,3.13-7.17,11.23-10.41,13.67-.43.32-.92.47-1.42.47-.24,0-.47-.05-.69-.12-1.53,3.32-3.61,6.52-8.1,7.43-.9.18-1.79.27-2.67.27-6.7,0-12.44-5.18-16.65-11.8-.15.34-.32.69-.51,1.05.21.3.36.66.41,1.05,0,.01,0,.05,0,.06.09.98.3,2.07.52,3.21.52,2.71,1.12,5.78.38,8.61-.62,2.37-2.02,4.79-3.58,7.1.43,1.97.99,4.4,1.65,7.29,3.4,14.79,9.73,42.31,14.25,75.07,1.47,10.68,12.03,217.52,12.48,226.32.01.22,0,.44-.06.65-2.38,10.29-28.95,23-46.01,27.6-.15,4.36-.65,15.25-1.18,26.73-.64,13.94-1.43,31.17-1.45,33.72,3.53,10.42,11.89,27.87,13.24,29.55,6.54,7.94,6.35,14.07,5.05,17.81-1.76,5.04-6.3,8.1-10.03,8.89-1.47.31-2.97.47-4.47.47-5.17,0-10.41-1.82-14.89-5.26-6.18-4.75-10.08-11.96-10.44-19.3-.25-5.01-1.69-8.38-3.09-11.64-2.07-4.84-4.2-9.83-1.83-18.82.05-1.93-.14-15.64-.31-27.79-.48-34.69-.43-34.94-.21-35.59-2.46-.57-5.22-1-8.68-1.05-5.09.05-8.67.9-11.98,1.83-.02,2.43-.32,9.57-1.3,32.6-.54,12.65-1.14,26.91-1.18,29.13,2.75,9.54.55,14.7-1.58,19.68-1.4,3.26-2.84,6.64-3.09,11.65-.33,6.7-3.38,12.88-8.59,17.42-5.04,4.4-11.66,6.82-18.45,6.82-.82,0-1.65-.04-2.47-.11-3.37-.29-7.94-2.86-10.03-7.82-1.36-3.24-2.55-10,4.71-18.86,0,0,.01-.01.02-.02.01-.01.02-.03.03-.04,1.36-1.68,9.74-19.17,13.26-29.59.06-2.46-.18-20.03-.38-34.24-.16-11.64-.31-22.64-.33-26.96-17.02-5.15-40.96-17.06-43.21-26.81-.05-.21-.07-.43-.06-.65.07-1.3,6.68-130.81,10.28-193.11-.76-.2-1.51-.42-2.24-.68-4.73-1.68-8.05-4.4-9.61-7.84-2.02-4.47-.75-13.58,1.56-28.05.67-4.19,1.37-8.53,1.85-12.41,1.3-10.36,2.86-18.86,4.78-25.98.52-1.93,2.51-2.46,4.43-2.99.38-.1.93-.25,1.31-.39.13-.42.27-.85.41-1.28-1.53-1.29-2.5-3.22-2.5-5.37,0-3.88,3.16-7.04,7.04-7.04.21,0,.41.01.62.03.82-1.73,1.64-3.4,2.4-4.95,1.26-2.57,2.34-4.78,3.02-6.41,0-.01.02-.03.02-.04.03-.07.07-.14.12-.21.04-.07.08-.14.13-.21,0-.01.01-.03.02-.04.03-.04.07-.08.11-.12.06-.07.12-.14.18-.2.05-.05.11-.09.16-.13.07-.05.13-.1.2-.15.06-.04.12-.07.18-.1.07-.04.15-.07.23-.1.06-.02.12-.04.19-.06.08-.02.17-.05.25-.06.06-.01.12-.01.19-.02.09,0,.18-.02.26-.01.07,0,.14.01.21.02.04,0,.07,0,.1,0,.28-1.23.55-2.41.81-3.52.66-2.89,1.22-5.32,1.65-7.28-1.56-2.31-2.96-4.73-3.58-7.1-.74-2.83-.14-5.9.38-8.61.22-1.14.43-2.23.52-3.18.08-.86.16-1.77.23-2.66-4.23,6.85-10.08,12.27-16.94,12.27-.87,0-1.76-.09-2.67-.27-4.48-.91-6.57-4.11-8.1-7.43-.23.07-.46.12-.69.12-.5,0-.99-.15-1.42-.47-3.24-2.44-8.85-10.54-10.41-13.67-1.74-3.48-1.06-7.37-.46-10.8.25-1.41.48-2.74.54-3.95.38-7.92,2.84-41.43,4.69-49.16,1.18-4.96,4.17-16.69,7.01-25.6.14-.44.4-.81.73-1.09.24-5.15.4-9.67.41-13.08,0-.17.02-.33.05-.49-2.52-3.5-13.43-18.86-14.69-23.42-.14-.5-.33-1.12-.56-1.82-1.55-4.89-4.15-13.07.24-17.72.22-.24.48-.45.75-.66-1.44-2.44-1.73-5.47-.7-7.97,1.05-2.54,3.24-4.18,6.16-4.62.57-.09,2.38-.32,4.39-.2l.4-17.62-9.61-24.44c-.48-1.22.12-2.59,1.34-3.07,1.22-.48,2.59.12,3.07,1.34l5.48,13.94.34-14.98c.03-1.31,1.09-2.35,2.42-2.31,1.31.03,2.34,1.11,2.31,2.42l-.6,26.26,7.24,18.41c-.42-5.9-.24-12.17,2.08-14.31.98-.9,2.29-1.2,3.59-.82,2.2.65,3.18,2.92,7.08,22.24.62,3.06,1.3,6.45,1.67,7.87,1.54.77,2.89,1.53,3.78,2.14.82.56,1.67,1.18,2.33,2.15,1.22,1.81,1.14,3.93,1.09,5.34-.08,2.05-.42,4.9-.94,8.11.04-.02.08-.05.12-.07,9.31-5.06,28.96-14.7,38.44-18.28l2.01-13.07c-4.43-3.52-8.22-8.15-10.89-13.42,0,7.19.91,13.67,5.26,19.52.43.55.87,1.09,1.32,1.63.84.99.71,2.48-.27,3.32-.45.38-.99.57-1.54.57-.66,0-1.32-.27-1.78-.81-.55-.62-1.05-1.25-1.53-1.89-7.13-9.17-11.37-19.81-12.73-31.81-.26-.2-.5-.44-.67-.75-13.01-24.21-2.92-44.3,3.12-56.3,5.23-10.41,12.07-19.88,26.56-18.73.3.02.57.11.82.23,1.75-1.28,3.83-2.17,6.09-2.73-.4-4.28.81-8.45,3.48-11.81,2.26-2.85,6.57-6.41,14.3-7.16,5.25-.51,9.41,1.63,11.13,5.74.48,1.13.72,2.32.75,3.48,1.08.62,1.98,1.34,2.51,2.09,1.66,2.37,3.39,7.77,2.05,12.35-.57,1.95-1.64,3.53-3.12,4.71,2.4,2.13,4.57,4.6,6.06,7.39,2.12,3.97,5.22,10.7,7.19,19.03.82-.18,1.63-.4,2.43-.69,1.23-.44,2.59.2,3.03,1.43.44,1.23-.2,2.59-1.43,3.03-1.01.36-2.05.64-3.1.87,1.7,10.15,1.43,22.13-4.02,34.25-.24.53-.66.91-1.15,1.15-1.07,12.68-5.48,24.17-13.19,34.04-.46.61-.95,1.22-1.47,1.82-.47.54-1.12.81-1.78.81-.55,0-1.09-.19-1.54-.57-.99-.84-1.11-2.33-.27-3.32.43-.51.85-1.04,1.26-1.56,4.47-5.97,5.23-12.55,5.13-19.86-2.42,4.94-5.82,9.34-9.83,12.84.03.1.06.19.07.29l1.78,13.32c.02.18.02.36,0,.54,9.2,3.45,29.44,12.81,39.58,18.31.04.02.07.05.11.07-.52-3.21-.86-6.05-.94-8.1-.05-1.41-.13-3.53,1.09-5.34.66-.97,1.51-1.6,2.33-2.15,1.6-1.09,4.7-2.68,7.71-3.96,4.37-1.86,6.45-2.27,7.78-1.44.38-.81.8-1.72,1.2-2.58.08-.18.16-.35.25-.53l-3.36-.62c-1.29-.24-2.13-1.47-1.9-2.76.24-1.29,1.47-2.14,2.76-1.9l4.59.85c.64-1.34,1.25-2.6,1.84-3.79l-5.69-1.06c-1.29-.24-2.13-1.47-1.9-2.76.24-1.29,1.46-2.14,2.76-1.9l7.08,1.31c.62-1.17,1.22-2.23,1.8-3.21l.11-.57-8.25-1.53c-1.29-.24-2.13-1.47-1.9-2.76s1.47-2.13,2.76-1.9l8.24,1.53.74-3.99-8.24-1.53c-1.29-.24-2.13-1.47-1.9-2.76s1.48-2.14,2.76-1.9l8.24,1.53.74-3.99-8.24-1.53c-1.29-.24-2.13-1.47-1.9-2.76s1.48-2.14,2.76-1.9l8.24,1.53.74-3.99-8.25-1.53c-1.29-.24-2.13-1.47-1.9-2.76s1.48-2.14,2.76-1.9l8.25,1.53.74-4-8.24-1.53c-1.29-.24-2.13-1.47-1.9-2.76.24-1.29,1.48-2.14,2.76-1.9l8.24,1.53.85-4.57-9.21-1.71c-1.29-.24-2.13-1.47-1.9-2.76.24-1.29,1.47-2.13,2.76-1.9l11.54,2.14c.62.11,1.16.47,1.52.99.36.52.49,1.16.38,1.77l-7.2,38.76c.2-.09.41-.17.61-.22,1.06-.27,2.12-.08,2.98.55,3.2,2.35,1.22,10.13-1.42,17.07.35.04.63.07.79.1,3.03.45,4.66,2.08,5.5,3.36,1.18,1.8,1.55,4.1,1.06,6.39.23.18.44.36.63.56,4.39,4.65,1.79,12.83.24,17.72Zm-8.13-23.34c-2.91-.44-5.24-.02-5.91.37,0,.04,0,.05,0,.05.28.37,2.18,1.09,3.7,1.67.33.12.61.31.84.55,1.37.05,2.78.23,4.09.53,0-.71-.15-1.38-.48-1.89-.45-.69-1.2-1.12-2.24-1.27Zm-18.51,13.43l4.67.87.74-3.99-2.8-.52c-.21.14-.43.25-.67.31-.44,1.27-1.13,2.36-1.94,3.33Zm9.55.55c.78-.42,1.6-.78,2.4-1.1-.63-.38-1.32-.84-1.93-1.43l-.47,2.53Zm5.09-27.4l-1.62,8.75c.1-.02.2-.03.3-.05,1.96-4.86,3.17-9.36,3.46-11.87-.64.79-1.36,1.89-2.13,3.17Zm-7.69,15.06c-.29.61-.55,1.17-.76,1.63-.38.82-.71,1.54-1.01,2.17l1.11.21.74-3.99h-.07Zm-79.48-110.07c4.6-.25,9.46.58,13.53,2.14,2.19.84,5.53,2.5,8.91,4.85,1.28-.59,2.12-1.55,2.53-2.94.84-2.87-.28-6.74-1.38-8.31,0,0,0,0,0,0-.28.38-.59.72-.95,1.02-1.94,1.62-4.61,1.61-7.15-.02-.19-.12-.35-.27-.5-.43-1.15-1.32-2.59-3.31-1.81-5.36.28-.72,1.05-1.97,3.18-2.23.91-.11,2.09-.01,3.35.25-.99-1.93-3.16-2.82-6.15-2.53-4.8.47-8.62,2.33-11.04,5.39-1.85,2.33-2.71,5.21-2.5,8.18Zm-33.65,73.01c.05-8.81.72-17.7,1.96-26.43-.32-.31-.56-.71-.67-1.17-.29-1.27.51-2.55,1.78-2.84,3.5-.8,4.36-2.74,5.83-6.7,1.25-3.38,2.81-7.58,7.35-11.06.64-.49,1.44-.6,2.15-.38-.02-.62.21-1.24.67-1.72,1.77-1.8,3.56-2.04,4.74-1.92,3.7.37,6.36,4.45,8.49,7.73.53.82,1.04,1.6,1.41,2.06,5.08,6.37,13.36,13.27,23.92,9.94,1.25-.39,2.58.3,2.97,1.55.39,1.25-.3,2.58-1.55,2.97-.02,0-.03,0-.05.01.2.29.34.62.39.99,1.29,8.89,1.98,17.96,2.03,26.95.02,2.76.14,5.48.26,8.11.12,2.6.24,5.16.25,7.69,3.71-12.26,3.53-26.16-.65-41.13-.35-1.26.38-2.57,1.64-2.92,1.26-.35,2.57.38,2.92,1.64,1.69,6.04,2.75,11.92,3.21,17.61,1.82-7.89,1.62-15.52.47-22.28-.3.01-.59.04-.89.04-7.49,0-14.99-3.12-20.02-8.74-2.2-2.46-3.87-5.24-5.48-7.93-1.32-2.2-2.56-4.28-4.06-6.16-2.94-3.69-7.79-6.77-12.01-5.34-1.24.42-2.58-.24-3-1.48-.42-1.24.24-2.58,1.48-3,6.84-2.32,13.56,2.25,17.24,6.87,1.69,2.13,3.08,4.44,4.42,6.67,1.57,2.62,3.05,5.09,4.94,7.21,4.13,4.61,10.27,7.16,16.41,7.17-1.85-7.56-4.68-13.69-6.62-17.32-3.36-6.3-11.68-11.31-16.45-13.14-6.81-2.61-16.44-2.78-20.78,1.46-.93.92-2.44.9-3.35-.04-.03-.03-.05-.07-.08-.1-11.99-.74-17.42,7.92-21.56,16.15-5.11,10.17-12.45,24.79-7.08,42.58.27-6.39,1.23-13.1,2.92-20.14.31-1.27,1.59-2.06,2.86-1.75,1.27.31,2.05,1.59,1.75,2.86-3.64,15.11-3.83,28.63-.59,40.42,0-2.41.11-4.86.21-7.33.1-2.49.2-5.07.22-7.67Zm23.55,28.6c1.16.63,4.4,2.1,7.08,2.28,2.68-.17,5.92-1.64,7-2.24,6.79-3.4,12.54-9.57,15.85-16.96.8-1.79,1.96-7.53,3.09-15.36,0-.06.03-.11.04-.17-.2-7.5-.81-15.02-1.89-22.43-.04-.26-.02-.51.02-.75-.9.11-1.8.18-2.7.18-7.86,0-15.37-4.27-22.03-12.62-.52-.65-1.06-1.48-1.68-2.44-1.15-1.77-3.55-5.46-4.99-5.6-.28-.04-.64.27-.89.52-.65.66-1.58.85-2.4.59.02.73-.29,1.46-.92,1.94-3.45,2.65-4.64,5.85-5.79,8.95-1.21,3.25-2.56,6.86-6.61,8.77,0,.15,0,.29-.02.44-1.13,7.79-1.76,15.7-1.92,23.58.01.05.03.09.04.15,1.08,7.24,2.18,12.56,2.94,14.24,3.32,7.39,9.07,13.55,15.78,16.9Zm-4.01,3.21l-1.71,11.09-.92-.14c.04.09.09.17.13.26.45,1.23-.19,2.59-1.42,3.03-3.08,1.12-7.75,3.15-12.96,5.55,2.23,5.32,12.64,13.32,29.1,13.32,14.3,0,24.5-7.54,28.58-13.23-5.43-2.43-10.33-4.49-13.48-5.64-1.09-.4-1.71-1.5-1.52-2.61-.43-.37-.72-.88-.8-1.48l-1.46-10.99c-1.05.68-2.12,1.3-3.22,1.85-.11.06-3.98,2.18-8.01,2.7-.22.07-.45.11-.69.11h0c-.17,0-.33-.01-.5-.02-.17,0-.33.02-.5.02h0c-.24,0-.47-.05-.69-.11-4.03-.52-7.91-2.64-8.1-2.74-.61-.3-1.21-.64-1.81-.98Zm-46.13,35.15c-.91,4.44-2.02,9.04-3.17,13.02.18,1.27.38,2.65.61,4.15.74,5.04,1.67,11.4,2.41,17.66.15-.46.3-.91.45-1.36,1.93-5.8,3.75-11.29,3.31-15.62-.13-1.3.81-2.46,2.11-2.6,1.3-.14,2.46.81,2.6,2.11.55,5.35-1.43,11.3-3.52,17.6-1.65,4.95-3.34,10.03-3.73,14.78.01.56.02,1.1.02,1.62,0,.23-.04.45-.11.66.01.86.07,1.71.19,2.54.46,3.13,3.54,29.99,4.53,40.71.03.35-.02.68-.13,1,.25.38.4.83.4,1.31,0,11.21-.65,25.08-1.69,36.18-.11,1.18-.35,2.43-.58,3.63-.45,2.32-.91,4.72-.45,6.51.7,2.67,3.07,5.93,5.16,8.8,1.34,1.85,2.61,3.59,3.53,5.25.63,1.14.22,2.59-.92,3.22-.36.2-.76.3-1.14.3-.83,0-1.64-.44-2.07-1.22-.48-.87-1.13-1.84-1.85-2.86-.23.99-.46,2.03-.72,3.16-.36,1.57-.76,3.29-1.17,5.11,4.25,2.6,7.38,2.82,15.06,1.93.03,0,.06,0,.09,0,.04,0,.07-.01.11-.01,11.41-.33,21.26-1.74,30.27-4.19-8.73-.28-18.24-.85-25.87-4.48-1.18-.56-1.68-1.98-1.12-3.16.56-1.18,1.97-1.68,3.16-1.12,7.46,3.55,17.12,3.83,26.46,4.1,3.04.09,5.92.17,8.67.37.28.02.54.1.78.2,12.88-5.26,24.52-12.94,37.5-22.92,3.55-2.73,9.26-8.6,12.53-13.51-.07-.2-.12-.41-.14-.64-.52-8.45-.81-17.2-.81-24.65,0-.45.13-.86.35-1.22-.07-.26-.1-.54-.08-.83,1.03-11.04,3.79-37.8,4.26-40.97.9-6.03-1.4-12.93-3.62-19.61-2.1-6.3-4.08-12.25-3.52-17.6.14-1.3,1.3-2.25,2.6-2.11,1.3.13,2.25,1.3,2.11,2.6-.45,4.33,1.38,9.81,3.31,15.62.23.68.45,1.36.68,2.04.75-6.48,1.72-13.12,2.49-18.35.22-1.5.42-2.88.6-4.15-1.15-3.94-2.25-8.5-3.15-12.9-.04-.03-.09-.06-.12-.1-1.16-1.1-2.33-1.98-3.5-2.61-5.34-2.9-13.79-7-21.81-10.68-4.52,6.89-16.2,15.98-32.97,15.98-11.09,0-18.9-3.25-23.5-5.97-4.79-2.84-8.33-6.47-9.9-10.07-7.61,3.61-15.7,7.67-21.34,10.74-1.04.56-2.09,1.33-3.12,2.27-.15.14-.32.24-.49.33Zm112.85,129.24c-3.46,4.3-7.78,8.55-10.82,10.89-25.63,19.72-46.25,30.75-80.67,32.11-.31,1.64-.66,3.24-1.04,4.82,36.36-1.18,56.19-14.29,78.3-31.29,4.84-3.72,11.96-11.58,14.22-16.42v-.1Zm-144.52-157.19c-.06.02-.11.03-.17.05.19.06.37.13.55.21,2.13.91,3.34,2.67,3.23,4.7-.03.58-.13,1.09-.25,1.56.34-.25.65-.55.9-.9.59-.85.82-1.88.64-2.91-.32-1.81-1.85-3.1-3.61-3.19-.42.17-.85.33-1.3.5Zm7.3,9.34c2.03.47,4.55.31,6.11-.1-1.71-.39-3.22-1.29-4.38-2.54-.24.56-.53,1.1-.88,1.61-.26.37-.55.71-.85,1.02Zm5.96-11.79c-1.3.82-2.05,2.37-1.77,3.97.19,1.08.83,2,1.71,2.58-.04-1.33.35-2.27.8-2.91-.09-.18-.17-.37-.21-.57-.01-.05-.24-1.23-.53-3.06Zm5.21,2.62c.22.06.45.13.7.2,0-.07,0-.14-.02-.21-.14-.77-.49-1.46-1.02-2.01.09.5.19,1,.29,1.49.04.18.05.35.05.52Zm-1.17-7.72c.83.19,1.62.51,2.37.95-.84-4.1-1.9-9.1-2.8-12.47-.19,2.84-.06,7.1.43,11.51Zm-12.78-2.62c.18.11.35.22.51.34.98.76,1.57,1.76,1.7,2.92.15,1.36-.11,2.41-.65,3.26.48.34.91.72,1.3,1.14.48-1.13,1.19-2.14,2.09-2.97l-4.78-12.16-.17,7.47Zm-10.66,8.83c1.28-1.96,3.31-3.35,5.71-3.77.25-.04.5-.07.76-.1.84-.35,1.53-.68,1.71-.92,0,0,0,0,0-.02-.67-.39-2.99-.81-5.91-.37-1.25.19-2.09.77-2.49,1.74-.42,1.01-.31,2.33.23,3.44Zm6.97,156.37c-1.91-7.79-1.63-16.15-1.37-23.7l.07-2c.25-7.77,1.11-20.79,2.03-34.59.36-5.37.73-10.95,1.07-16.41-.86,3.29-1.57,6.15-2.01,8.02-1.71,7.18-4.21,40.97-4.56,48.29-.07,1.5-.34,3.05-.61,4.54-.52,2.97-1.01,5.78.03,7.86.9,1.79,3.18,5.2,5.36,7.99Zm31.4-7.21c.43-7.59.68-15.43.68-22.28,0-.27.06-.53.14-.78-.21-.32-.35-.68-.39-1.09-.99-10.66-4.04-37.35-4.5-40.45-.28-1.88-.31-3.78-.16-5.69-.25-9.09-2.23-22.59-3.57-31.72-.25-1.7-.48-3.28-.68-4.67,0,0,0-.02,0-.03-.01-.1-.01-.19-.01-.29,0-.06,0-.13,0-.19,0-.07.02-.14.03-.21.01-.09.03-.18.05-.26,0-.01,0-.02,0-.03,2.65-8.94,5.07-21.38,5.29-27.15.03-.84.08-1.98-.28-2.5-.2-.3-.72-.66-1.07-.89-2.16-1.47-6.95-3.65-9.6-4.57.5,1.4,1.79,2.62,3.24,3.99.7.67,1.43,1.36,2.11,2.11,1.93,2.14.57,5.74-.63,8.92-.27.71-.54,1.44-.63,1.8-.31,1.27-1.6,2.05-2.87,1.73-1.27-.31-2.04-1.6-1.73-2.87.16-.63.45-1.42.8-2.33.39-1.04,1.28-3.39,1.3-4.34-.49-.52-1.04-1.04-1.61-1.58-.1-.09-.19-.19-.29-.28-1.73,1.46-4.72,2.19-7.72,2.19-1.49,0-2.97-.18-4.3-.52.77,1.1,1.19,2.38.92,3.82-.19,1.03-.87,1.95-1.7,2.73,6.03,3.48,12.39,7.94,13.93,13.1.37,1.25-.34,2.57-1.59,2.95-1.25.37-2.57-.34-2.95-1.59-.92-3.09-5.58-6.97-13.83-11.52-1.42-.78-3.04-1.67-2.33-3.62.24-.66.78-1.16,1.42-1.4.95-.48,1.98-1.19,2.36-1.61-.34-.75-2.76-2.4-5.39-3.37-1.09-.4-1.74-1.54-1.51-2.68.4-2.04,1.63-3.12,2.52-3.91.79-.69,1.14-.99,1.21-1.92-.24-.19-.99-.51-2.23-.56-1.8-.07-3.45.48-3.99,1.05-2.48,2.62-.32,9.39.83,13.03.25.77.46,1.45.61,2,.81,2.96,9.08,15.12,14.09,22.1.41.57.52,1.26.38,1.9.2.35.33.75.33,1.19-.03,10.56-1.34,30.38-2.62,49.56-.91,13.75-1.78,26.74-2.02,34.42l-.07,2.01c-.32,9.37-.65,19.07,2.85,27.36l.13.32c1.62,3.84,2.75,6.22,5.62,6.8,7.74,1.57,14.63-8.11,18.19-16.88.24-.59.7-1.04,1.24-1.27Zm-4.45,57.91c.78.76,1.37,1.7,1.74,2.74.95-.47,2.01-.75,3.14-.75,3.88,0,7.04,3.16,7.04,7.04s-3.16,7.04-7.04,7.04c-.76,0-1.49-.12-2.17-.35l-1.58,3.69c.99.24,2,.43,3.01.51,3.21.28,5.72-.41,7.48-2.05.63-.59,1.5-.76,2.27-.54.53-1.71,1.07-3.41,1.6-5.08,1.88-5.87,3.66-11.47,4.88-17.43-7.2.58-10.98-.28-16.08-3.68-.57,1.21-1.22,2.54-1.93,3.99-.74,1.52-1.54,3.15-2.35,4.85Zm-15.56,40.51c1.07.38,2.12.81,3.15,1.27.45-2.38.91-4.46,1.41-6.28-1.24-.5-2.45-1.06-3.62-1.67-.33,2.13-.64,4.36-.94,6.68Zm6.04,14.06c.52-1.53,1.04-3.1,1.54-4.67,4.14-13.06,4.11-17.71,3.84-19.22-1.12,1.43-3.26,6.44-5.38,23.89Zm8.68,2.67c.52-1.53,1.04-3.1,1.54-4.67,4.14-13.06,4.11-17.71,3.84-19.22-1.12,1.43-3.26,6.43-5.38,23.89Zm12.96-34.01c-1.93.99-4.18,1.5-6.68,1.5-.56,0-1.14-.03-1.72-.08-5.71-.5-12.16-3.54-15.28-6.39-.81,3.24-1.56,6.76-2.25,10.63,1.35.77,2.8,1.47,4.29,2.09.97-2.35,2.03-3.88,3.2-4.69,1.1-.76,2.39-.97,3.61-.62.86.25,2.04.9,2.75,2.56.18.42.49,1.14.6,2.56.55-.81,1.12-1.42,1.72-1.83,1.1-.76,2.39-.97,3.61-.62.86.25,2.04.9,2.75,2.56.15.36.4.93.54,1.97.18-.06.35-.13.53-.19.7-3.32,1.48-6.46,2.33-9.46Zm-7.25-11.89c1.27,0,2.31-1.03,2.31-2.31s-1.03-2.31-2.31-2.31-2.31,1.04-2.31,2.31,1.03,2.31,2.31,2.31Zm-7.99.48l.6,4.07,1.38-3.21c-.26-.43-.47-.88-.64-1.36-.42.21-.87.38-1.33.5Zm-4.12-6.8c0,1.27,1.03,2.31,2.31,2.31s2.31-1.03,2.31-2.31-1.03-2.31-2.31-2.31-2.31,1.03-2.31,2.31Zm-5.4,79.83c4.99,1.78,10.6,1.71,13.83.63.9-5.19,4.29-24.92,6.08-36.92-.14.03-.29.06-.43.06,0,0-.01,0-.02,0-.51,1.84-1.12,3.87-1.85,6.12-3.05,9.47-6.7,18.45-7.8,20.6-.41.81-1.24,1.29-2.11,1.29-.23,0-.46-.03-.69-.1-1.1-.33-1.8-1.4-1.66-2.54.05-.4.12-1.27.22-2.48.43-4.97.87-9.45,1.34-13.48-2.48,7.05-4.92,12.95-5.79,14.64-.41.81-1.24,1.29-2.11,1.29-.23,0-.46-.03-.69-.1-1.1-.33-1.8-1.4-1.66-2.54.05-.4.12-1.27.22-2.48.77-8.92,1.59-16.28,2.5-22.24-1.02-.46-2.01-.9-2.98-1.28-.42,2.9-.9,5.91-1.37,8.85-1.64,10.24-3.5,21.85-1.92,25.35,1,2.21,3.44,4.1,6.88,5.33Zm48.87,327.05c-.12.02-.24.04-.35.04-.51,0-1.02-.16-1.46-.5-1.05-.82-2.13-1.79-3.27-2.83-6.78-6.12-12.13-9.99-19.18-4.07-5.3,6.53-5.06,11.16-3.91,13.91,1.25,2.97,4.06,4.76,6.07,4.93,6.37.55,12.72-1.47,17.4-5.56,1.97-1.72,3.54-3.73,4.7-5.92Zm7.04-38.24q-.18-.59,1.08-30.35c.5-11.81,1.1-26.03,1.27-31.11-2.55.62-5.35,1.1-8.82,1.1-1.63,0-3.4-.1-5.37-.35-1.66-.2-3.59-.58-5.68-1.09.04,4.96.17,15.02.32,25.6.48,34.77.45,34.87.23,35.51-2.24,6.73-6.83,17.18-10.27,24.21,7.65-1.7,14.07,4.09,18.3,7.91,1.08.97,2.1,1.89,3.01,2.61.16.13.3.27.41.43.41-1.43.67-2.9.75-4.41.29-5.85,1.98-9.79,3.46-13.27,2.07-4.85,3.71-8.69,1.3-16.8Zm68.2,37.09c-.15-.1-.29-.21-.42-.35-3.42-3.62-6.72-5.36-9.84-5.17-5.56.34-10.19,6.64-13.25,10.81-.28.38-.54.73-.79,1.07.81.85,1.69,1.65,2.64,2.38,4.67,3.59,10.32,5.02,15.48,3.92,2.42-.52,5.45-2.68,6.54-5.82.72-2.05.56-4.37-.37-6.85Zm-16.73-72.88c.48-10.46.94-20.43,1.13-25.38-1.01.2-1.97.35-2.85.46-1.97.24-3.74.35-5.37.35-4.97,0-8.56-.97-12.02-1.95-.08,2.42.16,20.04.36,34.3.39,28.19.36,28.29.21,28.86-2.05,7.54-.46,11.25,1.55,15.95,1.49,3.48,3.17,7.42,3.46,13.27.16,3.28,1.21,6.54,2.97,9.47,3.58-4.88,8.99-12.21,16.73-12.68,1.6-.1,3.19.13,4.78.64-3.37-6.36-9.56-20-12.28-28.17-.23-.69-.26-.78,1.32-35.11Zm22.21-377.95c-3.63,4.69-8.38,9.37-11.56,11.81-22.92,17.63-43.49,31.21-81.68,32.3-.02,0-.05,0-.07,0-.23,0-.45-.04-.66-.11-.92,3.25-1.94,6.47-3,9.77-2.82,8.82-5.73,17.94-7.2,29.69-1.41,11.28-7.08,43.87-7.14,44.2-.13.74-.6,1.38-1.27,1.71-2.25,1.13-5.35,1.69-8.66,1.69-.98,0-1.98-.07-2.99-.16-3.52,60.82-9.83,184.37-10.23,192.16,2.31,7.21,31.23,23.03,49.53,25.28,7.27.89,11.28-.26,15.93-1.58,3.32-.95,7.02-1.98,12.13-2.27.17-.04.35-.07.54-.08.62-.01,1.2,0,1.78,0,.48,0,.94-.02,1.44,0,.18,0,.36.03.53.07,5.12.28,8.83,1.32,12.14,2.27,4.65,1.33,8.66,2.47,15.93,1.58,15.71-1.93,46.98-16.95,49.53-25.27-.51-10.09-11-215.28-12.42-225.55-4.49-32.55-10.79-59.94-14.17-74.66-.26-1.13-.5-2.17-.73-3.17-.72,1.02-1.37,1.99-1.85,2.86-.43.78-1.24,1.22-2.07,1.22-.39,0-.78-.1-1.14-.3-1.14-.63-1.56-2.07-.92-3.22.92-1.65,2.18-3.4,3.53-5.25,2.09-2.88,4.46-6.14,5.16-8.8.45-1.71.04-3.98-.39-6.21Zm32.71-87.32c.35,5.47.72,11.04,1.07,16.41.91,13.79,1.78,26.81,2.03,34.58l.07,1.99c.26,7.56.54,15.92-1.37,23.71,2.18-2.79,4.47-6.21,5.36-7.99,1.04-2.08.55-4.88.03-7.86-.26-1.49-.53-3.04-.61-4.54-.35-7.31-2.85-41.09-4.56-48.29-.49-2.05-1.19-4.87-2.01-8.01Zm9.97-73.05c-1.27-1.34-7.87-2.02-9.91-1.14.23.39.79.77,1.89,1.4,1.44.83,3.42,1.96,3.87,4.29.24,1.23-.51,2.43-1.72,2.74-2.86.75-5.88,2.1-6.99,3.05,1.14.7,3.41,1.76,5.63,2.58.7.2,1.31.7,1.59,1.39.76,1.87-.71,2.82-2.26,3.83-2.67,1.73-10.78,7-12.15,11.59-.37,1.25-1.7,1.97-2.95,1.59-1.25-.37-1.97-1.69-1.59-2.95,1.53-5.14,7.6-9.82,11.75-12.64-4.66-2.19-4.92-3.6-5.06-4.36-.07-.37-.08-.73-.05-1.08l-9.03-1.68s-.08.08-.11.11c.02.95.9,3.3,1.3,4.35.34.91.64,1.7.8,2.33.31,1.27-.46,2.55-1.73,2.87-1.27.31-2.55-.46-2.87-1.73-.09-.36-.36-1.09-.63-1.8-1.2-3.18-2.55-6.78-.63-8.92.68-.75,1.41-1.44,2.11-2.11,1.38-1.31,2.6-2.48,3.15-3.79l-.21-.04s-.06-.02-.09-.03c-2.71.98-7.15,3.02-9.21,4.42-.35.23-.87.59-1.07.89-.35.52-.31,1.66-.28,2.5.22,5.77,2.64,18.21,5.29,27.15,0,.01,0,.02,0,.03.02.09.04.18.05.26.01.07.03.14.03.2,0,.06,0,.13,0,.19,0,.1,0,.19-.01.28,0,0,0,.02,0,.03-.2,1.39-.43,2.97-.68,4.67-1.43,9.75-3.6,24.49-3.6,33.52,0,.34-.07.65-.2.94-.02.99-.1,1.97-.24,2.95-.45,3.03-3.23,29.99-4.23,40.71-.03.37-.16.7-.34,1,.05.19.09.4.09.61,0,6.74.24,14.57.68,22.27.56.24,1.02.68,1.27,1.29,3.56,8.77,10.45,18.45,18.19,16.88,2.87-.58,4-2.96,5.62-6.8l.13-.32c3.5-8.3,3.17-17.99,2.85-27.37l-.07-2c-.24-7.68-1.11-20.67-2.02-34.41-1.27-19.18-2.59-39.01-2.62-49.56,0-.43.12-.84.33-1.19-.14-.64-.03-1.33.38-1.9,5.02-6.97,13.28-19.14,14.09-22.1.15-.55.37-1.23.61-2,1.16-3.64,3.31-10.41.83-13.03Zm-120.52,227.14c-1.29-.19-2.49.71-2.68,2.01-3.83,26.84-6.15,62.86-7.91,94.56-.79,14.29-1.36,39.82-1.95,66.84-.55,24.96-1.12,50.77-1.88,66.42-.06,1.31.94,2.42,2.25,2.48.04,0,.08,0,.12,0,1.26,0,2.3-.99,2.36-2.25.77-15.71,1.34-41.55,1.89-66.54.57-25.8,1.16-52.47,1.95-66.69,1.76-31.6,4.06-67.49,7.87-94.15.18-1.29-.71-2.49-2.01-2.68Zm56.07,96.57c-1.76-31.7-4.08-67.73-7.91-94.56-.19-1.3-1.39-2.19-2.68-2.01-1.29.18-2.19,1.38-2.01,2.68,3.81,26.65,6.12,62.55,7.87,94.15.79,14.21,1.38,40.88,1.95,66.67.55,25,1.12,50.84,1.89,66.56.06,1.27,1.11,2.25,2.36,2.25.04,0,.08,0,.12,0,1.31-.06,2.31-1.17,2.25-2.48-.76-15.65-1.33-41.47-1.88-66.43-.6-27.02-1.16-52.54-1.95-66.83Z"/>
        </g>
      </g>
    </g>
    <circle class="cls-1" cx="220.7" cy="220.7" r="219.2"/>
  </g>
</svg>